*
G04 Mass Parameters ***
*
G04 Image ***
*
%INC:\USERS\BGARROTT\DOCUMENTS\CGD15HB62P1 62MM GATE DRIVER REV 1\CGD15HB62P1 62 MM MODULE EVAL BOARD REV1.DRD*%
%ICAS*%
%MOIN*%
%IPPOS*%
%ASAXBY*%
G74*%FSLAN2X34Y34*%
*
G04 Aperture Definitions ***
*
%ADD10C,0.1500*%
%ADD11C,0.0500*%
%ADD12R,0.0320X0.0380*%
%ADD13R,0.0380X0.0320*%
%ADD14R,0.1000X0.0640*%
%ADD15R,0.0470X0.0280*%
%ADD16C,0.0540*%
%ADD17R,0.0280X0.0470*%
%ADD18R,0.0320X0.0400*%
%ADD19C,0.1160*%
%ADD20C,0.0620*%
%ADD21R,0.0620X0.0620*%
%ADD22R,0.0340X0.0500*%
%ADD23R,0.0340X0.0400*%
%ADD24R,0.0500X0.0340*%
%ADD25R,0.0400X0.0340*%
%ADD26R,0.0600X0.0600*%
%ADD27R,0.0670X0.0940*%
%ADD28C,0.0550*%
%ADD29O,0.0250X0.0940*%
%ADD30R,0.0250X0.0940*%
%ADD31R,0.1000X0.1500*%
%ADD32O,0.0810X0.0250*%
%ADD33R,0.0810X0.0250*%
%ADD34O,0.1000X0.0250*%
%ADD35R,0.1000X0.0250*%
%ADD36C,0.0830*%
%ADD37C,0.0240*%
%ADD38C,0.0100*%
%ADD39C,0.0200*%
%ADD40C,0.0080*%
%ADD41C,0.0120*%
%ADD42C,0.0240*%
%ADD43C,0.0480*%
%ADD44C,0.0240*%
%ADD45C,0.1500*%
%ADD46C,0.0500*%
%ADD47R,0.0320X0.0380*%
%ADD48R,0.0380X0.0320*%
%ADD49R,0.0640X0.1000*%
%ADD50R,0.0600X0.0600*%
%ADD51R,0.0500X0.0450*%
%ADD52C,0.0540*%
%ADD53R,0.0450X0.0500*%
%ADD54C,0.1160*%
%ADD55C,0.0620*%
%ADD56R,0.0620X0.0620*%
%ADD57R,0.0370X0.0600*%
%ADD58R,0.0320X0.0640*%
%ADD59R,0.0320X0.0940*%
%ADD60R,0.0500X0.0500*%
%ADD61R,0.0670X0.0940*%
%ADD62C,0.0550*%
%ADD63R,0.3300X0.4130*%
%ADD64R,0.1380X0.0400*%
%ADD65C,0.0830*%
%ADD66C,0.0240*%
%ADD67C,0.0010*%
%ADD68R,0.1000X0.0640*%
%ADD69R,0.0470X0.0280*%
%ADD70C,0.0590*%
%ADD71R,0.0280X0.0470*%
%ADD72R,0.0320X0.0400*%
%ADD73R,0.0340X0.0500*%
%ADD74R,0.0340X0.0400*%
%ADD75R,0.0500X0.0340*%
%ADD76R,0.0400X0.0340*%
%ADD77C,0.0600*%
%ADD78O,0.0250X0.0940*%
%ADD79R,0.0250X0.0940*%
%ADD80R,0.1000X0.1500*%
%ADD81O,0.0810X0.0250*%
%ADD82R,0.0810X0.0250*%
%ADD83O,0.1000X0.0250*%
%ADD84R,0.1000X0.0250*%
%ADD85C,0.0670*%
%ADD86C,0.0880*%
%ADD87R,0.0700X0.1200*%
%ADD88C,0.0060*%
%ADD89C,0.1000*%
%ADD90C,0.0500*%
%ADD91C,0.0050*%
*
G04 Plot Data ***
*
G54D38*
G01X0024208Y-0031583D02*
X0023542D01*
X0024208Y-0030917D01*
Y-0030750D01*
X0024125Y-0030583D01*
X0023625D01*
X0023542Y-0030750D01*
X0022675Y-0031083D02*
X0023175D01*
X0023258Y-0031250D01*
Y-0031417D01*
X0023175Y-0031583D01*
X0022675D01*
X0022592Y-0031417D01*
Y-0031250D01*
X0022925Y-0030583D01*
X0022308Y-0031583D02*
X0021975D01*
X0022142D02*
Y-0030583D01*
X0021975Y-0030750D01*
X0011812Y-0031583D02*
X0011229D01*
Y-0030583D01*
X0010946Y-0031250D02*
X0010279D01*
X0010946Y-0031583D02*
Y-0031083D01*
X0010696Y-0030583D01*
X0010529D01*
X0010279Y-0031083D01*
Y-0031583D01*
X0009662D02*
Y-0030583D01*
X0009996D02*
X0009329D01*
X0008462Y-0031583D02*
X0008379Y-0031417D01*
Y-0030750D01*
X0008462Y-0030583D01*
X0008962D01*
X0009046Y-0030750D01*
Y-0031417D01*
X0008962Y-0031583D01*
X0008462D01*
X0007762D02*
Y-0030583D01*
X0008096D02*
X0007429D01*
X0032064Y-0029722D02*
Y-0029056D01*
X0032008Y-0029722D02*
X0032341D01*
X0032453Y-0029500D01*
Y-0029278D01*
X0032341Y-0029056D01*
X0032008D01*
X0031641Y-0029389D02*
X0031308D01*
X0031753Y-0029722D02*
X0031308D01*
Y-0029056D01*
X0031753D01*
X0030830Y-0029722D02*
Y-0029056D01*
X0031053D02*
X0030608D01*
X0030353Y-0029500D02*
X0029908D01*
X0030353Y-0029722D02*
Y-0029389D01*
X0030186Y-0029056D01*
X0030075D01*
X0029908Y-0029389D01*
Y-0029722D01*
X0029653D02*
X0029264D01*
Y-0029056D01*
X0028564Y-0029389D02*
X0028897D01*
X0029008Y-0029278D01*
Y-0029167D01*
X0028897Y-0029056D01*
X0028564D01*
Y-0029722D01*
X0028308Y-0029389D02*
X0027864D01*
X0027608Y-0029056D02*
Y-0029722D01*
X0027497Y-0029611D01*
X0027275Y-0029167D01*
X0027164Y-0029056D01*
Y-0029722D01*
X0026519D02*
X0026464Y-0029611D01*
Y-0029167D01*
X0026519Y-0029056D01*
X0026853D01*
X0026908Y-0029167D01*
Y-0029611D01*
X0026853Y-0029722D01*
X0026519D01*
X0026208Y-0029056D02*
Y-0029722D01*
X0026097Y-0029611D01*
X0025875Y-0029167D01*
X0025764Y-0029056D01*
Y-0029722D01*
X0024208D02*
X0023764D01*
X0024208Y-0029278D01*
Y-0029167D01*
X0024153Y-0029056D01*
X0023819D01*
X0023764Y-0029167D01*
X0010314Y-0029722D02*
X0010203Y-0029611D01*
X0010147Y-0029500D01*
Y-0029278D01*
X0010203Y-0029167D01*
X0010314Y-0029056D01*
X0010425D01*
X0010536Y-0029167D01*
X0010592Y-0029278D01*
Y-0029500D01*
X0010536Y-0029611D01*
X0010425Y-0029722D01*
X0010314D01*
X0009447Y-0029611D02*
X0009503Y-0029722D01*
X0009836D01*
X0009892Y-0029611D01*
Y-0029389D01*
X0009780Y-0029278D01*
X0009447D01*
Y-0029056D01*
X0009892D01*
X0009192Y-0029722D02*
X0008969D01*
X0009080D02*
Y-0029056D01*
X0008969Y-0029167D01*
X0008492Y-0029722D02*
X0008603D01*
Y-0029611D01*
X0008492D01*
Y-0029722D01*
X0007847D02*
X0007736Y-0029611D01*
X0007681Y-0029500D01*
Y-0029278D01*
X0007736Y-0029167D01*
X0007847Y-0029056D01*
X0007958D01*
X0008069Y-0029167D01*
X0008125Y-0029278D01*
Y-0029500D01*
X0008069Y-0029611D01*
X0007958Y-0029722D01*
X0007847D01*
X0024208Y-0028222D02*
X0023764D01*
X0024208Y-0027778D01*
Y-0027667D01*
X0024153Y-0027556D01*
X0023819D01*
X0023764Y-0027667D01*
X0010203Y-0027889D02*
X0010536D01*
X0010592Y-0028000D01*
Y-0028111D01*
X0010536Y-0028222D01*
X0010203D01*
X0010147Y-0028111D01*
Y-0028000D01*
X0010369Y-0027556D01*
X0009892Y-0028222D02*
X0009669D01*
X0009780D02*
Y-0027556D01*
X0009669Y-0027667D01*
X0009303Y-0028222D02*
X0009081D01*
X0009192D02*
Y-0027556D01*
X0009081Y-0027667D01*
X0008603Y-0028222D02*
X0008714D01*
Y-0028111D01*
X0008603D01*
Y-0028222D01*
X0007958D02*
X0007847Y-0028111D01*
X0007792Y-0028000D01*
Y-0027778D01*
X0007847Y-0027667D01*
X0007958Y-0027556D01*
X0008070D01*
X0008181Y-0027667D01*
X0008236Y-0027778D01*
Y-0028000D01*
X0008181Y-0028111D01*
X0008070Y-0028222D01*
X0007958D01*
X0024153Y-0026389D02*
X0024208Y-0026278D01*
Y-0026167D01*
X0024153Y-0026056D01*
X0023819D01*
X0023764Y-0026167D01*
Y-0026278D01*
X0023819Y-0026389D01*
X0024153D01*
X0024208Y-0026500D01*
Y-0026611D01*
X0024153Y-0026722D01*
X0023819D01*
X0023764Y-0026611D01*
Y-0026500D01*
X0023819Y-0026389D01*
X0010258Y-0026722D02*
X0010592Y-0026056D01*
X0010147D01*
X0009503Y-0026389D02*
X0009836D01*
X0009892Y-0026500D01*
Y-0026611D01*
X0009836Y-0026722D01*
X0009503D01*
X0009447Y-0026611D01*
Y-0026500D01*
X0009669Y-0026056D01*
X0008914Y-0026722D02*
X0008803Y-0026611D01*
X0008747Y-0026500D01*
Y-0026278D01*
X0008803Y-0026167D01*
X0008914Y-0026056D01*
X0009025D01*
X0009136Y-0026167D01*
X0009192Y-0026278D01*
Y-0026500D01*
X0009136Y-0026611D01*
X0009025Y-0026722D01*
X0008914D01*
X0008381D02*
X0008492D01*
Y-0026611D01*
X0008381D01*
Y-0026722D01*
X0007736D02*
X0007625Y-0026611D01*
X0007569Y-0026500D01*
Y-0026278D01*
X0007625Y-0026167D01*
X0007736Y-0026056D01*
X0007847D01*
X0007958Y-0026167D01*
X0008014Y-0026278D01*
Y-0026500D01*
X0007958Y-0026611D01*
X0007847Y-0026722D01*
X0007736D01*
X0024208Y-0025222D02*
X0023764D01*
X0024208Y-0024778D01*
Y-0024667D01*
X0024153Y-0024556D01*
X0023819D01*
X0023764Y-0024667D01*
X0010592Y-0025222D02*
X0010147D01*
X0010592Y-0024778D01*
Y-0024667D01*
X0010536Y-0024556D01*
X0010203D01*
X0010147Y-0024667D01*
X0009447Y-0025111D02*
X0009503Y-0025222D01*
X0009836D01*
X0009892Y-0025111D01*
Y-0024889D01*
X0009780Y-0024778D01*
X0009447D01*
Y-0024556D01*
X0009892D01*
X0008914Y-0025222D02*
X0008803Y-0025111D01*
X0008747Y-0025000D01*
Y-0024778D01*
X0008803Y-0024667D01*
X0008914Y-0024556D01*
X0009025D01*
X0009136Y-0024667D01*
X0009192Y-0024778D01*
Y-0025000D01*
X0009136Y-0025111D01*
X0009025Y-0025222D01*
X0008914D01*
X0008381D02*
X0008492D01*
Y-0025111D01*
X0008381D01*
Y-0025222D01*
X0007736D02*
X0007625Y-0025111D01*
X0007569Y-0025000D01*
Y-0024778D01*
X0007625Y-0024667D01*
X0007736Y-0024556D01*
X0007847D01*
X0007958Y-0024667D01*
X0008014Y-0024778D01*
Y-0025000D01*
X0007958Y-0025111D01*
X0007847Y-0025222D01*
X0007736D01*
X0023930Y-0023722D02*
X0023819Y-0023611D01*
X0023764Y-0023500D01*
Y-0023278D01*
X0023819Y-0023167D01*
X0023930Y-0023056D01*
X0024042D01*
X0024153Y-0023167D01*
X0024208Y-0023278D01*
Y-0023500D01*
X0024153Y-0023611D01*
X0024042Y-0023722D01*
X0023930D01*
X0023508D02*
X0023064D01*
X0023508Y-0023278D01*
Y-0023167D01*
X0023453Y-0023056D01*
X0023119D01*
X0023064Y-0023167D01*
X0010592Y-0023722D02*
X0010147D01*
X0010592Y-0023278D01*
Y-0023167D01*
X0010536Y-0023056D01*
X0010203D01*
X0010147Y-0023167D01*
X0009892Y-0023500D02*
X0009447D01*
X0009669Y-0023056D01*
X0009780D01*
Y-0023722D01*
X0008914D02*
X0008803Y-0023611D01*
X0008747Y-0023500D01*
Y-0023278D01*
X0008803Y-0023167D01*
X0008914Y-0023056D01*
X0009025D01*
X0009136Y-0023167D01*
X0009192Y-0023278D01*
Y-0023500D01*
X0009136Y-0023611D01*
X0009025Y-0023722D01*
X0008914D01*
X0008381D02*
X0008492D01*
Y-0023611D01*
X0008381D01*
Y-0023722D01*
X0007736D02*
X0007625Y-0023611D01*
X0007569Y-0023500D01*
Y-0023278D01*
X0007625Y-0023167D01*
X0007736Y-0023056D01*
X0007847D01*
X0007958Y-0023167D01*
X0008014Y-0023278D01*
Y-0023500D01*
X0007958Y-0023611D01*
X0007847Y-0023722D01*
X0007736D01*
X0024208Y-0022000D02*
X0023764D01*
X0023986Y-0021556D01*
X0024097D01*
Y-0022222D01*
X0023508D02*
X0023286D01*
X0023397D02*
Y-0021556D01*
X0023286Y-0021667D01*
X0010203Y-0021889D02*
X0010536D01*
X0010592Y-0022000D01*
Y-0022111D01*
X0010536Y-0022222D01*
X0010203D01*
X0010147Y-0022111D01*
Y-0022000D01*
X0010369Y-0021556D01*
X0009447Y-0022111D02*
X0009558Y-0022222D01*
X0009780D01*
X0009892Y-0022111D01*
Y-0022000D01*
X0009669Y-0021778D01*
X0009892Y-0021556D01*
X0009447D01*
X0008914Y-0022222D02*
X0008803Y-0022111D01*
X0008747Y-0022000D01*
Y-0021778D01*
X0008803Y-0021667D01*
X0008914Y-0021556D01*
X0009025D01*
X0009136Y-0021667D01*
X0009192Y-0021778D01*
Y-0022000D01*
X0009136Y-0022111D01*
X0009025Y-0022222D01*
X0008914D01*
X0008381D02*
X0008492D01*
Y-0022111D01*
X0008381D01*
Y-0022222D01*
X0007736D02*
X0007625Y-0022111D01*
X0007569Y-0022000D01*
Y-0021778D01*
X0007625Y-0021667D01*
X0007736Y-0021556D01*
X0007847D01*
X0007958Y-0021667D01*
X0008014Y-0021778D01*
Y-0022000D01*
X0007958Y-0022111D01*
X0007847Y-0022222D01*
X0007736D01*
X0024208Y-0020500D02*
X0023764D01*
X0023986Y-0020056D01*
X0024097D01*
Y-0020722D01*
X0010314D02*
X0010203Y-0020611D01*
X0010147Y-0020500D01*
Y-0020278D01*
X0010203Y-0020167D01*
X0010314Y-0020056D01*
X0010425D01*
X0010536Y-0020167D01*
X0010592Y-0020278D01*
Y-0020500D01*
X0010536Y-0020611D01*
X0010425Y-0020722D01*
X0010314D01*
X0009447Y-0020611D02*
X0009558Y-0020722D01*
X0009780D01*
X0009892Y-0020611D01*
Y-0020500D01*
X0009669Y-0020278D01*
X0009892Y-0020056D01*
X0009447D01*
X0008914Y-0020722D02*
X0008803Y-0020611D01*
X0008747Y-0020500D01*
Y-0020278D01*
X0008803Y-0020167D01*
X0008914Y-0020056D01*
X0009025D01*
X0009136Y-0020167D01*
X0009192Y-0020278D01*
Y-0020500D01*
X0009136Y-0020611D01*
X0009025Y-0020722D01*
X0008914D01*
X0008381D02*
X0008492D01*
Y-0020611D01*
X0008381D01*
Y-0020722D01*
X0007736D02*
X0007625Y-0020611D01*
X0007569Y-0020500D01*
Y-0020278D01*
X0007625Y-0020167D01*
X0007736Y-0020056D01*
X0007847D01*
X0007958Y-0020167D01*
X0008014Y-0020278D01*
Y-0020500D01*
X0007958Y-0020611D01*
X0007847Y-0020722D01*
X0007736D01*
X0023930Y-0019222D02*
X0023819Y-0019111D01*
X0023764Y-0019000D01*
Y-0018778D01*
X0023819Y-0018667D01*
X0023930Y-0018556D01*
X0024042D01*
X0024153Y-0018667D01*
X0024208Y-0018778D01*
Y-0019000D01*
X0024153Y-0019111D01*
X0024042Y-0019222D01*
X0023930D01*
X0023508D02*
X0023286D01*
X0023397D02*
Y-0018556D01*
X0023286Y-0018667D01*
X0010536Y-0018889D02*
X0010592Y-0018778D01*
Y-0018667D01*
X0010536Y-0018556D01*
X0010203D01*
X0010147Y-0018667D01*
Y-0018778D01*
X0010203Y-0018889D01*
X0010536D01*
X0010592Y-0019000D01*
Y-0019111D01*
X0010536Y-0019222D01*
X0010203D01*
X0010147Y-0019111D01*
Y-0019000D01*
X0010203Y-0018889D01*
X0009892Y-0019222D02*
X0009447D01*
X0009892Y-0018778D01*
Y-0018667D01*
X0009836Y-0018556D01*
X0009503D01*
X0009447Y-0018667D01*
X0008914Y-0019222D02*
X0008803Y-0019111D01*
X0008747Y-0019000D01*
Y-0018778D01*
X0008803Y-0018667D01*
X0008914Y-0018556D01*
X0009025D01*
X0009136Y-0018667D01*
X0009192Y-0018778D01*
Y-0019000D01*
X0009136Y-0019111D01*
X0009025Y-0019222D01*
X0008914D01*
X0008381D02*
X0008492D01*
Y-0019111D01*
X0008381D01*
Y-0019222D01*
X0007736D02*
X0007625Y-0019111D01*
X0007569Y-0019000D01*
Y-0018778D01*
X0007625Y-0018667D01*
X0007736Y-0018556D01*
X0007847D01*
X0007958Y-0018667D01*
X0008014Y-0018778D01*
Y-0019000D01*
X0007958Y-0019111D01*
X0007847Y-0019222D01*
X0007736D01*
X0023930Y-0017722D02*
X0023819Y-0017611D01*
X0023764Y-0017500D01*
Y-0017278D01*
X0023819Y-0017167D01*
X0023930Y-0017056D01*
X0024042D01*
X0024153Y-0017167D01*
X0024208Y-0017278D01*
Y-0017500D01*
X0024153Y-0017611D01*
X0024042Y-0017722D01*
X0023930D01*
X0023230D02*
X0023119Y-0017611D01*
X0023064Y-0017500D01*
Y-0017278D01*
X0023119Y-0017167D01*
X0023230Y-0017056D01*
X0023342D01*
X0023453Y-0017167D01*
X0023508Y-0017278D01*
Y-0017500D01*
X0023453Y-0017611D01*
X0023342Y-0017722D01*
X0023230D01*
X0022808D02*
X0022586D01*
X0022697D02*
Y-0017056D01*
X0022586Y-0017167D01*
X0010592Y-0017722D02*
X0010147D01*
X0010592Y-0017278D01*
Y-0017167D01*
X0010536Y-0017056D01*
X0010203D01*
X0010147Y-0017167D01*
X0009892Y-0017722D02*
X0009669D01*
X0009780D02*
Y-0017056D01*
X0009669Y-0017167D01*
X0009025Y-0017722D02*
X0008914Y-0017611D01*
X0008858Y-0017500D01*
Y-0017278D01*
X0008914Y-0017167D01*
X0009025Y-0017056D01*
X0009136D01*
X0009247Y-0017167D01*
X0009303Y-0017278D01*
Y-0017500D01*
X0009247Y-0017611D01*
X0009136Y-0017722D01*
X0009025D01*
X0008492D02*
X0008603D01*
Y-0017611D01*
X0008492D01*
Y-0017722D01*
X0007847D02*
X0007736Y-0017611D01*
X0007681Y-0017500D01*
Y-0017278D01*
X0007736Y-0017167D01*
X0007847Y-0017056D01*
X0007958D01*
X0008069Y-0017167D01*
X0008125Y-0017278D01*
Y-0017500D01*
X0008069Y-0017611D01*
X0007958Y-0017722D01*
X0007847D01*
X0032612Y-0015583D02*
X0032112D01*
X0032779Y-0016083D02*
X0032112D01*
Y-0015083D01*
X0032779D01*
X0031496Y-0016083D02*
Y-0015083D01*
X0031829D02*
X0031162D01*
X0030296Y-0016083D02*
X0030212Y-0015917D01*
Y-0015250D01*
X0030296Y-0015083D01*
X0030796D01*
X0030879Y-0015250D01*
Y-0015917D01*
X0030796Y-0016083D01*
X0030296D01*
X0029929Y-0015083D02*
Y-0016083D01*
X0029762Y-0015917D01*
X0029429Y-0015250D01*
X0029262Y-0015083D01*
Y-0016083D01*
X0023425D02*
Y-0015583D01*
X0023758Y-0015083D02*
X0023508Y-0015583D01*
X0023342D01*
X0023092Y-0015083D01*
X0022475Y-0016083D02*
Y-0015083D01*
X0022808D02*
X0022142D01*
X0021525Y-0015750D02*
X0021858Y-0016083D01*
X0021192Y-0015917D02*
X0021275Y-0016083D01*
X0021608D01*
X0021692Y-0015917D01*
X0021858Y-0015750D01*
Y-0015250D01*
X0021775Y-0015083D01*
X0021275D01*
X0021192Y-0015250D01*
Y-0015917D01*
X0016908Y-0016083D02*
X0016325D01*
Y-0015083D01*
X0015458Y-0016083D02*
X0015375Y-0015917D01*
Y-0015250D01*
X0015458Y-0015083D01*
X0015958D01*
X0016042Y-0015250D01*
Y-0015917D01*
X0015958Y-0016083D01*
X0015458D01*
X0014758D02*
Y-0015083D01*
X0015092D02*
X0014425D01*
X0009087Y-0016083D02*
Y-0015083D01*
X0008921Y-0015250D01*
X0008754Y-0015583D01*
X0008587Y-0015250D01*
X0008421Y-0015083D01*
Y-0016083D01*
X0008137Y-0015750D02*
X0007471D01*
X0008137Y-0016083D02*
Y-0015583D01*
X0007887Y-0015083D01*
X0007721D01*
X0007471Y-0015583D01*
Y-0016083D01*
X0007187D02*
X0006854D01*
X0007021D02*
Y-0015083D01*
X0007187D02*
X0006854D01*
X0005821Y-0016083D02*
Y-0015083D01*
X0005737Y-0016083D02*
X0006237D01*
X0006404Y-0015750D01*
Y-0015417D01*
X0006237Y-0015083D01*
X0005737D01*
X0002650Y-0016083D02*
Y-0015083D01*
X0002483Y-0015250D01*
X0002317Y-0015583D01*
X0002150Y-0015250D01*
X0001983Y-0015083D01*
Y-0016083D01*
X0001367D02*
Y-0015583D01*
X0001700Y-0015083D02*
X0001450Y-0015583D01*
X0001283D01*
X0001033Y-0015083D01*
X0000750Y-0015250D02*
X0000667Y-0015083D01*
X0000167D01*
X0000083Y-0015250D01*
Y-0015417D01*
X0000167Y-0015583D01*
X0000667D01*
X0000750Y-0015750D01*
Y-0015917D01*
X0000667Y-0016083D01*
X0000167D01*
X0000083Y-0015917D01*
X0022937Y-0014083D02*
Y-0013083D01*
X0023271D02*
X0022604D01*
X0022071Y-0013583D02*
X0022321Y-0014083D01*
X0021654Y-0013583D02*
X0022154D01*
X0022321Y-0013417D01*
Y-0013250D01*
X0022154Y-0013083D01*
X0021654D01*
Y-0014083D01*
X0021371Y-0013750D02*
X0020704D01*
X0021371Y-0014083D02*
Y-0013583D01*
X0021121Y-0013083D01*
X0020954D01*
X0020704Y-0013583D01*
Y-0014083D01*
X0020421Y-0013583D02*
X0019754D01*
X0020421Y-0014083D02*
Y-0013083D01*
X0019754Y-0014083D02*
Y-0013083D01*
X0019471Y-0013917D02*
X0019387Y-0014083D01*
X0018887D01*
X0018804Y-0013917D01*
Y-0013250D01*
X0018887Y-0013083D01*
X0019387D01*
X0019471Y-0013250D01*
X0017196Y-0014083D02*
X0016612D01*
Y-0013083D01*
X0016329Y-0014083D02*
X0015746D01*
Y-0013083D01*
X0015462Y-0014083D02*
X0015129D01*
X0015296D02*
Y-0013083D01*
X0015462D02*
X0015129D01*
X0014429Y-0013583D02*
X0014679Y-0014083D01*
X0014012Y-0013583D02*
X0014512D01*
X0014679Y-0013417D01*
Y-0013250D01*
X0014512Y-0013083D01*
X0014012D01*
Y-0014083D01*
X0013146D02*
Y-0013083D01*
X0013062Y-0014083D02*
X0013562D01*
X0013729Y-0013750D01*
Y-0013417D01*
X0013562Y-0013083D01*
X0013062D01*
X0019067Y0031508D02*
X0019150Y0031675D01*
Y0031842D01*
X0019067Y0032008D01*
X0018742Y0031508D02*
X0018408D01*
X0018742Y0031842D01*
Y0031925D01*
X0018700Y0032008D01*
X0018450D01*
X0018408Y0031925D01*
X0018167Y0031842D02*
X0018125Y0031758D01*
X0017958Y0031592D01*
X0017917Y0031508D01*
X0018167D02*
X0018125Y0031592D01*
X0017958Y0031758D01*
X0017917Y0031842D01*
X0017675Y0031508D02*
X0017592Y0031675D01*
Y0031842D01*
X0017675Y0032008D01*
X0016379Y0031842D02*
X0016129D01*
X0016087Y0031758D01*
X0016129Y0031675D01*
X0016379D01*
X0016421Y0031592D01*
X0016379Y0031508D01*
X0016129D01*
X0015804Y0031842D02*
X0015554D01*
X0015846Y0031508D02*
X0015679D01*
X0015637Y0031592D01*
Y0032008D01*
X0015021Y0031508D02*
X0014979Y0031592D01*
Y0031758D01*
X0015021Y0031842D01*
X0015271D01*
X0015312Y0031758D01*
Y0031592D01*
X0015271Y0031508D01*
X0015021D01*
X0014737D02*
X0014571D01*
X0014654D02*
Y0032008D01*
X0014571D01*
X0014246Y0031842D02*
X0013996D01*
X0013954Y0031758D01*
X0013996Y0031675D01*
X0014246D01*
X0014287Y0031592D01*
X0014246Y0031508D01*
X0013996D01*
X0012950Y0032008D02*
Y0031508D01*
X0012700D01*
X0012658Y0031592D01*
Y0031758D01*
X0012700Y0031842D01*
X0012950D01*
X0012375Y0031508D02*
X0012125D01*
X0012083Y0031592D01*
Y0031758D01*
X0012125Y0031842D01*
X0012375D01*
X0012417Y0031758D01*
Y0031675D01*
X0012083D01*
X0011800Y0031842D02*
X0011550D01*
X0011842Y0031508D02*
X0011675D01*
X0011633Y0031592D01*
Y0032008D01*
X0011058Y0031842D02*
X0011225D01*
X0011267Y0031758D01*
Y0031592D01*
X0011308Y0031508D01*
X0011017D01*
X0010975Y0031592D01*
X0011017Y0031675D01*
X0011267D01*
X0010733Y0031508D02*
X0010567D01*
X0010650D02*
Y0032008D01*
X0010567D01*
X0009992Y0031342D02*
Y0031842D01*
X0010242D01*
X0010283Y0031758D01*
Y0031592D01*
X0010242Y0031508D01*
X0009992D01*
X0009750Y0031758D02*
X0009417D01*
X0009175Y0031508D02*
Y0031758D01*
X0009133Y0031842D01*
X0008883D01*
Y0031508D01*
X0008350D02*
X0008308Y0031592D01*
Y0031758D01*
X0008350Y0031842D01*
X0008600D01*
X0008642Y0031758D01*
Y0031592D01*
X0008600Y0031508D01*
X0008350D01*
X0008067Y0032008D02*
Y0031508D01*
X0007983Y0031592D01*
X0007817Y0031925D01*
X0007733Y0032008D01*
Y0031508D01*
X0006729D02*
X0006562D01*
X0006646D02*
Y0032008D01*
X0006562D01*
X0006195D02*
Y0032009D01*
X0006196D01*
Y0032008D01*
X0006195D01*
X0006279Y0031508D02*
X0006112D01*
X0006196D02*
Y0031842D01*
X0006112D01*
X0005662Y0031508D02*
Y0031758D01*
X0005829Y0031508D02*
Y0031758D01*
X0005787Y0031842D01*
X0005704D01*
X0005662Y0031758D01*
X0005621Y0031842D01*
X0005537D01*
X0005496Y0031758D01*
Y0031508D01*
X0004283D02*
X0004200Y0031592D01*
X0004158Y0031675D01*
Y0031842D01*
X0004200Y0031925D01*
X0004283Y0032008D01*
X0004367D01*
X0004450Y0031925D01*
X0004492Y0031842D01*
Y0031675D01*
X0004450Y0031592D01*
X0004367Y0031508D01*
X0004283D01*
X0003708D02*
X0003625Y0031592D01*
X0003583Y0031675D01*
Y0031842D01*
X0003625Y0031925D01*
X0003708Y0032008D01*
X0003792D01*
X0003875Y0031925D01*
X0003917Y0031842D01*
Y0031675D01*
X0003875Y0031592D01*
X0003792Y0031508D01*
X0003708D01*
X0003342D02*
X0003175D01*
X0003258D02*
Y0032008D01*
X0003175Y0031925D01*
X0043384Y0023792D02*
X0043426Y0023708D01*
X0043676D01*
X0043717Y0023792D01*
Y0023958D01*
X0043634Y0024042D01*
X0043384D01*
Y0024208D01*
X0043717D01*
X0042892Y0023708D02*
X0043142Y0024208D01*
X0042809D01*
X0042234Y0023792D02*
X0042317Y0023708D01*
X0042484D01*
X0042567Y0023792D01*
Y0023875D01*
X0042401Y0024042D01*
X0042567Y0024208D01*
X0042234D01*
X0041992Y0023708D02*
X0041659D01*
X0041992Y0024042D01*
Y0024125D01*
X0041951Y0024208D01*
X0041701D01*
X0041659Y0024125D01*
X0039167Y0028372D02*
Y0028039D01*
X0038833Y0028372D01*
X0038750D01*
X0038667Y0028331D01*
Y0028081D01*
X0038750Y0028039D01*
X0039167Y0027797D02*
Y0027631D01*
Y0027714D02*
X0038667D01*
X0038750Y0027631D01*
X0038917Y0027264D02*
Y0027014D01*
X0038833Y0026972D01*
X0038750D01*
X0038667Y0027014D01*
Y0027264D01*
X0038750Y0027306D01*
X0038833D01*
X0039167Y0027139D01*
X0039083Y0026397D02*
X0039167Y0026481D01*
Y0026647D01*
X0039083Y0026731D01*
X0039000D01*
X0038833Y0026564D01*
X0038667Y0026731D01*
Y0026397D01*
X0025625Y0016900D02*
X0025375Y0016650D01*
X0025875D02*
X0025625Y0016900D01*
X0025375Y0016650D02*
X0025875D01*
X0006125Y0006650D02*
X0005875Y0006400D01*
X0006375D02*
X0006125Y0006650D01*
X0005875Y0006400D02*
X0006375D01*
X0006125Y0006650D02*
X0005875Y0006400D01*
X0006375D02*
X0006125Y0006650D01*
X0005875Y0006400D02*
X0006375D01*
X0010500Y0006150D02*
X0010250Y0005900D01*
X0010750D02*
X0010500Y0006150D01*
X0010250Y0005900D02*
X0010750D01*
X0011000Y0012150D02*
X0010750Y0011900D01*
X0011250D02*
X0011000Y0012150D01*
X0010750Y0011900D02*
X0011250D01*
X0006250Y0011025D02*
X0006000Y0010775D01*
X0006500D02*
X0006250Y0011025D01*
X0006000Y0010775D02*
X0006500D01*
X0010500Y0006150D02*
X0010250Y0005900D01*
X0010750D02*
X0010500Y0006150D01*
X0010250Y0005900D02*
X0010750D01*
X0011000Y0012150D02*
X0010750Y0011900D01*
X0011250D02*
X0011000Y0012150D01*
X0010750Y0011900D02*
X0011250D01*
X0006250Y0011025D02*
X0006000Y0010775D01*
X0006500D02*
X0006250Y0011025D01*
X0006000Y0010775D02*
X0006500D01*
X0032875Y0017400D02*
X0032625Y0017150D01*
X0033125D02*
X0032875Y0017400D01*
X0032625Y0017150D02*
X0033125D01*
X0018625Y0004025D02*
X0018375Y0003775D01*
X0018875D02*
X0018625Y0004025D01*
X0018375Y0003775D02*
X0018875D01*
X0018750Y0002965D02*
X0018500Y0002715D01*
X0019000D02*
X0018750Y0002965D01*
X0018500Y0002715D02*
X0019000D01*
X0018625Y0004025D02*
X0018375Y0003775D01*
X0018875D02*
X0018625Y0004025D01*
X0018375Y0003775D02*
X0018875D01*
X0018625Y0008275D02*
X0018375Y0008025D01*
X0018875D02*
X0018625Y0008275D01*
X0018375Y0008025D02*
X0018875D01*
X0014000Y0013775D02*
X0013750Y0013525D01*
X0014250D02*
X0014000Y0013775D01*
X0013750Y0013525D02*
X0014250D01*
X0004375Y0015275D02*
X0004125Y0015025D01*
X0004625D02*
X0004375Y0015275D01*
X0004125Y0015025D02*
X0004625D01*
X0019250Y0017400D02*
X0019000Y0017150D01*
X0019500D02*
X0019250Y0017400D01*
X0019000Y0017150D02*
X0019500D01*
X0016375Y0019025D02*
X0016125Y0018775D01*
X0016625D02*
X0016375Y0019025D01*
X0016125Y0018775D02*
X0016625D01*
X0007250Y0017150D02*
X0007000Y0016900D01*
X0007500D02*
X0007250Y0017150D01*
X0007000Y0016900D02*
X0007500D01*
X0019000Y0015275D02*
X0018750Y0015025D01*
X0019250D02*
X0019000Y0015275D01*
X0018750Y0015025D02*
X0019250D01*
X0033875Y0004150D02*
X0033625Y0003900D01*
X0034125D02*
X0033875Y0004150D01*
X0033625Y0003900D02*
X0034125D01*
X0007750Y0013400D02*
X0007500Y0013150D01*
X0008000D02*
X0007750Y0013400D01*
X0007500Y0013150D02*
X0008000D01*
X0009750Y0013400D02*
X0009500Y0013150D01*
X0010000D02*
X0009750Y0013400D01*
X0009500Y0013150D02*
X0010000D01*
X0025500Y0004900D02*
X0025250Y0004650D01*
X0025750D02*
X0025500Y0004900D01*
X0025250Y0004650D02*
X0025750D01*
X0004375Y0009525D02*
X0004125Y0009275D01*
X0004625D02*
X0004375Y0009525D01*
X0004125Y0009275D02*
X0004625D01*
X0016375Y0018525D02*
X0016125Y0018275D01*
X0016625D02*
X0016375Y0018525D01*
X0016125Y0018275D02*
X0016625D01*
X0005750Y0008400D02*
X0005500Y0008150D01*
X0006000D02*
X0005750Y0008400D01*
X0005500Y0008150D02*
X0006000D01*
X0003750Y0008400D02*
X0003500Y0008150D01*
X0004000D02*
X0003750Y0008400D01*
X0003500Y0008150D02*
X0004000D01*
X0004375Y0009525D02*
X0004125Y0009275D01*
X0004625D02*
X0004375Y0009525D01*
X0004125Y0009275D02*
X0004625D01*
X0027125Y0015775D02*
X0026875Y0015525D01*
X0027375D02*
X0027125Y0015775D01*
X0026875Y0015525D02*
X0027375D01*
X0028500Y0017775D02*
X0028250Y0017525D01*
X0028750D02*
X0028500Y0017775D01*
X0028250Y0017525D02*
X0028750D01*
X0005500Y0012525D02*
X0005250Y0012275D01*
X0005750D02*
X0005500Y0012525D01*
X0005250Y0012275D02*
X0005750D01*
X0010125Y0009650D02*
X0009875Y0009400D01*
X0010375D02*
X0010125Y0009650D01*
X0009875Y0009400D02*
X0010375D01*
X0004875Y0016150D02*
X0004625Y0015900D01*
X0005125D02*
X0004875Y0016150D01*
X0004625Y0015900D02*
X0005125D01*
X0005000Y0010525D02*
X0004750Y0010275D01*
X0005250D02*
X0005000Y0010525D01*
X0004750Y0010275D02*
X0005250D01*
X0033875Y0004150D02*
X0033625Y0003900D01*
X0034125D02*
X0033875Y0004150D01*
X0033625Y0003900D02*
X0034125D01*
X0032875Y0017400D02*
X0032625Y0017150D01*
X0033125D02*
X0032875Y0017400D01*
X0032625Y0017150D02*
X0033125D01*
X0001075Y-0029400D02*
Y-0029600D01*
X0001225Y-0029250D02*
X0001075Y-0029400D01*
X0001425Y-0029250D02*
X0001225D01*
X0001575Y-0029400D02*
X0001425Y-0029250D01*
X0001575Y-0029600D02*
Y-0029400D01*
X0001425Y-0029750D02*
X0001575Y-0029600D01*
X0001225Y-0029750D02*
X0001425D01*
X0001075Y-0029600D02*
X0001225Y-0029750D01*
X0001825Y-0027500D02*
X0000825Y-0028500D01*
X0001825D02*
X0000825Y-0027500D01*
X0001075Y-0026250D02*
Y-0026750D01*
X0001575Y-0026250D02*
X0001075D01*
X0001575Y-0026750D02*
Y-0026250D01*
X0001075Y-0026750D02*
X0001575D01*
Y-0026250D02*
X0001075Y-0026750D01*
X0001575D02*
X0001075Y-0026250D01*
Y-0024750D02*
Y-0025000D01*
X0001325Y-0024750D02*
X0001075D01*
X0001325Y-0025250D02*
Y-0024750D01*
X0001575Y-0025250D02*
X0001325D01*
X0001575Y-0025000D02*
Y-0025250D01*
X0001075Y-0025000D02*
X0001575D01*
X0001075Y-0023250D02*
Y-0023750D01*
X0001575Y-0023250D02*
X0001075D01*
X0001575Y-0023750D02*
Y-0023250D01*
X0001075Y-0023750D02*
X0001575D01*
Y-0023500D02*
X0001075D01*
X0001325Y-0023250D02*
Y-0023750D01*
X0001575Y-0022000D02*
X0001075D01*
X0001325Y-0021750D02*
Y-0022250D01*
Y-0020250D02*
X0001075Y-0020500D01*
X0001575D02*
X0001325Y-0020250D01*
Y-0020750D02*
X0001575Y-0020500D01*
X0001075D02*
X0001325Y-0020750D01*
X0001575Y-0018750D02*
X0001075Y-0019250D01*
X0001575D02*
X0001075Y-0018750D01*
X0001325Y-0017350D02*
X0001075Y-0017600D01*
X0001575D02*
X0001325Y-0017350D01*
X0001075Y-0017600D02*
X0001575D01*
X0036800Y-0032300D02*
X-0000550D01*
X0036750Y-0032250D02*
X-0000500D01*
X0036750Y-0030250D02*
X-0000500D01*
X0036750Y-0028750D02*
X-0000500D01*
X0036750Y-0027250D02*
X-0000500D01*
X0036750Y-0025750D02*
X-0000500D01*
X0036750Y-0024250D02*
X-0000500D01*
X0036750Y-0022750D02*
X-0000500D01*
X0036750Y-0021250D02*
X-0000500D01*
X0036750Y-0019750D02*
X-0000500D01*
X0036750Y-0018250D02*
X-0000500D01*
X0036750Y-0016750D02*
X-0000500D01*
X0036750Y-0016700D02*
X-0000500D01*
X0036750Y-0014750D02*
X-0000500D01*
X0036750Y-0014700D02*
X-0000500D01*
X0036750Y-0012750D02*
X-0000500D01*
X0036800Y-0012700D02*
X-0000550D01*
X0036800Y-0032250D02*
Y-0012750D01*
X0036750Y-0032250D02*
Y-0012750D01*
X0025208Y-0032250D02*
Y-0014750D01*
X0019658Y-0032250D02*
Y-0014750D01*
X0011592Y-0030250D02*
Y-0014750D01*
X0003200Y-0030250D02*
Y-0014750D01*
X0003150Y-0030250D02*
Y-0014750D01*
X-0000550Y-0032250D02*
Y-0012750D01*
X-0000500Y-0032250D02*
Y-0012750D01*
X0052391Y0012000D02*
X0050500Y0010109D01*
X0054159Y0012000D02*
X0052159Y0010000D01*
X0055926Y0012000D02*
X0053926Y0010000D01*
X0057694Y0012000D02*
X0055694Y0010000D01*
X0057899Y0010437D02*
X0057462Y0010000D01*
X0059462Y0012000D02*
X0059024Y0011562D01*
X0059667Y0010437D02*
X0059230Y0010000D01*
X0061230Y0012000D02*
X0060792Y0011562D01*
X0062997Y0012000D02*
X0060997Y0010000D01*
X0064765Y0012000D02*
X0062765Y0010000D01*
X0066533Y0012000D02*
X0064533Y0010000D01*
X0068301Y0012000D02*
X0066301Y0010000D01*
X0069500Y0011431D02*
X0068068Y0010000D01*
X0043850Y0013100D02*
X0044000Y0014000D01*
X0044150Y0013100D01*
X0043850D01*
Y0008900D02*
X0044000Y0008000D01*
X0044150Y0008900D01*
X0043850D01*
X0072000Y0016000D02*
X0048500D01*
X0072000Y0018000D02*
X0048500D01*
X0072000Y0004000D02*
X0048500D01*
X0072000Y0006000D02*
X0048500D01*
X0050623Y0012000D02*
X0050500Y0011877D01*
Y0012000D01*
Y0010000D01*
X0069500D01*
Y0012000D01*
X0050500D01*
X0048500D02*
Y0014000D01*
X0072000D01*
Y0012000D01*
X0048500D01*
X0048250Y0008000D02*
Y0010000D01*
X0071750D01*
Y0008000D01*
X0048250D01*
X0043100Y0014000D02*
X0048187D01*
X0043100Y0008000D02*
X0047937D01*
X0044000Y0011900D02*
Y0013100D01*
Y0010100D02*
Y0008900D01*
X0003150Y0031200D02*
X0019100D01*
X0022000Y0023250D01*
X0022250Y0024250D01*
X0022000Y0023250D01*
X0021250Y0024000D01*
X0039125Y0024481D02*
Y0025981D01*
X0039742Y0023750D02*
X0041242D01*
X0032125Y0004275D02*
X0031875Y0004025D01*
X0032375D02*
X0032125Y0004275D01*
X0031875Y0004025D02*
X0032375D01*
X0031875Y0004275D02*
X0031625Y0004025D01*
X0032125D02*
X0031875Y0004275D01*
X0031625Y0004025D02*
X0032125D01*
X0030125Y0004400D02*
X0029875Y0004150D01*
X0030375D02*
X0030125Y0004400D01*
X0029875Y0004150D02*
X0030375D01*
X0029625Y0004400D02*
X0029375Y0004150D01*
X0029875D02*
X0029625Y0004400D01*
X0029375Y0004150D02*
X0029875D01*
X0032375Y0006525D02*
X0032125Y0006275D01*
X0032625D02*
X0032375Y0006525D01*
X0032125Y0006275D02*
X0032625D01*
X0032125Y0006525D02*
X0031875Y0006275D01*
X0032375D02*
X0032125Y0006525D01*
X0031875Y0006275D02*
X0032375D01*
X0030125Y0006400D02*
X0029875Y0006150D01*
X0030375D02*
X0030125Y0006400D01*
X0029875Y0006150D02*
X0030375D01*
X0029875Y0006400D02*
X0029625Y0006150D01*
X0030125D02*
X0029875Y0006400D01*
X0029625Y0006150D02*
X0030125D01*
X0016375Y0014275D02*
X0016125Y0014025D01*
X0016625D02*
X0016375Y0014275D01*
X0016125Y0014025D02*
X0016625D01*
X0018375Y0016275D02*
X0018125Y0016025D01*
X0018625D02*
X0018375Y0016275D01*
X0018125Y0016025D02*
X0018625D01*
X0032125Y0015650D02*
X0031875Y0015400D01*
X0032375D02*
X0032125Y0015650D01*
X0031875Y0015400D02*
X0032375D01*
X0031875Y0015650D02*
X0031625Y0015400D01*
X0032125D02*
X0031875Y0015650D01*
X0031625Y0015400D02*
X0032125D01*
X0031625Y0015650D02*
X0031375Y0015400D01*
X0031875D02*
X0031625Y0015650D01*
X0031375Y0015400D02*
X0031875D01*
X0033250Y0016400D02*
X0033000Y0016150D01*
X0033500D02*
X0033250Y0016400D01*
X0033000Y0016150D02*
X0033500D01*
X0033000Y0016400D02*
X0032750Y0016150D01*
X0033250D02*
X0033000Y0016400D01*
X0032750Y0016150D02*
X0033250D01*
X0032250Y0018150D02*
X0032000Y0017900D01*
X0032500D02*
X0032250Y0018150D01*
X0032000Y0017900D02*
X0032500D01*
X0032000Y0018150D02*
X0031750Y0017900D01*
X0032250D02*
X0032000Y0018150D01*
X0031750Y0017900D02*
X0032250D01*
X0030125Y0018150D02*
X0029875Y0017900D01*
X0030375D02*
X0030125Y0018150D01*
X0029875Y0017900D02*
X0030375D01*
X0029875Y0018150D02*
X0029625Y0017900D01*
X0030125D02*
X0029875Y0018150D01*
X0029625Y0017900D02*
X0030125D01*
Y0016150D02*
X0029875Y0015900D01*
X0030375D02*
X0030125Y0016150D01*
X0029875Y0015900D02*
X0030375D01*
X0029875Y0016150D02*
X0029625Y0015900D01*
X0030125D02*
X0029875Y0016150D01*
X0029625Y0015900D02*
X0030125D01*
X0018375Y0017025D02*
X0018125Y0016775D01*
X0018625D02*
X0018375Y0017025D01*
X0018125Y0016775D02*
X0018625D01*
X0000750Y0012150D02*
X0000500Y0011900D01*
X0001000D02*
X0000750Y0012150D01*
X0000500Y0011900D02*
X0001000D01*
X0016625Y0010900D02*
X0016375Y0010650D01*
X0016875D02*
X0016625Y0010900D01*
X0016375Y0010650D02*
X0016875D01*
X0004625Y0018275D02*
X0004375Y0018025D01*
X0004875D02*
X0004625Y0018275D01*
X0004375Y0018025D02*
X0004875D01*
X0000875Y0018275D02*
X0000625Y0018025D01*
X0001125D02*
X0000875Y0018275D01*
X0000625Y0018025D02*
X0001125D01*
X0005375Y0022525D02*
X0005125Y0022275D01*
X0005625D02*
X0005375Y0022525D01*
X0005125Y0022275D02*
X0005625D01*
X0020125Y0011900D02*
X0019875Y0011650D01*
X0020375D02*
X0020125Y0011900D01*
X0019875Y0011650D02*
X0020375D01*
Y0014400D02*
X0020125Y0014150D01*
X0020625D02*
X0020375Y0014400D01*
X0020125Y0014150D02*
X0020625D01*
X0012625Y0023150D02*
X0012375Y0022900D01*
X0012875D02*
X0012625Y0023150D01*
X0012375Y0022900D02*
X0012875D01*
X0018375Y0023150D02*
X0018125Y0022900D01*
X0018625D02*
X0018375Y0023150D01*
X0018125Y0022900D02*
X0018625D01*
X0010250Y0000900D02*
X0010000Y0000650D01*
X0010500D02*
X0010250Y0000900D01*
X0010000Y0000650D02*
X0010500D01*
X0015500Y0000900D02*
X0015250Y0000650D01*
X0015750D02*
X0015500Y0000900D01*
X0015250Y0000650D02*
X0015750D01*
X0005625Y0000900D02*
X0005375Y0000650D01*
X0005875D02*
X0005625Y0000900D01*
X0005375Y0000650D02*
X0005875D01*
X0002875Y0002775D02*
X0002625Y0002525D01*
X0003125D02*
X0002875Y0002775D01*
X0002625Y0002525D02*
X0003125D01*
X0000875Y0005025D02*
X0000625Y0004775D01*
X0001125D02*
X0000875Y0005025D01*
X0000625Y0004775D02*
X0001125D01*
X0031625Y0007775D02*
X0031375Y0007525D01*
X0031875D02*
X0031625Y0007775D01*
X0031375Y0007525D02*
X0031875D01*
X0031625Y0008275D02*
X0031375Y0008025D01*
X0031875D02*
X0031625Y0008275D01*
X0031375Y0008025D02*
X0031875D01*
X0031625Y0008775D02*
X0031375Y0008525D01*
X0031875D02*
X0031625Y0008775D01*
X0031375Y0008525D02*
X0031875D01*
X0031750Y0018150D02*
X0031500Y0017900D01*
X0032000D02*
X0031750Y0018150D01*
X0031500Y0017900D02*
X0032000D01*
X0020625Y0019025D02*
X0020375Y0018775D01*
X0020875D02*
X0020625Y0019025D01*
X0020375Y0018775D02*
X0020875D01*
X0019625Y0005400D02*
X0019375Y0005150D01*
X0019875D02*
X0019625Y0005400D01*
X0019375Y0005150D02*
X0019875D01*
X0011875Y0008650D02*
X0011625Y0008400D01*
X0012125D02*
X0011875Y0008650D01*
X0011625Y0008400D02*
X0012125D01*
X0009500Y0008275D02*
X0009250Y0008025D01*
X0009750D02*
X0009500Y0008275D01*
X0009250Y0008025D02*
X0009750D01*
X0020625Y0014400D02*
X0020375Y0014150D01*
X0020875D02*
X0020625Y0014400D01*
X0020375Y0014150D02*
X0020875D01*
X0018500Y0000900D02*
X0018250Y0000650D01*
X0018750D02*
X0018500Y0000900D01*
X0018250Y0000650D02*
X0018750D01*
X0020375Y0002400D02*
X0020125Y0002150D01*
X0020625D02*
X0020375Y0002400D01*
X0020125Y0002150D02*
X0020625D01*
X0030875Y0017150D02*
X0030625Y0016900D01*
X0031125D02*
X0030875Y0017150D01*
X0030625Y0016900D02*
X0031125D01*
X0020000Y0007025D02*
X0019750Y0006775D01*
X0020250D02*
X0020000Y0007025D01*
X0019750Y0006775D02*
X0020250D01*
X0020375Y0007025D02*
X0020125Y0006775D01*
X0020625D02*
X0020375Y0007025D01*
X0020125Y0006775D02*
X0020625D01*
X0020375Y0019025D02*
X0020125Y0018775D01*
X0020625D02*
X0020375Y0019025D01*
X0020125Y0018775D02*
X0020625D01*
X0032375Y0004275D02*
X0032125Y0004025D01*
X0032625D02*
X0032375Y0004275D01*
X0032125Y0004025D02*
X0032625D01*
X0029875Y0004400D02*
X0029625Y0004150D01*
X0030125D02*
X0029875Y0004400D01*
X0029625Y0004150D02*
X0030125D01*
X0031250Y0004900D02*
X0031000Y0004650D01*
X0031500D02*
X0031250Y0004900D01*
X0031000Y0004650D02*
X0031500D01*
X0030750Y0004900D02*
X0030500Y0004650D01*
X0031000D02*
X0030750Y0004900D01*
X0030500Y0004650D02*
X0031000D01*
X0031125Y0005400D02*
X0030875Y0005150D01*
X0031375D02*
X0031125Y0005400D01*
X0030875Y0005150D02*
X0031375D01*
X0031250Y0005900D02*
X0031000Y0005650D01*
X0031500D02*
X0031250Y0005900D01*
X0031000Y0005650D02*
X0031500D01*
X0031250Y0016650D02*
X0031000Y0016400D01*
X0031500D02*
X0031250Y0016650D01*
X0031000Y0016400D02*
X0031500D01*
X0030750Y0016650D02*
X0030500Y0016400D01*
X0031000D02*
X0030750Y0016650D01*
X0030500Y0016400D02*
X0031000D01*
X0031250Y0017650D02*
X0031000Y0017400D01*
X0031500D02*
X0031250Y0017650D01*
X0031000Y0017400D02*
X0031500D01*
X0030750Y0017650D02*
X0030500Y0017400D01*
X0031000D02*
X0030750Y0017650D01*
X0030500Y0017400D02*
X0031000D01*
X0030750Y0005900D02*
X0030500Y0005650D01*
X0031000D02*
X0030750Y0005900D01*
X0030500Y0005650D02*
X0031000D01*
X0031875Y0006525D02*
X0031625Y0006275D01*
X0032125D02*
X0031875Y0006525D01*
X0031625Y0006275D02*
X0032125D01*
X0029625Y0006400D02*
X0029375Y0006150D01*
X0029875D02*
X0029625Y0006400D01*
X0029375Y0006150D02*
X0029875D01*
X0024250Y0002400D02*
X0024000Y0002150D01*
X0024500D02*
X0024250Y0002400D01*
X0024000Y0002150D02*
X0024500D01*
X0024000Y0006900D02*
X0023750Y0006650D01*
X0024250D02*
X0024000Y0006900D01*
X0023750Y0006650D02*
X0024250D01*
X0029625Y0016150D02*
X0029375Y0015900D01*
X0029875D02*
X0029625Y0016150D01*
X0029375Y0015900D02*
X0029875D01*
X0032750Y0016400D02*
X0032500Y0016150D01*
X0033000D02*
X0032750Y0016400D01*
X0032500Y0016150D02*
X0033000D01*
X0024000Y0018775D02*
X0023750Y0018525D01*
X0024250D02*
X0024000Y0018775D01*
X0023750Y0018525D02*
X0024250D01*
X0024000Y0014525D02*
X0023750Y0014275D01*
X0024250D02*
X0024000Y0014525D01*
X0023750Y0014275D02*
X0024250D01*
X0029625Y0018150D02*
X0029375Y0017900D01*
X0029875D02*
X0029625Y0018150D01*
X0029375Y0017900D02*
X0029875D01*
X0036625Y0017500D02*
Y0017000D01*
X0037125Y0017500D02*
X0036625D01*
X0037125Y0017000D02*
Y0017500D01*
X0036625Y0017000D02*
X0037125D01*
Y0017500D02*
X0036625Y0017000D01*
X0037125D02*
X0036625Y0017500D01*
Y0015138D02*
Y0014638D01*
X0037125Y0015138D02*
X0036625D01*
X0037125Y0014638D02*
Y0015138D01*
X0036625Y0014638D02*
X0037125D01*
Y0015138D02*
X0036625Y0014638D01*
X0037125D02*
X0036625Y0015138D01*
Y0006870D02*
Y0006370D01*
X0037125Y0006870D02*
X0036625D01*
X0037125Y0006370D02*
Y0006870D01*
X0036625Y0006370D02*
X0037125D01*
Y0006870D02*
X0036625Y0006370D01*
X0037125D02*
X0036625Y0006870D01*
Y0009233D02*
Y0008733D01*
X0037125Y0009233D02*
X0036625D01*
X0037125Y0008733D02*
Y0009233D01*
X0036625Y0008733D02*
X0037125D01*
Y0009233D02*
X0036625Y0008733D01*
X0037125D02*
X0036625Y0009233D01*
X0038065Y0017500D02*
Y0017000D01*
X0038565Y0017500D02*
X0038065D01*
X0038565Y0017000D02*
Y0017500D01*
X0038065Y0017000D02*
X0038565D01*
Y0017500D02*
X0038065Y0017000D01*
X0038565D02*
X0038065Y0017500D01*
Y0015138D02*
Y0014638D01*
X0038565Y0015138D02*
X0038065D01*
X0038565Y0014638D02*
Y0015138D01*
X0038065Y0014638D02*
X0038565D01*
Y0015138D02*
X0038065Y0014638D01*
X0038565D02*
X0038065Y0015138D01*
Y0009233D02*
Y0008733D01*
X0038565Y0009233D02*
X0038065D01*
X0038565Y0008733D02*
Y0009233D01*
X0038065Y0008733D02*
X0038565D01*
Y0009233D02*
X0038065Y0008733D01*
X0038565D02*
X0038065Y0009233D01*
Y0006870D02*
Y0006370D01*
X0038565Y0006870D02*
X0038065D01*
X0038565Y0006370D02*
Y0006870D01*
X0038065Y0006370D02*
X0038565D01*
Y0006870D02*
X0038065Y0006370D01*
X0038565D02*
X0038065Y0006870D01*
X0020000Y0010500D02*
X0019500Y0010000D01*
X0020000D02*
X0019500Y0010500D01*
X0021000D02*
X0020500Y0010000D01*
X0021000D02*
X0020500Y0010500D01*
X0026000D02*
X0025500Y0010000D01*
X0026000D02*
X0025500Y0010500D01*
X0024000D02*
X0023500Y0010000D01*
X0024000D02*
X0023500Y0010500D01*
X0025000D02*
X0024500Y0010000D01*
X0025000D02*
X0024500Y0010500D01*
X0020000Y0022250D02*
X0019500Y0021750D01*
X0020000D02*
X0019500Y0022250D01*
X0021000D02*
X0020500Y0021750D01*
X0021000D02*
X0020500Y0022250D01*
X0026000D02*
X0025500Y0021750D01*
X0026000D02*
X0025500Y0022250D01*
X0024000D02*
X0023500Y0021750D01*
X0024000D02*
X0023500Y0022250D01*
X0025000D02*
X0024500Y0021750D01*
X0025000D02*
X0024500Y0022250D01*
X0037875Y0009750D02*
X0037375D01*
X0037625Y0010000D02*
Y0009500D01*
X0037875Y0005500D02*
X0037375D01*
X0037625Y0005750D02*
Y0005250D01*
X0037750Y0013750D02*
X0037250D01*
X0037500Y0014000D02*
Y0013500D01*
X0015250Y0019625D02*
X0014750D01*
X0015000Y0019875D02*
Y0019375D01*
X0016500Y0008750D02*
X0016000D01*
X0016250Y0009000D02*
Y0008500D01*
X0008750Y0019750D02*
X0008250D01*
X0008500Y0020000D02*
Y0019500D01*
X0037875Y0018000D02*
X0037375D01*
X0037625Y0018250D02*
Y0017750D01*
X0012125Y0002000D02*
X0011625D01*
X0011875Y0002250D02*
Y0001750D01*
X0018000Y0008750D02*
X0017500D01*
X0017750Y0009000D02*
Y0008500D01*
X0015250Y0020875D02*
X0014750D01*
X0015000Y0021125D02*
Y0020625D01*
X0007500Y0019750D02*
X0007000D01*
X0007250Y0020000D02*
Y0019500D01*
X0012125Y0003750D02*
X0011625D01*
X0011875Y0004000D02*
Y0003500D01*
X0015250Y0017875D02*
X0014750D01*
X0015000Y0018125D02*
Y0017625D01*
X0015250Y0016625D02*
X0014750D01*
X0015000Y0016875D02*
Y0016375D01*
X0001250Y0016625D02*
Y0016125D01*
X0001750Y0016625D02*
X0001250D01*
X0001750Y0016125D02*
Y0016625D01*
X0001250Y0016125D02*
X0001750D01*
Y0016375D02*
X0001250D01*
X0001500Y0016625D02*
Y0016125D01*
X0002250Y0016625D02*
Y0016125D01*
X0002750Y0016625D02*
X0002250D01*
X0002750Y0016125D02*
Y0016625D01*
X0002250Y0016125D02*
X0002750D01*
Y0016375D02*
X0002250D01*
X0002500Y0016625D02*
Y0016125D01*
X0001250Y0015625D02*
Y0015125D01*
X0001750Y0015625D02*
X0001250D01*
X0001750Y0015125D02*
Y0015625D01*
X0001250Y0015125D02*
X0001750D01*
Y0015375D02*
X0001250D01*
X0001500Y0015625D02*
Y0015125D01*
X0002250Y0015625D02*
Y0015125D01*
X0002750Y0015625D02*
X0002250D01*
X0002750Y0015125D02*
Y0015625D01*
X0002250Y0015125D02*
X0002750D01*
Y0015375D02*
X0002250D01*
X0002500Y0015625D02*
Y0015125D01*
X0001250Y0014625D02*
Y0014125D01*
X0001750Y0014625D02*
X0001250D01*
X0001750Y0014125D02*
Y0014625D01*
X0001250Y0014125D02*
X0001750D01*
Y0014375D02*
X0001250D01*
X0001500Y0014625D02*
Y0014125D01*
X0002250Y0014625D02*
Y0014125D01*
X0002750Y0014625D02*
X0002250D01*
X0002750Y0014125D02*
Y0014625D01*
X0002250Y0014125D02*
X0002750D01*
Y0014375D02*
X0002250D01*
X0002500Y0014625D02*
Y0014125D01*
X0001250Y0013625D02*
Y0013125D01*
X0001750Y0013625D02*
X0001250D01*
X0001750Y0013125D02*
Y0013625D01*
X0001250Y0013125D02*
X0001750D01*
Y0013375D02*
X0001250D01*
X0001500Y0013625D02*
Y0013125D01*
X0002250Y0013625D02*
Y0013125D01*
X0002750Y0013625D02*
X0002250D01*
X0002750Y0013125D02*
Y0013625D01*
X0002250Y0013125D02*
X0002750D01*
Y0013375D02*
X0002250D01*
X0002500Y0013625D02*
Y0013125D01*
X0001250Y0012625D02*
Y0012125D01*
X0001750Y0012625D02*
X0001250D01*
X0001750Y0012125D02*
Y0012625D01*
X0001250Y0012125D02*
X0001750D01*
Y0012375D02*
X0001250D01*
X0001500Y0012625D02*
Y0012125D01*
X0002250Y0012625D02*
Y0012125D01*
X0002750Y0012625D02*
X0002250D01*
X0002750Y0012125D02*
Y0012625D01*
X0002250Y0012125D02*
X0002750D01*
Y0012375D02*
X0002250D01*
X0002500Y0012625D02*
Y0012125D01*
X0001250Y0011625D02*
Y0011125D01*
X0001750Y0011625D02*
X0001250D01*
X0001750Y0011125D02*
Y0011625D01*
X0001250Y0011125D02*
X0001750D01*
Y0011375D02*
X0001250D01*
X0001500Y0011625D02*
Y0011125D01*
X0002250Y0011625D02*
Y0011125D01*
X0002750Y0011625D02*
X0002250D01*
X0002750Y0011125D02*
Y0011625D01*
X0002250Y0011125D02*
X0002750D01*
Y0011375D02*
X0002250D01*
X0002500Y0011625D02*
Y0011125D01*
X0001250Y0010625D02*
Y0010125D01*
X0001750Y0010625D02*
X0001250D01*
X0001750Y0010125D02*
Y0010625D01*
X0001250Y0010125D02*
X0001750D01*
Y0010375D02*
X0001250D01*
X0001500Y0010625D02*
Y0010125D01*
X0002250Y0010625D02*
Y0010125D01*
X0002750Y0010625D02*
X0002250D01*
X0002750Y0010125D02*
Y0010625D01*
X0002250Y0010125D02*
X0002750D01*
Y0010375D02*
X0002250D01*
X0002500Y0010625D02*
Y0010125D01*
X0001250Y0009625D02*
Y0009125D01*
X0001750Y0009625D02*
X0001250D01*
X0001750Y0009125D02*
Y0009625D01*
X0001250Y0009125D02*
X0001750D01*
Y0009375D02*
X0001250D01*
X0001500Y0009625D02*
Y0009125D01*
X0002250Y0009625D02*
Y0009125D01*
X0002750Y0009625D02*
X0002250D01*
X0002750Y0009125D02*
Y0009625D01*
X0002250Y0009125D02*
X0002750D01*
Y0009375D02*
X0002250D01*
X0002500Y0009625D02*
Y0009125D01*
X0001250Y0008625D02*
Y0008125D01*
X0001750Y0008625D02*
X0001250D01*
X0001750Y0008125D02*
Y0008625D01*
X0001250Y0008125D02*
X0001750D01*
Y0008375D02*
X0001250D01*
X0001500Y0008625D02*
Y0008125D01*
X0002250Y0008625D02*
Y0008125D01*
X0002750Y0008625D02*
X0002250D01*
X0002750Y0008125D02*
Y0008625D01*
X0002250Y0008125D02*
X0002750D01*
Y0008375D02*
X0002250D01*
X0002500Y0008625D02*
Y0008125D01*
X0001250Y0007625D02*
Y0007125D01*
X0001750Y0007625D02*
X0001250D01*
X0001750Y0007125D02*
Y0007625D01*
X0001250Y0007125D02*
X0001750D01*
Y0007375D02*
X0001250D01*
X0001500Y0007625D02*
Y0007125D01*
X0002250Y0007625D02*
Y0007125D01*
X0002750Y0007625D02*
X0002250D01*
X0002750Y0007125D02*
Y0007625D01*
X0002250Y0007125D02*
X0002750D01*
Y0007375D02*
X0002250D01*
X0002500Y0007625D02*
Y0007125D01*
X0002400Y0020375D02*
X0001400Y0019375D01*
X0002400D02*
X0001400Y0020375D01*
X0002400Y0004375D02*
X0001400Y0003375D01*
X0002400D02*
X0001400Y0004375D01*
X0037875Y0001250D02*
Y0001000D01*
X0038125Y0001250D02*
X0037875D01*
X0038125Y0000750D02*
Y0001250D01*
X0038375Y0000750D02*
X0038125D01*
X0038375Y0001000D02*
Y0000750D01*
X0037875Y0001000D02*
X0038375D01*
X0037875Y0023000D02*
Y0022750D01*
X0038125Y0023000D02*
X0037875D01*
X0038125Y0022500D02*
Y0023000D01*
X0038375Y0022500D02*
X0038125D01*
X0038375Y0022750D02*
Y0022500D01*
X0037875Y0022750D02*
X0038375D01*
X0033000Y0001000D02*
X0032750Y0000750D01*
X0033250D02*
X0033000Y0001000D01*
Y0000500D02*
X0033250Y0000750D01*
X0032750D02*
X0033000Y0000500D01*
X0029000Y0001000D02*
X0028750Y0000750D01*
X0029250D02*
X0029000Y0001000D01*
Y0000500D02*
X0029250Y0000750D01*
X0028750D02*
X0029000Y0000500D01*
X0033000Y0023250D02*
X0032750Y0023000D01*
X0033250D02*
X0033000Y0023250D01*
Y0022750D02*
X0033250Y0023000D01*
X0032750D02*
X0033000Y0022750D01*
X0029000Y0023250D02*
X0028750Y0023000D01*
X0029250D02*
X0029000Y0023250D01*
Y0022750D02*
X0029250Y0023000D01*
X0028750D02*
X0029000Y0022750D01*
X0001250Y0001600D02*
Y0001400D01*
X0001400Y0001750D02*
X0001250Y0001600D01*
X0001600Y0001750D02*
X0001400D01*
X0001750Y0001600D02*
X0001600Y0001750D01*
X0001750Y0001400D02*
Y0001600D01*
X0001600Y0001250D02*
X0001750Y0001400D01*
X0001400Y0001250D02*
X0001600D01*
X0001250Y0001400D02*
X0001400Y0001250D01*
X0001250Y0022350D02*
Y0022150D01*
X0001400Y0022500D02*
X0001250Y0022350D01*
X0001600Y0022500D02*
X0001400D01*
X0001750Y0022350D02*
X0001600Y0022500D01*
X0001750Y0022150D02*
Y0022350D01*
X0001600Y0022000D02*
X0001750Y0022150D01*
X0001400Y0022000D02*
X0001600D01*
X0001250Y0022150D02*
X0001400Y0022000D01*
G54D89*
G01X0022250Y0022625D02*
Y0013500D01*
Y0001500D02*
Y0011000D01*
G54D90*
G01X0000000Y0000000D02*
X0039125D01*
Y0023750D01*
X0000000D01*
Y0000000D01*
G54D91*
G01X0104260Y0008720D02*
X0104371Y0008942D01*
Y0009164D01*
X0104260Y0009386D01*
X0103993Y0008831D02*
X0103938Y0008720D01*
X0103604D01*
X0103549Y0008831D01*
Y0009275D01*
X0103604Y0009386D01*
X0103938D01*
X0103993Y0009275D01*
X0103004Y0008720D02*
Y0009386D01*
X0102949Y0008720D02*
X0103282D01*
X0103393Y0008831D01*
Y0008942D01*
X0103338Y0009053D01*
X0103004D02*
X0103338D01*
X0103393Y0009164D01*
Y0009275D01*
X0103282Y0009386D01*
X0102949D01*
X0102404Y0008720D02*
X0102349Y0008831D01*
Y0009275D01*
X0102404Y0009386D01*
X0102738D01*
X0102793Y0009275D01*
Y0008831D01*
X0102738Y0008720D01*
X0102404D01*
X0102193D02*
Y0009386D01*
X0102082Y0009275D01*
X0101971Y0009053D01*
X0101860Y0009275D01*
X0101749Y0009386D01*
Y0008720D01*
X0101593Y0009275D02*
X0101538Y0009386D01*
X0101204D01*
X0101149Y0009275D01*
Y0009164D01*
X0101204Y0009053D01*
X0101538D01*
X0101593Y0008942D01*
Y0008831D01*
X0101538Y0008720D01*
X0101204D01*
X0101149Y0008831D01*
X0100993Y0008720D02*
X0100882Y0008942D01*
Y0009164D01*
X0100993Y0009386D01*
X0099599Y0009164D02*
X0099265D01*
X0099210Y0009053D01*
X0099265Y0008942D01*
X0099599D01*
X0099654Y0008831D01*
X0099599Y0008720D01*
X0099265D01*
X0098999D02*
X0098665D01*
X0098610Y0008831D01*
Y0009053D01*
X0098665Y0009164D01*
X0098999D01*
X0099054Y0009053D01*
Y0008942D01*
X0098610D01*
X0098454Y0009386D02*
Y0008720D01*
X0098121D01*
X0098066Y0008831D01*
Y0009053D01*
X0098121Y0009164D01*
X0098454D01*
X0097798Y0009386D02*
Y0009387D01*
X0097799D01*
Y0009386D01*
X0097798D01*
X0097910Y0008720D02*
X0097688D01*
X0097799D02*
Y0009164D01*
X0097688D01*
X0097421D02*
X0097088D01*
X0097032Y0009053D01*
X0097088Y0008942D01*
X0097421D01*
X0097477Y0008831D01*
X0097421Y0008720D01*
X0097088D01*
X0096027D02*
Y0009053D01*
X0095971Y0009164D01*
X0095638D01*
Y0008720D02*
Y0009386D01*
X0095427Y0009164D02*
X0095094D01*
X0095482Y0008720D02*
X0095260D01*
X0095205Y0008831D01*
Y0009386D01*
X0094549Y0008720D02*
X0094494Y0008831D01*
Y0009053D01*
X0094549Y0009164D01*
X0094882D01*
X0094938Y0009053D01*
Y0008831D01*
X0094882Y0008720D01*
X0094549D01*
X0093949Y0009164D02*
X0094283D01*
X0094338Y0009053D01*
Y0008831D01*
X0094283Y0008720D01*
X0093949D01*
Y0009386D01*
X0092888Y0008498D02*
X0092944Y0008609D01*
Y0008831D01*
X0092833D01*
Y0008720D01*
X0092944D01*
X0092455D02*
X0092121D01*
X0092066Y0008831D01*
Y0009053D01*
X0092121Y0009164D01*
X0092455D01*
X0092510Y0009053D01*
Y0008942D01*
X0092066D01*
X0091855Y0009164D02*
Y0008720D01*
X0091910D02*
X0091521D01*
X0091466Y0008831D01*
Y0009164D01*
X0091310Y0008720D02*
X0091088D01*
X0091199D02*
Y0009386D01*
X0091088D01*
X0090488Y0008720D02*
Y0009386D01*
X0090433Y0008720D02*
X0090766D01*
X0090877Y0008831D01*
Y0008942D01*
X0090821Y0009053D01*
X0090488D02*
X0090821D01*
X0090877Y0009164D01*
Y0009275D01*
X0090766Y0009386D01*
X0090433D01*
X0089316Y0009053D02*
Y0009164D01*
X0089427D01*
Y0009053D01*
X0089316D01*
Y0008720D02*
Y0008831D01*
X0089427D01*
Y0008720D01*
X0089316D01*
X0089049D02*
X0088716Y0009053D01*
X0089049Y0009386D01*
X0088605D02*
Y0008720D01*
X0088449Y0009275D02*
X0088394Y0009386D01*
X0088060D01*
X0088005Y0009275D01*
Y0009164D01*
X0088060Y0009053D01*
X0088394D01*
X0088449Y0008942D01*
Y0008831D01*
X0088394Y0008720D01*
X0088060D01*
X0088005Y0008831D01*
X0087849Y0008942D02*
X0087405D01*
X0087849Y0008720D02*
Y0009053D01*
X0087683Y0009386D01*
X0087572D01*
X0087405Y0009053D01*
Y0008720D01*
X0087249D02*
Y0009386D01*
X0087138Y0009275D01*
X0087027Y0009053D01*
X0086916Y0009275D01*
X0086805Y0009386D01*
Y0008720D01*
X0086483Y0009053D02*
X0086649Y0008720D01*
X0086205Y0009053D02*
X0086538D01*
X0086649Y0009164D01*
Y0009275D01*
X0086538Y0009386D01*
X0086205D01*
Y0008720D01*
X0085938Y0009053D02*
X0085605D01*
X0086049Y0008720D02*
X0085605D01*
Y0009386D01*
X0086049D01*
X0085060Y0008720D02*
Y0009386D01*
X0085005Y0008720D02*
X0085338D01*
X0085449Y0008942D01*
Y0009164D01*
X0085338Y0009386D01*
X0085005D01*
X0084849Y0008720D02*
X0084461D01*
Y0009386D01*
X0083916Y0008720D02*
X0083861Y0008831D01*
Y0009275D01*
X0083916Y0009386D01*
X0084249D01*
X0084305Y0009275D01*
Y0008831D01*
X0084249Y0008720D01*
X0083916D01*
X0083705Y0009275D02*
X0083649Y0009386D01*
X0083316D01*
X0083261Y0009275D01*
Y0009164D01*
X0083316Y0009053D01*
X0083649D01*
X0083705Y0008942D01*
Y0008831D01*
X0083649Y0008720D01*
X0083316D01*
X0083261Y0008831D01*
X0082144Y0008720D02*
X0082255D01*
Y0008831D01*
X0082144D01*
Y0008720D01*
X0081488Y0009053D02*
X0081822D01*
X0081877Y0008942D01*
Y0008831D01*
X0081822Y0008720D01*
X0081488D01*
X0081433Y0008831D01*
Y0008942D01*
X0081655Y0009386D01*
X0099976Y0007498D02*
X0099643D01*
X0099587Y0007386D01*
X0099643Y0007275D01*
X0099976D01*
X0100032Y0007164D01*
X0099976Y0007053D01*
X0099643D01*
X0099376D02*
X0099043D01*
X0098987Y0007164D01*
Y0007386D01*
X0099043Y0007498D01*
X0099376D01*
X0099432Y0007386D01*
Y0007275D01*
X0098987D01*
X0098832Y0007720D02*
Y0007053D01*
X0098499D01*
X0098443Y0007164D01*
Y0007386D01*
X0098499Y0007498D01*
X0098832D01*
X0098176Y0007719D02*
Y0007720D01*
X0098177D01*
Y0007719D01*
X0098176D01*
X0098288Y0007053D02*
X0098065D01*
X0098176D02*
Y0007498D01*
X0098065D01*
X0097799D02*
X0097465D01*
X0097410Y0007386D01*
X0097465Y0007275D01*
X0097799D01*
X0097854Y0007164D01*
X0097799Y0007053D01*
X0097465D01*
X0096404D02*
Y0007386D01*
X0096349Y0007498D01*
X0096015D01*
Y0007053D02*
Y0007720D01*
X0095804Y0007498D02*
X0095471D01*
X0095860Y0007053D02*
X0095638D01*
X0095582Y0007164D01*
Y0007720D01*
X0094927Y0007053D02*
X0094871Y0007164D01*
Y0007386D01*
X0094927Y0007498D01*
X0095260D01*
X0095316Y0007386D01*
Y0007164D01*
X0095260Y0007053D01*
X0094927D01*
X0094327Y0007498D02*
X0094660D01*
X0094716Y0007386D01*
Y0007164D01*
X0094660Y0007053D01*
X0094327D01*
Y0007720D01*
X0093266Y0006831D02*
X0093321Y0006942D01*
Y0007164D01*
X0093210D01*
Y0007053D01*
X0093321D01*
X0092832D02*
X0092499D01*
X0092443Y0007164D01*
Y0007386D01*
X0092499Y0007498D01*
X0092832D01*
X0092888Y0007386D01*
Y0007275D01*
X0092443D01*
X0092232Y0007498D02*
X0091899D01*
X0092288Y0007053D02*
X0092066D01*
X0092010Y0007164D01*
Y0007720D01*
X0091632Y0007719D02*
Y0007720D01*
X0091633D01*
Y0007719D01*
X0091632D01*
X0091744Y0007053D02*
X0091521D01*
X0091632D02*
Y0007498D01*
X0091521D01*
X0091310Y0007053D02*
Y0007386D01*
X0091255Y0007498D01*
X0090921D01*
Y0007053D02*
Y0007720D01*
X0090766D02*
Y0007164D01*
X0090710Y0007053D01*
X0090544Y0007386D01*
Y0007498D02*
Y0007386D01*
X0090377Y0007053D01*
X0090321Y0007164D01*
Y0007720D01*
X0089205Y0007386D02*
Y0007498D01*
X0089316D01*
Y0007386D01*
X0089205D01*
Y0007053D02*
Y0007164D01*
X0089316D01*
Y0007053D01*
X0089205D01*
X0088938Y0007720D02*
Y0007053D01*
X0088827Y0007164D01*
X0088605Y0007609D01*
X0088494Y0007720D01*
Y0007053D01*
X0088227Y0007386D02*
X0087894D01*
X0088338Y0007053D02*
X0087894D01*
Y0007720D01*
X0088338D01*
X0087627Y0007386D02*
X0087294D01*
X0087738Y0007053D02*
X0087294D01*
Y0007720D01*
X0087738D01*
X0086972Y0007386D02*
X0087138Y0007053D01*
X0086694Y0007386D02*
X0087027D01*
X0087138Y0007498D01*
Y0007609D01*
X0087027Y0007720D01*
X0086694D01*
Y0007053D01*
X0086538Y0007164D02*
X0086483Y0007053D01*
X0086149D01*
X0086094Y0007164D01*
Y0007609D01*
X0086149Y0007720D01*
X0086483D01*
X0086538Y0007609D01*
X0085938D02*
X0085883Y0007720D01*
X0085549D01*
X0085494Y0007609D01*
Y0007498D01*
X0085549Y0007386D01*
X0085883D01*
X0085938Y0007275D01*
Y0007164D01*
X0085883Y0007053D01*
X0085549D01*
X0085494Y0007164D01*
X0085338Y0007053D02*
X0085005Y0007386D01*
X0085338Y0007720D01*
X0084894D02*
Y0007053D01*
X0084738D02*
X0084349D01*
Y0007720D01*
X0084194Y0007053D02*
X0083972D01*
X0084083D02*
Y0007720D01*
X0084194D02*
X0083972D01*
X0083705Y0007609D02*
X0083649Y0007720D01*
X0083316D01*
X0083261Y0007609D01*
Y0007498D01*
X0083316Y0007386D01*
X0083649D01*
X0083705Y0007275D01*
Y0007164D01*
X0083649Y0007053D01*
X0083316D01*
X0083261Y0007164D01*
X0082144Y0007053D02*
X0082255D01*
Y0007164D01*
X0082144D01*
Y0007053D01*
X0081544D02*
X0081877Y0007720D01*
X0081433D01*
X0099671Y0005386D02*
X0099782D01*
Y0005498D01*
X0099671D01*
Y0005386D01*
X0099349Y0005831D02*
X0099015D01*
X0098960Y0005720D01*
X0099015Y0005609D01*
X0099349D01*
X0099404Y0005498D01*
X0099349Y0005386D01*
X0099015D01*
X0098749D02*
X0098415D01*
X0098360Y0005498D01*
Y0005720D01*
X0098415Y0005831D01*
X0098749D01*
X0098804Y0005720D01*
Y0005609D01*
X0098360D01*
X0098204Y0005386D02*
X0097871D01*
X0097927Y0005498D01*
X0098149Y0005720D01*
X0098204Y0005831D01*
X0097871D01*
X0097604Y0006053D02*
Y0006054D01*
X0097605D01*
Y0006053D01*
X0097604D01*
X0097716Y0005386D02*
X0097493D01*
X0097604D02*
Y0005831D01*
X0097493D01*
X0097227D02*
X0096893D01*
X0096838Y0005720D01*
X0096893Y0005609D01*
X0097227D01*
X0097282Y0005498D01*
X0097227Y0005386D01*
X0096893D01*
X0095832Y0006053D02*
Y0005386D01*
X0095499D01*
X0095443Y0005498D01*
Y0005720D01*
X0095499Y0005831D01*
X0095832D01*
X0095232Y0005386D02*
X0094899D01*
X0094843Y0005498D01*
Y0005720D01*
X0094899Y0005831D01*
X0095232D01*
X0095288Y0005720D01*
Y0005609D01*
X0094843D01*
X0094688Y0005386D02*
Y0005720D01*
X0094632Y0005831D01*
X0094299D01*
Y0005386D02*
Y0006053D01*
X0094088Y0005831D02*
X0093755D01*
X0093699Y0005720D01*
X0093755Y0005609D01*
X0094088D01*
X0094144Y0005498D01*
X0094088Y0005386D01*
X0093755D01*
X0093432Y0006053D02*
Y0006054D01*
X0093433D01*
Y0006053D01*
X0093432D01*
X0093544Y0005386D02*
X0093321D01*
X0093432D02*
Y0005831D01*
X0093321D01*
X0093110Y0005386D02*
Y0005720D01*
X0093055Y0005831D01*
X0092721D01*
Y0005386D01*
X0092454Y0006053D02*
Y0006054D01*
X0092455D01*
Y0006053D01*
X0092454D01*
X0092566Y0005386D02*
X0092344D01*
X0092455D02*
Y0005831D01*
X0092344D01*
X0092133Y0005720D02*
X0091799D01*
X0091966Y0005386D02*
Y0005942D01*
X0092021Y0006053D01*
X0092133D01*
X0090738Y0005386D02*
X0090405D01*
X0090349Y0005498D01*
Y0005720D01*
X0090405Y0005831D01*
X0090738D01*
X0090794Y0005720D01*
Y0005609D01*
X0090349D01*
X0090194Y0005831D02*
X0089972D01*
X0089916Y0005720D01*
X0089805D01*
Y0005831D02*
Y0005386D01*
X0089316Y0005831D02*
X0089538D01*
X0089594Y0005720D01*
Y0005498D01*
X0089649Y0005386D01*
X0089260D01*
X0089205Y0005498D01*
X0089260Y0005609D01*
X0089594D01*
X0088144Y0005831D02*
X0087810D01*
X0087755Y0005720D01*
X0087810Y0005609D01*
X0088144D01*
X0088199Y0005498D01*
X0088144Y0005386D01*
X0087810D01*
X0087544D02*
X0087210D01*
X0087155Y0005498D01*
Y0005720D01*
X0087210Y0005831D01*
X0087544D01*
X0087599Y0005720D01*
Y0005609D01*
X0087155D01*
X0086999Y0005386D02*
X0086777D01*
X0086888D02*
Y0006053D01*
X0086777D01*
X0086177Y0005386D02*
X0086122Y0005498D01*
Y0005720D01*
X0086177Y0005831D01*
X0086510D01*
X0086566Y0005720D01*
Y0005498D01*
X0086510Y0005386D01*
X0086177D01*
X0085966D02*
Y0005720D01*
X0085911Y0005831D01*
X0085577D01*
Y0005386D02*
Y0006053D01*
X0084572Y0005386D02*
X0084349D01*
X0084461D02*
Y0006053D01*
X0084349D01*
X0084138Y0005386D02*
X0083916D01*
X0084027D02*
Y0006053D01*
X0083916D01*
X0083705Y0005609D02*
X0083261D01*
X0083705Y0005386D02*
Y0005720D01*
X0083538Y0006053D01*
X0083427D01*
X0083261Y0005720D01*
Y0005386D01*
X0082144D02*
X0082255D01*
Y0005498D01*
X0082144D01*
Y0005386D01*
X0081822Y0005720D02*
X0081877Y0005831D01*
Y0005942D01*
X0081822Y0006053D01*
X0081488D01*
X0081433Y0005942D01*
Y0005831D01*
X0081488Y0005720D01*
X0081822D01*
X0081877Y0005609D01*
Y0005498D01*
X0081822Y0005386D01*
X0081488D01*
X0081433Y0005498D01*
Y0005609D01*
X0081488Y0005720D01*
X0062200Y0023236D02*
X0062533D01*
X0062644Y0023347D01*
Y0023458D01*
X0062533Y0023569D01*
X0062200D01*
Y0022903D01*
X0062044Y0023569D02*
Y0023014D01*
X0061989Y0022903D01*
X0061655D01*
X0061600Y0023014D01*
Y0023569D01*
X0061444Y0022903D02*
X0061111Y0023236D01*
X0061444Y0023569D01*
X0061000D02*
Y0022903D01*
X0060844Y0023014D02*
X0060789Y0022903D01*
X0060455D01*
X0060400Y0023014D01*
Y0023458D01*
X0060455Y0023569D01*
X0060789D01*
X0060844Y0023458D01*
X0060244Y0023125D02*
X0059800D01*
X0060244Y0022903D02*
Y0023236D01*
X0060078Y0023569D01*
X0059966D01*
X0059800Y0023236D01*
Y0022903D01*
X0059422D02*
Y0023569D01*
X0059644D02*
X0059200D01*
X0059044Y0023458D02*
X0058989Y0023569D01*
X0058655D01*
X0058600Y0023458D01*
Y0023347D01*
X0058655Y0023236D01*
X0058989D01*
X0059044Y0023125D01*
Y0023014D01*
X0058989Y0022903D01*
X0058655D01*
X0058600Y0023014D01*
X0057428Y0023236D02*
X0057594Y0022903D01*
X0057150Y0023236D02*
X0057483D01*
X0057594Y0023347D01*
Y0023458D01*
X0057483Y0023569D01*
X0057150D01*
Y0022903D01*
X0056883Y0023236D02*
X0056550D01*
X0056994Y0022903D02*
X0056550D01*
Y0023569D01*
X0056994D01*
X0056172Y0022903D02*
Y0023236D01*
X0056394Y0023569D02*
X0056228Y0023236D01*
X0056116D01*
X0055950Y0023569D01*
X0055794Y0023125D02*
X0055350D01*
X0055794Y0022903D02*
Y0023236D01*
X0055628Y0023569D01*
X0055516D01*
X0055350Y0023236D01*
Y0022903D01*
X0055194D02*
X0054805D01*
Y0023569D01*
X0045541Y0011347D02*
Y0011569D01*
X0045319Y0011347D02*
Y0011569D01*
X0044608Y0011014D02*
X0044719Y0010903D01*
X0044941D01*
X0045053Y0011014D01*
Y0011125D01*
X0044830Y0011347D01*
X0045053Y0011569D01*
X0044608D01*
X0044064Y0011236D02*
X0044397D01*
X0044453Y0011125D01*
Y0011014D01*
X0044397Y0010903D01*
X0044064D01*
X0044008Y0011014D01*
Y0011125D01*
X0044230Y0011569D01*
X0043575Y0010903D02*
X0043464Y0011014D01*
X0043408Y0011125D01*
Y0011347D01*
X0043464Y0011458D01*
X0043575Y0011569D01*
X0043686D01*
X0043797Y0011458D01*
X0043853Y0011347D01*
Y0011125D01*
X0043797Y0011014D01*
X0043686Y0010903D01*
X0043575D01*
X0043142D02*
X0043253D01*
Y0011014D01*
X0043142D01*
Y0010903D01*
X0042597D02*
X0042486Y0011014D01*
X0042430Y0011125D01*
Y0011347D01*
X0042486Y0011458D01*
X0042597Y0011569D01*
X0042708D01*
X0042819Y0011458D01*
X0042875Y0011347D01*
Y0011125D01*
X0042819Y0011014D01*
X0042708Y0010903D01*
X0042597D01*
X0064129Y0016528D02*
X0064240Y0016750D01*
Y0016972D01*
X0064129Y0017194D01*
X0063640Y0016528D02*
Y0017194D01*
X0063862D02*
X0063417D01*
X0063262Y0016528D02*
Y0017194D01*
X0063151Y0017083D01*
X0063040Y0016861D01*
X0062929Y0017083D01*
X0062817Y0017194D01*
Y0016528D01*
X0062662Y0017083D02*
X0062606Y0017194D01*
X0062273D01*
X0062217Y0017083D01*
Y0016972D01*
X0062273Y0016861D01*
X0062606D01*
X0062662Y0016750D01*
Y0016639D01*
X0062606Y0016528D01*
X0062273D01*
X0062217Y0016639D01*
X0062062Y0016528D02*
X0061951Y0016750D01*
Y0016972D01*
X0062062Y0017194D01*
X0060334Y0016305D02*
Y0016972D01*
X0060668D01*
X0060723Y0016861D01*
Y0016639D01*
X0060668Y0016528D01*
X0060334D01*
X0059790D02*
X0059734Y0016639D01*
Y0016861D01*
X0059790Y0016972D01*
X0060123D01*
X0060179Y0016861D01*
Y0016639D01*
X0060123Y0016528D01*
X0059790D01*
X0059356D02*
Y0017194D01*
X0059579D02*
X0059134D01*
X0057907Y0016750D02*
X0057795D01*
X0058129Y0016528D02*
X0057907Y0016750D01*
X0058129Y0016972D01*
X0057795Y0016528D02*
Y0017194D01*
X0057529Y0016972D02*
X0057195D01*
X0057140Y0016861D01*
X0057195Y0016750D01*
X0057529D01*
X0057584Y0016639D01*
X0057529Y0016528D01*
X0057195D01*
X0056651Y0016972D02*
X0056873D01*
X0056929Y0016861D01*
Y0016639D01*
X0056984Y0016528D01*
X0056595D01*
X0056540Y0016639D01*
X0056595Y0016750D01*
X0056929D01*
X0056162Y0016528D02*
Y0016861D01*
X0056384Y0016528D02*
Y0016861D01*
X0056329Y0016972D01*
X0056218D01*
X0056162Y0016861D01*
X0056107Y0016972D01*
X0055995D01*
X0055940Y0016861D01*
Y0016528D01*
X0055784Y0016972D02*
X0055562D01*
X0055507Y0016861D01*
X0055396D01*
Y0016972D02*
Y0016528D01*
X0055184D02*
X0054851D01*
X0054796Y0016639D01*
Y0016861D01*
X0054851Y0016972D01*
X0055184D01*
X0055240Y0016861D01*
Y0016750D01*
X0054796D01*
X0054640Y0017194D02*
Y0016528D01*
X0054307D01*
X0054251Y0016639D01*
Y0016861D01*
X0054307Y0016972D01*
X0054640D01*
X0054096Y0016528D02*
X0053873D01*
X0053985D02*
Y0017194D01*
X0053873D01*
X0053273Y0016528D02*
X0053218Y0016639D01*
Y0016861D01*
X0053273Y0016972D01*
X0053607D01*
X0053662Y0016861D01*
Y0016639D01*
X0053607Y0016528D01*
X0053273D01*
X0053062Y0017083D02*
X0053007Y0017194D01*
X0052673D01*
X0052618Y0017083D01*
Y0016972D01*
X0052673Y0016861D01*
X0053007D01*
X0053062Y0016750D01*
Y0016639D01*
X0053007Y0016528D01*
X0052673D01*
X0052618Y0016639D01*
X0064156Y0018528D02*
X0064267Y0018750D01*
Y0018972D01*
X0064156Y0019194D01*
X0063667Y0018528D02*
Y0019194D01*
X0063890D02*
X0063445D01*
X0063290Y0019083D02*
X0063234Y0019194D01*
X0062901D01*
X0062845Y0019083D01*
Y0018972D01*
X0062901Y0018861D01*
X0063234D01*
X0063290Y0018750D01*
Y0018639D01*
X0063234Y0018528D01*
X0062901D01*
X0062845Y0018639D01*
X0062690Y0019083D02*
X0062634Y0019194D01*
X0062301D01*
X0062245Y0019083D01*
Y0018972D01*
X0062301Y0018861D01*
X0062634D01*
X0062690Y0018750D01*
Y0018639D01*
X0062634Y0018528D01*
X0062301D01*
X0062245Y0018639D01*
X0062090Y0018528D02*
X0061978Y0018750D01*
Y0018972D01*
X0062090Y0019194D01*
X0060362Y0018305D02*
Y0018972D01*
X0060695D01*
X0060751Y0018861D01*
Y0018639D01*
X0060695Y0018528D01*
X0060362D01*
X0059817D02*
X0059762Y0018639D01*
Y0018861D01*
X0059817Y0018972D01*
X0060151D01*
X0060206Y0018861D01*
Y0018639D01*
X0060151Y0018528D01*
X0059817D01*
X0059384D02*
Y0019194D01*
X0059606D02*
X0059162D01*
X0058156Y0018528D02*
Y0018861D01*
X0058101Y0018972D01*
X0057768D01*
Y0018528D01*
X0057556D02*
X0057223D01*
X0057168Y0018639D01*
Y0018861D01*
X0057223Y0018972D01*
X0057556D01*
X0057612Y0018861D01*
Y0018750D01*
X0057168D01*
X0056956Y0018528D02*
X0056623D01*
X0056568Y0018639D01*
Y0018861D01*
X0056623Y0018972D01*
X0056956D01*
X0057012Y0018861D01*
Y0018750D01*
X0056568D01*
X0056412Y0018972D02*
X0056190D01*
X0056134Y0018861D01*
X0056023D01*
Y0018972D02*
Y0018528D01*
X0055868Y0018972D02*
X0055534D01*
X0055479Y0018861D01*
Y0018639D01*
X0055534Y0018528D01*
X0055868D01*
X0055268Y0018972D02*
X0054934D01*
X0054879Y0018861D01*
X0054934Y0018750D01*
X0055268D01*
X0055323Y0018639D01*
X0055268Y0018528D01*
X0054934D01*
X0054501Y0018750D02*
X0054390D01*
X0054723Y0018528D02*
X0054501Y0018750D01*
X0054723Y0018972D01*
X0054390Y0018528D02*
Y0019194D01*
X0054179Y0018528D02*
X0053957D01*
X0054068D02*
Y0019194D01*
X0053957D01*
X0053634D02*
Y0019195D01*
X0053635D01*
Y0019194D01*
X0053634D01*
X0053746Y0018528D02*
X0053523D01*
X0053635D02*
Y0018972D01*
X0053523D01*
X0053312Y0019083D02*
X0053257Y0019194D01*
X0052923D01*
X0052868Y0019083D01*
Y0018972D01*
X0052923Y0018861D01*
X0053257D01*
X0053312Y0018750D01*
Y0018639D01*
X0053257Y0018528D01*
X0052923D01*
X0052868Y0018639D01*
X0064748Y0006403D02*
X0064859Y0006625D01*
Y0006847D01*
X0064748Y0007069D01*
X0064092Y0006403D02*
Y0007069D01*
X0064037Y0006403D02*
X0064370D01*
X0064481Y0006514D01*
Y0006625D01*
X0064426Y0006736D01*
X0064092D02*
X0064426D01*
X0064481Y0006847D01*
Y0006958D01*
X0064370Y0007069D01*
X0064037D01*
X0063881Y0006403D02*
Y0007069D01*
X0063770Y0006958D01*
X0063659Y0006736D01*
X0063548Y0006958D01*
X0063437Y0007069D01*
Y0006403D01*
X0063281Y0006958D02*
X0063226Y0007069D01*
X0062892D01*
X0062837Y0006958D01*
Y0006847D01*
X0062892Y0006736D01*
X0063226D01*
X0063281Y0006625D01*
Y0006514D01*
X0063226Y0006403D01*
X0062892D01*
X0062837Y0006514D01*
X0062681Y0006403D02*
X0062570Y0006625D01*
Y0006847D01*
X0062681Y0007069D01*
X0061120Y0006403D02*
Y0006736D01*
X0061342Y0006403D02*
Y0006736D01*
X0061287Y0006847D01*
X0061176D01*
X0061120Y0006736D01*
X0061065Y0006847D01*
X0060953D01*
X0060898Y0006736D01*
Y0006403D01*
X0060353D02*
X0060298Y0006514D01*
Y0006736D01*
X0060353Y0006847D01*
X0060687D01*
X0060742Y0006736D01*
Y0006514D01*
X0060687Y0006403D01*
X0060353D01*
X0060087Y0006847D02*
X0059754D01*
X0060142Y0006403D02*
X0059920D01*
X0059865Y0006514D01*
Y0007069D01*
X0059543Y0006847D02*
X0059209D01*
X0059598Y0006403D02*
X0059376D01*
X0059320Y0006514D01*
Y0007069D01*
X0058665Y0006403D02*
X0058609Y0006514D01*
Y0006736D01*
X0058665Y0006847D01*
X0058998D01*
X0059054Y0006736D01*
Y0006514D01*
X0058998Y0006403D01*
X0058665D01*
X0058065D02*
Y0007069D01*
X0058009Y0006403D02*
X0058343D01*
X0058454Y0006514D01*
Y0006625D01*
X0058398Y0006736D01*
X0058065D02*
X0058398D01*
X0058454Y0006847D01*
Y0006958D01*
X0058343Y0007069D01*
X0058009D01*
X0056782Y0006625D02*
X0056670D01*
X0057004Y0006403D02*
X0056782Y0006625D01*
X0057004Y0006847D01*
X0056670Y0006403D02*
Y0007069D01*
X0056404Y0006847D02*
X0056070D01*
X0056015Y0006736D01*
X0056070Y0006625D01*
X0056404D01*
X0056459Y0006514D01*
X0056404Y0006403D01*
X0056070D01*
X0055526Y0006847D02*
X0055748D01*
X0055804Y0006736D01*
Y0006514D01*
X0055859Y0006403D01*
X0055470D01*
X0055415Y0006514D01*
X0055470Y0006625D01*
X0055804D01*
X0055037Y0006403D02*
Y0006736D01*
X0055259Y0006403D02*
Y0006736D01*
X0055204Y0006847D01*
X0055093D01*
X0055037Y0006736D01*
X0054982Y0006847D01*
X0054870D01*
X0054815Y0006736D01*
Y0006403D01*
X0054659Y0006847D02*
X0054437D01*
X0054382Y0006736D01*
X0054271D01*
Y0006847D02*
Y0006403D01*
X0054059D02*
X0053726D01*
X0053671Y0006514D01*
Y0006736D01*
X0053726Y0006847D01*
X0054059D01*
X0054115Y0006736D01*
Y0006625D01*
X0053671D01*
X0053515Y0007069D02*
Y0006403D01*
X0053182D01*
X0053126Y0006514D01*
Y0006736D01*
X0053182Y0006847D01*
X0053515D01*
X0052971Y0006403D02*
X0052748D01*
X0052860D02*
Y0007069D01*
X0052748D01*
X0052148Y0006403D02*
X0052093Y0006514D01*
Y0006736D01*
X0052148Y0006847D01*
X0052482D01*
X0052537Y0006736D01*
Y0006514D01*
X0052482Y0006403D01*
X0052148D01*
X0051937Y0006958D02*
X0051882Y0007069D01*
X0051548D01*
X0051493Y0006958D01*
Y0006847D01*
X0051548Y0006736D01*
X0051882D01*
X0051937Y0006625D01*
Y0006514D01*
X0051882Y0006403D01*
X0051548D01*
X0051493Y0006514D01*
X0064776Y0004403D02*
X0064887Y0004625D01*
Y0004847D01*
X0064776Y0005069D01*
X0064120Y0004403D02*
Y0005069D01*
X0064064Y0004403D02*
X0064398D01*
X0064509Y0004514D01*
Y0004625D01*
X0064453Y0004736D01*
X0064120D02*
X0064453D01*
X0064509Y0004847D01*
Y0004958D01*
X0064398Y0005069D01*
X0064064D01*
X0063909Y0004958D02*
X0063853Y0005069D01*
X0063520D01*
X0063464Y0004958D01*
Y0004847D01*
X0063520Y0004736D01*
X0063853D01*
X0063909Y0004625D01*
Y0004514D01*
X0063853Y0004403D01*
X0063520D01*
X0063464Y0004514D01*
X0063309Y0004958D02*
X0063253Y0005069D01*
X0062920D01*
X0062864Y0004958D01*
Y0004847D01*
X0062920Y0004736D01*
X0063253D01*
X0063309Y0004625D01*
Y0004514D01*
X0063253Y0004403D01*
X0062920D01*
X0062864Y0004514D01*
X0062709Y0004403D02*
X0062598Y0004625D01*
Y0004847D01*
X0062709Y0005069D01*
X0061148Y0004403D02*
Y0004736D01*
X0061370Y0004403D02*
Y0004736D01*
X0061314Y0004847D01*
X0061203D01*
X0061148Y0004736D01*
X0061092Y0004847D01*
X0060981D01*
X0060926Y0004736D01*
Y0004403D01*
X0060381D02*
X0060326Y0004514D01*
Y0004736D01*
X0060381Y0004847D01*
X0060714D01*
X0060770Y0004736D01*
Y0004514D01*
X0060714Y0004403D01*
X0060381D01*
X0060115Y0004847D02*
X0059781D01*
X0060170Y0004403D02*
X0059948D01*
X0059892Y0004514D01*
Y0005069D01*
X0059570Y0004847D02*
X0059237D01*
X0059626Y0004403D02*
X0059404D01*
X0059348Y0004514D01*
Y0005069D01*
X0058692Y0004403D02*
X0058637Y0004514D01*
Y0004736D01*
X0058692Y0004847D01*
X0059026D01*
X0059081Y0004736D01*
Y0004514D01*
X0059026Y0004403D01*
X0058692D01*
X0058092D02*
Y0005069D01*
X0058037Y0004403D02*
X0058370D01*
X0058481Y0004514D01*
Y0004625D01*
X0058426Y0004736D01*
X0058092D02*
X0058426D01*
X0058481Y0004847D01*
Y0004958D01*
X0058370Y0005069D01*
X0058037D01*
X0057031Y0004403D02*
Y0004736D01*
X0056976Y0004847D01*
X0056643D01*
Y0004403D01*
X0056431D02*
X0056098D01*
X0056043Y0004514D01*
Y0004736D01*
X0056098Y0004847D01*
X0056431D01*
X0056487Y0004736D01*
Y0004625D01*
X0056043D01*
X0055831Y0004403D02*
X0055498D01*
X0055443Y0004514D01*
Y0004736D01*
X0055498Y0004847D01*
X0055831D01*
X0055887Y0004736D01*
Y0004625D01*
X0055443D01*
X0055287Y0004847D02*
X0055065D01*
X0055009Y0004736D01*
X0054898D01*
Y0004847D02*
Y0004403D01*
X0054743Y0004847D02*
X0054409D01*
X0054354Y0004736D01*
Y0004514D01*
X0054409Y0004403D01*
X0054743D01*
X0054143Y0004847D02*
X0053809D01*
X0053754Y0004736D01*
X0053809Y0004625D01*
X0054143D01*
X0054198Y0004514D01*
X0054143Y0004403D01*
X0053809D01*
X0053376Y0004625D02*
X0053265D01*
X0053598Y0004403D02*
X0053376Y0004625D01*
X0053598Y0004847D01*
X0053265Y0004403D02*
Y0005069D01*
X0053054Y0004403D02*
X0052832D01*
X0052943D02*
Y0005069D01*
X0052832D01*
X0052509D02*
Y0005070D01*
X0052510D01*
Y0005069D01*
X0052509D01*
X0052621Y0004403D02*
X0052398D01*
X0052510D02*
Y0004847D01*
X0052398D01*
X0052187Y0004958D02*
X0052132Y0005069D01*
X0051798D01*
X0051743Y0004958D01*
Y0004847D01*
X0051798Y0004736D01*
X0052132D01*
X0052187Y0004625D01*
Y0004514D01*
X0052132Y0004403D01*
X0051798D01*
X0051743Y0004514D01*
X0062658Y0013028D02*
X0062769Y0013250D01*
Y0013472D01*
X0062658Y0013694D01*
X0061947Y0013361D02*
X0062280D01*
X0062391Y0013472D01*
Y0013583D01*
X0062280Y0013694D01*
X0061947D01*
Y0013028D01*
X0061402D02*
X0061347Y0013139D01*
Y0013583D01*
X0061402Y0013694D01*
X0061736D01*
X0061791Y0013583D01*
Y0013139D01*
X0061736Y0013028D01*
X0061402D01*
X0060969D02*
Y0013694D01*
X0061191D02*
X0060747D01*
X0060591Y0013028D02*
X0060480Y0013250D01*
Y0013472D01*
X0060591Y0013694D01*
X0059252Y0013028D02*
X0059030D01*
X0059141D02*
Y0013694D01*
X0059030Y0013583D01*
X0057914Y0013472D02*
X0057691D01*
X0057636Y0013361D01*
X0057525D01*
Y0013472D02*
Y0013028D01*
X0057314D02*
X0056980D01*
X0056925Y0013139D01*
Y0013361D01*
X0056980Y0013472D01*
X0057314D01*
X0057369Y0013361D01*
Y0013250D01*
X0056925D01*
X0056769Y0013472D02*
X0056547Y0013028D01*
X0056436Y0012805D02*
X0056547Y0013028D01*
X0056325Y0013472D01*
X0055836D02*
X0056058D01*
X0056114Y0013361D01*
Y0013139D01*
X0056169Y0013028D01*
X0055780D01*
X0055725Y0013139D01*
X0055780Y0013250D01*
X0056114D01*
X0055569Y0013028D02*
X0055180D01*
Y0013694D01*
X0062394Y0009028D02*
X0062505Y0009250D01*
Y0009472D01*
X0062394Y0009694D01*
X0061905Y0009028D02*
Y0009694D01*
X0062127D02*
X0061683D01*
X0061138Y0009028D02*
X0061083Y0009139D01*
Y0009583D01*
X0061138Y0009694D01*
X0061472D01*
X0061527Y0009583D01*
Y0009139D01*
X0061472Y0009028D01*
X0061138D01*
X0060538D02*
Y0009694D01*
X0060483Y0009028D02*
X0060816D01*
X0060927Y0009139D01*
Y0009250D01*
X0060872Y0009361D01*
X0060538D02*
X0060872D01*
X0060927Y0009472D01*
Y0009583D01*
X0060816Y0009694D01*
X0060483D01*
X0060327Y0009028D02*
X0060216Y0009250D01*
Y0009472D01*
X0060327Y0009694D01*
X0058989Y0009028D02*
X0058544D01*
X0058989Y0009472D01*
Y0009583D01*
X0058933Y0009694D01*
X0058600D01*
X0058544Y0009583D01*
X0057539Y0009472D02*
X0057316D01*
X0057261Y0009361D01*
X0057150D01*
Y0009472D02*
Y0009028D01*
X0056939D02*
X0056605D01*
X0056550Y0009139D01*
Y0009361D01*
X0056605Y0009472D01*
X0056939D01*
X0056994Y0009361D01*
Y0009250D01*
X0056550D01*
X0056394Y0009472D02*
X0056172Y0009028D01*
X0056061Y0008805D02*
X0056172Y0009028D01*
X0055950Y0009472D01*
X0055461D02*
X0055683D01*
X0055739Y0009361D01*
Y0009139D01*
X0055794Y0009028D01*
X0055405D01*
X0055350Y0009139D01*
X0055405Y0009250D01*
X0055739D01*
X0055194Y0009028D02*
X0054805D01*
Y0009694D01*
X0060064Y0011236D02*
X0059730D01*
X0060175Y0010903D02*
X0059730D01*
Y0011569D01*
X0060175D01*
X0059408Y0011236D02*
X0059575Y0010903D01*
X0059130Y0011236D02*
X0059464D01*
X0059575Y0011347D01*
Y0011458D01*
X0059464Y0011569D01*
X0059130D01*
Y0010903D01*
X0058586D02*
X0058530Y0011014D01*
Y0011458D01*
X0058586Y0011569D01*
X0058919D01*
X0058975Y0011458D01*
Y0011014D01*
X0058919Y0010903D01*
X0058586D01*
X0058375Y0011014D02*
X0058319Y0010903D01*
X0057986D01*
X0057930Y0011014D01*
Y0011458D01*
X0057986Y0011569D01*
X0058319D01*
X0058375Y0011458D01*
X0084544Y0020720D02*
Y0020831D01*
X0084655D01*
Y0020720D01*
X0084544D01*
Y0020386D02*
Y0020498D01*
X0084655D01*
Y0020386D01*
X0084544D01*
X0084277Y0020942D02*
X0084222Y0021053D01*
X0083888D01*
X0083833Y0020942D01*
Y0020831D01*
X0083888Y0020720D01*
X0084222D01*
X0084277Y0020609D01*
Y0020498D01*
X0084222Y0020386D01*
X0083888D01*
X0083833Y0020498D01*
X0083566Y0020720D02*
X0083233D01*
X0083677Y0020386D02*
X0083233D01*
Y0021053D01*
X0083677D01*
X0082855Y0020386D02*
Y0021053D01*
X0083077D02*
X0082633D01*
X0082088Y0020386D02*
X0082033Y0020498D01*
Y0020942D01*
X0082088Y0021053D01*
X0082422D01*
X0082477Y0020942D01*
Y0020498D01*
X0082422Y0020386D01*
X0082088D01*
X0081877Y0021053D02*
Y0020386D01*
X0081766Y0020498D01*
X0081544Y0020942D01*
X0081433Y0021053D01*
Y0020386D01*
X0131746Y0017053D02*
X0131857D01*
Y0017164D01*
X0131746D01*
Y0017053D01*
X0131146Y0017498D02*
X0131368D01*
X0131424Y0017386D01*
Y0017164D01*
X0131480Y0017053D01*
X0131091D01*
X0131035Y0017164D01*
X0131091Y0017275D01*
X0131424D01*
X0130824Y0017498D02*
X0130491D01*
X0130880Y0017053D02*
X0130657D01*
X0130602Y0017164D01*
Y0017720D01*
X0130002Y0017498D02*
X0130224D01*
X0130280Y0017386D01*
Y0017164D01*
X0130335Y0017053D01*
X0129946D01*
X0129891Y0017164D01*
X0129946Y0017275D01*
X0130280D01*
X0129735Y0017720D02*
Y0017053D01*
X0129402D01*
X0129346Y0017164D01*
Y0017386D01*
X0129402Y0017498D01*
X0129735D01*
X0128341Y0017053D02*
X0128119D01*
X0128230D02*
Y0017720D01*
X0128119D01*
X0127908Y0017053D02*
X0127685D01*
X0127796D02*
Y0017720D01*
X0127685D01*
X0127363Y0017719D02*
Y0017720D01*
X0127364D01*
Y0017719D01*
X0127363D01*
X0127474Y0017053D02*
X0127252D01*
X0127363D02*
Y0017498D01*
X0127252D01*
X0127041D02*
X0126819D01*
X0126763Y0017386D01*
X0126652D01*
Y0017498D02*
Y0017053D01*
X0126497Y0017720D02*
Y0017053D01*
X0126163D01*
X0126108Y0017164D01*
Y0017386D01*
X0126163Y0017498D01*
X0126497D01*
X0125102Y0017720D02*
Y0017053D01*
X0124769D01*
X0124713Y0017164D01*
Y0017386D01*
X0124769Y0017498D01*
X0125102D01*
X0124558Y0017053D02*
Y0017386D01*
X0124502Y0017498D01*
X0124169D01*
Y0017053D01*
X0123680Y0017498D02*
X0123902D01*
X0123958Y0017386D01*
Y0017164D01*
X0124014Y0017053D01*
X0123625D01*
X0123569Y0017164D01*
X0123625Y0017275D01*
X0123958D01*
X0122564Y0017498D02*
X0122341D01*
X0122286Y0017386D01*
X0122175D01*
Y0017498D02*
Y0017053D01*
X0121964D02*
X0121630D01*
X0121575Y0017164D01*
Y0017386D01*
X0121630Y0017498D01*
X0121964D01*
X0122019Y0017386D01*
Y0017275D01*
X0121575D01*
X0121030Y0017498D02*
X0121364D01*
X0121419Y0017386D01*
Y0017164D01*
X0121364Y0017053D01*
X0121030D01*
Y0017720D01*
X0120875Y0017498D02*
X0120653D01*
X0120597Y0017386D01*
X0120486D01*
Y0017498D02*
Y0017053D01*
X0120275D02*
X0119942D01*
X0119886Y0017164D01*
Y0017386D01*
X0119942Y0017498D01*
X0120275D01*
X0120331Y0017386D01*
Y0017275D01*
X0119886D01*
X0119453Y0016831D02*
X0119675D01*
X0119731Y0016942D01*
Y0017498D01*
X0119397D01*
X0119342Y0017386D01*
Y0017164D01*
X0119397Y0017053D01*
X0119731D01*
X0118336Y0017720D02*
Y0017053D01*
X0118003D01*
X0117947Y0017164D01*
Y0017386D01*
X0118003Y0017498D01*
X0118336D01*
X0117736Y0017053D02*
X0117403D01*
X0117347Y0017164D01*
Y0017386D01*
X0117403Y0017498D01*
X0117736D01*
X0117792Y0017386D01*
Y0017275D01*
X0117347D01*
X0117192Y0017720D02*
Y0017053D01*
X0116859D01*
X0116803Y0017164D01*
Y0017386D01*
X0116859Y0017498D01*
X0117192D01*
X0116536Y0017719D02*
Y0017720D01*
X0116537D01*
Y0017719D01*
X0116536D01*
X0116648Y0017053D02*
X0116425D01*
X0116536D02*
Y0017498D01*
X0116425D01*
X0116214D02*
X0115992Y0017053D01*
X0115770Y0017498D01*
X0115225Y0017053D02*
X0115170Y0017164D01*
Y0017386D01*
X0115225Y0017498D01*
X0115559D01*
X0115614Y0017386D01*
Y0017164D01*
X0115559Y0017053D01*
X0115225D01*
X0115014Y0017498D02*
X0114792D01*
X0114737Y0017386D01*
X0114625D01*
Y0017498D02*
Y0017053D01*
X0114081Y0016831D02*
Y0017498D01*
X0114414D01*
X0114470Y0017386D01*
Y0017164D01*
X0114414Y0017053D01*
X0114081D01*
X0113020D02*
X0112687D01*
X0112631Y0017164D01*
Y0017386D01*
X0112687Y0017498D01*
X0113020D01*
X0113076Y0017386D01*
Y0017275D01*
X0112631D01*
X0112476Y0017053D02*
Y0017386D01*
X0112420Y0017498D01*
X0112087D01*
Y0017053D02*
Y0017720D01*
X0111876Y0017498D02*
X0111542D01*
X0111931Y0017053D02*
X0111709D01*
X0111654Y0017164D01*
Y0017720D01*
X0110537Y0017053D02*
Y0017386D01*
X0110481Y0017498D01*
X0110148D01*
Y0017053D02*
Y0017720D01*
X0109937Y0017498D02*
X0109604D01*
X0109993Y0017053D02*
X0109770D01*
X0109715Y0017164D01*
Y0017720D01*
X0109337Y0017719D02*
Y0017720D01*
X0109338D01*
Y0017719D01*
X0109337D01*
X0109448Y0017053D02*
X0109226D01*
X0109337D02*
Y0017498D01*
X0109226D01*
X0109015D02*
Y0017164D01*
X0108959Y0017053D01*
X0108793Y0017386D01*
X0108626Y0017053D01*
X0108570Y0017164D01*
Y0017498D01*
X0107565Y0017053D02*
Y0017386D01*
X0107509Y0017498D01*
X0107176D01*
Y0017053D01*
X0106632D02*
X0106576Y0017164D01*
Y0017386D01*
X0106632Y0017498D01*
X0106965D01*
X0107021Y0017386D01*
Y0017164D01*
X0106965Y0017053D01*
X0106632D01*
X0106309Y0017719D02*
Y0017720D01*
X0106310D01*
Y0017719D01*
X0106309D01*
X0106421Y0017053D02*
X0106198D01*
X0106309D02*
Y0017498D01*
X0106198D01*
X0105932D02*
X0105598D01*
X0105987Y0017053D02*
X0105765D01*
X0105710Y0017164D01*
Y0017720D01*
X0105443Y0017498D02*
X0105110D01*
X0105054Y0017386D01*
Y0017164D01*
X0105110Y0017053D01*
X0105443D01*
X0104899D02*
Y0017386D01*
X0104843Y0017498D01*
X0104510D01*
Y0017053D01*
X0104299Y0017498D02*
Y0017053D01*
X0104354D02*
X0103965D01*
X0103910Y0017164D01*
Y0017498D01*
X0103753Y0017719D02*
Y0017720D01*
X0103754D01*
Y0017719D01*
X0103753D01*
X0103476Y0016942D02*
X0103698D01*
X0103754Y0017053D01*
Y0017498D01*
X0103643D01*
X0103265Y0017053D02*
Y0017386D01*
X0103209Y0017498D01*
X0102876D01*
Y0017053D01*
X0102332D02*
X0102276Y0017164D01*
Y0017386D01*
X0102332Y0017498D01*
X0102665D01*
X0102721Y0017386D01*
Y0017164D01*
X0102665Y0017053D01*
X0102332D01*
X0102121Y0017498D02*
X0101787D01*
X0101732Y0017386D01*
Y0017164D01*
X0101787Y0017053D01*
X0102121D01*
X0100726D02*
Y0017386D01*
X0100671Y0017498D01*
X0100337D01*
Y0017053D01*
X0100070Y0017719D02*
Y0017720D01*
X0100071D01*
Y0017719D01*
X0100070D01*
X0100182Y0017053D02*
X0099960D01*
X0100071D02*
Y0017498D01*
X0099960D01*
X0098899Y0017720D02*
Y0017053D01*
X0098565D01*
X0098510Y0017164D01*
Y0017386D01*
X0098565Y0017498D01*
X0098899D01*
X0098299Y0017053D02*
X0097965D01*
X0097910Y0017164D01*
Y0017386D01*
X0097965Y0017498D01*
X0098299D01*
X0098354Y0017386D01*
Y0017275D01*
X0097910D01*
X0097699Y0017498D02*
X0097365D01*
X0097310Y0017386D01*
X0097365Y0017275D01*
X0097699D01*
X0097754Y0017164D01*
X0097699Y0017053D01*
X0097365D01*
X0097099Y0017498D02*
Y0017053D01*
X0097154D02*
X0096765D01*
X0096710Y0017164D01*
Y0017498D01*
X0095649Y0017053D02*
X0095315D01*
X0095260Y0017164D01*
Y0017386D01*
X0095315Y0017498D01*
X0095649D01*
X0095704Y0017386D01*
Y0017275D01*
X0095260D01*
X0094715Y0017498D02*
X0095049D01*
X0095104Y0017386D01*
Y0017164D01*
X0095049Y0017053D01*
X0094715D01*
Y0017720D01*
X0093321Y0017053D02*
X0093265Y0017164D01*
Y0017386D01*
X0093321Y0017498D01*
X0093654D01*
X0093710Y0017386D01*
Y0017164D01*
X0093654Y0017053D01*
X0093321D01*
X0093054Y0017498D02*
X0092721D01*
X0093110Y0017053D02*
X0092888D01*
X0092832Y0017164D01*
Y0017720D01*
X0091660Y0017498D02*
X0091327D01*
X0091271Y0017386D01*
X0091327Y0017275D01*
X0091660D01*
X0091716Y0017164D01*
X0091660Y0017053D01*
X0091327D01*
X0091004Y0017719D02*
Y0017720D01*
X0091005D01*
Y0017719D01*
X0091004D01*
X0091116Y0017053D02*
X0090893D01*
X0091004D02*
Y0017498D01*
X0090893D01*
X0089555Y0016831D02*
X0089777D01*
X0089832Y0016942D01*
Y0017498D01*
X0089499D01*
X0089443Y0017386D01*
Y0017164D01*
X0089499Y0017053D01*
X0089832D01*
X0089288D02*
Y0017386D01*
X0089232Y0017498D01*
X0088899D01*
Y0017053D01*
X0088632Y0017719D02*
Y0017720D01*
X0088633D01*
Y0017719D01*
X0088632D01*
X0088744Y0017053D02*
X0088521D01*
X0088632D02*
Y0017498D01*
X0088521D01*
X0088310D02*
Y0017164D01*
X0088255Y0017053D01*
X0088088Y0017386D01*
X0087921Y0017053D01*
X0087866Y0017164D01*
Y0017498D01*
X0087377D02*
X0087599D01*
X0087655Y0017386D01*
Y0017164D01*
X0087710Y0017053D01*
X0087321D01*
X0087266Y0017164D01*
X0087321Y0017275D01*
X0087655D01*
X0087110Y0017498D02*
X0086888D01*
X0086833Y0017386D01*
X0086721D01*
Y0017498D02*
Y0017053D01*
X0086566Y0017720D02*
Y0017053D01*
X0086233D01*
X0086177Y0017164D01*
Y0017386D01*
X0086233Y0017498D01*
X0086566D01*
X0085116D02*
X0084783D01*
X0084727Y0017386D01*
X0084783Y0017275D01*
X0085116D01*
X0085172Y0017164D01*
X0085116Y0017053D01*
X0084783D01*
X0084460Y0017719D02*
Y0017720D01*
X0084461D01*
Y0017719D01*
X0084460D01*
X0084572Y0017053D02*
X0084349D01*
X0084460D02*
Y0017498D01*
X0084349D01*
X0084138Y0017053D02*
Y0017386D01*
X0084083Y0017498D01*
X0083749D01*
Y0017053D02*
Y0017720D01*
X0083372Y0017053D02*
Y0017720D01*
X0083594D02*
X0083149D01*
X0082033Y0017053D02*
X0082144D01*
Y0017164D01*
X0082033D01*
Y0017053D01*
X0081766D02*
X0081544D01*
X0081655D02*
Y0017720D01*
X0081544Y0017609D01*
X0091366Y0015609D02*
X0090921D01*
X0091144Y0016053D01*
X0091255D01*
Y0015386D01*
X0090766Y0015720D02*
X0090321D01*
X0089999D02*
X0090166Y0015386D01*
X0089721Y0015720D02*
X0090055D01*
X0090166Y0015831D01*
Y0015942D01*
X0090055Y0016053D01*
X0089721D01*
Y0015386D01*
X0089455Y0015720D02*
X0089121D01*
Y0015386D02*
Y0016053D01*
X0089566D01*
X0088005Y0015720D02*
Y0015831D01*
X0088116D01*
Y0015720D01*
X0088005D01*
Y0015386D02*
Y0015498D01*
X0088116D01*
Y0015386D01*
X0088005D01*
X0087738D02*
X0087349D01*
Y0016053D01*
X0087194Y0015609D02*
X0086749D01*
X0087194Y0015386D02*
Y0015720D01*
X0087027Y0016053D01*
X0086916D01*
X0086749Y0015720D01*
Y0015386D01*
X0086594D02*
X0086372D01*
X0086483D02*
Y0016053D01*
X0086594D02*
X0086372D01*
X0085938Y0015720D02*
X0086105Y0015386D01*
X0085661Y0015720D02*
X0085994D01*
X0086105Y0015831D01*
Y0015942D01*
X0085994Y0016053D01*
X0085661D01*
Y0015386D01*
X0085394Y0015720D02*
X0085061D01*
X0085505Y0015386D02*
X0085061D01*
Y0016053D01*
X0085505D01*
X0084683Y0015386D02*
Y0016053D01*
X0084905D02*
X0084461D01*
X0084305Y0015609D02*
X0083861D01*
X0084305Y0015386D02*
Y0015720D01*
X0084138Y0016053D01*
X0084027D01*
X0083861Y0015720D01*
Y0015386D01*
X0083705D02*
Y0016053D01*
X0083594Y0015942D01*
X0083483Y0015720D01*
X0083372Y0015942D01*
X0083261Y0016053D01*
Y0015386D01*
X0082144D02*
X0082255D01*
Y0015498D01*
X0082144D01*
Y0015386D01*
X0081877D02*
X0081433D01*
X0081877Y0015831D01*
Y0015942D01*
X0081822Y0016053D01*
X0081488D01*
X0081433Y0015942D01*
X0098316Y0014164D02*
Y0014386D01*
X0098094Y0014164D02*
Y0014386D01*
X0097382Y0013831D02*
X0097494Y0013720D01*
X0097716D01*
X0097827Y0013831D01*
Y0013942D01*
X0097605Y0014164D01*
X0097827Y0014386D01*
X0097382D01*
X0096838Y0014053D02*
X0097171D01*
X0097227Y0013942D01*
Y0013831D01*
X0097171Y0013720D01*
X0096838D01*
X0096782Y0013831D01*
Y0013942D01*
X0097005Y0014386D01*
X0096349Y0013720D02*
X0096238Y0013831D01*
X0096182Y0013942D01*
Y0014164D01*
X0096238Y0014275D01*
X0096349Y0014386D01*
X0096460D01*
X0096571Y0014275D01*
X0096627Y0014164D01*
Y0013942D01*
X0096571Y0013831D01*
X0096460Y0013720D01*
X0096349D01*
X0095916D02*
X0096027D01*
Y0013831D01*
X0095916D01*
Y0013720D01*
X0095371D02*
X0095260Y0013831D01*
X0095205Y0013942D01*
Y0014164D01*
X0095260Y0014275D01*
X0095371Y0014386D01*
X0095483D01*
X0095594Y0014275D01*
X0095649Y0014164D01*
Y0013942D01*
X0095594Y0013831D01*
X0095483Y0013720D01*
X0095371D01*
X0094088Y0014053D02*
Y0014164D01*
X0094199D01*
Y0014053D01*
X0094088D01*
Y0013720D02*
Y0013831D01*
X0094199D01*
Y0013720D01*
X0094088D01*
X0093822Y0014275D02*
X0093766Y0014386D01*
X0093433D01*
X0093377Y0014275D01*
Y0014164D01*
X0093433Y0014053D01*
X0093766D01*
X0093822Y0013942D01*
Y0013831D01*
X0093766Y0013720D01*
X0093433D01*
X0093377Y0013831D01*
X0093222Y0014275D02*
X0093166Y0014386D01*
X0092833D01*
X0092777Y0014275D01*
Y0014164D01*
X0092833Y0014053D01*
X0093166D01*
X0093222Y0013942D01*
Y0013831D01*
X0093166Y0013720D01*
X0092833D01*
X0092777Y0013831D01*
X0092510Y0014053D02*
X0092177D01*
X0092622Y0013720D02*
X0092177D01*
Y0014386D01*
X0092622D01*
X0092022D02*
Y0013720D01*
X0091910Y0013831D01*
X0091688Y0014275D01*
X0091577Y0014386D01*
Y0013720D01*
X0091422D02*
X0091088Y0014053D01*
X0091422Y0014386D01*
X0090977D02*
Y0013720D01*
X0090822Y0013831D02*
X0090766Y0013720D01*
X0090433D01*
X0090377Y0013831D01*
Y0014275D01*
X0090433Y0014386D01*
X0090766D01*
X0090822Y0014275D01*
X0090222Y0013720D02*
X0089999D01*
X0090110D02*
Y0014386D01*
X0090222D02*
X0089999D01*
X0089733Y0014053D02*
X0089288D01*
X0089733Y0013720D02*
Y0014386D01*
X0089288Y0013720D02*
Y0014386D01*
X0088910Y0013720D02*
Y0014386D01*
X0089133D02*
X0088688D01*
X0087294Y0013720D02*
Y0014386D01*
X0087238Y0013720D02*
X0087572D01*
X0087683Y0013942D01*
Y0014164D01*
X0087572Y0014386D01*
X0087238D01*
X0086972Y0014053D02*
X0086638D01*
X0087083Y0013720D02*
X0086638D01*
Y0014386D01*
X0087083D01*
X0086483Y0014053D02*
X0086038D01*
X0086483Y0013720D02*
Y0014386D01*
X0086038Y0013720D02*
Y0014386D01*
X0085883Y0014275D02*
X0085827Y0014386D01*
X0085494D01*
X0085438Y0014275D01*
Y0014164D01*
X0085494Y0014053D01*
X0085827D01*
X0085883Y0013942D01*
Y0013831D01*
X0085827Y0013720D01*
X0085494D01*
X0085438Y0013831D01*
X0085283Y0013720D02*
X0085061D01*
X0085172D02*
Y0014386D01*
X0085283D02*
X0085061D01*
X0084794D02*
Y0013720D01*
X0084683Y0013831D01*
X0084461Y0014275D01*
X0084349Y0014386D01*
Y0013720D01*
X0084194D02*
X0083972D01*
X0084083D02*
Y0014386D01*
X0084194D02*
X0083972D01*
X0083594Y0014053D02*
X0083261D01*
Y0013720D02*
Y0014386D01*
X0083705D01*
X0082144Y0013720D02*
X0082255D01*
Y0013831D01*
X0082144D01*
Y0013720D01*
X0081433Y0013831D02*
X0081544Y0013720D01*
X0081766D01*
X0081877Y0013831D01*
Y0013942D01*
X0081655Y0014164D01*
X0081877Y0014386D01*
X0081433D01*
X0096027Y0012053D02*
X0096138D01*
Y0012164D01*
X0096027D01*
Y0012053D01*
X0095760D02*
X0095427D01*
X0095483Y0012164D01*
X0095705Y0012386D01*
X0095760Y0012498D01*
X0095427D01*
X0094883Y0012053D02*
X0094827Y0012164D01*
Y0012386D01*
X0094883Y0012498D01*
X0095216D01*
X0095272Y0012386D01*
Y0012164D01*
X0095216Y0012053D01*
X0094883D01*
X0094672D02*
X0094227D01*
X0094672Y0012498D01*
Y0012609D01*
X0094616Y0012720D01*
X0094283D01*
X0094227Y0012609D01*
X0093111Y0012386D02*
Y0012498D01*
X0093222D01*
Y0012386D01*
X0093111D01*
Y0012053D02*
Y0012164D01*
X0093222D01*
Y0012053D01*
X0093111D01*
X0092844Y0012609D02*
X0092788Y0012720D01*
X0092455D01*
X0092399Y0012609D01*
Y0012498D01*
X0092455Y0012386D01*
X0092788D01*
X0092844Y0012275D01*
Y0012164D01*
X0092788Y0012053D01*
X0092455D01*
X0092399Y0012164D01*
X0092244Y0012609D02*
X0092188Y0012720D01*
X0091855D01*
X0091799Y0012609D01*
Y0012498D01*
X0091855Y0012386D01*
X0092188D01*
X0092244Y0012275D01*
Y0012164D01*
X0092188Y0012053D01*
X0091855D01*
X0091799Y0012164D01*
X0091533Y0012386D02*
X0091199D01*
X0091644Y0012053D02*
X0091199D01*
Y0012720D01*
X0091644D01*
X0091044D02*
Y0012053D01*
X0090933Y0012164D01*
X0090711Y0012609D01*
X0090599Y0012720D01*
Y0012053D01*
X0090444D02*
X0090111Y0012386D01*
X0090444Y0012720D01*
X0089999D02*
Y0012053D01*
X0089844Y0012164D02*
X0089788Y0012053D01*
X0089455D01*
X0089399Y0012164D01*
Y0012609D01*
X0089455Y0012720D01*
X0089788D01*
X0089844Y0012609D01*
X0089244Y0012053D02*
X0089022D01*
X0089133D02*
Y0012720D01*
X0089244D02*
X0089022D01*
X0088755Y0012386D02*
X0088311D01*
X0088755Y0012053D02*
Y0012720D01*
X0088311Y0012053D02*
Y0012720D01*
X0087933Y0012053D02*
Y0012720D01*
X0088155D02*
X0087711D01*
X0086538Y0012386D02*
X0086705Y0012053D01*
X0086261Y0012386D02*
X0086594D01*
X0086705Y0012498D01*
Y0012609D01*
X0086594Y0012720D01*
X0086261D01*
Y0012053D01*
X0085994Y0012386D02*
X0085661D01*
X0086105Y0012053D02*
X0085661D01*
Y0012720D01*
X0086105D01*
X0085061Y0012386D02*
X0085394D01*
X0085505Y0012498D01*
Y0012609D01*
X0085394Y0012720D01*
X0085061D01*
Y0012053D01*
X0084461Y0012386D02*
X0084794D01*
X0084905Y0012498D01*
Y0012609D01*
X0084794Y0012720D01*
X0084461D01*
Y0012053D01*
X0083916D02*
X0083861Y0012164D01*
Y0012609D01*
X0083916Y0012720D01*
X0084249D01*
X0084305Y0012609D01*
Y0012164D01*
X0084249Y0012053D01*
X0083916D01*
X0083705Y0012164D02*
X0083649Y0012053D01*
X0083316D01*
X0083261Y0012164D01*
Y0012609D01*
X0083316Y0012720D01*
X0083649D01*
X0083705Y0012609D01*
X0082144Y0012053D02*
X0082255D01*
Y0012164D01*
X0082144D01*
Y0012053D01*
X0081877Y0012275D02*
X0081433D01*
X0081655Y0012720D01*
X0081766D01*
Y0012053D01*
X0095077Y0010386D02*
X0094743D01*
X0094688Y0010498D01*
Y0010720D01*
X0094743Y0010831D01*
X0095077D01*
X0095132Y0010720D01*
Y0010609D01*
X0094688D01*
X0094477Y0010386D02*
X0094143D01*
X0094088Y0010498D01*
Y0010720D01*
X0094143Y0010831D01*
X0094477D01*
X0094532Y0010720D01*
Y0010609D01*
X0094088D01*
X0093932Y0010831D02*
X0093710D01*
X0093655Y0010720D01*
X0093543D01*
Y0010831D02*
Y0010386D01*
X0093388Y0010720D02*
X0093055D01*
X0093221Y0010386D02*
Y0010942D01*
X0093277Y0011053D01*
X0093388D01*
X0091660Y0010831D02*
X0091994D01*
X0092049Y0010720D01*
Y0010498D01*
X0091994Y0010386D01*
X0091660D01*
Y0011053D01*
X0091060Y0010720D02*
X0091394D01*
X0091505Y0010831D01*
Y0010942D01*
X0091394Y0011053D01*
X0091060D01*
Y0010386D01*
X0090055D02*
X0089666D01*
Y0011053D01*
X0089510Y0010942D02*
X0089455Y0011053D01*
X0089121D01*
X0089066Y0010942D01*
Y0010831D01*
X0089121Y0010720D01*
X0089455D01*
X0089510Y0010609D01*
Y0010498D01*
X0089455Y0010386D01*
X0089121D01*
X0089066Y0010498D01*
X0088910Y0010609D02*
X0088466D01*
X0088910Y0010386D02*
Y0010720D01*
X0088744Y0011053D01*
X0088633D01*
X0088466Y0010720D01*
Y0010386D01*
X0088310Y0010720D02*
X0087866D01*
X0088310Y0010386D02*
Y0011053D01*
X0087866Y0010386D02*
Y0011053D01*
X0086749Y0010720D02*
Y0010831D01*
X0086860D01*
Y0010720D01*
X0086749D01*
Y0010386D02*
Y0010498D01*
X0086860D01*
Y0010386D01*
X0086749D01*
X0086483Y0010720D02*
X0086038D01*
X0086483Y0010386D02*
Y0011053D01*
X0086038Y0010386D02*
Y0011053D01*
X0085883Y0010942D02*
X0085827Y0011053D01*
X0085494D01*
X0085438Y0010942D01*
Y0010831D01*
X0085494Y0010720D01*
X0085827D01*
X0085883Y0010609D01*
Y0010498D01*
X0085827Y0010386D01*
X0085494D01*
X0085438Y0010498D01*
X0085283Y0010386D02*
X0085061D01*
X0085172D02*
Y0011053D01*
X0085283D02*
X0085061D01*
X0084794D02*
Y0010386D01*
X0084683Y0010498D01*
X0084461Y0010942D01*
X0084349Y0011053D01*
Y0010386D01*
X0084194D02*
X0083972D01*
X0084083D02*
Y0011053D01*
X0084194D02*
X0083972D01*
X0083594Y0010720D02*
X0083261D01*
Y0010386D02*
Y0011053D01*
X0083705D01*
X0082144Y0010386D02*
X0082255D01*
Y0010498D01*
X0082144D01*
Y0010386D01*
X0081433Y0010498D02*
X0081488Y0010386D01*
X0081822D01*
X0081877Y0010498D01*
Y0010720D01*
X0081766Y0010831D01*
X0081433D01*
Y0011053D01*
X0081877D01*
M02*
