%
T1C0.0120F200S100
X000750Y012000
X000875Y004875
X000875Y018125
X002875Y002625
X003750Y008250
X004375Y009375
X004375Y015125
X004625Y018125
X004875Y016000
X005000Y010375
X005375Y022375
X005500Y012375
X005625Y000750
X005750Y008250
X006125Y006500
X006250Y010875
X007250Y017000
X007750Y013250
X009500Y008125
X009750Y013250
X010125Y009500
X010250Y000750
X010500Y006000
X011000Y012000
X011875Y008500
X012625Y023000
X014000Y013625
X015500Y000750
X016375Y014125
X016625Y010750
X016375Y018375
X016375Y018875
X018375Y016125
X018375Y016875
X018375Y023000
X018500Y000750
X018625Y003875
X018750Y002815
X018625Y008125
X019000Y015125
X019250Y017250
X019625Y005250
X020000Y006875
X020125Y011750
X020375Y002250
X020375Y006875
X020375Y014250
X020375Y018875
X020625Y014250
X020625Y018875
X024000Y006750
X024000Y014375
X024000Y018625
X024250Y002250
X025500Y004750
X025625Y016750
X027125Y015625
X028500Y017625
X029625Y004250
X029625Y006250
X029625Y016000
X029625Y018000
X029875Y004250
X030125Y004250
X030125Y006250
X029875Y006250
X029875Y016000
X030125Y016000
X030125Y018000
X029875Y018000
X030750Y004750
X030750Y005750
X030750Y016500
X030875Y017000
X030750Y017500
X031125Y005250
X031250Y004750
X031250Y005750
X031250Y016500
X031250Y017500
X031625Y007625
X031625Y008125
X031625Y008625
X031625Y015500
X031750Y018000
X031875Y004125
X031875Y006375
X031875Y015500
X032000Y018000
X032125Y004125
X032125Y006375
X032125Y015500
X032250Y018000
X032375Y004125
X032375Y006375
X032750Y016250
X032875Y017250
X033000Y016250
X033250Y016250
X033875Y004000
T2C0.0280F200S100
X019750Y010250
X020750Y010250
X020750Y022000
X019750Y022000
X023750Y010250
X024750Y010250
X024750Y022000
X023750Y022000
X025750Y010250
X025750Y022000
T5C0.0420F200S100
X001500Y007375
X001500Y008375
X001500Y009375
X001500Y010375
X001500Y011375
X001500Y012375
X001500Y013375
X001500Y014375
X001500Y015375
X001500Y016375
X002500Y007375
X002500Y008375
X002500Y009375
X002500Y010375
X002500Y011375
X002500Y012375
X002500Y013375
X002500Y014375
X002500Y015375
X002500Y016375
T8C0.1160F200S100
X001900Y003875
X001900Y019875
T4C0.0360F200S100
X007250Y019750
X008500Y019750
X011875Y002000
X011875Y003750
X015000Y016625
X015000Y017875
X015000Y019625
X015000Y020875
X016250Y008750
X017750Y008750
X037500Y013750
X037625Y005500
X037625Y009750
X037625Y018000
T7C0.0670F200S100
X036875Y006620
X038315Y006620
X038315Y008983
X036875Y008983
X036875Y014888
X038315Y014888
X038315Y017250
X036875Y017250
T3C0.0300F200S100
X029000Y000750
X033000Y000750
X033000Y023000
X029000Y023000
T6C0.0520F200S100
X038125Y001000
X038125Y022750
M30
