G04 #@! TF.GenerationSoftware,KiCad,Pcbnew,no-vcs-found-c6d0075~61~ubuntu17.10.1*
G04 #@! TF.CreationDate,2018-02-01T09:34:47-05:00*
G04 #@! TF.ProjectId,ENNOID Dual Gate Driver,454E4E4F4944204475616C2047617465,rev?*
G04 #@! TF.SameCoordinates,Original*
G04 #@! TF.FileFunction,Legend,Top*
G04 #@! TF.FilePolarity,Positive*
%FSLAX46Y46*%
G04 Gerber Fmt 4.6, Leading zero omitted, Abs format (unit mm)*
G04 Created by KiCad (PCBNEW no-vcs-found-c6d0075~61~ubuntu17.10.1) date Thu Feb  1 09:34:47 2018*
%MOMM*%
%LPD*%
G01*
G04 APERTURE LIST*
%ADD10C,0.200000*%
%ADD11C,0.120000*%
%ADD12C,0.150000*%
%ADD13C,0.100000*%
G04 APERTURE END LIST*
D10*
X22363180Y-82595980D02*
X22029847Y-82119790D01*
X21791752Y-82595980D02*
X21791752Y-81595980D01*
X22172704Y-81595980D01*
X22267942Y-81643600D01*
X22315561Y-81691219D01*
X22363180Y-81786457D01*
X22363180Y-81929314D01*
X22315561Y-82024552D01*
X22267942Y-82072171D01*
X22172704Y-82119790D01*
X21791752Y-82119790D01*
X22744133Y-82548361D02*
X22886990Y-82595980D01*
X23125085Y-82595980D01*
X23220323Y-82548361D01*
X23267942Y-82500742D01*
X23315561Y-82405504D01*
X23315561Y-82310266D01*
X23267942Y-82215028D01*
X23220323Y-82167409D01*
X23125085Y-82119790D01*
X22934609Y-82072171D01*
X22839371Y-82024552D01*
X22791752Y-81976933D01*
X22744133Y-81881695D01*
X22744133Y-81786457D01*
X22791752Y-81691219D01*
X22839371Y-81643600D01*
X22934609Y-81595980D01*
X23172704Y-81595980D01*
X23315561Y-81643600D01*
X23601276Y-81595980D02*
X24172704Y-81595980D01*
X23886990Y-82595980D02*
X23886990Y-81595980D01*
X13301742Y-82072171D02*
X12968409Y-82072171D01*
X12968409Y-82595980D02*
X12968409Y-81595980D01*
X13444600Y-81595980D01*
X14301742Y-82595980D02*
X13825552Y-82595980D01*
X13825552Y-81595980D01*
X14492219Y-81595980D02*
X15063647Y-81595980D01*
X14777933Y-82595980D02*
X14777933Y-81595980D01*
X26842980Y-64169847D02*
X26366790Y-64503180D01*
X26842980Y-64741276D02*
X25842980Y-64741276D01*
X25842980Y-64360323D01*
X25890600Y-64265085D01*
X25938219Y-64217466D01*
X26033457Y-64169847D01*
X26176314Y-64169847D01*
X26271552Y-64217466D01*
X26319171Y-64265085D01*
X26366790Y-64360323D01*
X26366790Y-64741276D01*
X26842980Y-63741276D02*
X25842980Y-63741276D01*
X25842980Y-63503180D01*
X25890600Y-63360323D01*
X25985838Y-63265085D01*
X26081076Y-63217466D01*
X26271552Y-63169847D01*
X26414409Y-63169847D01*
X26604885Y-63217466D01*
X26700123Y-63265085D01*
X26795361Y-63360323D01*
X26842980Y-63503180D01*
X26842980Y-63741276D01*
X26366790Y-62550800D02*
X26842980Y-62550800D01*
X25842980Y-62884133D02*
X26366790Y-62550800D01*
X25842980Y-62217466D01*
D11*
X50211400Y-24582400D02*
X50211400Y-23082400D01*
X50211400Y-23082400D02*
X49941400Y-23082400D01*
X49941400Y-23082400D02*
X49941400Y-20252400D01*
X43311400Y-24582400D02*
X43311400Y-23082400D01*
X43311400Y-23082400D02*
X43581400Y-23082400D01*
X43581400Y-23082400D02*
X43581400Y-21982400D01*
X47437600Y-64329200D02*
X46237600Y-64329200D01*
X46237600Y-62569200D02*
X47437600Y-62569200D01*
X18201200Y-60817000D02*
X18201200Y-58817000D01*
X18201200Y-58817000D02*
X14301200Y-58817000D01*
X18201200Y-60817000D02*
X14301200Y-60817000D01*
D12*
X19507400Y-94018100D02*
X18907400Y-94618100D01*
X18907400Y-93418100D02*
X19507400Y-94018100D01*
X18907400Y-94618100D02*
X18907400Y-93418100D01*
X18457400Y-88178100D02*
X18957400Y-88178100D01*
X18957400Y-88078100D02*
X18957400Y-88278100D01*
X18457400Y-88078100D02*
X18957400Y-88078100D01*
X18457400Y-88278100D02*
X18457400Y-88078100D01*
X41037400Y-88178100D02*
X41537400Y-88178100D01*
X41537400Y-88078100D02*
X41537400Y-88278100D01*
X41037400Y-88078100D02*
X41537400Y-88078100D01*
X41037400Y-88278100D02*
X41037400Y-88078100D01*
X29747400Y-88178100D02*
X30247400Y-88178100D01*
X30247400Y-88078100D02*
X30247400Y-88278100D01*
X29747400Y-88078100D02*
X30247400Y-88078100D01*
X29747400Y-88278100D02*
X29747400Y-88078100D01*
X32222400Y-95918100D02*
X32222400Y-97218100D01*
X42757400Y-95918100D02*
X32222400Y-95918100D01*
X42757400Y-89578100D02*
X42757400Y-95918100D01*
X17237400Y-89578100D02*
X42757400Y-89578100D01*
X17237400Y-95918100D02*
X17237400Y-89578100D01*
X27772400Y-95918100D02*
X17237400Y-95918100D01*
X27772400Y-97218100D02*
X27772400Y-95918100D01*
X43957400Y-97218100D02*
X16037400Y-97218100D01*
X43957400Y-88278100D02*
X43957400Y-97218100D01*
X16037400Y-88278100D02*
X43957400Y-88278100D01*
X16037400Y-97218100D02*
X16037400Y-88278100D01*
D11*
X49495200Y-74098600D02*
X51495200Y-74098600D01*
X51495200Y-71138600D02*
X49495200Y-71138600D01*
X50004600Y-74308600D02*
X49004600Y-74308600D01*
X49004600Y-76008600D02*
X50004600Y-76008600D01*
X54348000Y-83998700D02*
X53348000Y-83998700D01*
X53348000Y-85698700D02*
X54348000Y-85698700D01*
X53348000Y-87692600D02*
X54348000Y-87692600D01*
X54348000Y-85992600D02*
X53348000Y-85992600D01*
X23410800Y-58713000D02*
X22410800Y-58713000D01*
X22410800Y-60413000D02*
X23410800Y-60413000D01*
X16984600Y-42406200D02*
X15984600Y-42406200D01*
X15984600Y-44106200D02*
X16984600Y-44106200D01*
X15984600Y-46036600D02*
X16984600Y-46036600D01*
X16984600Y-44336600D02*
X15984600Y-44336600D01*
X2756800Y-36558600D02*
X2756800Y-37558600D01*
X4456800Y-37558600D02*
X4456800Y-36558600D01*
X56751600Y-60387600D02*
X57751600Y-60387600D01*
X57751600Y-58687600D02*
X56751600Y-58687600D01*
X50096800Y-46036600D02*
X51096800Y-46036600D01*
X51096800Y-44336600D02*
X50096800Y-44336600D01*
X34530400Y-43427600D02*
X34530400Y-42427600D01*
X32830400Y-42427600D02*
X32830400Y-43427600D01*
X54322600Y-87923000D02*
X53322600Y-87923000D01*
X53322600Y-89623000D02*
X54322600Y-89623000D01*
X48023400Y-85205200D02*
X47023400Y-85205200D01*
X47023400Y-86905200D02*
X48023400Y-86905200D01*
X14134800Y-96634200D02*
X14754800Y-96634200D01*
X14134800Y-95034200D02*
X14134800Y-96634200D01*
X14754800Y-95034200D02*
X14134800Y-95034200D01*
X14134800Y-94094200D02*
X14754800Y-94094200D01*
X14134800Y-92494200D02*
X14134800Y-94094200D01*
X14754800Y-92494200D02*
X14134800Y-92494200D01*
X14134800Y-91554200D02*
X14754800Y-91554200D01*
X14134800Y-89954200D02*
X14134800Y-91554200D01*
X14754800Y-89954200D02*
X14134800Y-89954200D01*
X14134800Y-89014200D02*
X14754800Y-89014200D01*
X14134800Y-87414200D02*
X14134800Y-89014200D01*
X14754800Y-87414200D02*
X14134800Y-87414200D01*
X8754800Y-95584200D02*
X9754800Y-95584200D01*
X8754800Y-88464200D02*
X9754800Y-88464200D01*
X10184800Y-95584200D02*
X9754800Y-95834200D01*
X10184800Y-88464200D02*
X10184800Y-95584200D01*
X9754800Y-88214200D02*
X10184800Y-88464200D01*
X9754800Y-95834200D02*
X8754800Y-95834200D01*
X9754800Y-88214200D02*
X9754800Y-95834200D01*
X8754800Y-88214200D02*
X9754800Y-88214200D01*
X14754800Y-97204200D02*
X14754800Y-86844200D01*
X8754800Y-97204200D02*
X14754800Y-97204200D01*
X8754800Y-86844200D02*
X8754800Y-97204200D01*
X14754800Y-86844200D02*
X8754800Y-86844200D01*
X50583800Y-96583400D02*
X51203800Y-96583400D01*
X50583800Y-94983400D02*
X50583800Y-96583400D01*
X51203800Y-94983400D02*
X50583800Y-94983400D01*
X50583800Y-94043400D02*
X51203800Y-94043400D01*
X50583800Y-92443400D02*
X50583800Y-94043400D01*
X51203800Y-92443400D02*
X50583800Y-92443400D01*
X45203800Y-95533400D02*
X46203800Y-95533400D01*
X45203800Y-93493400D02*
X46203800Y-93493400D01*
X46633800Y-95533400D02*
X46203800Y-95783400D01*
X46633800Y-93493400D02*
X46633800Y-95533400D01*
X46203800Y-93243400D02*
X46633800Y-93493400D01*
X46203800Y-95783400D02*
X45203800Y-95783400D01*
X46203800Y-93243400D02*
X46203800Y-95783400D01*
X45203800Y-93243400D02*
X46203800Y-93243400D01*
X51203800Y-97153400D02*
X51203800Y-91873400D01*
X45203800Y-97153400D02*
X51203800Y-97153400D01*
X45203800Y-91873400D02*
X45203800Y-97153400D01*
X51203800Y-91873400D02*
X45203800Y-91873400D01*
X2651200Y-30412800D02*
X3851200Y-30412800D01*
X3851200Y-32172800D02*
X2651200Y-32172800D01*
X31969000Y-31715600D02*
X30769000Y-31715600D01*
X30769000Y-29955600D02*
X31969000Y-29955600D01*
X32565800Y-42327600D02*
X32565800Y-43527600D01*
X30805800Y-43527600D02*
X30805800Y-42327600D01*
X46923400Y-89544000D02*
X48123400Y-89544000D01*
X48123400Y-91304000D02*
X46923400Y-91304000D01*
X46923400Y-87359600D02*
X48123400Y-87359600D01*
X48123400Y-89119600D02*
X46923400Y-89119600D01*
X23963400Y-81153800D02*
X20763400Y-81153800D01*
X20763400Y-79653800D02*
X23963400Y-79653800D01*
X20763400Y-79653800D02*
X20763400Y-81153800D01*
X16132605Y-81202572D02*
X16132605Y-79702572D01*
X16132605Y-81202572D02*
X12932605Y-81202572D01*
X12932605Y-79702572D02*
X16132605Y-79702572D01*
X42383600Y-84490000D02*
X42383600Y-85690000D01*
X40623600Y-85690000D02*
X40623600Y-84490000D01*
D12*
X22253200Y-49052600D02*
X22253200Y-47527600D01*
X11878200Y-49052600D02*
X11878200Y-56802600D01*
X22528200Y-49052600D02*
X22528200Y-56802600D01*
X11878200Y-49052600D02*
X12233200Y-49052600D01*
X11878200Y-56802600D02*
X12233200Y-56802600D01*
X22528200Y-56802600D02*
X22173200Y-56802600D01*
X22528200Y-49052600D02*
X22253200Y-49052600D01*
D11*
X28588000Y-49377600D02*
X27888000Y-49377600D01*
X27888000Y-49377600D02*
X27888000Y-56427600D01*
X27888000Y-56427600D02*
X28638000Y-56427600D01*
X33338000Y-56427600D02*
X34088000Y-56427600D01*
X34088000Y-56427600D02*
X34088000Y-49377600D01*
X34088000Y-49377600D02*
X33438000Y-49377600D01*
X33438000Y-49377600D02*
X33438000Y-46677600D01*
D13*
X3904000Y-65584600D02*
X3904000Y-63584600D01*
X3904000Y-63584600D02*
X6104000Y-63584600D01*
D11*
X4104000Y-70784600D02*
X9104000Y-70784600D01*
X9104000Y-70784600D02*
X9104000Y-63784600D01*
X9104000Y-63784600D02*
X4104000Y-63784600D01*
X4104000Y-63784600D02*
X4104000Y-70784600D01*
X38267000Y-63860800D02*
X38267000Y-70860800D01*
X43267000Y-63860800D02*
X38267000Y-63860800D01*
X43267000Y-70860800D02*
X43267000Y-63860800D01*
X38267000Y-70860800D02*
X43267000Y-70860800D01*
D13*
X38067000Y-63660800D02*
X40267000Y-63660800D01*
X38067000Y-65660800D02*
X38067000Y-63660800D01*
D11*
X703200Y-62077600D02*
X10703200Y-62077600D01*
X703200Y-42337600D02*
X703200Y-62077600D01*
X10703200Y-42337600D02*
X703200Y-42337600D01*
X10703200Y-62077600D02*
X10703200Y-42337600D01*
D13*
X403200Y-62457600D02*
X403200Y-60427600D01*
X403200Y-62457600D02*
X2703200Y-62457600D01*
D11*
X34703200Y-62077600D02*
X44703200Y-62077600D01*
X34703200Y-42337600D02*
X34703200Y-62077600D01*
X44703200Y-42337600D02*
X34703200Y-42337600D01*
X44703200Y-62077600D02*
X44703200Y-42337600D01*
D13*
X34403200Y-62457600D02*
X34403200Y-60427600D01*
X34403200Y-62457600D02*
X36703200Y-62457600D01*
D11*
X27144800Y-57491800D02*
X25644800Y-57491800D01*
X27144800Y-57491800D02*
X27144800Y-60691800D01*
X25644800Y-60691800D02*
X25644800Y-57491800D01*
X15732000Y-31415800D02*
X13732000Y-31415800D01*
X13732000Y-33455800D02*
X15732000Y-33455800D01*
X51071400Y-42406200D02*
X50071400Y-42406200D01*
X50071400Y-44106200D02*
X51071400Y-44106200D01*
X32627200Y-35161600D02*
X32627200Y-36161600D01*
X34327200Y-36161600D02*
X34327200Y-35161600D01*
X49749200Y-33354200D02*
X51749200Y-33354200D01*
X51749200Y-31314200D02*
X49749200Y-31314200D01*
X2374000Y-35209400D02*
X674000Y-35209400D01*
X674000Y-35209400D02*
X674000Y-38359400D01*
X2374000Y-35209400D02*
X2374000Y-38359400D01*
X52237200Y-60969400D02*
X48337200Y-60969400D01*
X52237200Y-58969400D02*
X48337200Y-58969400D01*
X52237200Y-60969400D02*
X52237200Y-58969400D01*
X32244400Y-33558400D02*
X32244400Y-36708400D01*
X30544400Y-33558400D02*
X30544400Y-36708400D01*
X32244400Y-33558400D02*
X30544400Y-33558400D01*
X15859200Y-40420400D02*
X17059200Y-40420400D01*
X17059200Y-42180400D02*
X15859200Y-42180400D01*
X51222200Y-42231200D02*
X50022200Y-42231200D01*
X50022200Y-40471200D02*
X51222200Y-40471200D01*
D12*
X56253200Y-49052600D02*
X56253200Y-47527600D01*
X45878200Y-49052600D02*
X45878200Y-56802600D01*
X56528200Y-49052600D02*
X56528200Y-56802600D01*
X45878200Y-49052600D02*
X46233200Y-49052600D01*
X45878200Y-56802600D02*
X46233200Y-56802600D01*
X56528200Y-56802600D02*
X56173200Y-56802600D01*
X56528200Y-49052600D02*
X56253200Y-49052600D01*
D11*
X3645200Y-19869800D02*
X825200Y-19869800D01*
X825200Y-19869800D02*
X825200Y-25189800D01*
X825200Y-25189800D02*
X3645200Y-25189800D01*
X3645200Y-25189800D02*
X3645200Y-19869800D01*
X2235200Y-17459800D02*
X2235200Y-19869800D01*
X2235200Y-27599800D02*
X2235200Y-25189800D01*
X3645200Y-20709800D02*
X825200Y-20709800D01*
X31410000Y-20287800D02*
X28590000Y-20287800D01*
X30000000Y-27177800D02*
X30000000Y-24767800D01*
X30000000Y-17037800D02*
X30000000Y-19447800D01*
X31410000Y-24767800D02*
X31410000Y-19447800D01*
X28590000Y-24767800D02*
X31410000Y-24767800D01*
X28590000Y-19447800D02*
X28590000Y-24767800D01*
X31410000Y-19447800D02*
X28590000Y-19447800D01*
X4450000Y-9750000D02*
X4450000Y-3250000D01*
X4450000Y-9750000D02*
X12850000Y-9750000D01*
X4450000Y-3250000D02*
X12850000Y-3250000D01*
X24384600Y-3250000D02*
X32784600Y-3250000D01*
X24384600Y-9750000D02*
X32784600Y-9750000D01*
X24384600Y-9750000D02*
X24384600Y-3250000D01*
X7513400Y-23234800D02*
X7513400Y-22134800D01*
X7243400Y-23234800D02*
X7513400Y-23234800D01*
X7243400Y-24734800D02*
X7243400Y-23234800D01*
X13873400Y-23234800D02*
X13873400Y-20404800D01*
X14143400Y-23234800D02*
X13873400Y-23234800D01*
X14143400Y-24734800D02*
X14143400Y-23234800D01*
X22271400Y-24709400D02*
X22271400Y-23209400D01*
X22271400Y-23209400D02*
X22001400Y-23209400D01*
X22001400Y-23209400D02*
X22001400Y-20379400D01*
X15371400Y-24709400D02*
X15371400Y-23209400D01*
X15371400Y-23209400D02*
X15641400Y-23209400D01*
X15641400Y-23209400D02*
X15641400Y-22109400D01*
X51760200Y-23107800D02*
X51760200Y-22007800D01*
X51490200Y-23107800D02*
X51760200Y-23107800D01*
X51490200Y-24607800D02*
X51490200Y-23107800D01*
X58120200Y-23107800D02*
X58120200Y-20277800D01*
X58390200Y-23107800D02*
X58120200Y-23107800D01*
X58390200Y-24607800D02*
X58390200Y-23107800D01*
X47619800Y-67028600D02*
X48549800Y-67028600D01*
X50779800Y-67028600D02*
X49849800Y-67028600D01*
X50779800Y-67028600D02*
X50779800Y-64868600D01*
X47619800Y-67028600D02*
X47619800Y-65568600D01*
X13812400Y-67333400D02*
X13812400Y-65873400D01*
X16972400Y-67333400D02*
X16972400Y-65173400D01*
X16972400Y-67333400D02*
X16042400Y-67333400D01*
X13812400Y-67333400D02*
X14742400Y-67333400D01*
X52212800Y-64303800D02*
X51012800Y-64303800D01*
X51012800Y-62543800D02*
X52212800Y-62543800D01*
X13503200Y-64583200D02*
X12303200Y-64583200D01*
X12303200Y-62823200D02*
X13503200Y-62823200D01*
X18481600Y-64557800D02*
X17281600Y-64557800D01*
X17281600Y-62797800D02*
X18481600Y-62797800D01*
X50387400Y-82938600D02*
X49287400Y-82938600D01*
X50387400Y-83208600D02*
X50387400Y-82938600D01*
X51887400Y-83208600D02*
X50387400Y-83208600D01*
X50387400Y-76578600D02*
X47557400Y-76578600D01*
X50387400Y-76308600D02*
X50387400Y-76578600D01*
X51887400Y-76308600D02*
X50387400Y-76308600D01*
X10837000Y-12894000D02*
X10837000Y-18094000D01*
X7197000Y-18094000D02*
X7197000Y-12894000D01*
X14621600Y-12894000D02*
X14621600Y-18094000D01*
X10981600Y-18094000D02*
X10981600Y-12894000D01*
X18627000Y-18068600D02*
X18627000Y-12868600D01*
X22267000Y-12868600D02*
X22267000Y-18068600D01*
X14842400Y-18068600D02*
X14842400Y-12868600D01*
X18482400Y-12868600D02*
X18482400Y-18068600D01*
X47125800Y-17814600D02*
X47125800Y-12614600D01*
X50765800Y-12614600D02*
X50765800Y-17814600D01*
X43290400Y-17814600D02*
X43290400Y-12614600D01*
X46930400Y-12614600D02*
X46930400Y-17814600D01*
X54575800Y-12640000D02*
X54575800Y-17840000D01*
X50935800Y-17840000D02*
X50935800Y-12640000D01*
X58411200Y-12640000D02*
X58411200Y-17840000D01*
X54771200Y-17840000D02*
X54771200Y-12640000D01*
X6572620Y-35239880D02*
X6572620Y-38389880D01*
X4872620Y-35239880D02*
X4872620Y-38389880D01*
X6572620Y-35239880D02*
X4872620Y-35239880D01*
X30085400Y-33456800D02*
X28385400Y-33456800D01*
X28385400Y-33456800D02*
X28385400Y-36606800D01*
X30085400Y-33456800D02*
X30085400Y-36606800D01*
D12*
X51411119Y-25622238D02*
X51363500Y-25717476D01*
X51268261Y-25812714D01*
X51125404Y-25955571D01*
X51077785Y-26050809D01*
X51077785Y-26146047D01*
X51315880Y-26098428D02*
X51268261Y-26193666D01*
X51173023Y-26288904D01*
X50982547Y-26336523D01*
X50649214Y-26336523D01*
X50458738Y-26288904D01*
X50363500Y-26193666D01*
X50315880Y-26098428D01*
X50315880Y-25907952D01*
X50363500Y-25812714D01*
X50458738Y-25717476D01*
X50649214Y-25669857D01*
X50982547Y-25669857D01*
X51173023Y-25717476D01*
X51268261Y-25812714D01*
X51315880Y-25907952D01*
X51315880Y-26098428D01*
X50315880Y-24765095D02*
X50315880Y-25241285D01*
X50792071Y-25288904D01*
X50744452Y-25241285D01*
X50696833Y-25146047D01*
X50696833Y-24907952D01*
X50744452Y-24812714D01*
X50792071Y-24765095D01*
X50887309Y-24717476D01*
X51125404Y-24717476D01*
X51220642Y-24765095D01*
X51268261Y-24812714D01*
X51315880Y-24907952D01*
X51315880Y-25146047D01*
X51268261Y-25241285D01*
X51220642Y-25288904D01*
X45604133Y-65577980D02*
X45270800Y-65101790D01*
X45032704Y-65577980D02*
X45032704Y-64577980D01*
X45413657Y-64577980D01*
X45508895Y-64625600D01*
X45556514Y-64673219D01*
X45604133Y-64768457D01*
X45604133Y-64911314D01*
X45556514Y-65006552D01*
X45508895Y-65054171D01*
X45413657Y-65101790D01*
X45032704Y-65101790D01*
X46556514Y-65577980D02*
X45985085Y-65577980D01*
X46270800Y-65577980D02*
X46270800Y-64577980D01*
X46175561Y-64720838D01*
X46080323Y-64816076D01*
X45985085Y-64863695D01*
X11669804Y-60320180D02*
X11669804Y-59320180D01*
X11907900Y-59320180D01*
X12050757Y-59367800D01*
X12145995Y-59463038D01*
X12193614Y-59558276D01*
X12241233Y-59748752D01*
X12241233Y-59891609D01*
X12193614Y-60082085D01*
X12145995Y-60177323D01*
X12050757Y-60272561D01*
X11907900Y-60320180D01*
X11669804Y-60320180D01*
X12574566Y-59320180D02*
X13193614Y-59320180D01*
X12860280Y-59701133D01*
X13003138Y-59701133D01*
X13098376Y-59748752D01*
X13145995Y-59796371D01*
X13193614Y-59891609D01*
X13193614Y-60129704D01*
X13145995Y-60224942D01*
X13098376Y-60272561D01*
X13003138Y-60320180D01*
X12717423Y-60320180D01*
X12622185Y-60272561D01*
X12574566Y-60224942D01*
X27860666Y-86523580D02*
X27860666Y-87237866D01*
X27813047Y-87380723D01*
X27717809Y-87475961D01*
X27574952Y-87523580D01*
X27479714Y-87523580D01*
X28860666Y-87523580D02*
X28289238Y-87523580D01*
X28574952Y-87523580D02*
X28574952Y-86523580D01*
X28479714Y-86666438D01*
X28384476Y-86761676D01*
X28289238Y-86809295D01*
X54798933Y-73064642D02*
X54751314Y-73112261D01*
X54608457Y-73159880D01*
X54513219Y-73159880D01*
X54370361Y-73112261D01*
X54275123Y-73017023D01*
X54227504Y-72921785D01*
X54179885Y-72731309D01*
X54179885Y-72588452D01*
X54227504Y-72397976D01*
X54275123Y-72302738D01*
X54370361Y-72207500D01*
X54513219Y-72159880D01*
X54608457Y-72159880D01*
X54751314Y-72207500D01*
X54798933Y-72255119D01*
X55751314Y-73159880D02*
X55179885Y-73159880D01*
X55465600Y-73159880D02*
X55465600Y-72159880D01*
X55370361Y-72302738D01*
X55275123Y-72397976D01*
X55179885Y-72445595D01*
X52843133Y-75477642D02*
X52795514Y-75525261D01*
X52652657Y-75572880D01*
X52557419Y-75572880D01*
X52414561Y-75525261D01*
X52319323Y-75430023D01*
X52271704Y-75334785D01*
X52224085Y-75144309D01*
X52224085Y-75001452D01*
X52271704Y-74810976D01*
X52319323Y-74715738D01*
X52414561Y-74620500D01*
X52557419Y-74572880D01*
X52652657Y-74572880D01*
X52795514Y-74620500D01*
X52843133Y-74668119D01*
X53224085Y-74668119D02*
X53271704Y-74620500D01*
X53366942Y-74572880D01*
X53605038Y-74572880D01*
X53700276Y-74620500D01*
X53747895Y-74668119D01*
X53795514Y-74763357D01*
X53795514Y-74858595D01*
X53747895Y-75001452D01*
X53176466Y-75572880D01*
X53795514Y-75572880D01*
X57021433Y-85205842D02*
X56973814Y-85253461D01*
X56830957Y-85301080D01*
X56735719Y-85301080D01*
X56592861Y-85253461D01*
X56497623Y-85158223D01*
X56450004Y-85062985D01*
X56402385Y-84872509D01*
X56402385Y-84729652D01*
X56450004Y-84539176D01*
X56497623Y-84443938D01*
X56592861Y-84348700D01*
X56735719Y-84301080D01*
X56830957Y-84301080D01*
X56973814Y-84348700D01*
X57021433Y-84396319D01*
X57354766Y-84301080D02*
X57973814Y-84301080D01*
X57640480Y-84682033D01*
X57783338Y-84682033D01*
X57878576Y-84729652D01*
X57926195Y-84777271D01*
X57973814Y-84872509D01*
X57973814Y-85110604D01*
X57926195Y-85205842D01*
X57878576Y-85253461D01*
X57783338Y-85301080D01*
X57497623Y-85301080D01*
X57402385Y-85253461D01*
X57354766Y-85205842D01*
X56983333Y-87085442D02*
X56935714Y-87133061D01*
X56792857Y-87180680D01*
X56697619Y-87180680D01*
X56554761Y-87133061D01*
X56459523Y-87037823D01*
X56411904Y-86942585D01*
X56364285Y-86752109D01*
X56364285Y-86609252D01*
X56411904Y-86418776D01*
X56459523Y-86323538D01*
X56554761Y-86228300D01*
X56697619Y-86180680D01*
X56792857Y-86180680D01*
X56935714Y-86228300D01*
X56983333Y-86275919D01*
X57840476Y-86514014D02*
X57840476Y-87180680D01*
X57602380Y-86133061D02*
X57364285Y-86847347D01*
X57983333Y-86847347D01*
X22267942Y-61621942D02*
X22220323Y-61669561D01*
X22077466Y-61717180D01*
X21982228Y-61717180D01*
X21839371Y-61669561D01*
X21744133Y-61574323D01*
X21696514Y-61479085D01*
X21648895Y-61288609D01*
X21648895Y-61145752D01*
X21696514Y-60955276D01*
X21744133Y-60860038D01*
X21839371Y-60764800D01*
X21982228Y-60717180D01*
X22077466Y-60717180D01*
X22220323Y-60764800D01*
X22267942Y-60812419D01*
X23220323Y-61717180D02*
X22648895Y-61717180D01*
X22934609Y-61717180D02*
X22934609Y-60717180D01*
X22839371Y-60860038D01*
X22744133Y-60955276D01*
X22648895Y-61002895D01*
X24125085Y-60717180D02*
X23648895Y-60717180D01*
X23601276Y-61193371D01*
X23648895Y-61145752D01*
X23744133Y-61098133D01*
X23982228Y-61098133D01*
X24077466Y-61145752D01*
X24125085Y-61193371D01*
X24172704Y-61288609D01*
X24172704Y-61526704D01*
X24125085Y-61621942D01*
X24077466Y-61669561D01*
X23982228Y-61717180D01*
X23744133Y-61717180D01*
X23648895Y-61669561D01*
X23601276Y-61621942D01*
X12006342Y-43638742D02*
X11958723Y-43686361D01*
X11815866Y-43733980D01*
X11720628Y-43733980D01*
X11577771Y-43686361D01*
X11482533Y-43591123D01*
X11434914Y-43495885D01*
X11387295Y-43305409D01*
X11387295Y-43162552D01*
X11434914Y-42972076D01*
X11482533Y-42876838D01*
X11577771Y-42781600D01*
X11720628Y-42733980D01*
X11815866Y-42733980D01*
X11958723Y-42781600D01*
X12006342Y-42829219D01*
X12958723Y-43733980D02*
X12387295Y-43733980D01*
X12673009Y-43733980D02*
X12673009Y-42733980D01*
X12577771Y-42876838D01*
X12482533Y-42972076D01*
X12387295Y-43019695D01*
X13530152Y-43162552D02*
X13434914Y-43114933D01*
X13387295Y-43067314D01*
X13339676Y-42972076D01*
X13339676Y-42924457D01*
X13387295Y-42829219D01*
X13434914Y-42781600D01*
X13530152Y-42733980D01*
X13720628Y-42733980D01*
X13815866Y-42781600D01*
X13863485Y-42829219D01*
X13911104Y-42924457D01*
X13911104Y-42972076D01*
X13863485Y-43067314D01*
X13815866Y-43114933D01*
X13720628Y-43162552D01*
X13530152Y-43162552D01*
X13434914Y-43210171D01*
X13387295Y-43257790D01*
X13339676Y-43353028D01*
X13339676Y-43543504D01*
X13387295Y-43638742D01*
X13434914Y-43686361D01*
X13530152Y-43733980D01*
X13720628Y-43733980D01*
X13815866Y-43686361D01*
X13863485Y-43638742D01*
X13911104Y-43543504D01*
X13911104Y-43353028D01*
X13863485Y-43257790D01*
X13815866Y-43210171D01*
X13720628Y-43162552D01*
X11955542Y-45467542D02*
X11907923Y-45515161D01*
X11765066Y-45562780D01*
X11669828Y-45562780D01*
X11526971Y-45515161D01*
X11431733Y-45419923D01*
X11384114Y-45324685D01*
X11336495Y-45134209D01*
X11336495Y-44991352D01*
X11384114Y-44800876D01*
X11431733Y-44705638D01*
X11526971Y-44610400D01*
X11669828Y-44562780D01*
X11765066Y-44562780D01*
X11907923Y-44610400D01*
X11955542Y-44658019D01*
X12336495Y-44658019D02*
X12384114Y-44610400D01*
X12479352Y-44562780D01*
X12717447Y-44562780D01*
X12812685Y-44610400D01*
X12860304Y-44658019D01*
X12907923Y-44753257D01*
X12907923Y-44848495D01*
X12860304Y-44991352D01*
X12288876Y-45562780D01*
X12907923Y-45562780D01*
X13526971Y-44562780D02*
X13622209Y-44562780D01*
X13717447Y-44610400D01*
X13765066Y-44658019D01*
X13812685Y-44753257D01*
X13860304Y-44943733D01*
X13860304Y-45181828D01*
X13812685Y-45372304D01*
X13765066Y-45467542D01*
X13717447Y-45515161D01*
X13622209Y-45562780D01*
X13526971Y-45562780D01*
X13431733Y-45515161D01*
X13384114Y-45467542D01*
X13336495Y-45372304D01*
X13288876Y-45181828D01*
X13288876Y-44943733D01*
X13336495Y-44753257D01*
X13384114Y-44658019D01*
X13431733Y-44610400D01*
X13526971Y-44562780D01*
X3938542Y-41379057D02*
X3986161Y-41426676D01*
X4033780Y-41569533D01*
X4033780Y-41664771D01*
X3986161Y-41807628D01*
X3890923Y-41902866D01*
X3795685Y-41950485D01*
X3605209Y-41998104D01*
X3462352Y-41998104D01*
X3271876Y-41950485D01*
X3176638Y-41902866D01*
X3081400Y-41807628D01*
X3033780Y-41664771D01*
X3033780Y-41569533D01*
X3081400Y-41426676D01*
X3129019Y-41379057D01*
X3129019Y-40998104D02*
X3081400Y-40950485D01*
X3033780Y-40855247D01*
X3033780Y-40617152D01*
X3081400Y-40521914D01*
X3129019Y-40474295D01*
X3224257Y-40426676D01*
X3319495Y-40426676D01*
X3462352Y-40474295D01*
X4033780Y-41045723D01*
X4033780Y-40426676D01*
X3129019Y-40045723D02*
X3081400Y-39998104D01*
X3033780Y-39902866D01*
X3033780Y-39664771D01*
X3081400Y-39569533D01*
X3129019Y-39521914D01*
X3224257Y-39474295D01*
X3319495Y-39474295D01*
X3462352Y-39521914D01*
X4033780Y-40093342D01*
X4033780Y-39474295D01*
X57624742Y-61494942D02*
X57577123Y-61542561D01*
X57434266Y-61590180D01*
X57339028Y-61590180D01*
X57196171Y-61542561D01*
X57100933Y-61447323D01*
X57053314Y-61352085D01*
X57005695Y-61161609D01*
X57005695Y-61018752D01*
X57053314Y-60828276D01*
X57100933Y-60733038D01*
X57196171Y-60637800D01*
X57339028Y-60590180D01*
X57434266Y-60590180D01*
X57577123Y-60637800D01*
X57624742Y-60685419D01*
X58005695Y-60685419D02*
X58053314Y-60637800D01*
X58148552Y-60590180D01*
X58386647Y-60590180D01*
X58481885Y-60637800D01*
X58529504Y-60685419D01*
X58577123Y-60780657D01*
X58577123Y-60875895D01*
X58529504Y-61018752D01*
X57958076Y-61590180D01*
X58577123Y-61590180D01*
X59434266Y-60590180D02*
X59243790Y-60590180D01*
X59148552Y-60637800D01*
X59100933Y-60685419D01*
X59005695Y-60828276D01*
X58958076Y-61018752D01*
X58958076Y-61399704D01*
X59005695Y-61494942D01*
X59053314Y-61542561D01*
X59148552Y-61590180D01*
X59339028Y-61590180D01*
X59434266Y-61542561D01*
X59481885Y-61494942D01*
X59529504Y-61399704D01*
X59529504Y-61161609D01*
X59481885Y-61066371D01*
X59434266Y-61018752D01*
X59339028Y-60971133D01*
X59148552Y-60971133D01*
X59053314Y-61018752D01*
X59005695Y-61066371D01*
X58958076Y-61161609D01*
X46182042Y-45416742D02*
X46134423Y-45464361D01*
X45991566Y-45511980D01*
X45896328Y-45511980D01*
X45753471Y-45464361D01*
X45658233Y-45369123D01*
X45610614Y-45273885D01*
X45562995Y-45083409D01*
X45562995Y-44940552D01*
X45610614Y-44750076D01*
X45658233Y-44654838D01*
X45753471Y-44559600D01*
X45896328Y-44511980D01*
X45991566Y-44511980D01*
X46134423Y-44559600D01*
X46182042Y-44607219D01*
X46515376Y-44511980D02*
X47134423Y-44511980D01*
X46801090Y-44892933D01*
X46943947Y-44892933D01*
X47039185Y-44940552D01*
X47086804Y-44988171D01*
X47134423Y-45083409D01*
X47134423Y-45321504D01*
X47086804Y-45416742D01*
X47039185Y-45464361D01*
X46943947Y-45511980D01*
X46658233Y-45511980D01*
X46562995Y-45464361D01*
X46515376Y-45416742D01*
X47991566Y-44511980D02*
X47801090Y-44511980D01*
X47705852Y-44559600D01*
X47658233Y-44607219D01*
X47562995Y-44750076D01*
X47515376Y-44940552D01*
X47515376Y-45321504D01*
X47562995Y-45416742D01*
X47610614Y-45464361D01*
X47705852Y-45511980D01*
X47896328Y-45511980D01*
X47991566Y-45464361D01*
X48039185Y-45416742D01*
X48086804Y-45321504D01*
X48086804Y-45083409D01*
X48039185Y-44988171D01*
X47991566Y-44940552D01*
X47896328Y-44892933D01*
X47705852Y-44892933D01*
X47610614Y-44940552D01*
X47562995Y-44988171D01*
X47515376Y-45083409D01*
X34012142Y-39949357D02*
X34059761Y-39996976D01*
X34107380Y-40139833D01*
X34107380Y-40235071D01*
X34059761Y-40377928D01*
X33964523Y-40473166D01*
X33869285Y-40520785D01*
X33678809Y-40568404D01*
X33535952Y-40568404D01*
X33345476Y-40520785D01*
X33250238Y-40473166D01*
X33155000Y-40377928D01*
X33107380Y-40235071D01*
X33107380Y-40139833D01*
X33155000Y-39996976D01*
X33202619Y-39949357D01*
X33107380Y-39616023D02*
X33107380Y-38996976D01*
X33488333Y-39330309D01*
X33488333Y-39187452D01*
X33535952Y-39092214D01*
X33583571Y-39044595D01*
X33678809Y-38996976D01*
X33916904Y-38996976D01*
X34012142Y-39044595D01*
X34059761Y-39092214D01*
X34107380Y-39187452D01*
X34107380Y-39473166D01*
X34059761Y-39568404D01*
X34012142Y-39616023D01*
X33107380Y-38663642D02*
X33107380Y-37996976D01*
X34107380Y-38425547D01*
X57015142Y-89003142D02*
X56967523Y-89050761D01*
X56824666Y-89098380D01*
X56729428Y-89098380D01*
X56586571Y-89050761D01*
X56491333Y-88955523D01*
X56443714Y-88860285D01*
X56396095Y-88669809D01*
X56396095Y-88526952D01*
X56443714Y-88336476D01*
X56491333Y-88241238D01*
X56586571Y-88146000D01*
X56729428Y-88098380D01*
X56824666Y-88098380D01*
X56967523Y-88146000D01*
X57015142Y-88193619D01*
X57872285Y-88431714D02*
X57872285Y-89098380D01*
X57634190Y-88050761D02*
X57396095Y-88765047D01*
X58015142Y-88765047D01*
X58300857Y-88098380D02*
X58919904Y-88098380D01*
X58586571Y-88479333D01*
X58729428Y-88479333D01*
X58824666Y-88526952D01*
X58872285Y-88574571D01*
X58919904Y-88669809D01*
X58919904Y-88907904D01*
X58872285Y-89003142D01*
X58824666Y-89050761D01*
X58729428Y-89098380D01*
X58443714Y-89098380D01*
X58348476Y-89050761D01*
X58300857Y-89003142D01*
X46855142Y-84786742D02*
X46807523Y-84834361D01*
X46664666Y-84881980D01*
X46569428Y-84881980D01*
X46426571Y-84834361D01*
X46331333Y-84739123D01*
X46283714Y-84643885D01*
X46236095Y-84453409D01*
X46236095Y-84310552D01*
X46283714Y-84120076D01*
X46331333Y-84024838D01*
X46426571Y-83929600D01*
X46569428Y-83881980D01*
X46664666Y-83881980D01*
X46807523Y-83929600D01*
X46855142Y-83977219D01*
X47712285Y-84215314D02*
X47712285Y-84881980D01*
X47474190Y-83834361D02*
X47236095Y-84548647D01*
X47855142Y-84548647D01*
X48664666Y-84215314D02*
X48664666Y-84881980D01*
X48426571Y-83834361D02*
X48188476Y-84548647D01*
X48807523Y-84548647D01*
X8861466Y-84948780D02*
X8861466Y-85663066D01*
X8813847Y-85805923D01*
X8718609Y-85901161D01*
X8575752Y-85948780D01*
X8480514Y-85948780D01*
X9290038Y-85044019D02*
X9337657Y-84996400D01*
X9432895Y-84948780D01*
X9670990Y-84948780D01*
X9766228Y-84996400D01*
X9813847Y-85044019D01*
X9861466Y-85139257D01*
X9861466Y-85234495D01*
X9813847Y-85377352D01*
X9242419Y-85948780D01*
X9861466Y-85948780D01*
X52066866Y-95819980D02*
X52066866Y-96534266D01*
X52019247Y-96677123D01*
X51924009Y-96772361D01*
X51781152Y-96819980D01*
X51685914Y-96819980D01*
X52447819Y-95819980D02*
X53066866Y-95819980D01*
X52733533Y-96200933D01*
X52876390Y-96200933D01*
X52971628Y-96248552D01*
X53019247Y-96296171D01*
X53066866Y-96391409D01*
X53066866Y-96629504D01*
X53019247Y-96724742D01*
X52971628Y-96772361D01*
X52876390Y-96819980D01*
X52590676Y-96819980D01*
X52495438Y-96772361D01*
X52447819Y-96724742D01*
X2532142Y-33599380D02*
X2198809Y-33123190D01*
X1960714Y-33599380D02*
X1960714Y-32599380D01*
X2341666Y-32599380D01*
X2436904Y-32647000D01*
X2484523Y-32694619D01*
X2532142Y-32789857D01*
X2532142Y-32932714D01*
X2484523Y-33027952D01*
X2436904Y-33075571D01*
X2341666Y-33123190D01*
X1960714Y-33123190D01*
X3484523Y-33599380D02*
X2913095Y-33599380D01*
X3198809Y-33599380D02*
X3198809Y-32599380D01*
X3103571Y-32742238D01*
X3008333Y-32837476D01*
X2913095Y-32885095D01*
X4103571Y-32599380D02*
X4198809Y-32599380D01*
X4294047Y-32647000D01*
X4341666Y-32694619D01*
X4389285Y-32789857D01*
X4436904Y-32980333D01*
X4436904Y-33218428D01*
X4389285Y-33408904D01*
X4341666Y-33504142D01*
X4294047Y-33551761D01*
X4198809Y-33599380D01*
X4103571Y-33599380D01*
X4008333Y-33551761D01*
X3960714Y-33504142D01*
X3913095Y-33408904D01*
X3865476Y-33218428D01*
X3865476Y-32980333D01*
X3913095Y-32789857D01*
X3960714Y-32694619D01*
X4008333Y-32647000D01*
X4103571Y-32599380D01*
X34920180Y-31478457D02*
X34443990Y-31811790D01*
X34920180Y-32049885D02*
X33920180Y-32049885D01*
X33920180Y-31668933D01*
X33967800Y-31573695D01*
X34015419Y-31526076D01*
X34110657Y-31478457D01*
X34253514Y-31478457D01*
X34348752Y-31526076D01*
X34396371Y-31573695D01*
X34443990Y-31668933D01*
X34443990Y-32049885D01*
X34015419Y-31097504D02*
X33967800Y-31049885D01*
X33920180Y-30954647D01*
X33920180Y-30716552D01*
X33967800Y-30621314D01*
X34015419Y-30573695D01*
X34110657Y-30526076D01*
X34205895Y-30526076D01*
X34348752Y-30573695D01*
X34920180Y-31145123D01*
X34920180Y-30526076D01*
X34920180Y-29573695D02*
X34920180Y-30145123D01*
X34920180Y-29859409D02*
X33920180Y-29859409D01*
X34063038Y-29954647D01*
X34158276Y-30049885D01*
X34205895Y-30145123D01*
X32075380Y-39822357D02*
X31599190Y-40155690D01*
X32075380Y-40393785D02*
X31075380Y-40393785D01*
X31075380Y-40012833D01*
X31123000Y-39917595D01*
X31170619Y-39869976D01*
X31265857Y-39822357D01*
X31408714Y-39822357D01*
X31503952Y-39869976D01*
X31551571Y-39917595D01*
X31599190Y-40012833D01*
X31599190Y-40393785D01*
X31075380Y-39489023D02*
X31075380Y-38869976D01*
X31456333Y-39203309D01*
X31456333Y-39060452D01*
X31503952Y-38965214D01*
X31551571Y-38917595D01*
X31646809Y-38869976D01*
X31884904Y-38869976D01*
X31980142Y-38917595D01*
X32027761Y-38965214D01*
X32075380Y-39060452D01*
X32075380Y-39346166D01*
X32027761Y-39441404D01*
X31980142Y-39489023D01*
X31075380Y-38250928D02*
X31075380Y-38155690D01*
X31123000Y-38060452D01*
X31170619Y-38012833D01*
X31265857Y-37965214D01*
X31456333Y-37917595D01*
X31694428Y-37917595D01*
X31884904Y-37965214D01*
X31980142Y-38012833D01*
X32027761Y-38060452D01*
X32075380Y-38155690D01*
X32075380Y-38250928D01*
X32027761Y-38346166D01*
X31980142Y-38393785D01*
X31884904Y-38441404D01*
X31694428Y-38489023D01*
X31456333Y-38489023D01*
X31265857Y-38441404D01*
X31170619Y-38393785D01*
X31123000Y-38346166D01*
X31075380Y-38250928D01*
X50665142Y-91219280D02*
X50331809Y-90743090D01*
X50093714Y-91219280D02*
X50093714Y-90219280D01*
X50474666Y-90219280D01*
X50569904Y-90266900D01*
X50617523Y-90314519D01*
X50665142Y-90409757D01*
X50665142Y-90552614D01*
X50617523Y-90647852D01*
X50569904Y-90695471D01*
X50474666Y-90743090D01*
X50093714Y-90743090D01*
X50998476Y-90219280D02*
X51617523Y-90219280D01*
X51284190Y-90600233D01*
X51427047Y-90600233D01*
X51522285Y-90647852D01*
X51569904Y-90695471D01*
X51617523Y-90790709D01*
X51617523Y-91028804D01*
X51569904Y-91124042D01*
X51522285Y-91171661D01*
X51427047Y-91219280D01*
X51141333Y-91219280D01*
X51046095Y-91171661D01*
X50998476Y-91124042D01*
X51998476Y-90314519D02*
X52046095Y-90266900D01*
X52141333Y-90219280D01*
X52379428Y-90219280D01*
X52474666Y-90266900D01*
X52522285Y-90314519D01*
X52569904Y-90409757D01*
X52569904Y-90504995D01*
X52522285Y-90647852D01*
X51950857Y-91219280D01*
X52569904Y-91219280D01*
X51252380Y-88907857D02*
X50776190Y-89241190D01*
X51252380Y-89479285D02*
X50252380Y-89479285D01*
X50252380Y-89098333D01*
X50300000Y-89003095D01*
X50347619Y-88955476D01*
X50442857Y-88907857D01*
X50585714Y-88907857D01*
X50680952Y-88955476D01*
X50728571Y-89003095D01*
X50776190Y-89098333D01*
X50776190Y-89479285D01*
X50252380Y-88574523D02*
X50252380Y-87955476D01*
X50633333Y-88288809D01*
X50633333Y-88145952D01*
X50680952Y-88050714D01*
X50728571Y-88003095D01*
X50823809Y-87955476D01*
X51061904Y-87955476D01*
X51157142Y-88003095D01*
X51204761Y-88050714D01*
X51252380Y-88145952D01*
X51252380Y-88431666D01*
X51204761Y-88526904D01*
X51157142Y-88574523D01*
X50252380Y-87622142D02*
X50252380Y-87003095D01*
X50633333Y-87336428D01*
X50633333Y-87193571D01*
X50680952Y-87098333D01*
X50728571Y-87050714D01*
X50823809Y-87003095D01*
X51061904Y-87003095D01*
X51157142Y-87050714D01*
X51204761Y-87098333D01*
X51252380Y-87193571D01*
X51252380Y-87479285D01*
X51204761Y-87574523D01*
X51157142Y-87622142D01*
X21772714Y-79116180D02*
X21772714Y-78116180D01*
X22010809Y-78116180D01*
X22153666Y-78163800D01*
X22248904Y-78259038D01*
X22296523Y-78354276D01*
X22344142Y-78544752D01*
X22344142Y-78687609D01*
X22296523Y-78878085D01*
X22248904Y-78973323D01*
X22153666Y-79068561D01*
X22010809Y-79116180D01*
X21772714Y-79116180D01*
X23296523Y-79116180D02*
X22725095Y-79116180D01*
X23010809Y-79116180D02*
X23010809Y-78116180D01*
X22915571Y-78259038D01*
X22820333Y-78354276D01*
X22725095Y-78401895D01*
X23677476Y-78211419D02*
X23725095Y-78163800D01*
X23820333Y-78116180D01*
X24058428Y-78116180D01*
X24153666Y-78163800D01*
X24201285Y-78211419D01*
X24248904Y-78306657D01*
X24248904Y-78401895D01*
X24201285Y-78544752D01*
X23629857Y-79116180D01*
X24248904Y-79116180D01*
X12730314Y-79243180D02*
X12730314Y-78243180D01*
X12968409Y-78243180D01*
X13111266Y-78290800D01*
X13206504Y-78386038D01*
X13254123Y-78481276D01*
X13301742Y-78671752D01*
X13301742Y-78814609D01*
X13254123Y-79005085D01*
X13206504Y-79100323D01*
X13111266Y-79195561D01*
X12968409Y-79243180D01*
X12730314Y-79243180D01*
X14254123Y-79243180D02*
X13682695Y-79243180D01*
X13968409Y-79243180D02*
X13968409Y-78243180D01*
X13873171Y-78386038D01*
X13777933Y-78481276D01*
X13682695Y-78528895D01*
X14587457Y-78243180D02*
X15206504Y-78243180D01*
X14873171Y-78624133D01*
X15016028Y-78624133D01*
X15111266Y-78671752D01*
X15158885Y-78719371D01*
X15206504Y-78814609D01*
X15206504Y-79052704D01*
X15158885Y-79147942D01*
X15111266Y-79195561D01*
X15016028Y-79243180D01*
X14730314Y-79243180D01*
X14635076Y-79195561D01*
X14587457Y-79147942D01*
X39806571Y-85423333D02*
X39806571Y-85756666D01*
X40330380Y-85756666D02*
X39330380Y-85756666D01*
X39330380Y-85280476D01*
X40330380Y-84375714D02*
X40330380Y-84947142D01*
X40330380Y-84661428D02*
X39330380Y-84661428D01*
X39473238Y-84756666D01*
X39568476Y-84851904D01*
X39616095Y-84947142D01*
X22905580Y-53689504D02*
X23715104Y-53689504D01*
X23810342Y-53641885D01*
X23857961Y-53594266D01*
X23905580Y-53499028D01*
X23905580Y-53308552D01*
X23857961Y-53213314D01*
X23810342Y-53165695D01*
X23715104Y-53118076D01*
X22905580Y-53118076D01*
X23238914Y-52213314D02*
X23905580Y-52213314D01*
X22857961Y-52451409D02*
X23572247Y-52689504D01*
X23572247Y-52070457D01*
X26399180Y-53746304D02*
X27208704Y-53746304D01*
X27303942Y-53698685D01*
X27351561Y-53651066D01*
X27399180Y-53555828D01*
X27399180Y-53365352D01*
X27351561Y-53270114D01*
X27303942Y-53222495D01*
X27208704Y-53174876D01*
X26399180Y-53174876D01*
X26827752Y-52555828D02*
X26780133Y-52651066D01*
X26732514Y-52698685D01*
X26637276Y-52746304D01*
X26589657Y-52746304D01*
X26494419Y-52698685D01*
X26446800Y-52651066D01*
X26399180Y-52555828D01*
X26399180Y-52365352D01*
X26446800Y-52270114D01*
X26494419Y-52222495D01*
X26589657Y-52174876D01*
X26637276Y-52174876D01*
X26732514Y-52222495D01*
X26780133Y-52270114D01*
X26827752Y-52365352D01*
X26827752Y-52555828D01*
X26875371Y-52651066D01*
X26922990Y-52698685D01*
X27018228Y-52746304D01*
X27208704Y-52746304D01*
X27303942Y-52698685D01*
X27351561Y-52651066D01*
X27399180Y-52555828D01*
X27399180Y-52365352D01*
X27351561Y-52270114D01*
X27303942Y-52222495D01*
X27208704Y-52174876D01*
X27018228Y-52174876D01*
X26922990Y-52222495D01*
X26875371Y-52270114D01*
X26827752Y-52365352D01*
X3052771Y-67997295D02*
X3052771Y-68330628D01*
X3576580Y-68330628D02*
X2576580Y-68330628D01*
X2576580Y-67854438D01*
X3576580Y-66997295D02*
X3576580Y-67473485D01*
X2576580Y-67473485D01*
X3576580Y-66140152D02*
X3576580Y-66711580D01*
X3576580Y-66425866D02*
X2576580Y-66425866D01*
X2719438Y-66521104D01*
X2814676Y-66616342D01*
X2862295Y-66711580D01*
X37203071Y-68098895D02*
X37203071Y-68432228D01*
X37726880Y-68432228D02*
X36726880Y-68432228D01*
X36726880Y-67956038D01*
X37726880Y-67098895D02*
X37726880Y-67575085D01*
X36726880Y-67575085D01*
X36822119Y-66813180D02*
X36774500Y-66765561D01*
X36726880Y-66670323D01*
X36726880Y-66432228D01*
X36774500Y-66336990D01*
X36822119Y-66289371D01*
X36917357Y-66241752D01*
X37012595Y-66241752D01*
X37155452Y-66289371D01*
X37726880Y-66860800D01*
X37726880Y-66241752D01*
X5441295Y-62379980D02*
X5441295Y-63189504D01*
X5488914Y-63284742D01*
X5536533Y-63332361D01*
X5631771Y-63379980D01*
X5822247Y-63379980D01*
X5917485Y-63332361D01*
X5965104Y-63284742D01*
X6012723Y-63189504D01*
X6012723Y-62379980D01*
X6441295Y-62475219D02*
X6488914Y-62427600D01*
X6584152Y-62379980D01*
X6822247Y-62379980D01*
X6917485Y-62427600D01*
X6965104Y-62475219D01*
X7012723Y-62570457D01*
X7012723Y-62665695D01*
X6965104Y-62808552D01*
X6393676Y-63379980D01*
X7012723Y-63379980D01*
X39441295Y-62379980D02*
X39441295Y-63189504D01*
X39488914Y-63284742D01*
X39536533Y-63332361D01*
X39631771Y-63379980D01*
X39822247Y-63379980D01*
X39917485Y-63332361D01*
X39965104Y-63284742D01*
X40012723Y-63189504D01*
X40012723Y-62379980D01*
X40393676Y-62379980D02*
X41012723Y-62379980D01*
X40679390Y-62760933D01*
X40822247Y-62760933D01*
X40917485Y-62808552D01*
X40965104Y-62856171D01*
X41012723Y-62951409D01*
X41012723Y-63189504D01*
X40965104Y-63284742D01*
X40917485Y-63332361D01*
X40822247Y-63379980D01*
X40536533Y-63379980D01*
X40441295Y-63332361D01*
X40393676Y-63284742D01*
X26897980Y-56943685D02*
X25897980Y-56943685D01*
X25897980Y-56705590D01*
X25945600Y-56562733D01*
X26040838Y-56467495D01*
X26136076Y-56419876D01*
X26326552Y-56372257D01*
X26469409Y-56372257D01*
X26659885Y-56419876D01*
X26755123Y-56467495D01*
X26850361Y-56562733D01*
X26897980Y-56705590D01*
X26897980Y-56943685D01*
X26897980Y-55419876D02*
X26897980Y-55991304D01*
X26897980Y-55705590D02*
X25897980Y-55705590D01*
X26040838Y-55800828D01*
X26136076Y-55896066D01*
X26183695Y-55991304D01*
X26231314Y-54562733D02*
X26897980Y-54562733D01*
X25850361Y-54800828D02*
X26564647Y-55038923D01*
X26564647Y-54419876D01*
X14089142Y-34583642D02*
X14041523Y-34631261D01*
X13898666Y-34678880D01*
X13803428Y-34678880D01*
X13660571Y-34631261D01*
X13565333Y-34536023D01*
X13517714Y-34440785D01*
X13470095Y-34250309D01*
X13470095Y-34107452D01*
X13517714Y-33916976D01*
X13565333Y-33821738D01*
X13660571Y-33726500D01*
X13803428Y-33678880D01*
X13898666Y-33678880D01*
X14041523Y-33726500D01*
X14089142Y-33774119D01*
X14470095Y-33774119D02*
X14517714Y-33726500D01*
X14612952Y-33678880D01*
X14851047Y-33678880D01*
X14946285Y-33726500D01*
X14993904Y-33774119D01*
X15041523Y-33869357D01*
X15041523Y-33964595D01*
X14993904Y-34107452D01*
X14422476Y-34678880D01*
X15041523Y-34678880D01*
X15374857Y-33678880D02*
X15993904Y-33678880D01*
X15660571Y-34059833D01*
X15803428Y-34059833D01*
X15898666Y-34107452D01*
X15946285Y-34155071D01*
X15993904Y-34250309D01*
X15993904Y-34488404D01*
X15946285Y-34583642D01*
X15898666Y-34631261D01*
X15803428Y-34678880D01*
X15517714Y-34678880D01*
X15422476Y-34631261D01*
X15374857Y-34583642D01*
X46093142Y-43537142D02*
X46045523Y-43584761D01*
X45902666Y-43632380D01*
X45807428Y-43632380D01*
X45664571Y-43584761D01*
X45569333Y-43489523D01*
X45521714Y-43394285D01*
X45474095Y-43203809D01*
X45474095Y-43060952D01*
X45521714Y-42870476D01*
X45569333Y-42775238D01*
X45664571Y-42680000D01*
X45807428Y-42632380D01*
X45902666Y-42632380D01*
X46045523Y-42680000D01*
X46093142Y-42727619D01*
X46950285Y-42965714D02*
X46950285Y-43632380D01*
X46712190Y-42584761D02*
X46474095Y-43299047D01*
X47093142Y-43299047D01*
X47902666Y-42632380D02*
X47712190Y-42632380D01*
X47616952Y-42680000D01*
X47569333Y-42727619D01*
X47474095Y-42870476D01*
X47426476Y-43060952D01*
X47426476Y-43441904D01*
X47474095Y-43537142D01*
X47521714Y-43584761D01*
X47616952Y-43632380D01*
X47807428Y-43632380D01*
X47902666Y-43584761D01*
X47950285Y-43537142D01*
X47997904Y-43441904D01*
X47997904Y-43203809D01*
X47950285Y-43108571D01*
X47902666Y-43060952D01*
X47807428Y-43013333D01*
X47616952Y-43013333D01*
X47521714Y-43060952D01*
X47474095Y-43108571D01*
X47426476Y-43203809D01*
X35510742Y-36253657D02*
X35558361Y-36301276D01*
X35605980Y-36444133D01*
X35605980Y-36539371D01*
X35558361Y-36682228D01*
X35463123Y-36777466D01*
X35367885Y-36825085D01*
X35177409Y-36872704D01*
X35034552Y-36872704D01*
X34844076Y-36825085D01*
X34748838Y-36777466D01*
X34653600Y-36682228D01*
X34605980Y-36539371D01*
X34605980Y-36444133D01*
X34653600Y-36301276D01*
X34701219Y-36253657D01*
X34939314Y-35396514D02*
X35605980Y-35396514D01*
X34558361Y-35634609D02*
X35272647Y-35872704D01*
X35272647Y-35253657D01*
X35034552Y-34729847D02*
X34986933Y-34825085D01*
X34939314Y-34872704D01*
X34844076Y-34920323D01*
X34796457Y-34920323D01*
X34701219Y-34872704D01*
X34653600Y-34825085D01*
X34605980Y-34729847D01*
X34605980Y-34539371D01*
X34653600Y-34444133D01*
X34701219Y-34396514D01*
X34796457Y-34348895D01*
X34844076Y-34348895D01*
X34939314Y-34396514D01*
X34986933Y-34444133D01*
X35034552Y-34539371D01*
X35034552Y-34729847D01*
X35082171Y-34825085D01*
X35129790Y-34872704D01*
X35225028Y-34920323D01*
X35415504Y-34920323D01*
X35510742Y-34872704D01*
X35558361Y-34825085D01*
X35605980Y-34729847D01*
X35605980Y-34539371D01*
X35558361Y-34444133D01*
X35510742Y-34396514D01*
X35415504Y-34348895D01*
X35225028Y-34348895D01*
X35129790Y-34396514D01*
X35082171Y-34444133D01*
X35034552Y-34539371D01*
X50131742Y-34570942D02*
X50084123Y-34618561D01*
X49941266Y-34666180D01*
X49846028Y-34666180D01*
X49703171Y-34618561D01*
X49607933Y-34523323D01*
X49560314Y-34428085D01*
X49512695Y-34237609D01*
X49512695Y-34094752D01*
X49560314Y-33904276D01*
X49607933Y-33809038D01*
X49703171Y-33713800D01*
X49846028Y-33666180D01*
X49941266Y-33666180D01*
X50084123Y-33713800D01*
X50131742Y-33761419D01*
X50988885Y-33999514D02*
X50988885Y-34666180D01*
X50750790Y-33618561D02*
X50512695Y-34332847D01*
X51131742Y-34332847D01*
X51560314Y-34666180D02*
X51750790Y-34666180D01*
X51846028Y-34618561D01*
X51893647Y-34570942D01*
X51988885Y-34428085D01*
X52036504Y-34237609D01*
X52036504Y-33856657D01*
X51988885Y-33761419D01*
X51941266Y-33713800D01*
X51846028Y-33666180D01*
X51655552Y-33666180D01*
X51560314Y-33713800D01*
X51512695Y-33761419D01*
X51465076Y-33856657D01*
X51465076Y-34094752D01*
X51512695Y-34189990D01*
X51560314Y-34237609D01*
X51655552Y-34285228D01*
X51846028Y-34285228D01*
X51941266Y-34237609D01*
X51988885Y-34189990D01*
X52036504Y-34094752D01*
X1976380Y-41752685D02*
X976380Y-41752685D01*
X976380Y-41514590D01*
X1024000Y-41371733D01*
X1119238Y-41276495D01*
X1214476Y-41228876D01*
X1404952Y-41181257D01*
X1547809Y-41181257D01*
X1738285Y-41228876D01*
X1833523Y-41276495D01*
X1928761Y-41371733D01*
X1976380Y-41514590D01*
X1976380Y-41752685D01*
X1976380Y-40228876D02*
X1976380Y-40800304D01*
X1976380Y-40514590D02*
X976380Y-40514590D01*
X1119238Y-40609828D01*
X1214476Y-40705066D01*
X1262095Y-40800304D01*
X976380Y-39609828D02*
X976380Y-39514590D01*
X1024000Y-39419352D01*
X1071619Y-39371733D01*
X1166857Y-39324114D01*
X1357333Y-39276495D01*
X1595428Y-39276495D01*
X1785904Y-39324114D01*
X1881142Y-39371733D01*
X1928761Y-39419352D01*
X1976380Y-39514590D01*
X1976380Y-39609828D01*
X1928761Y-39705066D01*
X1881142Y-39752685D01*
X1785904Y-39800304D01*
X1595428Y-39847923D01*
X1357333Y-39847923D01*
X1166857Y-39800304D01*
X1071619Y-39752685D01*
X1024000Y-39705066D01*
X976380Y-39609828D01*
X44962914Y-60447180D02*
X44962914Y-59447180D01*
X45201009Y-59447180D01*
X45343866Y-59494800D01*
X45439104Y-59590038D01*
X45486723Y-59685276D01*
X45534342Y-59875752D01*
X45534342Y-60018609D01*
X45486723Y-60209085D01*
X45439104Y-60304323D01*
X45343866Y-60399561D01*
X45201009Y-60447180D01*
X44962914Y-60447180D01*
X46486723Y-60447180D02*
X45915295Y-60447180D01*
X46201009Y-60447180D02*
X46201009Y-59447180D01*
X46105771Y-59590038D01*
X46010533Y-59685276D01*
X45915295Y-59732895D01*
X46820057Y-59447180D02*
X47486723Y-59447180D01*
X47058152Y-60447180D01*
X30205514Y-33142180D02*
X30205514Y-32142180D01*
X30443609Y-32142180D01*
X30586466Y-32189800D01*
X30681704Y-32285038D01*
X30729323Y-32380276D01*
X30776942Y-32570752D01*
X30776942Y-32713609D01*
X30729323Y-32904085D01*
X30681704Y-32999323D01*
X30586466Y-33094561D01*
X30443609Y-33142180D01*
X30205514Y-33142180D01*
X31729323Y-33142180D02*
X31157895Y-33142180D01*
X31443609Y-33142180D02*
X31443609Y-32142180D01*
X31348371Y-32285038D01*
X31253133Y-32380276D01*
X31157895Y-32427895D01*
X32205514Y-33142180D02*
X32395990Y-33142180D01*
X32491228Y-33094561D01*
X32538847Y-33046942D01*
X32634085Y-32904085D01*
X32681704Y-32713609D01*
X32681704Y-32332657D01*
X32634085Y-32237419D01*
X32586466Y-32189800D01*
X32491228Y-32142180D01*
X32300752Y-32142180D01*
X32205514Y-32189800D01*
X32157895Y-32237419D01*
X32110276Y-32332657D01*
X32110276Y-32570752D01*
X32157895Y-32665990D01*
X32205514Y-32713609D01*
X32300752Y-32761228D01*
X32491228Y-32761228D01*
X32586466Y-32713609D01*
X32634085Y-32665990D01*
X32681704Y-32570752D01*
X12031742Y-41727380D02*
X11698409Y-41251190D01*
X11460314Y-41727380D02*
X11460314Y-40727380D01*
X11841266Y-40727380D01*
X11936504Y-40775000D01*
X11984123Y-40822619D01*
X12031742Y-40917857D01*
X12031742Y-41060714D01*
X11984123Y-41155952D01*
X11936504Y-41203571D01*
X11841266Y-41251190D01*
X11460314Y-41251190D01*
X12984123Y-41727380D02*
X12412695Y-41727380D01*
X12698409Y-41727380D02*
X12698409Y-40727380D01*
X12603171Y-40870238D01*
X12507933Y-40965476D01*
X12412695Y-41013095D01*
X13936504Y-41727380D02*
X13365076Y-41727380D01*
X13650790Y-41727380D02*
X13650790Y-40727380D01*
X13555552Y-40870238D01*
X13460314Y-40965476D01*
X13365076Y-41013095D01*
X46055042Y-41778180D02*
X45721709Y-41301990D01*
X45483614Y-41778180D02*
X45483614Y-40778180D01*
X45864566Y-40778180D01*
X45959804Y-40825800D01*
X46007423Y-40873419D01*
X46055042Y-40968657D01*
X46055042Y-41111514D01*
X46007423Y-41206752D01*
X45959804Y-41254371D01*
X45864566Y-41301990D01*
X45483614Y-41301990D01*
X46435995Y-40873419D02*
X46483614Y-40825800D01*
X46578852Y-40778180D01*
X46816947Y-40778180D01*
X46912185Y-40825800D01*
X46959804Y-40873419D01*
X47007423Y-40968657D01*
X47007423Y-41063895D01*
X46959804Y-41206752D01*
X46388376Y-41778180D01*
X47007423Y-41778180D01*
X47912185Y-40778180D02*
X47435995Y-40778180D01*
X47388376Y-41254371D01*
X47435995Y-41206752D01*
X47531233Y-41159133D01*
X47769328Y-41159133D01*
X47864566Y-41206752D01*
X47912185Y-41254371D01*
X47959804Y-41349609D01*
X47959804Y-41587704D01*
X47912185Y-41682942D01*
X47864566Y-41730561D01*
X47769328Y-41778180D01*
X47531233Y-41778180D01*
X47435995Y-41730561D01*
X47388376Y-41682942D01*
X56905580Y-53689504D02*
X57715104Y-53689504D01*
X57810342Y-53641885D01*
X57857961Y-53594266D01*
X57905580Y-53499028D01*
X57905580Y-53308552D01*
X57857961Y-53213314D01*
X57810342Y-53165695D01*
X57715104Y-53118076D01*
X56905580Y-53118076D01*
X56905580Y-52165695D02*
X56905580Y-52641885D01*
X57381771Y-52689504D01*
X57334152Y-52641885D01*
X57286533Y-52546647D01*
X57286533Y-52308552D01*
X57334152Y-52213314D01*
X57381771Y-52165695D01*
X57477009Y-52118076D01*
X57715104Y-52118076D01*
X57810342Y-52165695D01*
X57857961Y-52213314D01*
X57905580Y-52308552D01*
X57905580Y-52546647D01*
X57857961Y-52641885D01*
X57810342Y-52689504D01*
X1497104Y-14600180D02*
X1497104Y-13600180D01*
X1735200Y-13600180D01*
X1878057Y-13647800D01*
X1973295Y-13743038D01*
X2020914Y-13838276D01*
X2068533Y-14028752D01*
X2068533Y-14171609D01*
X2020914Y-14362085D01*
X1973295Y-14457323D01*
X1878057Y-14552561D01*
X1735200Y-14600180D01*
X1497104Y-14600180D01*
X2925676Y-13933514D02*
X2925676Y-14600180D01*
X2687580Y-13552561D02*
X2449485Y-14266847D01*
X3068533Y-14266847D01*
X29208504Y-14193780D02*
X29208504Y-13193780D01*
X29446600Y-13193780D01*
X29589457Y-13241400D01*
X29684695Y-13336638D01*
X29732314Y-13431876D01*
X29779933Y-13622352D01*
X29779933Y-13765209D01*
X29732314Y-13955685D01*
X29684695Y-14050923D01*
X29589457Y-14146161D01*
X29446600Y-14193780D01*
X29208504Y-14193780D01*
X30113266Y-13193780D02*
X30779933Y-13193780D01*
X30351361Y-14193780D01*
X4860714Y-11021580D02*
X4860714Y-10021580D01*
X5098809Y-10021580D01*
X5241666Y-10069200D01*
X5336904Y-10164438D01*
X5384523Y-10259676D01*
X5432142Y-10450152D01*
X5432142Y-10593009D01*
X5384523Y-10783485D01*
X5336904Y-10878723D01*
X5241666Y-10973961D01*
X5098809Y-11021580D01*
X4860714Y-11021580D01*
X6384523Y-11021580D02*
X5813095Y-11021580D01*
X6098809Y-11021580D02*
X6098809Y-10021580D01*
X6003571Y-10164438D01*
X5908333Y-10259676D01*
X5813095Y-10307295D01*
X7289285Y-10021580D02*
X6813095Y-10021580D01*
X6765476Y-10497771D01*
X6813095Y-10450152D01*
X6908333Y-10402533D01*
X7146428Y-10402533D01*
X7241666Y-10450152D01*
X7289285Y-10497771D01*
X7336904Y-10593009D01*
X7336904Y-10831104D01*
X7289285Y-10926342D01*
X7241666Y-10973961D01*
X7146428Y-11021580D01*
X6908333Y-11021580D01*
X6813095Y-10973961D01*
X6765476Y-10926342D01*
X24896914Y-11046980D02*
X24896914Y-10046980D01*
X25135009Y-10046980D01*
X25277866Y-10094600D01*
X25373104Y-10189838D01*
X25420723Y-10285076D01*
X25468342Y-10475552D01*
X25468342Y-10618409D01*
X25420723Y-10808885D01*
X25373104Y-10904123D01*
X25277866Y-10999361D01*
X25135009Y-11046980D01*
X24896914Y-11046980D01*
X25849295Y-10142219D02*
X25896914Y-10094600D01*
X25992152Y-10046980D01*
X26230247Y-10046980D01*
X26325485Y-10094600D01*
X26373104Y-10142219D01*
X26420723Y-10237457D01*
X26420723Y-10332695D01*
X26373104Y-10475552D01*
X25801676Y-11046980D01*
X26420723Y-11046980D01*
X27373104Y-11046980D02*
X26801676Y-11046980D01*
X27087390Y-11046980D02*
X27087390Y-10046980D01*
X26992152Y-10189838D01*
X26896914Y-10285076D01*
X26801676Y-10332695D01*
X15406619Y-25800038D02*
X15359000Y-25895276D01*
X15263761Y-25990514D01*
X15120904Y-26133371D01*
X15073285Y-26228609D01*
X15073285Y-26323847D01*
X15311380Y-26276228D02*
X15263761Y-26371466D01*
X15168523Y-26466704D01*
X14978047Y-26514323D01*
X14644714Y-26514323D01*
X14454238Y-26466704D01*
X14359000Y-26371466D01*
X14311380Y-26276228D01*
X14311380Y-26085752D01*
X14359000Y-25990514D01*
X14454238Y-25895276D01*
X14644714Y-25847657D01*
X14978047Y-25847657D01*
X15168523Y-25895276D01*
X15263761Y-25990514D01*
X15311380Y-26085752D01*
X15311380Y-26276228D01*
X14311380Y-25514323D02*
X14311380Y-24895276D01*
X14692333Y-25228609D01*
X14692333Y-25085752D01*
X14739952Y-24990514D01*
X14787571Y-24942895D01*
X14882809Y-24895276D01*
X15120904Y-24895276D01*
X15216142Y-24942895D01*
X15263761Y-24990514D01*
X15311380Y-25085752D01*
X15311380Y-25371466D01*
X15263761Y-25466704D01*
X15216142Y-25514323D01*
X23869019Y-25774638D02*
X23821400Y-25869876D01*
X23726161Y-25965114D01*
X23583304Y-26107971D01*
X23535685Y-26203209D01*
X23535685Y-26298447D01*
X23773780Y-26250828D02*
X23726161Y-26346066D01*
X23630923Y-26441304D01*
X23440447Y-26488923D01*
X23107114Y-26488923D01*
X22916638Y-26441304D01*
X22821400Y-26346066D01*
X22773780Y-26250828D01*
X22773780Y-26060352D01*
X22821400Y-25965114D01*
X22916638Y-25869876D01*
X23107114Y-25822257D01*
X23440447Y-25822257D01*
X23630923Y-25869876D01*
X23726161Y-25965114D01*
X23773780Y-26060352D01*
X23773780Y-26250828D01*
X23107114Y-24965114D02*
X23773780Y-24965114D01*
X22726161Y-25203209D02*
X23440447Y-25441304D01*
X23440447Y-24822257D01*
X59475619Y-25673038D02*
X59428000Y-25768276D01*
X59332761Y-25863514D01*
X59189904Y-26006371D01*
X59142285Y-26101609D01*
X59142285Y-26196847D01*
X59380380Y-26149228D02*
X59332761Y-26244466D01*
X59237523Y-26339704D01*
X59047047Y-26387323D01*
X58713714Y-26387323D01*
X58523238Y-26339704D01*
X58428000Y-26244466D01*
X58380380Y-26149228D01*
X58380380Y-25958752D01*
X58428000Y-25863514D01*
X58523238Y-25768276D01*
X58713714Y-25720657D01*
X59047047Y-25720657D01*
X59237523Y-25768276D01*
X59332761Y-25863514D01*
X59380380Y-25958752D01*
X59380380Y-26149228D01*
X58380380Y-24863514D02*
X58380380Y-25053990D01*
X58428000Y-25149228D01*
X58475619Y-25196847D01*
X58618476Y-25292085D01*
X58808952Y-25339704D01*
X59189904Y-25339704D01*
X59285142Y-25292085D01*
X59332761Y-25244466D01*
X59380380Y-25149228D01*
X59380380Y-24958752D01*
X59332761Y-24863514D01*
X59285142Y-24815895D01*
X59189904Y-24768276D01*
X58951809Y-24768276D01*
X58856571Y-24815895D01*
X58808952Y-24863514D01*
X58761333Y-24958752D01*
X58761333Y-25149228D01*
X58808952Y-25244466D01*
X58856571Y-25292085D01*
X58951809Y-25339704D01*
X48461704Y-69159380D02*
X48461704Y-68159380D01*
X48699800Y-68159380D01*
X48842657Y-68207000D01*
X48937895Y-68302238D01*
X48985514Y-68397476D01*
X49033133Y-68587952D01*
X49033133Y-68730809D01*
X48985514Y-68921285D01*
X48937895Y-69016523D01*
X48842657Y-69111761D01*
X48699800Y-69159380D01*
X48461704Y-69159380D01*
X49985514Y-69159380D02*
X49414085Y-69159380D01*
X49699800Y-69159380D02*
X49699800Y-68159380D01*
X49604561Y-68302238D01*
X49509323Y-68397476D01*
X49414085Y-68445095D01*
X14654304Y-69540380D02*
X14654304Y-68540380D01*
X14892400Y-68540380D01*
X15035257Y-68588000D01*
X15130495Y-68683238D01*
X15178114Y-68778476D01*
X15225733Y-68968952D01*
X15225733Y-69111809D01*
X15178114Y-69302285D01*
X15130495Y-69397523D01*
X15035257Y-69492761D01*
X14892400Y-69540380D01*
X14654304Y-69540380D01*
X15606685Y-68635619D02*
X15654304Y-68588000D01*
X15749542Y-68540380D01*
X15987638Y-68540380D01*
X16082876Y-68588000D01*
X16130495Y-68635619D01*
X16178114Y-68730857D01*
X16178114Y-68826095D01*
X16130495Y-68968952D01*
X15559066Y-69540380D01*
X16178114Y-69540380D01*
X52157333Y-65552580D02*
X51824000Y-65076390D01*
X51585904Y-65552580D02*
X51585904Y-64552580D01*
X51966857Y-64552580D01*
X52062095Y-64600200D01*
X52109714Y-64647819D01*
X52157333Y-64743057D01*
X52157333Y-64885914D01*
X52109714Y-64981152D01*
X52062095Y-65028771D01*
X51966857Y-65076390D01*
X51585904Y-65076390D01*
X52538285Y-64647819D02*
X52585904Y-64600200D01*
X52681142Y-64552580D01*
X52919238Y-64552580D01*
X53014476Y-64600200D01*
X53062095Y-64647819D01*
X53109714Y-64743057D01*
X53109714Y-64838295D01*
X53062095Y-64981152D01*
X52490666Y-65552580D01*
X53109714Y-65552580D01*
X11237933Y-65908180D02*
X10904600Y-65431990D01*
X10666504Y-65908180D02*
X10666504Y-64908180D01*
X11047457Y-64908180D01*
X11142695Y-64955800D01*
X11190314Y-65003419D01*
X11237933Y-65098657D01*
X11237933Y-65241514D01*
X11190314Y-65336752D01*
X11142695Y-65384371D01*
X11047457Y-65431990D01*
X10666504Y-65431990D01*
X11571266Y-64908180D02*
X12190314Y-64908180D01*
X11856980Y-65289133D01*
X11999838Y-65289133D01*
X12095076Y-65336752D01*
X12142695Y-65384371D01*
X12190314Y-65479609D01*
X12190314Y-65717704D01*
X12142695Y-65812942D01*
X12095076Y-65860561D01*
X11999838Y-65908180D01*
X11714123Y-65908180D01*
X11618885Y-65860561D01*
X11571266Y-65812942D01*
X19391333Y-65831980D02*
X19058000Y-65355790D01*
X18819904Y-65831980D02*
X18819904Y-64831980D01*
X19200857Y-64831980D01*
X19296095Y-64879600D01*
X19343714Y-64927219D01*
X19391333Y-65022457D01*
X19391333Y-65165314D01*
X19343714Y-65260552D01*
X19296095Y-65308171D01*
X19200857Y-65355790D01*
X18819904Y-65355790D01*
X20248476Y-65165314D02*
X20248476Y-65831980D01*
X20010380Y-64784361D02*
X19772285Y-65498647D01*
X20391333Y-65498647D01*
X56261095Y-74991980D02*
X56261095Y-75801504D01*
X56308714Y-75896742D01*
X56356333Y-75944361D01*
X56451571Y-75991980D01*
X56642047Y-75991980D01*
X56737285Y-75944361D01*
X56784904Y-75896742D01*
X56832523Y-75801504D01*
X56832523Y-74991980D01*
X57832523Y-75991980D02*
X57261095Y-75991980D01*
X57546809Y-75991980D02*
X57546809Y-74991980D01*
X57451571Y-75134838D01*
X57356333Y-75230076D01*
X57261095Y-75277695D01*
X9621780Y-16187657D02*
X9145590Y-16520990D01*
X9621780Y-16759085D02*
X8621780Y-16759085D01*
X8621780Y-16378133D01*
X8669400Y-16282895D01*
X8717019Y-16235276D01*
X8812257Y-16187657D01*
X8955114Y-16187657D01*
X9050352Y-16235276D01*
X9097971Y-16282895D01*
X9145590Y-16378133D01*
X9145590Y-16759085D01*
X9621780Y-15235276D02*
X9621780Y-15806704D01*
X9621780Y-15520990D02*
X8621780Y-15520990D01*
X8764638Y-15616228D01*
X8859876Y-15711466D01*
X8907495Y-15806704D01*
X8955114Y-14378133D02*
X9621780Y-14378133D01*
X8574161Y-14616228D02*
X9288447Y-14854323D01*
X9288447Y-14235276D01*
X13228580Y-16187657D02*
X12752390Y-16520990D01*
X13228580Y-16759085D02*
X12228580Y-16759085D01*
X12228580Y-16378133D01*
X12276200Y-16282895D01*
X12323819Y-16235276D01*
X12419057Y-16187657D01*
X12561914Y-16187657D01*
X12657152Y-16235276D01*
X12704771Y-16282895D01*
X12752390Y-16378133D01*
X12752390Y-16759085D01*
X13228580Y-15235276D02*
X13228580Y-15806704D01*
X13228580Y-15520990D02*
X12228580Y-15520990D01*
X12371438Y-15616228D01*
X12466676Y-15711466D01*
X12514295Y-15806704D01*
X12228580Y-14330514D02*
X12228580Y-14806704D01*
X12704771Y-14854323D01*
X12657152Y-14806704D01*
X12609533Y-14711466D01*
X12609533Y-14473371D01*
X12657152Y-14378133D01*
X12704771Y-14330514D01*
X12800009Y-14282895D01*
X13038104Y-14282895D01*
X13133342Y-14330514D01*
X13180961Y-14378133D01*
X13228580Y-14473371D01*
X13228580Y-14711466D01*
X13180961Y-14806704D01*
X13133342Y-14854323D01*
X20873980Y-16136857D02*
X20397790Y-16470190D01*
X20873980Y-16708285D02*
X19873980Y-16708285D01*
X19873980Y-16327333D01*
X19921600Y-16232095D01*
X19969219Y-16184476D01*
X20064457Y-16136857D01*
X20207314Y-16136857D01*
X20302552Y-16184476D01*
X20350171Y-16232095D01*
X20397790Y-16327333D01*
X20397790Y-16708285D01*
X19969219Y-15755904D02*
X19921600Y-15708285D01*
X19873980Y-15613047D01*
X19873980Y-15374952D01*
X19921600Y-15279714D01*
X19969219Y-15232095D01*
X20064457Y-15184476D01*
X20159695Y-15184476D01*
X20302552Y-15232095D01*
X20873980Y-15803523D01*
X20873980Y-15184476D01*
X19969219Y-14803523D02*
X19921600Y-14755904D01*
X19873980Y-14660666D01*
X19873980Y-14422571D01*
X19921600Y-14327333D01*
X19969219Y-14279714D01*
X20064457Y-14232095D01*
X20159695Y-14232095D01*
X20302552Y-14279714D01*
X20873980Y-14851142D01*
X20873980Y-14232095D01*
X17089380Y-16111457D02*
X16613190Y-16444790D01*
X17089380Y-16682885D02*
X16089380Y-16682885D01*
X16089380Y-16301933D01*
X16137000Y-16206695D01*
X16184619Y-16159076D01*
X16279857Y-16111457D01*
X16422714Y-16111457D01*
X16517952Y-16159076D01*
X16565571Y-16206695D01*
X16613190Y-16301933D01*
X16613190Y-16682885D01*
X16184619Y-15730504D02*
X16137000Y-15682885D01*
X16089380Y-15587647D01*
X16089380Y-15349552D01*
X16137000Y-15254314D01*
X16184619Y-15206695D01*
X16279857Y-15159076D01*
X16375095Y-15159076D01*
X16517952Y-15206695D01*
X17089380Y-15778123D01*
X17089380Y-15159076D01*
X16089380Y-14825742D02*
X16089380Y-14206695D01*
X16470333Y-14540028D01*
X16470333Y-14397171D01*
X16517952Y-14301933D01*
X16565571Y-14254314D01*
X16660809Y-14206695D01*
X16898904Y-14206695D01*
X16994142Y-14254314D01*
X17041761Y-14301933D01*
X17089380Y-14397171D01*
X17089380Y-14682885D01*
X17041761Y-14778123D01*
X16994142Y-14825742D01*
X49398180Y-15857457D02*
X48921990Y-16190790D01*
X49398180Y-16428885D02*
X48398180Y-16428885D01*
X48398180Y-16047933D01*
X48445800Y-15952695D01*
X48493419Y-15905076D01*
X48588657Y-15857457D01*
X48731514Y-15857457D01*
X48826752Y-15905076D01*
X48874371Y-15952695D01*
X48921990Y-16047933D01*
X48921990Y-16428885D01*
X48398180Y-15524123D02*
X48398180Y-14905076D01*
X48779133Y-15238409D01*
X48779133Y-15095552D01*
X48826752Y-15000314D01*
X48874371Y-14952695D01*
X48969609Y-14905076D01*
X49207704Y-14905076D01*
X49302942Y-14952695D01*
X49350561Y-15000314D01*
X49398180Y-15095552D01*
X49398180Y-15381266D01*
X49350561Y-15476504D01*
X49302942Y-15524123D01*
X48398180Y-14047933D02*
X48398180Y-14238409D01*
X48445800Y-14333647D01*
X48493419Y-14381266D01*
X48636276Y-14476504D01*
X48826752Y-14524123D01*
X49207704Y-14524123D01*
X49302942Y-14476504D01*
X49350561Y-14428885D01*
X49398180Y-14333647D01*
X49398180Y-14143171D01*
X49350561Y-14047933D01*
X49302942Y-14000314D01*
X49207704Y-13952695D01*
X48969609Y-13952695D01*
X48874371Y-14000314D01*
X48826752Y-14047933D01*
X48779133Y-14143171D01*
X48779133Y-14333647D01*
X48826752Y-14428885D01*
X48874371Y-14476504D01*
X48969609Y-14524123D01*
X45562780Y-15882857D02*
X45086590Y-16216190D01*
X45562780Y-16454285D02*
X44562780Y-16454285D01*
X44562780Y-16073333D01*
X44610400Y-15978095D01*
X44658019Y-15930476D01*
X44753257Y-15882857D01*
X44896114Y-15882857D01*
X44991352Y-15930476D01*
X45038971Y-15978095D01*
X45086590Y-16073333D01*
X45086590Y-16454285D01*
X44562780Y-15549523D02*
X44562780Y-14930476D01*
X44943733Y-15263809D01*
X44943733Y-15120952D01*
X44991352Y-15025714D01*
X45038971Y-14978095D01*
X45134209Y-14930476D01*
X45372304Y-14930476D01*
X45467542Y-14978095D01*
X45515161Y-15025714D01*
X45562780Y-15120952D01*
X45562780Y-15406666D01*
X45515161Y-15501904D01*
X45467542Y-15549523D01*
X44562780Y-14597142D02*
X44562780Y-13930476D01*
X45562780Y-14359047D01*
X53233580Y-15908257D02*
X52757390Y-16241590D01*
X53233580Y-16479685D02*
X52233580Y-16479685D01*
X52233580Y-16098733D01*
X52281200Y-16003495D01*
X52328819Y-15955876D01*
X52424057Y-15908257D01*
X52566914Y-15908257D01*
X52662152Y-15955876D01*
X52709771Y-16003495D01*
X52757390Y-16098733D01*
X52757390Y-16479685D01*
X52233580Y-15574923D02*
X52233580Y-14955876D01*
X52614533Y-15289209D01*
X52614533Y-15146352D01*
X52662152Y-15051114D01*
X52709771Y-15003495D01*
X52805009Y-14955876D01*
X53043104Y-14955876D01*
X53138342Y-15003495D01*
X53185961Y-15051114D01*
X53233580Y-15146352D01*
X53233580Y-15432066D01*
X53185961Y-15527304D01*
X53138342Y-15574923D01*
X52662152Y-14384447D02*
X52614533Y-14479685D01*
X52566914Y-14527304D01*
X52471676Y-14574923D01*
X52424057Y-14574923D01*
X52328819Y-14527304D01*
X52281200Y-14479685D01*
X52233580Y-14384447D01*
X52233580Y-14193971D01*
X52281200Y-14098733D01*
X52328819Y-14051114D01*
X52424057Y-14003495D01*
X52471676Y-14003495D01*
X52566914Y-14051114D01*
X52614533Y-14098733D01*
X52662152Y-14193971D01*
X52662152Y-14384447D01*
X52709771Y-14479685D01*
X52757390Y-14527304D01*
X52852628Y-14574923D01*
X53043104Y-14574923D01*
X53138342Y-14527304D01*
X53185961Y-14479685D01*
X53233580Y-14384447D01*
X53233580Y-14193971D01*
X53185961Y-14098733D01*
X53138342Y-14051114D01*
X53043104Y-14003495D01*
X52852628Y-14003495D01*
X52757390Y-14051114D01*
X52709771Y-14098733D01*
X52662152Y-14193971D01*
X56891180Y-15933657D02*
X56414990Y-16266990D01*
X56891180Y-16505085D02*
X55891180Y-16505085D01*
X55891180Y-16124133D01*
X55938800Y-16028895D01*
X55986419Y-15981276D01*
X56081657Y-15933657D01*
X56224514Y-15933657D01*
X56319752Y-15981276D01*
X56367371Y-16028895D01*
X56414990Y-16124133D01*
X56414990Y-16505085D01*
X55891180Y-15600323D02*
X55891180Y-14981276D01*
X56272133Y-15314609D01*
X56272133Y-15171752D01*
X56319752Y-15076514D01*
X56367371Y-15028895D01*
X56462609Y-14981276D01*
X56700704Y-14981276D01*
X56795942Y-15028895D01*
X56843561Y-15076514D01*
X56891180Y-15171752D01*
X56891180Y-15457466D01*
X56843561Y-15552704D01*
X56795942Y-15600323D01*
X56891180Y-14505085D02*
X56891180Y-14314609D01*
X56843561Y-14219371D01*
X56795942Y-14171752D01*
X56653085Y-14076514D01*
X56462609Y-14028895D01*
X56081657Y-14028895D01*
X55986419Y-14076514D01*
X55938800Y-14124133D01*
X55891180Y-14219371D01*
X55891180Y-14409847D01*
X55938800Y-14505085D01*
X55986419Y-14552704D01*
X56081657Y-14600323D01*
X56319752Y-14600323D01*
X56414990Y-14552704D01*
X56462609Y-14505085D01*
X56510228Y-14409847D01*
X56510228Y-14219371D01*
X56462609Y-14124133D01*
X56414990Y-14076514D01*
X56319752Y-14028895D01*
X8025000Y-37877975D02*
X7025000Y-37877975D01*
X7025000Y-37639880D01*
X7072620Y-37497022D01*
X7167858Y-37401784D01*
X7263096Y-37354165D01*
X7453572Y-37306546D01*
X7596429Y-37306546D01*
X7786905Y-37354165D01*
X7882143Y-37401784D01*
X7977381Y-37497022D01*
X8025000Y-37639880D01*
X8025000Y-37877975D01*
X7025000Y-36449403D02*
X7025000Y-36639880D01*
X7072620Y-36735118D01*
X7120239Y-36782737D01*
X7263096Y-36877975D01*
X7453572Y-36925594D01*
X7834524Y-36925594D01*
X7929762Y-36877975D01*
X7977381Y-36830356D01*
X8025000Y-36735118D01*
X8025000Y-36544641D01*
X7977381Y-36449403D01*
X7929762Y-36401784D01*
X7834524Y-36354165D01*
X7596429Y-36354165D01*
X7501191Y-36401784D01*
X7453572Y-36449403D01*
X7405953Y-36544641D01*
X7405953Y-36735118D01*
X7453572Y-36830356D01*
X7501191Y-36877975D01*
X7596429Y-36925594D01*
X31537780Y-36571085D02*
X30537780Y-36571085D01*
X30537780Y-36332990D01*
X30585400Y-36190133D01*
X30680638Y-36094895D01*
X30775876Y-36047276D01*
X30966352Y-35999657D01*
X31109209Y-35999657D01*
X31299685Y-36047276D01*
X31394923Y-36094895D01*
X31490161Y-36190133D01*
X31537780Y-36332990D01*
X31537780Y-36571085D01*
X31537780Y-35047276D02*
X31537780Y-35618704D01*
X31537780Y-35332990D02*
X30537780Y-35332990D01*
X30680638Y-35428228D01*
X30775876Y-35523466D01*
X30823495Y-35618704D01*
X30966352Y-34475847D02*
X30918733Y-34571085D01*
X30871114Y-34618704D01*
X30775876Y-34666323D01*
X30728257Y-34666323D01*
X30633019Y-34618704D01*
X30585400Y-34571085D01*
X30537780Y-34475847D01*
X30537780Y-34285371D01*
X30585400Y-34190133D01*
X30633019Y-34142514D01*
X30728257Y-34094895D01*
X30775876Y-34094895D01*
X30871114Y-34142514D01*
X30918733Y-34190133D01*
X30966352Y-34285371D01*
X30966352Y-34475847D01*
X31013971Y-34571085D01*
X31061590Y-34618704D01*
X31156828Y-34666323D01*
X31347304Y-34666323D01*
X31442542Y-34618704D01*
X31490161Y-34571085D01*
X31537780Y-34475847D01*
X31537780Y-34285371D01*
X31490161Y-34190133D01*
X31442542Y-34142514D01*
X31347304Y-34094895D01*
X31156828Y-34094895D01*
X31061590Y-34142514D01*
X31013971Y-34190133D01*
X30966352Y-34285371D01*
M02*
