G04 #@! TF.GenerationSoftware,KiCad,Pcbnew,no-vcs-found-c6d0075~61~ubuntu17.10.1*
G04 #@! TF.CreationDate,2018-02-01T09:34:47-05:00*
G04 #@! TF.ProjectId,ENNOID Dual Gate Driver,454E4E4F4944204475616C2047617465,rev?*
G04 #@! TF.SameCoordinates,Original*
G04 #@! TF.FileFunction,Soldermask,Bot*
G04 #@! TF.FilePolarity,Negative*
%FSLAX46Y46*%
G04 Gerber Fmt 4.6, Leading zero omitted, Abs format (unit mm)*
G04 Created by KiCad (PCBNEW no-vcs-found-c6d0075~61~ubuntu17.10.1) date Thu Feb  1 09:34:47 2018*
%MOMM*%
%LPD*%
G01*
G04 APERTURE LIST*
%ADD10C,5.900000*%
%ADD11R,1.400000X1.400000*%
%ADD12C,2.100000*%
%ADD13R,2.100000X2.100000*%
%ADD14R,1.900000X1.650000*%
%ADD15R,1.900000X1.700000*%
%ADD16R,1.650000X1.900000*%
%ADD17R,2.400000X2.000000*%
%ADD18O,3.000000X2.400000*%
%ADD19R,3.000000X2.400000*%
%ADD20R,1.700000X1.900000*%
%ADD21R,1.300000X1.200000*%
%ADD22R,3.900000X2.200000*%
%ADD23C,3.400000*%
%ADD24O,1.900000X1.900000*%
%ADD25R,1.900000X1.900000*%
%ADD26R,2.600000X2.600000*%
%ADD27O,2.600000X2.600000*%
%ADD28R,1.300000X2.100000*%
%ADD29R,2.200000X3.900000*%
G04 APERTURE END LIST*
D10*
X55000000Y-5000000D03*
D11*
X9398000Y-22230400D03*
X9398000Y-19730400D03*
D10*
X55000000Y-93000000D03*
D12*
X38887400Y-91478100D03*
X38887400Y-94018100D03*
X36347400Y-91478100D03*
X36347400Y-94018100D03*
X33807400Y-91478100D03*
X33807400Y-94018100D03*
X31267400Y-91478100D03*
X31267400Y-94018100D03*
X28727400Y-91478100D03*
X28727400Y-94018100D03*
X26187400Y-91478100D03*
X26187400Y-94018100D03*
X23647400Y-91478100D03*
X23647400Y-94018100D03*
X21107400Y-91478100D03*
D13*
X21107400Y-94018100D03*
D14*
X29966600Y-89128600D03*
X32466600Y-89128600D03*
D15*
X24311600Y-80416400D03*
X21611600Y-80416400D03*
D16*
X5283200Y-59898600D03*
X5283200Y-57398600D03*
X7213600Y-57398600D03*
X7213600Y-59898600D03*
X5359400Y-45026900D03*
X5359400Y-42526900D03*
X5359400Y-47264000D03*
X5359400Y-49764000D03*
X39293800Y-59924000D03*
X39293800Y-57424000D03*
X41173400Y-57424000D03*
X41173400Y-59924000D03*
X39370000Y-44728400D03*
X39370000Y-42228400D03*
X39370000Y-47228400D03*
X39370000Y-49728400D03*
D14*
X21671600Y-57683400D03*
X19171600Y-57683400D03*
X21305200Y-41173400D03*
X23805200Y-41173400D03*
X23817466Y-44999107D03*
X21317466Y-44999107D03*
X16758600Y-28549600D03*
X19258600Y-28549600D03*
X12832400Y-28524200D03*
X10332400Y-28524200D03*
X16758600Y-30454600D03*
X19258600Y-30454600D03*
D17*
X13422146Y-24178672D03*
X9422146Y-24178672D03*
D14*
X18739800Y-13233400D03*
X21239800Y-13233400D03*
X32212600Y-57708800D03*
X29712600Y-57708800D03*
X29712600Y-59639200D03*
X32212600Y-59639200D03*
X35072000Y-89128600D03*
X37572000Y-89128600D03*
D18*
X11734800Y-95834200D03*
X11734800Y-93294200D03*
X11734800Y-90754200D03*
D19*
X11734800Y-88214200D03*
D18*
X48183800Y-95783400D03*
D19*
X48183800Y-93243400D03*
D20*
X20548600Y-62099200D03*
X20548600Y-64799200D03*
X18491200Y-64824600D03*
X18491200Y-62124600D03*
X53670200Y-62061100D03*
X53670200Y-64761100D03*
X16433800Y-62099200D03*
X16433800Y-64799200D03*
D15*
X15284405Y-80452572D03*
X12584405Y-80452572D03*
D20*
X51663600Y-62086500D03*
X51663600Y-64786500D03*
X49631600Y-62086500D03*
X49631600Y-64786500D03*
X51841400Y-36648400D03*
X51841400Y-39348400D03*
X34747200Y-41550600D03*
X34747200Y-44250600D03*
D14*
X32238000Y-47548800D03*
X29738000Y-47548800D03*
D21*
X32775400Y-38531800D03*
X30775400Y-37581800D03*
X30775400Y-39481800D03*
D22*
X22337400Y-10464800D03*
X17337400Y-10464800D03*
D20*
X26390600Y-61040000D03*
X26390600Y-58340000D03*
D23*
X22500000Y-6830000D03*
X22500000Y-3170000D03*
X2500000Y-5170000D03*
X2500000Y-8830000D03*
X16500000Y-6830000D03*
X16500000Y-3170000D03*
X43500000Y-6830000D03*
X43500000Y-3170000D03*
X37500000Y-3170000D03*
X37500000Y-6830000D03*
D24*
X3203200Y-44687600D03*
X3203200Y-47227600D03*
X3203200Y-49767600D03*
X3203200Y-57387600D03*
D25*
X3203200Y-59927600D03*
D24*
X37203200Y-44687600D03*
X37203200Y-47227600D03*
X37203200Y-49767600D03*
X37203200Y-57387600D03*
D25*
X37203200Y-59927600D03*
D14*
X21305200Y-43078400D03*
X23805200Y-43078400D03*
X10307000Y-30429200D03*
X12807000Y-30429200D03*
D17*
X13404600Y-26416000D03*
X9404600Y-26416000D03*
X20061495Y-24157873D03*
X16061495Y-24157873D03*
X16059400Y-26390600D03*
X20059400Y-26390600D03*
D14*
X54960200Y-41402000D03*
X57460200Y-41402000D03*
X57485600Y-45237400D03*
X54985600Y-45237400D03*
X54960200Y-43307000D03*
X57460200Y-43307000D03*
X49078200Y-30302200D03*
X46578200Y-30302200D03*
X55352000Y-30124400D03*
X52852000Y-30124400D03*
X46552800Y-28346400D03*
X49052800Y-28346400D03*
X52877400Y-28270200D03*
X55377400Y-28270200D03*
D17*
X49523400Y-23952200D03*
X45523400Y-23952200D03*
X52103607Y-26243553D03*
X56103607Y-26243553D03*
X45498000Y-26212800D03*
X49498000Y-26212800D03*
X56102000Y-23926800D03*
X52102000Y-23926800D03*
D14*
X39415400Y-13335000D03*
X41915400Y-13335000D03*
D22*
X38394000Y-10591800D03*
X43394000Y-10591800D03*
D20*
X15621000Y-39170600D03*
X15621000Y-36470600D03*
X13512800Y-36466800D03*
X13512800Y-39166800D03*
D15*
X18639800Y-15189200D03*
X21339800Y-15189200D03*
D20*
X49733200Y-36648400D03*
X49733200Y-39348400D03*
D15*
X39417000Y-15240000D03*
X42117000Y-15240000D03*
D26*
X2235200Y-16179800D03*
D27*
X2235200Y-28879800D03*
X30000000Y-28457800D03*
D26*
X30000000Y-15757800D03*
D16*
X31699200Y-41752200D03*
X31699200Y-44252200D03*
D14*
X55707600Y-57683400D03*
X53207600Y-57683400D03*
D10*
X5000000Y-93000000D03*
D28*
X26134858Y-22393083D03*
X29034858Y-22393083D03*
X33810058Y-22393083D03*
X30910058Y-22393083D03*
D20*
X29667200Y-44276000D03*
X29667200Y-41576000D03*
D29*
X12750800Y-7202800D03*
X12750800Y-12202800D03*
X33528000Y-3850000D03*
X33528000Y-8850000D03*
D11*
X45542200Y-19572600D03*
X45542200Y-22072600D03*
M02*
