G04 #@! TF.GenerationSoftware,KiCad,Pcbnew,no-vcs-found-bf44d39~61~ubuntu17.10.1*
G04 #@! TF.CreationDate,2018-01-04T10:05:47-05:00*
G04 #@! TF.ProjectId,ENNOID Dual Gate Driver,454E4E4F4944204475616C2047617465,rev?*
G04 #@! TF.SameCoordinates,Original*
G04 #@! TF.FileFunction,Copper,L2,Bot,Signal*
G04 #@! TF.FilePolarity,Positive*
%FSLAX46Y46*%
G04 Gerber Fmt 4.6, Leading zero omitted, Abs format (unit mm)*
G04 Created by KiCad (PCBNEW no-vcs-found-bf44d39~61~ubuntu17.10.1) date Thu Jan  4 10:05:47 2018*
%MOMM*%
%LPD*%
G01*
G04 APERTURE LIST*
%ADD10C,5.500000*%
%ADD11C,1.700000*%
%ADD12R,1.700000X1.700000*%
%ADD13R,1.500000X1.250000*%
%ADD14R,1.500000X1.300000*%
%ADD15R,1.250000X1.500000*%
%ADD16R,2.000000X1.600000*%
%ADD17O,2.600000X2.000000*%
%ADD18R,2.600000X2.000000*%
%ADD19R,1.300000X1.500000*%
%ADD20R,0.900000X0.800000*%
%ADD21R,3.500000X1.800000*%
%ADD22C,3.000000*%
%ADD23O,1.500000X1.500000*%
%ADD24R,1.500000X1.500000*%
%ADD25R,1.800000X3.500000*%
%ADD26R,2.200000X2.200000*%
%ADD27O,2.200000X2.200000*%
%ADD28C,0.800000*%
%ADD29C,0.250000*%
%ADD30C,2.000000*%
%ADD31C,1.000000*%
%ADD32C,0.500000*%
%ADD33C,0.254000*%
G04 APERTURE END LIST*
D10*
X55000000Y-93000000D03*
D11*
X38887400Y-91478100D03*
X38887400Y-94018100D03*
X36347400Y-91478100D03*
X36347400Y-94018100D03*
X33807400Y-91478100D03*
X33807400Y-94018100D03*
X31267400Y-91478100D03*
X31267400Y-94018100D03*
X28727400Y-91478100D03*
X28727400Y-94018100D03*
X26187400Y-91478100D03*
X26187400Y-94018100D03*
X23647400Y-91478100D03*
X23647400Y-94018100D03*
X21107400Y-91478100D03*
D12*
X21107400Y-94018100D03*
D13*
X30246000Y-89128600D03*
X32746000Y-89128600D03*
D14*
X24311600Y-80416400D03*
X21611600Y-80416400D03*
D15*
X5283200Y-59898600D03*
X5283200Y-57398600D03*
X7213600Y-57398600D03*
X7213600Y-59898600D03*
X5359400Y-45026900D03*
X5359400Y-42526900D03*
X5359400Y-47264000D03*
X5359400Y-49764000D03*
X39293800Y-59924000D03*
X39293800Y-57424000D03*
X41173400Y-57424000D03*
X41173400Y-59924000D03*
X39370000Y-44728400D03*
X39370000Y-42228400D03*
X39370000Y-47228400D03*
X39370000Y-49728400D03*
D13*
X21671600Y-57683400D03*
X19171600Y-57683400D03*
X21305200Y-41351200D03*
X23805200Y-41351200D03*
X23817466Y-44999107D03*
X21317466Y-44999107D03*
X16758600Y-28549600D03*
X19258600Y-28549600D03*
X12832400Y-28524200D03*
X10332400Y-28524200D03*
X16758600Y-30454600D03*
X19258600Y-30454600D03*
D16*
X13422146Y-24178672D03*
X9422146Y-24178672D03*
D13*
X18739800Y-13233400D03*
X21239800Y-13233400D03*
X32212600Y-57708800D03*
X29712600Y-57708800D03*
X29636400Y-59537600D03*
X32136400Y-59537600D03*
X34818000Y-89128600D03*
X37318000Y-89128600D03*
D17*
X11734800Y-95834200D03*
X11734800Y-93294200D03*
X11734800Y-90754200D03*
D18*
X11734800Y-88214200D03*
D17*
X48183800Y-95783400D03*
D18*
X48183800Y-93243400D03*
D19*
X20421600Y-62124600D03*
X20421600Y-64824600D03*
X18491200Y-64824600D03*
X18491200Y-62124600D03*
X53517800Y-61896000D03*
X53517800Y-64596000D03*
X16586200Y-62124600D03*
X16586200Y-64824600D03*
X2286000Y-23465800D03*
X2286000Y-26165800D03*
D14*
X15284405Y-80452572D03*
X12584405Y-80452572D03*
D19*
X51663600Y-61896000D03*
X51663600Y-64596000D03*
X49784000Y-61870600D03*
X49784000Y-64570600D03*
X51739800Y-36648400D03*
X51739800Y-39348400D03*
X30000000Y-21136600D03*
X30000000Y-18436600D03*
X34747200Y-41550600D03*
X34747200Y-44250600D03*
X30000000Y-23211800D03*
X30000000Y-25911800D03*
D13*
X32238000Y-47548800D03*
X29738000Y-47548800D03*
D20*
X32775400Y-38531800D03*
X30775400Y-37581800D03*
X30775400Y-39481800D03*
D21*
X22337400Y-10464800D03*
X17337400Y-10464800D03*
D19*
X26390600Y-61040000D03*
X26390600Y-58340000D03*
D22*
X22500000Y-6830000D03*
X22500000Y-3170000D03*
X2500000Y-5170000D03*
X2500000Y-8830000D03*
X16500000Y-6830000D03*
X16500000Y-3170000D03*
X43500000Y-6830000D03*
X43500000Y-3170000D03*
X37500000Y-3170000D03*
X37500000Y-6830000D03*
D23*
X3203200Y-44687600D03*
X3203200Y-47227600D03*
X3203200Y-49767600D03*
X3203200Y-57387600D03*
D24*
X3203200Y-59927600D03*
D23*
X37203200Y-44687600D03*
X37203200Y-47227600D03*
X37203200Y-49767600D03*
X37203200Y-57387600D03*
D24*
X37203200Y-59927600D03*
D13*
X21317466Y-43170307D03*
X23817466Y-43170307D03*
X10307000Y-30429200D03*
X12807000Y-30429200D03*
D16*
X13404600Y-26416000D03*
X9404600Y-26416000D03*
X20061495Y-24157873D03*
X16061495Y-24157873D03*
X16059400Y-26390600D03*
X20059400Y-26390600D03*
D13*
X54985600Y-41605200D03*
X57485600Y-41605200D03*
X57485600Y-45237400D03*
X54985600Y-45237400D03*
X54985600Y-43434000D03*
X57485600Y-43434000D03*
X49078200Y-30302200D03*
X46578200Y-30302200D03*
X55352000Y-30124400D03*
X52852000Y-30124400D03*
X46552800Y-28346400D03*
X49052800Y-28346400D03*
X52877400Y-28270200D03*
X55377400Y-28270200D03*
D16*
X49523400Y-23952200D03*
X45523400Y-23952200D03*
X52103607Y-26243553D03*
X56103607Y-26243553D03*
X45498000Y-26212800D03*
X49498000Y-26212800D03*
X56102000Y-23926800D03*
X52102000Y-23926800D03*
D13*
X39415400Y-13335000D03*
X41915400Y-13335000D03*
D21*
X38394000Y-10591800D03*
X43394000Y-10591800D03*
D19*
X15519400Y-39170600D03*
X15519400Y-36470600D03*
X13614400Y-36470600D03*
X13614400Y-39170600D03*
D14*
X18639800Y-15189200D03*
X21339800Y-15189200D03*
D19*
X49834800Y-36648400D03*
X49834800Y-39348400D03*
D14*
X39417000Y-15240000D03*
X42117000Y-15240000D03*
D21*
X7380600Y-4597400D03*
X12380600Y-4597400D03*
D25*
X30099000Y-4586600D03*
X30099000Y-9586600D03*
D26*
X2235200Y-16179800D03*
D27*
X2235200Y-28879800D03*
X30000000Y-28457800D03*
D26*
X30000000Y-15757800D03*
D15*
X31699200Y-41752200D03*
X31699200Y-44252200D03*
D13*
X55707600Y-57683400D03*
X53207600Y-57683400D03*
D10*
X5000000Y-93000000D03*
D28*
X28041600Y-59537600D03*
X28067000Y-57683398D03*
X23164800Y-57759600D03*
X57226200Y-57708800D03*
X37312600Y-87401400D03*
X30226000Y-87401400D03*
X46532800Y-83661000D03*
X46532800Y-82661000D03*
X44602400Y-88239600D03*
X51079400Y-88671400D03*
X51079400Y-84861400D03*
X51054000Y-86817200D03*
X46532800Y-81661000D03*
X32893000Y-61112400D03*
X16762000Y-34800000D03*
X15762000Y-34800000D03*
X14762000Y-34800000D03*
X13762000Y-34800000D03*
X12762000Y-34800000D03*
X11522200Y-43205400D03*
X7797800Y-31750000D03*
X10797800Y-31750000D03*
X9797800Y-31750000D03*
X8797800Y-31750000D03*
X12522200Y-43205400D03*
X23834600Y-47310800D03*
X22834600Y-47310800D03*
X23834600Y-48310800D03*
X10226800Y-47260000D03*
X11226800Y-47260000D03*
X10226800Y-48260000D03*
X21694400Y-31750000D03*
X20694400Y-31750000D03*
X19694400Y-31750000D03*
X18694400Y-31750000D03*
X22834600Y-48310800D03*
X11226800Y-48260000D03*
X46447200Y-43408600D03*
X46967400Y-31750000D03*
X45967400Y-31750000D03*
X44967400Y-31750000D03*
X44770800Y-47285400D03*
X44770800Y-48285400D03*
X57794400Y-47285400D03*
X56794400Y-47285400D03*
X57794400Y-48285400D03*
X45770800Y-47285400D03*
X57889400Y-31750000D03*
X56889400Y-31750000D03*
X55889400Y-31750000D03*
X29184600Y-67691000D03*
X32766002Y-67691000D03*
X50571400Y-67437000D03*
X14071600Y-67716400D03*
X16797800Y-14598400D03*
X15797800Y-14598400D03*
X14797800Y-14598400D03*
X13797800Y-14598400D03*
X12797800Y-14598400D03*
X11797800Y-14598400D03*
X10797800Y-14598400D03*
X9797800Y-14598400D03*
X8797800Y-14598400D03*
X7797800Y-14598400D03*
X16797800Y-13598400D03*
X15797800Y-13598400D03*
X14797800Y-13598400D03*
X13797800Y-13598400D03*
X12797800Y-13598400D03*
X11797800Y-13598400D03*
X10797800Y-13598400D03*
X9797800Y-13598400D03*
X8797800Y-13598400D03*
X7797800Y-13598400D03*
X16797800Y-12598400D03*
X15797800Y-12598400D03*
X14797800Y-12598400D03*
X13797800Y-12598400D03*
X12797800Y-12598400D03*
X11797800Y-12598400D03*
X10797800Y-12598400D03*
X9797800Y-12598400D03*
X8797800Y-12598400D03*
X7797800Y-12598400D03*
X57967400Y-14725400D03*
X56967400Y-14725400D03*
X55967400Y-14725400D03*
X54967400Y-14725400D03*
X53967400Y-14725400D03*
X52967400Y-14725400D03*
X51967400Y-14725400D03*
X50967400Y-14725400D03*
X49967400Y-14725400D03*
X48967400Y-14725400D03*
X47967400Y-14725400D03*
X46967400Y-14725400D03*
X45967400Y-14725400D03*
X44967400Y-14725400D03*
X43967400Y-14725400D03*
X57967400Y-13725400D03*
X56967400Y-13725400D03*
X55967400Y-13725400D03*
X54967400Y-13725400D03*
X53967400Y-13725400D03*
X52967400Y-13725400D03*
X51967400Y-13725400D03*
X50967400Y-13725400D03*
X49967400Y-13725400D03*
X48967400Y-13725400D03*
X47967400Y-13725400D03*
X46967400Y-13725400D03*
X45967400Y-13725400D03*
X44967400Y-13725400D03*
X43967400Y-13725400D03*
X57967400Y-12725400D03*
X56967400Y-12725400D03*
X55967400Y-12725400D03*
X54967400Y-12725400D03*
X53967400Y-12725400D03*
X52967400Y-12725400D03*
X51967400Y-12725400D03*
X50967400Y-12725400D03*
X49967400Y-12725400D03*
X48967400Y-12725400D03*
X47967400Y-12725400D03*
X46967400Y-12725400D03*
X45967400Y-12725400D03*
X44967400Y-12725400D03*
X43967400Y-12725400D03*
X32893000Y-45821600D03*
X29540200Y-39471600D03*
X51800000Y-34800000D03*
X52800000Y-34800000D03*
X50800000Y-34800000D03*
X48800000Y-34800000D03*
X49800000Y-34800000D03*
X47447200Y-43408600D03*
X43967400Y-31750000D03*
X56794400Y-48285400D03*
X45770800Y-48285400D03*
X54889400Y-31750000D03*
X27381200Y-67716400D03*
X47828200Y-67476210D03*
X34874200Y-67691000D03*
X16814800Y-67716400D03*
X21615400Y-69279610D03*
X19431000Y-59309000D03*
X21615400Y-78816200D03*
X53440364Y-59038700D03*
X30353000Y-65989200D03*
X31597600Y-66014600D03*
X31597600Y-45796200D03*
X29692600Y-45821600D03*
X25831800Y-80416400D03*
X11023600Y-80441800D03*
X27838400Y-61036200D03*
X26670000Y-68580000D03*
X35636200Y-68580000D03*
X51612800Y-67462400D03*
X15290800Y-78994000D03*
X18135600Y-68554600D03*
X18705998Y-60404800D03*
X52857400Y-60147200D03*
X16306800Y-59588400D03*
X50317400Y-59994800D03*
X19710400Y-41376600D03*
X19608800Y-45008800D03*
X10041552Y-36592848D03*
X12217400Y-40563800D03*
X762000Y-23774400D03*
X53492400Y-41503600D03*
X53314600Y-45262800D03*
X40792400Y-40462200D03*
X46634400Y-40563800D03*
X18135600Y-36144200D03*
X11582400Y-36474400D03*
X47523400Y-36550600D03*
X53900010Y-36652200D03*
X13614400Y-41300400D03*
X14884400Y-46659800D03*
X17830800Y-46710600D03*
X48158398Y-46609000D03*
X47421800Y-41554400D03*
X51841400Y-46685200D03*
X10515600Y-584200D03*
X33299400Y-3759200D03*
X20181410Y-60405381D03*
X54203600Y-60147200D03*
D29*
X29636400Y-59537600D02*
X28041600Y-59537600D01*
X29712600Y-57708800D02*
X28092402Y-57708800D01*
X28092402Y-57708800D02*
X28067000Y-57683398D01*
X21671600Y-57683400D02*
X23088600Y-57683400D01*
X23088600Y-57683400D02*
X23164800Y-57759600D01*
X57200800Y-57683400D02*
X57226200Y-57708800D01*
X55707600Y-57683400D02*
X57200800Y-57683400D01*
X37318000Y-87406800D02*
X37312600Y-87401400D01*
X37318000Y-89128600D02*
X37318000Y-87406800D01*
X30246000Y-87421400D02*
X30226000Y-87401400D01*
X30246000Y-89128600D02*
X30246000Y-87421400D01*
X5283200Y-59898600D02*
X7213600Y-59898600D01*
D30*
X3203200Y-59927600D02*
X7184600Y-59927600D01*
X7184600Y-59927600D02*
X7213600Y-59898600D01*
D29*
X5283200Y-57398600D02*
X3214200Y-57398600D01*
X3214200Y-57398600D02*
X3203200Y-57387600D01*
D30*
X3203200Y-57387600D02*
X7202600Y-57387600D01*
X7202600Y-57387600D02*
X7213600Y-57398600D01*
D31*
X14762000Y-34800000D02*
X14762000Y-30546200D01*
X14762000Y-30546200D02*
X16758600Y-28549600D01*
X13762000Y-34800000D02*
X13762000Y-31384200D01*
X13762000Y-31384200D02*
X12807000Y-30429200D01*
X15762000Y-34800000D02*
X15762000Y-31451200D01*
X15762000Y-31451200D02*
X16758600Y-30454600D01*
X12762000Y-34800000D02*
X16762000Y-34800000D01*
X16762000Y-34800000D02*
X16762000Y-30458000D01*
X16762000Y-30458000D02*
X16758600Y-30454600D01*
X12762000Y-34800000D02*
X12762000Y-30474200D01*
X12762000Y-30474200D02*
X12807000Y-30429200D01*
D30*
X12832400Y-28524200D02*
X13925800Y-28524200D01*
X13925800Y-28524200D02*
X16059400Y-26390600D01*
X13404600Y-26416000D02*
X14625000Y-26416000D01*
X14625000Y-26416000D02*
X16758600Y-28549600D01*
X13422146Y-24178672D02*
X13847472Y-24178672D01*
X13847472Y-24178672D02*
X16059400Y-26390600D01*
X13404600Y-26416000D02*
X16034000Y-26416000D01*
X16034000Y-26416000D02*
X16059400Y-26390600D01*
X13422146Y-24178672D02*
X16040696Y-24178672D01*
X16040696Y-24178672D02*
X16061495Y-24157873D01*
X16059400Y-26390600D02*
X16059400Y-24159968D01*
X16059400Y-24159968D02*
X16061495Y-24157873D01*
X13404600Y-26416000D02*
X13404600Y-24196218D01*
X13404600Y-24196218D02*
X13422146Y-24178672D01*
X12832400Y-28524200D02*
X16733200Y-28524200D01*
X16733200Y-28524200D02*
X16758600Y-28549600D01*
X12807000Y-30429200D02*
X16733200Y-30429200D01*
X16733200Y-30429200D02*
X16758600Y-30454600D01*
X16758600Y-28549600D02*
X16758600Y-27089800D01*
X16758600Y-27089800D02*
X16059400Y-26390600D01*
X16758600Y-30454600D02*
X16758600Y-28549600D01*
X12807000Y-30429200D02*
X12807000Y-28549600D01*
X12807000Y-28549600D02*
X12832400Y-28524200D01*
X12832400Y-28524200D02*
X12832400Y-26988200D01*
X12832400Y-26988200D02*
X13404600Y-26416000D01*
D31*
X5359400Y-45026900D02*
X5359400Y-47264000D01*
X3203200Y-47227600D02*
X5323000Y-47227600D01*
X5323000Y-47227600D02*
X5359400Y-47264000D01*
X12522200Y-43205400D02*
X6037900Y-43205400D01*
X6037900Y-43205400D02*
X5359400Y-42526900D01*
D30*
X41173400Y-59924000D02*
X39293800Y-59924000D01*
X37203200Y-59927600D02*
X41169800Y-59927600D01*
X41169800Y-59927600D02*
X41173400Y-59924000D01*
X37203200Y-57387600D02*
X39257400Y-57387600D01*
X39257400Y-57387600D02*
X39293800Y-57424000D01*
X37203200Y-57387600D02*
X41137000Y-57387600D01*
X41137000Y-57387600D02*
X41173400Y-57424000D01*
D29*
X31699200Y-40355600D02*
X30825400Y-39481800D01*
X31699200Y-41752200D02*
X31699200Y-40355600D01*
X30825400Y-39481800D02*
X30775400Y-39481800D01*
X37203200Y-42283200D02*
X36470600Y-41550600D01*
X36470600Y-41550600D02*
X34747200Y-41550600D01*
X37203200Y-44687600D02*
X37203200Y-42283200D01*
X28321000Y-66827400D02*
X14960600Y-66827400D01*
X14960600Y-66827400D02*
X14071600Y-67716400D01*
X29184600Y-67691000D02*
X28321000Y-66827400D01*
X33705802Y-66751200D02*
X49885600Y-66751200D01*
X49885600Y-66751200D02*
X50571400Y-67437000D01*
X32766002Y-67691000D02*
X33705802Y-66751200D01*
X32746000Y-89128600D02*
X32746000Y-67711002D01*
X32746000Y-67711002D02*
X32766002Y-67691000D01*
X32969200Y-44466000D02*
X32969200Y-45745400D01*
X32775400Y-44272200D02*
X32969200Y-44466000D01*
X32969200Y-45745400D02*
X32893000Y-45821600D01*
X33096200Y-38852600D02*
X33096200Y-43951400D01*
X32775400Y-38531800D02*
X33096200Y-38852600D01*
X33096200Y-43951400D02*
X32775400Y-44272200D01*
X32574200Y-44252200D02*
X32575800Y-44250600D01*
X31699200Y-44252200D02*
X32574200Y-44252200D01*
X32575800Y-44250600D02*
X32797000Y-44250600D01*
X34747200Y-44250600D02*
X32797000Y-44250600D01*
X32797000Y-44250600D02*
X32775400Y-44272200D01*
X30000000Y-18436600D02*
X30000000Y-17436600D01*
X30000000Y-17436600D02*
X30000000Y-15757800D01*
X29550400Y-39481800D02*
X29540200Y-39471600D01*
X30775400Y-39481800D02*
X29550400Y-39481800D01*
D31*
X52800000Y-34800000D02*
X48800000Y-34800000D01*
X50800000Y-34800000D02*
X50800000Y-32176400D01*
X50800000Y-32176400D02*
X52852000Y-30124400D01*
X49800000Y-34800000D02*
X49800000Y-31024000D01*
X49800000Y-31024000D02*
X49078200Y-30302200D01*
X51800000Y-34800000D02*
X51800000Y-31176400D01*
X51800000Y-31176400D02*
X52852000Y-30124400D01*
X52800000Y-34800000D02*
X52800000Y-30176400D01*
X52800000Y-30176400D02*
X52852000Y-30124400D01*
X48800000Y-34800000D02*
X48800000Y-30580400D01*
X48800000Y-30580400D02*
X49078200Y-30302200D01*
X39370000Y-47228400D02*
X39370000Y-44728400D01*
X37203200Y-47227600D02*
X39369200Y-47227600D01*
X39369200Y-47227600D02*
X39370000Y-47228400D01*
D30*
X50800000Y-33350200D02*
X50800000Y-27547160D01*
X50800000Y-27547160D02*
X52103607Y-26243553D01*
D31*
X52171600Y-31978600D02*
X52852000Y-31298200D01*
X49580800Y-32131000D02*
X49078200Y-31628400D01*
D30*
X52852000Y-30124400D02*
X52852000Y-31298200D01*
X52852000Y-31298200D02*
X50800000Y-33350200D01*
X49078200Y-30302200D02*
X49078200Y-31628400D01*
X49078200Y-31628400D02*
X50800000Y-33350200D01*
X49078200Y-30302200D02*
X50845400Y-30302200D01*
X50845400Y-30302200D02*
X52877400Y-28270200D01*
X52852000Y-30124400D02*
X50830800Y-30124400D01*
X50830800Y-30124400D02*
X49052800Y-28346400D01*
X52877400Y-28270200D02*
X49129000Y-28270200D01*
X49129000Y-28270200D02*
X49052800Y-28346400D01*
X49078200Y-30302200D02*
X52674200Y-30302200D01*
X52674200Y-30302200D02*
X52852000Y-30124400D01*
X52877400Y-28270200D02*
X52877400Y-27017346D01*
X52877400Y-27017346D02*
X52103607Y-26243553D01*
X52852000Y-30124400D02*
X52852000Y-28295600D01*
X52852000Y-28295600D02*
X52877400Y-28270200D01*
X49052800Y-28346400D02*
X49052800Y-26658000D01*
X49052800Y-26658000D02*
X49498000Y-26212800D01*
X49078200Y-30302200D02*
X49078200Y-28371800D01*
X49078200Y-28371800D02*
X49052800Y-28346400D01*
X49498000Y-26212800D02*
X49816000Y-26212800D01*
X49816000Y-26212800D02*
X52102000Y-23926800D01*
X49498000Y-26212800D02*
X49498000Y-23977600D01*
X49498000Y-23977600D02*
X49523400Y-23952200D01*
X49498000Y-26212800D02*
X52072854Y-26212800D01*
X52072854Y-26212800D02*
X52103607Y-26243553D01*
X52102000Y-23926800D02*
X52102000Y-26241946D01*
X52102000Y-26241946D02*
X52103607Y-26243553D01*
X49523400Y-23952200D02*
X52076600Y-23952200D01*
X52076600Y-23952200D02*
X52102000Y-23926800D01*
D31*
X43434000Y-43408600D02*
X42253800Y-42228400D01*
X42253800Y-42228400D02*
X39370000Y-42228400D01*
X47447200Y-43408600D02*
X43434000Y-43408600D01*
X40863400Y-533400D02*
X33302200Y-533400D01*
X43500000Y-3170000D02*
X40863400Y-533400D01*
X33302200Y-533400D02*
X30099000Y-3736600D01*
D29*
X30099000Y-3736600D02*
X30099000Y-4586600D01*
X33807400Y-91478100D02*
X32746000Y-90416700D01*
X32746000Y-90416700D02*
X32746000Y-89128600D01*
X33705800Y-91376500D02*
X33807400Y-91478100D01*
X27381200Y-67716400D02*
X16814800Y-67716400D01*
X34874200Y-67691000D02*
X47613410Y-67691000D01*
X47613410Y-67691000D02*
X47828200Y-67476210D01*
X34818000Y-89128600D02*
X34818000Y-67747200D01*
X34818000Y-67747200D02*
X34874200Y-67691000D01*
X34818000Y-89128600D02*
X34818000Y-88564400D01*
X35077400Y-92748100D02*
X35077400Y-90263000D01*
X33807400Y-94018100D02*
X35077400Y-92748100D01*
X35077400Y-90263000D02*
X34818000Y-90003600D01*
X34818000Y-90003600D02*
X34818000Y-89128600D01*
X2286000Y-26165800D02*
X2286000Y-28829000D01*
X2286000Y-28829000D02*
X2235200Y-28879800D01*
X19171600Y-57683400D02*
X19171600Y-59049600D01*
X19171600Y-59049600D02*
X19431000Y-59309000D01*
X52207600Y-57683400D02*
X50556600Y-56032400D01*
X53207600Y-57683400D02*
X52207600Y-57683400D01*
X50556600Y-56032400D02*
X20947600Y-56032400D01*
X20947600Y-56032400D02*
X19296600Y-57683400D01*
X19296600Y-57683400D02*
X19171600Y-57683400D01*
X21615400Y-78816200D02*
X21615400Y-69279610D01*
X53207600Y-58805936D02*
X53440364Y-59038700D01*
X53207600Y-57683400D02*
X53207600Y-58805936D01*
X22377400Y-92748100D02*
X22377400Y-90220800D01*
X22377400Y-90220800D02*
X30353000Y-82245200D01*
X23647400Y-94018100D02*
X22377400Y-92748100D01*
X30353000Y-82245200D02*
X30353000Y-65989200D01*
X23647400Y-90703400D02*
X31597600Y-82753200D01*
X23647400Y-91478100D02*
X23647400Y-90703400D01*
X31597600Y-82753200D02*
X31597600Y-66580285D01*
X31597600Y-66580285D02*
X31597600Y-66014600D01*
X11544300Y-90792300D02*
X20421600Y-90792300D01*
X20421600Y-90792300D02*
X21107400Y-91478100D01*
X11544300Y-93332300D02*
X20421600Y-93332300D01*
X20421600Y-93332300D02*
X21107400Y-94018100D01*
X30000000Y-21136600D02*
X30000000Y-23211800D01*
X29307800Y-25911800D02*
X28270200Y-26949400D01*
X30000000Y-25911800D02*
X29307800Y-25911800D01*
X28270200Y-26949400D02*
X28270200Y-43281600D01*
X28270200Y-43281600D02*
X30784800Y-45796200D01*
X30784800Y-45796200D02*
X31597600Y-45796200D01*
X32238000Y-47548800D02*
X32238000Y-46436600D01*
X32238000Y-46436600D02*
X31597600Y-45796200D01*
X32308800Y-47478000D02*
X32238000Y-47548800D01*
X29692600Y-45821600D02*
X29692600Y-47503400D01*
X29692600Y-47503400D02*
X29738000Y-47548800D01*
X25831800Y-80416400D02*
X24311600Y-80416400D01*
X11023600Y-80441800D02*
X12573633Y-80441800D01*
X12573633Y-80441800D02*
X12584405Y-80452572D01*
X27834600Y-61040000D02*
X27838400Y-61036200D01*
X26390600Y-61040000D02*
X27834600Y-61040000D01*
X18135600Y-68554600D02*
X26644600Y-68554600D01*
X26644600Y-68554600D02*
X26670000Y-68580000D01*
X50495200Y-68580000D02*
X35636200Y-68580000D01*
X51612800Y-67462400D02*
X50495200Y-68580000D01*
X15290800Y-71399400D02*
X15290800Y-78994000D01*
X18135600Y-68554600D02*
X15290800Y-71399400D01*
X18491200Y-60619598D02*
X18705998Y-60404800D01*
X18491200Y-62124600D02*
X18491200Y-60619598D01*
X51663600Y-61341000D02*
X52857400Y-60147200D01*
X51663600Y-61896000D02*
X51663600Y-61341000D01*
X16306800Y-59588400D02*
X16306800Y-61845200D01*
X16306800Y-61845200D02*
X16586200Y-62124600D01*
X49784000Y-60528200D02*
X50317400Y-59994800D01*
X49784000Y-61870600D02*
X49784000Y-60528200D01*
D31*
X19735800Y-41351200D02*
X19710400Y-41376600D01*
X21305200Y-41351200D02*
X19735800Y-41351200D01*
X21317466Y-44999107D02*
X21317466Y-43170307D01*
X19618493Y-44999107D02*
X19608800Y-45008800D01*
X21317466Y-44999107D02*
X19618493Y-44999107D01*
D29*
X10441551Y-36992847D02*
X10041552Y-36592848D01*
X12217400Y-40563800D02*
X12217400Y-38768696D01*
X12217400Y-38768696D02*
X10441551Y-36992847D01*
X762000Y-23774400D02*
X1977400Y-23774400D01*
X1977400Y-23774400D02*
X2286000Y-23465800D01*
D31*
X54909400Y-41529000D02*
X54884000Y-41503600D01*
X54884000Y-41503600D02*
X54058085Y-41503600D01*
X54058085Y-41503600D02*
X53492400Y-41503600D01*
D29*
X54909400Y-41529000D02*
X54985600Y-41605200D01*
X53340000Y-45237400D02*
X53314600Y-45262800D01*
D31*
X54985600Y-45237400D02*
X53340000Y-45237400D01*
X54985600Y-43434000D02*
X54985600Y-45237400D01*
D29*
X40894000Y-40563800D02*
X40792400Y-40462200D01*
X46634400Y-40563800D02*
X40894000Y-40563800D01*
D32*
X17809200Y-36470600D02*
X18135600Y-36144200D01*
X15519400Y-36470600D02*
X17809200Y-36470600D01*
X11586200Y-36470600D02*
X11582400Y-36474400D01*
X13614400Y-36470600D02*
X11586200Y-36470600D01*
X13614400Y-36470600D02*
X15519400Y-36470600D01*
X47621200Y-36648400D02*
X47523400Y-36550600D01*
X49834800Y-36648400D02*
X47621200Y-36648400D01*
X53896210Y-36648400D02*
X53900010Y-36652200D01*
X51739800Y-36648400D02*
X53896210Y-36648400D01*
X49834800Y-36648400D02*
X51739800Y-36648400D01*
D31*
X14884400Y-42570400D02*
X14014399Y-41700399D01*
X14014399Y-41700399D02*
X13614400Y-41300400D01*
X14884400Y-46659800D02*
X14884400Y-42570400D01*
X13614400Y-41300400D02*
X13614400Y-39170600D01*
X17830800Y-46710600D02*
X17830800Y-41482000D01*
X17830800Y-41482000D02*
X15519400Y-39170600D01*
X49834800Y-39348400D02*
X49834800Y-44932598D01*
X48558397Y-46209001D02*
X48158398Y-46609000D01*
X49834800Y-44932598D02*
X48558397Y-46209001D01*
X49809400Y-41554400D02*
X47987485Y-41554400D01*
X47987485Y-41554400D02*
X47421800Y-41554400D01*
X49834800Y-41579800D02*
X49809400Y-41554400D01*
D29*
X49834800Y-39348400D02*
X49834800Y-41579800D01*
X51739800Y-46583600D02*
X51841400Y-46685200D01*
D31*
X51739800Y-39348400D02*
X51739800Y-46583600D01*
X7380600Y-4597400D02*
X7380600Y-1839600D01*
X8636000Y-584200D02*
X10515600Y-584200D01*
X7380600Y-1839600D02*
X8636000Y-584200D01*
X33299400Y-6502400D02*
X31065200Y-8736600D01*
X33299400Y-3759200D02*
X33299400Y-6502400D01*
X31065200Y-8736600D02*
X30099000Y-8736600D01*
D29*
X30099000Y-8736600D02*
X30099000Y-9586600D01*
X20421600Y-62124600D02*
X20421600Y-60645571D01*
X20421600Y-60645571D02*
X20181410Y-60405381D01*
X53517800Y-60833000D02*
X54203600Y-60147200D01*
X53517800Y-61896000D02*
X53517800Y-60833000D01*
D33*
G36*
X2577513Y-55877057D02*
X2047080Y-56231480D01*
X1692657Y-56761913D01*
X1568200Y-57387600D01*
X1692657Y-58013287D01*
X2047080Y-58543720D01*
X2152989Y-58614486D01*
X1995391Y-58719791D01*
X1855043Y-58929835D01*
X1818493Y-59113585D01*
X1692657Y-59301913D01*
X1568200Y-59927600D01*
X1692657Y-60553287D01*
X1818493Y-60741615D01*
X1855043Y-60925365D01*
X1995391Y-61135409D01*
X2205435Y-61275757D01*
X2389185Y-61312307D01*
X2577513Y-61438143D01*
X3203200Y-61562600D01*
X7184595Y-61562600D01*
X7184600Y-61562601D01*
X7810288Y-61438143D01*
X8340720Y-61083720D01*
X8369719Y-61054720D01*
X8724143Y-60524288D01*
X8848600Y-59898600D01*
X8724143Y-59272912D01*
X8369719Y-58742481D01*
X8299675Y-58695679D01*
X8296409Y-58690791D01*
X8233266Y-58648600D01*
X8296409Y-58606409D01*
X8299675Y-58601521D01*
X8369719Y-58554719D01*
X8724142Y-58024287D01*
X8848600Y-57398600D01*
X8724142Y-56772912D01*
X8369719Y-56242480D01*
X8358720Y-56231480D01*
X7828288Y-55877057D01*
X7460003Y-55803800D01*
X20101398Y-55803800D01*
X19494238Y-56410960D01*
X18421600Y-56410960D01*
X18173835Y-56460243D01*
X17963791Y-56600591D01*
X17823443Y-56810635D01*
X17774160Y-57058400D01*
X17774160Y-58308400D01*
X17823443Y-58556165D01*
X17963791Y-58766209D01*
X18173835Y-58906557D01*
X18411600Y-58953851D01*
X18411600Y-59049600D01*
X18413683Y-59060071D01*
X18396180Y-59102223D01*
X18395909Y-59413055D01*
X18120483Y-59526858D01*
X17829079Y-59817754D01*
X17671178Y-60198023D01*
X17670819Y-60609771D01*
X17728579Y-60749561D01*
X17593435Y-60776443D01*
X17538700Y-60813016D01*
X17483965Y-60776443D01*
X17236200Y-60727160D01*
X17066800Y-60727160D01*
X17066800Y-60292161D01*
X17183719Y-60175446D01*
X17341620Y-59795177D01*
X17341979Y-59383429D01*
X17184742Y-59002885D01*
X16893846Y-58711481D01*
X16513577Y-58553580D01*
X16101829Y-58553221D01*
X15721285Y-58710458D01*
X15429881Y-59001354D01*
X15271980Y-59381623D01*
X15271621Y-59793371D01*
X15428858Y-60173915D01*
X15546800Y-60292063D01*
X15546800Y-60871081D01*
X15478391Y-60916791D01*
X15338043Y-61126835D01*
X15288760Y-61374600D01*
X15288760Y-62874600D01*
X15338043Y-63122365D01*
X15478391Y-63332409D01*
X15688435Y-63472757D01*
X15936200Y-63522040D01*
X17236200Y-63522040D01*
X17483965Y-63472757D01*
X17538700Y-63436184D01*
X17593435Y-63472757D01*
X17841200Y-63522040D01*
X19141200Y-63522040D01*
X19388965Y-63472757D01*
X19456400Y-63427698D01*
X19523835Y-63472757D01*
X19771600Y-63522040D01*
X21071600Y-63522040D01*
X21319365Y-63472757D01*
X21529409Y-63332409D01*
X21669757Y-63122365D01*
X21719040Y-62874600D01*
X21719040Y-61374600D01*
X21669757Y-61126835D01*
X21529409Y-60916791D01*
X21319365Y-60776443D01*
X21181600Y-60749040D01*
X21181600Y-60695557D01*
X21216230Y-60612158D01*
X21216589Y-60200410D01*
X21059352Y-59819866D01*
X20768456Y-59528462D01*
X20465918Y-59402838D01*
X20466179Y-59104029D01*
X20338022Y-58793863D01*
X20379409Y-58766209D01*
X20421600Y-58703066D01*
X20463791Y-58766209D01*
X20673835Y-58906557D01*
X20921600Y-58955840D01*
X22421600Y-58955840D01*
X22669365Y-58906557D01*
X22879409Y-58766209D01*
X22881727Y-58762739D01*
X22958023Y-58794420D01*
X23369771Y-58794779D01*
X23750315Y-58637542D01*
X24041719Y-58346646D01*
X24199620Y-57966377D01*
X24199979Y-57554629D01*
X24042742Y-57174085D01*
X23751846Y-56882681D01*
X23534425Y-56792400D01*
X27513083Y-56792400D01*
X27481485Y-56805456D01*
X27190081Y-57096352D01*
X27032180Y-57476621D01*
X27031821Y-57888369D01*
X27189058Y-58268913D01*
X27479954Y-58560317D01*
X27587964Y-58605167D01*
X27456085Y-58659658D01*
X27164681Y-58950554D01*
X27006780Y-59330823D01*
X27006508Y-59642560D01*
X25740600Y-59642560D01*
X25492835Y-59691843D01*
X25282791Y-59832191D01*
X25142443Y-60042235D01*
X25093160Y-60290000D01*
X25093160Y-61790000D01*
X25142443Y-62037765D01*
X25282791Y-62247809D01*
X25492835Y-62388157D01*
X25740600Y-62437440D01*
X27040600Y-62437440D01*
X27288365Y-62388157D01*
X27498409Y-62247809D01*
X27619813Y-62066116D01*
X27631623Y-62071020D01*
X28043371Y-62071379D01*
X28423915Y-61914142D01*
X28715319Y-61623246D01*
X28873220Y-61242977D01*
X28873579Y-60831229D01*
X28862892Y-60805364D01*
X28886400Y-60810040D01*
X30386400Y-60810040D01*
X30634165Y-60760757D01*
X30844209Y-60620409D01*
X30984557Y-60410365D01*
X31033840Y-60162600D01*
X31033840Y-58912600D01*
X30989274Y-58688547D01*
X31060757Y-58581565D01*
X31110040Y-58333800D01*
X31110040Y-57083800D01*
X31060757Y-56836035D01*
X31031601Y-56792400D01*
X35686593Y-56792400D01*
X35568200Y-57387600D01*
X35692657Y-58013287D01*
X36047080Y-58543720D01*
X36152989Y-58614486D01*
X35995391Y-58719791D01*
X35855043Y-58929835D01*
X35818493Y-59113585D01*
X35692657Y-59301913D01*
X35568200Y-59927600D01*
X35692657Y-60553287D01*
X35818493Y-60741615D01*
X35855043Y-60925365D01*
X35995391Y-61135409D01*
X36205435Y-61275757D01*
X36389185Y-61312307D01*
X36577513Y-61438143D01*
X37203200Y-61562600D01*
X41169795Y-61562600D01*
X41169800Y-61562601D01*
X41795488Y-61438143D01*
X42042945Y-61272797D01*
X42046165Y-61272157D01*
X42256209Y-61131809D01*
X42258031Y-61129082D01*
X42325920Y-61083720D01*
X42329517Y-61080122D01*
X42329520Y-61080120D01*
X42624365Y-60638852D01*
X42683943Y-60549688D01*
X42808400Y-59924000D01*
X42683943Y-59298312D01*
X42577226Y-59138600D01*
X42329520Y-58767880D01*
X42259473Y-58721076D01*
X42256209Y-58716191D01*
X42193066Y-58674000D01*
X42256209Y-58631809D01*
X42259475Y-58626921D01*
X42329519Y-58580119D01*
X42683942Y-58049687D01*
X42808400Y-57424000D01*
X42683942Y-56798312D01*
X42679992Y-56792400D01*
X50241798Y-56792400D01*
X51670199Y-58220801D01*
X51811518Y-58315227D01*
X51859443Y-58556165D01*
X51999791Y-58766209D01*
X52209835Y-58906557D01*
X52405445Y-58945466D01*
X52405211Y-59214169D01*
X52271885Y-59269258D01*
X51980481Y-59560154D01*
X51822580Y-59940423D01*
X51822434Y-60107364D01*
X51431238Y-60498560D01*
X51228902Y-60498560D01*
X51352220Y-60201577D01*
X51352579Y-59789829D01*
X51195342Y-59409285D01*
X50904446Y-59117881D01*
X50524177Y-58959980D01*
X50112429Y-58959621D01*
X49731885Y-59116858D01*
X49440481Y-59407754D01*
X49282580Y-59788023D01*
X49282434Y-59954964D01*
X49246599Y-59990799D01*
X49081852Y-60237361D01*
X49030868Y-60493674D01*
X48886235Y-60522443D01*
X48676191Y-60662791D01*
X48535843Y-60872835D01*
X48486560Y-61120600D01*
X48486560Y-62620600D01*
X48535843Y-62868365D01*
X48676191Y-63078409D01*
X48886235Y-63218757D01*
X49134000Y-63268040D01*
X50434000Y-63268040D01*
X50681765Y-63218757D01*
X50704793Y-63203370D01*
X50765835Y-63244157D01*
X51013600Y-63293440D01*
X52313600Y-63293440D01*
X52561365Y-63244157D01*
X52590700Y-63224556D01*
X52620035Y-63244157D01*
X52867800Y-63293440D01*
X54167800Y-63293440D01*
X54415565Y-63244157D01*
X54625609Y-63103809D01*
X54765957Y-62893765D01*
X54815240Y-62646000D01*
X54815240Y-61146000D01*
X54790855Y-61023405D01*
X55080519Y-60734246D01*
X55238420Y-60353977D01*
X55238779Y-59942229D01*
X55081542Y-59561685D01*
X54790646Y-59270281D01*
X54475277Y-59139329D01*
X54475543Y-58833729D01*
X54435327Y-58736399D01*
X54457600Y-58703066D01*
X54499791Y-58766209D01*
X54709835Y-58906557D01*
X54957600Y-58955840D01*
X56457600Y-58955840D01*
X56705365Y-58906557D01*
X56915409Y-58766209D01*
X56949815Y-58714717D01*
X57019423Y-58743620D01*
X57431171Y-58743979D01*
X57811715Y-58586742D01*
X58103119Y-58295846D01*
X58261020Y-57915577D01*
X58261379Y-57503829D01*
X58104142Y-57123285D01*
X57813246Y-56831881D01*
X57432977Y-56673980D01*
X57021229Y-56673621D01*
X56976544Y-56692085D01*
X56915409Y-56600591D01*
X56705365Y-56460243D01*
X56457600Y-56410960D01*
X54957600Y-56410960D01*
X54709835Y-56460243D01*
X54499791Y-56600591D01*
X54457600Y-56663734D01*
X54415409Y-56600591D01*
X54205365Y-56460243D01*
X53957600Y-56410960D01*
X52457600Y-56410960D01*
X52209835Y-56460243D01*
X52119563Y-56520561D01*
X51402802Y-55803800D01*
X59265000Y-55803800D01*
X59265000Y-92927610D01*
X58927043Y-94626634D01*
X58005629Y-96005629D01*
X56626634Y-96927043D01*
X54927610Y-97265000D01*
X49190712Y-97265000D01*
X49677829Y-96939520D01*
X50032252Y-96409087D01*
X50156709Y-95783400D01*
X50032252Y-95157713D01*
X49793398Y-94800241D01*
X49941609Y-94701209D01*
X50081957Y-94491165D01*
X50131240Y-94243400D01*
X50131240Y-92243400D01*
X50081957Y-91995635D01*
X49941609Y-91785591D01*
X49731565Y-91645243D01*
X49483800Y-91595960D01*
X46883800Y-91595960D01*
X46636035Y-91645243D01*
X46425991Y-91785591D01*
X46285643Y-91995635D01*
X46236360Y-92243400D01*
X46236360Y-94243400D01*
X46285643Y-94491165D01*
X46425991Y-94701209D01*
X46574202Y-94800241D01*
X46335348Y-95157713D01*
X46210891Y-95783400D01*
X46335348Y-96409087D01*
X46689771Y-96939520D01*
X47176888Y-97265000D01*
X12817740Y-97265000D01*
X13228829Y-96990320D01*
X13583252Y-96459887D01*
X13707709Y-95834200D01*
X13583252Y-95208513D01*
X13228829Y-94678080D01*
X13058395Y-94564200D01*
X13228829Y-94450320D01*
X13468050Y-94092300D01*
X19609960Y-94092300D01*
X19609960Y-94868100D01*
X19659243Y-95115865D01*
X19799591Y-95325909D01*
X20009635Y-95466257D01*
X20257400Y-95515540D01*
X21957400Y-95515540D01*
X22205165Y-95466257D01*
X22415209Y-95325909D01*
X22555557Y-95115865D01*
X22570414Y-95041175D01*
X22805117Y-95276288D01*
X23350719Y-95502842D01*
X23941489Y-95503357D01*
X24487486Y-95277756D01*
X24905588Y-94860383D01*
X24917148Y-94832543D01*
X24927744Y-94858186D01*
X25345117Y-95276288D01*
X25890719Y-95502842D01*
X26481489Y-95503357D01*
X27027486Y-95277756D01*
X27445588Y-94860383D01*
X27457148Y-94832543D01*
X27467744Y-94858186D01*
X27885117Y-95276288D01*
X28430719Y-95502842D01*
X29021489Y-95503357D01*
X29567486Y-95277756D01*
X29985588Y-94860383D01*
X29997148Y-94832543D01*
X30007744Y-94858186D01*
X30425117Y-95276288D01*
X30970719Y-95502842D01*
X31561489Y-95503357D01*
X32107486Y-95277756D01*
X32525588Y-94860383D01*
X32537148Y-94832543D01*
X32547744Y-94858186D01*
X32965117Y-95276288D01*
X33510719Y-95502842D01*
X34101489Y-95503357D01*
X34647486Y-95277756D01*
X35065588Y-94860383D01*
X35077148Y-94832543D01*
X35087744Y-94858186D01*
X35505117Y-95276288D01*
X36050719Y-95502842D01*
X36641489Y-95503357D01*
X37187486Y-95277756D01*
X37605588Y-94860383D01*
X37617148Y-94832543D01*
X37627744Y-94858186D01*
X38045117Y-95276288D01*
X38590719Y-95502842D01*
X39181489Y-95503357D01*
X39727486Y-95277756D01*
X40145588Y-94860383D01*
X40372142Y-94314781D01*
X40372657Y-93724011D01*
X40147056Y-93178014D01*
X39729683Y-92759912D01*
X39701843Y-92748352D01*
X39727486Y-92737756D01*
X40145588Y-92320383D01*
X40372142Y-91774781D01*
X40372657Y-91184011D01*
X40147056Y-90638014D01*
X39729683Y-90219912D01*
X39184081Y-89993358D01*
X38667839Y-89992908D01*
X38715440Y-89753600D01*
X38715440Y-88503600D01*
X38666157Y-88255835D01*
X38525809Y-88045791D01*
X38315765Y-87905443D01*
X38230987Y-87888580D01*
X38347420Y-87608177D01*
X38347779Y-87196429D01*
X38190542Y-86815885D01*
X37899646Y-86524481D01*
X37519377Y-86366580D01*
X37107629Y-86366221D01*
X36727085Y-86523458D01*
X36435681Y-86814354D01*
X36277780Y-87194623D01*
X36277421Y-87606371D01*
X36394861Y-87890599D01*
X36320235Y-87905443D01*
X36110191Y-88045791D01*
X36068000Y-88108934D01*
X36025809Y-88045791D01*
X35815765Y-87905443D01*
X35578000Y-87858149D01*
X35578000Y-69614950D01*
X35841171Y-69615179D01*
X36221715Y-69457942D01*
X36339863Y-69340000D01*
X50495200Y-69340000D01*
X50786039Y-69282148D01*
X51032601Y-69117401D01*
X51652567Y-68497435D01*
X51817771Y-68497579D01*
X52198315Y-68340342D01*
X52489719Y-68049446D01*
X52647620Y-67669177D01*
X52647979Y-67257429D01*
X52490742Y-66876885D01*
X52199846Y-66585481D01*
X51819577Y-66427580D01*
X51407829Y-66427221D01*
X51122453Y-66545135D01*
X50778177Y-66402180D01*
X50611236Y-66402034D01*
X50423001Y-66213799D01*
X50176439Y-66049052D01*
X49885600Y-65991200D01*
X33705802Y-65991200D01*
X33414963Y-66049052D01*
X33168401Y-66213799D01*
X32726235Y-66655965D01*
X32561031Y-66655821D01*
X32357600Y-66739877D01*
X32357600Y-66718361D01*
X32474519Y-66601646D01*
X32632420Y-66221377D01*
X32632779Y-65809629D01*
X32475542Y-65429085D01*
X32184646Y-65137681D01*
X31804377Y-64979780D01*
X31392629Y-64979421D01*
X31012085Y-65136658D01*
X30988191Y-65160510D01*
X30940046Y-65112281D01*
X30559777Y-64954380D01*
X30148029Y-64954021D01*
X29767485Y-65111258D01*
X29476081Y-65402154D01*
X29318180Y-65782423D01*
X29317821Y-66194171D01*
X29475058Y-66574715D01*
X29593000Y-66692863D01*
X29593000Y-66739901D01*
X29391377Y-66656180D01*
X29224436Y-66656034D01*
X28858401Y-66289999D01*
X28611839Y-66125252D01*
X28321000Y-66067400D01*
X14960600Y-66067400D01*
X14669761Y-66125252D01*
X14423199Y-66289999D01*
X14031833Y-66681365D01*
X13866629Y-66681221D01*
X13486085Y-66838458D01*
X13194681Y-67129354D01*
X13036780Y-67509623D01*
X13036421Y-67921371D01*
X13193658Y-68301915D01*
X13484554Y-68593319D01*
X13864823Y-68751220D01*
X14276571Y-68751579D01*
X14657115Y-68594342D01*
X14948519Y-68303446D01*
X15106420Y-67923177D01*
X15106566Y-67756236D01*
X15275402Y-67587400D01*
X15779912Y-67587400D01*
X15779621Y-67921371D01*
X15936858Y-68301915D01*
X16227754Y-68593319D01*
X16608023Y-68751220D01*
X16863955Y-68751443D01*
X14753399Y-70861999D01*
X14588652Y-71108561D01*
X14530800Y-71399400D01*
X14530800Y-78290239D01*
X14413881Y-78406954D01*
X14255980Y-78787223D01*
X14255621Y-79198971D01*
X14412858Y-79579515D01*
X14703754Y-79870919D01*
X15084023Y-80028820D01*
X15495771Y-80029179D01*
X15876315Y-79871942D01*
X16167719Y-79581046D01*
X16325620Y-79200777D01*
X16325979Y-78789029D01*
X16168742Y-78408485D01*
X16050800Y-78290337D01*
X16050800Y-71714202D01*
X18175367Y-69589635D01*
X18340571Y-69589779D01*
X18721115Y-69432542D01*
X18839263Y-69314600D01*
X20580369Y-69314600D01*
X20580221Y-69484581D01*
X20737458Y-69865125D01*
X20855400Y-69983273D01*
X20855400Y-78112439D01*
X20738481Y-78229154D01*
X20580580Y-78609423D01*
X20580221Y-79021171D01*
X20737458Y-79401715D01*
X21028354Y-79693119D01*
X21408623Y-79851020D01*
X21820371Y-79851379D01*
X22026036Y-79766400D01*
X22914160Y-79766400D01*
X22914160Y-81066400D01*
X22963443Y-81314165D01*
X23103791Y-81524209D01*
X23313835Y-81664557D01*
X23561600Y-81713840D01*
X25061600Y-81713840D01*
X25309365Y-81664557D01*
X25519409Y-81524209D01*
X25580525Y-81432743D01*
X25625023Y-81451220D01*
X26036771Y-81451579D01*
X26417315Y-81294342D01*
X26708719Y-81003446D01*
X26866620Y-80623177D01*
X26866979Y-80211429D01*
X26709742Y-79830885D01*
X26418846Y-79539481D01*
X26038577Y-79381580D01*
X25626829Y-79381221D01*
X25580680Y-79400289D01*
X25519409Y-79308591D01*
X25309365Y-79168243D01*
X25061600Y-79118960D01*
X23561600Y-79118960D01*
X23313835Y-79168243D01*
X23103791Y-79308591D01*
X22963443Y-79518635D01*
X22914160Y-79766400D01*
X22026036Y-79766400D01*
X22200915Y-79694142D01*
X22492319Y-79403246D01*
X22650220Y-79022977D01*
X22650579Y-78611229D01*
X22493342Y-78230685D01*
X22375400Y-78112537D01*
X22375400Y-69983371D01*
X22492319Y-69866656D01*
X22650220Y-69486387D01*
X22650370Y-69314600D01*
X25940883Y-69314600D01*
X26082954Y-69456919D01*
X26463223Y-69614820D01*
X26874971Y-69615179D01*
X27255515Y-69457942D01*
X27546919Y-69167046D01*
X27704820Y-68786777D01*
X27704893Y-68702524D01*
X27966715Y-68594342D01*
X28258119Y-68303446D01*
X28288026Y-68231422D01*
X28306658Y-68276515D01*
X28597554Y-68567919D01*
X28977823Y-68725820D01*
X29389571Y-68726179D01*
X29593000Y-68642124D01*
X29593000Y-81930398D01*
X21839999Y-89683399D01*
X21675252Y-89929961D01*
X21642915Y-90092530D01*
X21404081Y-89993358D01*
X20813311Y-89992843D01*
X20621557Y-90072074D01*
X20421600Y-90032300D01*
X13518965Y-90032300D01*
X13228829Y-89598080D01*
X12698396Y-89243657D01*
X12072709Y-89119200D01*
X11396891Y-89119200D01*
X10771204Y-89243657D01*
X10240771Y-89598080D01*
X9886348Y-90128513D01*
X9761891Y-90754200D01*
X9886348Y-91379887D01*
X10240771Y-91910320D01*
X10411205Y-92024200D01*
X10240771Y-92138080D01*
X9886348Y-92668513D01*
X9761891Y-93294200D01*
X9886348Y-93919887D01*
X10240771Y-94450320D01*
X10411205Y-94564200D01*
X10240771Y-94678080D01*
X9886348Y-95208513D01*
X9761891Y-95834200D01*
X9886348Y-96459887D01*
X10240771Y-96990320D01*
X10651860Y-97265000D01*
X5072390Y-97265000D01*
X3373366Y-96927043D01*
X1994371Y-96005629D01*
X1072957Y-94626634D01*
X865648Y-93584419D01*
X2184213Y-93584419D01*
X2523755Y-94406172D01*
X3151921Y-95035436D01*
X3973081Y-95376411D01*
X4862219Y-95377187D01*
X5683972Y-95037645D01*
X6313236Y-94409479D01*
X6654211Y-93588319D01*
X6654987Y-92699181D01*
X6315445Y-91877428D01*
X5687279Y-91248164D01*
X4866119Y-90907189D01*
X3976981Y-90906413D01*
X3155228Y-91245955D01*
X2525964Y-91874121D01*
X2184989Y-92695281D01*
X2184213Y-93584419D01*
X865648Y-93584419D01*
X735000Y-92927610D01*
X735000Y-80646771D01*
X9988421Y-80646771D01*
X10145658Y-81027315D01*
X10436554Y-81318719D01*
X10816823Y-81476620D01*
X11228571Y-81476979D01*
X11300899Y-81447094D01*
X11376596Y-81560381D01*
X11586640Y-81700729D01*
X11834405Y-81750012D01*
X13334405Y-81750012D01*
X13582170Y-81700729D01*
X13792214Y-81560381D01*
X13932562Y-81350337D01*
X13981845Y-81102572D01*
X13981845Y-79802572D01*
X13932562Y-79554807D01*
X13792214Y-79344763D01*
X13582170Y-79204415D01*
X13334405Y-79155132D01*
X11834405Y-79155132D01*
X11586640Y-79204415D01*
X11376596Y-79344763D01*
X11312295Y-79440995D01*
X11230377Y-79406980D01*
X10818629Y-79406621D01*
X10438085Y-79563858D01*
X10146681Y-79854754D01*
X9988780Y-80235023D01*
X9988421Y-80646771D01*
X735000Y-80646771D01*
X735000Y-55803800D01*
X2945800Y-55803800D01*
X2577513Y-55877057D01*
X2577513Y-55877057D01*
G37*
X2577513Y-55877057D02*
X2047080Y-56231480D01*
X1692657Y-56761913D01*
X1568200Y-57387600D01*
X1692657Y-58013287D01*
X2047080Y-58543720D01*
X2152989Y-58614486D01*
X1995391Y-58719791D01*
X1855043Y-58929835D01*
X1818493Y-59113585D01*
X1692657Y-59301913D01*
X1568200Y-59927600D01*
X1692657Y-60553287D01*
X1818493Y-60741615D01*
X1855043Y-60925365D01*
X1995391Y-61135409D01*
X2205435Y-61275757D01*
X2389185Y-61312307D01*
X2577513Y-61438143D01*
X3203200Y-61562600D01*
X7184595Y-61562600D01*
X7184600Y-61562601D01*
X7810288Y-61438143D01*
X8340720Y-61083720D01*
X8369719Y-61054720D01*
X8724143Y-60524288D01*
X8848600Y-59898600D01*
X8724143Y-59272912D01*
X8369719Y-58742481D01*
X8299675Y-58695679D01*
X8296409Y-58690791D01*
X8233266Y-58648600D01*
X8296409Y-58606409D01*
X8299675Y-58601521D01*
X8369719Y-58554719D01*
X8724142Y-58024287D01*
X8848600Y-57398600D01*
X8724142Y-56772912D01*
X8369719Y-56242480D01*
X8358720Y-56231480D01*
X7828288Y-55877057D01*
X7460003Y-55803800D01*
X20101398Y-55803800D01*
X19494238Y-56410960D01*
X18421600Y-56410960D01*
X18173835Y-56460243D01*
X17963791Y-56600591D01*
X17823443Y-56810635D01*
X17774160Y-57058400D01*
X17774160Y-58308400D01*
X17823443Y-58556165D01*
X17963791Y-58766209D01*
X18173835Y-58906557D01*
X18411600Y-58953851D01*
X18411600Y-59049600D01*
X18413683Y-59060071D01*
X18396180Y-59102223D01*
X18395909Y-59413055D01*
X18120483Y-59526858D01*
X17829079Y-59817754D01*
X17671178Y-60198023D01*
X17670819Y-60609771D01*
X17728579Y-60749561D01*
X17593435Y-60776443D01*
X17538700Y-60813016D01*
X17483965Y-60776443D01*
X17236200Y-60727160D01*
X17066800Y-60727160D01*
X17066800Y-60292161D01*
X17183719Y-60175446D01*
X17341620Y-59795177D01*
X17341979Y-59383429D01*
X17184742Y-59002885D01*
X16893846Y-58711481D01*
X16513577Y-58553580D01*
X16101829Y-58553221D01*
X15721285Y-58710458D01*
X15429881Y-59001354D01*
X15271980Y-59381623D01*
X15271621Y-59793371D01*
X15428858Y-60173915D01*
X15546800Y-60292063D01*
X15546800Y-60871081D01*
X15478391Y-60916791D01*
X15338043Y-61126835D01*
X15288760Y-61374600D01*
X15288760Y-62874600D01*
X15338043Y-63122365D01*
X15478391Y-63332409D01*
X15688435Y-63472757D01*
X15936200Y-63522040D01*
X17236200Y-63522040D01*
X17483965Y-63472757D01*
X17538700Y-63436184D01*
X17593435Y-63472757D01*
X17841200Y-63522040D01*
X19141200Y-63522040D01*
X19388965Y-63472757D01*
X19456400Y-63427698D01*
X19523835Y-63472757D01*
X19771600Y-63522040D01*
X21071600Y-63522040D01*
X21319365Y-63472757D01*
X21529409Y-63332409D01*
X21669757Y-63122365D01*
X21719040Y-62874600D01*
X21719040Y-61374600D01*
X21669757Y-61126835D01*
X21529409Y-60916791D01*
X21319365Y-60776443D01*
X21181600Y-60749040D01*
X21181600Y-60695557D01*
X21216230Y-60612158D01*
X21216589Y-60200410D01*
X21059352Y-59819866D01*
X20768456Y-59528462D01*
X20465918Y-59402838D01*
X20466179Y-59104029D01*
X20338022Y-58793863D01*
X20379409Y-58766209D01*
X20421600Y-58703066D01*
X20463791Y-58766209D01*
X20673835Y-58906557D01*
X20921600Y-58955840D01*
X22421600Y-58955840D01*
X22669365Y-58906557D01*
X22879409Y-58766209D01*
X22881727Y-58762739D01*
X22958023Y-58794420D01*
X23369771Y-58794779D01*
X23750315Y-58637542D01*
X24041719Y-58346646D01*
X24199620Y-57966377D01*
X24199979Y-57554629D01*
X24042742Y-57174085D01*
X23751846Y-56882681D01*
X23534425Y-56792400D01*
X27513083Y-56792400D01*
X27481485Y-56805456D01*
X27190081Y-57096352D01*
X27032180Y-57476621D01*
X27031821Y-57888369D01*
X27189058Y-58268913D01*
X27479954Y-58560317D01*
X27587964Y-58605167D01*
X27456085Y-58659658D01*
X27164681Y-58950554D01*
X27006780Y-59330823D01*
X27006508Y-59642560D01*
X25740600Y-59642560D01*
X25492835Y-59691843D01*
X25282791Y-59832191D01*
X25142443Y-60042235D01*
X25093160Y-60290000D01*
X25093160Y-61790000D01*
X25142443Y-62037765D01*
X25282791Y-62247809D01*
X25492835Y-62388157D01*
X25740600Y-62437440D01*
X27040600Y-62437440D01*
X27288365Y-62388157D01*
X27498409Y-62247809D01*
X27619813Y-62066116D01*
X27631623Y-62071020D01*
X28043371Y-62071379D01*
X28423915Y-61914142D01*
X28715319Y-61623246D01*
X28873220Y-61242977D01*
X28873579Y-60831229D01*
X28862892Y-60805364D01*
X28886400Y-60810040D01*
X30386400Y-60810040D01*
X30634165Y-60760757D01*
X30844209Y-60620409D01*
X30984557Y-60410365D01*
X31033840Y-60162600D01*
X31033840Y-58912600D01*
X30989274Y-58688547D01*
X31060757Y-58581565D01*
X31110040Y-58333800D01*
X31110040Y-57083800D01*
X31060757Y-56836035D01*
X31031601Y-56792400D01*
X35686593Y-56792400D01*
X35568200Y-57387600D01*
X35692657Y-58013287D01*
X36047080Y-58543720D01*
X36152989Y-58614486D01*
X35995391Y-58719791D01*
X35855043Y-58929835D01*
X35818493Y-59113585D01*
X35692657Y-59301913D01*
X35568200Y-59927600D01*
X35692657Y-60553287D01*
X35818493Y-60741615D01*
X35855043Y-60925365D01*
X35995391Y-61135409D01*
X36205435Y-61275757D01*
X36389185Y-61312307D01*
X36577513Y-61438143D01*
X37203200Y-61562600D01*
X41169795Y-61562600D01*
X41169800Y-61562601D01*
X41795488Y-61438143D01*
X42042945Y-61272797D01*
X42046165Y-61272157D01*
X42256209Y-61131809D01*
X42258031Y-61129082D01*
X42325920Y-61083720D01*
X42329517Y-61080122D01*
X42329520Y-61080120D01*
X42624365Y-60638852D01*
X42683943Y-60549688D01*
X42808400Y-59924000D01*
X42683943Y-59298312D01*
X42577226Y-59138600D01*
X42329520Y-58767880D01*
X42259473Y-58721076D01*
X42256209Y-58716191D01*
X42193066Y-58674000D01*
X42256209Y-58631809D01*
X42259475Y-58626921D01*
X42329519Y-58580119D01*
X42683942Y-58049687D01*
X42808400Y-57424000D01*
X42683942Y-56798312D01*
X42679992Y-56792400D01*
X50241798Y-56792400D01*
X51670199Y-58220801D01*
X51811518Y-58315227D01*
X51859443Y-58556165D01*
X51999791Y-58766209D01*
X52209835Y-58906557D01*
X52405445Y-58945466D01*
X52405211Y-59214169D01*
X52271885Y-59269258D01*
X51980481Y-59560154D01*
X51822580Y-59940423D01*
X51822434Y-60107364D01*
X51431238Y-60498560D01*
X51228902Y-60498560D01*
X51352220Y-60201577D01*
X51352579Y-59789829D01*
X51195342Y-59409285D01*
X50904446Y-59117881D01*
X50524177Y-58959980D01*
X50112429Y-58959621D01*
X49731885Y-59116858D01*
X49440481Y-59407754D01*
X49282580Y-59788023D01*
X49282434Y-59954964D01*
X49246599Y-59990799D01*
X49081852Y-60237361D01*
X49030868Y-60493674D01*
X48886235Y-60522443D01*
X48676191Y-60662791D01*
X48535843Y-60872835D01*
X48486560Y-61120600D01*
X48486560Y-62620600D01*
X48535843Y-62868365D01*
X48676191Y-63078409D01*
X48886235Y-63218757D01*
X49134000Y-63268040D01*
X50434000Y-63268040D01*
X50681765Y-63218757D01*
X50704793Y-63203370D01*
X50765835Y-63244157D01*
X51013600Y-63293440D01*
X52313600Y-63293440D01*
X52561365Y-63244157D01*
X52590700Y-63224556D01*
X52620035Y-63244157D01*
X52867800Y-63293440D01*
X54167800Y-63293440D01*
X54415565Y-63244157D01*
X54625609Y-63103809D01*
X54765957Y-62893765D01*
X54815240Y-62646000D01*
X54815240Y-61146000D01*
X54790855Y-61023405D01*
X55080519Y-60734246D01*
X55238420Y-60353977D01*
X55238779Y-59942229D01*
X55081542Y-59561685D01*
X54790646Y-59270281D01*
X54475277Y-59139329D01*
X54475543Y-58833729D01*
X54435327Y-58736399D01*
X54457600Y-58703066D01*
X54499791Y-58766209D01*
X54709835Y-58906557D01*
X54957600Y-58955840D01*
X56457600Y-58955840D01*
X56705365Y-58906557D01*
X56915409Y-58766209D01*
X56949815Y-58714717D01*
X57019423Y-58743620D01*
X57431171Y-58743979D01*
X57811715Y-58586742D01*
X58103119Y-58295846D01*
X58261020Y-57915577D01*
X58261379Y-57503829D01*
X58104142Y-57123285D01*
X57813246Y-56831881D01*
X57432977Y-56673980D01*
X57021229Y-56673621D01*
X56976544Y-56692085D01*
X56915409Y-56600591D01*
X56705365Y-56460243D01*
X56457600Y-56410960D01*
X54957600Y-56410960D01*
X54709835Y-56460243D01*
X54499791Y-56600591D01*
X54457600Y-56663734D01*
X54415409Y-56600591D01*
X54205365Y-56460243D01*
X53957600Y-56410960D01*
X52457600Y-56410960D01*
X52209835Y-56460243D01*
X52119563Y-56520561D01*
X51402802Y-55803800D01*
X59265000Y-55803800D01*
X59265000Y-92927610D01*
X58927043Y-94626634D01*
X58005629Y-96005629D01*
X56626634Y-96927043D01*
X54927610Y-97265000D01*
X49190712Y-97265000D01*
X49677829Y-96939520D01*
X50032252Y-96409087D01*
X50156709Y-95783400D01*
X50032252Y-95157713D01*
X49793398Y-94800241D01*
X49941609Y-94701209D01*
X50081957Y-94491165D01*
X50131240Y-94243400D01*
X50131240Y-92243400D01*
X50081957Y-91995635D01*
X49941609Y-91785591D01*
X49731565Y-91645243D01*
X49483800Y-91595960D01*
X46883800Y-91595960D01*
X46636035Y-91645243D01*
X46425991Y-91785591D01*
X46285643Y-91995635D01*
X46236360Y-92243400D01*
X46236360Y-94243400D01*
X46285643Y-94491165D01*
X46425991Y-94701209D01*
X46574202Y-94800241D01*
X46335348Y-95157713D01*
X46210891Y-95783400D01*
X46335348Y-96409087D01*
X46689771Y-96939520D01*
X47176888Y-97265000D01*
X12817740Y-97265000D01*
X13228829Y-96990320D01*
X13583252Y-96459887D01*
X13707709Y-95834200D01*
X13583252Y-95208513D01*
X13228829Y-94678080D01*
X13058395Y-94564200D01*
X13228829Y-94450320D01*
X13468050Y-94092300D01*
X19609960Y-94092300D01*
X19609960Y-94868100D01*
X19659243Y-95115865D01*
X19799591Y-95325909D01*
X20009635Y-95466257D01*
X20257400Y-95515540D01*
X21957400Y-95515540D01*
X22205165Y-95466257D01*
X22415209Y-95325909D01*
X22555557Y-95115865D01*
X22570414Y-95041175D01*
X22805117Y-95276288D01*
X23350719Y-95502842D01*
X23941489Y-95503357D01*
X24487486Y-95277756D01*
X24905588Y-94860383D01*
X24917148Y-94832543D01*
X24927744Y-94858186D01*
X25345117Y-95276288D01*
X25890719Y-95502842D01*
X26481489Y-95503357D01*
X27027486Y-95277756D01*
X27445588Y-94860383D01*
X27457148Y-94832543D01*
X27467744Y-94858186D01*
X27885117Y-95276288D01*
X28430719Y-95502842D01*
X29021489Y-95503357D01*
X29567486Y-95277756D01*
X29985588Y-94860383D01*
X29997148Y-94832543D01*
X30007744Y-94858186D01*
X30425117Y-95276288D01*
X30970719Y-95502842D01*
X31561489Y-95503357D01*
X32107486Y-95277756D01*
X32525588Y-94860383D01*
X32537148Y-94832543D01*
X32547744Y-94858186D01*
X32965117Y-95276288D01*
X33510719Y-95502842D01*
X34101489Y-95503357D01*
X34647486Y-95277756D01*
X35065588Y-94860383D01*
X35077148Y-94832543D01*
X35087744Y-94858186D01*
X35505117Y-95276288D01*
X36050719Y-95502842D01*
X36641489Y-95503357D01*
X37187486Y-95277756D01*
X37605588Y-94860383D01*
X37617148Y-94832543D01*
X37627744Y-94858186D01*
X38045117Y-95276288D01*
X38590719Y-95502842D01*
X39181489Y-95503357D01*
X39727486Y-95277756D01*
X40145588Y-94860383D01*
X40372142Y-94314781D01*
X40372657Y-93724011D01*
X40147056Y-93178014D01*
X39729683Y-92759912D01*
X39701843Y-92748352D01*
X39727486Y-92737756D01*
X40145588Y-92320383D01*
X40372142Y-91774781D01*
X40372657Y-91184011D01*
X40147056Y-90638014D01*
X39729683Y-90219912D01*
X39184081Y-89993358D01*
X38667839Y-89992908D01*
X38715440Y-89753600D01*
X38715440Y-88503600D01*
X38666157Y-88255835D01*
X38525809Y-88045791D01*
X38315765Y-87905443D01*
X38230987Y-87888580D01*
X38347420Y-87608177D01*
X38347779Y-87196429D01*
X38190542Y-86815885D01*
X37899646Y-86524481D01*
X37519377Y-86366580D01*
X37107629Y-86366221D01*
X36727085Y-86523458D01*
X36435681Y-86814354D01*
X36277780Y-87194623D01*
X36277421Y-87606371D01*
X36394861Y-87890599D01*
X36320235Y-87905443D01*
X36110191Y-88045791D01*
X36068000Y-88108934D01*
X36025809Y-88045791D01*
X35815765Y-87905443D01*
X35578000Y-87858149D01*
X35578000Y-69614950D01*
X35841171Y-69615179D01*
X36221715Y-69457942D01*
X36339863Y-69340000D01*
X50495200Y-69340000D01*
X50786039Y-69282148D01*
X51032601Y-69117401D01*
X51652567Y-68497435D01*
X51817771Y-68497579D01*
X52198315Y-68340342D01*
X52489719Y-68049446D01*
X52647620Y-67669177D01*
X52647979Y-67257429D01*
X52490742Y-66876885D01*
X52199846Y-66585481D01*
X51819577Y-66427580D01*
X51407829Y-66427221D01*
X51122453Y-66545135D01*
X50778177Y-66402180D01*
X50611236Y-66402034D01*
X50423001Y-66213799D01*
X50176439Y-66049052D01*
X49885600Y-65991200D01*
X33705802Y-65991200D01*
X33414963Y-66049052D01*
X33168401Y-66213799D01*
X32726235Y-66655965D01*
X32561031Y-66655821D01*
X32357600Y-66739877D01*
X32357600Y-66718361D01*
X32474519Y-66601646D01*
X32632420Y-66221377D01*
X32632779Y-65809629D01*
X32475542Y-65429085D01*
X32184646Y-65137681D01*
X31804377Y-64979780D01*
X31392629Y-64979421D01*
X31012085Y-65136658D01*
X30988191Y-65160510D01*
X30940046Y-65112281D01*
X30559777Y-64954380D01*
X30148029Y-64954021D01*
X29767485Y-65111258D01*
X29476081Y-65402154D01*
X29318180Y-65782423D01*
X29317821Y-66194171D01*
X29475058Y-66574715D01*
X29593000Y-66692863D01*
X29593000Y-66739901D01*
X29391377Y-66656180D01*
X29224436Y-66656034D01*
X28858401Y-66289999D01*
X28611839Y-66125252D01*
X28321000Y-66067400D01*
X14960600Y-66067400D01*
X14669761Y-66125252D01*
X14423199Y-66289999D01*
X14031833Y-66681365D01*
X13866629Y-66681221D01*
X13486085Y-66838458D01*
X13194681Y-67129354D01*
X13036780Y-67509623D01*
X13036421Y-67921371D01*
X13193658Y-68301915D01*
X13484554Y-68593319D01*
X13864823Y-68751220D01*
X14276571Y-68751579D01*
X14657115Y-68594342D01*
X14948519Y-68303446D01*
X15106420Y-67923177D01*
X15106566Y-67756236D01*
X15275402Y-67587400D01*
X15779912Y-67587400D01*
X15779621Y-67921371D01*
X15936858Y-68301915D01*
X16227754Y-68593319D01*
X16608023Y-68751220D01*
X16863955Y-68751443D01*
X14753399Y-70861999D01*
X14588652Y-71108561D01*
X14530800Y-71399400D01*
X14530800Y-78290239D01*
X14413881Y-78406954D01*
X14255980Y-78787223D01*
X14255621Y-79198971D01*
X14412858Y-79579515D01*
X14703754Y-79870919D01*
X15084023Y-80028820D01*
X15495771Y-80029179D01*
X15876315Y-79871942D01*
X16167719Y-79581046D01*
X16325620Y-79200777D01*
X16325979Y-78789029D01*
X16168742Y-78408485D01*
X16050800Y-78290337D01*
X16050800Y-71714202D01*
X18175367Y-69589635D01*
X18340571Y-69589779D01*
X18721115Y-69432542D01*
X18839263Y-69314600D01*
X20580369Y-69314600D01*
X20580221Y-69484581D01*
X20737458Y-69865125D01*
X20855400Y-69983273D01*
X20855400Y-78112439D01*
X20738481Y-78229154D01*
X20580580Y-78609423D01*
X20580221Y-79021171D01*
X20737458Y-79401715D01*
X21028354Y-79693119D01*
X21408623Y-79851020D01*
X21820371Y-79851379D01*
X22026036Y-79766400D01*
X22914160Y-79766400D01*
X22914160Y-81066400D01*
X22963443Y-81314165D01*
X23103791Y-81524209D01*
X23313835Y-81664557D01*
X23561600Y-81713840D01*
X25061600Y-81713840D01*
X25309365Y-81664557D01*
X25519409Y-81524209D01*
X25580525Y-81432743D01*
X25625023Y-81451220D01*
X26036771Y-81451579D01*
X26417315Y-81294342D01*
X26708719Y-81003446D01*
X26866620Y-80623177D01*
X26866979Y-80211429D01*
X26709742Y-79830885D01*
X26418846Y-79539481D01*
X26038577Y-79381580D01*
X25626829Y-79381221D01*
X25580680Y-79400289D01*
X25519409Y-79308591D01*
X25309365Y-79168243D01*
X25061600Y-79118960D01*
X23561600Y-79118960D01*
X23313835Y-79168243D01*
X23103791Y-79308591D01*
X22963443Y-79518635D01*
X22914160Y-79766400D01*
X22026036Y-79766400D01*
X22200915Y-79694142D01*
X22492319Y-79403246D01*
X22650220Y-79022977D01*
X22650579Y-78611229D01*
X22493342Y-78230685D01*
X22375400Y-78112537D01*
X22375400Y-69983371D01*
X22492319Y-69866656D01*
X22650220Y-69486387D01*
X22650370Y-69314600D01*
X25940883Y-69314600D01*
X26082954Y-69456919D01*
X26463223Y-69614820D01*
X26874971Y-69615179D01*
X27255515Y-69457942D01*
X27546919Y-69167046D01*
X27704820Y-68786777D01*
X27704893Y-68702524D01*
X27966715Y-68594342D01*
X28258119Y-68303446D01*
X28288026Y-68231422D01*
X28306658Y-68276515D01*
X28597554Y-68567919D01*
X28977823Y-68725820D01*
X29389571Y-68726179D01*
X29593000Y-68642124D01*
X29593000Y-81930398D01*
X21839999Y-89683399D01*
X21675252Y-89929961D01*
X21642915Y-90092530D01*
X21404081Y-89993358D01*
X20813311Y-89992843D01*
X20621557Y-90072074D01*
X20421600Y-90032300D01*
X13518965Y-90032300D01*
X13228829Y-89598080D01*
X12698396Y-89243657D01*
X12072709Y-89119200D01*
X11396891Y-89119200D01*
X10771204Y-89243657D01*
X10240771Y-89598080D01*
X9886348Y-90128513D01*
X9761891Y-90754200D01*
X9886348Y-91379887D01*
X10240771Y-91910320D01*
X10411205Y-92024200D01*
X10240771Y-92138080D01*
X9886348Y-92668513D01*
X9761891Y-93294200D01*
X9886348Y-93919887D01*
X10240771Y-94450320D01*
X10411205Y-94564200D01*
X10240771Y-94678080D01*
X9886348Y-95208513D01*
X9761891Y-95834200D01*
X9886348Y-96459887D01*
X10240771Y-96990320D01*
X10651860Y-97265000D01*
X5072390Y-97265000D01*
X3373366Y-96927043D01*
X1994371Y-96005629D01*
X1072957Y-94626634D01*
X865648Y-93584419D01*
X2184213Y-93584419D01*
X2523755Y-94406172D01*
X3151921Y-95035436D01*
X3973081Y-95376411D01*
X4862219Y-95377187D01*
X5683972Y-95037645D01*
X6313236Y-94409479D01*
X6654211Y-93588319D01*
X6654987Y-92699181D01*
X6315445Y-91877428D01*
X5687279Y-91248164D01*
X4866119Y-90907189D01*
X3976981Y-90906413D01*
X3155228Y-91245955D01*
X2525964Y-91874121D01*
X2184989Y-92695281D01*
X2184213Y-93584419D01*
X865648Y-93584419D01*
X735000Y-92927610D01*
X735000Y-80646771D01*
X9988421Y-80646771D01*
X10145658Y-81027315D01*
X10436554Y-81318719D01*
X10816823Y-81476620D01*
X11228571Y-81476979D01*
X11300899Y-81447094D01*
X11376596Y-81560381D01*
X11586640Y-81700729D01*
X11834405Y-81750012D01*
X13334405Y-81750012D01*
X13582170Y-81700729D01*
X13792214Y-81560381D01*
X13932562Y-81350337D01*
X13981845Y-81102572D01*
X13981845Y-79802572D01*
X13932562Y-79554807D01*
X13792214Y-79344763D01*
X13582170Y-79204415D01*
X13334405Y-79155132D01*
X11834405Y-79155132D01*
X11586640Y-79204415D01*
X11376596Y-79344763D01*
X11312295Y-79440995D01*
X11230377Y-79406980D01*
X10818629Y-79406621D01*
X10438085Y-79563858D01*
X10146681Y-79854754D01*
X9988780Y-80235023D01*
X9988421Y-80646771D01*
X735000Y-80646771D01*
X735000Y-55803800D01*
X2945800Y-55803800D01*
X2577513Y-55877057D01*
G36*
X46137614Y-22014273D02*
X46744452Y-22419748D01*
X47149927Y-23026586D01*
X47294800Y-23754909D01*
X47294800Y-33840214D01*
X47200769Y-34431129D01*
X46932602Y-34954621D01*
X46515190Y-35369019D01*
X45989767Y-35633387D01*
X45398191Y-35723132D01*
X42426812Y-35701601D01*
X42406843Y-35703035D01*
X41785354Y-35797318D01*
X41747321Y-35809432D01*
X41185793Y-36091966D01*
X41153398Y-36115288D01*
X40707303Y-36558163D01*
X40683748Y-36590387D01*
X40397153Y-37149852D01*
X40384763Y-37187797D01*
X40285978Y-37808587D01*
X40284400Y-37828545D01*
X40284400Y-39552230D01*
X40206885Y-39584258D01*
X39915481Y-39875154D01*
X39757580Y-40255423D01*
X39757221Y-40667171D01*
X39914458Y-41047715D01*
X40205354Y-41339119D01*
X40284400Y-41371942D01*
X40284400Y-43408063D01*
X40242765Y-43380243D01*
X39995000Y-43330960D01*
X38745000Y-43330960D01*
X38497235Y-43380243D01*
X38287191Y-43520591D01*
X38146843Y-43730635D01*
X38097560Y-43978400D01*
X38097560Y-45478400D01*
X38105198Y-45516800D01*
X36810509Y-45516800D01*
X36082186Y-45371927D01*
X35965079Y-45293679D01*
X35995357Y-45248365D01*
X36044640Y-45000600D01*
X36044640Y-43500600D01*
X35995357Y-43252835D01*
X35855009Y-43042791D01*
X35644965Y-42902443D01*
X35397200Y-42853160D01*
X34925000Y-42853160D01*
X34925000Y-32543309D01*
X35069873Y-31814986D01*
X35475348Y-31208148D01*
X36082186Y-30802673D01*
X36810509Y-30657800D01*
X40570400Y-30657800D01*
X40595176Y-30655360D01*
X41360543Y-30503119D01*
X41406324Y-30484156D01*
X42055171Y-30050611D01*
X42090211Y-30015571D01*
X42523756Y-29366724D01*
X42542719Y-29320943D01*
X42694960Y-28555576D01*
X42697400Y-28530800D01*
X42697400Y-23754909D01*
X42842273Y-23026586D01*
X43247748Y-22419748D01*
X43854586Y-22014273D01*
X44582909Y-21869400D01*
X45409291Y-21869400D01*
X46137614Y-22014273D01*
X46137614Y-22014273D01*
G37*
X46137614Y-22014273D02*
X46744452Y-22419748D01*
X47149927Y-23026586D01*
X47294800Y-23754909D01*
X47294800Y-33840214D01*
X47200769Y-34431129D01*
X46932602Y-34954621D01*
X46515190Y-35369019D01*
X45989767Y-35633387D01*
X45398191Y-35723132D01*
X42426812Y-35701601D01*
X42406843Y-35703035D01*
X41785354Y-35797318D01*
X41747321Y-35809432D01*
X41185793Y-36091966D01*
X41153398Y-36115288D01*
X40707303Y-36558163D01*
X40683748Y-36590387D01*
X40397153Y-37149852D01*
X40384763Y-37187797D01*
X40285978Y-37808587D01*
X40284400Y-37828545D01*
X40284400Y-39552230D01*
X40206885Y-39584258D01*
X39915481Y-39875154D01*
X39757580Y-40255423D01*
X39757221Y-40667171D01*
X39914458Y-41047715D01*
X40205354Y-41339119D01*
X40284400Y-41371942D01*
X40284400Y-43408063D01*
X40242765Y-43380243D01*
X39995000Y-43330960D01*
X38745000Y-43330960D01*
X38497235Y-43380243D01*
X38287191Y-43520591D01*
X38146843Y-43730635D01*
X38097560Y-43978400D01*
X38097560Y-45478400D01*
X38105198Y-45516800D01*
X36810509Y-45516800D01*
X36082186Y-45371927D01*
X35965079Y-45293679D01*
X35995357Y-45248365D01*
X36044640Y-45000600D01*
X36044640Y-43500600D01*
X35995357Y-43252835D01*
X35855009Y-43042791D01*
X35644965Y-42902443D01*
X35397200Y-42853160D01*
X34925000Y-42853160D01*
X34925000Y-32543309D01*
X35069873Y-31814986D01*
X35475348Y-31208148D01*
X36082186Y-30802673D01*
X36810509Y-30657800D01*
X40570400Y-30657800D01*
X40595176Y-30655360D01*
X41360543Y-30503119D01*
X41406324Y-30484156D01*
X42055171Y-30050611D01*
X42090211Y-30015571D01*
X42523756Y-29366724D01*
X42542719Y-29320943D01*
X42694960Y-28555576D01*
X42697400Y-28530800D01*
X42697400Y-23754909D01*
X42842273Y-23026586D01*
X43247748Y-22419748D01*
X43854586Y-22014273D01*
X44582909Y-21869400D01*
X45409291Y-21869400D01*
X46137614Y-22014273D01*
G36*
X24115814Y-23436673D02*
X24722652Y-23842148D01*
X25128127Y-24448986D01*
X25273000Y-25177309D01*
X25273000Y-48711291D01*
X25128127Y-49439614D01*
X24722652Y-50046452D01*
X24115814Y-50451927D01*
X23387491Y-50596800D01*
X2009992Y-50596800D01*
X1421702Y-50503624D01*
X900009Y-50237808D01*
X735000Y-50072799D01*
X735000Y-46889681D01*
X1282385Y-46523243D01*
X2009901Y-46377613D01*
X2110383Y-46377474D01*
X1896493Y-46697583D01*
X1791066Y-47227600D01*
X1896493Y-47757617D01*
X2196723Y-48206943D01*
X2646049Y-48507173D01*
X3176066Y-48612600D01*
X3230334Y-48612600D01*
X3760351Y-48507173D01*
X3976720Y-48362600D01*
X4203619Y-48362600D01*
X4276591Y-48471809D01*
X4486635Y-48612157D01*
X4734400Y-48661440D01*
X5984400Y-48661440D01*
X6232165Y-48612157D01*
X6442209Y-48471809D01*
X6582557Y-48261765D01*
X6631840Y-48014000D01*
X6631840Y-46514000D01*
X6603444Y-46371242D01*
X13749400Y-46361330D01*
X13749400Y-46659800D01*
X13835797Y-47094146D01*
X14081834Y-47462366D01*
X14450054Y-47708403D01*
X14884400Y-47794800D01*
X15318746Y-47708403D01*
X15686966Y-47462366D01*
X15933003Y-47094146D01*
X16019400Y-46659800D01*
X16019400Y-46358182D01*
X16320744Y-46357764D01*
X16345461Y-46355300D01*
X16695800Y-46285271D01*
X16695800Y-46710600D01*
X16782197Y-47144946D01*
X17028234Y-47513166D01*
X17396454Y-47759203D01*
X17830800Y-47845600D01*
X18265146Y-47759203D01*
X18633366Y-47513166D01*
X18879403Y-47144946D01*
X18965800Y-46710600D01*
X18965800Y-45917984D01*
X19174455Y-46057403D01*
X19608800Y-46143800D01*
X19657530Y-46134107D01*
X20187766Y-46134107D01*
X20319701Y-46222264D01*
X20567466Y-46271547D01*
X22067466Y-46271547D01*
X22315231Y-46222264D01*
X22525275Y-46081916D01*
X22665623Y-45871872D01*
X22714906Y-45624107D01*
X22714906Y-44374107D01*
X22665623Y-44126342D01*
X22637803Y-44084707D01*
X22665623Y-44043072D01*
X22714906Y-43795307D01*
X22714906Y-42545307D01*
X22665623Y-42297542D01*
X22634909Y-42251575D01*
X22653357Y-42223965D01*
X22702640Y-41976200D01*
X22702640Y-40726200D01*
X22653357Y-40478435D01*
X22513009Y-40268391D01*
X22302965Y-40128043D01*
X22055200Y-40078760D01*
X20555200Y-40078760D01*
X20307435Y-40128043D01*
X20175500Y-40216200D01*
X19735800Y-40216200D01*
X19301454Y-40302597D01*
X19008028Y-40498658D01*
X18933234Y-40548634D01*
X18907834Y-40574034D01*
X18735387Y-40832119D01*
X18633366Y-40679434D01*
X18453019Y-40499087D01*
X18460440Y-37129850D01*
X18721115Y-37022142D01*
X19012519Y-36731246D01*
X19170420Y-36350977D01*
X19170779Y-35939229D01*
X19013542Y-35558685D01*
X18722646Y-35267281D01*
X18464778Y-35160205D01*
X18486776Y-25173165D01*
X18632850Y-24446129D01*
X19038600Y-23840688D01*
X19644933Y-23436273D01*
X20372293Y-23291800D01*
X23387491Y-23291800D01*
X24115814Y-23436673D01*
X24115814Y-23436673D01*
G37*
X24115814Y-23436673D02*
X24722652Y-23842148D01*
X25128127Y-24448986D01*
X25273000Y-25177309D01*
X25273000Y-48711291D01*
X25128127Y-49439614D01*
X24722652Y-50046452D01*
X24115814Y-50451927D01*
X23387491Y-50596800D01*
X2009992Y-50596800D01*
X1421702Y-50503624D01*
X900009Y-50237808D01*
X735000Y-50072799D01*
X735000Y-46889681D01*
X1282385Y-46523243D01*
X2009901Y-46377613D01*
X2110383Y-46377474D01*
X1896493Y-46697583D01*
X1791066Y-47227600D01*
X1896493Y-47757617D01*
X2196723Y-48206943D01*
X2646049Y-48507173D01*
X3176066Y-48612600D01*
X3230334Y-48612600D01*
X3760351Y-48507173D01*
X3976720Y-48362600D01*
X4203619Y-48362600D01*
X4276591Y-48471809D01*
X4486635Y-48612157D01*
X4734400Y-48661440D01*
X5984400Y-48661440D01*
X6232165Y-48612157D01*
X6442209Y-48471809D01*
X6582557Y-48261765D01*
X6631840Y-48014000D01*
X6631840Y-46514000D01*
X6603444Y-46371242D01*
X13749400Y-46361330D01*
X13749400Y-46659800D01*
X13835797Y-47094146D01*
X14081834Y-47462366D01*
X14450054Y-47708403D01*
X14884400Y-47794800D01*
X15318746Y-47708403D01*
X15686966Y-47462366D01*
X15933003Y-47094146D01*
X16019400Y-46659800D01*
X16019400Y-46358182D01*
X16320744Y-46357764D01*
X16345461Y-46355300D01*
X16695800Y-46285271D01*
X16695800Y-46710600D01*
X16782197Y-47144946D01*
X17028234Y-47513166D01*
X17396454Y-47759203D01*
X17830800Y-47845600D01*
X18265146Y-47759203D01*
X18633366Y-47513166D01*
X18879403Y-47144946D01*
X18965800Y-46710600D01*
X18965800Y-45917984D01*
X19174455Y-46057403D01*
X19608800Y-46143800D01*
X19657530Y-46134107D01*
X20187766Y-46134107D01*
X20319701Y-46222264D01*
X20567466Y-46271547D01*
X22067466Y-46271547D01*
X22315231Y-46222264D01*
X22525275Y-46081916D01*
X22665623Y-45871872D01*
X22714906Y-45624107D01*
X22714906Y-44374107D01*
X22665623Y-44126342D01*
X22637803Y-44084707D01*
X22665623Y-44043072D01*
X22714906Y-43795307D01*
X22714906Y-42545307D01*
X22665623Y-42297542D01*
X22634909Y-42251575D01*
X22653357Y-42223965D01*
X22702640Y-41976200D01*
X22702640Y-40726200D01*
X22653357Y-40478435D01*
X22513009Y-40268391D01*
X22302965Y-40128043D01*
X22055200Y-40078760D01*
X20555200Y-40078760D01*
X20307435Y-40128043D01*
X20175500Y-40216200D01*
X19735800Y-40216200D01*
X19301454Y-40302597D01*
X19008028Y-40498658D01*
X18933234Y-40548634D01*
X18907834Y-40574034D01*
X18735387Y-40832119D01*
X18633366Y-40679434D01*
X18453019Y-40499087D01*
X18460440Y-37129850D01*
X18721115Y-37022142D01*
X19012519Y-36731246D01*
X19170420Y-36350977D01*
X19170779Y-35939229D01*
X19013542Y-35558685D01*
X18722646Y-35267281D01*
X18464778Y-35160205D01*
X18486776Y-25173165D01*
X18632850Y-24446129D01*
X19038600Y-23840688D01*
X19644933Y-23436273D01*
X20372293Y-23291800D01*
X23387491Y-23291800D01*
X24115814Y-23436673D01*
G36*
X9968014Y-23360473D02*
X10574852Y-23765948D01*
X10980327Y-24372786D01*
X11125200Y-25101109D01*
X11125200Y-33750691D01*
X10980327Y-34479014D01*
X10574852Y-35085852D01*
X9968014Y-35491327D01*
X9239691Y-35636200D01*
X7720148Y-35636200D01*
X7700249Y-35637769D01*
X7081237Y-35735974D01*
X7043392Y-35748292D01*
X6485170Y-36033263D01*
X6452996Y-36056689D01*
X6010385Y-36500440D01*
X5987042Y-36532674D01*
X5703507Y-37091626D01*
X5691286Y-37129502D01*
X5594673Y-37748764D01*
X5593155Y-37768667D01*
X5608219Y-43628977D01*
X5608144Y-43629460D01*
X4734400Y-43629460D01*
X4486635Y-43678743D01*
X4276591Y-43819091D01*
X4136243Y-44029135D01*
X4086960Y-44276900D01*
X4086960Y-45459414D01*
X3725243Y-45516800D01*
X2009992Y-45516800D01*
X1421702Y-45423624D01*
X900009Y-45157808D01*
X735000Y-44992799D01*
X735000Y-31664401D01*
X900009Y-31499392D01*
X1421702Y-31233576D01*
X2009992Y-31140400D01*
X5181779Y-31140400D01*
X5201686Y-31138830D01*
X5820940Y-31040546D01*
X5858798Y-31028218D01*
X6417188Y-30743028D01*
X6449369Y-30719585D01*
X6892017Y-30275516D01*
X6915358Y-30243260D01*
X7198758Y-29683958D01*
X7210964Y-29646060D01*
X7307262Y-29026495D01*
X7308768Y-29006583D01*
X7296262Y-25104619D01*
X7387926Y-24514869D01*
X7653106Y-23991526D01*
X8067295Y-23576007D01*
X8589780Y-23309155D01*
X9179236Y-23215600D01*
X9239691Y-23215600D01*
X9968014Y-23360473D01*
X9968014Y-23360473D01*
G37*
X9968014Y-23360473D02*
X10574852Y-23765948D01*
X10980327Y-24372786D01*
X11125200Y-25101109D01*
X11125200Y-33750691D01*
X10980327Y-34479014D01*
X10574852Y-35085852D01*
X9968014Y-35491327D01*
X9239691Y-35636200D01*
X7720148Y-35636200D01*
X7700249Y-35637769D01*
X7081237Y-35735974D01*
X7043392Y-35748292D01*
X6485170Y-36033263D01*
X6452996Y-36056689D01*
X6010385Y-36500440D01*
X5987042Y-36532674D01*
X5703507Y-37091626D01*
X5691286Y-37129502D01*
X5594673Y-37748764D01*
X5593155Y-37768667D01*
X5608219Y-43628977D01*
X5608144Y-43629460D01*
X4734400Y-43629460D01*
X4486635Y-43678743D01*
X4276591Y-43819091D01*
X4136243Y-44029135D01*
X4086960Y-44276900D01*
X4086960Y-45459414D01*
X3725243Y-45516800D01*
X2009992Y-45516800D01*
X1421702Y-45423624D01*
X900009Y-45157808D01*
X735000Y-44992799D01*
X735000Y-31664401D01*
X900009Y-31499392D01*
X1421702Y-31233576D01*
X2009992Y-31140400D01*
X5181779Y-31140400D01*
X5201686Y-31138830D01*
X5820940Y-31040546D01*
X5858798Y-31028218D01*
X6417188Y-30743028D01*
X6449369Y-30719585D01*
X6892017Y-30275516D01*
X6915358Y-30243260D01*
X7198758Y-29683958D01*
X7210964Y-29646060D01*
X7307262Y-29026495D01*
X7308768Y-29006583D01*
X7296262Y-25104619D01*
X7387926Y-24514869D01*
X7653106Y-23991526D01*
X8067295Y-23576007D01*
X8589780Y-23309155D01*
X9179236Y-23215600D01*
X9239691Y-23215600D01*
X9968014Y-23360473D01*
G36*
X56626634Y-1072957D02*
X58005629Y-1994371D01*
X58927043Y-3373366D01*
X59265000Y-5072390D01*
X59265000Y-15273823D01*
X58692640Y-15654790D01*
X57966402Y-15798800D01*
X43008109Y-15798800D01*
X42279786Y-15653927D01*
X41672948Y-15248452D01*
X41267473Y-14641614D01*
X41122600Y-13913291D01*
X41122600Y-2021906D01*
X41266020Y-1297099D01*
X41639168Y-735000D01*
X54927610Y-735000D01*
X56626634Y-1072957D01*
X56626634Y-1072957D01*
G37*
X56626634Y-1072957D02*
X58005629Y-1994371D01*
X58927043Y-3373366D01*
X59265000Y-5072390D01*
X59265000Y-15273823D01*
X58692640Y-15654790D01*
X57966402Y-15798800D01*
X43008109Y-15798800D01*
X42279786Y-15653927D01*
X41672948Y-15248452D01*
X41267473Y-14641614D01*
X41122600Y-13913291D01*
X41122600Y-2021906D01*
X41266020Y-1297099D01*
X41639168Y-735000D01*
X54927610Y-735000D01*
X56626634Y-1072957D01*
G36*
X19313862Y-1256717D02*
X19459605Y-1984107D01*
X19478589Y-13887407D01*
X19386164Y-14476429D01*
X19120666Y-14998940D01*
X18706562Y-15413704D01*
X18184473Y-15680036D01*
X17595604Y-15773400D01*
X9295125Y-15773400D01*
X8568373Y-15629178D01*
X7962358Y-15225429D01*
X7556436Y-14620861D01*
X7409611Y-13894634D01*
X7398354Y-10753752D01*
X7486162Y-10187535D01*
X7740427Y-9685401D01*
X8137702Y-9286700D01*
X8638922Y-9030637D01*
X9214712Y-8939229D01*
X9219532Y-8938369D01*
X9959105Y-8791535D01*
X10004817Y-8772639D01*
X10632203Y-8354410D01*
X10667229Y-8319484D01*
X11087258Y-7693303D01*
X11106285Y-7647646D01*
X11255244Y-6908498D01*
X11257746Y-6883773D01*
X11271832Y-1981706D01*
X11418272Y-1255061D01*
X11767117Y-735000D01*
X18964510Y-735000D01*
X19313862Y-1256717D01*
X19313862Y-1256717D01*
G37*
X19313862Y-1256717D02*
X19459605Y-1984107D01*
X19478589Y-13887407D01*
X19386164Y-14476429D01*
X19120666Y-14998940D01*
X18706562Y-15413704D01*
X18184473Y-15680036D01*
X17595604Y-15773400D01*
X9295125Y-15773400D01*
X8568373Y-15629178D01*
X7962358Y-15225429D01*
X7556436Y-14620861D01*
X7409611Y-13894634D01*
X7398354Y-10753752D01*
X7486162Y-10187535D01*
X7740427Y-9685401D01*
X8137702Y-9286700D01*
X8638922Y-9030637D01*
X9214712Y-8939229D01*
X9219532Y-8938369D01*
X9959105Y-8791535D01*
X10004817Y-8772639D01*
X10632203Y-8354410D01*
X10667229Y-8319484D01*
X11087258Y-7693303D01*
X11106285Y-7647646D01*
X11255244Y-6908498D01*
X11257746Y-6883773D01*
X11271832Y-1981706D01*
X11418272Y-1255061D01*
X11767117Y-735000D01*
X18964510Y-735000D01*
X19313862Y-1256717D01*
G36*
X58000103Y-21847761D02*
X58725349Y-21994981D01*
X59265000Y-22357560D01*
X59265000Y-50109861D01*
X59125595Y-50249271D01*
X58603249Y-50515204D01*
X58014253Y-50608087D01*
X36023155Y-50589533D01*
X35295616Y-50444321D01*
X34689466Y-50039063D01*
X34284314Y-49432845D01*
X34139229Y-48705283D01*
X34138949Y-48288844D01*
X34231740Y-47700458D01*
X34497224Y-47178575D01*
X34910993Y-46764277D01*
X35432543Y-46498123D01*
X36020802Y-46404583D01*
X36092298Y-46404540D01*
X35896493Y-46697583D01*
X35791066Y-47227600D01*
X35896493Y-47757617D01*
X36196723Y-48206943D01*
X36646049Y-48507173D01*
X37176066Y-48612600D01*
X37230334Y-48612600D01*
X37760351Y-48507173D01*
X37976720Y-48362600D01*
X38238007Y-48362600D01*
X38287191Y-48436209D01*
X38497235Y-48576557D01*
X38745000Y-48625840D01*
X39995000Y-48625840D01*
X40242765Y-48576557D01*
X40452809Y-48436209D01*
X40593157Y-48226165D01*
X40642440Y-47978400D01*
X40642440Y-46478400D01*
X40627202Y-46401794D01*
X47065389Y-46397896D01*
X47023398Y-46609000D01*
X47109795Y-47043345D01*
X47355832Y-47411566D01*
X47724053Y-47657603D01*
X48158398Y-47744000D01*
X48592743Y-47657603D01*
X48960964Y-47411566D01*
X49976397Y-46396133D01*
X50604800Y-46395753D01*
X50604800Y-46583600D01*
X50691197Y-47017946D01*
X50937234Y-47386166D01*
X51305454Y-47632203D01*
X51531346Y-47677136D01*
X51634623Y-47720020D01*
X52046371Y-47720379D01*
X52426915Y-47563142D01*
X52718319Y-47272246D01*
X52876220Y-46891977D01*
X52876579Y-46480229D01*
X52874800Y-46475923D01*
X52874800Y-46338957D01*
X53039877Y-46312702D01*
X53340000Y-46372400D01*
X53855900Y-46372400D01*
X53987835Y-46460557D01*
X54235600Y-46509840D01*
X55735600Y-46509840D01*
X55983365Y-46460557D01*
X56193409Y-46320209D01*
X56333757Y-46110165D01*
X56383040Y-45862400D01*
X56383040Y-44612400D01*
X56333757Y-44364635D01*
X56314423Y-44335700D01*
X56333757Y-44306765D01*
X56383040Y-44059000D01*
X56383040Y-42809000D01*
X56333757Y-42561235D01*
X56305937Y-42519600D01*
X56333757Y-42477965D01*
X56383040Y-42230200D01*
X56383040Y-40980200D01*
X56333757Y-40732435D01*
X56193409Y-40522391D01*
X55983365Y-40382043D01*
X55735600Y-40332760D01*
X54636658Y-40332760D01*
X54633607Y-37382318D01*
X54776929Y-37239246D01*
X54934830Y-36858977D01*
X54935189Y-36447229D01*
X54777952Y-36066685D01*
X54632095Y-35920573D01*
X54619484Y-23725802D01*
X54712715Y-23135368D01*
X54979821Y-22611997D01*
X55396052Y-22197251D01*
X55920372Y-21932019D01*
X56511134Y-21840899D01*
X58000103Y-21847761D01*
X58000103Y-21847761D01*
G37*
X58000103Y-21847761D02*
X58725349Y-21994981D01*
X59265000Y-22357560D01*
X59265000Y-50109861D01*
X59125595Y-50249271D01*
X58603249Y-50515204D01*
X58014253Y-50608087D01*
X36023155Y-50589533D01*
X35295616Y-50444321D01*
X34689466Y-50039063D01*
X34284314Y-49432845D01*
X34139229Y-48705283D01*
X34138949Y-48288844D01*
X34231740Y-47700458D01*
X34497224Y-47178575D01*
X34910993Y-46764277D01*
X35432543Y-46498123D01*
X36020802Y-46404583D01*
X36092298Y-46404540D01*
X35896493Y-46697583D01*
X35791066Y-47227600D01*
X35896493Y-47757617D01*
X36196723Y-48206943D01*
X36646049Y-48507173D01*
X37176066Y-48612600D01*
X37230334Y-48612600D01*
X37760351Y-48507173D01*
X37976720Y-48362600D01*
X38238007Y-48362600D01*
X38287191Y-48436209D01*
X38497235Y-48576557D01*
X38745000Y-48625840D01*
X39995000Y-48625840D01*
X40242765Y-48576557D01*
X40452809Y-48436209D01*
X40593157Y-48226165D01*
X40642440Y-47978400D01*
X40642440Y-46478400D01*
X40627202Y-46401794D01*
X47065389Y-46397896D01*
X47023398Y-46609000D01*
X47109795Y-47043345D01*
X47355832Y-47411566D01*
X47724053Y-47657603D01*
X48158398Y-47744000D01*
X48592743Y-47657603D01*
X48960964Y-47411566D01*
X49976397Y-46396133D01*
X50604800Y-46395753D01*
X50604800Y-46583600D01*
X50691197Y-47017946D01*
X50937234Y-47386166D01*
X51305454Y-47632203D01*
X51531346Y-47677136D01*
X51634623Y-47720020D01*
X52046371Y-47720379D01*
X52426915Y-47563142D01*
X52718319Y-47272246D01*
X52876220Y-46891977D01*
X52876579Y-46480229D01*
X52874800Y-46475923D01*
X52874800Y-46338957D01*
X53039877Y-46312702D01*
X53340000Y-46372400D01*
X53855900Y-46372400D01*
X53987835Y-46460557D01*
X54235600Y-46509840D01*
X55735600Y-46509840D01*
X55983365Y-46460557D01*
X56193409Y-46320209D01*
X56333757Y-46110165D01*
X56383040Y-45862400D01*
X56383040Y-44612400D01*
X56333757Y-44364635D01*
X56314423Y-44335700D01*
X56333757Y-44306765D01*
X56383040Y-44059000D01*
X56383040Y-42809000D01*
X56333757Y-42561235D01*
X56305937Y-42519600D01*
X56333757Y-42477965D01*
X56383040Y-42230200D01*
X56383040Y-40980200D01*
X56333757Y-40732435D01*
X56193409Y-40522391D01*
X55983365Y-40382043D01*
X55735600Y-40332760D01*
X54636658Y-40332760D01*
X54633607Y-37382318D01*
X54776929Y-37239246D01*
X54934830Y-36858977D01*
X54935189Y-36447229D01*
X54777952Y-36066685D01*
X54632095Y-35920573D01*
X54619484Y-23725802D01*
X54712715Y-23135368D01*
X54979821Y-22611997D01*
X55396052Y-22197251D01*
X55920372Y-21932019D01*
X56511134Y-21840899D01*
X58000103Y-21847761D01*
G36*
X25126699Y-1303826D02*
X25269791Y-2030888D01*
X25250815Y-13890901D01*
X25105070Y-14618290D01*
X24699394Y-15224112D01*
X24092923Y-15628818D01*
X23365299Y-15773400D01*
X22307801Y-15773400D01*
X21718931Y-15680035D01*
X21196841Y-15413702D01*
X20782737Y-14998937D01*
X20517240Y-14476425D01*
X20424816Y-13887402D01*
X20443778Y-2017034D01*
X20538297Y-1427657D01*
X20806050Y-905548D01*
X20977727Y-735000D01*
X24748982Y-735000D01*
X25126699Y-1303826D01*
X25126699Y-1303826D01*
G37*
X25126699Y-1303826D02*
X25269791Y-2030888D01*
X25250815Y-13890901D01*
X25105070Y-14618290D01*
X24699394Y-15224112D01*
X24092923Y-15628818D01*
X23365299Y-15773400D01*
X22307801Y-15773400D01*
X21718931Y-15680035D01*
X21196841Y-15413702D01*
X20782737Y-14998937D01*
X20517240Y-14476425D01*
X20424816Y-13887402D01*
X20443778Y-2017034D01*
X20538297Y-1427657D01*
X20806050Y-905548D01*
X20977727Y-735000D01*
X24748982Y-735000D01*
X25126699Y-1303826D01*
G36*
X40284400Y-1984592D02*
X40284400Y-13887891D01*
X40139527Y-14616214D01*
X39734052Y-15223052D01*
X39127214Y-15628527D01*
X38398891Y-15773400D01*
X36810509Y-15773400D01*
X36082186Y-15628527D01*
X35475348Y-15223052D01*
X35069873Y-14616214D01*
X34925000Y-13887891D01*
X34925000Y-1984592D01*
X34975080Y-1668400D01*
X40234320Y-1668400D01*
X40284400Y-1984592D01*
X40284400Y-1984592D01*
G37*
X40284400Y-1984592D02*
X40284400Y-13887891D01*
X40139527Y-14616214D01*
X39734052Y-15223052D01*
X39127214Y-15628527D01*
X38398891Y-15773400D01*
X36810509Y-15773400D01*
X36082186Y-15628527D01*
X35475348Y-15223052D01*
X35069873Y-14616214D01*
X34925000Y-13887891D01*
X34925000Y-1984592D01*
X34975080Y-1668400D01*
X40234320Y-1668400D01*
X40284400Y-1984592D01*
M02*
