M48
;DRILL file {KiCad no-vcs-found-c6d0075~61~ubuntu17.10.1} date Thu Feb  1 09:34:53 2018
;FORMAT={-:-/ absolute / inch / decimal}
FMAT,2
INCH,TZ
T1C0.0157
T2C0.0276
T3C0.0394
T4C0.0433
T5C0.0472
T6C0.0650
T7C0.1260
%
G90
G05
M72
T1
X0.3034Y-0.5528
X0.3056Y-1.4375
X0.307Y-1.25
X0.3428Y-0.5528
X0.345Y-1.4375
X0.3464Y-1.25
X0.3821Y-0.5528
X0.3857Y-1.25
X0.4026Y-1.8606
X0.4026Y-1.9
X0.4167Y-1.436
X0.4215Y-0.5528
X0.4251Y-1.25
X0.435Y-3.1475
X0.435Y-3.1869
X0.44Y-1.5925
X0.44Y-1.6319
X0.442Y-1.8606
X0.442Y-1.9
X0.4425Y-0.0825
X0.4536Y-1.701
X0.456Y-1.436
X0.4609Y-0.5528
X0.4819Y-0.0825
X0.493Y-1.701
X0.4966Y-1.626
X0.5003Y-0.5528
X0.5024Y-1.3701
X0.5212Y-0.0825
X0.536Y-1.626
X0.5396Y-0.5528
X0.5418Y-1.3701
X0.5466Y-1.837
X0.554Y-2.6266
X0.554Y-2.666
X0.579Y-0.5528
X0.5812Y-1.3701
X0.586Y-1.837
X0.602Y-3.0706
X0.602Y-3.11
X0.6184Y-0.5528
X0.6206Y-1.3701
X0.6375Y-2.33
X0.6375Y-2.3694
X0.6577Y-0.5528
X0.6599Y-1.3701
X0.662Y-2.666
X0.662Y-2.7054
X0.702Y-1.839
X0.714Y-1.3836
X0.714Y-1.423
X0.714Y-2.699
X0.736Y-1.25
X0.745Y-2.3331
X0.745Y-2.3725
X0.7534Y-2.699
X0.7604Y-1.7331
X0.7604Y-1.7725
X0.7675Y-1.6175
X0.7675Y-1.6569
X0.7754Y-1.25
X0.7925Y-2.3275
X0.7925Y-2.3669
X0.8147Y-1.25
X0.85Y-2.73
X0.851Y-3.0636
X0.851Y-3.103
X0.8541Y-1.25
X0.8675Y-2.405
X0.8675Y-2.4444
X0.89Y-2.73
X0.899Y-1.8626
X0.899Y-1.902
X0.915Y-2.2525
X0.915Y-2.2919
X0.9384Y-1.8626
X0.9384Y-1.902
X1.02Y-3.145
X1.02Y-3.1844
X1.0383Y-2.6649
X1.05Y-2.715
X1.078Y-2.666
X1.0894Y-2.715
X1.1025Y-2.3925
X1.1025Y-2.4319
X1.104Y-2.344
X1.105Y-2.271
X1.114Y-1.5976
X1.114Y-1.637
X1.1231Y-2.665
X1.145Y-1.805
X1.1625Y-2.665
X1.165Y-1.53
X1.165Y-1.5694
X1.1844Y-1.805
X1.195Y-2.5586
X1.195Y-2.598
X1.2275Y-1.805
X1.244Y-2.5596
X1.244Y-2.599
X1.245Y-0.4475
X1.2669Y-1.805
X1.2844Y-0.4475
X1.29Y-2.665
X1.295Y-2.406
X1.3075Y-1.8025
X1.3237Y-0.4475
X1.3294Y-2.665
X1.3344Y-2.406
X1.3469Y-1.8025
X1.37Y-2.715
X1.373Y-2.665
X1.4094Y-2.715
X1.4124Y-2.665
X1.5656Y-1.59
X1.605Y-1.59
X1.731Y-1.25
X1.7313Y-0.5464
X1.7575Y-3.455
X1.7575Y-3.4944
X1.7626Y-1.8616
X1.7626Y-1.901
X1.7704Y-1.25
X1.7707Y-0.5464
X1.802Y-1.8616
X1.802Y-1.901
X1.8097Y-1.25
X1.81Y-0.5464
X1.8256Y-1.5875
X1.8276Y-1.636
X1.8286Y-1.709
X1.8316Y-1.4365
X1.832Y-3.215
X1.832Y-3.2544
X1.832Y-3.2937
X1.8456Y-2.6625
X1.8491Y-1.25
X1.8494Y-0.5464
X1.8566Y-1.835
X1.865Y-1.5875
X1.867Y-1.636
X1.868Y-1.709
X1.871Y-1.4365
X1.885Y-2.6625
X1.8888Y-0.5464
X1.896Y-1.835
X1.9213Y-1.3701
X1.9282Y-0.5464
X1.9606Y-1.3701
X1.9675Y-0.5464
X1.9825Y-2.3381
X1.9825Y-2.3775
X1.991Y-2.6156
X1.991Y-2.655
X2.Y-1.3701
X2.0069Y-0.5464
X2.01Y-3.418
X2.011Y-3.341
X2.011Y-3.491
X2.0394Y-1.3701
X2.04Y-2.6181
X2.04Y-2.6575
X2.041Y-1.838
X2.0463Y-0.5464
X2.0787Y-1.3701
X2.085Y-2.3275
X2.0856Y-0.5464
X2.0857Y-2.3768
X2.099Y-1.7426
X2.099Y-1.782
X2.106Y-1.6115
X2.106Y-1.6509
X2.1244Y-2.3275
X2.125Y-0.5464
X2.1251Y-2.3768
X2.127Y-1.4036
X2.127Y-1.443
X2.161Y-1.25
X2.1644Y-0.5464
X2.17Y-2.405
X2.17Y-2.4444
X2.2004Y-1.25
X2.2037Y-0.5464
X2.236Y-1.8616
X2.236Y-1.901
X2.2397Y-1.25
X2.2431Y-0.5464
X2.2525Y-2.2475
X2.2525Y-2.2869
X2.2754Y-1.8616
X2.2754Y-1.901
X2.2791Y-1.25
X2.2825Y-0.5464
T2
X0.1261Y-1.7594
X0.1261Y-1.8594
X0.1261Y-1.9594
X0.1261Y-2.2594
X0.1261Y-2.3594
X1.4647Y-1.7594
X1.4647Y-1.8594
X1.4647Y-1.9594
X1.4647Y-2.2594
X1.4647Y-2.3594
T3
X0.831Y-3.6015
X0.831Y-3.7015
X0.931Y-3.6015
X0.931Y-3.7015
X1.031Y-3.6015
X1.031Y-3.7015
X1.131Y-3.6015
X1.131Y-3.7015
X1.231Y-3.6015
X1.231Y-3.7015
X1.331Y-3.6015
X1.331Y-3.7015
X1.431Y-3.6015
X1.431Y-3.7015
X1.531Y-3.6015
X1.531Y-3.7015
T4
X0.088Y-0.637
X0.088Y-1.137
X1.1811Y-0.6204
X1.1811Y-1.1204
T5
X0.462Y-3.473
X0.462Y-3.573
X0.462Y-3.673
X0.462Y-3.773
X1.897Y-3.671
X1.897Y-3.771
T6
X0.0984Y-0.2035
X0.0984Y-0.3476
X0.6496Y-0.1248
X0.6496Y-0.2689
X0.8858Y-0.1248
X0.8858Y-0.2689
X1.7126Y-0.1248
X1.7126Y-0.2689
X1.4764Y-0.1248
X1.4764Y-0.2689
T7
X2.1654Y-0.1969
X2.1654Y-3.6614
X0.1969Y-3.6614
T0
M30
