G04 #@! TF.GenerationSoftware,KiCad,Pcbnew,no-vcs-found-e062780~61~ubuntu17.10.1*
G04 #@! TF.CreationDate,2018-01-03T10:37:01-05:00*
G04 #@! TF.ProjectId,ENNOID Dual Gate Driver,454E4E4F4944204475616C2047617465,rev?*
G04 #@! TF.SameCoordinates,Original*
G04 #@! TF.FileFunction,Copper,L2,Bot,Signal*
G04 #@! TF.FilePolarity,Positive*
%FSLAX46Y46*%
G04 Gerber Fmt 4.6, Leading zero omitted, Abs format (unit mm)*
G04 Created by KiCad (PCBNEW no-vcs-found-e062780~61~ubuntu17.10.1) date Wed Jan  3 10:37:01 2018*
%MOMM*%
%LPD*%
G01*
G04 APERTURE LIST*
%ADD10C,5.700000*%
%ADD11C,1.700000*%
%ADD12R,1.700000X1.700000*%
%ADD13R,1.500000X1.250000*%
%ADD14R,1.500000X1.300000*%
%ADD15R,1.250000X1.500000*%
%ADD16R,2.000000X1.600000*%
%ADD17O,2.600000X2.000000*%
%ADD18R,2.600000X2.000000*%
%ADD19R,1.300000X1.500000*%
%ADD20R,0.900000X0.800000*%
%ADD21R,3.500000X1.800000*%
%ADD22C,3.000000*%
%ADD23O,1.500000X1.500000*%
%ADD24R,1.500000X1.500000*%
%ADD25R,1.800000X3.500000*%
%ADD26R,2.200000X2.200000*%
%ADD27O,2.200000X2.200000*%
%ADD28C,0.800000*%
%ADD29C,0.250000*%
%ADD30C,2.000000*%
%ADD31C,1.000000*%
%ADD32C,0.500000*%
%ADD33C,0.254000*%
G04 APERTURE END LIST*
D10*
X55000000Y-93000000D03*
D11*
X38887400Y-91478100D03*
X38887400Y-94018100D03*
X36347400Y-91478100D03*
X36347400Y-94018100D03*
X33807400Y-91478100D03*
X33807400Y-94018100D03*
X31267400Y-91478100D03*
X31267400Y-94018100D03*
X28727400Y-91478100D03*
X28727400Y-94018100D03*
X26187400Y-91478100D03*
X26187400Y-94018100D03*
X23647400Y-91478100D03*
X23647400Y-94018100D03*
X21107400Y-91478100D03*
D12*
X21107400Y-94018100D03*
D13*
X30246000Y-89128600D03*
X32746000Y-89128600D03*
D14*
X24311600Y-80416400D03*
X21611600Y-80416400D03*
D15*
X5283200Y-59898600D03*
X5283200Y-57398600D03*
X7213600Y-57398600D03*
X7213600Y-59898600D03*
X5359400Y-45026900D03*
X5359400Y-42526900D03*
X5359400Y-47264000D03*
X5359400Y-49764000D03*
X39293800Y-59924000D03*
X39293800Y-57424000D03*
X41173400Y-57424000D03*
X41173400Y-59924000D03*
X39370000Y-44728400D03*
X39370000Y-42228400D03*
X39370000Y-47228400D03*
X39370000Y-49728400D03*
D13*
X15194600Y-57708800D03*
X12694600Y-57708800D03*
X21671600Y-57683400D03*
X19171600Y-57683400D03*
X21305200Y-41351200D03*
X23805200Y-41351200D03*
X23817466Y-44999107D03*
X21317466Y-44999107D03*
X16758600Y-28549600D03*
X19258600Y-28549600D03*
X46705200Y-57708800D03*
X49205200Y-57708800D03*
X53233000Y-57683400D03*
X55733000Y-57683400D03*
X12832400Y-28524200D03*
X10332400Y-28524200D03*
X16758600Y-30454600D03*
X19258600Y-30454600D03*
D16*
X13422146Y-24178672D03*
X9422146Y-24178672D03*
D13*
X18739800Y-13233400D03*
X21239800Y-13233400D03*
X32212600Y-57708800D03*
X29712600Y-57708800D03*
X29636400Y-59537600D03*
X32136400Y-59537600D03*
X34818000Y-89128600D03*
X37318000Y-89128600D03*
D17*
X11734800Y-95834200D03*
X11734800Y-93294200D03*
X11734800Y-90754200D03*
D18*
X11734800Y-88214200D03*
D17*
X48183800Y-95783400D03*
D18*
X48183800Y-93243400D03*
D19*
X2286000Y-23465800D03*
X2286000Y-26165800D03*
D14*
X15284405Y-80452572D03*
X12584405Y-80452572D03*
D19*
X51739800Y-36648400D03*
X51739800Y-39348400D03*
X30000000Y-21136600D03*
X30000000Y-18436600D03*
X34747200Y-41550600D03*
X34747200Y-44250600D03*
X30000000Y-23211800D03*
X30000000Y-25911800D03*
D13*
X32238000Y-47548800D03*
X29738000Y-47548800D03*
D20*
X32775400Y-38531800D03*
X30775400Y-37581800D03*
X30775400Y-39481800D03*
D21*
X22337400Y-10464800D03*
X17337400Y-10464800D03*
D19*
X25374600Y-61014600D03*
X25374600Y-58314600D03*
D22*
X22500000Y-6830000D03*
X22500000Y-3170000D03*
X2500000Y-5170000D03*
X2500000Y-8830000D03*
X16500000Y-6830000D03*
X16500000Y-3170000D03*
X43500000Y-6830000D03*
X43500000Y-3170000D03*
X37500000Y-3170000D03*
X37500000Y-6830000D03*
D23*
X3203200Y-44687600D03*
X3203200Y-47227600D03*
X3203200Y-49767600D03*
X3203200Y-57387600D03*
D24*
X3203200Y-59927600D03*
D23*
X37203200Y-44687600D03*
X37203200Y-47227600D03*
X37203200Y-49767600D03*
X37203200Y-57387600D03*
D24*
X37203200Y-59927600D03*
D13*
X21317466Y-43170307D03*
X23817466Y-43170307D03*
X10307000Y-30429200D03*
X12807000Y-30429200D03*
D16*
X13404600Y-26416000D03*
X9404600Y-26416000D03*
X20061495Y-24157873D03*
X16061495Y-24157873D03*
X16059400Y-26390600D03*
X20059400Y-26390600D03*
D13*
X54985600Y-41605200D03*
X57485600Y-41605200D03*
X57485600Y-45237400D03*
X54985600Y-45237400D03*
X54985600Y-43434000D03*
X57485600Y-43434000D03*
X49078200Y-30302200D03*
X46578200Y-30302200D03*
X55352000Y-30124400D03*
X52852000Y-30124400D03*
X46552800Y-28346400D03*
X49052800Y-28346400D03*
X52877400Y-28270200D03*
X55377400Y-28270200D03*
D16*
X49523400Y-23952200D03*
X45523400Y-23952200D03*
X52103607Y-26243553D03*
X56103607Y-26243553D03*
X45498000Y-26212800D03*
X49498000Y-26212800D03*
X56102000Y-23926800D03*
X52102000Y-23926800D03*
D13*
X39415400Y-13335000D03*
X41915400Y-13335000D03*
D21*
X38394000Y-10591800D03*
X43394000Y-10591800D03*
D19*
X15519400Y-39170600D03*
X15519400Y-36470600D03*
X13614400Y-36470600D03*
X13614400Y-39170600D03*
D14*
X18639800Y-15189200D03*
X21339800Y-15189200D03*
D19*
X49834800Y-36648400D03*
X49834800Y-39348400D03*
D14*
X39417000Y-15240000D03*
X42117000Y-15240000D03*
D21*
X7380600Y-4597400D03*
X12380600Y-4597400D03*
D25*
X30099000Y-4586600D03*
X30099000Y-9586600D03*
D26*
X2235200Y-16179800D03*
D27*
X2235200Y-28879800D03*
X30000000Y-28457800D03*
D26*
X30000000Y-15757800D03*
D10*
X5000000Y-93000000D03*
D15*
X31699200Y-41752200D03*
X31699200Y-44252200D03*
D28*
X11099800Y-57708800D03*
X57175400Y-57683400D03*
X45237400Y-57708800D03*
X37312600Y-87401400D03*
X30226000Y-87401400D03*
X27152600Y-59563000D03*
X27127200Y-57734200D03*
X23164800Y-57759600D03*
X46532800Y-83661000D03*
X46532800Y-82661000D03*
X53365402Y-67157600D03*
X51435000Y-67132200D03*
X20370800Y-59131200D03*
X54381400Y-59131200D03*
X19532600Y-66802000D03*
X44602400Y-88239600D03*
X51079400Y-88671400D03*
X51079400Y-84861400D03*
X51054000Y-86817200D03*
X46532800Y-81661000D03*
X32893000Y-61112400D03*
X16762000Y-34800000D03*
X15762000Y-34800000D03*
X14762000Y-34800000D03*
X13762000Y-34800000D03*
X12762000Y-34800000D03*
X7797800Y-31750000D03*
X10797800Y-31750000D03*
X9797800Y-31750000D03*
X8797800Y-31750000D03*
X12522200Y-43205400D03*
X21694400Y-31750000D03*
X20694400Y-31750000D03*
X19694400Y-31750000D03*
X18694400Y-31750000D03*
X22834600Y-48310800D03*
X11226800Y-48260000D03*
X46967400Y-31750000D03*
X45967400Y-31750000D03*
X44967400Y-31750000D03*
X57889400Y-31750000D03*
X56889400Y-31750000D03*
X55889400Y-31750000D03*
X17373598Y-67792600D03*
X14605000Y-59131200D03*
X48577500Y-59245500D03*
X45593000Y-66014600D03*
X50546000Y-68249800D03*
X32893000Y-45821600D03*
X29540200Y-39471600D03*
X51800000Y-34800000D03*
X52800000Y-34800000D03*
X50800000Y-34800000D03*
X48800000Y-34800000D03*
X49800000Y-34800000D03*
X47447200Y-43408600D03*
X43967400Y-31750000D03*
X56794400Y-48285400D03*
X45770800Y-48285400D03*
X54889400Y-31750000D03*
X17526000Y-71691500D03*
X16332200Y-67030600D03*
X32740600Y-71704200D03*
X49504600Y-67132200D03*
X53086000Y-59118500D03*
X19126200Y-83845400D03*
X19888200Y-60833000D03*
X30353000Y-65989200D03*
X31597600Y-66014600D03*
X31597600Y-45796200D03*
X29692600Y-45821600D03*
X25831800Y-80416400D03*
X11023600Y-80441800D03*
X26822400Y-61010800D03*
X51879500Y-59118500D03*
X18097500Y-83820000D03*
X18313400Y-60807600D03*
X19710400Y-41376600D03*
X19608800Y-45008800D03*
X10041552Y-36592848D03*
X12217400Y-40563800D03*
X762000Y-23774400D03*
X53238400Y-41529000D03*
X53314600Y-45262800D03*
X41122600Y-41046400D03*
X46634400Y-40563800D03*
X18135600Y-36144200D03*
X11582400Y-36474400D03*
X47523400Y-36550600D03*
X53900010Y-36652200D03*
X13614400Y-41300400D03*
X14884400Y-46659800D03*
X17830800Y-46710600D03*
X47421800Y-41554400D03*
X48133000Y-46710600D03*
X51841400Y-46685200D03*
X10515600Y-584200D03*
X33299400Y-3759200D03*
D29*
X12694600Y-57708800D02*
X11099800Y-57708800D01*
X21671600Y-57683400D02*
X23088600Y-57683400D01*
X23088600Y-57683400D02*
X23164800Y-57759600D01*
X55733000Y-57683400D02*
X57175400Y-57683400D01*
X46705200Y-57708800D02*
X45237400Y-57708800D01*
X37318000Y-87406800D02*
X37312600Y-87401400D01*
X37318000Y-89128600D02*
X37318000Y-87406800D01*
X30246000Y-87421400D02*
X30226000Y-87401400D01*
X30246000Y-89128600D02*
X30246000Y-87421400D01*
X27178000Y-59537600D02*
X27152600Y-59563000D01*
X29636400Y-59537600D02*
X27178000Y-59537600D01*
X27152600Y-57708800D02*
X27127200Y-57734200D01*
X29712600Y-57708800D02*
X27152600Y-57708800D01*
X5283200Y-59898600D02*
X7213600Y-59898600D01*
D30*
X3203200Y-59927600D02*
X7184600Y-59927600D01*
X7184600Y-59927600D02*
X7213600Y-59898600D01*
D29*
X5283200Y-57398600D02*
X3214200Y-57398600D01*
X3214200Y-57398600D02*
X3203200Y-57387600D01*
D30*
X3203200Y-57387600D02*
X7202600Y-57387600D01*
X7202600Y-57387600D02*
X7213600Y-57398600D01*
D31*
X14762000Y-34800000D02*
X14762000Y-30546200D01*
X14762000Y-30546200D02*
X16758600Y-28549600D01*
X13762000Y-34800000D02*
X13762000Y-31384200D01*
X13762000Y-31384200D02*
X12807000Y-30429200D01*
X15762000Y-34800000D02*
X15762000Y-31451200D01*
X15762000Y-31451200D02*
X16758600Y-30454600D01*
X12762000Y-34800000D02*
X16762000Y-34800000D01*
X16762000Y-34800000D02*
X16762000Y-30458000D01*
X16762000Y-30458000D02*
X16758600Y-30454600D01*
X12762000Y-34800000D02*
X12762000Y-30474200D01*
X12762000Y-30474200D02*
X12807000Y-30429200D01*
D30*
X12832400Y-28524200D02*
X13925800Y-28524200D01*
X13925800Y-28524200D02*
X16059400Y-26390600D01*
X13404600Y-26416000D02*
X14625000Y-26416000D01*
X14625000Y-26416000D02*
X16758600Y-28549600D01*
X13422146Y-24178672D02*
X13847472Y-24178672D01*
X13847472Y-24178672D02*
X16059400Y-26390600D01*
X13404600Y-26416000D02*
X16034000Y-26416000D01*
X16034000Y-26416000D02*
X16059400Y-26390600D01*
X13422146Y-24178672D02*
X16040696Y-24178672D01*
X16040696Y-24178672D02*
X16061495Y-24157873D01*
X16059400Y-26390600D02*
X16059400Y-24159968D01*
X16059400Y-24159968D02*
X16061495Y-24157873D01*
X13404600Y-26416000D02*
X13404600Y-24196218D01*
X13404600Y-24196218D02*
X13422146Y-24178672D01*
X12832400Y-28524200D02*
X16733200Y-28524200D01*
X16733200Y-28524200D02*
X16758600Y-28549600D01*
X12807000Y-30429200D02*
X16733200Y-30429200D01*
X16733200Y-30429200D02*
X16758600Y-30454600D01*
X16758600Y-28549600D02*
X16758600Y-27089800D01*
X16758600Y-27089800D02*
X16059400Y-26390600D01*
X16758600Y-30454600D02*
X16758600Y-28549600D01*
X12807000Y-30429200D02*
X12807000Y-28549600D01*
X12807000Y-28549600D02*
X12832400Y-28524200D01*
X12832400Y-28524200D02*
X12832400Y-26988200D01*
X12832400Y-26988200D02*
X13404600Y-26416000D01*
D31*
X5359400Y-45026900D02*
X5359400Y-47264000D01*
X3203200Y-47227600D02*
X5323000Y-47227600D01*
X5323000Y-47227600D02*
X5359400Y-47264000D01*
X12522200Y-43205400D02*
X6037900Y-43205400D01*
X6037900Y-43205400D02*
X5359400Y-42526900D01*
D30*
X41173400Y-59924000D02*
X39293800Y-59924000D01*
X37203200Y-59927600D02*
X41169800Y-59927600D01*
X41169800Y-59927600D02*
X41173400Y-59924000D01*
X37203200Y-57387600D02*
X39257400Y-57387600D01*
X39257400Y-57387600D02*
X39293800Y-57424000D01*
X37203200Y-57387600D02*
X41137000Y-57387600D01*
X41137000Y-57387600D02*
X41173400Y-57424000D01*
D29*
X31699200Y-40355600D02*
X30825400Y-39481800D01*
X31699200Y-41752200D02*
X31699200Y-40355600D01*
X30825400Y-39481800D02*
X30775400Y-39481800D01*
X37203200Y-42283200D02*
X36470600Y-41550600D01*
X36470600Y-41550600D02*
X34747200Y-41550600D01*
X37203200Y-44687600D02*
X37203200Y-42283200D01*
X14605000Y-59131200D02*
X17373598Y-61899798D01*
X17373598Y-61899798D02*
X17373598Y-67226915D01*
X17373598Y-67226915D02*
X17373598Y-67792600D01*
X14605000Y-59131200D02*
X14605000Y-58298400D01*
X14605000Y-58298400D02*
X15194600Y-57708800D01*
X49205200Y-57708800D02*
X49205200Y-58617800D01*
X48977499Y-58845501D02*
X48577500Y-59245500D01*
X49205200Y-58617800D02*
X48977499Y-58845501D01*
X49460002Y-66014600D02*
X46158685Y-66014600D01*
X46158685Y-66014600D02*
X45593000Y-66014600D01*
X50546000Y-67100598D02*
X49460002Y-66014600D01*
X50546000Y-68249800D02*
X50546000Y-67100598D01*
X32969200Y-44466000D02*
X32969200Y-45745400D01*
X32775400Y-44272200D02*
X32969200Y-44466000D01*
X32969200Y-45745400D02*
X32893000Y-45821600D01*
X33096200Y-38852600D02*
X33096200Y-43951400D01*
X32775400Y-38531800D02*
X33096200Y-38852600D01*
X33096200Y-43951400D02*
X32775400Y-44272200D01*
X32574200Y-44252200D02*
X32575800Y-44250600D01*
X31699200Y-44252200D02*
X32574200Y-44252200D01*
X32575800Y-44250600D02*
X32797000Y-44250600D01*
X34747200Y-44250600D02*
X32797000Y-44250600D01*
X32797000Y-44250600D02*
X32775400Y-44272200D01*
X30000000Y-18436600D02*
X30000000Y-17436600D01*
X30000000Y-17436600D02*
X30000000Y-15757800D01*
X29550400Y-39481800D02*
X29540200Y-39471600D01*
X30775400Y-39481800D02*
X29550400Y-39481800D01*
D31*
X52800000Y-34800000D02*
X48800000Y-34800000D01*
X50800000Y-34800000D02*
X50800000Y-32176400D01*
X50800000Y-32176400D02*
X52852000Y-30124400D01*
X49800000Y-34800000D02*
X49800000Y-31024000D01*
X49800000Y-31024000D02*
X49078200Y-30302200D01*
X51800000Y-34800000D02*
X51800000Y-31176400D01*
X51800000Y-31176400D02*
X52852000Y-30124400D01*
X52800000Y-34800000D02*
X52800000Y-30176400D01*
X52800000Y-30176400D02*
X52852000Y-30124400D01*
X48800000Y-34800000D02*
X48800000Y-30580400D01*
X48800000Y-30580400D02*
X49078200Y-30302200D01*
X39370000Y-47228400D02*
X39370000Y-44728400D01*
X37203200Y-47227600D02*
X39369200Y-47227600D01*
X39369200Y-47227600D02*
X39370000Y-47228400D01*
D30*
X50800000Y-33350200D02*
X50800000Y-27547160D01*
X50800000Y-27547160D02*
X52103607Y-26243553D01*
D31*
X52171600Y-31978600D02*
X52852000Y-31298200D01*
X49580800Y-32131000D02*
X49078200Y-31628400D01*
D30*
X52852000Y-30124400D02*
X52852000Y-31298200D01*
X52852000Y-31298200D02*
X50800000Y-33350200D01*
X49078200Y-30302200D02*
X49078200Y-31628400D01*
X49078200Y-31628400D02*
X50800000Y-33350200D01*
X49078200Y-30302200D02*
X50845400Y-30302200D01*
X50845400Y-30302200D02*
X52877400Y-28270200D01*
X52852000Y-30124400D02*
X50830800Y-30124400D01*
X50830800Y-30124400D02*
X49052800Y-28346400D01*
X52877400Y-28270200D02*
X49129000Y-28270200D01*
X49129000Y-28270200D02*
X49052800Y-28346400D01*
X49078200Y-30302200D02*
X52674200Y-30302200D01*
X52674200Y-30302200D02*
X52852000Y-30124400D01*
X52877400Y-28270200D02*
X52877400Y-27017346D01*
X52877400Y-27017346D02*
X52103607Y-26243553D01*
X52852000Y-30124400D02*
X52852000Y-28295600D01*
X52852000Y-28295600D02*
X52877400Y-28270200D01*
X49052800Y-28346400D02*
X49052800Y-26658000D01*
X49052800Y-26658000D02*
X49498000Y-26212800D01*
X49078200Y-30302200D02*
X49078200Y-28371800D01*
X49078200Y-28371800D02*
X49052800Y-28346400D01*
X49498000Y-26212800D02*
X49816000Y-26212800D01*
X49816000Y-26212800D02*
X52102000Y-23926800D01*
X49498000Y-26212800D02*
X49498000Y-23977600D01*
X49498000Y-23977600D02*
X49523400Y-23952200D01*
X49498000Y-26212800D02*
X52072854Y-26212800D01*
X52072854Y-26212800D02*
X52103607Y-26243553D01*
X52102000Y-23926800D02*
X52102000Y-26241946D01*
X52102000Y-26241946D02*
X52103607Y-26243553D01*
X49523400Y-23952200D02*
X52076600Y-23952200D01*
X52076600Y-23952200D02*
X52102000Y-23926800D01*
D31*
X43434000Y-43408600D02*
X42253800Y-42228400D01*
X42253800Y-42228400D02*
X39370000Y-42228400D01*
X47447200Y-43408600D02*
X43434000Y-43408600D01*
X40863400Y-533400D02*
X33302200Y-533400D01*
X43500000Y-3170000D02*
X40863400Y-533400D01*
X33302200Y-533400D02*
X30099000Y-3736600D01*
D29*
X30099000Y-3736600D02*
X30099000Y-4586600D01*
X17126001Y-71291501D02*
X17526000Y-71691500D01*
X16332200Y-70497700D02*
X17126001Y-71291501D01*
X16332200Y-67030600D02*
X16332200Y-70497700D01*
X32746000Y-71709600D02*
X32740600Y-71704200D01*
X32746000Y-89128600D02*
X32746000Y-71709600D01*
X33807400Y-91478100D02*
X32746000Y-90416700D01*
X32746000Y-90416700D02*
X32746000Y-89128600D01*
X33705800Y-91376500D02*
X33807400Y-91478100D01*
X34818000Y-88564400D02*
X33807400Y-87553800D01*
X34818000Y-89128600D02*
X34818000Y-88564400D01*
X33807400Y-72720200D02*
X34899600Y-71628000D01*
X34899600Y-71628000D02*
X45008800Y-71628000D01*
X33807400Y-87553800D02*
X33807400Y-72720200D01*
X45008800Y-71628000D02*
X49504600Y-67132200D01*
X35077400Y-92748100D02*
X35077400Y-90263000D01*
X33807400Y-94018100D02*
X35077400Y-92748100D01*
X35077400Y-90263000D02*
X34818000Y-90003600D01*
X34818000Y-90003600D02*
X34818000Y-89128600D01*
X2286000Y-26165800D02*
X2286000Y-28829000D01*
X2286000Y-28829000D02*
X2235200Y-28879800D01*
X22275800Y-63220600D02*
X49174400Y-63220600D01*
X49174400Y-63220600D02*
X53086000Y-59309000D01*
X19888200Y-60833000D02*
X22275800Y-63220600D01*
X53086000Y-59309000D02*
X53086000Y-59118500D01*
X18796000Y-61925200D02*
X18796000Y-83566000D01*
X19888200Y-60833000D02*
X18796000Y-61925200D01*
X19075400Y-83845400D02*
X19126200Y-83845400D01*
X18796000Y-83566000D02*
X19075400Y-83845400D01*
X22377400Y-92748100D02*
X22377400Y-90220800D01*
X22377400Y-90220800D02*
X30353000Y-82245200D01*
X23647400Y-94018100D02*
X22377400Y-92748100D01*
X30353000Y-82245200D02*
X30353000Y-65989200D01*
X23647400Y-90703400D02*
X31597600Y-82753200D01*
X23647400Y-91478100D02*
X23647400Y-90703400D01*
X31597600Y-82753200D02*
X31597600Y-66580285D01*
X31597600Y-66580285D02*
X31597600Y-66014600D01*
X11544300Y-90792300D02*
X20421600Y-90792300D01*
X20421600Y-90792300D02*
X21107400Y-91478100D01*
X11544300Y-93332300D02*
X20421600Y-93332300D01*
X20421600Y-93332300D02*
X21107400Y-94018100D01*
X30000000Y-21136600D02*
X30000000Y-23211800D01*
X29307800Y-25911800D02*
X28270200Y-26949400D01*
X30000000Y-25911800D02*
X29307800Y-25911800D01*
X28270200Y-26949400D02*
X28270200Y-43281600D01*
X28270200Y-43281600D02*
X30784800Y-45796200D01*
X30784800Y-45796200D02*
X31597600Y-45796200D01*
X32238000Y-47548800D02*
X32238000Y-46436600D01*
X32238000Y-46436600D02*
X31597600Y-45796200D01*
X32308800Y-47478000D02*
X32238000Y-47548800D01*
X29692600Y-45821600D02*
X29692600Y-47503400D01*
X29692600Y-47503400D02*
X29738000Y-47548800D01*
X25831800Y-80416400D02*
X24311600Y-80416400D01*
X11023600Y-80441800D02*
X12573633Y-80441800D01*
X12573633Y-80441800D02*
X12584405Y-80452572D01*
X26818600Y-61014600D02*
X26822400Y-61010800D01*
X25374600Y-61014600D02*
X26818600Y-61014600D01*
X23635816Y-62636400D02*
X48361600Y-62636400D01*
X18313400Y-60807600D02*
X19018199Y-60102801D01*
X51479501Y-59518499D02*
X51879500Y-59118500D01*
X19018199Y-60102801D02*
X21102217Y-60102801D01*
X21102217Y-60102801D02*
X23635816Y-62636400D01*
X48361600Y-62636400D02*
X51479501Y-59518499D01*
X18313400Y-83604100D02*
X18097500Y-83820000D01*
X18313400Y-60807600D02*
X18313400Y-83604100D01*
D31*
X19735800Y-41351200D02*
X19710400Y-41376600D01*
X21305200Y-41351200D02*
X19735800Y-41351200D01*
X21317466Y-44999107D02*
X21317466Y-43170307D01*
X19618493Y-44999107D02*
X19608800Y-45008800D01*
X21317466Y-44999107D02*
X19618493Y-44999107D01*
D29*
X10441551Y-36992847D02*
X10041552Y-36592848D01*
X12217400Y-40563800D02*
X12217400Y-38768696D01*
X12217400Y-38768696D02*
X10441551Y-36992847D01*
X762000Y-23774400D02*
X1977400Y-23774400D01*
X1977400Y-23774400D02*
X2286000Y-23465800D01*
D31*
X53238400Y-41529000D02*
X54909400Y-41529000D01*
D29*
X54909400Y-41529000D02*
X54985600Y-41605200D01*
X53340000Y-45237400D02*
X53314600Y-45262800D01*
D31*
X54985600Y-45237400D02*
X53340000Y-45237400D01*
X54985600Y-43434000D02*
X54985600Y-45237400D01*
D29*
X46634400Y-40563800D02*
X46151800Y-41046400D01*
X46151800Y-41046400D02*
X41688285Y-41046400D01*
X41688285Y-41046400D02*
X41122600Y-41046400D01*
D32*
X17809200Y-36470600D02*
X18135600Y-36144200D01*
X15519400Y-36470600D02*
X17809200Y-36470600D01*
X11586200Y-36470600D02*
X11582400Y-36474400D01*
X13614400Y-36470600D02*
X11586200Y-36470600D01*
X13614400Y-36470600D02*
X15519400Y-36470600D01*
X47621200Y-36648400D02*
X47523400Y-36550600D01*
X49834800Y-36648400D02*
X47621200Y-36648400D01*
X53896210Y-36648400D02*
X53900010Y-36652200D01*
X51739800Y-36648400D02*
X53896210Y-36648400D01*
X49834800Y-36648400D02*
X51739800Y-36648400D01*
D31*
X14884400Y-42570400D02*
X14014399Y-41700399D01*
X14014399Y-41700399D02*
X13614400Y-41300400D01*
X14884400Y-46659800D02*
X14884400Y-42570400D01*
X13614400Y-41300400D02*
X13614400Y-39170600D01*
X17830800Y-46710600D02*
X17830800Y-41482000D01*
X17830800Y-41482000D02*
X15519400Y-39170600D01*
X49809400Y-41554400D02*
X47987485Y-41554400D01*
X47987485Y-41554400D02*
X47421800Y-41554400D01*
X49834800Y-41579800D02*
X49809400Y-41554400D01*
X49834800Y-39348400D02*
X49834800Y-45008800D01*
X48532999Y-46310601D02*
X48133000Y-46710600D01*
X49834800Y-45008800D02*
X48532999Y-46310601D01*
D29*
X49834800Y-39348400D02*
X49834800Y-41579800D01*
X51739800Y-46583600D02*
X51841400Y-46685200D01*
D31*
X51739800Y-39348400D02*
X51739800Y-46583600D01*
X7380600Y-4597400D02*
X7380600Y-1839600D01*
X8636000Y-584200D02*
X10515600Y-584200D01*
X7380600Y-1839600D02*
X8636000Y-584200D01*
X33299400Y-6502400D02*
X31065200Y-8736600D01*
X33299400Y-3759200D02*
X33299400Y-6502400D01*
X31065200Y-8736600D02*
X30099000Y-8736600D01*
D29*
X30099000Y-8736600D02*
X30099000Y-9586600D01*
D33*
G36*
X2577513Y-55877057D02*
X2047080Y-56231480D01*
X1692657Y-56761913D01*
X1568200Y-57387600D01*
X1692657Y-58013287D01*
X2047080Y-58543720D01*
X2152989Y-58614486D01*
X1995391Y-58719791D01*
X1855043Y-58929835D01*
X1818493Y-59113585D01*
X1692657Y-59301913D01*
X1568200Y-59927600D01*
X1692657Y-60553287D01*
X1818493Y-60741615D01*
X1855043Y-60925365D01*
X1995391Y-61135409D01*
X2205435Y-61275757D01*
X2389185Y-61312307D01*
X2577513Y-61438143D01*
X3203200Y-61562600D01*
X7184595Y-61562600D01*
X7184600Y-61562601D01*
X7810288Y-61438143D01*
X8340720Y-61083720D01*
X8369719Y-61054720D01*
X8724143Y-60524288D01*
X8848600Y-59898600D01*
X8724143Y-59272912D01*
X8369719Y-58742481D01*
X8299675Y-58695679D01*
X8296409Y-58690791D01*
X8233266Y-58648600D01*
X8296409Y-58606409D01*
X8299675Y-58601521D01*
X8369719Y-58554719D01*
X8724142Y-58024287D01*
X8746125Y-57913771D01*
X10064621Y-57913771D01*
X10221858Y-58294315D01*
X10512754Y-58585719D01*
X10893023Y-58743620D01*
X11304771Y-58743979D01*
X11422470Y-58695347D01*
X11486791Y-58791609D01*
X11696835Y-58931957D01*
X11944600Y-58981240D01*
X13444600Y-58981240D01*
X13570152Y-58956266D01*
X13569821Y-59336171D01*
X13727058Y-59716715D01*
X14017954Y-60008119D01*
X14398223Y-60166020D01*
X14565164Y-60166166D01*
X16613598Y-62214600D01*
X16613598Y-66026765D01*
X16538977Y-65995780D01*
X16127229Y-65995421D01*
X15746685Y-66152658D01*
X15455281Y-66443554D01*
X15297380Y-66823823D01*
X15297021Y-67235571D01*
X15454258Y-67616115D01*
X15572200Y-67734263D01*
X15572200Y-70497700D01*
X15630052Y-70788539D01*
X15794799Y-71035101D01*
X16490965Y-71731267D01*
X16490821Y-71896471D01*
X16648058Y-72277015D01*
X16938954Y-72568419D01*
X17319223Y-72726320D01*
X17553400Y-72726524D01*
X17553400Y-82924946D01*
X17511985Y-82942058D01*
X17220581Y-83232954D01*
X17062680Y-83613223D01*
X17062321Y-84024971D01*
X17219558Y-84405515D01*
X17510454Y-84696919D01*
X17890723Y-84854820D01*
X18302471Y-84855179D01*
X18581481Y-84739895D01*
X18919423Y-84880220D01*
X19331171Y-84880579D01*
X19711715Y-84723342D01*
X20003119Y-84432446D01*
X20161020Y-84052177D01*
X20161379Y-83640429D01*
X20004142Y-83259885D01*
X19713246Y-82968481D01*
X19556000Y-82903187D01*
X19556000Y-80702150D01*
X20226600Y-80702150D01*
X20226600Y-81192710D01*
X20323273Y-81426099D01*
X20501902Y-81604727D01*
X20735291Y-81701400D01*
X21325850Y-81701400D01*
X21484600Y-81542650D01*
X21484600Y-80543400D01*
X20385350Y-80543400D01*
X20226600Y-80702150D01*
X19556000Y-80702150D01*
X19556000Y-79640090D01*
X20226600Y-79640090D01*
X20226600Y-80130650D01*
X20385350Y-80289400D01*
X21484600Y-80289400D01*
X21484600Y-79290150D01*
X21738600Y-79290150D01*
X21738600Y-80289400D01*
X22837850Y-80289400D01*
X22914160Y-80213090D01*
X22914160Y-80619710D01*
X22837850Y-80543400D01*
X21738600Y-80543400D01*
X21738600Y-81542650D01*
X21897350Y-81701400D01*
X22487909Y-81701400D01*
X22721298Y-81604727D01*
X22899927Y-81426099D01*
X22957879Y-81286191D01*
X22963443Y-81314165D01*
X23103791Y-81524209D01*
X23313835Y-81664557D01*
X23561600Y-81713840D01*
X25061600Y-81713840D01*
X25309365Y-81664557D01*
X25519409Y-81524209D01*
X25580525Y-81432743D01*
X25625023Y-81451220D01*
X26036771Y-81451579D01*
X26417315Y-81294342D01*
X26708719Y-81003446D01*
X26866620Y-80623177D01*
X26866979Y-80211429D01*
X26709742Y-79830885D01*
X26418846Y-79539481D01*
X26038577Y-79381580D01*
X25626829Y-79381221D01*
X25580680Y-79400289D01*
X25519409Y-79308591D01*
X25309365Y-79168243D01*
X25061600Y-79118960D01*
X23561600Y-79118960D01*
X23313835Y-79168243D01*
X23103791Y-79308591D01*
X22963443Y-79518635D01*
X22957879Y-79546609D01*
X22899927Y-79406701D01*
X22721298Y-79228073D01*
X22487909Y-79131400D01*
X21897350Y-79131400D01*
X21738600Y-79290150D01*
X21484600Y-79290150D01*
X21325850Y-79131400D01*
X20735291Y-79131400D01*
X20501902Y-79228073D01*
X20323273Y-79406701D01*
X20226600Y-79640090D01*
X19556000Y-79640090D01*
X19556000Y-62240002D01*
X19888200Y-61907802D01*
X21738399Y-63758001D01*
X21984960Y-63922748D01*
X22275800Y-63980600D01*
X49174400Y-63980600D01*
X49465239Y-63922748D01*
X49711801Y-63758001D01*
X53333833Y-60135969D01*
X53671515Y-59996442D01*
X53962919Y-59705546D01*
X54120820Y-59325277D01*
X54121157Y-58938492D01*
X54342698Y-58846727D01*
X54484346Y-58705080D01*
X54525191Y-58766209D01*
X54735235Y-58906557D01*
X54983000Y-58955840D01*
X56483000Y-58955840D01*
X56730765Y-58906557D01*
X56940809Y-58766209D01*
X56972872Y-58718224D01*
X57380371Y-58718579D01*
X57760915Y-58561342D01*
X58052319Y-58270446D01*
X58210220Y-57890177D01*
X58210579Y-57478429D01*
X58053342Y-57097885D01*
X57762446Y-56806481D01*
X57382177Y-56648580D01*
X56972636Y-56648223D01*
X56940809Y-56600591D01*
X56730765Y-56460243D01*
X56483000Y-56410960D01*
X54983000Y-56410960D01*
X54735235Y-56460243D01*
X54525191Y-56600591D01*
X54484346Y-56661720D01*
X54342698Y-56520073D01*
X54109309Y-56423400D01*
X53518750Y-56423400D01*
X53360000Y-56582150D01*
X53360000Y-57556400D01*
X54335560Y-57556400D01*
X54335560Y-57810400D01*
X53360000Y-57810400D01*
X53360000Y-58111593D01*
X53292777Y-58083680D01*
X53106000Y-58083517D01*
X53106000Y-57810400D01*
X52006750Y-57810400D01*
X51848000Y-57969150D01*
X51848000Y-58083472D01*
X51674529Y-58083321D01*
X51293985Y-58240558D01*
X51002581Y-58531454D01*
X50844680Y-58911723D01*
X50844534Y-59078664D01*
X48046798Y-61876400D01*
X27420279Y-61876400D01*
X27699319Y-61597846D01*
X27857220Y-61217577D01*
X27857579Y-60805829D01*
X27711376Y-60451990D01*
X27738115Y-60440942D01*
X27881707Y-60297600D01*
X28265813Y-60297600D01*
X28288243Y-60410365D01*
X28428591Y-60620409D01*
X28638635Y-60760757D01*
X28886400Y-60810040D01*
X30386400Y-60810040D01*
X30634165Y-60760757D01*
X30844209Y-60620409D01*
X30885054Y-60559280D01*
X31026702Y-60700927D01*
X31260091Y-60797600D01*
X31850650Y-60797600D01*
X32009400Y-60638850D01*
X32009400Y-59664600D01*
X32263400Y-59664600D01*
X32263400Y-60638850D01*
X32422150Y-60797600D01*
X33012709Y-60797600D01*
X33246098Y-60700927D01*
X33424727Y-60522299D01*
X33521400Y-60288910D01*
X33521400Y-59823350D01*
X33362650Y-59664600D01*
X32263400Y-59664600D01*
X32009400Y-59664600D01*
X31033840Y-59664600D01*
X31033840Y-59410600D01*
X32009400Y-59410600D01*
X32009400Y-58886250D01*
X32085600Y-58810050D01*
X32085600Y-58436350D01*
X32263400Y-58436350D01*
X32263400Y-59410600D01*
X33362650Y-59410600D01*
X33521400Y-59251850D01*
X33521400Y-58786290D01*
X33488226Y-58706200D01*
X33500927Y-58693499D01*
X33597600Y-58460110D01*
X33597600Y-57994550D01*
X33438850Y-57835800D01*
X32339600Y-57835800D01*
X32339600Y-58360150D01*
X32263400Y-58436350D01*
X32085600Y-58436350D01*
X32085600Y-57835800D01*
X31110040Y-57835800D01*
X31110040Y-57581800D01*
X32085600Y-57581800D01*
X32085600Y-56607550D01*
X32339600Y-56607550D01*
X32339600Y-57581800D01*
X33438850Y-57581800D01*
X33597600Y-57423050D01*
X33597600Y-56957490D01*
X33500927Y-56724101D01*
X33322298Y-56545473D01*
X33088909Y-56448800D01*
X32498350Y-56448800D01*
X32339600Y-56607550D01*
X32085600Y-56607550D01*
X31926850Y-56448800D01*
X31336291Y-56448800D01*
X31102902Y-56545473D01*
X30961254Y-56687120D01*
X30920409Y-56625991D01*
X30710365Y-56485643D01*
X30462600Y-56436360D01*
X28962600Y-56436360D01*
X28714835Y-56485643D01*
X28504791Y-56625991D01*
X28364443Y-56836035D01*
X28342013Y-56948800D01*
X27805605Y-56948800D01*
X27714246Y-56857281D01*
X27333977Y-56699380D01*
X26922229Y-56699021D01*
X26541685Y-56856258D01*
X26375164Y-57022489D01*
X26150910Y-56929600D01*
X25660350Y-56929600D01*
X25501600Y-57088350D01*
X25501600Y-58187600D01*
X26194669Y-58187600D01*
X26249258Y-58319715D01*
X26370931Y-58441600D01*
X25501600Y-58441600D01*
X25501600Y-59540850D01*
X25577910Y-59617160D01*
X25171290Y-59617160D01*
X25247600Y-59540850D01*
X25247600Y-58441600D01*
X24248350Y-58441600D01*
X24089600Y-58600350D01*
X24089600Y-59190909D01*
X24186273Y-59424298D01*
X24364901Y-59602927D01*
X24504809Y-59660879D01*
X24476835Y-59666443D01*
X24266791Y-59806791D01*
X24126443Y-60016835D01*
X24077160Y-60264600D01*
X24077160Y-61764600D01*
X24099398Y-61876400D01*
X23950618Y-61876400D01*
X21639618Y-59565400D01*
X21393056Y-59400653D01*
X21102217Y-59342801D01*
X19018199Y-59342801D01*
X18727359Y-59400653D01*
X18480798Y-59565400D01*
X18273633Y-59772565D01*
X18108429Y-59772421D01*
X17727885Y-59929658D01*
X17436481Y-60220554D01*
X17278580Y-60600823D01*
X17278467Y-60729865D01*
X15640035Y-59091433D01*
X15640131Y-58981240D01*
X15944600Y-58981240D01*
X16192365Y-58931957D01*
X16402409Y-58791609D01*
X16542757Y-58581565D01*
X16592040Y-58333800D01*
X16592040Y-57969150D01*
X17786600Y-57969150D01*
X17786600Y-58434710D01*
X17883273Y-58668099D01*
X18061902Y-58846727D01*
X18295291Y-58943400D01*
X18885850Y-58943400D01*
X19044600Y-58784650D01*
X19044600Y-57810400D01*
X17945350Y-57810400D01*
X17786600Y-57969150D01*
X16592040Y-57969150D01*
X16592040Y-57083800D01*
X16561864Y-56932090D01*
X17786600Y-56932090D01*
X17786600Y-57397650D01*
X17945350Y-57556400D01*
X19044600Y-57556400D01*
X19044600Y-56582150D01*
X19298600Y-56582150D01*
X19298600Y-57556400D01*
X20274160Y-57556400D01*
X20274160Y-57810400D01*
X19298600Y-57810400D01*
X19298600Y-58784650D01*
X19457350Y-58943400D01*
X20047909Y-58943400D01*
X20281298Y-58846727D01*
X20422946Y-58705080D01*
X20463791Y-58766209D01*
X20673835Y-58906557D01*
X20921600Y-58955840D01*
X22421600Y-58955840D01*
X22669365Y-58906557D01*
X22879409Y-58766209D01*
X22881727Y-58762739D01*
X22958023Y-58794420D01*
X23369771Y-58794779D01*
X23750315Y-58637542D01*
X24041719Y-58346646D01*
X24149010Y-58088260D01*
X24248350Y-58187600D01*
X25247600Y-58187600D01*
X25247600Y-57088350D01*
X25088850Y-56929600D01*
X24598290Y-56929600D01*
X24364901Y-57026273D01*
X24186273Y-57204902D01*
X24120793Y-57362984D01*
X24042742Y-57174085D01*
X23751846Y-56882681D01*
X23371577Y-56724780D01*
X22962152Y-56724423D01*
X22879409Y-56600591D01*
X22669365Y-56460243D01*
X22421600Y-56410960D01*
X20921600Y-56410960D01*
X20673835Y-56460243D01*
X20463791Y-56600591D01*
X20422946Y-56661720D01*
X20281298Y-56520073D01*
X20047909Y-56423400D01*
X19457350Y-56423400D01*
X19298600Y-56582150D01*
X19044600Y-56582150D01*
X18885850Y-56423400D01*
X18295291Y-56423400D01*
X18061902Y-56520073D01*
X17883273Y-56698701D01*
X17786600Y-56932090D01*
X16561864Y-56932090D01*
X16542757Y-56836035D01*
X16402409Y-56625991D01*
X16192365Y-56485643D01*
X15944600Y-56436360D01*
X14444600Y-56436360D01*
X14196835Y-56485643D01*
X13986791Y-56625991D01*
X13944600Y-56689134D01*
X13902409Y-56625991D01*
X13692365Y-56485643D01*
X13444600Y-56436360D01*
X11944600Y-56436360D01*
X11696835Y-56485643D01*
X11486791Y-56625991D01*
X11422549Y-56722136D01*
X11306577Y-56673980D01*
X10894829Y-56673621D01*
X10514285Y-56830858D01*
X10222881Y-57121754D01*
X10064980Y-57502023D01*
X10064621Y-57913771D01*
X8746125Y-57913771D01*
X8848600Y-57398600D01*
X8724142Y-56772912D01*
X8369719Y-56242480D01*
X8358720Y-56231480D01*
X7828288Y-55877057D01*
X7460003Y-55803800D01*
X36945800Y-55803800D01*
X36577513Y-55877057D01*
X36047080Y-56231480D01*
X35692657Y-56761913D01*
X35568200Y-57387600D01*
X35692657Y-58013287D01*
X36047080Y-58543720D01*
X36152989Y-58614486D01*
X35995391Y-58719791D01*
X35855043Y-58929835D01*
X35818493Y-59113585D01*
X35692657Y-59301913D01*
X35568200Y-59927600D01*
X35692657Y-60553287D01*
X35818493Y-60741615D01*
X35855043Y-60925365D01*
X35995391Y-61135409D01*
X36205435Y-61275757D01*
X36389185Y-61312307D01*
X36577513Y-61438143D01*
X37203200Y-61562600D01*
X41169795Y-61562600D01*
X41169800Y-61562601D01*
X41795488Y-61438143D01*
X42042945Y-61272797D01*
X42046165Y-61272157D01*
X42256209Y-61131809D01*
X42258031Y-61129082D01*
X42325920Y-61083720D01*
X42329517Y-61080122D01*
X42329520Y-61080120D01*
X42623463Y-60640202D01*
X42683943Y-60549688D01*
X42808400Y-59924000D01*
X42683943Y-59298312D01*
X42563796Y-59118500D01*
X42329520Y-58767880D01*
X42259473Y-58721076D01*
X42256209Y-58716191D01*
X42193066Y-58674000D01*
X42256209Y-58631809D01*
X42259475Y-58626921D01*
X42329519Y-58580119D01*
X42683942Y-58049687D01*
X42710977Y-57913771D01*
X44202221Y-57913771D01*
X44359458Y-58294315D01*
X44650354Y-58585719D01*
X45030623Y-58743620D01*
X45442371Y-58743979D01*
X45460547Y-58736469D01*
X45497391Y-58791609D01*
X45707435Y-58931957D01*
X45955200Y-58981240D01*
X47455200Y-58981240D01*
X47576574Y-58957098D01*
X47542680Y-59038723D01*
X47542321Y-59450471D01*
X47699558Y-59831015D01*
X47990454Y-60122419D01*
X48370723Y-60280320D01*
X48782471Y-60280679D01*
X49163015Y-60123442D01*
X49454419Y-59832546D01*
X49612320Y-59452277D01*
X49612466Y-59285336D01*
X49742601Y-59155201D01*
X49858838Y-58981240D01*
X49955200Y-58981240D01*
X50202965Y-58931957D01*
X50413009Y-58791609D01*
X50553357Y-58581565D01*
X50602640Y-58333800D01*
X50602640Y-57083800D01*
X50572464Y-56932090D01*
X51848000Y-56932090D01*
X51848000Y-57397650D01*
X52006750Y-57556400D01*
X53106000Y-57556400D01*
X53106000Y-56582150D01*
X52947250Y-56423400D01*
X52356691Y-56423400D01*
X52123302Y-56520073D01*
X51944673Y-56698701D01*
X51848000Y-56932090D01*
X50572464Y-56932090D01*
X50553357Y-56836035D01*
X50413009Y-56625991D01*
X50202965Y-56485643D01*
X49955200Y-56436360D01*
X48455200Y-56436360D01*
X48207435Y-56485643D01*
X47997391Y-56625991D01*
X47955200Y-56689134D01*
X47913009Y-56625991D01*
X47702965Y-56485643D01*
X47455200Y-56436360D01*
X45955200Y-56436360D01*
X45707435Y-56485643D01*
X45497391Y-56625991D01*
X45460732Y-56680854D01*
X45444177Y-56673980D01*
X45032429Y-56673621D01*
X44651885Y-56830858D01*
X44360481Y-57121754D01*
X44202580Y-57502023D01*
X44202221Y-57913771D01*
X42710977Y-57913771D01*
X42808400Y-57424000D01*
X42683942Y-56798312D01*
X42329519Y-56267880D01*
X42293120Y-56231480D01*
X41762688Y-55877057D01*
X41394403Y-55803800D01*
X59265000Y-55803800D01*
X59265000Y-92927610D01*
X58927043Y-94626634D01*
X58005629Y-96005629D01*
X56626634Y-96927043D01*
X54927610Y-97265000D01*
X49190712Y-97265000D01*
X49677829Y-96939520D01*
X50032252Y-96409087D01*
X50156709Y-95783400D01*
X50032252Y-95157713D01*
X49793398Y-94800241D01*
X49941609Y-94701209D01*
X50081957Y-94491165D01*
X50131240Y-94243400D01*
X50131240Y-93690168D01*
X51514397Y-93690168D01*
X52043838Y-94971515D01*
X53023329Y-95952716D01*
X54303749Y-96484394D01*
X55690168Y-96485603D01*
X56971515Y-95956162D01*
X57952716Y-94976671D01*
X58484394Y-93696251D01*
X58485603Y-92309832D01*
X57956162Y-91028485D01*
X56976671Y-90047284D01*
X55696251Y-89515606D01*
X54309832Y-89514397D01*
X53028485Y-90043838D01*
X52047284Y-91023329D01*
X51515606Y-92303749D01*
X51514397Y-93690168D01*
X50131240Y-93690168D01*
X50131240Y-92243400D01*
X50081957Y-91995635D01*
X49941609Y-91785591D01*
X49731565Y-91645243D01*
X49483800Y-91595960D01*
X46883800Y-91595960D01*
X46636035Y-91645243D01*
X46425991Y-91785591D01*
X46285643Y-91995635D01*
X46236360Y-92243400D01*
X46236360Y-94243400D01*
X46285643Y-94491165D01*
X46425991Y-94701209D01*
X46574202Y-94800241D01*
X46335348Y-95157713D01*
X46210891Y-95783400D01*
X46335348Y-96409087D01*
X46689771Y-96939520D01*
X47176888Y-97265000D01*
X12817740Y-97265000D01*
X13228829Y-96990320D01*
X13583252Y-96459887D01*
X13707709Y-95834200D01*
X13583252Y-95208513D01*
X13228829Y-94678080D01*
X13058395Y-94564200D01*
X13228829Y-94450320D01*
X13468050Y-94092300D01*
X19609960Y-94092300D01*
X19609960Y-94868100D01*
X19659243Y-95115865D01*
X19799591Y-95325909D01*
X20009635Y-95466257D01*
X20257400Y-95515540D01*
X21957400Y-95515540D01*
X22205165Y-95466257D01*
X22415209Y-95325909D01*
X22555557Y-95115865D01*
X22570414Y-95041175D01*
X22805117Y-95276288D01*
X23350719Y-95502842D01*
X23941489Y-95503357D01*
X24487486Y-95277756D01*
X24905588Y-94860383D01*
X24917148Y-94832543D01*
X24927744Y-94858186D01*
X25345117Y-95276288D01*
X25890719Y-95502842D01*
X26481489Y-95503357D01*
X27027486Y-95277756D01*
X27445588Y-94860383D01*
X27457148Y-94832543D01*
X27467744Y-94858186D01*
X27885117Y-95276288D01*
X28430719Y-95502842D01*
X29021489Y-95503357D01*
X29567486Y-95277756D01*
X29985588Y-94860383D01*
X29997148Y-94832543D01*
X30007744Y-94858186D01*
X30425117Y-95276288D01*
X30970719Y-95502842D01*
X31561489Y-95503357D01*
X32107486Y-95277756D01*
X32525588Y-94860383D01*
X32537148Y-94832543D01*
X32547744Y-94858186D01*
X32965117Y-95276288D01*
X33510719Y-95502842D01*
X34101489Y-95503357D01*
X34647486Y-95277756D01*
X35065588Y-94860383D01*
X35077148Y-94832543D01*
X35087744Y-94858186D01*
X35505117Y-95276288D01*
X36050719Y-95502842D01*
X36641489Y-95503357D01*
X37187486Y-95277756D01*
X37605588Y-94860383D01*
X37617148Y-94832543D01*
X37627744Y-94858186D01*
X38045117Y-95276288D01*
X38590719Y-95502842D01*
X39181489Y-95503357D01*
X39727486Y-95277756D01*
X40145588Y-94860383D01*
X40372142Y-94314781D01*
X40372657Y-93724011D01*
X40147056Y-93178014D01*
X39729683Y-92759912D01*
X39701843Y-92748352D01*
X39727486Y-92737756D01*
X40145588Y-92320383D01*
X40372142Y-91774781D01*
X40372657Y-91184011D01*
X40147056Y-90638014D01*
X39729683Y-90219912D01*
X39184081Y-89993358D01*
X38667839Y-89992908D01*
X38715440Y-89753600D01*
X38715440Y-88503600D01*
X38666157Y-88255835D01*
X38525809Y-88045791D01*
X38315765Y-87905443D01*
X38230987Y-87888580D01*
X38347420Y-87608177D01*
X38347779Y-87196429D01*
X38190542Y-86815885D01*
X37899646Y-86524481D01*
X37519377Y-86366580D01*
X37107629Y-86366221D01*
X36727085Y-86523458D01*
X36435681Y-86814354D01*
X36277780Y-87194623D01*
X36277421Y-87606371D01*
X36394861Y-87890599D01*
X36320235Y-87905443D01*
X36110191Y-88045791D01*
X36068000Y-88108934D01*
X36025809Y-88045791D01*
X35815765Y-87905443D01*
X35568000Y-87856160D01*
X35184562Y-87856160D01*
X34567400Y-87238998D01*
X34567400Y-73035002D01*
X35214402Y-72388000D01*
X45008800Y-72388000D01*
X45299639Y-72330148D01*
X45546201Y-72165401D01*
X49511043Y-68200559D01*
X49510821Y-68454771D01*
X49668058Y-68835315D01*
X49958954Y-69126719D01*
X50339223Y-69284620D01*
X50750971Y-69284979D01*
X51131515Y-69127742D01*
X51422919Y-68836846D01*
X51580820Y-68456577D01*
X51581179Y-68044829D01*
X51423942Y-67664285D01*
X51306000Y-67546137D01*
X51306000Y-67100598D01*
X51248148Y-66809759D01*
X51083401Y-66563197D01*
X49997403Y-65477199D01*
X49750841Y-65312452D01*
X49460002Y-65254600D01*
X46296761Y-65254600D01*
X46180046Y-65137681D01*
X45799777Y-64979780D01*
X45388029Y-64979421D01*
X45007485Y-65136658D01*
X44716081Y-65427554D01*
X44558180Y-65807823D01*
X44557821Y-66219571D01*
X44715058Y-66600115D01*
X45005954Y-66891519D01*
X45386223Y-67049420D01*
X45797971Y-67049779D01*
X46178515Y-66892542D01*
X46296663Y-66774600D01*
X48532407Y-66774600D01*
X48469780Y-66925423D01*
X48469634Y-67092364D01*
X44693998Y-70868000D01*
X34899600Y-70868000D01*
X34608761Y-70925852D01*
X34362199Y-71090599D01*
X33775624Y-71677174D01*
X33775779Y-71499229D01*
X33618542Y-71118685D01*
X33327646Y-70827281D01*
X32947377Y-70669380D01*
X32535629Y-70669021D01*
X32357600Y-70742581D01*
X32357600Y-66718361D01*
X32474519Y-66601646D01*
X32632420Y-66221377D01*
X32632779Y-65809629D01*
X32475542Y-65429085D01*
X32184646Y-65137681D01*
X31804377Y-64979780D01*
X31392629Y-64979421D01*
X31012085Y-65136658D01*
X30988191Y-65160510D01*
X30940046Y-65112281D01*
X30559777Y-64954380D01*
X30148029Y-64954021D01*
X29767485Y-65111258D01*
X29476081Y-65402154D01*
X29318180Y-65782423D01*
X29317821Y-66194171D01*
X29475058Y-66574715D01*
X29593000Y-66692863D01*
X29593000Y-81930398D01*
X21839999Y-89683399D01*
X21675252Y-89929961D01*
X21642915Y-90092530D01*
X21404081Y-89993358D01*
X20813311Y-89992843D01*
X20621557Y-90072074D01*
X20421600Y-90032300D01*
X13518965Y-90032300D01*
X13345569Y-89772794D01*
X13394499Y-89752527D01*
X13573127Y-89573898D01*
X13669800Y-89340509D01*
X13669800Y-88499950D01*
X13511050Y-88341200D01*
X11861800Y-88341200D01*
X11861800Y-89119200D01*
X11607800Y-89119200D01*
X11607800Y-88341200D01*
X9958550Y-88341200D01*
X9799800Y-88499950D01*
X9799800Y-89340509D01*
X9896473Y-89573898D01*
X10075101Y-89752527D01*
X10124031Y-89772794D01*
X9886348Y-90128513D01*
X9761891Y-90754200D01*
X9886348Y-91379887D01*
X10240771Y-91910320D01*
X10411205Y-92024200D01*
X10240771Y-92138080D01*
X9886348Y-92668513D01*
X9761891Y-93294200D01*
X9886348Y-93919887D01*
X10240771Y-94450320D01*
X10411205Y-94564200D01*
X10240771Y-94678080D01*
X9886348Y-95208513D01*
X9761891Y-95834200D01*
X9886348Y-96459887D01*
X10240771Y-96990320D01*
X10651860Y-97265000D01*
X5072390Y-97265000D01*
X3373366Y-96927043D01*
X1994371Y-96005629D01*
X1072957Y-94626634D01*
X886683Y-93690168D01*
X1514397Y-93690168D01*
X2043838Y-94971515D01*
X3023329Y-95952716D01*
X4303749Y-96484394D01*
X5690168Y-96485603D01*
X6971515Y-95956162D01*
X7952716Y-94976671D01*
X8484394Y-93696251D01*
X8485603Y-92309832D01*
X7956162Y-91028485D01*
X6976671Y-90047284D01*
X5696251Y-89515606D01*
X4309832Y-89514397D01*
X3028485Y-90043838D01*
X2047284Y-91023329D01*
X1515606Y-92303749D01*
X1514397Y-93690168D01*
X886683Y-93690168D01*
X735000Y-92927610D01*
X735000Y-87087891D01*
X9799800Y-87087891D01*
X9799800Y-87928450D01*
X9958550Y-88087200D01*
X11607800Y-88087200D01*
X11607800Y-86737950D01*
X11861800Y-86737950D01*
X11861800Y-88087200D01*
X13511050Y-88087200D01*
X13669800Y-87928450D01*
X13669800Y-87087891D01*
X13573127Y-86854502D01*
X13394499Y-86675873D01*
X13161110Y-86579200D01*
X12020550Y-86579200D01*
X11861800Y-86737950D01*
X11607800Y-86737950D01*
X11449050Y-86579200D01*
X10308490Y-86579200D01*
X10075101Y-86675873D01*
X9896473Y-86854502D01*
X9799800Y-87087891D01*
X735000Y-87087891D01*
X735000Y-80646771D01*
X9988421Y-80646771D01*
X10145658Y-81027315D01*
X10436554Y-81318719D01*
X10816823Y-81476620D01*
X11228571Y-81476979D01*
X11300899Y-81447094D01*
X11376596Y-81560381D01*
X11586640Y-81700729D01*
X11834405Y-81750012D01*
X13334405Y-81750012D01*
X13582170Y-81700729D01*
X13792214Y-81560381D01*
X13932562Y-81350337D01*
X13938126Y-81322363D01*
X13996078Y-81462271D01*
X14174707Y-81640899D01*
X14408096Y-81737572D01*
X14998655Y-81737572D01*
X15157405Y-81578822D01*
X15157405Y-80579572D01*
X15411405Y-80579572D01*
X15411405Y-81578822D01*
X15570155Y-81737572D01*
X16160714Y-81737572D01*
X16394103Y-81640899D01*
X16572732Y-81462271D01*
X16669405Y-81228882D01*
X16669405Y-80738322D01*
X16510655Y-80579572D01*
X15411405Y-80579572D01*
X15157405Y-80579572D01*
X14058155Y-80579572D01*
X13981845Y-80655882D01*
X13981845Y-80249262D01*
X14058155Y-80325572D01*
X15157405Y-80325572D01*
X15157405Y-79326322D01*
X15411405Y-79326322D01*
X15411405Y-80325572D01*
X16510655Y-80325572D01*
X16669405Y-80166822D01*
X16669405Y-79676262D01*
X16572732Y-79442873D01*
X16394103Y-79264245D01*
X16160714Y-79167572D01*
X15570155Y-79167572D01*
X15411405Y-79326322D01*
X15157405Y-79326322D01*
X14998655Y-79167572D01*
X14408096Y-79167572D01*
X14174707Y-79264245D01*
X13996078Y-79442873D01*
X13938126Y-79582781D01*
X13932562Y-79554807D01*
X13792214Y-79344763D01*
X13582170Y-79204415D01*
X13334405Y-79155132D01*
X11834405Y-79155132D01*
X11586640Y-79204415D01*
X11376596Y-79344763D01*
X11312295Y-79440995D01*
X11230377Y-79406980D01*
X10818629Y-79406621D01*
X10438085Y-79563858D01*
X10146681Y-79854754D01*
X9988780Y-80235023D01*
X9988421Y-80646771D01*
X735000Y-80646771D01*
X735000Y-55803800D01*
X2945800Y-55803800D01*
X2577513Y-55877057D01*
X2577513Y-55877057D01*
G37*
X2577513Y-55877057D02*
X2047080Y-56231480D01*
X1692657Y-56761913D01*
X1568200Y-57387600D01*
X1692657Y-58013287D01*
X2047080Y-58543720D01*
X2152989Y-58614486D01*
X1995391Y-58719791D01*
X1855043Y-58929835D01*
X1818493Y-59113585D01*
X1692657Y-59301913D01*
X1568200Y-59927600D01*
X1692657Y-60553287D01*
X1818493Y-60741615D01*
X1855043Y-60925365D01*
X1995391Y-61135409D01*
X2205435Y-61275757D01*
X2389185Y-61312307D01*
X2577513Y-61438143D01*
X3203200Y-61562600D01*
X7184595Y-61562600D01*
X7184600Y-61562601D01*
X7810288Y-61438143D01*
X8340720Y-61083720D01*
X8369719Y-61054720D01*
X8724143Y-60524288D01*
X8848600Y-59898600D01*
X8724143Y-59272912D01*
X8369719Y-58742481D01*
X8299675Y-58695679D01*
X8296409Y-58690791D01*
X8233266Y-58648600D01*
X8296409Y-58606409D01*
X8299675Y-58601521D01*
X8369719Y-58554719D01*
X8724142Y-58024287D01*
X8746125Y-57913771D01*
X10064621Y-57913771D01*
X10221858Y-58294315D01*
X10512754Y-58585719D01*
X10893023Y-58743620D01*
X11304771Y-58743979D01*
X11422470Y-58695347D01*
X11486791Y-58791609D01*
X11696835Y-58931957D01*
X11944600Y-58981240D01*
X13444600Y-58981240D01*
X13570152Y-58956266D01*
X13569821Y-59336171D01*
X13727058Y-59716715D01*
X14017954Y-60008119D01*
X14398223Y-60166020D01*
X14565164Y-60166166D01*
X16613598Y-62214600D01*
X16613598Y-66026765D01*
X16538977Y-65995780D01*
X16127229Y-65995421D01*
X15746685Y-66152658D01*
X15455281Y-66443554D01*
X15297380Y-66823823D01*
X15297021Y-67235571D01*
X15454258Y-67616115D01*
X15572200Y-67734263D01*
X15572200Y-70497700D01*
X15630052Y-70788539D01*
X15794799Y-71035101D01*
X16490965Y-71731267D01*
X16490821Y-71896471D01*
X16648058Y-72277015D01*
X16938954Y-72568419D01*
X17319223Y-72726320D01*
X17553400Y-72726524D01*
X17553400Y-82924946D01*
X17511985Y-82942058D01*
X17220581Y-83232954D01*
X17062680Y-83613223D01*
X17062321Y-84024971D01*
X17219558Y-84405515D01*
X17510454Y-84696919D01*
X17890723Y-84854820D01*
X18302471Y-84855179D01*
X18581481Y-84739895D01*
X18919423Y-84880220D01*
X19331171Y-84880579D01*
X19711715Y-84723342D01*
X20003119Y-84432446D01*
X20161020Y-84052177D01*
X20161379Y-83640429D01*
X20004142Y-83259885D01*
X19713246Y-82968481D01*
X19556000Y-82903187D01*
X19556000Y-80702150D01*
X20226600Y-80702150D01*
X20226600Y-81192710D01*
X20323273Y-81426099D01*
X20501902Y-81604727D01*
X20735291Y-81701400D01*
X21325850Y-81701400D01*
X21484600Y-81542650D01*
X21484600Y-80543400D01*
X20385350Y-80543400D01*
X20226600Y-80702150D01*
X19556000Y-80702150D01*
X19556000Y-79640090D01*
X20226600Y-79640090D01*
X20226600Y-80130650D01*
X20385350Y-80289400D01*
X21484600Y-80289400D01*
X21484600Y-79290150D01*
X21738600Y-79290150D01*
X21738600Y-80289400D01*
X22837850Y-80289400D01*
X22914160Y-80213090D01*
X22914160Y-80619710D01*
X22837850Y-80543400D01*
X21738600Y-80543400D01*
X21738600Y-81542650D01*
X21897350Y-81701400D01*
X22487909Y-81701400D01*
X22721298Y-81604727D01*
X22899927Y-81426099D01*
X22957879Y-81286191D01*
X22963443Y-81314165D01*
X23103791Y-81524209D01*
X23313835Y-81664557D01*
X23561600Y-81713840D01*
X25061600Y-81713840D01*
X25309365Y-81664557D01*
X25519409Y-81524209D01*
X25580525Y-81432743D01*
X25625023Y-81451220D01*
X26036771Y-81451579D01*
X26417315Y-81294342D01*
X26708719Y-81003446D01*
X26866620Y-80623177D01*
X26866979Y-80211429D01*
X26709742Y-79830885D01*
X26418846Y-79539481D01*
X26038577Y-79381580D01*
X25626829Y-79381221D01*
X25580680Y-79400289D01*
X25519409Y-79308591D01*
X25309365Y-79168243D01*
X25061600Y-79118960D01*
X23561600Y-79118960D01*
X23313835Y-79168243D01*
X23103791Y-79308591D01*
X22963443Y-79518635D01*
X22957879Y-79546609D01*
X22899927Y-79406701D01*
X22721298Y-79228073D01*
X22487909Y-79131400D01*
X21897350Y-79131400D01*
X21738600Y-79290150D01*
X21484600Y-79290150D01*
X21325850Y-79131400D01*
X20735291Y-79131400D01*
X20501902Y-79228073D01*
X20323273Y-79406701D01*
X20226600Y-79640090D01*
X19556000Y-79640090D01*
X19556000Y-62240002D01*
X19888200Y-61907802D01*
X21738399Y-63758001D01*
X21984960Y-63922748D01*
X22275800Y-63980600D01*
X49174400Y-63980600D01*
X49465239Y-63922748D01*
X49711801Y-63758001D01*
X53333833Y-60135969D01*
X53671515Y-59996442D01*
X53962919Y-59705546D01*
X54120820Y-59325277D01*
X54121157Y-58938492D01*
X54342698Y-58846727D01*
X54484346Y-58705080D01*
X54525191Y-58766209D01*
X54735235Y-58906557D01*
X54983000Y-58955840D01*
X56483000Y-58955840D01*
X56730765Y-58906557D01*
X56940809Y-58766209D01*
X56972872Y-58718224D01*
X57380371Y-58718579D01*
X57760915Y-58561342D01*
X58052319Y-58270446D01*
X58210220Y-57890177D01*
X58210579Y-57478429D01*
X58053342Y-57097885D01*
X57762446Y-56806481D01*
X57382177Y-56648580D01*
X56972636Y-56648223D01*
X56940809Y-56600591D01*
X56730765Y-56460243D01*
X56483000Y-56410960D01*
X54983000Y-56410960D01*
X54735235Y-56460243D01*
X54525191Y-56600591D01*
X54484346Y-56661720D01*
X54342698Y-56520073D01*
X54109309Y-56423400D01*
X53518750Y-56423400D01*
X53360000Y-56582150D01*
X53360000Y-57556400D01*
X54335560Y-57556400D01*
X54335560Y-57810400D01*
X53360000Y-57810400D01*
X53360000Y-58111593D01*
X53292777Y-58083680D01*
X53106000Y-58083517D01*
X53106000Y-57810400D01*
X52006750Y-57810400D01*
X51848000Y-57969150D01*
X51848000Y-58083472D01*
X51674529Y-58083321D01*
X51293985Y-58240558D01*
X51002581Y-58531454D01*
X50844680Y-58911723D01*
X50844534Y-59078664D01*
X48046798Y-61876400D01*
X27420279Y-61876400D01*
X27699319Y-61597846D01*
X27857220Y-61217577D01*
X27857579Y-60805829D01*
X27711376Y-60451990D01*
X27738115Y-60440942D01*
X27881707Y-60297600D01*
X28265813Y-60297600D01*
X28288243Y-60410365D01*
X28428591Y-60620409D01*
X28638635Y-60760757D01*
X28886400Y-60810040D01*
X30386400Y-60810040D01*
X30634165Y-60760757D01*
X30844209Y-60620409D01*
X30885054Y-60559280D01*
X31026702Y-60700927D01*
X31260091Y-60797600D01*
X31850650Y-60797600D01*
X32009400Y-60638850D01*
X32009400Y-59664600D01*
X32263400Y-59664600D01*
X32263400Y-60638850D01*
X32422150Y-60797600D01*
X33012709Y-60797600D01*
X33246098Y-60700927D01*
X33424727Y-60522299D01*
X33521400Y-60288910D01*
X33521400Y-59823350D01*
X33362650Y-59664600D01*
X32263400Y-59664600D01*
X32009400Y-59664600D01*
X31033840Y-59664600D01*
X31033840Y-59410600D01*
X32009400Y-59410600D01*
X32009400Y-58886250D01*
X32085600Y-58810050D01*
X32085600Y-58436350D01*
X32263400Y-58436350D01*
X32263400Y-59410600D01*
X33362650Y-59410600D01*
X33521400Y-59251850D01*
X33521400Y-58786290D01*
X33488226Y-58706200D01*
X33500927Y-58693499D01*
X33597600Y-58460110D01*
X33597600Y-57994550D01*
X33438850Y-57835800D01*
X32339600Y-57835800D01*
X32339600Y-58360150D01*
X32263400Y-58436350D01*
X32085600Y-58436350D01*
X32085600Y-57835800D01*
X31110040Y-57835800D01*
X31110040Y-57581800D01*
X32085600Y-57581800D01*
X32085600Y-56607550D01*
X32339600Y-56607550D01*
X32339600Y-57581800D01*
X33438850Y-57581800D01*
X33597600Y-57423050D01*
X33597600Y-56957490D01*
X33500927Y-56724101D01*
X33322298Y-56545473D01*
X33088909Y-56448800D01*
X32498350Y-56448800D01*
X32339600Y-56607550D01*
X32085600Y-56607550D01*
X31926850Y-56448800D01*
X31336291Y-56448800D01*
X31102902Y-56545473D01*
X30961254Y-56687120D01*
X30920409Y-56625991D01*
X30710365Y-56485643D01*
X30462600Y-56436360D01*
X28962600Y-56436360D01*
X28714835Y-56485643D01*
X28504791Y-56625991D01*
X28364443Y-56836035D01*
X28342013Y-56948800D01*
X27805605Y-56948800D01*
X27714246Y-56857281D01*
X27333977Y-56699380D01*
X26922229Y-56699021D01*
X26541685Y-56856258D01*
X26375164Y-57022489D01*
X26150910Y-56929600D01*
X25660350Y-56929600D01*
X25501600Y-57088350D01*
X25501600Y-58187600D01*
X26194669Y-58187600D01*
X26249258Y-58319715D01*
X26370931Y-58441600D01*
X25501600Y-58441600D01*
X25501600Y-59540850D01*
X25577910Y-59617160D01*
X25171290Y-59617160D01*
X25247600Y-59540850D01*
X25247600Y-58441600D01*
X24248350Y-58441600D01*
X24089600Y-58600350D01*
X24089600Y-59190909D01*
X24186273Y-59424298D01*
X24364901Y-59602927D01*
X24504809Y-59660879D01*
X24476835Y-59666443D01*
X24266791Y-59806791D01*
X24126443Y-60016835D01*
X24077160Y-60264600D01*
X24077160Y-61764600D01*
X24099398Y-61876400D01*
X23950618Y-61876400D01*
X21639618Y-59565400D01*
X21393056Y-59400653D01*
X21102217Y-59342801D01*
X19018199Y-59342801D01*
X18727359Y-59400653D01*
X18480798Y-59565400D01*
X18273633Y-59772565D01*
X18108429Y-59772421D01*
X17727885Y-59929658D01*
X17436481Y-60220554D01*
X17278580Y-60600823D01*
X17278467Y-60729865D01*
X15640035Y-59091433D01*
X15640131Y-58981240D01*
X15944600Y-58981240D01*
X16192365Y-58931957D01*
X16402409Y-58791609D01*
X16542757Y-58581565D01*
X16592040Y-58333800D01*
X16592040Y-57969150D01*
X17786600Y-57969150D01*
X17786600Y-58434710D01*
X17883273Y-58668099D01*
X18061902Y-58846727D01*
X18295291Y-58943400D01*
X18885850Y-58943400D01*
X19044600Y-58784650D01*
X19044600Y-57810400D01*
X17945350Y-57810400D01*
X17786600Y-57969150D01*
X16592040Y-57969150D01*
X16592040Y-57083800D01*
X16561864Y-56932090D01*
X17786600Y-56932090D01*
X17786600Y-57397650D01*
X17945350Y-57556400D01*
X19044600Y-57556400D01*
X19044600Y-56582150D01*
X19298600Y-56582150D01*
X19298600Y-57556400D01*
X20274160Y-57556400D01*
X20274160Y-57810400D01*
X19298600Y-57810400D01*
X19298600Y-58784650D01*
X19457350Y-58943400D01*
X20047909Y-58943400D01*
X20281298Y-58846727D01*
X20422946Y-58705080D01*
X20463791Y-58766209D01*
X20673835Y-58906557D01*
X20921600Y-58955840D01*
X22421600Y-58955840D01*
X22669365Y-58906557D01*
X22879409Y-58766209D01*
X22881727Y-58762739D01*
X22958023Y-58794420D01*
X23369771Y-58794779D01*
X23750315Y-58637542D01*
X24041719Y-58346646D01*
X24149010Y-58088260D01*
X24248350Y-58187600D01*
X25247600Y-58187600D01*
X25247600Y-57088350D01*
X25088850Y-56929600D01*
X24598290Y-56929600D01*
X24364901Y-57026273D01*
X24186273Y-57204902D01*
X24120793Y-57362984D01*
X24042742Y-57174085D01*
X23751846Y-56882681D01*
X23371577Y-56724780D01*
X22962152Y-56724423D01*
X22879409Y-56600591D01*
X22669365Y-56460243D01*
X22421600Y-56410960D01*
X20921600Y-56410960D01*
X20673835Y-56460243D01*
X20463791Y-56600591D01*
X20422946Y-56661720D01*
X20281298Y-56520073D01*
X20047909Y-56423400D01*
X19457350Y-56423400D01*
X19298600Y-56582150D01*
X19044600Y-56582150D01*
X18885850Y-56423400D01*
X18295291Y-56423400D01*
X18061902Y-56520073D01*
X17883273Y-56698701D01*
X17786600Y-56932090D01*
X16561864Y-56932090D01*
X16542757Y-56836035D01*
X16402409Y-56625991D01*
X16192365Y-56485643D01*
X15944600Y-56436360D01*
X14444600Y-56436360D01*
X14196835Y-56485643D01*
X13986791Y-56625991D01*
X13944600Y-56689134D01*
X13902409Y-56625991D01*
X13692365Y-56485643D01*
X13444600Y-56436360D01*
X11944600Y-56436360D01*
X11696835Y-56485643D01*
X11486791Y-56625991D01*
X11422549Y-56722136D01*
X11306577Y-56673980D01*
X10894829Y-56673621D01*
X10514285Y-56830858D01*
X10222881Y-57121754D01*
X10064980Y-57502023D01*
X10064621Y-57913771D01*
X8746125Y-57913771D01*
X8848600Y-57398600D01*
X8724142Y-56772912D01*
X8369719Y-56242480D01*
X8358720Y-56231480D01*
X7828288Y-55877057D01*
X7460003Y-55803800D01*
X36945800Y-55803800D01*
X36577513Y-55877057D01*
X36047080Y-56231480D01*
X35692657Y-56761913D01*
X35568200Y-57387600D01*
X35692657Y-58013287D01*
X36047080Y-58543720D01*
X36152989Y-58614486D01*
X35995391Y-58719791D01*
X35855043Y-58929835D01*
X35818493Y-59113585D01*
X35692657Y-59301913D01*
X35568200Y-59927600D01*
X35692657Y-60553287D01*
X35818493Y-60741615D01*
X35855043Y-60925365D01*
X35995391Y-61135409D01*
X36205435Y-61275757D01*
X36389185Y-61312307D01*
X36577513Y-61438143D01*
X37203200Y-61562600D01*
X41169795Y-61562600D01*
X41169800Y-61562601D01*
X41795488Y-61438143D01*
X42042945Y-61272797D01*
X42046165Y-61272157D01*
X42256209Y-61131809D01*
X42258031Y-61129082D01*
X42325920Y-61083720D01*
X42329517Y-61080122D01*
X42329520Y-61080120D01*
X42623463Y-60640202D01*
X42683943Y-60549688D01*
X42808400Y-59924000D01*
X42683943Y-59298312D01*
X42563796Y-59118500D01*
X42329520Y-58767880D01*
X42259473Y-58721076D01*
X42256209Y-58716191D01*
X42193066Y-58674000D01*
X42256209Y-58631809D01*
X42259475Y-58626921D01*
X42329519Y-58580119D01*
X42683942Y-58049687D01*
X42710977Y-57913771D01*
X44202221Y-57913771D01*
X44359458Y-58294315D01*
X44650354Y-58585719D01*
X45030623Y-58743620D01*
X45442371Y-58743979D01*
X45460547Y-58736469D01*
X45497391Y-58791609D01*
X45707435Y-58931957D01*
X45955200Y-58981240D01*
X47455200Y-58981240D01*
X47576574Y-58957098D01*
X47542680Y-59038723D01*
X47542321Y-59450471D01*
X47699558Y-59831015D01*
X47990454Y-60122419D01*
X48370723Y-60280320D01*
X48782471Y-60280679D01*
X49163015Y-60123442D01*
X49454419Y-59832546D01*
X49612320Y-59452277D01*
X49612466Y-59285336D01*
X49742601Y-59155201D01*
X49858838Y-58981240D01*
X49955200Y-58981240D01*
X50202965Y-58931957D01*
X50413009Y-58791609D01*
X50553357Y-58581565D01*
X50602640Y-58333800D01*
X50602640Y-57083800D01*
X50572464Y-56932090D01*
X51848000Y-56932090D01*
X51848000Y-57397650D01*
X52006750Y-57556400D01*
X53106000Y-57556400D01*
X53106000Y-56582150D01*
X52947250Y-56423400D01*
X52356691Y-56423400D01*
X52123302Y-56520073D01*
X51944673Y-56698701D01*
X51848000Y-56932090D01*
X50572464Y-56932090D01*
X50553357Y-56836035D01*
X50413009Y-56625991D01*
X50202965Y-56485643D01*
X49955200Y-56436360D01*
X48455200Y-56436360D01*
X48207435Y-56485643D01*
X47997391Y-56625991D01*
X47955200Y-56689134D01*
X47913009Y-56625991D01*
X47702965Y-56485643D01*
X47455200Y-56436360D01*
X45955200Y-56436360D01*
X45707435Y-56485643D01*
X45497391Y-56625991D01*
X45460732Y-56680854D01*
X45444177Y-56673980D01*
X45032429Y-56673621D01*
X44651885Y-56830858D01*
X44360481Y-57121754D01*
X44202580Y-57502023D01*
X44202221Y-57913771D01*
X42710977Y-57913771D01*
X42808400Y-57424000D01*
X42683942Y-56798312D01*
X42329519Y-56267880D01*
X42293120Y-56231480D01*
X41762688Y-55877057D01*
X41394403Y-55803800D01*
X59265000Y-55803800D01*
X59265000Y-92927610D01*
X58927043Y-94626634D01*
X58005629Y-96005629D01*
X56626634Y-96927043D01*
X54927610Y-97265000D01*
X49190712Y-97265000D01*
X49677829Y-96939520D01*
X50032252Y-96409087D01*
X50156709Y-95783400D01*
X50032252Y-95157713D01*
X49793398Y-94800241D01*
X49941609Y-94701209D01*
X50081957Y-94491165D01*
X50131240Y-94243400D01*
X50131240Y-93690168D01*
X51514397Y-93690168D01*
X52043838Y-94971515D01*
X53023329Y-95952716D01*
X54303749Y-96484394D01*
X55690168Y-96485603D01*
X56971515Y-95956162D01*
X57952716Y-94976671D01*
X58484394Y-93696251D01*
X58485603Y-92309832D01*
X57956162Y-91028485D01*
X56976671Y-90047284D01*
X55696251Y-89515606D01*
X54309832Y-89514397D01*
X53028485Y-90043838D01*
X52047284Y-91023329D01*
X51515606Y-92303749D01*
X51514397Y-93690168D01*
X50131240Y-93690168D01*
X50131240Y-92243400D01*
X50081957Y-91995635D01*
X49941609Y-91785591D01*
X49731565Y-91645243D01*
X49483800Y-91595960D01*
X46883800Y-91595960D01*
X46636035Y-91645243D01*
X46425991Y-91785591D01*
X46285643Y-91995635D01*
X46236360Y-92243400D01*
X46236360Y-94243400D01*
X46285643Y-94491165D01*
X46425991Y-94701209D01*
X46574202Y-94800241D01*
X46335348Y-95157713D01*
X46210891Y-95783400D01*
X46335348Y-96409087D01*
X46689771Y-96939520D01*
X47176888Y-97265000D01*
X12817740Y-97265000D01*
X13228829Y-96990320D01*
X13583252Y-96459887D01*
X13707709Y-95834200D01*
X13583252Y-95208513D01*
X13228829Y-94678080D01*
X13058395Y-94564200D01*
X13228829Y-94450320D01*
X13468050Y-94092300D01*
X19609960Y-94092300D01*
X19609960Y-94868100D01*
X19659243Y-95115865D01*
X19799591Y-95325909D01*
X20009635Y-95466257D01*
X20257400Y-95515540D01*
X21957400Y-95515540D01*
X22205165Y-95466257D01*
X22415209Y-95325909D01*
X22555557Y-95115865D01*
X22570414Y-95041175D01*
X22805117Y-95276288D01*
X23350719Y-95502842D01*
X23941489Y-95503357D01*
X24487486Y-95277756D01*
X24905588Y-94860383D01*
X24917148Y-94832543D01*
X24927744Y-94858186D01*
X25345117Y-95276288D01*
X25890719Y-95502842D01*
X26481489Y-95503357D01*
X27027486Y-95277756D01*
X27445588Y-94860383D01*
X27457148Y-94832543D01*
X27467744Y-94858186D01*
X27885117Y-95276288D01*
X28430719Y-95502842D01*
X29021489Y-95503357D01*
X29567486Y-95277756D01*
X29985588Y-94860383D01*
X29997148Y-94832543D01*
X30007744Y-94858186D01*
X30425117Y-95276288D01*
X30970719Y-95502842D01*
X31561489Y-95503357D01*
X32107486Y-95277756D01*
X32525588Y-94860383D01*
X32537148Y-94832543D01*
X32547744Y-94858186D01*
X32965117Y-95276288D01*
X33510719Y-95502842D01*
X34101489Y-95503357D01*
X34647486Y-95277756D01*
X35065588Y-94860383D01*
X35077148Y-94832543D01*
X35087744Y-94858186D01*
X35505117Y-95276288D01*
X36050719Y-95502842D01*
X36641489Y-95503357D01*
X37187486Y-95277756D01*
X37605588Y-94860383D01*
X37617148Y-94832543D01*
X37627744Y-94858186D01*
X38045117Y-95276288D01*
X38590719Y-95502842D01*
X39181489Y-95503357D01*
X39727486Y-95277756D01*
X40145588Y-94860383D01*
X40372142Y-94314781D01*
X40372657Y-93724011D01*
X40147056Y-93178014D01*
X39729683Y-92759912D01*
X39701843Y-92748352D01*
X39727486Y-92737756D01*
X40145588Y-92320383D01*
X40372142Y-91774781D01*
X40372657Y-91184011D01*
X40147056Y-90638014D01*
X39729683Y-90219912D01*
X39184081Y-89993358D01*
X38667839Y-89992908D01*
X38715440Y-89753600D01*
X38715440Y-88503600D01*
X38666157Y-88255835D01*
X38525809Y-88045791D01*
X38315765Y-87905443D01*
X38230987Y-87888580D01*
X38347420Y-87608177D01*
X38347779Y-87196429D01*
X38190542Y-86815885D01*
X37899646Y-86524481D01*
X37519377Y-86366580D01*
X37107629Y-86366221D01*
X36727085Y-86523458D01*
X36435681Y-86814354D01*
X36277780Y-87194623D01*
X36277421Y-87606371D01*
X36394861Y-87890599D01*
X36320235Y-87905443D01*
X36110191Y-88045791D01*
X36068000Y-88108934D01*
X36025809Y-88045791D01*
X35815765Y-87905443D01*
X35568000Y-87856160D01*
X35184562Y-87856160D01*
X34567400Y-87238998D01*
X34567400Y-73035002D01*
X35214402Y-72388000D01*
X45008800Y-72388000D01*
X45299639Y-72330148D01*
X45546201Y-72165401D01*
X49511043Y-68200559D01*
X49510821Y-68454771D01*
X49668058Y-68835315D01*
X49958954Y-69126719D01*
X50339223Y-69284620D01*
X50750971Y-69284979D01*
X51131515Y-69127742D01*
X51422919Y-68836846D01*
X51580820Y-68456577D01*
X51581179Y-68044829D01*
X51423942Y-67664285D01*
X51306000Y-67546137D01*
X51306000Y-67100598D01*
X51248148Y-66809759D01*
X51083401Y-66563197D01*
X49997403Y-65477199D01*
X49750841Y-65312452D01*
X49460002Y-65254600D01*
X46296761Y-65254600D01*
X46180046Y-65137681D01*
X45799777Y-64979780D01*
X45388029Y-64979421D01*
X45007485Y-65136658D01*
X44716081Y-65427554D01*
X44558180Y-65807823D01*
X44557821Y-66219571D01*
X44715058Y-66600115D01*
X45005954Y-66891519D01*
X45386223Y-67049420D01*
X45797971Y-67049779D01*
X46178515Y-66892542D01*
X46296663Y-66774600D01*
X48532407Y-66774600D01*
X48469780Y-66925423D01*
X48469634Y-67092364D01*
X44693998Y-70868000D01*
X34899600Y-70868000D01*
X34608761Y-70925852D01*
X34362199Y-71090599D01*
X33775624Y-71677174D01*
X33775779Y-71499229D01*
X33618542Y-71118685D01*
X33327646Y-70827281D01*
X32947377Y-70669380D01*
X32535629Y-70669021D01*
X32357600Y-70742581D01*
X32357600Y-66718361D01*
X32474519Y-66601646D01*
X32632420Y-66221377D01*
X32632779Y-65809629D01*
X32475542Y-65429085D01*
X32184646Y-65137681D01*
X31804377Y-64979780D01*
X31392629Y-64979421D01*
X31012085Y-65136658D01*
X30988191Y-65160510D01*
X30940046Y-65112281D01*
X30559777Y-64954380D01*
X30148029Y-64954021D01*
X29767485Y-65111258D01*
X29476081Y-65402154D01*
X29318180Y-65782423D01*
X29317821Y-66194171D01*
X29475058Y-66574715D01*
X29593000Y-66692863D01*
X29593000Y-81930398D01*
X21839999Y-89683399D01*
X21675252Y-89929961D01*
X21642915Y-90092530D01*
X21404081Y-89993358D01*
X20813311Y-89992843D01*
X20621557Y-90072074D01*
X20421600Y-90032300D01*
X13518965Y-90032300D01*
X13345569Y-89772794D01*
X13394499Y-89752527D01*
X13573127Y-89573898D01*
X13669800Y-89340509D01*
X13669800Y-88499950D01*
X13511050Y-88341200D01*
X11861800Y-88341200D01*
X11861800Y-89119200D01*
X11607800Y-89119200D01*
X11607800Y-88341200D01*
X9958550Y-88341200D01*
X9799800Y-88499950D01*
X9799800Y-89340509D01*
X9896473Y-89573898D01*
X10075101Y-89752527D01*
X10124031Y-89772794D01*
X9886348Y-90128513D01*
X9761891Y-90754200D01*
X9886348Y-91379887D01*
X10240771Y-91910320D01*
X10411205Y-92024200D01*
X10240771Y-92138080D01*
X9886348Y-92668513D01*
X9761891Y-93294200D01*
X9886348Y-93919887D01*
X10240771Y-94450320D01*
X10411205Y-94564200D01*
X10240771Y-94678080D01*
X9886348Y-95208513D01*
X9761891Y-95834200D01*
X9886348Y-96459887D01*
X10240771Y-96990320D01*
X10651860Y-97265000D01*
X5072390Y-97265000D01*
X3373366Y-96927043D01*
X1994371Y-96005629D01*
X1072957Y-94626634D01*
X886683Y-93690168D01*
X1514397Y-93690168D01*
X2043838Y-94971515D01*
X3023329Y-95952716D01*
X4303749Y-96484394D01*
X5690168Y-96485603D01*
X6971515Y-95956162D01*
X7952716Y-94976671D01*
X8484394Y-93696251D01*
X8485603Y-92309832D01*
X7956162Y-91028485D01*
X6976671Y-90047284D01*
X5696251Y-89515606D01*
X4309832Y-89514397D01*
X3028485Y-90043838D01*
X2047284Y-91023329D01*
X1515606Y-92303749D01*
X1514397Y-93690168D01*
X886683Y-93690168D01*
X735000Y-92927610D01*
X735000Y-87087891D01*
X9799800Y-87087891D01*
X9799800Y-87928450D01*
X9958550Y-88087200D01*
X11607800Y-88087200D01*
X11607800Y-86737950D01*
X11861800Y-86737950D01*
X11861800Y-88087200D01*
X13511050Y-88087200D01*
X13669800Y-87928450D01*
X13669800Y-87087891D01*
X13573127Y-86854502D01*
X13394499Y-86675873D01*
X13161110Y-86579200D01*
X12020550Y-86579200D01*
X11861800Y-86737950D01*
X11607800Y-86737950D01*
X11449050Y-86579200D01*
X10308490Y-86579200D01*
X10075101Y-86675873D01*
X9896473Y-86854502D01*
X9799800Y-87087891D01*
X735000Y-87087891D01*
X735000Y-80646771D01*
X9988421Y-80646771D01*
X10145658Y-81027315D01*
X10436554Y-81318719D01*
X10816823Y-81476620D01*
X11228571Y-81476979D01*
X11300899Y-81447094D01*
X11376596Y-81560381D01*
X11586640Y-81700729D01*
X11834405Y-81750012D01*
X13334405Y-81750012D01*
X13582170Y-81700729D01*
X13792214Y-81560381D01*
X13932562Y-81350337D01*
X13938126Y-81322363D01*
X13996078Y-81462271D01*
X14174707Y-81640899D01*
X14408096Y-81737572D01*
X14998655Y-81737572D01*
X15157405Y-81578822D01*
X15157405Y-80579572D01*
X15411405Y-80579572D01*
X15411405Y-81578822D01*
X15570155Y-81737572D01*
X16160714Y-81737572D01*
X16394103Y-81640899D01*
X16572732Y-81462271D01*
X16669405Y-81228882D01*
X16669405Y-80738322D01*
X16510655Y-80579572D01*
X15411405Y-80579572D01*
X15157405Y-80579572D01*
X14058155Y-80579572D01*
X13981845Y-80655882D01*
X13981845Y-80249262D01*
X14058155Y-80325572D01*
X15157405Y-80325572D01*
X15157405Y-79326322D01*
X15411405Y-79326322D01*
X15411405Y-80325572D01*
X16510655Y-80325572D01*
X16669405Y-80166822D01*
X16669405Y-79676262D01*
X16572732Y-79442873D01*
X16394103Y-79264245D01*
X16160714Y-79167572D01*
X15570155Y-79167572D01*
X15411405Y-79326322D01*
X15157405Y-79326322D01*
X14998655Y-79167572D01*
X14408096Y-79167572D01*
X14174707Y-79264245D01*
X13996078Y-79442873D01*
X13938126Y-79582781D01*
X13932562Y-79554807D01*
X13792214Y-79344763D01*
X13582170Y-79204415D01*
X13334405Y-79155132D01*
X11834405Y-79155132D01*
X11586640Y-79204415D01*
X11376596Y-79344763D01*
X11312295Y-79440995D01*
X11230377Y-79406980D01*
X10818629Y-79406621D01*
X10438085Y-79563858D01*
X10146681Y-79854754D01*
X9988780Y-80235023D01*
X9988421Y-80646771D01*
X735000Y-80646771D01*
X735000Y-55803800D01*
X2945800Y-55803800D01*
X2577513Y-55877057D01*
G36*
X46137614Y-22014273D02*
X46744452Y-22419748D01*
X47149927Y-23026586D01*
X47294800Y-23754909D01*
X47294800Y-33840214D01*
X47200769Y-34431129D01*
X46932602Y-34954621D01*
X46515190Y-35369019D01*
X45989767Y-35633387D01*
X45398191Y-35723132D01*
X42426812Y-35701601D01*
X42406843Y-35703035D01*
X41785354Y-35797318D01*
X41747321Y-35809432D01*
X41185793Y-36091966D01*
X41153398Y-36115288D01*
X40707303Y-36558163D01*
X40683748Y-36590387D01*
X40397153Y-37149852D01*
X40384763Y-37187797D01*
X40285978Y-37808587D01*
X40284400Y-37828545D01*
X40284400Y-40420702D01*
X40245681Y-40459354D01*
X40087780Y-40839623D01*
X40087421Y-41251371D01*
X40244658Y-41631915D01*
X40284400Y-41671726D01*
X40284400Y-43408063D01*
X40242765Y-43380243D01*
X39995000Y-43330960D01*
X38745000Y-43330960D01*
X38497235Y-43380243D01*
X38287191Y-43520591D01*
X38146843Y-43730635D01*
X38097560Y-43978400D01*
X38097560Y-45478400D01*
X38105198Y-45516800D01*
X36810509Y-45516800D01*
X36082186Y-45371927D01*
X35965079Y-45293679D01*
X35995357Y-45248365D01*
X36044640Y-45000600D01*
X36044640Y-43500600D01*
X35995357Y-43252835D01*
X35855009Y-43042791D01*
X35644965Y-42902443D01*
X35397200Y-42853160D01*
X34925000Y-42853160D01*
X34925000Y-32543309D01*
X35069873Y-31814986D01*
X35475348Y-31208148D01*
X36082186Y-30802673D01*
X36810509Y-30657800D01*
X40570400Y-30657800D01*
X40595176Y-30655360D01*
X41360543Y-30503119D01*
X41406324Y-30484156D01*
X42055171Y-30050611D01*
X42090211Y-30015571D01*
X42523756Y-29366724D01*
X42542719Y-29320943D01*
X42694960Y-28555576D01*
X42697400Y-28530800D01*
X42697400Y-23754909D01*
X42842273Y-23026586D01*
X43247748Y-22419748D01*
X43854586Y-22014273D01*
X44582909Y-21869400D01*
X45409291Y-21869400D01*
X46137614Y-22014273D01*
X46137614Y-22014273D01*
G37*
X46137614Y-22014273D02*
X46744452Y-22419748D01*
X47149927Y-23026586D01*
X47294800Y-23754909D01*
X47294800Y-33840214D01*
X47200769Y-34431129D01*
X46932602Y-34954621D01*
X46515190Y-35369019D01*
X45989767Y-35633387D01*
X45398191Y-35723132D01*
X42426812Y-35701601D01*
X42406843Y-35703035D01*
X41785354Y-35797318D01*
X41747321Y-35809432D01*
X41185793Y-36091966D01*
X41153398Y-36115288D01*
X40707303Y-36558163D01*
X40683748Y-36590387D01*
X40397153Y-37149852D01*
X40384763Y-37187797D01*
X40285978Y-37808587D01*
X40284400Y-37828545D01*
X40284400Y-40420702D01*
X40245681Y-40459354D01*
X40087780Y-40839623D01*
X40087421Y-41251371D01*
X40244658Y-41631915D01*
X40284400Y-41671726D01*
X40284400Y-43408063D01*
X40242765Y-43380243D01*
X39995000Y-43330960D01*
X38745000Y-43330960D01*
X38497235Y-43380243D01*
X38287191Y-43520591D01*
X38146843Y-43730635D01*
X38097560Y-43978400D01*
X38097560Y-45478400D01*
X38105198Y-45516800D01*
X36810509Y-45516800D01*
X36082186Y-45371927D01*
X35965079Y-45293679D01*
X35995357Y-45248365D01*
X36044640Y-45000600D01*
X36044640Y-43500600D01*
X35995357Y-43252835D01*
X35855009Y-43042791D01*
X35644965Y-42902443D01*
X35397200Y-42853160D01*
X34925000Y-42853160D01*
X34925000Y-32543309D01*
X35069873Y-31814986D01*
X35475348Y-31208148D01*
X36082186Y-30802673D01*
X36810509Y-30657800D01*
X40570400Y-30657800D01*
X40595176Y-30655360D01*
X41360543Y-30503119D01*
X41406324Y-30484156D01*
X42055171Y-30050611D01*
X42090211Y-30015571D01*
X42523756Y-29366724D01*
X42542719Y-29320943D01*
X42694960Y-28555576D01*
X42697400Y-28530800D01*
X42697400Y-23754909D01*
X42842273Y-23026586D01*
X43247748Y-22419748D01*
X43854586Y-22014273D01*
X44582909Y-21869400D01*
X45409291Y-21869400D01*
X46137614Y-22014273D01*
G36*
X24115814Y-23436673D02*
X24722652Y-23842148D01*
X25128127Y-24448986D01*
X25273000Y-25177309D01*
X25273000Y-48711291D01*
X25128127Y-49439614D01*
X24722652Y-50046452D01*
X24115814Y-50451927D01*
X23387491Y-50596800D01*
X2009992Y-50596800D01*
X1421702Y-50503624D01*
X900009Y-50237808D01*
X735000Y-50072799D01*
X735000Y-46889681D01*
X1282385Y-46523243D01*
X2009901Y-46377613D01*
X2110383Y-46377474D01*
X1896493Y-46697583D01*
X1791066Y-47227600D01*
X1896493Y-47757617D01*
X2196723Y-48206943D01*
X2646049Y-48507173D01*
X3176066Y-48612600D01*
X3230334Y-48612600D01*
X3760351Y-48507173D01*
X3976720Y-48362600D01*
X4203619Y-48362600D01*
X4276591Y-48471809D01*
X4486635Y-48612157D01*
X4734400Y-48661440D01*
X5984400Y-48661440D01*
X6232165Y-48612157D01*
X6442209Y-48471809D01*
X6582557Y-48261765D01*
X6631840Y-48014000D01*
X6631840Y-46514000D01*
X6603444Y-46371242D01*
X13749400Y-46361330D01*
X13749400Y-46659800D01*
X13835797Y-47094146D01*
X14081834Y-47462366D01*
X14450054Y-47708403D01*
X14884400Y-47794800D01*
X15318746Y-47708403D01*
X15686966Y-47462366D01*
X15933003Y-47094146D01*
X16019400Y-46659800D01*
X16019400Y-46358182D01*
X16320744Y-46357764D01*
X16345461Y-46355300D01*
X16695800Y-46285271D01*
X16695800Y-46710600D01*
X16782197Y-47144946D01*
X17028234Y-47513166D01*
X17396454Y-47759203D01*
X17830800Y-47845600D01*
X18265146Y-47759203D01*
X18633366Y-47513166D01*
X18879403Y-47144946D01*
X18965800Y-46710600D01*
X18965800Y-45917984D01*
X19174455Y-46057403D01*
X19608800Y-46143800D01*
X19657530Y-46134107D01*
X20187766Y-46134107D01*
X20319701Y-46222264D01*
X20567466Y-46271547D01*
X22067466Y-46271547D01*
X22315231Y-46222264D01*
X22525275Y-46081916D01*
X22665623Y-45871872D01*
X22714906Y-45624107D01*
X22714906Y-44374107D01*
X22665623Y-44126342D01*
X22637803Y-44084707D01*
X22665623Y-44043072D01*
X22714906Y-43795307D01*
X22714906Y-42545307D01*
X22665623Y-42297542D01*
X22634909Y-42251575D01*
X22653357Y-42223965D01*
X22702640Y-41976200D01*
X22702640Y-40726200D01*
X22653357Y-40478435D01*
X22513009Y-40268391D01*
X22302965Y-40128043D01*
X22055200Y-40078760D01*
X20555200Y-40078760D01*
X20307435Y-40128043D01*
X20175500Y-40216200D01*
X19735800Y-40216200D01*
X19301454Y-40302597D01*
X19008028Y-40498658D01*
X18933234Y-40548634D01*
X18907834Y-40574034D01*
X18735387Y-40832119D01*
X18633366Y-40679434D01*
X18453019Y-40499087D01*
X18460440Y-37129850D01*
X18721115Y-37022142D01*
X19012519Y-36731246D01*
X19170420Y-36350977D01*
X19170779Y-35939229D01*
X19013542Y-35558685D01*
X18722646Y-35267281D01*
X18464778Y-35160205D01*
X18486776Y-25173165D01*
X18632850Y-24446129D01*
X19038600Y-23840688D01*
X19644933Y-23436273D01*
X20372293Y-23291800D01*
X23387491Y-23291800D01*
X24115814Y-23436673D01*
X24115814Y-23436673D01*
G37*
X24115814Y-23436673D02*
X24722652Y-23842148D01*
X25128127Y-24448986D01*
X25273000Y-25177309D01*
X25273000Y-48711291D01*
X25128127Y-49439614D01*
X24722652Y-50046452D01*
X24115814Y-50451927D01*
X23387491Y-50596800D01*
X2009992Y-50596800D01*
X1421702Y-50503624D01*
X900009Y-50237808D01*
X735000Y-50072799D01*
X735000Y-46889681D01*
X1282385Y-46523243D01*
X2009901Y-46377613D01*
X2110383Y-46377474D01*
X1896493Y-46697583D01*
X1791066Y-47227600D01*
X1896493Y-47757617D01*
X2196723Y-48206943D01*
X2646049Y-48507173D01*
X3176066Y-48612600D01*
X3230334Y-48612600D01*
X3760351Y-48507173D01*
X3976720Y-48362600D01*
X4203619Y-48362600D01*
X4276591Y-48471809D01*
X4486635Y-48612157D01*
X4734400Y-48661440D01*
X5984400Y-48661440D01*
X6232165Y-48612157D01*
X6442209Y-48471809D01*
X6582557Y-48261765D01*
X6631840Y-48014000D01*
X6631840Y-46514000D01*
X6603444Y-46371242D01*
X13749400Y-46361330D01*
X13749400Y-46659800D01*
X13835797Y-47094146D01*
X14081834Y-47462366D01*
X14450054Y-47708403D01*
X14884400Y-47794800D01*
X15318746Y-47708403D01*
X15686966Y-47462366D01*
X15933003Y-47094146D01*
X16019400Y-46659800D01*
X16019400Y-46358182D01*
X16320744Y-46357764D01*
X16345461Y-46355300D01*
X16695800Y-46285271D01*
X16695800Y-46710600D01*
X16782197Y-47144946D01*
X17028234Y-47513166D01*
X17396454Y-47759203D01*
X17830800Y-47845600D01*
X18265146Y-47759203D01*
X18633366Y-47513166D01*
X18879403Y-47144946D01*
X18965800Y-46710600D01*
X18965800Y-45917984D01*
X19174455Y-46057403D01*
X19608800Y-46143800D01*
X19657530Y-46134107D01*
X20187766Y-46134107D01*
X20319701Y-46222264D01*
X20567466Y-46271547D01*
X22067466Y-46271547D01*
X22315231Y-46222264D01*
X22525275Y-46081916D01*
X22665623Y-45871872D01*
X22714906Y-45624107D01*
X22714906Y-44374107D01*
X22665623Y-44126342D01*
X22637803Y-44084707D01*
X22665623Y-44043072D01*
X22714906Y-43795307D01*
X22714906Y-42545307D01*
X22665623Y-42297542D01*
X22634909Y-42251575D01*
X22653357Y-42223965D01*
X22702640Y-41976200D01*
X22702640Y-40726200D01*
X22653357Y-40478435D01*
X22513009Y-40268391D01*
X22302965Y-40128043D01*
X22055200Y-40078760D01*
X20555200Y-40078760D01*
X20307435Y-40128043D01*
X20175500Y-40216200D01*
X19735800Y-40216200D01*
X19301454Y-40302597D01*
X19008028Y-40498658D01*
X18933234Y-40548634D01*
X18907834Y-40574034D01*
X18735387Y-40832119D01*
X18633366Y-40679434D01*
X18453019Y-40499087D01*
X18460440Y-37129850D01*
X18721115Y-37022142D01*
X19012519Y-36731246D01*
X19170420Y-36350977D01*
X19170779Y-35939229D01*
X19013542Y-35558685D01*
X18722646Y-35267281D01*
X18464778Y-35160205D01*
X18486776Y-25173165D01*
X18632850Y-24446129D01*
X19038600Y-23840688D01*
X19644933Y-23436273D01*
X20372293Y-23291800D01*
X23387491Y-23291800D01*
X24115814Y-23436673D01*
G36*
X9968014Y-23360473D02*
X10574852Y-23765948D01*
X10980327Y-24372786D01*
X11125200Y-25101109D01*
X11125200Y-33750691D01*
X10980327Y-34479014D01*
X10574852Y-35085852D01*
X9968014Y-35491327D01*
X9239691Y-35636200D01*
X7720148Y-35636200D01*
X7700249Y-35637769D01*
X7081237Y-35735974D01*
X7043392Y-35748292D01*
X6485170Y-36033263D01*
X6452996Y-36056689D01*
X6010385Y-36500440D01*
X5987042Y-36532674D01*
X5703507Y-37091626D01*
X5691286Y-37129502D01*
X5594673Y-37748764D01*
X5593155Y-37768667D01*
X5608219Y-43628977D01*
X5608144Y-43629460D01*
X4734400Y-43629460D01*
X4486635Y-43678743D01*
X4276591Y-43819091D01*
X4136243Y-44029135D01*
X4086960Y-44276900D01*
X4086960Y-45459414D01*
X3725243Y-45516800D01*
X2009992Y-45516800D01*
X1421702Y-45423624D01*
X900009Y-45157808D01*
X735000Y-44992799D01*
X735000Y-31664401D01*
X900009Y-31499392D01*
X1421702Y-31233576D01*
X2009992Y-31140400D01*
X5181779Y-31140400D01*
X5201686Y-31138830D01*
X5820940Y-31040546D01*
X5858798Y-31028218D01*
X6417188Y-30743028D01*
X6449369Y-30719585D01*
X6892017Y-30275516D01*
X6915358Y-30243260D01*
X7198758Y-29683958D01*
X7210964Y-29646060D01*
X7307262Y-29026495D01*
X7308768Y-29006583D01*
X7296262Y-25104619D01*
X7387926Y-24514869D01*
X7653106Y-23991526D01*
X8067295Y-23576007D01*
X8589780Y-23309155D01*
X9179236Y-23215600D01*
X9239691Y-23215600D01*
X9968014Y-23360473D01*
X9968014Y-23360473D01*
G37*
X9968014Y-23360473D02*
X10574852Y-23765948D01*
X10980327Y-24372786D01*
X11125200Y-25101109D01*
X11125200Y-33750691D01*
X10980327Y-34479014D01*
X10574852Y-35085852D01*
X9968014Y-35491327D01*
X9239691Y-35636200D01*
X7720148Y-35636200D01*
X7700249Y-35637769D01*
X7081237Y-35735974D01*
X7043392Y-35748292D01*
X6485170Y-36033263D01*
X6452996Y-36056689D01*
X6010385Y-36500440D01*
X5987042Y-36532674D01*
X5703507Y-37091626D01*
X5691286Y-37129502D01*
X5594673Y-37748764D01*
X5593155Y-37768667D01*
X5608219Y-43628977D01*
X5608144Y-43629460D01*
X4734400Y-43629460D01*
X4486635Y-43678743D01*
X4276591Y-43819091D01*
X4136243Y-44029135D01*
X4086960Y-44276900D01*
X4086960Y-45459414D01*
X3725243Y-45516800D01*
X2009992Y-45516800D01*
X1421702Y-45423624D01*
X900009Y-45157808D01*
X735000Y-44992799D01*
X735000Y-31664401D01*
X900009Y-31499392D01*
X1421702Y-31233576D01*
X2009992Y-31140400D01*
X5181779Y-31140400D01*
X5201686Y-31138830D01*
X5820940Y-31040546D01*
X5858798Y-31028218D01*
X6417188Y-30743028D01*
X6449369Y-30719585D01*
X6892017Y-30275516D01*
X6915358Y-30243260D01*
X7198758Y-29683958D01*
X7210964Y-29646060D01*
X7307262Y-29026495D01*
X7308768Y-29006583D01*
X7296262Y-25104619D01*
X7387926Y-24514869D01*
X7653106Y-23991526D01*
X8067295Y-23576007D01*
X8589780Y-23309155D01*
X9179236Y-23215600D01*
X9239691Y-23215600D01*
X9968014Y-23360473D01*
G36*
X56626634Y-1072957D02*
X58005629Y-1994371D01*
X58927043Y-3373366D01*
X59265000Y-5072390D01*
X59265000Y-15273857D01*
X58692673Y-15654795D01*
X57966448Y-15798800D01*
X43008109Y-15798800D01*
X42279786Y-15653927D01*
X41672948Y-15248452D01*
X41267473Y-14641614D01*
X41122600Y-13913291D01*
X41122600Y-2098106D01*
X41266020Y-1373299D01*
X41667650Y-768295D01*
X41716944Y-735000D01*
X54927610Y-735000D01*
X56626634Y-1072957D01*
X56626634Y-1072957D01*
G37*
X56626634Y-1072957D02*
X58005629Y-1994371D01*
X58927043Y-3373366D01*
X59265000Y-5072390D01*
X59265000Y-15273857D01*
X58692673Y-15654795D01*
X57966448Y-15798800D01*
X43008109Y-15798800D01*
X42279786Y-15653927D01*
X41672948Y-15248452D01*
X41267473Y-14641614D01*
X41122600Y-13913291D01*
X41122600Y-2098106D01*
X41266020Y-1373299D01*
X41667650Y-768295D01*
X41716944Y-735000D01*
X54927610Y-735000D01*
X56626634Y-1072957D01*
G36*
X18276319Y-754182D02*
X18882791Y-1158888D01*
X19288466Y-1764714D01*
X19434210Y-2492103D01*
X19453184Y-14370002D01*
X19360760Y-14959025D01*
X19095263Y-15481537D01*
X18681159Y-15896302D01*
X18159069Y-16162635D01*
X17570199Y-16256000D01*
X9276909Y-16256000D01*
X8548586Y-16111127D01*
X7941748Y-15705652D01*
X7536273Y-15098814D01*
X7391400Y-14370491D01*
X7391400Y-10807569D01*
X7530604Y-10101680D01*
X7920404Y-9512026D01*
X8504874Y-9114505D01*
X9961650Y-8807259D01*
X10006864Y-8788006D01*
X10632753Y-8362314D01*
X10667274Y-8327337D01*
X11084694Y-7695901D01*
X11103350Y-7650437D01*
X11249800Y-6907805D01*
X11252200Y-6883233D01*
X11252200Y-2495109D01*
X11397073Y-1766786D01*
X11802548Y-1159948D01*
X12409386Y-754473D01*
X12507283Y-735000D01*
X18179783Y-735000D01*
X18276319Y-754182D01*
X18276319Y-754182D01*
G37*
X18276319Y-754182D02*
X18882791Y-1158888D01*
X19288466Y-1764714D01*
X19434210Y-2492103D01*
X19453184Y-14370002D01*
X19360760Y-14959025D01*
X19095263Y-15481537D01*
X18681159Y-15896302D01*
X18159069Y-16162635D01*
X17570199Y-16256000D01*
X9276909Y-16256000D01*
X8548586Y-16111127D01*
X7941748Y-15705652D01*
X7536273Y-15098814D01*
X7391400Y-14370491D01*
X7391400Y-10807569D01*
X7530604Y-10101680D01*
X7920404Y-9512026D01*
X8504874Y-9114505D01*
X9961650Y-8807259D01*
X10006864Y-8788006D01*
X10632753Y-8362314D01*
X10667274Y-8327337D01*
X11084694Y-7695901D01*
X11103350Y-7650437D01*
X11249800Y-6907805D01*
X11252200Y-6883233D01*
X11252200Y-2495109D01*
X11397073Y-1766786D01*
X11802548Y-1159948D01*
X12409386Y-754473D01*
X12507283Y-735000D01*
X18179783Y-735000D01*
X18276319Y-754182D01*
G36*
X58000103Y-21847761D02*
X58725349Y-21994981D01*
X59265000Y-22357560D01*
X59265000Y-50109861D01*
X59125595Y-50249271D01*
X58603249Y-50515204D01*
X58014253Y-50608087D01*
X36002329Y-50589514D01*
X35279378Y-50446199D01*
X34675626Y-50045956D01*
X34269205Y-49446345D01*
X34118474Y-48724901D01*
X34112486Y-48185947D01*
X34201077Y-47590437D01*
X34466605Y-47061522D01*
X34884019Y-46641973D01*
X35411574Y-46373751D01*
X36006621Y-46282126D01*
X36173422Y-46283129D01*
X35896493Y-46697583D01*
X35791066Y-47227600D01*
X35896493Y-47757617D01*
X36196723Y-48206943D01*
X36646049Y-48507173D01*
X37176066Y-48612600D01*
X37230334Y-48612600D01*
X37760351Y-48507173D01*
X37976720Y-48362600D01*
X38238007Y-48362600D01*
X38287191Y-48436209D01*
X38497235Y-48576557D01*
X38745000Y-48625840D01*
X39995000Y-48625840D01*
X40242765Y-48576557D01*
X40452809Y-48436209D01*
X40593157Y-48226165D01*
X40642440Y-47978400D01*
X40642440Y-46478400D01*
X40608902Y-46309791D01*
X47070001Y-46348630D01*
X46998000Y-46710600D01*
X47084397Y-47144945D01*
X47330434Y-47513166D01*
X47698655Y-47759203D01*
X48133000Y-47845600D01*
X48567345Y-47759203D01*
X48935566Y-47513166D01*
X50081997Y-46366735D01*
X50604800Y-46369878D01*
X50604800Y-46583600D01*
X50691197Y-47017946D01*
X50937234Y-47386166D01*
X51305454Y-47632203D01*
X51531346Y-47677136D01*
X51634623Y-47720020D01*
X52046371Y-47720379D01*
X52426915Y-47563142D01*
X52718319Y-47272246D01*
X52876220Y-46891977D01*
X52876579Y-46480229D01*
X52874800Y-46475923D01*
X52874800Y-46325688D01*
X53005027Y-46305770D01*
X53340000Y-46372400D01*
X53855900Y-46372400D01*
X53987835Y-46460557D01*
X54235600Y-46509840D01*
X55735600Y-46509840D01*
X55983365Y-46460557D01*
X56193409Y-46320209D01*
X56333757Y-46110165D01*
X56383040Y-45862400D01*
X56383040Y-44612400D01*
X56333757Y-44364635D01*
X56314423Y-44335700D01*
X56333757Y-44306765D01*
X56383040Y-44059000D01*
X56383040Y-42809000D01*
X56333757Y-42561235D01*
X56305937Y-42519600D01*
X56333757Y-42477965D01*
X56383040Y-42230200D01*
X56383040Y-40980200D01*
X56333757Y-40732435D01*
X56193409Y-40522391D01*
X55983365Y-40382043D01*
X55735600Y-40332760D01*
X54636658Y-40332760D01*
X54633607Y-37382318D01*
X54776929Y-37239246D01*
X54934830Y-36858977D01*
X54935189Y-36447229D01*
X54777952Y-36066685D01*
X54632095Y-35920573D01*
X54619484Y-23725802D01*
X54712715Y-23135368D01*
X54979821Y-22611997D01*
X55396052Y-22197251D01*
X55920372Y-21932019D01*
X56511134Y-21840899D01*
X58000103Y-21847761D01*
X58000103Y-21847761D01*
G37*
X58000103Y-21847761D02*
X58725349Y-21994981D01*
X59265000Y-22357560D01*
X59265000Y-50109861D01*
X59125595Y-50249271D01*
X58603249Y-50515204D01*
X58014253Y-50608087D01*
X36002329Y-50589514D01*
X35279378Y-50446199D01*
X34675626Y-50045956D01*
X34269205Y-49446345D01*
X34118474Y-48724901D01*
X34112486Y-48185947D01*
X34201077Y-47590437D01*
X34466605Y-47061522D01*
X34884019Y-46641973D01*
X35411574Y-46373751D01*
X36006621Y-46282126D01*
X36173422Y-46283129D01*
X35896493Y-46697583D01*
X35791066Y-47227600D01*
X35896493Y-47757617D01*
X36196723Y-48206943D01*
X36646049Y-48507173D01*
X37176066Y-48612600D01*
X37230334Y-48612600D01*
X37760351Y-48507173D01*
X37976720Y-48362600D01*
X38238007Y-48362600D01*
X38287191Y-48436209D01*
X38497235Y-48576557D01*
X38745000Y-48625840D01*
X39995000Y-48625840D01*
X40242765Y-48576557D01*
X40452809Y-48436209D01*
X40593157Y-48226165D01*
X40642440Y-47978400D01*
X40642440Y-46478400D01*
X40608902Y-46309791D01*
X47070001Y-46348630D01*
X46998000Y-46710600D01*
X47084397Y-47144945D01*
X47330434Y-47513166D01*
X47698655Y-47759203D01*
X48133000Y-47845600D01*
X48567345Y-47759203D01*
X48935566Y-47513166D01*
X50081997Y-46366735D01*
X50604800Y-46369878D01*
X50604800Y-46583600D01*
X50691197Y-47017946D01*
X50937234Y-47386166D01*
X51305454Y-47632203D01*
X51531346Y-47677136D01*
X51634623Y-47720020D01*
X52046371Y-47720379D01*
X52426915Y-47563142D01*
X52718319Y-47272246D01*
X52876220Y-46891977D01*
X52876579Y-46480229D01*
X52874800Y-46475923D01*
X52874800Y-46325688D01*
X53005027Y-46305770D01*
X53340000Y-46372400D01*
X53855900Y-46372400D01*
X53987835Y-46460557D01*
X54235600Y-46509840D01*
X55735600Y-46509840D01*
X55983365Y-46460557D01*
X56193409Y-46320209D01*
X56333757Y-46110165D01*
X56383040Y-45862400D01*
X56383040Y-44612400D01*
X56333757Y-44364635D01*
X56314423Y-44335700D01*
X56333757Y-44306765D01*
X56383040Y-44059000D01*
X56383040Y-42809000D01*
X56333757Y-42561235D01*
X56305937Y-42519600D01*
X56333757Y-42477965D01*
X56383040Y-42230200D01*
X56383040Y-40980200D01*
X56333757Y-40732435D01*
X56193409Y-40522391D01*
X55983365Y-40382043D01*
X55735600Y-40332760D01*
X54636658Y-40332760D01*
X54633607Y-37382318D01*
X54776929Y-37239246D01*
X54934830Y-36858977D01*
X54935189Y-36447229D01*
X54777952Y-36066685D01*
X54632095Y-35920573D01*
X54619484Y-23725802D01*
X54712715Y-23135368D01*
X54979821Y-22611997D01*
X55396052Y-22197251D01*
X55920372Y-21932019D01*
X56511134Y-21840899D01*
X58000103Y-21847761D01*
G36*
X25126772Y-1303762D02*
X25269891Y-2030796D01*
X25250715Y-14398809D01*
X25104997Y-15126225D01*
X24699328Y-15732079D01*
X24092844Y-16136810D01*
X23365200Y-16281400D01*
X22307701Y-16281400D01*
X21718849Y-16188042D01*
X21196772Y-15921725D01*
X20782671Y-15506982D01*
X20517163Y-14984495D01*
X20424716Y-14395497D01*
X20443877Y-2017129D01*
X20538374Y-1427727D01*
X20806116Y-905593D01*
X20977830Y-735000D01*
X24749072Y-735000D01*
X25126772Y-1303762D01*
X25126772Y-1303762D01*
G37*
X25126772Y-1303762D02*
X25269891Y-2030796D01*
X25250715Y-14398809D01*
X25104997Y-15126225D01*
X24699328Y-15732079D01*
X24092844Y-16136810D01*
X23365200Y-16281400D01*
X22307701Y-16281400D01*
X21718849Y-16188042D01*
X21196772Y-15921725D01*
X20782671Y-15506982D01*
X20517163Y-14984495D01*
X20424716Y-14395497D01*
X20443877Y-2017129D01*
X20538374Y-1427727D01*
X20806116Y-905593D01*
X20977830Y-735000D01*
X24749072Y-735000D01*
X25126772Y-1303762D01*
G36*
X40284400Y-1984592D02*
X40284400Y-13887891D01*
X40139527Y-14616214D01*
X39734052Y-15223052D01*
X39127214Y-15628527D01*
X38398891Y-15773400D01*
X36810509Y-15773400D01*
X36082186Y-15628527D01*
X35475348Y-15223052D01*
X35069873Y-14616214D01*
X34925000Y-13887891D01*
X34925000Y-1984592D01*
X34975080Y-1668400D01*
X40234320Y-1668400D01*
X40284400Y-1984592D01*
X40284400Y-1984592D01*
G37*
X40284400Y-1984592D02*
X40284400Y-13887891D01*
X40139527Y-14616214D01*
X39734052Y-15223052D01*
X39127214Y-15628527D01*
X38398891Y-15773400D01*
X36810509Y-15773400D01*
X36082186Y-15628527D01*
X35475348Y-15223052D01*
X35069873Y-14616214D01*
X34925000Y-13887891D01*
X34925000Y-1984592D01*
X34975080Y-1668400D01*
X40234320Y-1668400D01*
X40284400Y-1984592D01*
M02*
