G04 #@! TF.GenerationSoftware,KiCad,Pcbnew,no-vcs-found-bf44d39~61~ubuntu17.10.1*
G04 #@! TF.CreationDate,2018-01-04T10:05:47-05:00*
G04 #@! TF.ProjectId,ENNOID Dual Gate Driver,454E4E4F4944204475616C2047617465,rev?*
G04 #@! TF.SameCoordinates,Original*
G04 #@! TF.FileFunction,Copper,L1,Top,Signal*
G04 #@! TF.FilePolarity,Positive*
%FSLAX46Y46*%
G04 Gerber Fmt 4.6, Leading zero omitted, Abs format (unit mm)*
G04 Created by KiCad (PCBNEW no-vcs-found-bf44d39~61~ubuntu17.10.1) date Thu Jan  4 10:05:47 2018*
%MOMM*%
%LPD*%
G01*
G04 APERTURE LIST*
%ADD10C,5.500000*%
%ADD11R,1.500000X1.300000*%
%ADD12R,0.900000X1.200000*%
%ADD13C,1.700000*%
%ADD14R,1.700000X1.700000*%
%ADD15R,2.000000X2.500000*%
%ADD16R,1.500000X1.250000*%
%ADD17R,1.250000X1.500000*%
%ADD18O,2.600000X2.000000*%
%ADD19R,2.600000X2.000000*%
%ADD20R,1.300000X1.500000*%
%ADD21R,0.600000X1.500000*%
%ADD22R,3.050000X2.750000*%
%ADD23R,6.400000X5.800000*%
%ADD24R,2.200000X1.200000*%
%ADD25C,3.000000*%
%ADD26R,0.640000X1.905000*%
%ADD27R,0.950000X1.250000*%
%ADD28O,1.500000X1.500000*%
%ADD29R,1.500000X1.500000*%
%ADD30R,2.000000X1.600000*%
%ADD31R,1.000000X1.000000*%
%ADD32R,3.200000X2.700000*%
%ADD33R,0.450000X0.600000*%
%ADD34R,2.200000X2.200000*%
%ADD35O,2.200000X2.200000*%
%ADD36R,2.500000X3.300000*%
%ADD37R,3.300000X2.500000*%
%ADD38R,2.750000X3.050000*%
%ADD39R,5.800000X6.400000*%
%ADD40R,1.200000X2.200000*%
%ADD41R,0.800000X0.900000*%
%ADD42C,0.800000*%
%ADD43C,1.000000*%
%ADD44C,0.250000*%
%ADD45C,2.000000*%
%ADD46C,3.000000*%
%ADD47C,0.500000*%
%ADD48C,0.254000*%
G04 APERTURE END LIST*
D10*
X55000000Y-93000000D03*
D11*
X45487600Y-63449200D03*
X48187600Y-63449200D03*
D12*
X17601200Y-59817000D03*
X14301200Y-59817000D03*
D13*
X38887400Y-91478100D03*
X38887400Y-94018100D03*
X36347400Y-91478100D03*
X36347400Y-94018100D03*
X33807400Y-91478100D03*
X33807400Y-94018100D03*
X31267400Y-91478100D03*
X31267400Y-94018100D03*
X28727400Y-91478100D03*
X28727400Y-94018100D03*
X26187400Y-91478100D03*
X26187400Y-94018100D03*
X23647400Y-91478100D03*
X23647400Y-94018100D03*
X21107400Y-91478100D03*
D14*
X21107400Y-94018100D03*
D15*
X52495200Y-72618600D03*
X48495200Y-72618600D03*
D16*
X48254600Y-75158600D03*
X50754600Y-75158600D03*
X52598000Y-84848700D03*
X55098000Y-84848700D03*
X55098000Y-86842600D03*
X52598000Y-86842600D03*
X21660800Y-59563000D03*
X24160800Y-59563000D03*
X15260000Y-43230800D03*
X17760000Y-43230800D03*
X17760000Y-45059600D03*
X15260000Y-45059600D03*
D17*
X3454400Y-34772600D03*
X3454400Y-32272600D03*
D16*
X58501600Y-59537600D03*
X56001600Y-59537600D03*
X51846800Y-45186600D03*
X49346800Y-45186600D03*
D17*
X33680400Y-41677600D03*
X33680400Y-44177600D03*
D16*
X52572600Y-88773000D03*
X55072600Y-88773000D03*
X46273400Y-86334600D03*
X48773400Y-86334600D03*
D18*
X11734800Y-95834200D03*
X11734800Y-93294200D03*
X11734800Y-90754200D03*
D19*
X11734800Y-88214200D03*
D18*
X48183800Y-95783400D03*
D19*
X48183800Y-93243400D03*
D11*
X30019000Y-30835600D03*
X32719000Y-30835600D03*
D20*
X31685800Y-44277600D03*
X31685800Y-41577600D03*
X29685800Y-41577600D03*
X29685800Y-44277600D03*
D11*
X48873400Y-90144600D03*
X46173400Y-90144600D03*
X48873400Y-88239600D03*
X46173400Y-88239600D03*
X21613400Y-80403800D03*
X24313400Y-80403800D03*
X12582605Y-80452572D03*
X15282605Y-80452572D03*
D20*
X41503600Y-86440000D03*
X41503600Y-83740000D03*
D21*
X21648200Y-57577600D03*
X20378200Y-57577600D03*
X19108200Y-57577600D03*
X17838200Y-57577600D03*
X16568200Y-57577600D03*
X15298200Y-57577600D03*
X14028200Y-57577600D03*
X12758200Y-57577600D03*
X12758200Y-48277600D03*
X14028200Y-48277600D03*
X15298200Y-48277600D03*
X16568200Y-48277600D03*
X17838200Y-48277600D03*
X19108200Y-48277600D03*
X20378200Y-48277600D03*
X21648200Y-48277600D03*
D22*
X53282400Y-81283600D03*
X56632400Y-78233600D03*
X53282400Y-78233600D03*
X56632400Y-81283600D03*
D23*
X54957400Y-79758600D03*
D24*
X48657400Y-82038600D03*
X48657400Y-79758600D03*
X48657400Y-77478600D03*
D25*
X22500000Y-6830000D03*
X22500000Y-3170000D03*
X2500000Y-5170000D03*
X2500000Y-8830000D03*
X16500000Y-6830000D03*
X16500000Y-3170000D03*
X43500000Y-6830000D03*
X43500000Y-3170000D03*
X37500000Y-3170000D03*
X37500000Y-6830000D03*
D26*
X32893000Y-47580100D03*
X31623000Y-47580100D03*
X30353000Y-47580100D03*
X29083000Y-47580100D03*
X29083000Y-58275100D03*
X30353000Y-58275100D03*
X31623000Y-58275100D03*
X32893000Y-58275100D03*
D27*
X5604000Y-69659600D03*
X7604000Y-69659600D03*
X7604000Y-64909600D03*
X5604000Y-64909600D03*
X39767000Y-64985800D03*
X41767000Y-64985800D03*
X41767000Y-69735800D03*
X39767000Y-69735800D03*
D28*
X3203200Y-44687600D03*
X3203200Y-47227600D03*
X3203200Y-49767600D03*
X3203200Y-57387600D03*
D29*
X3203200Y-59927600D03*
D28*
X37203200Y-44687600D03*
X37203200Y-47227600D03*
X37203200Y-49767600D03*
X37203200Y-57387600D03*
D29*
X37203200Y-59927600D03*
D20*
X26394800Y-61041800D03*
X26394800Y-58341800D03*
D30*
X12732000Y-32435800D03*
X16732000Y-32435800D03*
D16*
X49346800Y-43357800D03*
X51846800Y-43357800D03*
D17*
X33477200Y-36911600D03*
X33477200Y-34411600D03*
D30*
X52749200Y-32334200D03*
X48749200Y-32334200D03*
D31*
X1524000Y-32303400D03*
X1524000Y-34803400D03*
D12*
X48337200Y-59969400D03*
X51637200Y-59969400D03*
D31*
X31496000Y-36708400D03*
X31496000Y-34208400D03*
D11*
X17860000Y-41351200D03*
X15160000Y-41351200D03*
D32*
X9042400Y-18428000D03*
X9042400Y-10528000D03*
X12827000Y-10528000D03*
X12827000Y-18428000D03*
X20472400Y-18402600D03*
X20472400Y-10502600D03*
X16687800Y-10502600D03*
X16687800Y-18402600D03*
D11*
X49272200Y-41529000D03*
X51972200Y-41529000D03*
D32*
X48945800Y-10350200D03*
X48945800Y-18250200D03*
X45110400Y-18250200D03*
X45110400Y-10350200D03*
X52755800Y-18275600D03*
X52755800Y-10375600D03*
X56591200Y-10375600D03*
X56591200Y-18275600D03*
D33*
X5359400Y-34603400D03*
X5359400Y-32503400D03*
X29514800Y-34332200D03*
X29514800Y-36432200D03*
D21*
X55648200Y-57577600D03*
X54378200Y-57577600D03*
X53108200Y-57577600D03*
X51838200Y-57577600D03*
X50568200Y-57577600D03*
X49298200Y-57577600D03*
X48028200Y-57577600D03*
X46758200Y-57577600D03*
X46758200Y-48277600D03*
X48028200Y-48277600D03*
X49298200Y-48277600D03*
X50568200Y-48277600D03*
X51838200Y-48277600D03*
X53108200Y-48277600D03*
X54378200Y-48277600D03*
X55648200Y-48277600D03*
D34*
X2235200Y-16179800D03*
D35*
X2235200Y-28879800D03*
X30000000Y-28457800D03*
D34*
X30000000Y-15757800D03*
D36*
X6099600Y-4749800D03*
X12899600Y-4749800D03*
D37*
X30000000Y-3813600D03*
X30000000Y-10613600D03*
D38*
X9168400Y-26129800D03*
X12218400Y-29479800D03*
X12218400Y-26129800D03*
X9168400Y-29479800D03*
D39*
X10693400Y-27804800D03*
D40*
X8413400Y-21504800D03*
X12973400Y-21504800D03*
X21101400Y-21479400D03*
X16541400Y-21479400D03*
D39*
X18821400Y-27779400D03*
D38*
X17296400Y-29454400D03*
X20346400Y-26104400D03*
X20346400Y-29454400D03*
X17296400Y-26104400D03*
D40*
X49041400Y-21352400D03*
X44481400Y-21352400D03*
D39*
X46761400Y-27652400D03*
D38*
X45236400Y-29327400D03*
X48286400Y-25977400D03*
X48286400Y-29327400D03*
X45236400Y-25977400D03*
X53415200Y-26002800D03*
X56465200Y-29352800D03*
X56465200Y-26002800D03*
X53415200Y-29352800D03*
D39*
X54940200Y-27677800D03*
D40*
X52660200Y-21377800D03*
X57220200Y-21377800D03*
D41*
X50149800Y-65141600D03*
X48249800Y-65141600D03*
X49199800Y-67141600D03*
X15417800Y-67421000D03*
X14467800Y-65421000D03*
X16367800Y-65421000D03*
D11*
X50262800Y-63423800D03*
X52962800Y-63423800D03*
X11553200Y-63703200D03*
X14253200Y-63703200D03*
X16531600Y-63677800D03*
X19231600Y-63677800D03*
D10*
X5000000Y-93000000D03*
D42*
X28041600Y-59537600D03*
X28067000Y-57683398D03*
X23164800Y-57759600D03*
X57226200Y-57708800D03*
X37312600Y-87401400D03*
X30226000Y-87401400D03*
X46532800Y-83661000D03*
X46532800Y-82661000D03*
X44602400Y-88239600D03*
X51079400Y-88671400D03*
X51079400Y-84861400D03*
X51054000Y-86817200D03*
X46532800Y-81661000D03*
X32893000Y-61112400D03*
X16762000Y-34800000D03*
X15762000Y-34800000D03*
X14762000Y-34800000D03*
X13762000Y-34800000D03*
X12762000Y-34800000D03*
X11522200Y-43205400D03*
X7797800Y-31750000D03*
X10797800Y-31750000D03*
X9797800Y-31750000D03*
X8797800Y-31750000D03*
X12522200Y-43205400D03*
X23834600Y-47310800D03*
X22834600Y-47310800D03*
X23834600Y-48310800D03*
X10226800Y-47260000D03*
X11226800Y-47260000D03*
X10226800Y-48260000D03*
X21694400Y-31750000D03*
X20694400Y-31750000D03*
X19694400Y-31750000D03*
X18694400Y-31750000D03*
X22834600Y-48310800D03*
X11226800Y-48260000D03*
X46447200Y-43408600D03*
X46967400Y-31750000D03*
X45967400Y-31750000D03*
X44967400Y-31750000D03*
X44770800Y-47285400D03*
X44770800Y-48285400D03*
X57794400Y-47285400D03*
X56794400Y-47285400D03*
X57794400Y-48285400D03*
X45770800Y-47285400D03*
X57889400Y-31750000D03*
X56889400Y-31750000D03*
X55889400Y-31750000D03*
X29184600Y-67691000D03*
X32766002Y-67691000D03*
X50571400Y-67437000D03*
X14071600Y-67716400D03*
X16797800Y-14598400D03*
X15797800Y-14598400D03*
X14797800Y-14598400D03*
X13797800Y-14598400D03*
X12797800Y-14598400D03*
X11797800Y-14598400D03*
X10797800Y-14598400D03*
X9797800Y-14598400D03*
X8797800Y-14598400D03*
X7797800Y-14598400D03*
X16797800Y-13598400D03*
X15797800Y-13598400D03*
X14797800Y-13598400D03*
X13797800Y-13598400D03*
X12797800Y-13598400D03*
X11797800Y-13598400D03*
X10797800Y-13598400D03*
X9797800Y-13598400D03*
X8797800Y-13598400D03*
X7797800Y-13598400D03*
X16797800Y-12598400D03*
X15797800Y-12598400D03*
X14797800Y-12598400D03*
X13797800Y-12598400D03*
X12797800Y-12598400D03*
X11797800Y-12598400D03*
X10797800Y-12598400D03*
X9797800Y-12598400D03*
X8797800Y-12598400D03*
X7797800Y-12598400D03*
X57967400Y-14725400D03*
X56967400Y-14725400D03*
X55967400Y-14725400D03*
X54967400Y-14725400D03*
X53967400Y-14725400D03*
X52967400Y-14725400D03*
X51967400Y-14725400D03*
X50967400Y-14725400D03*
X49967400Y-14725400D03*
X48967400Y-14725400D03*
X47967400Y-14725400D03*
X46967400Y-14725400D03*
X45967400Y-14725400D03*
X44967400Y-14725400D03*
X43967400Y-14725400D03*
X57967400Y-13725400D03*
X56967400Y-13725400D03*
X55967400Y-13725400D03*
X54967400Y-13725400D03*
X53967400Y-13725400D03*
X52967400Y-13725400D03*
X51967400Y-13725400D03*
X50967400Y-13725400D03*
X49967400Y-13725400D03*
X48967400Y-13725400D03*
X47967400Y-13725400D03*
X46967400Y-13725400D03*
X45967400Y-13725400D03*
X44967400Y-13725400D03*
X43967400Y-13725400D03*
X57967400Y-12725400D03*
X56967400Y-12725400D03*
X55967400Y-12725400D03*
X54967400Y-12725400D03*
X53967400Y-12725400D03*
X52967400Y-12725400D03*
X51967400Y-12725400D03*
X50967400Y-12725400D03*
X49967400Y-12725400D03*
X48967400Y-12725400D03*
X47967400Y-12725400D03*
X46967400Y-12725400D03*
X45967400Y-12725400D03*
X44967400Y-12725400D03*
X43967400Y-12725400D03*
X32893000Y-45821600D03*
X29540200Y-39471600D03*
X51800000Y-34800000D03*
X52800000Y-34800000D03*
X50800000Y-34800000D03*
X48800000Y-34800000D03*
X49800000Y-34800000D03*
X47447200Y-43408600D03*
X43967400Y-31750000D03*
X56794400Y-48285400D03*
X45770800Y-48285400D03*
X54889400Y-31750000D03*
X27381200Y-67716400D03*
X47828200Y-67476210D03*
X34874200Y-67691000D03*
X16814800Y-67716400D03*
X21615400Y-69279610D03*
X19431000Y-59309000D03*
X21615400Y-78816200D03*
X53440364Y-59038700D03*
X30353000Y-65989200D03*
X31597600Y-66014600D03*
X31597600Y-45796200D03*
X29692600Y-45821600D03*
X25831800Y-80416400D03*
X11023600Y-80441800D03*
X27838400Y-61036200D03*
X26670000Y-68580000D03*
X35636200Y-68580000D03*
X51612800Y-67462400D03*
X15290800Y-78994000D03*
X18135600Y-68554600D03*
X18705998Y-60404800D03*
X52857400Y-60147200D03*
X16306800Y-59588400D03*
X50317400Y-59994800D03*
X19710400Y-41376600D03*
X19608800Y-45008800D03*
X10041552Y-36592848D03*
X12217400Y-40563800D03*
X762000Y-23774400D03*
X53492400Y-41503600D03*
X53314600Y-45262800D03*
X40792400Y-40462200D03*
X46634400Y-40563800D03*
X18135600Y-36144200D03*
X11582400Y-36474400D03*
X47523400Y-36550600D03*
X53900010Y-36652200D03*
X13614400Y-41300400D03*
X14884400Y-46659800D03*
X17830800Y-46710600D03*
X48158398Y-46609000D03*
X47421800Y-41554400D03*
X51841400Y-46685200D03*
X10515600Y-584200D03*
X33299400Y-3759200D03*
X20181410Y-60405381D03*
X54203600Y-60147200D03*
D43*
X46532800Y-83661000D02*
X46532800Y-81661000D01*
X46532800Y-83661000D02*
X47035000Y-83661000D01*
X47035000Y-83661000D02*
X48657400Y-82038600D01*
X46532800Y-82661000D02*
X48035000Y-82661000D01*
X48035000Y-82661000D02*
X48657400Y-82038600D01*
X46532800Y-81661000D02*
X48279800Y-81661000D01*
X48279800Y-81661000D02*
X48657400Y-82038600D01*
D44*
X46173400Y-88239600D02*
X44602400Y-88239600D01*
X51181000Y-88773000D02*
X51079400Y-88671400D01*
X52572600Y-88773000D02*
X51181000Y-88773000D01*
X52598000Y-84848700D02*
X51092100Y-84848700D01*
X51092100Y-84848700D02*
X51079400Y-84861400D01*
X51079400Y-86842600D02*
X51054000Y-86817200D01*
X52598000Y-86842600D02*
X51079400Y-86842600D01*
X32893000Y-58275100D02*
X32893000Y-61112400D01*
D45*
X3203200Y-59927600D02*
X3203200Y-62508800D01*
X3203200Y-62508800D02*
X5604000Y-64909600D01*
X4263860Y-57387600D02*
X7804008Y-60927748D01*
X3203200Y-57387600D02*
X4263860Y-57387600D01*
X7804008Y-60927748D02*
X7804008Y-63998326D01*
X7804008Y-63998326D02*
X7804008Y-64909600D01*
D44*
X1524000Y-45548400D02*
X1524000Y-35680400D01*
X3203200Y-47227600D02*
X1524000Y-45548400D01*
X1524000Y-35680400D02*
X1524000Y-34803400D01*
X3454400Y-34772600D02*
X5190200Y-34772600D01*
X5190200Y-34772600D02*
X5359400Y-34603400D01*
X1524000Y-34803400D02*
X3423600Y-34803400D01*
X3423600Y-34803400D02*
X3454400Y-34772600D01*
D43*
X15762000Y-34800000D02*
X15762000Y-38215600D01*
X15762000Y-38215600D02*
X15773400Y-38227000D01*
X14762000Y-34800000D02*
X14762000Y-38222400D01*
X14762000Y-38222400D02*
X14757400Y-38227000D01*
X12762000Y-34800000D02*
X16762000Y-34800000D01*
X12762000Y-38215800D02*
X16702000Y-38215800D01*
X12762000Y-34800000D02*
X12762000Y-38215800D01*
X16702000Y-38215800D02*
X16762000Y-38155800D01*
X16762000Y-38155800D02*
X16762000Y-34800000D01*
X13762000Y-34800000D02*
X13762000Y-38181000D01*
X11522200Y-43205400D02*
X12522200Y-43205400D01*
X16568200Y-46565600D02*
X15260000Y-45257400D01*
X16568200Y-48277600D02*
X16568200Y-46565600D01*
X15260000Y-45257400D02*
X15260000Y-45059600D01*
X10693400Y-27804800D02*
X10693400Y-30397200D01*
X10693400Y-30397200D02*
X12732000Y-32435800D01*
X10797800Y-31750000D02*
X12046200Y-31750000D01*
X12046200Y-31750000D02*
X12732000Y-32435800D01*
X12732000Y-32435800D02*
X11483600Y-32435800D01*
X11483600Y-32435800D02*
X10797800Y-31750000D01*
X7797800Y-31750000D02*
X7797800Y-30700400D01*
X7797800Y-30700400D02*
X10693400Y-27804800D01*
X10797800Y-31750000D02*
X7833410Y-31750000D01*
X12732000Y-32435800D02*
X12732000Y-29843400D01*
X12732000Y-29843400D02*
X10693400Y-27804800D01*
X8797800Y-31750000D02*
X8797800Y-29700400D01*
X8797800Y-29700400D02*
X10693400Y-27804800D01*
X9797800Y-31750000D02*
X9797800Y-28700400D01*
X9797800Y-28700400D02*
X10693400Y-27804800D01*
X10797800Y-31750000D02*
X10797800Y-27909200D01*
X10797800Y-27909200D02*
X10693400Y-27804800D01*
X12732000Y-32435800D02*
X8519210Y-32435800D01*
X8519210Y-32435800D02*
X7833410Y-31750000D01*
X15260000Y-43230800D02*
X12547600Y-43230800D01*
X12547600Y-43230800D02*
X12522200Y-43205400D01*
X15260000Y-43230800D02*
X15260000Y-45059600D01*
X22834600Y-47310800D02*
X22615000Y-47310800D01*
X22615000Y-47310800D02*
X21648200Y-48277600D01*
X23834600Y-47310800D02*
X22834600Y-47310800D01*
X23834600Y-48310800D02*
X23834600Y-47310800D01*
X22834600Y-48310800D02*
X23834600Y-48310800D01*
X11226800Y-48260000D02*
X11226800Y-47260000D01*
X11226800Y-47260000D02*
X11740600Y-47260000D01*
X11740600Y-47260000D02*
X12758200Y-48277600D01*
X10226800Y-47260000D02*
X11226800Y-47260000D01*
X10226800Y-48260000D02*
X10226800Y-47260000D01*
X11226800Y-48260000D02*
X10226800Y-48260000D01*
D45*
X18821400Y-29641800D02*
X17417800Y-31045400D01*
X17417800Y-31045400D02*
X17417800Y-31750000D01*
X18821400Y-27779400D02*
X18821400Y-29641800D01*
D43*
X18821400Y-27779400D02*
X18821400Y-30346400D01*
X18821400Y-30346400D02*
X16732000Y-32435800D01*
X16732000Y-32435800D02*
X16732000Y-29868800D01*
X16732000Y-29868800D02*
X18821400Y-27779400D01*
X21694400Y-31750000D02*
X17417800Y-31750000D01*
X17417800Y-31750000D02*
X16732000Y-32435800D01*
X20694400Y-31750000D02*
X20694400Y-29652400D01*
X20694400Y-29652400D02*
X18821400Y-27779400D01*
X19694400Y-31750000D02*
X19694400Y-28652400D01*
X19694400Y-28652400D02*
X18821400Y-27779400D01*
X18694400Y-31750000D02*
X18694400Y-27906400D01*
X18694400Y-27906400D02*
X18821400Y-27779400D01*
X16732000Y-32435800D02*
X21008600Y-32435800D01*
X21008600Y-32435800D02*
X21694400Y-31750000D01*
X21694400Y-31750000D02*
X21694400Y-30652400D01*
X21694400Y-30652400D02*
X18821400Y-27779400D01*
X22801400Y-48277600D02*
X22834600Y-48310800D01*
X21648200Y-48277600D02*
X22801400Y-48277600D01*
X11244400Y-48277600D02*
X11226800Y-48260000D01*
X12758200Y-48277600D02*
X11244400Y-48277600D01*
D45*
X37203200Y-59927600D02*
X37203200Y-62422000D01*
X37203200Y-62422000D02*
X39767000Y-64985800D01*
X38263860Y-57387600D02*
X41967008Y-61090748D01*
X41967008Y-61090748D02*
X41967008Y-64074526D01*
X37203200Y-57387600D02*
X38263860Y-57387600D01*
X41967008Y-64074526D02*
X41967008Y-64985800D01*
D43*
X52800000Y-38360600D02*
X52679600Y-38481000D01*
X52679600Y-38481000D02*
X52095400Y-38481000D01*
X50800000Y-34800000D02*
X50800000Y-38430200D01*
X52279800Y-38436800D02*
X52324000Y-38481000D01*
X48800000Y-38436800D02*
X52279800Y-38436800D01*
X52324000Y-38481000D02*
X48869600Y-38481000D01*
X48869600Y-38481000D02*
X48818800Y-38430200D01*
X51384200Y-38150800D02*
X51800000Y-37735000D01*
X52800000Y-34800000D02*
X52800000Y-37439600D01*
X52800000Y-37439600D02*
X52800000Y-38360600D01*
X51384200Y-38150800D02*
X52088800Y-38150800D01*
X52088800Y-38150800D02*
X52800000Y-37439600D01*
X52800000Y-38360600D02*
X50723800Y-38360600D01*
X50723800Y-38360600D02*
X49800000Y-37436800D01*
X46447200Y-43408600D02*
X47447200Y-43408600D01*
X50568200Y-46732800D02*
X49067400Y-45232000D01*
X50568200Y-48277600D02*
X50568200Y-46732800D01*
X49067400Y-45232000D02*
X49067400Y-45212000D01*
X46967400Y-31750000D02*
X48165000Y-31750000D01*
X48165000Y-31750000D02*
X48749200Y-32334200D01*
X48749200Y-31165800D02*
X48749200Y-29640200D01*
X48749200Y-32334200D02*
X48749200Y-31165800D01*
X48749200Y-31165800D02*
X45551600Y-31165800D01*
X45551600Y-31165800D02*
X44967400Y-31750000D01*
X46967400Y-31750000D02*
X46967400Y-27858400D01*
X46967400Y-27858400D02*
X46761400Y-27652400D01*
X45967400Y-31750000D02*
X45967400Y-28446400D01*
X45967400Y-28446400D02*
X46761400Y-27652400D01*
X44967400Y-31750000D02*
X44967400Y-29446400D01*
X44967400Y-29446400D02*
X46761400Y-27652400D01*
X48749200Y-32334200D02*
X44551600Y-32334200D01*
X44551600Y-32334200D02*
X43967400Y-31750000D01*
X48749200Y-29640200D02*
X46761400Y-27652400D01*
X43967400Y-31750000D02*
X43967400Y-30446400D01*
X43967400Y-30446400D02*
X46761400Y-27652400D01*
X44770800Y-47285400D02*
X45770800Y-47285400D01*
X44770800Y-48285400D02*
X44770800Y-47285400D01*
X45770800Y-48285400D02*
X44770800Y-48285400D01*
X56794400Y-47285400D02*
X56640400Y-47285400D01*
X56640400Y-47285400D02*
X55648200Y-48277600D01*
X57794400Y-47285400D02*
X56794400Y-47285400D01*
X57794400Y-48285400D02*
X57794400Y-47285400D01*
X56794400Y-48285400D02*
X57794400Y-48285400D01*
X45770800Y-47285400D02*
X45770800Y-47290200D01*
X45770800Y-47290200D02*
X46758200Y-48277600D01*
X52749200Y-31267400D02*
X52749200Y-29868800D01*
X52831801Y-31350001D02*
X52749200Y-31267400D01*
X52749200Y-32334200D02*
X52749200Y-31267400D01*
X54889400Y-31750000D02*
X54489401Y-31350001D01*
X54489401Y-31350001D02*
X52831801Y-31350001D01*
X54889400Y-31750000D02*
X54889400Y-27728600D01*
X54889400Y-27728600D02*
X54940200Y-27677800D01*
X55889400Y-31750000D02*
X55889400Y-28627000D01*
X55889400Y-28627000D02*
X54940200Y-27677800D01*
X56889400Y-31750000D02*
X56889400Y-29627000D01*
X56889400Y-29627000D02*
X54940200Y-27677800D01*
X57889400Y-31750000D02*
X57889400Y-30627000D01*
X57889400Y-30627000D02*
X54940200Y-27677800D01*
X52749200Y-32334200D02*
X57305200Y-32334200D01*
X57305200Y-32334200D02*
X57889400Y-31750000D01*
X52749200Y-29868800D02*
X54940200Y-27677800D01*
D44*
X32766002Y-67691000D02*
X29184600Y-67691000D01*
X50149800Y-67015400D02*
X50571400Y-67437000D01*
X50149800Y-65141600D02*
X50149800Y-67015400D01*
X14467800Y-67320200D02*
X14071600Y-67716400D01*
X14467800Y-65421000D02*
X14467800Y-67320200D01*
X14253200Y-63703200D02*
X14253200Y-65206400D01*
X14253200Y-65206400D02*
X14467800Y-65421000D01*
X14301200Y-59817000D02*
X14301200Y-63655200D01*
X14301200Y-63655200D02*
X14253200Y-63703200D01*
X14028200Y-57577600D02*
X14028200Y-59544000D01*
X14028200Y-59544000D02*
X14301200Y-59817000D01*
X50262800Y-63423800D02*
X50262800Y-65028600D01*
X50262800Y-65028600D02*
X50149800Y-65141600D01*
X49298200Y-61541000D02*
X50262800Y-62505600D01*
X50262800Y-62505600D02*
X50262800Y-63423800D01*
X49298200Y-57577600D02*
X49298200Y-61541000D01*
X14020800Y-57585000D02*
X14028200Y-57577600D01*
X32893000Y-47580100D02*
X32893000Y-45821600D01*
X32893000Y-45821600D02*
X32893000Y-44965000D01*
X32893000Y-44965000D02*
X33680400Y-44177600D01*
D43*
X24584600Y-6830000D02*
X28368200Y-10613600D01*
X28368200Y-10613600D02*
X30000000Y-10613600D01*
X22500000Y-6830000D02*
X24584600Y-6830000D01*
D44*
X30000000Y-10613600D02*
X30000000Y-12113600D01*
X30000000Y-12113600D02*
X30000000Y-15757800D01*
D43*
X51800000Y-37735000D02*
X51800000Y-34800000D01*
X48800000Y-38436800D02*
X49800000Y-37436800D01*
X49800000Y-37436800D02*
X49800000Y-34800000D01*
X48800000Y-34800000D02*
X48800000Y-38436800D01*
X48800000Y-34800000D02*
X52800000Y-34800000D01*
X47472600Y-43383200D02*
X47447200Y-43408600D01*
X49067400Y-43383200D02*
X47472600Y-43383200D01*
X49067400Y-45212000D02*
X49067400Y-43383200D01*
D44*
X56786600Y-48277600D02*
X56794400Y-48285400D01*
D43*
X55648200Y-48277600D02*
X56786600Y-48277600D01*
D44*
X45778600Y-48277600D02*
X45770800Y-48285400D01*
D43*
X46758200Y-48277600D02*
X45778600Y-48277600D01*
D44*
X55648200Y-48277600D02*
X55648200Y-47827600D01*
X49192400Y-45212000D02*
X49067400Y-45212000D01*
D46*
X20472400Y-10502600D02*
X16687800Y-10502600D01*
D44*
X27406600Y-67691000D02*
X27381200Y-67716400D01*
X27711400Y-67691000D02*
X27406600Y-67691000D01*
X33959800Y-66776600D02*
X28625800Y-66776600D01*
X34874200Y-67691000D02*
X33959800Y-66776600D01*
X28625800Y-66776600D02*
X27711400Y-67691000D01*
X48249800Y-65141600D02*
X48249800Y-67054610D01*
X48228199Y-67076211D02*
X47828200Y-67476210D01*
X48249800Y-67054610D02*
X48228199Y-67076211D01*
X16367800Y-67269400D02*
X16814800Y-67716400D01*
X16367800Y-65421000D02*
X16367800Y-67269400D01*
X16531600Y-63677800D02*
X16531600Y-65257200D01*
X16531600Y-65257200D02*
X16367800Y-65421000D01*
X15298200Y-59748200D02*
X16531600Y-60981600D01*
X16531600Y-60981600D02*
X16531600Y-63677800D01*
X15298200Y-57577600D02*
X15298200Y-59748200D01*
X48187600Y-63449200D02*
X48187600Y-65079400D01*
X48187600Y-65079400D02*
X48249800Y-65141600D01*
X48187600Y-63449200D02*
X48187600Y-60119000D01*
X48028200Y-57577600D02*
X48028200Y-59660400D01*
X48187600Y-60119000D02*
X48337200Y-59969400D01*
X48028200Y-59660400D02*
X48337200Y-59969400D01*
X48873400Y-90144600D02*
X48873400Y-92833200D01*
X48873400Y-92833200D02*
X48488600Y-93218000D01*
X48873400Y-88239600D02*
X48873400Y-90144600D01*
X48773400Y-86334600D02*
X48773400Y-88139600D01*
X48773400Y-88139600D02*
X48873400Y-88239600D01*
X2500000Y-8830000D02*
X2500000Y-5170000D01*
X2500000Y-8830000D02*
X2500000Y-15915000D01*
X2500000Y-15915000D02*
X2235200Y-16179800D01*
D43*
X2500000Y-5170000D02*
X5679400Y-5170000D01*
D44*
X5679400Y-5170000D02*
X6099600Y-4749800D01*
X30019000Y-30835600D02*
X30019000Y-28476800D01*
X30044400Y-28502200D02*
X30000000Y-28457800D01*
X30019000Y-28476800D02*
X30000000Y-28457800D01*
D45*
X41503600Y-89190000D02*
X41503600Y-86440000D01*
X41503600Y-91895902D02*
X41503600Y-89190000D01*
X38887400Y-94018100D02*
X39381402Y-94018100D01*
X39381402Y-94018100D02*
X41503600Y-91895902D01*
X36347400Y-94018100D02*
X38887400Y-94018100D01*
D44*
X31267400Y-95220181D02*
X31652819Y-95605600D01*
X31267400Y-94018100D02*
X31267400Y-95220181D01*
X31652819Y-95605600D02*
X39712400Y-95605600D01*
X39712400Y-95605600D02*
X45173400Y-90144600D01*
X45173400Y-90144600D02*
X46173400Y-90144600D01*
X19431000Y-61087000D02*
X21615400Y-63271400D01*
X19431000Y-59309000D02*
X19431000Y-61087000D01*
X21615400Y-63271400D02*
X21615400Y-68713925D01*
X21615400Y-68713925D02*
X21615400Y-69279610D01*
X19108200Y-58986200D02*
X19431000Y-59309000D01*
X19108200Y-57577600D02*
X19108200Y-58986200D01*
X21613400Y-78818200D02*
X21615400Y-78816200D01*
X21613400Y-80403800D02*
X21613400Y-78818200D01*
X53108200Y-58706536D02*
X53440364Y-59038700D01*
X53108200Y-57577600D02*
X53108200Y-58706536D01*
X20891400Y-80403800D02*
X19126200Y-82169000D01*
X21613400Y-80403800D02*
X20891400Y-80403800D01*
X19126200Y-82169000D02*
X19126200Y-83279715D01*
X19126200Y-83279715D02*
X19126200Y-83845400D01*
X19126200Y-94665800D02*
X19126200Y-84411085D01*
X19126200Y-84411085D02*
X19126200Y-83845400D01*
X20040600Y-95580200D02*
X19126200Y-94665800D01*
X24625300Y-95580200D02*
X20040600Y-95580200D01*
X26187400Y-94018100D02*
X24625300Y-95580200D01*
X21575200Y-80365600D02*
X21613400Y-80403800D01*
X53108200Y-57127600D02*
X53108200Y-57577600D01*
X19108200Y-57577600D02*
X19108200Y-57127600D01*
X21615400Y-80401800D02*
X21613400Y-80403800D01*
X30353000Y-65989200D02*
X30353000Y-58275100D01*
X31623000Y-58275100D02*
X31623000Y-65989200D01*
X31623000Y-65989200D02*
X31597600Y-66014600D01*
X23647400Y-91478100D02*
X23647400Y-90855800D01*
X31685800Y-44277600D02*
X31685800Y-45708000D01*
X31685800Y-45708000D02*
X31597600Y-45796200D01*
X31623000Y-45821600D02*
X31597600Y-45796200D01*
X31623000Y-47580100D02*
X31623000Y-45821600D01*
X32308800Y-44289600D02*
X32320800Y-44277600D01*
X30353000Y-47580100D02*
X30353000Y-46482000D01*
X30353000Y-46482000D02*
X29692600Y-45821600D01*
X29685800Y-45814800D02*
X29692600Y-45821600D01*
X29685800Y-44277600D02*
X29685800Y-45814800D01*
X30302200Y-44296200D02*
X30320800Y-44277600D01*
X25819200Y-80403800D02*
X25831800Y-80416400D01*
X24313400Y-80403800D02*
X25819200Y-80403800D01*
X11034372Y-80452572D02*
X11023600Y-80441800D01*
X12582605Y-80452572D02*
X11034372Y-80452572D01*
X27838400Y-61036200D02*
X26400400Y-61036200D01*
X26400400Y-61036200D02*
X26394800Y-61041800D01*
D45*
X48254600Y-75158600D02*
X48254600Y-77075800D01*
X48254600Y-77075800D02*
X48657400Y-77478600D01*
X48254600Y-75158600D02*
X48254600Y-72859200D01*
X48254600Y-72859200D02*
X48495200Y-72618600D01*
X48657400Y-77478600D02*
X39783800Y-77478600D01*
X39783800Y-77478600D02*
X39767000Y-77495400D01*
X39767000Y-77495400D02*
X39767000Y-73380600D01*
X39767000Y-82003400D02*
X39767000Y-77495400D01*
X39767000Y-73380600D02*
X39767000Y-69735800D01*
X5604000Y-72284600D02*
X6700000Y-73380600D01*
X5604000Y-69659600D02*
X5604000Y-72284600D01*
X6700000Y-73380600D02*
X39767000Y-73380600D01*
X41503600Y-83740000D02*
X39767000Y-82003400D01*
D44*
X35636200Y-68580000D02*
X26670000Y-68580000D01*
X51637200Y-67438000D02*
X51612800Y-67462400D01*
X51637200Y-59969400D02*
X51637200Y-67438000D01*
X17983200Y-61127598D02*
X17983200Y-68402200D01*
X18705998Y-60404800D02*
X17983200Y-61127598D01*
X17983200Y-68402200D02*
X18135600Y-68554600D01*
X15290800Y-78994000D02*
X15290800Y-80444377D01*
X15290800Y-80444377D02*
X15282605Y-80452572D01*
X18301200Y-59817000D02*
X18705998Y-60221798D01*
X18705998Y-60221798D02*
X18705998Y-60404800D01*
X17601200Y-59817000D02*
X18301200Y-59817000D01*
X17838200Y-57577600D02*
X17838200Y-59580000D01*
X17838200Y-59580000D02*
X17601200Y-59817000D01*
X52857400Y-60147200D02*
X51815000Y-60147200D01*
X51815000Y-60147200D02*
X51637200Y-59969400D01*
X51838200Y-57577600D02*
X51838200Y-59768400D01*
X51838200Y-59768400D02*
X51637200Y-59969400D01*
X16317572Y-80452572D02*
X18097500Y-82232500D01*
X15282605Y-80452572D02*
X16317572Y-80452572D01*
X18097500Y-82232500D02*
X18097500Y-83820000D01*
X18097500Y-94566022D02*
X18097500Y-84385685D01*
X27457400Y-92748100D02*
X27457400Y-95148400D01*
X26187400Y-91478100D02*
X27457400Y-92748100D01*
X18097500Y-84385685D02*
X18097500Y-83820000D01*
X19594278Y-96062800D02*
X18097500Y-94566022D01*
X26543000Y-96062800D02*
X19594278Y-96062800D01*
X27457400Y-95148400D02*
X26543000Y-96062800D01*
X17838200Y-58027600D02*
X17838200Y-57577600D01*
X15293377Y-80441800D02*
X15282605Y-80452572D01*
X15280605Y-80454572D02*
X15282605Y-80452572D01*
X16568200Y-56577600D02*
X17113400Y-56032400D01*
X16568200Y-57577600D02*
X16568200Y-56577600D01*
X25720612Y-56032400D02*
X26365200Y-56032400D01*
X17113400Y-56032400D02*
X25720612Y-56032400D01*
X26394800Y-56036600D02*
X26390600Y-56032400D01*
X26394800Y-58341800D02*
X26394800Y-56036600D01*
X49473000Y-56032400D02*
X50568200Y-57127600D01*
X26390600Y-56032400D02*
X49473000Y-56032400D01*
X50568200Y-57127600D02*
X50568200Y-57577600D01*
X16568200Y-59327000D02*
X16306800Y-59588400D01*
X16568200Y-57577600D02*
X16568200Y-59327000D01*
X50568200Y-57577600D02*
X50568200Y-59744000D01*
X50568200Y-59744000D02*
X50317400Y-59994800D01*
D43*
X19710400Y-41376600D02*
X17885400Y-41376600D01*
X17885400Y-41376600D02*
X17860000Y-41351200D01*
X19108200Y-48277600D02*
X19108200Y-45509400D01*
X19108200Y-45509400D02*
X19608800Y-45008800D01*
X17760000Y-43230800D02*
X17760000Y-45059600D01*
X19608800Y-45008800D02*
X17810800Y-45008800D01*
X17810800Y-45008800D02*
X17760000Y-45059600D01*
D44*
X685800Y-30080200D02*
X1524000Y-30918400D01*
X1524000Y-30918400D02*
X1524000Y-32303400D01*
X3454400Y-32272600D02*
X1554800Y-32272600D01*
X1554800Y-32272600D02*
X1524000Y-32303400D01*
X3454400Y-32272600D02*
X5128600Y-32272600D01*
X5128600Y-32272600D02*
X5359400Y-32503400D01*
X10008848Y-36592848D02*
X5919400Y-32503400D01*
X10041552Y-36592848D02*
X10008848Y-36592848D01*
X5919400Y-32503400D02*
X5359400Y-32503400D01*
X20378200Y-48277600D02*
X20378200Y-47827600D01*
X12617399Y-40163801D02*
X12217400Y-40563800D01*
X20378200Y-47827600D02*
X20928200Y-47277600D01*
X20928200Y-41427660D02*
X19664341Y-40163801D01*
X20928200Y-47277600D02*
X20928200Y-41427660D01*
X19664341Y-40163801D02*
X12617399Y-40163801D01*
X685800Y-23850600D02*
X762000Y-23774400D01*
X685800Y-30080200D02*
X685800Y-23850600D01*
X53263800Y-41503600D02*
X53492400Y-41503600D01*
X53213000Y-41554400D02*
X53263800Y-41503600D01*
D43*
X51692800Y-41554400D02*
X53213000Y-41554400D01*
X53108200Y-48277600D02*
X53108200Y-45469200D01*
X53108200Y-45469200D02*
X53314600Y-45262800D01*
X51567400Y-43383200D02*
X51567400Y-45212000D01*
X53314600Y-45262800D02*
X51618200Y-45262800D01*
D44*
X51618200Y-45262800D02*
X51567400Y-45212000D01*
X54378200Y-42254798D02*
X54378200Y-41316396D01*
X54378200Y-41316396D02*
X53225605Y-40163801D01*
X47034399Y-40163801D02*
X46634400Y-40563800D01*
X53225605Y-40163801D02*
X47034399Y-40163801D01*
X33477200Y-34411600D02*
X34741800Y-34411600D01*
X40392401Y-40062201D02*
X40792400Y-40462200D01*
X34741800Y-34411600D02*
X40392401Y-40062201D01*
X32719000Y-30835600D02*
X32719000Y-33653400D01*
X32719000Y-33653400D02*
X33477200Y-34411600D01*
X31496000Y-34208400D02*
X33274000Y-34208400D01*
X33274000Y-34208400D02*
X33477200Y-34411600D01*
X29514800Y-34332200D02*
X31372200Y-34332200D01*
X31372200Y-34332200D02*
X31496000Y-34208400D01*
X54378200Y-48277600D02*
X54378200Y-42254798D01*
X54378200Y-42254798D02*
X54330600Y-42207198D01*
D47*
X21101400Y-23079400D02*
X22758400Y-24736400D01*
X21101400Y-21479400D02*
X21101400Y-23079400D01*
X22758400Y-24736400D02*
X22758400Y-32791400D01*
X22758400Y-32791400D02*
X19405600Y-36144200D01*
X19405600Y-36144200D02*
X18135600Y-36144200D01*
X6832600Y-32181800D02*
X11099800Y-36449000D01*
X6832600Y-24384000D02*
X6832600Y-32181800D01*
X7543800Y-23672800D02*
X6832600Y-24384000D01*
X11557000Y-36449000D02*
X11582400Y-36474400D01*
X9955400Y-23672800D02*
X7543800Y-23672800D01*
X12973400Y-21504800D02*
X12123400Y-21504800D01*
X12123400Y-21504800D02*
X9955400Y-23672800D01*
X11099800Y-36449000D02*
X11557000Y-36449000D01*
D46*
X9042400Y-18428000D02*
X12827000Y-18428000D01*
X8413400Y-21504800D02*
X8413400Y-19057000D01*
X8413400Y-19057000D02*
X9042400Y-18428000D01*
X8413400Y-21504800D02*
X11490200Y-18428000D01*
X11490200Y-18428000D02*
X12827000Y-18428000D01*
X16541400Y-21479400D02*
X16541400Y-18549000D01*
X16541400Y-18549000D02*
X16687800Y-18402600D01*
X16541400Y-21479400D02*
X19618200Y-18402600D01*
X19618200Y-18402600D02*
X20472400Y-18402600D01*
X20472400Y-18402600D02*
X16687800Y-18402600D01*
D47*
X42799000Y-24384000D02*
X42799000Y-33020000D01*
X43662600Y-23520400D02*
X42799000Y-24384000D01*
X42799000Y-33020000D02*
X46329600Y-36550600D01*
X45773400Y-23520400D02*
X43662600Y-23520400D01*
X49041400Y-21352400D02*
X47941400Y-21352400D01*
X47941400Y-21352400D02*
X45773400Y-23520400D01*
X46329600Y-36550600D02*
X47523400Y-36550600D01*
X57220200Y-22727800D02*
X59283600Y-24791200D01*
X57220200Y-21377800D02*
X57220200Y-22727800D01*
X59283600Y-24791200D02*
X59283600Y-32849085D01*
X59283600Y-32849085D02*
X55480485Y-36652200D01*
X55480485Y-36652200D02*
X54465695Y-36652200D01*
X54465695Y-36652200D02*
X53900010Y-36652200D01*
D46*
X45110400Y-18250200D02*
X48945800Y-18250200D01*
X44481400Y-21352400D02*
X47583600Y-18250200D01*
X47583600Y-18250200D02*
X48945800Y-18250200D01*
X44481400Y-21352400D02*
X44481400Y-18879200D01*
X44481400Y-18879200D02*
X45110400Y-18250200D01*
X52755800Y-18275600D02*
X56591200Y-18275600D01*
X52660200Y-21377800D02*
X55762400Y-18275600D01*
X55762400Y-18275600D02*
X56591200Y-18275600D01*
X52660200Y-21377800D02*
X52660200Y-18371200D01*
X52660200Y-18371200D02*
X52755800Y-18275600D01*
D43*
X15160000Y-41351200D02*
X13665200Y-41351200D01*
X13665200Y-41351200D02*
X13614400Y-41300400D01*
X15298200Y-47073600D02*
X14884400Y-46659800D01*
X15298200Y-48277600D02*
X15298200Y-47073600D01*
X17838200Y-46718000D02*
X17830800Y-46710600D01*
X17838200Y-48277600D02*
X17838200Y-46718000D01*
X49298200Y-48277600D02*
X49298200Y-47183117D01*
X49298200Y-47183117D02*
X48724083Y-46609000D01*
X48724083Y-46609000D02*
X48158398Y-46609000D01*
X47421800Y-41554400D02*
X48992800Y-41554400D01*
X51841400Y-46685200D02*
X51841400Y-48274400D01*
D44*
X51841400Y-48274400D02*
X51838200Y-48277600D01*
D43*
X12268200Y-584200D02*
X10515600Y-584200D01*
X12899600Y-4749800D02*
X12899600Y-1215600D01*
X12899600Y-1215600D02*
X12268200Y-584200D01*
D44*
X10617200Y-685800D02*
X10515600Y-584200D01*
X33245000Y-3813600D02*
X33299400Y-3759200D01*
D43*
X30000000Y-3813600D02*
X33245000Y-3813600D01*
D44*
X20660800Y-59563000D02*
X20181410Y-60042390D01*
X20181410Y-60042390D02*
X20181410Y-60405381D01*
X21660800Y-59563000D02*
X20660800Y-59563000D01*
X21363600Y-59563000D02*
X20378200Y-58577600D01*
X20378200Y-58577600D02*
X20378200Y-57577600D01*
X21660800Y-59563000D02*
X21363600Y-59563000D01*
X54203600Y-60147200D02*
X55392000Y-60147200D01*
X55392000Y-60147200D02*
X56001600Y-59537600D01*
X54378200Y-58569200D02*
X55346600Y-59537600D01*
X54378200Y-57577600D02*
X54378200Y-58569200D01*
X55346600Y-59537600D02*
X56001600Y-59537600D01*
X56515000Y-60051000D02*
X56001600Y-59537600D01*
D48*
G36*
X40165593Y-1296274D02*
X40308447Y-2020998D01*
X40285760Y-35459606D01*
X40287315Y-35479507D01*
X40385110Y-36098616D01*
X40397404Y-36136471D01*
X40682024Y-36694907D01*
X40705431Y-36727098D01*
X41148922Y-37170015D01*
X41181142Y-37193380D01*
X41739946Y-37477277D01*
X41777817Y-37489521D01*
X42397052Y-37586515D01*
X42416955Y-37588045D01*
X47299751Y-37578414D01*
X47316623Y-37585420D01*
X47728371Y-37585779D01*
X47748337Y-37577529D01*
X52238049Y-37568674D01*
X52529926Y-37614372D01*
X52784311Y-37743544D01*
X52986250Y-37945086D01*
X53115926Y-38199218D01*
X53160612Y-38480998D01*
X53115921Y-38762684D01*
X52986240Y-39016700D01*
X52784302Y-39218106D01*
X52529942Y-39347118D01*
X52238132Y-39392626D01*
X45668212Y-39375291D01*
X45648308Y-39376808D01*
X45029013Y-39473388D01*
X44991134Y-39485607D01*
X44432144Y-39769127D01*
X44399908Y-39792470D01*
X43956124Y-40235085D01*
X43932696Y-40267260D01*
X43647701Y-40825500D01*
X43635382Y-40863346D01*
X43537169Y-41482384D01*
X43535600Y-41502284D01*
X43535600Y-48711291D01*
X43390727Y-49439614D01*
X42985252Y-50046452D01*
X42378414Y-50451927D01*
X41650091Y-50596800D01*
X38309999Y-50596800D01*
X38509907Y-50297617D01*
X38615334Y-49767600D01*
X38509907Y-49237583D01*
X38209677Y-48788257D01*
X37760351Y-48488027D01*
X37230334Y-48382600D01*
X37176066Y-48382600D01*
X36646049Y-48488027D01*
X36196723Y-48788257D01*
X35896493Y-49237583D01*
X35791066Y-49767600D01*
X35896493Y-50297617D01*
X36096401Y-50596800D01*
X30312329Y-50596800D01*
X29722822Y-50503229D01*
X29200296Y-50236326D01*
X28786101Y-49820742D01*
X28520952Y-49297326D01*
X28429356Y-48707506D01*
X28440838Y-45280146D01*
X28577991Y-45485409D01*
X28682516Y-45555251D01*
X28657780Y-45614823D01*
X28657421Y-46026571D01*
X28814658Y-46407115D01*
X29105554Y-46698519D01*
X29385560Y-46814787D01*
X29385560Y-48532600D01*
X29434843Y-48780365D01*
X29575191Y-48990409D01*
X29785235Y-49130757D01*
X30033000Y-49180040D01*
X30673000Y-49180040D01*
X30920765Y-49130757D01*
X30988000Y-49085832D01*
X31055235Y-49130757D01*
X31303000Y-49180040D01*
X31943000Y-49180040D01*
X32190765Y-49130757D01*
X32258000Y-49085832D01*
X32325235Y-49130757D01*
X32573000Y-49180040D01*
X33213000Y-49180040D01*
X33460765Y-49130757D01*
X33670809Y-48990409D01*
X33811157Y-48780365D01*
X33860440Y-48532600D01*
X33860440Y-46627600D01*
X33811157Y-46379835D01*
X33793102Y-46352814D01*
X33927820Y-46028377D01*
X33928179Y-45616629D01*
X33910995Y-45575040D01*
X34305400Y-45575040D01*
X34553165Y-45525757D01*
X34763209Y-45385409D01*
X34903557Y-45175365D01*
X34952840Y-44927600D01*
X34952840Y-44687600D01*
X35791066Y-44687600D01*
X35896493Y-45217617D01*
X36196723Y-45666943D01*
X36646049Y-45967173D01*
X37176066Y-46072600D01*
X37230334Y-46072600D01*
X37760351Y-45967173D01*
X38209677Y-45666943D01*
X38509907Y-45217617D01*
X38615334Y-44687600D01*
X38509907Y-44157583D01*
X38209677Y-43708257D01*
X37760351Y-43408027D01*
X37230334Y-43302600D01*
X37176066Y-43302600D01*
X36646049Y-43408027D01*
X36196723Y-43708257D01*
X35896493Y-44157583D01*
X35791066Y-44687600D01*
X34952840Y-44687600D01*
X34952840Y-43427600D01*
X34903557Y-43179835D01*
X34763209Y-42969791D01*
X34553165Y-42829443D01*
X34305400Y-42780160D01*
X33055400Y-42780160D01*
X32807635Y-42829443D01*
X32620770Y-42954303D01*
X32583565Y-42929443D01*
X32335800Y-42880160D01*
X31035800Y-42880160D01*
X30788035Y-42929443D01*
X30685800Y-42997755D01*
X30583565Y-42929443D01*
X30335800Y-42880160D01*
X29035800Y-42880160D01*
X28788035Y-42929443D01*
X28577991Y-43069791D01*
X28447588Y-43264951D01*
X28466679Y-37566211D01*
X28613378Y-36839841D01*
X29019269Y-36235127D01*
X29625341Y-35831264D01*
X30352192Y-35687000D01*
X32495547Y-35687000D01*
X32604435Y-35759757D01*
X32852200Y-35809040D01*
X34102200Y-35809040D01*
X34349965Y-35759757D01*
X34560009Y-35619409D01*
X34686100Y-35430702D01*
X39757365Y-40501967D01*
X39757221Y-40667171D01*
X39914458Y-41047715D01*
X40205354Y-41339119D01*
X40585623Y-41497020D01*
X40997371Y-41497379D01*
X41377915Y-41340142D01*
X41669319Y-41049246D01*
X41827220Y-40668977D01*
X41827579Y-40257229D01*
X41670342Y-39876685D01*
X41379446Y-39585281D01*
X40999177Y-39427380D01*
X40832236Y-39427234D01*
X35279201Y-33874199D01*
X35032639Y-33709452D01*
X34906062Y-33684274D01*
X34925380Y-33587787D01*
X34927851Y-33563036D01*
X34972909Y-2000210D01*
X35067833Y-1409275D01*
X35336882Y-886066D01*
X35489545Y-735000D01*
X39793665Y-735000D01*
X40165593Y-1296274D01*
X40165593Y-1296274D01*
G37*
X40165593Y-1296274D02*
X40308447Y-2020998D01*
X40285760Y-35459606D01*
X40287315Y-35479507D01*
X40385110Y-36098616D01*
X40397404Y-36136471D01*
X40682024Y-36694907D01*
X40705431Y-36727098D01*
X41148922Y-37170015D01*
X41181142Y-37193380D01*
X41739946Y-37477277D01*
X41777817Y-37489521D01*
X42397052Y-37586515D01*
X42416955Y-37588045D01*
X47299751Y-37578414D01*
X47316623Y-37585420D01*
X47728371Y-37585779D01*
X47748337Y-37577529D01*
X52238049Y-37568674D01*
X52529926Y-37614372D01*
X52784311Y-37743544D01*
X52986250Y-37945086D01*
X53115926Y-38199218D01*
X53160612Y-38480998D01*
X53115921Y-38762684D01*
X52986240Y-39016700D01*
X52784302Y-39218106D01*
X52529942Y-39347118D01*
X52238132Y-39392626D01*
X45668212Y-39375291D01*
X45648308Y-39376808D01*
X45029013Y-39473388D01*
X44991134Y-39485607D01*
X44432144Y-39769127D01*
X44399908Y-39792470D01*
X43956124Y-40235085D01*
X43932696Y-40267260D01*
X43647701Y-40825500D01*
X43635382Y-40863346D01*
X43537169Y-41482384D01*
X43535600Y-41502284D01*
X43535600Y-48711291D01*
X43390727Y-49439614D01*
X42985252Y-50046452D01*
X42378414Y-50451927D01*
X41650091Y-50596800D01*
X38309999Y-50596800D01*
X38509907Y-50297617D01*
X38615334Y-49767600D01*
X38509907Y-49237583D01*
X38209677Y-48788257D01*
X37760351Y-48488027D01*
X37230334Y-48382600D01*
X37176066Y-48382600D01*
X36646049Y-48488027D01*
X36196723Y-48788257D01*
X35896493Y-49237583D01*
X35791066Y-49767600D01*
X35896493Y-50297617D01*
X36096401Y-50596800D01*
X30312329Y-50596800D01*
X29722822Y-50503229D01*
X29200296Y-50236326D01*
X28786101Y-49820742D01*
X28520952Y-49297326D01*
X28429356Y-48707506D01*
X28440838Y-45280146D01*
X28577991Y-45485409D01*
X28682516Y-45555251D01*
X28657780Y-45614823D01*
X28657421Y-46026571D01*
X28814658Y-46407115D01*
X29105554Y-46698519D01*
X29385560Y-46814787D01*
X29385560Y-48532600D01*
X29434843Y-48780365D01*
X29575191Y-48990409D01*
X29785235Y-49130757D01*
X30033000Y-49180040D01*
X30673000Y-49180040D01*
X30920765Y-49130757D01*
X30988000Y-49085832D01*
X31055235Y-49130757D01*
X31303000Y-49180040D01*
X31943000Y-49180040D01*
X32190765Y-49130757D01*
X32258000Y-49085832D01*
X32325235Y-49130757D01*
X32573000Y-49180040D01*
X33213000Y-49180040D01*
X33460765Y-49130757D01*
X33670809Y-48990409D01*
X33811157Y-48780365D01*
X33860440Y-48532600D01*
X33860440Y-46627600D01*
X33811157Y-46379835D01*
X33793102Y-46352814D01*
X33927820Y-46028377D01*
X33928179Y-45616629D01*
X33910995Y-45575040D01*
X34305400Y-45575040D01*
X34553165Y-45525757D01*
X34763209Y-45385409D01*
X34903557Y-45175365D01*
X34952840Y-44927600D01*
X34952840Y-44687600D01*
X35791066Y-44687600D01*
X35896493Y-45217617D01*
X36196723Y-45666943D01*
X36646049Y-45967173D01*
X37176066Y-46072600D01*
X37230334Y-46072600D01*
X37760351Y-45967173D01*
X38209677Y-45666943D01*
X38509907Y-45217617D01*
X38615334Y-44687600D01*
X38509907Y-44157583D01*
X38209677Y-43708257D01*
X37760351Y-43408027D01*
X37230334Y-43302600D01*
X37176066Y-43302600D01*
X36646049Y-43408027D01*
X36196723Y-43708257D01*
X35896493Y-44157583D01*
X35791066Y-44687600D01*
X34952840Y-44687600D01*
X34952840Y-43427600D01*
X34903557Y-43179835D01*
X34763209Y-42969791D01*
X34553165Y-42829443D01*
X34305400Y-42780160D01*
X33055400Y-42780160D01*
X32807635Y-42829443D01*
X32620770Y-42954303D01*
X32583565Y-42929443D01*
X32335800Y-42880160D01*
X31035800Y-42880160D01*
X30788035Y-42929443D01*
X30685800Y-42997755D01*
X30583565Y-42929443D01*
X30335800Y-42880160D01*
X29035800Y-42880160D01*
X28788035Y-42929443D01*
X28577991Y-43069791D01*
X28447588Y-43264951D01*
X28466679Y-37566211D01*
X28613378Y-36839841D01*
X29019269Y-36235127D01*
X29625341Y-35831264D01*
X30352192Y-35687000D01*
X32495547Y-35687000D01*
X32604435Y-35759757D01*
X32852200Y-35809040D01*
X34102200Y-35809040D01*
X34349965Y-35759757D01*
X34560009Y-35619409D01*
X34686100Y-35430702D01*
X39757365Y-40501967D01*
X39757221Y-40667171D01*
X39914458Y-41047715D01*
X40205354Y-41339119D01*
X40585623Y-41497020D01*
X40997371Y-41497379D01*
X41377915Y-41340142D01*
X41669319Y-41049246D01*
X41827220Y-40668977D01*
X41827579Y-40257229D01*
X41670342Y-39876685D01*
X41379446Y-39585281D01*
X40999177Y-39427380D01*
X40832236Y-39427234D01*
X35279201Y-33874199D01*
X35032639Y-33709452D01*
X34906062Y-33684274D01*
X34925380Y-33587787D01*
X34927851Y-33563036D01*
X34972909Y-2000210D01*
X35067833Y-1409275D01*
X35336882Y-886066D01*
X35489545Y-735000D01*
X39793665Y-735000D01*
X40165593Y-1296274D01*
G36*
X56626634Y-1072957D02*
X58005629Y-1994371D01*
X58927043Y-3373366D01*
X59265000Y-5072390D01*
X59265000Y-15288343D01*
X58715584Y-15654504D01*
X57988654Y-15798800D01*
X43008109Y-15798800D01*
X42279786Y-15653927D01*
X41672948Y-15248452D01*
X41267473Y-14641614D01*
X41122600Y-13913291D01*
X41122600Y-2072706D01*
X41266020Y-1347899D01*
X41667650Y-742895D01*
X41679339Y-735000D01*
X54927610Y-735000D01*
X56626634Y-1072957D01*
X56626634Y-1072957D01*
G37*
X56626634Y-1072957D02*
X58005629Y-1994371D01*
X58927043Y-3373366D01*
X59265000Y-5072390D01*
X59265000Y-15288343D01*
X58715584Y-15654504D01*
X57988654Y-15798800D01*
X43008109Y-15798800D01*
X42279786Y-15653927D01*
X41672948Y-15248452D01*
X41267473Y-14641614D01*
X41122600Y-13913291D01*
X41122600Y-2072706D01*
X41266020Y-1347899D01*
X41667650Y-742895D01*
X41679339Y-735000D01*
X54927610Y-735000D01*
X56626634Y-1072957D01*
G36*
X19097408Y-900009D02*
X19363224Y-1421702D01*
X19456400Y-2009992D01*
X19456400Y-13896123D01*
X19312275Y-14622640D01*
X18908773Y-15228539D01*
X18304539Y-15634524D01*
X17578616Y-15781632D01*
X9219536Y-15815961D01*
X8491947Y-15674623D01*
X7884142Y-15273088D01*
X7475812Y-14669831D01*
X7326316Y-13943875D01*
X7303969Y-10804084D01*
X7392227Y-10222772D01*
X7651980Y-9706637D01*
X8059098Y-9296611D01*
X8573367Y-9033193D01*
X9163956Y-8939222D01*
X9168732Y-8938369D01*
X9927770Y-8787671D01*
X9973481Y-8768775D01*
X10617380Y-8339541D01*
X10652406Y-8304616D01*
X11083494Y-7661957D01*
X11102522Y-7616299D01*
X11247872Y-6895081D01*
X11401835Y-6997957D01*
X11649600Y-7047240D01*
X14149600Y-7047240D01*
X14397365Y-6997957D01*
X14607409Y-6857609D01*
X14747757Y-6647565D01*
X14797040Y-6399800D01*
X14797040Y-3099800D01*
X14747757Y-2852035D01*
X14607409Y-2641991D01*
X14397365Y-2501643D01*
X14149600Y-2452360D01*
X14034600Y-2452360D01*
X14034600Y-1215600D01*
X13948203Y-781254D01*
X13917297Y-735000D01*
X18932399Y-735000D01*
X19097408Y-900009D01*
X19097408Y-900009D01*
G37*
X19097408Y-900009D02*
X19363224Y-1421702D01*
X19456400Y-2009992D01*
X19456400Y-13896123D01*
X19312275Y-14622640D01*
X18908773Y-15228539D01*
X18304539Y-15634524D01*
X17578616Y-15781632D01*
X9219536Y-15815961D01*
X8491947Y-15674623D01*
X7884142Y-15273088D01*
X7475812Y-14669831D01*
X7326316Y-13943875D01*
X7303969Y-10804084D01*
X7392227Y-10222772D01*
X7651980Y-9706637D01*
X8059098Y-9296611D01*
X8573367Y-9033193D01*
X9163956Y-8939222D01*
X9168732Y-8938369D01*
X9927770Y-8787671D01*
X9973481Y-8768775D01*
X10617380Y-8339541D01*
X10652406Y-8304616D01*
X11083494Y-7661957D01*
X11102522Y-7616299D01*
X11247872Y-6895081D01*
X11401835Y-6997957D01*
X11649600Y-7047240D01*
X14149600Y-7047240D01*
X14397365Y-6997957D01*
X14607409Y-6857609D01*
X14747757Y-6647565D01*
X14797040Y-6399800D01*
X14797040Y-3099800D01*
X14747757Y-2852035D01*
X14607409Y-2641991D01*
X14397365Y-2501643D01*
X14149600Y-2452360D01*
X14034600Y-2452360D01*
X14034600Y-1215600D01*
X13948203Y-781254D01*
X13917297Y-735000D01*
X18932399Y-735000D01*
X19097408Y-900009D01*
G36*
X24914008Y-900009D02*
X25179824Y-1421702D01*
X25273000Y-2009992D01*
X25273000Y-37484491D01*
X25128127Y-38212814D01*
X24722652Y-38819652D01*
X24115814Y-39225127D01*
X23387491Y-39370000D01*
X11199330Y-39370000D01*
X11179434Y-39371568D01*
X10560539Y-39469735D01*
X10522701Y-39482048D01*
X9964562Y-39766912D01*
X9932392Y-39790330D01*
X9489798Y-40233926D01*
X9466453Y-40266149D01*
X9182852Y-40824932D01*
X9170624Y-40862798D01*
X9073858Y-41481913D01*
X9072335Y-41501812D01*
X9088642Y-48709552D01*
X8996533Y-49298876D01*
X8731165Y-49821733D01*
X8317029Y-50236807D01*
X7794773Y-50503357D01*
X7205659Y-50596800D01*
X4309999Y-50596800D01*
X4509907Y-50297617D01*
X4615334Y-49767600D01*
X4509907Y-49237583D01*
X4209677Y-48788257D01*
X3760351Y-48488027D01*
X3230334Y-48382600D01*
X3176066Y-48382600D01*
X2646049Y-48488027D01*
X2196723Y-48788257D01*
X1896493Y-49237583D01*
X1791066Y-49767600D01*
X1896493Y-50297617D01*
X2096401Y-50596800D01*
X2009992Y-50596800D01*
X1421702Y-50503624D01*
X900009Y-50237808D01*
X735000Y-50072799D01*
X735000Y-44687600D01*
X1791066Y-44687600D01*
X1896493Y-45217617D01*
X2196723Y-45666943D01*
X2646049Y-45967173D01*
X3176066Y-46072600D01*
X3230334Y-46072600D01*
X3760351Y-45967173D01*
X4209677Y-45666943D01*
X4509907Y-45217617D01*
X4615334Y-44687600D01*
X4509907Y-44157583D01*
X4209677Y-43708257D01*
X3760351Y-43408027D01*
X3230334Y-43302600D01*
X3176066Y-43302600D01*
X2646049Y-43408027D01*
X2196723Y-43708257D01*
X1896493Y-44157583D01*
X1791066Y-44687600D01*
X735000Y-44687600D01*
X735000Y-38116317D01*
X1305020Y-37736343D01*
X2032064Y-37592000D01*
X9748877Y-37592000D01*
X9834775Y-37627668D01*
X10246523Y-37628027D01*
X10333715Y-37592000D01*
X18224941Y-37592000D01*
X18249666Y-37589570D01*
X19013520Y-37437955D01*
X19059223Y-37419068D01*
X19707264Y-36987211D01*
X19729845Y-36964703D01*
X19744275Y-36961833D01*
X20031390Y-36769990D01*
X23384187Y-33417192D01*
X23384190Y-33417190D01*
X23576033Y-33130075D01*
X23595422Y-33032600D01*
X23643401Y-32791400D01*
X23643400Y-32791395D01*
X23643400Y-24736405D01*
X23643401Y-24736400D01*
X23576033Y-24397726D01*
X23576033Y-24397725D01*
X23384190Y-24110610D01*
X23384187Y-24110608D01*
X22219924Y-22946344D01*
X22299557Y-22827165D01*
X22348840Y-22579400D01*
X22348840Y-20379400D01*
X22340447Y-20337205D01*
X22530209Y-20210409D01*
X22670557Y-20000365D01*
X22719840Y-19752600D01*
X22719840Y-17052600D01*
X22670557Y-16804835D01*
X22530209Y-16594791D01*
X22320165Y-16454443D01*
X22072400Y-16405160D01*
X21163962Y-16405160D01*
X20472400Y-16267600D01*
X20414843Y-16267600D01*
X20426735Y-12637600D01*
X20472400Y-12637600D01*
X21163962Y-12500040D01*
X22072400Y-12500040D01*
X22320165Y-12450757D01*
X22530209Y-12310409D01*
X22670557Y-12100365D01*
X22719840Y-11852600D01*
X22719840Y-9152600D01*
X22670557Y-8904835D01*
X22530209Y-8694791D01*
X22320165Y-8554443D01*
X22072400Y-8505160D01*
X21163962Y-8505160D01*
X20472400Y-8367600D01*
X20440723Y-8367600D01*
X20446988Y-6455292D01*
X20446989Y-6455089D01*
X20447000Y-6448537D01*
X20447000Y-2009992D01*
X20540176Y-1421702D01*
X20805992Y-900009D01*
X20971001Y-735000D01*
X24748999Y-735000D01*
X24914008Y-900009D01*
X24914008Y-900009D01*
G37*
X24914008Y-900009D02*
X25179824Y-1421702D01*
X25273000Y-2009992D01*
X25273000Y-37484491D01*
X25128127Y-38212814D01*
X24722652Y-38819652D01*
X24115814Y-39225127D01*
X23387491Y-39370000D01*
X11199330Y-39370000D01*
X11179434Y-39371568D01*
X10560539Y-39469735D01*
X10522701Y-39482048D01*
X9964562Y-39766912D01*
X9932392Y-39790330D01*
X9489798Y-40233926D01*
X9466453Y-40266149D01*
X9182852Y-40824932D01*
X9170624Y-40862798D01*
X9073858Y-41481913D01*
X9072335Y-41501812D01*
X9088642Y-48709552D01*
X8996533Y-49298876D01*
X8731165Y-49821733D01*
X8317029Y-50236807D01*
X7794773Y-50503357D01*
X7205659Y-50596800D01*
X4309999Y-50596800D01*
X4509907Y-50297617D01*
X4615334Y-49767600D01*
X4509907Y-49237583D01*
X4209677Y-48788257D01*
X3760351Y-48488027D01*
X3230334Y-48382600D01*
X3176066Y-48382600D01*
X2646049Y-48488027D01*
X2196723Y-48788257D01*
X1896493Y-49237583D01*
X1791066Y-49767600D01*
X1896493Y-50297617D01*
X2096401Y-50596800D01*
X2009992Y-50596800D01*
X1421702Y-50503624D01*
X900009Y-50237808D01*
X735000Y-50072799D01*
X735000Y-44687600D01*
X1791066Y-44687600D01*
X1896493Y-45217617D01*
X2196723Y-45666943D01*
X2646049Y-45967173D01*
X3176066Y-46072600D01*
X3230334Y-46072600D01*
X3760351Y-45967173D01*
X4209677Y-45666943D01*
X4509907Y-45217617D01*
X4615334Y-44687600D01*
X4509907Y-44157583D01*
X4209677Y-43708257D01*
X3760351Y-43408027D01*
X3230334Y-43302600D01*
X3176066Y-43302600D01*
X2646049Y-43408027D01*
X2196723Y-43708257D01*
X1896493Y-44157583D01*
X1791066Y-44687600D01*
X735000Y-44687600D01*
X735000Y-38116317D01*
X1305020Y-37736343D01*
X2032064Y-37592000D01*
X9748877Y-37592000D01*
X9834775Y-37627668D01*
X10246523Y-37628027D01*
X10333715Y-37592000D01*
X18224941Y-37592000D01*
X18249666Y-37589570D01*
X19013520Y-37437955D01*
X19059223Y-37419068D01*
X19707264Y-36987211D01*
X19729845Y-36964703D01*
X19744275Y-36961833D01*
X20031390Y-36769990D01*
X23384187Y-33417192D01*
X23384190Y-33417190D01*
X23576033Y-33130075D01*
X23595422Y-33032600D01*
X23643401Y-32791400D01*
X23643400Y-32791395D01*
X23643400Y-24736405D01*
X23643401Y-24736400D01*
X23576033Y-24397726D01*
X23576033Y-24397725D01*
X23384190Y-24110610D01*
X23384187Y-24110608D01*
X22219924Y-22946344D01*
X22299557Y-22827165D01*
X22348840Y-22579400D01*
X22348840Y-20379400D01*
X22340447Y-20337205D01*
X22530209Y-20210409D01*
X22670557Y-20000365D01*
X22719840Y-19752600D01*
X22719840Y-17052600D01*
X22670557Y-16804835D01*
X22530209Y-16594791D01*
X22320165Y-16454443D01*
X22072400Y-16405160D01*
X21163962Y-16405160D01*
X20472400Y-16267600D01*
X20414843Y-16267600D01*
X20426735Y-12637600D01*
X20472400Y-12637600D01*
X21163962Y-12500040D01*
X22072400Y-12500040D01*
X22320165Y-12450757D01*
X22530209Y-12310409D01*
X22670557Y-12100365D01*
X22719840Y-11852600D01*
X22719840Y-9152600D01*
X22670557Y-8904835D01*
X22530209Y-8694791D01*
X22320165Y-8554443D01*
X22072400Y-8505160D01*
X21163962Y-8505160D01*
X20472400Y-8367600D01*
X20440723Y-8367600D01*
X20446988Y-6455292D01*
X20446989Y-6455089D01*
X20447000Y-6448537D01*
X20447000Y-2009992D01*
X20540176Y-1421702D01*
X20805992Y-900009D01*
X20971001Y-735000D01*
X24748999Y-735000D01*
X24914008Y-900009D01*
G36*
X59265000Y-92927610D02*
X58927043Y-94626634D01*
X58005629Y-96005629D01*
X56626634Y-96927043D01*
X54927610Y-97265000D01*
X5072390Y-97265000D01*
X3373366Y-96927043D01*
X1994371Y-96005629D01*
X1072957Y-94626634D01*
X865648Y-93584419D01*
X2184213Y-93584419D01*
X2523755Y-94406172D01*
X3151921Y-95035436D01*
X3973081Y-95376411D01*
X4862219Y-95377187D01*
X5683972Y-95037645D01*
X6313236Y-94409479D01*
X6654211Y-93588319D01*
X6654987Y-92699181D01*
X6315445Y-91877428D01*
X5687279Y-91248164D01*
X4866119Y-90907189D01*
X3976981Y-90906413D01*
X3155228Y-91245955D01*
X2525964Y-91874121D01*
X2184989Y-92695281D01*
X2184213Y-93584419D01*
X865648Y-93584419D01*
X735000Y-92927610D01*
X735000Y-90754200D01*
X9761891Y-90754200D01*
X9886348Y-91379887D01*
X10240771Y-91910320D01*
X10411205Y-92024200D01*
X10240771Y-92138080D01*
X9886348Y-92668513D01*
X9761891Y-93294200D01*
X9886348Y-93919887D01*
X10240771Y-94450320D01*
X10771204Y-94804743D01*
X11396891Y-94929200D01*
X12072709Y-94929200D01*
X12698396Y-94804743D01*
X13228829Y-94450320D01*
X13583252Y-93919887D01*
X13707709Y-93294200D01*
X13583252Y-92668513D01*
X13228829Y-92138080D01*
X13058395Y-92024200D01*
X13228829Y-91910320D01*
X13583252Y-91379887D01*
X13707709Y-90754200D01*
X13583252Y-90128513D01*
X13344398Y-89771041D01*
X13492609Y-89672009D01*
X13632957Y-89461965D01*
X13682240Y-89214200D01*
X13682240Y-87214200D01*
X13632957Y-86966435D01*
X13492609Y-86756391D01*
X13282565Y-86616043D01*
X13034800Y-86566760D01*
X10434800Y-86566760D01*
X10187035Y-86616043D01*
X9976991Y-86756391D01*
X9836643Y-86966435D01*
X9787360Y-87214200D01*
X9787360Y-89214200D01*
X9836643Y-89461965D01*
X9976991Y-89672009D01*
X10125202Y-89771041D01*
X9886348Y-90128513D01*
X9761891Y-90754200D01*
X735000Y-90754200D01*
X735000Y-72284600D01*
X3968999Y-72284600D01*
X4093457Y-72910288D01*
X4447880Y-73440720D01*
X5543880Y-74536720D01*
X6074312Y-74891143D01*
X6700000Y-75015601D01*
X6700005Y-75015600D01*
X38132000Y-75015600D01*
X38132000Y-77495395D01*
X38131999Y-77495400D01*
X38132000Y-77495405D01*
X38132000Y-82003395D01*
X38131999Y-82003400D01*
X38256457Y-82629088D01*
X38610880Y-83159520D01*
X40347480Y-84896119D01*
X40372361Y-84912744D01*
X40395791Y-84947809D01*
X40605835Y-85088157D01*
X40615100Y-85090000D01*
X40605835Y-85091843D01*
X40395791Y-85232191D01*
X40372362Y-85267254D01*
X40347480Y-85283880D01*
X39993057Y-85814313D01*
X39868600Y-86440000D01*
X39868600Y-91218663D01*
X38704162Y-92383100D01*
X36347400Y-92383100D01*
X35721713Y-92507557D01*
X35191280Y-92861980D01*
X35014974Y-93125841D01*
X34649683Y-92759912D01*
X34621843Y-92748352D01*
X34647486Y-92737756D01*
X35065588Y-92320383D01*
X35292142Y-91774781D01*
X35292657Y-91184011D01*
X35067056Y-90638014D01*
X34649683Y-90219912D01*
X34104081Y-89993358D01*
X33513311Y-89992843D01*
X32967314Y-90218444D01*
X32549212Y-90635817D01*
X32322658Y-91181419D01*
X32322143Y-91772189D01*
X32547744Y-92318186D01*
X32965117Y-92736288D01*
X32992957Y-92747848D01*
X32967314Y-92758444D01*
X32549212Y-93175817D01*
X32537652Y-93203657D01*
X32527056Y-93178014D01*
X32109683Y-92759912D01*
X31564081Y-92533358D01*
X30973311Y-92532843D01*
X30427314Y-92758444D01*
X30009212Y-93175817D01*
X29997652Y-93203657D01*
X29987056Y-93178014D01*
X29569683Y-92759912D01*
X29541843Y-92748352D01*
X29567486Y-92737756D01*
X29985588Y-92320383D01*
X30212142Y-91774781D01*
X30212657Y-91184011D01*
X29987056Y-90638014D01*
X29569683Y-90219912D01*
X29024081Y-89993358D01*
X28433311Y-89992843D01*
X27887314Y-90218444D01*
X27469212Y-90635817D01*
X27457652Y-90663657D01*
X27447056Y-90638014D01*
X27029683Y-90219912D01*
X26484081Y-89993358D01*
X25893311Y-89992843D01*
X25347314Y-90218444D01*
X24929212Y-90635817D01*
X24917652Y-90663657D01*
X24907056Y-90638014D01*
X24489683Y-90219912D01*
X23944081Y-89993358D01*
X23353311Y-89992843D01*
X22807314Y-90218444D01*
X22389212Y-90635817D01*
X22377652Y-90663657D01*
X22367056Y-90638014D01*
X21949683Y-90219912D01*
X21404081Y-89993358D01*
X20813311Y-89992843D01*
X20267314Y-90218444D01*
X19886200Y-90598893D01*
X19886200Y-82483802D01*
X20701054Y-81668948D01*
X20863400Y-81701240D01*
X22363400Y-81701240D01*
X22611165Y-81651957D01*
X22821209Y-81511609D01*
X22961557Y-81301565D01*
X22963400Y-81292300D01*
X22965243Y-81301565D01*
X23105591Y-81511609D01*
X23315635Y-81651957D01*
X23563400Y-81701240D01*
X25063400Y-81701240D01*
X25311165Y-81651957D01*
X25521209Y-81511609D01*
X25575344Y-81430591D01*
X25625023Y-81451220D01*
X26036771Y-81451579D01*
X26417315Y-81294342D01*
X26708719Y-81003446D01*
X26866620Y-80623177D01*
X26866979Y-80211429D01*
X26709742Y-79830885D01*
X26418846Y-79539481D01*
X26038577Y-79381580D01*
X25626829Y-79381221D01*
X25588688Y-79396980D01*
X25521209Y-79295991D01*
X25311165Y-79155643D01*
X25063400Y-79106360D01*
X23563400Y-79106360D01*
X23315635Y-79155643D01*
X23105591Y-79295991D01*
X22965243Y-79506035D01*
X22963400Y-79515300D01*
X22961557Y-79506035D01*
X22821209Y-79295991D01*
X22611165Y-79155643D01*
X22596356Y-79152697D01*
X22650220Y-79022977D01*
X22650579Y-78611229D01*
X22493342Y-78230685D01*
X22202446Y-77939281D01*
X21822177Y-77781380D01*
X21410429Y-77781021D01*
X21029885Y-77938258D01*
X20738481Y-78229154D01*
X20580580Y-78609423D01*
X20580221Y-79021171D01*
X20634253Y-79151940D01*
X20615635Y-79155643D01*
X20405591Y-79295991D01*
X20265243Y-79506035D01*
X20215960Y-79753800D01*
X20215960Y-80004438D01*
X18588799Y-81631599D01*
X18581830Y-81642028D01*
X16854973Y-79915171D01*
X16679062Y-79797632D01*
X16630762Y-79554807D01*
X16490414Y-79344763D01*
X16314610Y-79227293D01*
X16325620Y-79200777D01*
X16325979Y-78789029D01*
X16168742Y-78408485D01*
X15877846Y-78117081D01*
X15497577Y-77959180D01*
X15085829Y-77958821D01*
X14705285Y-78116058D01*
X14413881Y-78406954D01*
X14255980Y-78787223D01*
X14255621Y-79198971D01*
X14263705Y-79218537D01*
X14074796Y-79344763D01*
X13934448Y-79554807D01*
X13932605Y-79564072D01*
X13930762Y-79554807D01*
X13790414Y-79344763D01*
X13580370Y-79204415D01*
X13332605Y-79155132D01*
X11832605Y-79155132D01*
X11584840Y-79204415D01*
X11374796Y-79344763D01*
X11310886Y-79440410D01*
X11230377Y-79406980D01*
X10818629Y-79406621D01*
X10438085Y-79563858D01*
X10146681Y-79854754D01*
X9988780Y-80235023D01*
X9988421Y-80646771D01*
X10145658Y-81027315D01*
X10436554Y-81318719D01*
X10816823Y-81476620D01*
X11228571Y-81476979D01*
X11299489Y-81447677D01*
X11374796Y-81560381D01*
X11584840Y-81700729D01*
X11832605Y-81750012D01*
X13332605Y-81750012D01*
X13580370Y-81700729D01*
X13790414Y-81560381D01*
X13930762Y-81350337D01*
X13932605Y-81341072D01*
X13934448Y-81350337D01*
X14074796Y-81560381D01*
X14284840Y-81700729D01*
X14532605Y-81750012D01*
X16032605Y-81750012D01*
X16280370Y-81700729D01*
X16406589Y-81616391D01*
X17337500Y-82547302D01*
X17337500Y-94566022D01*
X17395352Y-94856861D01*
X17560099Y-95103423D01*
X19056877Y-96600201D01*
X19303439Y-96764948D01*
X19594278Y-96822800D01*
X26543000Y-96822800D01*
X26833839Y-96764948D01*
X27080401Y-96600201D01*
X27994801Y-95685801D01*
X28159548Y-95439239D01*
X28168551Y-95393980D01*
X28430719Y-95502842D01*
X29021489Y-95503357D01*
X29567486Y-95277756D01*
X29985588Y-94860383D01*
X29997148Y-94832543D01*
X30007744Y-94858186D01*
X30425117Y-95276288D01*
X30526973Y-95318583D01*
X30565252Y-95511020D01*
X30729999Y-95757582D01*
X31115418Y-96143001D01*
X31361980Y-96307748D01*
X31652819Y-96365600D01*
X39712400Y-96365600D01*
X40003239Y-96307748D01*
X40249801Y-96143001D01*
X45070377Y-91322425D01*
X45175635Y-91392757D01*
X45423400Y-91442040D01*
X46923400Y-91442040D01*
X47171165Y-91392757D01*
X47381209Y-91252409D01*
X47521557Y-91042365D01*
X47523400Y-91033100D01*
X47525243Y-91042365D01*
X47665591Y-91252409D01*
X47875635Y-91392757D01*
X48113400Y-91440051D01*
X48113400Y-91595960D01*
X46883800Y-91595960D01*
X46636035Y-91645243D01*
X46425991Y-91785591D01*
X46285643Y-91995635D01*
X46236360Y-92243400D01*
X46236360Y-94243400D01*
X46285643Y-94491165D01*
X46425991Y-94701209D01*
X46636035Y-94841557D01*
X46883800Y-94890840D01*
X49483800Y-94890840D01*
X49731565Y-94841557D01*
X49941609Y-94701209D01*
X50081957Y-94491165D01*
X50131240Y-94243400D01*
X50131240Y-92243400D01*
X50081957Y-91995635D01*
X49941609Y-91785591D01*
X49731565Y-91645243D01*
X49633400Y-91625717D01*
X49633400Y-91440051D01*
X49871165Y-91392757D01*
X50081209Y-91252409D01*
X50221557Y-91042365D01*
X50270840Y-90794600D01*
X50270840Y-89494600D01*
X50229062Y-89284568D01*
X50492354Y-89548319D01*
X50872623Y-89706220D01*
X51265067Y-89706562D01*
X51364791Y-89855809D01*
X51574835Y-89996157D01*
X51822600Y-90045440D01*
X53322600Y-90045440D01*
X53570365Y-89996157D01*
X53780409Y-89855809D01*
X53920757Y-89645765D01*
X53970040Y-89398000D01*
X53970040Y-88148000D01*
X53920757Y-87900235D01*
X53871693Y-87826807D01*
X53946157Y-87715365D01*
X53995440Y-87467600D01*
X53995440Y-86217600D01*
X53946157Y-85969835D01*
X53863179Y-85845650D01*
X53946157Y-85721465D01*
X53995440Y-85473700D01*
X53995440Y-84223700D01*
X53946157Y-83975935D01*
X53805809Y-83765891D01*
X53595765Y-83625543D01*
X53348000Y-83576260D01*
X51848000Y-83576260D01*
X51600235Y-83625543D01*
X51390191Y-83765891D01*
X51335856Y-83847208D01*
X51286177Y-83826580D01*
X50874429Y-83826221D01*
X50493885Y-83983458D01*
X50202481Y-84274354D01*
X50044580Y-84654623D01*
X50044221Y-85066371D01*
X50201458Y-85446915D01*
X50492354Y-85738319D01*
X50723004Y-85834093D01*
X50468485Y-85939258D01*
X50177081Y-86230154D01*
X50170840Y-86245184D01*
X50170840Y-85709600D01*
X50121557Y-85461835D01*
X49981209Y-85251791D01*
X49771165Y-85111443D01*
X49523400Y-85062160D01*
X48023400Y-85062160D01*
X47775635Y-85111443D01*
X47565591Y-85251791D01*
X47425243Y-85461835D01*
X47375960Y-85709600D01*
X47375960Y-86959600D01*
X47422503Y-87193592D01*
X47381209Y-87131791D01*
X47171165Y-86991443D01*
X46923400Y-86942160D01*
X45423400Y-86942160D01*
X45175635Y-86991443D01*
X44965591Y-87131791D01*
X44893441Y-87239770D01*
X44809177Y-87204780D01*
X44397429Y-87204421D01*
X44016885Y-87361658D01*
X43725481Y-87652554D01*
X43567580Y-88032823D01*
X43567221Y-88444571D01*
X43724458Y-88825115D01*
X44015354Y-89116519D01*
X44395623Y-89274420D01*
X44807371Y-89274779D01*
X44820787Y-89269236D01*
X44775960Y-89494600D01*
X44775960Y-89513680D01*
X44635999Y-89607199D01*
X43138600Y-91104598D01*
X43138600Y-86440000D01*
X43014143Y-85814313D01*
X42659720Y-85283880D01*
X42634838Y-85267254D01*
X42611409Y-85232191D01*
X42401365Y-85091843D01*
X42392100Y-85090000D01*
X42401365Y-85088157D01*
X42611409Y-84947809D01*
X42634840Y-84912743D01*
X42659719Y-84896119D01*
X43014143Y-84365687D01*
X43138600Y-83740000D01*
X43014143Y-83114312D01*
X42659719Y-82583880D01*
X42618213Y-82542374D01*
X42611409Y-82532191D01*
X42601226Y-82525387D01*
X41736840Y-81661000D01*
X45397800Y-81661000D01*
X45397800Y-83661000D01*
X45484197Y-84095346D01*
X45730234Y-84463566D01*
X46098454Y-84709603D01*
X46532800Y-84796000D01*
X47035000Y-84796000D01*
X47469346Y-84709603D01*
X47837566Y-84463566D01*
X49015092Y-83286040D01*
X49757400Y-83286040D01*
X50005165Y-83236757D01*
X50215209Y-83096409D01*
X50355557Y-82886365D01*
X50404840Y-82638600D01*
X50404840Y-81438600D01*
X50355557Y-81190835D01*
X50215209Y-80980791D01*
X50005165Y-80840443D01*
X49757400Y-80791160D01*
X48981683Y-80791160D01*
X48913215Y-80745411D01*
X48714146Y-80612397D01*
X48279800Y-80526000D01*
X46532800Y-80526000D01*
X46098454Y-80612397D01*
X45730234Y-80858434D01*
X45484197Y-81226654D01*
X45397800Y-81661000D01*
X41736840Y-81661000D01*
X41402000Y-81326160D01*
X41402000Y-79113600D01*
X48657400Y-79113600D01*
X49283088Y-78989143D01*
X49434787Y-78887781D01*
X49676850Y-78726040D01*
X49757400Y-78726040D01*
X50005165Y-78676757D01*
X50215209Y-78536409D01*
X50355557Y-78326365D01*
X50404840Y-78078600D01*
X50404840Y-76878600D01*
X50355557Y-76630835D01*
X50215209Y-76420791D01*
X50005165Y-76280443D01*
X49889600Y-76257456D01*
X49889600Y-74368778D01*
X49953009Y-74326409D01*
X50093357Y-74116365D01*
X50142640Y-73868600D01*
X50142640Y-71368600D01*
X50093357Y-71120835D01*
X49953009Y-70910791D01*
X49742965Y-70770443D01*
X49495200Y-70721160D01*
X47495200Y-70721160D01*
X47247435Y-70770443D01*
X47037391Y-70910791D01*
X46897043Y-71120835D01*
X46847760Y-71368600D01*
X46847760Y-72078309D01*
X46744057Y-72233512D01*
X46619599Y-72859200D01*
X46619600Y-72859205D01*
X46619600Y-75843600D01*
X41402000Y-75843600D01*
X41402000Y-69735800D01*
X41277543Y-69110113D01*
X40923120Y-68579680D01*
X40392687Y-68225257D01*
X39767000Y-68100800D01*
X39141313Y-68225257D01*
X38610880Y-68579680D01*
X38256457Y-69110113D01*
X38132000Y-69735800D01*
X38132000Y-71745600D01*
X7377240Y-71745600D01*
X7239000Y-71607360D01*
X7239000Y-69659600D01*
X7114543Y-69033913D01*
X6760120Y-68503480D01*
X6229687Y-68149057D01*
X5604000Y-68024600D01*
X4978313Y-68149057D01*
X4447880Y-68503480D01*
X4093457Y-69033913D01*
X3969000Y-69659600D01*
X3969000Y-72284595D01*
X3968999Y-72284600D01*
X735000Y-72284600D01*
X735000Y-55803489D01*
X2952081Y-55802551D01*
X2577513Y-55877057D01*
X2047080Y-56231480D01*
X1692657Y-56761913D01*
X1568200Y-57387600D01*
X1692657Y-58013287D01*
X2047080Y-58543720D01*
X2152989Y-58614486D01*
X1995391Y-58719791D01*
X1855043Y-58929835D01*
X1818493Y-59113585D01*
X1692657Y-59301913D01*
X1568200Y-59927600D01*
X1568200Y-62508795D01*
X1568199Y-62508800D01*
X1692657Y-63134488D01*
X2047080Y-63664920D01*
X4447880Y-66065720D01*
X4978312Y-66420143D01*
X5604000Y-66544601D01*
X6229688Y-66420143D01*
X6704004Y-66103215D01*
X7178321Y-66420143D01*
X7804008Y-66544600D01*
X8429695Y-66420143D01*
X8960128Y-66065720D01*
X9314551Y-65535287D01*
X9439008Y-64909600D01*
X9439008Y-60927748D01*
X9314551Y-60302061D01*
X8960128Y-59771628D01*
X8960125Y-59771626D01*
X5419980Y-56231480D01*
X4889548Y-55877057D01*
X4511665Y-55801891D01*
X16274084Y-55796914D01*
X16030799Y-56040199D01*
X15886329Y-56256414D01*
X15845965Y-56229443D01*
X15598200Y-56180160D01*
X14998200Y-56180160D01*
X14750435Y-56229443D01*
X14663200Y-56287732D01*
X14575965Y-56229443D01*
X14328200Y-56180160D01*
X13728200Y-56180160D01*
X13480435Y-56229443D01*
X13270391Y-56369791D01*
X13130043Y-56579835D01*
X13080760Y-56827600D01*
X13080760Y-58327600D01*
X13130043Y-58575365D01*
X13268200Y-58782130D01*
X13268200Y-58946551D01*
X13253043Y-58969235D01*
X13203760Y-59217000D01*
X13203760Y-60417000D01*
X13253043Y-60664765D01*
X13393391Y-60874809D01*
X13541200Y-60973573D01*
X13541200Y-62405760D01*
X13503200Y-62405760D01*
X13255435Y-62455043D01*
X13045391Y-62595391D01*
X12905043Y-62805435D01*
X12855760Y-63053200D01*
X12855760Y-64353200D01*
X12905043Y-64600965D01*
X13045391Y-64811009D01*
X13255435Y-64951357D01*
X13420360Y-64984162D01*
X13420360Y-65871000D01*
X13469643Y-66118765D01*
X13609991Y-66328809D01*
X13707800Y-66394163D01*
X13707800Y-66746848D01*
X13486085Y-66838458D01*
X13194681Y-67129354D01*
X13036780Y-67509623D01*
X13036421Y-67921371D01*
X13193658Y-68301915D01*
X13484554Y-68593319D01*
X13864823Y-68751220D01*
X14276571Y-68751579D01*
X14657115Y-68594342D01*
X14948519Y-68303446D01*
X15106420Y-67923177D01*
X15106610Y-67705833D01*
X15169948Y-67611040D01*
X15194814Y-67486029D01*
X15227800Y-67320200D01*
X15227800Y-66394163D01*
X15325609Y-66328809D01*
X15417800Y-66190836D01*
X15509991Y-66328809D01*
X15607800Y-66394163D01*
X15607800Y-67269400D01*
X15665652Y-67560239D01*
X15779787Y-67731054D01*
X15779621Y-67921371D01*
X15936858Y-68301915D01*
X16227754Y-68593319D01*
X16608023Y-68751220D01*
X17019771Y-68751579D01*
X17100457Y-68718240D01*
X17100421Y-68759571D01*
X17257658Y-69140115D01*
X17548554Y-69431519D01*
X17928823Y-69589420D01*
X18340571Y-69589779D01*
X18721115Y-69432542D01*
X19012519Y-69141646D01*
X19170420Y-68761377D01*
X19170779Y-68349629D01*
X19013542Y-67969085D01*
X18743200Y-67698271D01*
X18743200Y-61442400D01*
X18745765Y-61439835D01*
X18770291Y-61439856D01*
X18893599Y-61624401D01*
X20855400Y-63586202D01*
X20855400Y-68575849D01*
X20738481Y-68692564D01*
X20580580Y-69072833D01*
X20580221Y-69484581D01*
X20737458Y-69865125D01*
X21028354Y-70156529D01*
X21408623Y-70314430D01*
X21820371Y-70314789D01*
X22200915Y-70157552D01*
X22492319Y-69866656D01*
X22650220Y-69486387D01*
X22650579Y-69074639D01*
X22493342Y-68694095D01*
X22375400Y-68575947D01*
X22375400Y-63271400D01*
X22317548Y-62980561D01*
X22152801Y-62733999D01*
X20721071Y-61302269D01*
X20766925Y-61283323D01*
X21058329Y-60992427D01*
X21123515Y-60835440D01*
X22410800Y-60835440D01*
X22658565Y-60786157D01*
X22868609Y-60645809D01*
X23008957Y-60435765D01*
X23058240Y-60188000D01*
X23058240Y-58938000D01*
X23008957Y-58690235D01*
X22868609Y-58480191D01*
X22658565Y-58339843D01*
X22410800Y-58290560D01*
X21325640Y-58290560D01*
X21325640Y-56827600D01*
X21318638Y-56792400D01*
X25634800Y-56792400D01*
X25634800Y-56966240D01*
X25497035Y-56993643D01*
X25286991Y-57133991D01*
X25146643Y-57344035D01*
X25097360Y-57591800D01*
X25097360Y-59091800D01*
X25146643Y-59339565D01*
X25286991Y-59549609D01*
X25497035Y-59689957D01*
X25506300Y-59691800D01*
X25497035Y-59693643D01*
X25286991Y-59833991D01*
X25146643Y-60044035D01*
X25097360Y-60291800D01*
X25097360Y-61791800D01*
X25146643Y-62039565D01*
X25286991Y-62249609D01*
X25497035Y-62389957D01*
X25744800Y-62439240D01*
X27044800Y-62439240D01*
X27292565Y-62389957D01*
X27502609Y-62249609D01*
X27624043Y-62067872D01*
X27631623Y-62071020D01*
X28043371Y-62071379D01*
X28423915Y-61914142D01*
X28715319Y-61623246D01*
X28873220Y-61242977D01*
X28873579Y-60831229D01*
X28716342Y-60450685D01*
X28425446Y-60159281D01*
X28045177Y-60001380D01*
X27633429Y-60001021D01*
X27618373Y-60007242D01*
X27502609Y-59833991D01*
X27292565Y-59693643D01*
X27283300Y-59691800D01*
X27292565Y-59689957D01*
X27502609Y-59549609D01*
X27642957Y-59339565D01*
X27692240Y-59091800D01*
X27692240Y-57591800D01*
X27642957Y-57344035D01*
X27502609Y-57133991D01*
X27292565Y-56993643D01*
X27154800Y-56966240D01*
X27154800Y-56792400D01*
X29683531Y-56792400D01*
X29575191Y-56864791D01*
X29434843Y-57074835D01*
X29385560Y-57322600D01*
X29385560Y-59227600D01*
X29434843Y-59475365D01*
X29575191Y-59685409D01*
X29593000Y-59697309D01*
X29593000Y-65285439D01*
X29476081Y-65402154D01*
X29318180Y-65782423D01*
X29317976Y-66016600D01*
X28625800Y-66016600D01*
X28334961Y-66074452D01*
X28088399Y-66239199D01*
X27628989Y-66698609D01*
X27587977Y-66681580D01*
X27176229Y-66681221D01*
X26795685Y-66838458D01*
X26504281Y-67129354D01*
X26346380Y-67509623D01*
X26346307Y-67593876D01*
X26084485Y-67702058D01*
X25793081Y-67992954D01*
X25635180Y-68373223D01*
X25634821Y-68784971D01*
X25792058Y-69165515D01*
X26082954Y-69456919D01*
X26463223Y-69614820D01*
X26874971Y-69615179D01*
X27255515Y-69457942D01*
X27373663Y-69340000D01*
X34932439Y-69340000D01*
X35049154Y-69456919D01*
X35429423Y-69614820D01*
X35841171Y-69615179D01*
X36221715Y-69457942D01*
X36513119Y-69167046D01*
X36671020Y-68786777D01*
X36671379Y-68375029D01*
X36514142Y-67994485D01*
X36223246Y-67703081D01*
X35909303Y-67572721D01*
X35909379Y-67486029D01*
X35752142Y-67105485D01*
X35461246Y-66814081D01*
X35080977Y-66656180D01*
X34914036Y-66656034D01*
X34497201Y-66239199D01*
X34250639Y-66074452D01*
X33959800Y-66016600D01*
X32632599Y-66016600D01*
X32632779Y-65809629D01*
X32475542Y-65429085D01*
X32383000Y-65336381D01*
X32383000Y-62021311D01*
X32686223Y-62147220D01*
X33097971Y-62147579D01*
X33478515Y-61990342D01*
X33769919Y-61699446D01*
X33927820Y-61319177D01*
X33928179Y-60907429D01*
X33770942Y-60526885D01*
X33653000Y-60408737D01*
X33653000Y-59697309D01*
X33670809Y-59685409D01*
X33811157Y-59475365D01*
X33860440Y-59227600D01*
X33860440Y-57322600D01*
X33811157Y-57074835D01*
X33670809Y-56864791D01*
X33562469Y-56792400D01*
X35686593Y-56792400D01*
X35568200Y-57387600D01*
X35692657Y-58013287D01*
X36047080Y-58543720D01*
X36152989Y-58614486D01*
X35995391Y-58719791D01*
X35855043Y-58929835D01*
X35818493Y-59113585D01*
X35692657Y-59301913D01*
X35568200Y-59927600D01*
X35568200Y-62421995D01*
X35568199Y-62422000D01*
X35692657Y-63047688D01*
X36047080Y-63578120D01*
X38610881Y-66141920D01*
X39141313Y-66496343D01*
X39767000Y-66620801D01*
X40392688Y-66496343D01*
X40867004Y-66179415D01*
X41341321Y-66496343D01*
X41967008Y-66620800D01*
X42592695Y-66496343D01*
X43123128Y-66141920D01*
X43477551Y-65611487D01*
X43602008Y-64985800D01*
X43602008Y-61090748D01*
X43582031Y-60990315D01*
X43477551Y-60465060D01*
X43300290Y-60199771D01*
X43123128Y-59934628D01*
X43123125Y-59934626D01*
X39980900Y-56792400D01*
X47087762Y-56792400D01*
X47080760Y-56827600D01*
X47080760Y-58327600D01*
X47130043Y-58575365D01*
X47268200Y-58782130D01*
X47268200Y-59226421D01*
X47239760Y-59369400D01*
X47239760Y-60569400D01*
X47289043Y-60817165D01*
X47427600Y-61024529D01*
X47427600Y-62153749D01*
X47189835Y-62201043D01*
X46979791Y-62341391D01*
X46839443Y-62551435D01*
X46790160Y-62799200D01*
X46790160Y-64099200D01*
X46839443Y-64346965D01*
X46979791Y-64557009D01*
X47189835Y-64697357D01*
X47202360Y-64699848D01*
X47202360Y-65591600D01*
X47251643Y-65839365D01*
X47391991Y-66049409D01*
X47489800Y-66114763D01*
X47489800Y-66496163D01*
X47242685Y-66598268D01*
X46951281Y-66889164D01*
X46793380Y-67269433D01*
X46793021Y-67681181D01*
X46950258Y-68061725D01*
X47241154Y-68353129D01*
X47621423Y-68511030D01*
X48033171Y-68511389D01*
X48413715Y-68354152D01*
X48705119Y-68063256D01*
X48863020Y-67682987D01*
X48863198Y-67478273D01*
X48951948Y-67345450D01*
X48969456Y-67257429D01*
X49009800Y-67054610D01*
X49009800Y-66114763D01*
X49107609Y-66049409D01*
X49199800Y-65911436D01*
X49291991Y-66049409D01*
X49389800Y-66114763D01*
X49389800Y-67015400D01*
X49447652Y-67306239D01*
X49536398Y-67439057D01*
X49536221Y-67641971D01*
X49693458Y-68022515D01*
X49984354Y-68313919D01*
X50364623Y-68471820D01*
X50776371Y-68472179D01*
X51061747Y-68354265D01*
X51406023Y-68497220D01*
X51817771Y-68497579D01*
X52198315Y-68340342D01*
X52489719Y-68049446D01*
X52647620Y-67669177D01*
X52647979Y-67257429D01*
X52490742Y-66876885D01*
X52397200Y-66783180D01*
X52397200Y-61125973D01*
X52442596Y-61095640D01*
X52650623Y-61182020D01*
X53062371Y-61182379D01*
X53442915Y-61025142D01*
X53530397Y-60937812D01*
X53616554Y-61024119D01*
X53996823Y-61182020D01*
X54408571Y-61182379D01*
X54789115Y-61025142D01*
X54907263Y-60907200D01*
X55392000Y-60907200D01*
X55682839Y-60849348D01*
X55741668Y-60810040D01*
X56510174Y-60810040D01*
X56515000Y-60811000D01*
X56519826Y-60810040D01*
X56751600Y-60810040D01*
X56999365Y-60760757D01*
X57209409Y-60620409D01*
X57349757Y-60410365D01*
X57399040Y-60162600D01*
X57399040Y-58912600D01*
X57349757Y-58664835D01*
X57209409Y-58454791D01*
X56999365Y-58314443D01*
X56751600Y-58265160D01*
X55325640Y-58265160D01*
X55325640Y-56827600D01*
X55276357Y-56579835D01*
X55136009Y-56369791D01*
X54925965Y-56229443D01*
X54678200Y-56180160D01*
X54078200Y-56180160D01*
X53830435Y-56229443D01*
X53743200Y-56287732D01*
X53655965Y-56229443D01*
X53408200Y-56180160D01*
X52808200Y-56180160D01*
X52560435Y-56229443D01*
X52473200Y-56287732D01*
X52385965Y-56229443D01*
X52138200Y-56180160D01*
X51538200Y-56180160D01*
X51290435Y-56229443D01*
X51203200Y-56287732D01*
X51115965Y-56229443D01*
X50868200Y-56180160D01*
X50695562Y-56180160D01*
X50297921Y-55782519D01*
X59265000Y-55778725D01*
X59265000Y-92927610D01*
X59265000Y-92927610D01*
G37*
X59265000Y-92927610D02*
X58927043Y-94626634D01*
X58005629Y-96005629D01*
X56626634Y-96927043D01*
X54927610Y-97265000D01*
X5072390Y-97265000D01*
X3373366Y-96927043D01*
X1994371Y-96005629D01*
X1072957Y-94626634D01*
X865648Y-93584419D01*
X2184213Y-93584419D01*
X2523755Y-94406172D01*
X3151921Y-95035436D01*
X3973081Y-95376411D01*
X4862219Y-95377187D01*
X5683972Y-95037645D01*
X6313236Y-94409479D01*
X6654211Y-93588319D01*
X6654987Y-92699181D01*
X6315445Y-91877428D01*
X5687279Y-91248164D01*
X4866119Y-90907189D01*
X3976981Y-90906413D01*
X3155228Y-91245955D01*
X2525964Y-91874121D01*
X2184989Y-92695281D01*
X2184213Y-93584419D01*
X865648Y-93584419D01*
X735000Y-92927610D01*
X735000Y-90754200D01*
X9761891Y-90754200D01*
X9886348Y-91379887D01*
X10240771Y-91910320D01*
X10411205Y-92024200D01*
X10240771Y-92138080D01*
X9886348Y-92668513D01*
X9761891Y-93294200D01*
X9886348Y-93919887D01*
X10240771Y-94450320D01*
X10771204Y-94804743D01*
X11396891Y-94929200D01*
X12072709Y-94929200D01*
X12698396Y-94804743D01*
X13228829Y-94450320D01*
X13583252Y-93919887D01*
X13707709Y-93294200D01*
X13583252Y-92668513D01*
X13228829Y-92138080D01*
X13058395Y-92024200D01*
X13228829Y-91910320D01*
X13583252Y-91379887D01*
X13707709Y-90754200D01*
X13583252Y-90128513D01*
X13344398Y-89771041D01*
X13492609Y-89672009D01*
X13632957Y-89461965D01*
X13682240Y-89214200D01*
X13682240Y-87214200D01*
X13632957Y-86966435D01*
X13492609Y-86756391D01*
X13282565Y-86616043D01*
X13034800Y-86566760D01*
X10434800Y-86566760D01*
X10187035Y-86616043D01*
X9976991Y-86756391D01*
X9836643Y-86966435D01*
X9787360Y-87214200D01*
X9787360Y-89214200D01*
X9836643Y-89461965D01*
X9976991Y-89672009D01*
X10125202Y-89771041D01*
X9886348Y-90128513D01*
X9761891Y-90754200D01*
X735000Y-90754200D01*
X735000Y-72284600D01*
X3968999Y-72284600D01*
X4093457Y-72910288D01*
X4447880Y-73440720D01*
X5543880Y-74536720D01*
X6074312Y-74891143D01*
X6700000Y-75015601D01*
X6700005Y-75015600D01*
X38132000Y-75015600D01*
X38132000Y-77495395D01*
X38131999Y-77495400D01*
X38132000Y-77495405D01*
X38132000Y-82003395D01*
X38131999Y-82003400D01*
X38256457Y-82629088D01*
X38610880Y-83159520D01*
X40347480Y-84896119D01*
X40372361Y-84912744D01*
X40395791Y-84947809D01*
X40605835Y-85088157D01*
X40615100Y-85090000D01*
X40605835Y-85091843D01*
X40395791Y-85232191D01*
X40372362Y-85267254D01*
X40347480Y-85283880D01*
X39993057Y-85814313D01*
X39868600Y-86440000D01*
X39868600Y-91218663D01*
X38704162Y-92383100D01*
X36347400Y-92383100D01*
X35721713Y-92507557D01*
X35191280Y-92861980D01*
X35014974Y-93125841D01*
X34649683Y-92759912D01*
X34621843Y-92748352D01*
X34647486Y-92737756D01*
X35065588Y-92320383D01*
X35292142Y-91774781D01*
X35292657Y-91184011D01*
X35067056Y-90638014D01*
X34649683Y-90219912D01*
X34104081Y-89993358D01*
X33513311Y-89992843D01*
X32967314Y-90218444D01*
X32549212Y-90635817D01*
X32322658Y-91181419D01*
X32322143Y-91772189D01*
X32547744Y-92318186D01*
X32965117Y-92736288D01*
X32992957Y-92747848D01*
X32967314Y-92758444D01*
X32549212Y-93175817D01*
X32537652Y-93203657D01*
X32527056Y-93178014D01*
X32109683Y-92759912D01*
X31564081Y-92533358D01*
X30973311Y-92532843D01*
X30427314Y-92758444D01*
X30009212Y-93175817D01*
X29997652Y-93203657D01*
X29987056Y-93178014D01*
X29569683Y-92759912D01*
X29541843Y-92748352D01*
X29567486Y-92737756D01*
X29985588Y-92320383D01*
X30212142Y-91774781D01*
X30212657Y-91184011D01*
X29987056Y-90638014D01*
X29569683Y-90219912D01*
X29024081Y-89993358D01*
X28433311Y-89992843D01*
X27887314Y-90218444D01*
X27469212Y-90635817D01*
X27457652Y-90663657D01*
X27447056Y-90638014D01*
X27029683Y-90219912D01*
X26484081Y-89993358D01*
X25893311Y-89992843D01*
X25347314Y-90218444D01*
X24929212Y-90635817D01*
X24917652Y-90663657D01*
X24907056Y-90638014D01*
X24489683Y-90219912D01*
X23944081Y-89993358D01*
X23353311Y-89992843D01*
X22807314Y-90218444D01*
X22389212Y-90635817D01*
X22377652Y-90663657D01*
X22367056Y-90638014D01*
X21949683Y-90219912D01*
X21404081Y-89993358D01*
X20813311Y-89992843D01*
X20267314Y-90218444D01*
X19886200Y-90598893D01*
X19886200Y-82483802D01*
X20701054Y-81668948D01*
X20863400Y-81701240D01*
X22363400Y-81701240D01*
X22611165Y-81651957D01*
X22821209Y-81511609D01*
X22961557Y-81301565D01*
X22963400Y-81292300D01*
X22965243Y-81301565D01*
X23105591Y-81511609D01*
X23315635Y-81651957D01*
X23563400Y-81701240D01*
X25063400Y-81701240D01*
X25311165Y-81651957D01*
X25521209Y-81511609D01*
X25575344Y-81430591D01*
X25625023Y-81451220D01*
X26036771Y-81451579D01*
X26417315Y-81294342D01*
X26708719Y-81003446D01*
X26866620Y-80623177D01*
X26866979Y-80211429D01*
X26709742Y-79830885D01*
X26418846Y-79539481D01*
X26038577Y-79381580D01*
X25626829Y-79381221D01*
X25588688Y-79396980D01*
X25521209Y-79295991D01*
X25311165Y-79155643D01*
X25063400Y-79106360D01*
X23563400Y-79106360D01*
X23315635Y-79155643D01*
X23105591Y-79295991D01*
X22965243Y-79506035D01*
X22963400Y-79515300D01*
X22961557Y-79506035D01*
X22821209Y-79295991D01*
X22611165Y-79155643D01*
X22596356Y-79152697D01*
X22650220Y-79022977D01*
X22650579Y-78611229D01*
X22493342Y-78230685D01*
X22202446Y-77939281D01*
X21822177Y-77781380D01*
X21410429Y-77781021D01*
X21029885Y-77938258D01*
X20738481Y-78229154D01*
X20580580Y-78609423D01*
X20580221Y-79021171D01*
X20634253Y-79151940D01*
X20615635Y-79155643D01*
X20405591Y-79295991D01*
X20265243Y-79506035D01*
X20215960Y-79753800D01*
X20215960Y-80004438D01*
X18588799Y-81631599D01*
X18581830Y-81642028D01*
X16854973Y-79915171D01*
X16679062Y-79797632D01*
X16630762Y-79554807D01*
X16490414Y-79344763D01*
X16314610Y-79227293D01*
X16325620Y-79200777D01*
X16325979Y-78789029D01*
X16168742Y-78408485D01*
X15877846Y-78117081D01*
X15497577Y-77959180D01*
X15085829Y-77958821D01*
X14705285Y-78116058D01*
X14413881Y-78406954D01*
X14255980Y-78787223D01*
X14255621Y-79198971D01*
X14263705Y-79218537D01*
X14074796Y-79344763D01*
X13934448Y-79554807D01*
X13932605Y-79564072D01*
X13930762Y-79554807D01*
X13790414Y-79344763D01*
X13580370Y-79204415D01*
X13332605Y-79155132D01*
X11832605Y-79155132D01*
X11584840Y-79204415D01*
X11374796Y-79344763D01*
X11310886Y-79440410D01*
X11230377Y-79406980D01*
X10818629Y-79406621D01*
X10438085Y-79563858D01*
X10146681Y-79854754D01*
X9988780Y-80235023D01*
X9988421Y-80646771D01*
X10145658Y-81027315D01*
X10436554Y-81318719D01*
X10816823Y-81476620D01*
X11228571Y-81476979D01*
X11299489Y-81447677D01*
X11374796Y-81560381D01*
X11584840Y-81700729D01*
X11832605Y-81750012D01*
X13332605Y-81750012D01*
X13580370Y-81700729D01*
X13790414Y-81560381D01*
X13930762Y-81350337D01*
X13932605Y-81341072D01*
X13934448Y-81350337D01*
X14074796Y-81560381D01*
X14284840Y-81700729D01*
X14532605Y-81750012D01*
X16032605Y-81750012D01*
X16280370Y-81700729D01*
X16406589Y-81616391D01*
X17337500Y-82547302D01*
X17337500Y-94566022D01*
X17395352Y-94856861D01*
X17560099Y-95103423D01*
X19056877Y-96600201D01*
X19303439Y-96764948D01*
X19594278Y-96822800D01*
X26543000Y-96822800D01*
X26833839Y-96764948D01*
X27080401Y-96600201D01*
X27994801Y-95685801D01*
X28159548Y-95439239D01*
X28168551Y-95393980D01*
X28430719Y-95502842D01*
X29021489Y-95503357D01*
X29567486Y-95277756D01*
X29985588Y-94860383D01*
X29997148Y-94832543D01*
X30007744Y-94858186D01*
X30425117Y-95276288D01*
X30526973Y-95318583D01*
X30565252Y-95511020D01*
X30729999Y-95757582D01*
X31115418Y-96143001D01*
X31361980Y-96307748D01*
X31652819Y-96365600D01*
X39712400Y-96365600D01*
X40003239Y-96307748D01*
X40249801Y-96143001D01*
X45070377Y-91322425D01*
X45175635Y-91392757D01*
X45423400Y-91442040D01*
X46923400Y-91442040D01*
X47171165Y-91392757D01*
X47381209Y-91252409D01*
X47521557Y-91042365D01*
X47523400Y-91033100D01*
X47525243Y-91042365D01*
X47665591Y-91252409D01*
X47875635Y-91392757D01*
X48113400Y-91440051D01*
X48113400Y-91595960D01*
X46883800Y-91595960D01*
X46636035Y-91645243D01*
X46425991Y-91785591D01*
X46285643Y-91995635D01*
X46236360Y-92243400D01*
X46236360Y-94243400D01*
X46285643Y-94491165D01*
X46425991Y-94701209D01*
X46636035Y-94841557D01*
X46883800Y-94890840D01*
X49483800Y-94890840D01*
X49731565Y-94841557D01*
X49941609Y-94701209D01*
X50081957Y-94491165D01*
X50131240Y-94243400D01*
X50131240Y-92243400D01*
X50081957Y-91995635D01*
X49941609Y-91785591D01*
X49731565Y-91645243D01*
X49633400Y-91625717D01*
X49633400Y-91440051D01*
X49871165Y-91392757D01*
X50081209Y-91252409D01*
X50221557Y-91042365D01*
X50270840Y-90794600D01*
X50270840Y-89494600D01*
X50229062Y-89284568D01*
X50492354Y-89548319D01*
X50872623Y-89706220D01*
X51265067Y-89706562D01*
X51364791Y-89855809D01*
X51574835Y-89996157D01*
X51822600Y-90045440D01*
X53322600Y-90045440D01*
X53570365Y-89996157D01*
X53780409Y-89855809D01*
X53920757Y-89645765D01*
X53970040Y-89398000D01*
X53970040Y-88148000D01*
X53920757Y-87900235D01*
X53871693Y-87826807D01*
X53946157Y-87715365D01*
X53995440Y-87467600D01*
X53995440Y-86217600D01*
X53946157Y-85969835D01*
X53863179Y-85845650D01*
X53946157Y-85721465D01*
X53995440Y-85473700D01*
X53995440Y-84223700D01*
X53946157Y-83975935D01*
X53805809Y-83765891D01*
X53595765Y-83625543D01*
X53348000Y-83576260D01*
X51848000Y-83576260D01*
X51600235Y-83625543D01*
X51390191Y-83765891D01*
X51335856Y-83847208D01*
X51286177Y-83826580D01*
X50874429Y-83826221D01*
X50493885Y-83983458D01*
X50202481Y-84274354D01*
X50044580Y-84654623D01*
X50044221Y-85066371D01*
X50201458Y-85446915D01*
X50492354Y-85738319D01*
X50723004Y-85834093D01*
X50468485Y-85939258D01*
X50177081Y-86230154D01*
X50170840Y-86245184D01*
X50170840Y-85709600D01*
X50121557Y-85461835D01*
X49981209Y-85251791D01*
X49771165Y-85111443D01*
X49523400Y-85062160D01*
X48023400Y-85062160D01*
X47775635Y-85111443D01*
X47565591Y-85251791D01*
X47425243Y-85461835D01*
X47375960Y-85709600D01*
X47375960Y-86959600D01*
X47422503Y-87193592D01*
X47381209Y-87131791D01*
X47171165Y-86991443D01*
X46923400Y-86942160D01*
X45423400Y-86942160D01*
X45175635Y-86991443D01*
X44965591Y-87131791D01*
X44893441Y-87239770D01*
X44809177Y-87204780D01*
X44397429Y-87204421D01*
X44016885Y-87361658D01*
X43725481Y-87652554D01*
X43567580Y-88032823D01*
X43567221Y-88444571D01*
X43724458Y-88825115D01*
X44015354Y-89116519D01*
X44395623Y-89274420D01*
X44807371Y-89274779D01*
X44820787Y-89269236D01*
X44775960Y-89494600D01*
X44775960Y-89513680D01*
X44635999Y-89607199D01*
X43138600Y-91104598D01*
X43138600Y-86440000D01*
X43014143Y-85814313D01*
X42659720Y-85283880D01*
X42634838Y-85267254D01*
X42611409Y-85232191D01*
X42401365Y-85091843D01*
X42392100Y-85090000D01*
X42401365Y-85088157D01*
X42611409Y-84947809D01*
X42634840Y-84912743D01*
X42659719Y-84896119D01*
X43014143Y-84365687D01*
X43138600Y-83740000D01*
X43014143Y-83114312D01*
X42659719Y-82583880D01*
X42618213Y-82542374D01*
X42611409Y-82532191D01*
X42601226Y-82525387D01*
X41736840Y-81661000D01*
X45397800Y-81661000D01*
X45397800Y-83661000D01*
X45484197Y-84095346D01*
X45730234Y-84463566D01*
X46098454Y-84709603D01*
X46532800Y-84796000D01*
X47035000Y-84796000D01*
X47469346Y-84709603D01*
X47837566Y-84463566D01*
X49015092Y-83286040D01*
X49757400Y-83286040D01*
X50005165Y-83236757D01*
X50215209Y-83096409D01*
X50355557Y-82886365D01*
X50404840Y-82638600D01*
X50404840Y-81438600D01*
X50355557Y-81190835D01*
X50215209Y-80980791D01*
X50005165Y-80840443D01*
X49757400Y-80791160D01*
X48981683Y-80791160D01*
X48913215Y-80745411D01*
X48714146Y-80612397D01*
X48279800Y-80526000D01*
X46532800Y-80526000D01*
X46098454Y-80612397D01*
X45730234Y-80858434D01*
X45484197Y-81226654D01*
X45397800Y-81661000D01*
X41736840Y-81661000D01*
X41402000Y-81326160D01*
X41402000Y-79113600D01*
X48657400Y-79113600D01*
X49283088Y-78989143D01*
X49434787Y-78887781D01*
X49676850Y-78726040D01*
X49757400Y-78726040D01*
X50005165Y-78676757D01*
X50215209Y-78536409D01*
X50355557Y-78326365D01*
X50404840Y-78078600D01*
X50404840Y-76878600D01*
X50355557Y-76630835D01*
X50215209Y-76420791D01*
X50005165Y-76280443D01*
X49889600Y-76257456D01*
X49889600Y-74368778D01*
X49953009Y-74326409D01*
X50093357Y-74116365D01*
X50142640Y-73868600D01*
X50142640Y-71368600D01*
X50093357Y-71120835D01*
X49953009Y-70910791D01*
X49742965Y-70770443D01*
X49495200Y-70721160D01*
X47495200Y-70721160D01*
X47247435Y-70770443D01*
X47037391Y-70910791D01*
X46897043Y-71120835D01*
X46847760Y-71368600D01*
X46847760Y-72078309D01*
X46744057Y-72233512D01*
X46619599Y-72859200D01*
X46619600Y-72859205D01*
X46619600Y-75843600D01*
X41402000Y-75843600D01*
X41402000Y-69735800D01*
X41277543Y-69110113D01*
X40923120Y-68579680D01*
X40392687Y-68225257D01*
X39767000Y-68100800D01*
X39141313Y-68225257D01*
X38610880Y-68579680D01*
X38256457Y-69110113D01*
X38132000Y-69735800D01*
X38132000Y-71745600D01*
X7377240Y-71745600D01*
X7239000Y-71607360D01*
X7239000Y-69659600D01*
X7114543Y-69033913D01*
X6760120Y-68503480D01*
X6229687Y-68149057D01*
X5604000Y-68024600D01*
X4978313Y-68149057D01*
X4447880Y-68503480D01*
X4093457Y-69033913D01*
X3969000Y-69659600D01*
X3969000Y-72284595D01*
X3968999Y-72284600D01*
X735000Y-72284600D01*
X735000Y-55803489D01*
X2952081Y-55802551D01*
X2577513Y-55877057D01*
X2047080Y-56231480D01*
X1692657Y-56761913D01*
X1568200Y-57387600D01*
X1692657Y-58013287D01*
X2047080Y-58543720D01*
X2152989Y-58614486D01*
X1995391Y-58719791D01*
X1855043Y-58929835D01*
X1818493Y-59113585D01*
X1692657Y-59301913D01*
X1568200Y-59927600D01*
X1568200Y-62508795D01*
X1568199Y-62508800D01*
X1692657Y-63134488D01*
X2047080Y-63664920D01*
X4447880Y-66065720D01*
X4978312Y-66420143D01*
X5604000Y-66544601D01*
X6229688Y-66420143D01*
X6704004Y-66103215D01*
X7178321Y-66420143D01*
X7804008Y-66544600D01*
X8429695Y-66420143D01*
X8960128Y-66065720D01*
X9314551Y-65535287D01*
X9439008Y-64909600D01*
X9439008Y-60927748D01*
X9314551Y-60302061D01*
X8960128Y-59771628D01*
X8960125Y-59771626D01*
X5419980Y-56231480D01*
X4889548Y-55877057D01*
X4511665Y-55801891D01*
X16274084Y-55796914D01*
X16030799Y-56040199D01*
X15886329Y-56256414D01*
X15845965Y-56229443D01*
X15598200Y-56180160D01*
X14998200Y-56180160D01*
X14750435Y-56229443D01*
X14663200Y-56287732D01*
X14575965Y-56229443D01*
X14328200Y-56180160D01*
X13728200Y-56180160D01*
X13480435Y-56229443D01*
X13270391Y-56369791D01*
X13130043Y-56579835D01*
X13080760Y-56827600D01*
X13080760Y-58327600D01*
X13130043Y-58575365D01*
X13268200Y-58782130D01*
X13268200Y-58946551D01*
X13253043Y-58969235D01*
X13203760Y-59217000D01*
X13203760Y-60417000D01*
X13253043Y-60664765D01*
X13393391Y-60874809D01*
X13541200Y-60973573D01*
X13541200Y-62405760D01*
X13503200Y-62405760D01*
X13255435Y-62455043D01*
X13045391Y-62595391D01*
X12905043Y-62805435D01*
X12855760Y-63053200D01*
X12855760Y-64353200D01*
X12905043Y-64600965D01*
X13045391Y-64811009D01*
X13255435Y-64951357D01*
X13420360Y-64984162D01*
X13420360Y-65871000D01*
X13469643Y-66118765D01*
X13609991Y-66328809D01*
X13707800Y-66394163D01*
X13707800Y-66746848D01*
X13486085Y-66838458D01*
X13194681Y-67129354D01*
X13036780Y-67509623D01*
X13036421Y-67921371D01*
X13193658Y-68301915D01*
X13484554Y-68593319D01*
X13864823Y-68751220D01*
X14276571Y-68751579D01*
X14657115Y-68594342D01*
X14948519Y-68303446D01*
X15106420Y-67923177D01*
X15106610Y-67705833D01*
X15169948Y-67611040D01*
X15194814Y-67486029D01*
X15227800Y-67320200D01*
X15227800Y-66394163D01*
X15325609Y-66328809D01*
X15417800Y-66190836D01*
X15509991Y-66328809D01*
X15607800Y-66394163D01*
X15607800Y-67269400D01*
X15665652Y-67560239D01*
X15779787Y-67731054D01*
X15779621Y-67921371D01*
X15936858Y-68301915D01*
X16227754Y-68593319D01*
X16608023Y-68751220D01*
X17019771Y-68751579D01*
X17100457Y-68718240D01*
X17100421Y-68759571D01*
X17257658Y-69140115D01*
X17548554Y-69431519D01*
X17928823Y-69589420D01*
X18340571Y-69589779D01*
X18721115Y-69432542D01*
X19012519Y-69141646D01*
X19170420Y-68761377D01*
X19170779Y-68349629D01*
X19013542Y-67969085D01*
X18743200Y-67698271D01*
X18743200Y-61442400D01*
X18745765Y-61439835D01*
X18770291Y-61439856D01*
X18893599Y-61624401D01*
X20855400Y-63586202D01*
X20855400Y-68575849D01*
X20738481Y-68692564D01*
X20580580Y-69072833D01*
X20580221Y-69484581D01*
X20737458Y-69865125D01*
X21028354Y-70156529D01*
X21408623Y-70314430D01*
X21820371Y-70314789D01*
X22200915Y-70157552D01*
X22492319Y-69866656D01*
X22650220Y-69486387D01*
X22650579Y-69074639D01*
X22493342Y-68694095D01*
X22375400Y-68575947D01*
X22375400Y-63271400D01*
X22317548Y-62980561D01*
X22152801Y-62733999D01*
X20721071Y-61302269D01*
X20766925Y-61283323D01*
X21058329Y-60992427D01*
X21123515Y-60835440D01*
X22410800Y-60835440D01*
X22658565Y-60786157D01*
X22868609Y-60645809D01*
X23008957Y-60435765D01*
X23058240Y-60188000D01*
X23058240Y-58938000D01*
X23008957Y-58690235D01*
X22868609Y-58480191D01*
X22658565Y-58339843D01*
X22410800Y-58290560D01*
X21325640Y-58290560D01*
X21325640Y-56827600D01*
X21318638Y-56792400D01*
X25634800Y-56792400D01*
X25634800Y-56966240D01*
X25497035Y-56993643D01*
X25286991Y-57133991D01*
X25146643Y-57344035D01*
X25097360Y-57591800D01*
X25097360Y-59091800D01*
X25146643Y-59339565D01*
X25286991Y-59549609D01*
X25497035Y-59689957D01*
X25506300Y-59691800D01*
X25497035Y-59693643D01*
X25286991Y-59833991D01*
X25146643Y-60044035D01*
X25097360Y-60291800D01*
X25097360Y-61791800D01*
X25146643Y-62039565D01*
X25286991Y-62249609D01*
X25497035Y-62389957D01*
X25744800Y-62439240D01*
X27044800Y-62439240D01*
X27292565Y-62389957D01*
X27502609Y-62249609D01*
X27624043Y-62067872D01*
X27631623Y-62071020D01*
X28043371Y-62071379D01*
X28423915Y-61914142D01*
X28715319Y-61623246D01*
X28873220Y-61242977D01*
X28873579Y-60831229D01*
X28716342Y-60450685D01*
X28425446Y-60159281D01*
X28045177Y-60001380D01*
X27633429Y-60001021D01*
X27618373Y-60007242D01*
X27502609Y-59833991D01*
X27292565Y-59693643D01*
X27283300Y-59691800D01*
X27292565Y-59689957D01*
X27502609Y-59549609D01*
X27642957Y-59339565D01*
X27692240Y-59091800D01*
X27692240Y-57591800D01*
X27642957Y-57344035D01*
X27502609Y-57133991D01*
X27292565Y-56993643D01*
X27154800Y-56966240D01*
X27154800Y-56792400D01*
X29683531Y-56792400D01*
X29575191Y-56864791D01*
X29434843Y-57074835D01*
X29385560Y-57322600D01*
X29385560Y-59227600D01*
X29434843Y-59475365D01*
X29575191Y-59685409D01*
X29593000Y-59697309D01*
X29593000Y-65285439D01*
X29476081Y-65402154D01*
X29318180Y-65782423D01*
X29317976Y-66016600D01*
X28625800Y-66016600D01*
X28334961Y-66074452D01*
X28088399Y-66239199D01*
X27628989Y-66698609D01*
X27587977Y-66681580D01*
X27176229Y-66681221D01*
X26795685Y-66838458D01*
X26504281Y-67129354D01*
X26346380Y-67509623D01*
X26346307Y-67593876D01*
X26084485Y-67702058D01*
X25793081Y-67992954D01*
X25635180Y-68373223D01*
X25634821Y-68784971D01*
X25792058Y-69165515D01*
X26082954Y-69456919D01*
X26463223Y-69614820D01*
X26874971Y-69615179D01*
X27255515Y-69457942D01*
X27373663Y-69340000D01*
X34932439Y-69340000D01*
X35049154Y-69456919D01*
X35429423Y-69614820D01*
X35841171Y-69615179D01*
X36221715Y-69457942D01*
X36513119Y-69167046D01*
X36671020Y-68786777D01*
X36671379Y-68375029D01*
X36514142Y-67994485D01*
X36223246Y-67703081D01*
X35909303Y-67572721D01*
X35909379Y-67486029D01*
X35752142Y-67105485D01*
X35461246Y-66814081D01*
X35080977Y-66656180D01*
X34914036Y-66656034D01*
X34497201Y-66239199D01*
X34250639Y-66074452D01*
X33959800Y-66016600D01*
X32632599Y-66016600D01*
X32632779Y-65809629D01*
X32475542Y-65429085D01*
X32383000Y-65336381D01*
X32383000Y-62021311D01*
X32686223Y-62147220D01*
X33097971Y-62147579D01*
X33478515Y-61990342D01*
X33769919Y-61699446D01*
X33927820Y-61319177D01*
X33928179Y-60907429D01*
X33770942Y-60526885D01*
X33653000Y-60408737D01*
X33653000Y-59697309D01*
X33670809Y-59685409D01*
X33811157Y-59475365D01*
X33860440Y-59227600D01*
X33860440Y-57322600D01*
X33811157Y-57074835D01*
X33670809Y-56864791D01*
X33562469Y-56792400D01*
X35686593Y-56792400D01*
X35568200Y-57387600D01*
X35692657Y-58013287D01*
X36047080Y-58543720D01*
X36152989Y-58614486D01*
X35995391Y-58719791D01*
X35855043Y-58929835D01*
X35818493Y-59113585D01*
X35692657Y-59301913D01*
X35568200Y-59927600D01*
X35568200Y-62421995D01*
X35568199Y-62422000D01*
X35692657Y-63047688D01*
X36047080Y-63578120D01*
X38610881Y-66141920D01*
X39141313Y-66496343D01*
X39767000Y-66620801D01*
X40392688Y-66496343D01*
X40867004Y-66179415D01*
X41341321Y-66496343D01*
X41967008Y-66620800D01*
X42592695Y-66496343D01*
X43123128Y-66141920D01*
X43477551Y-65611487D01*
X43602008Y-64985800D01*
X43602008Y-61090748D01*
X43582031Y-60990315D01*
X43477551Y-60465060D01*
X43300290Y-60199771D01*
X43123128Y-59934628D01*
X43123125Y-59934626D01*
X39980900Y-56792400D01*
X47087762Y-56792400D01*
X47080760Y-56827600D01*
X47080760Y-58327600D01*
X47130043Y-58575365D01*
X47268200Y-58782130D01*
X47268200Y-59226421D01*
X47239760Y-59369400D01*
X47239760Y-60569400D01*
X47289043Y-60817165D01*
X47427600Y-61024529D01*
X47427600Y-62153749D01*
X47189835Y-62201043D01*
X46979791Y-62341391D01*
X46839443Y-62551435D01*
X46790160Y-62799200D01*
X46790160Y-64099200D01*
X46839443Y-64346965D01*
X46979791Y-64557009D01*
X47189835Y-64697357D01*
X47202360Y-64699848D01*
X47202360Y-65591600D01*
X47251643Y-65839365D01*
X47391991Y-66049409D01*
X47489800Y-66114763D01*
X47489800Y-66496163D01*
X47242685Y-66598268D01*
X46951281Y-66889164D01*
X46793380Y-67269433D01*
X46793021Y-67681181D01*
X46950258Y-68061725D01*
X47241154Y-68353129D01*
X47621423Y-68511030D01*
X48033171Y-68511389D01*
X48413715Y-68354152D01*
X48705119Y-68063256D01*
X48863020Y-67682987D01*
X48863198Y-67478273D01*
X48951948Y-67345450D01*
X48969456Y-67257429D01*
X49009800Y-67054610D01*
X49009800Y-66114763D01*
X49107609Y-66049409D01*
X49199800Y-65911436D01*
X49291991Y-66049409D01*
X49389800Y-66114763D01*
X49389800Y-67015400D01*
X49447652Y-67306239D01*
X49536398Y-67439057D01*
X49536221Y-67641971D01*
X49693458Y-68022515D01*
X49984354Y-68313919D01*
X50364623Y-68471820D01*
X50776371Y-68472179D01*
X51061747Y-68354265D01*
X51406023Y-68497220D01*
X51817771Y-68497579D01*
X52198315Y-68340342D01*
X52489719Y-68049446D01*
X52647620Y-67669177D01*
X52647979Y-67257429D01*
X52490742Y-66876885D01*
X52397200Y-66783180D01*
X52397200Y-61125973D01*
X52442596Y-61095640D01*
X52650623Y-61182020D01*
X53062371Y-61182379D01*
X53442915Y-61025142D01*
X53530397Y-60937812D01*
X53616554Y-61024119D01*
X53996823Y-61182020D01*
X54408571Y-61182379D01*
X54789115Y-61025142D01*
X54907263Y-60907200D01*
X55392000Y-60907200D01*
X55682839Y-60849348D01*
X55741668Y-60810040D01*
X56510174Y-60810040D01*
X56515000Y-60811000D01*
X56519826Y-60810040D01*
X56751600Y-60810040D01*
X56999365Y-60760757D01*
X57209409Y-60620409D01*
X57349757Y-60410365D01*
X57399040Y-60162600D01*
X57399040Y-58912600D01*
X57349757Y-58664835D01*
X57209409Y-58454791D01*
X56999365Y-58314443D01*
X56751600Y-58265160D01*
X55325640Y-58265160D01*
X55325640Y-56827600D01*
X55276357Y-56579835D01*
X55136009Y-56369791D01*
X54925965Y-56229443D01*
X54678200Y-56180160D01*
X54078200Y-56180160D01*
X53830435Y-56229443D01*
X53743200Y-56287732D01*
X53655965Y-56229443D01*
X53408200Y-56180160D01*
X52808200Y-56180160D01*
X52560435Y-56229443D01*
X52473200Y-56287732D01*
X52385965Y-56229443D01*
X52138200Y-56180160D01*
X51538200Y-56180160D01*
X51290435Y-56229443D01*
X51203200Y-56287732D01*
X51115965Y-56229443D01*
X50868200Y-56180160D01*
X50695562Y-56180160D01*
X50297921Y-55782519D01*
X59265000Y-55778725D01*
X59265000Y-92927610D01*
M02*
