G04 #@! TF.GenerationSoftware,KiCad,Pcbnew,no-vcs-found-e062780~61~ubuntu17.10.1*
G04 #@! TF.CreationDate,2018-01-03T14:28:22-05:00*
G04 #@! TF.ProjectId,ENNOID Dual Gate Driver,454E4E4F4944204475616C2047617465,rev?*
G04 #@! TF.SameCoordinates,Original*
G04 #@! TF.FileFunction,Soldermask,Bot*
G04 #@! TF.FilePolarity,Negative*
%FSLAX46Y46*%
G04 Gerber Fmt 4.6, Leading zero omitted, Abs format (unit mm)*
G04 Created by KiCad (PCBNEW no-vcs-found-e062780~61~ubuntu17.10.1) date Wed Jan  3 14:28:22 2018*
%MOMM*%
%LPD*%
G01*
G04 APERTURE LIST*
%ADD10C,6.100000*%
%ADD11C,2.100000*%
%ADD12R,2.100000X2.100000*%
%ADD13R,1.900000X1.650000*%
%ADD14R,1.900000X1.700000*%
%ADD15R,1.650000X1.900000*%
%ADD16R,2.400000X2.000000*%
%ADD17O,3.000000X2.400000*%
%ADD18R,3.000000X2.400000*%
%ADD19R,1.700000X1.900000*%
%ADD20R,1.300000X1.200000*%
%ADD21R,3.900000X2.200000*%
%ADD22C,3.400000*%
%ADD23O,1.900000X1.900000*%
%ADD24R,1.900000X1.900000*%
%ADD25R,2.200000X3.900000*%
%ADD26R,2.600000X2.600000*%
%ADD27O,2.600000X2.600000*%
G04 APERTURE END LIST*
D10*
X55000000Y-93000000D03*
D11*
X38887400Y-91478100D03*
X38887400Y-94018100D03*
X36347400Y-91478100D03*
X36347400Y-94018100D03*
X33807400Y-91478100D03*
X33807400Y-94018100D03*
X31267400Y-91478100D03*
X31267400Y-94018100D03*
X28727400Y-91478100D03*
X28727400Y-94018100D03*
X26187400Y-91478100D03*
X26187400Y-94018100D03*
X23647400Y-91478100D03*
X23647400Y-94018100D03*
X21107400Y-91478100D03*
D12*
X21107400Y-94018100D03*
D13*
X30246000Y-89128600D03*
X32746000Y-89128600D03*
D14*
X24311600Y-80416400D03*
X21611600Y-80416400D03*
D15*
X5283200Y-59898600D03*
X5283200Y-57398600D03*
X7213600Y-57398600D03*
X7213600Y-59898600D03*
X5359400Y-45026900D03*
X5359400Y-42526900D03*
X5359400Y-47264000D03*
X5359400Y-49764000D03*
X39293800Y-59924000D03*
X39293800Y-57424000D03*
X41173400Y-57424000D03*
X41173400Y-59924000D03*
X39370000Y-44728400D03*
X39370000Y-42228400D03*
X39370000Y-47228400D03*
X39370000Y-49728400D03*
D13*
X15194600Y-57708800D03*
X12694600Y-57708800D03*
X21671600Y-57683400D03*
X19171600Y-57683400D03*
X21305200Y-41351200D03*
X23805200Y-41351200D03*
X23817466Y-44999107D03*
X21317466Y-44999107D03*
X16758600Y-28549600D03*
X19258600Y-28549600D03*
X46705200Y-57708800D03*
X49205200Y-57708800D03*
X53233000Y-57683400D03*
X55733000Y-57683400D03*
X12832400Y-28524200D03*
X10332400Y-28524200D03*
X16758600Y-30454600D03*
X19258600Y-30454600D03*
D16*
X13422146Y-24178672D03*
X9422146Y-24178672D03*
D13*
X18739800Y-13233400D03*
X21239800Y-13233400D03*
X32212600Y-57708800D03*
X29712600Y-57708800D03*
X29636400Y-59537600D03*
X32136400Y-59537600D03*
X34818000Y-89128600D03*
X37318000Y-89128600D03*
D17*
X11734800Y-95834200D03*
X11734800Y-93294200D03*
X11734800Y-90754200D03*
D18*
X11734800Y-88214200D03*
D17*
X48183800Y-95783400D03*
D18*
X48183800Y-93243400D03*
D19*
X2286000Y-23465800D03*
X2286000Y-26165800D03*
D14*
X15284405Y-80452572D03*
X12584405Y-80452572D03*
D19*
X51739800Y-36648400D03*
X51739800Y-39348400D03*
X30000000Y-21136600D03*
X30000000Y-18436600D03*
X34747200Y-41550600D03*
X34747200Y-44250600D03*
X30000000Y-23211800D03*
X30000000Y-25911800D03*
D13*
X32238000Y-47548800D03*
X29738000Y-47548800D03*
D20*
X32775400Y-38531800D03*
X30775400Y-37581800D03*
X30775400Y-39481800D03*
D21*
X22337400Y-10464800D03*
X17337400Y-10464800D03*
D19*
X25374600Y-61014600D03*
X25374600Y-58314600D03*
D22*
X22500000Y-6830000D03*
X22500000Y-3170000D03*
X2500000Y-5170000D03*
X2500000Y-8830000D03*
X16500000Y-6830000D03*
X16500000Y-3170000D03*
X43500000Y-6830000D03*
X43500000Y-3170000D03*
X37500000Y-3170000D03*
X37500000Y-6830000D03*
D23*
X3203200Y-44687600D03*
X3203200Y-47227600D03*
X3203200Y-49767600D03*
X3203200Y-57387600D03*
D24*
X3203200Y-59927600D03*
D23*
X37203200Y-44687600D03*
X37203200Y-47227600D03*
X37203200Y-49767600D03*
X37203200Y-57387600D03*
D24*
X37203200Y-59927600D03*
D13*
X21317466Y-43170307D03*
X23817466Y-43170307D03*
X10307000Y-30429200D03*
X12807000Y-30429200D03*
D16*
X13404600Y-26416000D03*
X9404600Y-26416000D03*
X20061495Y-24157873D03*
X16061495Y-24157873D03*
X16059400Y-26390600D03*
X20059400Y-26390600D03*
D13*
X54985600Y-41605200D03*
X57485600Y-41605200D03*
X57485600Y-45237400D03*
X54985600Y-45237400D03*
X54985600Y-43434000D03*
X57485600Y-43434000D03*
X49078200Y-30302200D03*
X46578200Y-30302200D03*
X55352000Y-30124400D03*
X52852000Y-30124400D03*
X46552800Y-28346400D03*
X49052800Y-28346400D03*
X52877400Y-28270200D03*
X55377400Y-28270200D03*
D16*
X49523400Y-23952200D03*
X45523400Y-23952200D03*
X52103607Y-26243553D03*
X56103607Y-26243553D03*
X45498000Y-26212800D03*
X49498000Y-26212800D03*
X56102000Y-23926800D03*
X52102000Y-23926800D03*
D13*
X39415400Y-13335000D03*
X41915400Y-13335000D03*
D21*
X38394000Y-10591800D03*
X43394000Y-10591800D03*
D19*
X15519400Y-39170600D03*
X15519400Y-36470600D03*
X13614400Y-36470600D03*
X13614400Y-39170600D03*
D14*
X18639800Y-15189200D03*
X21339800Y-15189200D03*
D19*
X49834800Y-36648400D03*
X49834800Y-39348400D03*
D14*
X39417000Y-15240000D03*
X42117000Y-15240000D03*
D21*
X7380600Y-4597400D03*
X12380600Y-4597400D03*
D25*
X30099000Y-4586600D03*
X30099000Y-9586600D03*
D26*
X2235200Y-16179800D03*
D27*
X2235200Y-28879800D03*
X30000000Y-28457800D03*
D26*
X30000000Y-15757800D03*
D10*
X5000000Y-93000000D03*
D15*
X31699200Y-41752200D03*
X31699200Y-44252200D03*
M02*
