M48
;DRILL file {KiCad no-vcs-found-e062780~61~ubuntu17.10.1} date Wed Jan  3 10:37:20 2018
;FORMAT={2:4/ absolute / inch / suppress leading zeros}
FMAT,2
INCH,TZ
T1C0.0157
T2C0.0276
T3C0.0394
T4C0.0433
T5C0.0472
T6C0.0650
T7C0.1260
%
G90
G05
M72
T1
X300Y-9360
X3070Y-12500
X3464Y-12500
X3857Y-12500
X3953Y-14407
X4140Y-230
X4251Y-12500
X4340Y-31670
X4370Y-22720
X4420Y-19000
X4560Y-14360
X4810Y-15970
X4930Y-17010
X5024Y-13701
X5360Y-16260
X5418Y-13701
X5750Y-23280
X5812Y-13701
X5860Y-18370
X6206Y-13701
X6430Y-26390
X6599Y-13701
X6840Y-26690
X6900Y-28225
X7020Y-18390
X7125Y-33000
X7140Y-14230
X7210Y-23940
X7360Y-12500
X7530Y-33010
X7690Y-26300
X7720Y-17720
X7754Y-12500
X7760Y-16290
X7830Y-23950
X8020Y-23280
X8147Y-12500
X8541Y-12500
X8990Y-19020
X9120Y-22740
X10170Y-31660
X10560Y-24020
X10680Y-22730
X10690Y-23450
X11630Y-15540
X11690Y-18040
X11900Y-34410
X11950Y-25980
X12440Y-18030
X12440Y-25990
X12890Y-28230
X12950Y-18040
X12950Y-24060
X13110Y-1480
X14690Y-34410
X16190Y-16160
X17310Y-12500
X17560Y-34740
X17704Y-12500
X17810Y-22720
X17950Y-25990
X18020Y-19010
X18097Y-12500
X18320Y-32150
X18320Y-32544
X18320Y-32937
X18360Y-15970
X18491Y-12500
X18670Y-16360
X18680Y-17090
X18710Y-14390
X18950Y-18390
X19125Y-23325
X19213Y-13701
X19490Y-26430
X19606Y-13701
X19900Y-26870
X20000Y-13701
X20100Y-34180
X20110Y-33410
X20110Y-34910
X20250Y-26430
X20394Y-13701
X20410Y-18380
X20425Y-23275
X20787Y-13701
X20900Y-23275
X20960Y-16350
X20990Y-17820
X21010Y-26440
X21220Y-14430
X21410Y-23280
X21610Y-12500
X22004Y-12500
X22360Y-19010
X22397Y-12500
X22510Y-22710
X22791Y-12500
T2
X1261Y-17594
X1261Y-18594
X1261Y-19594
X1261Y-22594
X1261Y-23594
X14647Y-17594
X14647Y-18594
X14647Y-19594
X14647Y-22594
X14647Y-23594
T3
X8310Y-36015
X8310Y-37015
X9310Y-36015
X9310Y-37015
X10310Y-36015
X10310Y-37015
X11310Y-36015
X11310Y-37015
X12310Y-36015
X12310Y-37015
X13310Y-36015
X13310Y-37015
X14310Y-36015
X14310Y-37015
X15310Y-36015
X15310Y-37015
T4
X880Y-6370
X880Y-11370
X11811Y-6204
X11811Y-11204
T5
X18970Y-36710
X18970Y-37710
X4620Y-34730
X4620Y-35730
X4620Y-36730
X4620Y-37730
T6
X6496Y-1248
X6496Y-2689
X17126Y-1248
X17126Y-2689
X8858Y-1248
X8858Y-2689
X984Y-2035
X984Y-3476
X14764Y-1248
X14764Y-2689
T7
X21654Y-36614
X1969Y-36614
T0
M30
