G04 #@! TF.GenerationSoftware,KiCad,Pcbnew,no-vcs-found-e062780~61~ubuntu17.10.1*
G04 #@! TF.CreationDate,2018-01-03T10:37:01-05:00*
G04 #@! TF.ProjectId,ENNOID Dual Gate Driver,454E4E4F4944204475616C2047617465,rev?*
G04 #@! TF.SameCoordinates,Original*
G04 #@! TF.FileFunction,Legend,Bot*
G04 #@! TF.FilePolarity,Positive*
%FSLAX46Y46*%
G04 Gerber Fmt 4.6, Leading zero omitted, Abs format (unit mm)*
G04 Created by KiCad (PCBNEW no-vcs-found-e062780~61~ubuntu17.10.1) date Wed Jan  3 10:37:01 2018*
%MOMM*%
%LPD*%
G01*
G04 APERTURE LIST*
%ADD10C,0.300000*%
%ADD11C,0.120000*%
%ADD12C,0.150000*%
G04 APERTURE END LIST*
D10*
X26588114Y-6903257D02*
X26088114Y-6903257D01*
X25873828Y-7688971D02*
X26588114Y-7688971D01*
X26588114Y-6188971D01*
X25873828Y-6188971D01*
X24445257Y-7688971D02*
X25302400Y-7688971D01*
X24873828Y-7688971D02*
X24873828Y-6188971D01*
X25016685Y-6403257D01*
X25159542Y-6546114D01*
X25302400Y-6617542D01*
X13465928Y-7060500D02*
X13608785Y-6989071D01*
X13823071Y-6989071D01*
X14037357Y-7060500D01*
X14180214Y-7203357D01*
X14251642Y-7346214D01*
X14323071Y-7631928D01*
X14323071Y-7846214D01*
X14251642Y-8131928D01*
X14180214Y-8274785D01*
X14037357Y-8417642D01*
X13823071Y-8489071D01*
X13680214Y-8489071D01*
X13465928Y-8417642D01*
X13394500Y-8346214D01*
X13394500Y-7846214D01*
X13680214Y-7846214D01*
X11965928Y-8489071D02*
X12823071Y-8489071D01*
X12394500Y-8489071D02*
X12394500Y-6989071D01*
X12537357Y-7203357D01*
X12680214Y-7346214D01*
X12823071Y-7417642D01*
X47082828Y-5981000D02*
X47225685Y-5909571D01*
X47439971Y-5909571D01*
X47654257Y-5981000D01*
X47797114Y-6123857D01*
X47868542Y-6266714D01*
X47939971Y-6552428D01*
X47939971Y-6766714D01*
X47868542Y-7052428D01*
X47797114Y-7195285D01*
X47654257Y-7338142D01*
X47439971Y-7409571D01*
X47297114Y-7409571D01*
X47082828Y-7338142D01*
X47011400Y-7266714D01*
X47011400Y-6766714D01*
X47297114Y-6766714D01*
X46439971Y-6052428D02*
X46368542Y-5981000D01*
X46225685Y-5909571D01*
X45868542Y-5909571D01*
X45725685Y-5981000D01*
X45654257Y-6052428D01*
X45582828Y-6195285D01*
X45582828Y-6338142D01*
X45654257Y-6552428D01*
X46511400Y-7409571D01*
X45582828Y-7409571D01*
X35401914Y-6801657D02*
X34901914Y-6801657D01*
X34687628Y-7587371D02*
X35401914Y-7587371D01*
X35401914Y-6087371D01*
X34687628Y-6087371D01*
X34116200Y-6230228D02*
X34044771Y-6158800D01*
X33901914Y-6087371D01*
X33544771Y-6087371D01*
X33401914Y-6158800D01*
X33330485Y-6230228D01*
X33259057Y-6373085D01*
X33259057Y-6515942D01*
X33330485Y-6730228D01*
X34187628Y-7587371D01*
X33259057Y-7587371D01*
D11*
X31996000Y-89978600D02*
X30996000Y-89978600D01*
X30996000Y-88278600D02*
X31996000Y-88278600D01*
X22361600Y-81296400D02*
X23561600Y-81296400D01*
X23561600Y-79536400D02*
X22361600Y-79536400D01*
X6133200Y-58148600D02*
X6133200Y-59148600D01*
X4433200Y-59148600D02*
X4433200Y-58148600D01*
X6363600Y-59148600D02*
X6363600Y-58148600D01*
X8063600Y-58148600D02*
X8063600Y-59148600D01*
X6209400Y-43276900D02*
X6209400Y-44276900D01*
X4509400Y-44276900D02*
X4509400Y-43276900D01*
X4509400Y-49014000D02*
X4509400Y-48014000D01*
X6209400Y-48014000D02*
X6209400Y-49014000D01*
X40143800Y-58174000D02*
X40143800Y-59174000D01*
X38443800Y-59174000D02*
X38443800Y-58174000D01*
X40323400Y-59174000D02*
X40323400Y-58174000D01*
X42023400Y-58174000D02*
X42023400Y-59174000D01*
X40220000Y-42978400D02*
X40220000Y-43978400D01*
X38520000Y-43978400D02*
X38520000Y-42978400D01*
X38520000Y-48978400D02*
X38520000Y-47978400D01*
X40220000Y-47978400D02*
X40220000Y-48978400D01*
X13444600Y-56858800D02*
X14444600Y-56858800D01*
X14444600Y-58558800D02*
X13444600Y-58558800D01*
X19921600Y-56833400D02*
X20921600Y-56833400D01*
X20921600Y-58533400D02*
X19921600Y-58533400D01*
X23055200Y-42201200D02*
X22055200Y-42201200D01*
X22055200Y-40501200D02*
X23055200Y-40501200D01*
X22067466Y-44149107D02*
X23067466Y-44149107D01*
X23067466Y-45849107D02*
X22067466Y-45849107D01*
X18508600Y-29399600D02*
X17508600Y-29399600D01*
X17508600Y-27699600D02*
X18508600Y-27699600D01*
X48455200Y-58558800D02*
X47455200Y-58558800D01*
X47455200Y-56858800D02*
X48455200Y-56858800D01*
X54983000Y-58533400D02*
X53983000Y-58533400D01*
X53983000Y-56833400D02*
X54983000Y-56833400D01*
X11082400Y-27674200D02*
X12082400Y-27674200D01*
X12082400Y-29374200D02*
X11082400Y-29374200D01*
X18508600Y-31304600D02*
X17508600Y-31304600D01*
X17508600Y-29604600D02*
X18508600Y-29604600D01*
X10422146Y-23158672D02*
X12422146Y-23158672D01*
X12422146Y-25198672D02*
X10422146Y-25198672D01*
X20489800Y-14083400D02*
X19489800Y-14083400D01*
X19489800Y-12383400D02*
X20489800Y-12383400D01*
X30462600Y-56858800D02*
X31462600Y-56858800D01*
X31462600Y-58558800D02*
X30462600Y-58558800D01*
X31386400Y-60387600D02*
X30386400Y-60387600D01*
X30386400Y-58687600D02*
X31386400Y-58687600D01*
X36568000Y-89978600D02*
X35568000Y-89978600D01*
X35568000Y-88278600D02*
X36568000Y-88278600D01*
X3166000Y-25415800D02*
X3166000Y-24215800D01*
X1406000Y-24215800D02*
X1406000Y-25415800D01*
X13334405Y-81332572D02*
X14534405Y-81332572D01*
X14534405Y-79572572D02*
X13334405Y-79572572D01*
X52619800Y-38598400D02*
X52619800Y-37398400D01*
X50859800Y-37398400D02*
X50859800Y-38598400D01*
X29120000Y-19186600D02*
X29120000Y-20386600D01*
X30880000Y-20386600D02*
X30880000Y-19186600D01*
X35627200Y-43500600D02*
X35627200Y-42300600D01*
X33867200Y-42300600D02*
X33867200Y-43500600D01*
X30880000Y-25161800D02*
X30880000Y-23961800D01*
X29120000Y-23961800D02*
X29120000Y-25161800D01*
X30488000Y-46698800D02*
X31488000Y-46698800D01*
X31488000Y-48398800D02*
X30488000Y-48398800D01*
X32535400Y-36951800D02*
X31075400Y-36951800D01*
X32535400Y-40111800D02*
X30375400Y-40111800D01*
X32535400Y-40111800D02*
X32535400Y-39181800D01*
X32535400Y-36951800D02*
X32535400Y-37881800D01*
X15437400Y-12114800D02*
X22337400Y-12114800D01*
X15437400Y-8814800D02*
X22337400Y-8814800D01*
X15437400Y-12114800D02*
X15437400Y-8814800D01*
X24494600Y-59064600D02*
X24494600Y-60264600D01*
X26254600Y-60264600D02*
X26254600Y-59064600D01*
X23067466Y-44020307D02*
X22067466Y-44020307D01*
X22067466Y-42320307D02*
X23067466Y-42320307D01*
X12057000Y-31279200D02*
X11057000Y-31279200D01*
X11057000Y-29579200D02*
X12057000Y-29579200D01*
X10404600Y-25396000D02*
X12404600Y-25396000D01*
X12404600Y-27436000D02*
X10404600Y-27436000D01*
X17061495Y-23137873D02*
X19061495Y-23137873D01*
X19061495Y-25177873D02*
X17061495Y-25177873D01*
X19059400Y-27410600D02*
X17059400Y-27410600D01*
X17059400Y-25370600D02*
X19059400Y-25370600D01*
X56735600Y-42455200D02*
X55735600Y-42455200D01*
X55735600Y-40755200D02*
X56735600Y-40755200D01*
X55735600Y-44387400D02*
X56735600Y-44387400D01*
X56735600Y-46087400D02*
X55735600Y-46087400D01*
X56735600Y-44284000D02*
X55735600Y-44284000D01*
X55735600Y-42584000D02*
X56735600Y-42584000D01*
X47328200Y-29452200D02*
X48328200Y-29452200D01*
X48328200Y-31152200D02*
X47328200Y-31152200D01*
X53602000Y-29274400D02*
X54602000Y-29274400D01*
X54602000Y-30974400D02*
X53602000Y-30974400D01*
X48302800Y-29196400D02*
X47302800Y-29196400D01*
X47302800Y-27496400D02*
X48302800Y-27496400D01*
X54627400Y-29120200D02*
X53627400Y-29120200D01*
X53627400Y-27420200D02*
X54627400Y-27420200D01*
X46523400Y-22932200D02*
X48523400Y-22932200D01*
X48523400Y-24972200D02*
X46523400Y-24972200D01*
X55103607Y-27263553D02*
X53103607Y-27263553D01*
X53103607Y-25223553D02*
X55103607Y-25223553D01*
X48498000Y-27232800D02*
X46498000Y-27232800D01*
X46498000Y-25192800D02*
X48498000Y-25192800D01*
X53102000Y-22906800D02*
X55102000Y-22906800D01*
X55102000Y-24946800D02*
X53102000Y-24946800D01*
X41165400Y-14185000D02*
X40165400Y-14185000D01*
X40165400Y-12485000D02*
X41165400Y-12485000D01*
X45294000Y-8941800D02*
X38394000Y-8941800D01*
X45294000Y-12241800D02*
X38394000Y-12241800D01*
X45294000Y-8941800D02*
X45294000Y-12241800D01*
X14639400Y-37220600D02*
X14639400Y-38420600D01*
X16399400Y-38420600D02*
X16399400Y-37220600D01*
X14494400Y-38420600D02*
X14494400Y-37220600D01*
X12734400Y-37220600D02*
X12734400Y-38420600D01*
X20589800Y-14309200D02*
X19389800Y-14309200D01*
X19389800Y-16069200D02*
X20589800Y-16069200D01*
X50714800Y-38598400D02*
X50714800Y-37398400D01*
X48954800Y-37398400D02*
X48954800Y-38598400D01*
X41367000Y-14360000D02*
X40167000Y-14360000D01*
X40167000Y-16120000D02*
X41367000Y-16120000D01*
X14280600Y-2947400D02*
X7380600Y-2947400D01*
X14280600Y-6247400D02*
X7380600Y-6247400D01*
X14280600Y-2947400D02*
X14280600Y-6247400D01*
X28449000Y-2686600D02*
X31749000Y-2686600D01*
X31749000Y-2686600D02*
X31749000Y-9586600D01*
X28449000Y-2686600D02*
X28449000Y-9586600D01*
X30849200Y-43502200D02*
X30849200Y-42502200D01*
X32549200Y-42502200D02*
X32549200Y-43502200D01*
D12*
X32710357Y-87885542D02*
X32757976Y-87933161D01*
X32900833Y-87980780D01*
X32996071Y-87980780D01*
X33138928Y-87933161D01*
X33234166Y-87837923D01*
X33281785Y-87742685D01*
X33329404Y-87552209D01*
X33329404Y-87409352D01*
X33281785Y-87218876D01*
X33234166Y-87123638D01*
X33138928Y-87028400D01*
X32996071Y-86980780D01*
X32900833Y-86980780D01*
X32757976Y-87028400D01*
X32710357Y-87076019D01*
X31853214Y-87314114D02*
X31853214Y-87980780D01*
X32091309Y-86933161D02*
X32329404Y-87647447D01*
X31710357Y-87647447D01*
X31377023Y-87076019D02*
X31329404Y-87028400D01*
X31234166Y-86980780D01*
X30996071Y-86980780D01*
X30900833Y-87028400D01*
X30853214Y-87076019D01*
X30805595Y-87171257D01*
X30805595Y-87266495D01*
X30853214Y-87409352D01*
X31424642Y-87980780D01*
X30805595Y-87980780D01*
X23102866Y-79090780D02*
X23436200Y-78614590D01*
X23674295Y-79090780D02*
X23674295Y-78090780D01*
X23293342Y-78090780D01*
X23198104Y-78138400D01*
X23150485Y-78186019D01*
X23102866Y-78281257D01*
X23102866Y-78424114D01*
X23150485Y-78519352D01*
X23198104Y-78566971D01*
X23293342Y-78614590D01*
X23674295Y-78614590D01*
X22198104Y-78090780D02*
X22674295Y-78090780D01*
X22721914Y-78566971D01*
X22674295Y-78519352D01*
X22579057Y-78471733D01*
X22340961Y-78471733D01*
X22245723Y-78519352D01*
X22198104Y-78566971D01*
X22150485Y-78662209D01*
X22150485Y-78900304D01*
X22198104Y-78995542D01*
X22245723Y-79043161D01*
X22340961Y-79090780D01*
X22579057Y-79090780D01*
X22674295Y-79043161D01*
X22721914Y-78995542D01*
X5640342Y-61682333D02*
X5687961Y-61634714D01*
X5735580Y-61491857D01*
X5735580Y-61396619D01*
X5687961Y-61253761D01*
X5592723Y-61158523D01*
X5497485Y-61110904D01*
X5307009Y-61063285D01*
X5164152Y-61063285D01*
X4973676Y-61110904D01*
X4878438Y-61158523D01*
X4783200Y-61253761D01*
X4735580Y-61396619D01*
X4735580Y-61491857D01*
X4783200Y-61634714D01*
X4830819Y-61682333D01*
X4735580Y-62587095D02*
X4735580Y-62110904D01*
X5211771Y-62063285D01*
X5164152Y-62110904D01*
X5116533Y-62206142D01*
X5116533Y-62444238D01*
X5164152Y-62539476D01*
X5211771Y-62587095D01*
X5307009Y-62634714D01*
X5545104Y-62634714D01*
X5640342Y-62587095D01*
X5687961Y-62539476D01*
X5735580Y-62444238D01*
X5735580Y-62206142D01*
X5687961Y-62110904D01*
X5640342Y-62063285D01*
X7570742Y-61656933D02*
X7618361Y-61609314D01*
X7665980Y-61466457D01*
X7665980Y-61371219D01*
X7618361Y-61228361D01*
X7523123Y-61133123D01*
X7427885Y-61085504D01*
X7237409Y-61037885D01*
X7094552Y-61037885D01*
X6904076Y-61085504D01*
X6808838Y-61133123D01*
X6713600Y-61228361D01*
X6665980Y-61371219D01*
X6665980Y-61466457D01*
X6713600Y-61609314D01*
X6761219Y-61656933D01*
X6665980Y-62514076D02*
X6665980Y-62323600D01*
X6713600Y-62228361D01*
X6761219Y-62180742D01*
X6904076Y-62085504D01*
X7094552Y-62037885D01*
X7475504Y-62037885D01*
X7570742Y-62085504D01*
X7618361Y-62133123D01*
X7665980Y-62228361D01*
X7665980Y-62418838D01*
X7618361Y-62514076D01*
X7570742Y-62561695D01*
X7475504Y-62609314D01*
X7237409Y-62609314D01*
X7142171Y-62561695D01*
X7094552Y-62514076D01*
X7046933Y-62418838D01*
X7046933Y-62228361D01*
X7094552Y-62133123D01*
X7142171Y-62085504D01*
X7237409Y-62037885D01*
X7418342Y-43622933D02*
X7465961Y-43575314D01*
X7513580Y-43432457D01*
X7513580Y-43337219D01*
X7465961Y-43194361D01*
X7370723Y-43099123D01*
X7275485Y-43051504D01*
X7085009Y-43003885D01*
X6942152Y-43003885D01*
X6751676Y-43051504D01*
X6656438Y-43099123D01*
X6561200Y-43194361D01*
X6513580Y-43337219D01*
X6513580Y-43432457D01*
X6561200Y-43575314D01*
X6608819Y-43622933D01*
X6513580Y-43956266D02*
X6513580Y-44622933D01*
X7513580Y-44194361D01*
X7418342Y-48347333D02*
X7465961Y-48299714D01*
X7513580Y-48156857D01*
X7513580Y-48061619D01*
X7465961Y-47918761D01*
X7370723Y-47823523D01*
X7275485Y-47775904D01*
X7085009Y-47728285D01*
X6942152Y-47728285D01*
X6751676Y-47775904D01*
X6656438Y-47823523D01*
X6561200Y-47918761D01*
X6513580Y-48061619D01*
X6513580Y-48156857D01*
X6561200Y-48299714D01*
X6608819Y-48347333D01*
X6942152Y-48918761D02*
X6894533Y-48823523D01*
X6846914Y-48775904D01*
X6751676Y-48728285D01*
X6704057Y-48728285D01*
X6608819Y-48775904D01*
X6561200Y-48823523D01*
X6513580Y-48918761D01*
X6513580Y-49109238D01*
X6561200Y-49204476D01*
X6608819Y-49252095D01*
X6704057Y-49299714D01*
X6751676Y-49299714D01*
X6846914Y-49252095D01*
X6894533Y-49204476D01*
X6942152Y-49109238D01*
X6942152Y-48918761D01*
X6989771Y-48823523D01*
X7037390Y-48775904D01*
X7132628Y-48728285D01*
X7323104Y-48728285D01*
X7418342Y-48775904D01*
X7465961Y-48823523D01*
X7513580Y-48918761D01*
X7513580Y-49109238D01*
X7465961Y-49204476D01*
X7418342Y-49252095D01*
X7323104Y-49299714D01*
X7132628Y-49299714D01*
X7037390Y-49252095D01*
X6989771Y-49204476D01*
X6942152Y-49109238D01*
X39663642Y-61968142D02*
X39711261Y-61920523D01*
X39758880Y-61777666D01*
X39758880Y-61682428D01*
X39711261Y-61539571D01*
X39616023Y-61444333D01*
X39520785Y-61396714D01*
X39330309Y-61349095D01*
X39187452Y-61349095D01*
X38996976Y-61396714D01*
X38901738Y-61444333D01*
X38806500Y-61539571D01*
X38758880Y-61682428D01*
X38758880Y-61777666D01*
X38806500Y-61920523D01*
X38854119Y-61968142D01*
X39758880Y-62920523D02*
X39758880Y-62349095D01*
X39758880Y-62634809D02*
X38758880Y-62634809D01*
X38901738Y-62539571D01*
X38996976Y-62444333D01*
X39044595Y-62349095D01*
X38758880Y-63539571D02*
X38758880Y-63634809D01*
X38806500Y-63730047D01*
X38854119Y-63777666D01*
X38949357Y-63825285D01*
X39139833Y-63872904D01*
X39377928Y-63872904D01*
X39568404Y-63825285D01*
X39663642Y-63777666D01*
X39711261Y-63730047D01*
X39758880Y-63634809D01*
X39758880Y-63539571D01*
X39711261Y-63444333D01*
X39663642Y-63396714D01*
X39568404Y-63349095D01*
X39377928Y-63301476D01*
X39139833Y-63301476D01*
X38949357Y-63349095D01*
X38854119Y-63396714D01*
X38806500Y-63444333D01*
X38758880Y-63539571D01*
X41505142Y-61777642D02*
X41552761Y-61730023D01*
X41600380Y-61587166D01*
X41600380Y-61491928D01*
X41552761Y-61349071D01*
X41457523Y-61253833D01*
X41362285Y-61206214D01*
X41171809Y-61158595D01*
X41028952Y-61158595D01*
X40838476Y-61206214D01*
X40743238Y-61253833D01*
X40648000Y-61349071D01*
X40600380Y-61491928D01*
X40600380Y-61587166D01*
X40648000Y-61730023D01*
X40695619Y-61777642D01*
X41600380Y-62730023D02*
X41600380Y-62158595D01*
X41600380Y-62444309D02*
X40600380Y-62444309D01*
X40743238Y-62349071D01*
X40838476Y-62253833D01*
X40886095Y-62158595D01*
X41600380Y-63682404D02*
X41600380Y-63110976D01*
X41600380Y-63396690D02*
X40600380Y-63396690D01*
X40743238Y-63301452D01*
X40838476Y-63206214D01*
X40886095Y-63110976D01*
X41403542Y-42886342D02*
X41451161Y-42838723D01*
X41498780Y-42695866D01*
X41498780Y-42600628D01*
X41451161Y-42457771D01*
X41355923Y-42362533D01*
X41260685Y-42314914D01*
X41070209Y-42267295D01*
X40927352Y-42267295D01*
X40736876Y-42314914D01*
X40641638Y-42362533D01*
X40546400Y-42457771D01*
X40498780Y-42600628D01*
X40498780Y-42695866D01*
X40546400Y-42838723D01*
X40594019Y-42886342D01*
X41498780Y-43838723D02*
X41498780Y-43267295D01*
X41498780Y-43553009D02*
X40498780Y-43553009D01*
X40641638Y-43457771D01*
X40736876Y-43362533D01*
X40784495Y-43267295D01*
X40594019Y-44219676D02*
X40546400Y-44267295D01*
X40498780Y-44362533D01*
X40498780Y-44600628D01*
X40546400Y-44695866D01*
X40594019Y-44743485D01*
X40689257Y-44791104D01*
X40784495Y-44791104D01*
X40927352Y-44743485D01*
X41498780Y-44172057D01*
X41498780Y-44791104D01*
X41403542Y-47835542D02*
X41451161Y-47787923D01*
X41498780Y-47645066D01*
X41498780Y-47549828D01*
X41451161Y-47406971D01*
X41355923Y-47311733D01*
X41260685Y-47264114D01*
X41070209Y-47216495D01*
X40927352Y-47216495D01*
X40736876Y-47264114D01*
X40641638Y-47311733D01*
X40546400Y-47406971D01*
X40498780Y-47549828D01*
X40498780Y-47645066D01*
X40546400Y-47787923D01*
X40594019Y-47835542D01*
X41498780Y-48787923D02*
X41498780Y-48216495D01*
X41498780Y-48502209D02*
X40498780Y-48502209D01*
X40641638Y-48406971D01*
X40736876Y-48311733D01*
X40784495Y-48216495D01*
X40498780Y-49121257D02*
X40498780Y-49740304D01*
X40879733Y-49406971D01*
X40879733Y-49549828D01*
X40927352Y-49645066D01*
X40974971Y-49692685D01*
X41070209Y-49740304D01*
X41308304Y-49740304D01*
X41403542Y-49692685D01*
X41451161Y-49645066D01*
X41498780Y-49549828D01*
X41498780Y-49264114D01*
X41451161Y-49168876D01*
X41403542Y-49121257D01*
X14587457Y-56315942D02*
X14635076Y-56363561D01*
X14777933Y-56411180D01*
X14873171Y-56411180D01*
X15016028Y-56363561D01*
X15111266Y-56268323D01*
X15158885Y-56173085D01*
X15206504Y-55982609D01*
X15206504Y-55839752D01*
X15158885Y-55649276D01*
X15111266Y-55554038D01*
X15016028Y-55458800D01*
X14873171Y-55411180D01*
X14777933Y-55411180D01*
X14635076Y-55458800D01*
X14587457Y-55506419D01*
X13635076Y-56411180D02*
X14206504Y-56411180D01*
X13920790Y-56411180D02*
X13920790Y-55411180D01*
X14016028Y-55554038D01*
X14111266Y-55649276D01*
X14206504Y-55696895D01*
X12730314Y-55411180D02*
X13206504Y-55411180D01*
X13254123Y-55887371D01*
X13206504Y-55839752D01*
X13111266Y-55792133D01*
X12873171Y-55792133D01*
X12777933Y-55839752D01*
X12730314Y-55887371D01*
X12682695Y-55982609D01*
X12682695Y-56220704D01*
X12730314Y-56315942D01*
X12777933Y-56363561D01*
X12873171Y-56411180D01*
X13111266Y-56411180D01*
X13206504Y-56363561D01*
X13254123Y-56315942D01*
X21064457Y-56516542D02*
X21112076Y-56564161D01*
X21254933Y-56611780D01*
X21350171Y-56611780D01*
X21493028Y-56564161D01*
X21588266Y-56468923D01*
X21635885Y-56373685D01*
X21683504Y-56183209D01*
X21683504Y-56040352D01*
X21635885Y-55849876D01*
X21588266Y-55754638D01*
X21493028Y-55659400D01*
X21350171Y-55611780D01*
X21254933Y-55611780D01*
X21112076Y-55659400D01*
X21064457Y-55707019D01*
X20112076Y-56611780D02*
X20683504Y-56611780D01*
X20397790Y-56611780D02*
X20397790Y-55611780D01*
X20493028Y-55754638D01*
X20588266Y-55849876D01*
X20683504Y-55897495D01*
X19254933Y-55611780D02*
X19445409Y-55611780D01*
X19540647Y-55659400D01*
X19588266Y-55707019D01*
X19683504Y-55849876D01*
X19731123Y-56040352D01*
X19731123Y-56421304D01*
X19683504Y-56516542D01*
X19635885Y-56564161D01*
X19540647Y-56611780D01*
X19350171Y-56611780D01*
X19254933Y-56564161D01*
X19207314Y-56516542D01*
X19159695Y-56421304D01*
X19159695Y-56183209D01*
X19207314Y-56087971D01*
X19254933Y-56040352D01*
X19350171Y-55992733D01*
X19540647Y-55992733D01*
X19635885Y-56040352D01*
X19683504Y-56087971D01*
X19731123Y-56183209D01*
X27185857Y-41759142D02*
X27233476Y-41806761D01*
X27376333Y-41854380D01*
X27471571Y-41854380D01*
X27614428Y-41806761D01*
X27709666Y-41711523D01*
X27757285Y-41616285D01*
X27804904Y-41425809D01*
X27804904Y-41282952D01*
X27757285Y-41092476D01*
X27709666Y-40997238D01*
X27614428Y-40902000D01*
X27471571Y-40854380D01*
X27376333Y-40854380D01*
X27233476Y-40902000D01*
X27185857Y-40949619D01*
X26233476Y-41854380D02*
X26804904Y-41854380D01*
X26519190Y-41854380D02*
X26519190Y-40854380D01*
X26614428Y-40997238D01*
X26709666Y-41092476D01*
X26804904Y-41140095D01*
X25900142Y-40854380D02*
X25233476Y-40854380D01*
X25662047Y-41854380D01*
X27249357Y-45442142D02*
X27296976Y-45489761D01*
X27439833Y-45537380D01*
X27535071Y-45537380D01*
X27677928Y-45489761D01*
X27773166Y-45394523D01*
X27820785Y-45299285D01*
X27868404Y-45108809D01*
X27868404Y-44965952D01*
X27820785Y-44775476D01*
X27773166Y-44680238D01*
X27677928Y-44585000D01*
X27535071Y-44537380D01*
X27439833Y-44537380D01*
X27296976Y-44585000D01*
X27249357Y-44632619D01*
X26296976Y-45537380D02*
X26868404Y-45537380D01*
X26582690Y-45537380D02*
X26582690Y-44537380D01*
X26677928Y-44680238D01*
X26773166Y-44775476D01*
X26868404Y-44823095D01*
X25820785Y-45537380D02*
X25630309Y-45537380D01*
X25535071Y-45489761D01*
X25487452Y-45442142D01*
X25392214Y-45299285D01*
X25344595Y-45108809D01*
X25344595Y-44727857D01*
X25392214Y-44632619D01*
X25439833Y-44585000D01*
X25535071Y-44537380D01*
X25725547Y-44537380D01*
X25820785Y-44585000D01*
X25868404Y-44632619D01*
X25916023Y-44727857D01*
X25916023Y-44965952D01*
X25868404Y-45061190D01*
X25820785Y-45108809D01*
X25725547Y-45156428D01*
X25535071Y-45156428D01*
X25439833Y-45108809D01*
X25392214Y-45061190D01*
X25344595Y-44965952D01*
X22486857Y-28868642D02*
X22534476Y-28916261D01*
X22677333Y-28963880D01*
X22772571Y-28963880D01*
X22915428Y-28916261D01*
X23010666Y-28821023D01*
X23058285Y-28725785D01*
X23105904Y-28535309D01*
X23105904Y-28392452D01*
X23058285Y-28201976D01*
X23010666Y-28106738D01*
X22915428Y-28011500D01*
X22772571Y-27963880D01*
X22677333Y-27963880D01*
X22534476Y-28011500D01*
X22486857Y-28059119D01*
X22105904Y-28059119D02*
X22058285Y-28011500D01*
X21963047Y-27963880D01*
X21724952Y-27963880D01*
X21629714Y-28011500D01*
X21582095Y-28059119D01*
X21534476Y-28154357D01*
X21534476Y-28249595D01*
X21582095Y-28392452D01*
X22153523Y-28963880D01*
X21534476Y-28963880D01*
X20629714Y-27963880D02*
X21105904Y-27963880D01*
X21153523Y-28440071D01*
X21105904Y-28392452D01*
X21010666Y-28344833D01*
X20772571Y-28344833D01*
X20677333Y-28392452D01*
X20629714Y-28440071D01*
X20582095Y-28535309D01*
X20582095Y-28773404D01*
X20629714Y-28868642D01*
X20677333Y-28916261D01*
X20772571Y-28963880D01*
X21010666Y-28963880D01*
X21105904Y-28916261D01*
X21153523Y-28868642D01*
X48598057Y-56478442D02*
X48645676Y-56526061D01*
X48788533Y-56573680D01*
X48883771Y-56573680D01*
X49026628Y-56526061D01*
X49121866Y-56430823D01*
X49169485Y-56335585D01*
X49217104Y-56145109D01*
X49217104Y-56002252D01*
X49169485Y-55811776D01*
X49121866Y-55716538D01*
X49026628Y-55621300D01*
X48883771Y-55573680D01*
X48788533Y-55573680D01*
X48645676Y-55621300D01*
X48598057Y-55668919D01*
X48217104Y-55668919D02*
X48169485Y-55621300D01*
X48074247Y-55573680D01*
X47836152Y-55573680D01*
X47740914Y-55621300D01*
X47693295Y-55668919D01*
X47645676Y-55764157D01*
X47645676Y-55859395D01*
X47693295Y-56002252D01*
X48264723Y-56573680D01*
X47645676Y-56573680D01*
X46788533Y-55573680D02*
X46979009Y-55573680D01*
X47074247Y-55621300D01*
X47121866Y-55668919D01*
X47217104Y-55811776D01*
X47264723Y-56002252D01*
X47264723Y-56383204D01*
X47217104Y-56478442D01*
X47169485Y-56526061D01*
X47074247Y-56573680D01*
X46883771Y-56573680D01*
X46788533Y-56526061D01*
X46740914Y-56478442D01*
X46693295Y-56383204D01*
X46693295Y-56145109D01*
X46740914Y-56049871D01*
X46788533Y-56002252D01*
X46883771Y-55954633D01*
X47074247Y-55954633D01*
X47169485Y-56002252D01*
X47217104Y-56049871D01*
X47264723Y-56145109D01*
X55125857Y-56567342D02*
X55173476Y-56614961D01*
X55316333Y-56662580D01*
X55411571Y-56662580D01*
X55554428Y-56614961D01*
X55649666Y-56519723D01*
X55697285Y-56424485D01*
X55744904Y-56234009D01*
X55744904Y-56091152D01*
X55697285Y-55900676D01*
X55649666Y-55805438D01*
X55554428Y-55710200D01*
X55411571Y-55662580D01*
X55316333Y-55662580D01*
X55173476Y-55710200D01*
X55125857Y-55757819D01*
X54744904Y-55757819D02*
X54697285Y-55710200D01*
X54602047Y-55662580D01*
X54363952Y-55662580D01*
X54268714Y-55710200D01*
X54221095Y-55757819D01*
X54173476Y-55853057D01*
X54173476Y-55948295D01*
X54221095Y-56091152D01*
X54792523Y-56662580D01*
X54173476Y-56662580D01*
X53840142Y-55662580D02*
X53173476Y-55662580D01*
X53602047Y-56662580D01*
X8466057Y-28906742D02*
X8513676Y-28954361D01*
X8656533Y-29001980D01*
X8751771Y-29001980D01*
X8894628Y-28954361D01*
X8989866Y-28859123D01*
X9037485Y-28763885D01*
X9085104Y-28573409D01*
X9085104Y-28430552D01*
X9037485Y-28240076D01*
X8989866Y-28144838D01*
X8894628Y-28049600D01*
X8751771Y-28001980D01*
X8656533Y-28001980D01*
X8513676Y-28049600D01*
X8466057Y-28097219D01*
X8085104Y-28097219D02*
X8037485Y-28049600D01*
X7942247Y-28001980D01*
X7704152Y-28001980D01*
X7608914Y-28049600D01*
X7561295Y-28097219D01*
X7513676Y-28192457D01*
X7513676Y-28287695D01*
X7561295Y-28430552D01*
X8132723Y-29001980D01*
X7513676Y-29001980D01*
X6942247Y-28430552D02*
X7037485Y-28382933D01*
X7085104Y-28335314D01*
X7132723Y-28240076D01*
X7132723Y-28192457D01*
X7085104Y-28097219D01*
X7037485Y-28049600D01*
X6942247Y-28001980D01*
X6751771Y-28001980D01*
X6656533Y-28049600D01*
X6608914Y-28097219D01*
X6561295Y-28192457D01*
X6561295Y-28240076D01*
X6608914Y-28335314D01*
X6656533Y-28382933D01*
X6751771Y-28430552D01*
X6942247Y-28430552D01*
X7037485Y-28478171D01*
X7085104Y-28525790D01*
X7132723Y-28621028D01*
X7132723Y-28811504D01*
X7085104Y-28906742D01*
X7037485Y-28954361D01*
X6942247Y-29001980D01*
X6751771Y-29001980D01*
X6656533Y-28954361D01*
X6608914Y-28906742D01*
X6561295Y-28811504D01*
X6561295Y-28621028D01*
X6608914Y-28525790D01*
X6656533Y-28478171D01*
X6751771Y-28430552D01*
X22550357Y-30900642D02*
X22597976Y-30948261D01*
X22740833Y-30995880D01*
X22836071Y-30995880D01*
X22978928Y-30948261D01*
X23074166Y-30853023D01*
X23121785Y-30757785D01*
X23169404Y-30567309D01*
X23169404Y-30424452D01*
X23121785Y-30233976D01*
X23074166Y-30138738D01*
X22978928Y-30043500D01*
X22836071Y-29995880D01*
X22740833Y-29995880D01*
X22597976Y-30043500D01*
X22550357Y-30091119D01*
X22169404Y-30091119D02*
X22121785Y-30043500D01*
X22026547Y-29995880D01*
X21788452Y-29995880D01*
X21693214Y-30043500D01*
X21645595Y-30091119D01*
X21597976Y-30186357D01*
X21597976Y-30281595D01*
X21645595Y-30424452D01*
X22217023Y-30995880D01*
X21597976Y-30995880D01*
X21121785Y-30995880D02*
X20931309Y-30995880D01*
X20836071Y-30948261D01*
X20788452Y-30900642D01*
X20693214Y-30757785D01*
X20645595Y-30567309D01*
X20645595Y-30186357D01*
X20693214Y-30091119D01*
X20740833Y-30043500D01*
X20836071Y-29995880D01*
X21026547Y-29995880D01*
X21121785Y-30043500D01*
X21169404Y-30091119D01*
X21217023Y-30186357D01*
X21217023Y-30424452D01*
X21169404Y-30519690D01*
X21121785Y-30567309D01*
X21026547Y-30614928D01*
X20836071Y-30614928D01*
X20740833Y-30567309D01*
X20693214Y-30519690D01*
X20645595Y-30424452D01*
X7162803Y-24459614D02*
X7210422Y-24507233D01*
X7353279Y-24554852D01*
X7448517Y-24554852D01*
X7591374Y-24507233D01*
X7686612Y-24411995D01*
X7734231Y-24316757D01*
X7781850Y-24126281D01*
X7781850Y-23983424D01*
X7734231Y-23792948D01*
X7686612Y-23697710D01*
X7591374Y-23602472D01*
X7448517Y-23554852D01*
X7353279Y-23554852D01*
X7210422Y-23602472D01*
X7162803Y-23650091D01*
X6829469Y-23554852D02*
X6210422Y-23554852D01*
X6543755Y-23935805D01*
X6400898Y-23935805D01*
X6305660Y-23983424D01*
X6258041Y-24031043D01*
X6210422Y-24126281D01*
X6210422Y-24364376D01*
X6258041Y-24459614D01*
X6305660Y-24507233D01*
X6400898Y-24554852D01*
X6686612Y-24554852D01*
X6781850Y-24507233D01*
X6829469Y-24459614D01*
X5829469Y-23650091D02*
X5781850Y-23602472D01*
X5686612Y-23554852D01*
X5448517Y-23554852D01*
X5353279Y-23602472D01*
X5305660Y-23650091D01*
X5258041Y-23745329D01*
X5258041Y-23840567D01*
X5305660Y-23983424D01*
X5877088Y-24554852D01*
X5258041Y-24554852D01*
X24442657Y-13666742D02*
X24490276Y-13714361D01*
X24633133Y-13761980D01*
X24728371Y-13761980D01*
X24871228Y-13714361D01*
X24966466Y-13619123D01*
X25014085Y-13523885D01*
X25061704Y-13333409D01*
X25061704Y-13190552D01*
X25014085Y-13000076D01*
X24966466Y-12904838D01*
X24871228Y-12809600D01*
X24728371Y-12761980D01*
X24633133Y-12761980D01*
X24490276Y-12809600D01*
X24442657Y-12857219D01*
X24109323Y-12761980D02*
X23490276Y-12761980D01*
X23823609Y-13142933D01*
X23680752Y-13142933D01*
X23585514Y-13190552D01*
X23537895Y-13238171D01*
X23490276Y-13333409D01*
X23490276Y-13571504D01*
X23537895Y-13666742D01*
X23585514Y-13714361D01*
X23680752Y-13761980D01*
X23966466Y-13761980D01*
X24061704Y-13714361D01*
X24109323Y-13666742D01*
X22633133Y-13095314D02*
X22633133Y-13761980D01*
X22871228Y-12714361D02*
X23109323Y-13428647D01*
X22490276Y-13428647D01*
X31630857Y-56491142D02*
X31678476Y-56538761D01*
X31821333Y-56586380D01*
X31916571Y-56586380D01*
X32059428Y-56538761D01*
X32154666Y-56443523D01*
X32202285Y-56348285D01*
X32249904Y-56157809D01*
X32249904Y-56014952D01*
X32202285Y-55824476D01*
X32154666Y-55729238D01*
X32059428Y-55634000D01*
X31916571Y-55586380D01*
X31821333Y-55586380D01*
X31678476Y-55634000D01*
X31630857Y-55681619D01*
X31297523Y-55586380D02*
X30678476Y-55586380D01*
X31011809Y-55967333D01*
X30868952Y-55967333D01*
X30773714Y-56014952D01*
X30726095Y-56062571D01*
X30678476Y-56157809D01*
X30678476Y-56395904D01*
X30726095Y-56491142D01*
X30773714Y-56538761D01*
X30868952Y-56586380D01*
X31154666Y-56586380D01*
X31249904Y-56538761D01*
X31297523Y-56491142D01*
X30202285Y-56586380D02*
X30011809Y-56586380D01*
X29916571Y-56538761D01*
X29868952Y-56491142D01*
X29773714Y-56348285D01*
X29726095Y-56157809D01*
X29726095Y-55776857D01*
X29773714Y-55681619D01*
X29821333Y-55634000D01*
X29916571Y-55586380D01*
X30107047Y-55586380D01*
X30202285Y-55634000D01*
X30249904Y-55681619D01*
X30297523Y-55776857D01*
X30297523Y-56014952D01*
X30249904Y-56110190D01*
X30202285Y-56157809D01*
X30107047Y-56205428D01*
X29916571Y-56205428D01*
X29821333Y-56157809D01*
X29773714Y-56110190D01*
X29726095Y-56014952D01*
X31580057Y-61647342D02*
X31627676Y-61694961D01*
X31770533Y-61742580D01*
X31865771Y-61742580D01*
X32008628Y-61694961D01*
X32103866Y-61599723D01*
X32151485Y-61504485D01*
X32199104Y-61314009D01*
X32199104Y-61171152D01*
X32151485Y-60980676D01*
X32103866Y-60885438D01*
X32008628Y-60790200D01*
X31865771Y-60742580D01*
X31770533Y-60742580D01*
X31627676Y-60790200D01*
X31580057Y-60837819D01*
X30722914Y-61075914D02*
X30722914Y-61742580D01*
X30961009Y-60694961D02*
X31199104Y-61409247D01*
X30580057Y-61409247D01*
X30008628Y-60742580D02*
X29913390Y-60742580D01*
X29818152Y-60790200D01*
X29770533Y-60837819D01*
X29722914Y-60933057D01*
X29675295Y-61123533D01*
X29675295Y-61361628D01*
X29722914Y-61552104D01*
X29770533Y-61647342D01*
X29818152Y-61694961D01*
X29913390Y-61742580D01*
X30008628Y-61742580D01*
X30103866Y-61694961D01*
X30151485Y-61647342D01*
X30199104Y-61552104D01*
X30246723Y-61361628D01*
X30246723Y-61123533D01*
X30199104Y-60933057D01*
X30151485Y-60837819D01*
X30103866Y-60790200D01*
X30008628Y-60742580D01*
X35898057Y-87860142D02*
X35945676Y-87907761D01*
X36088533Y-87955380D01*
X36183771Y-87955380D01*
X36326628Y-87907761D01*
X36421866Y-87812523D01*
X36469485Y-87717285D01*
X36517104Y-87526809D01*
X36517104Y-87383952D01*
X36469485Y-87193476D01*
X36421866Y-87098238D01*
X36326628Y-87003000D01*
X36183771Y-86955380D01*
X36088533Y-86955380D01*
X35945676Y-87003000D01*
X35898057Y-87050619D01*
X35040914Y-87288714D02*
X35040914Y-87955380D01*
X35279009Y-86907761D02*
X35517104Y-87622047D01*
X34898057Y-87622047D01*
X33993295Y-87955380D02*
X34564723Y-87955380D01*
X34279009Y-87955380D02*
X34279009Y-86955380D01*
X34374247Y-87098238D01*
X34469485Y-87193476D01*
X34564723Y-87241095D01*
X4438380Y-24172942D02*
X3962190Y-23839609D01*
X4438380Y-23601514D02*
X3438380Y-23601514D01*
X3438380Y-23982466D01*
X3486000Y-24077704D01*
X3533619Y-24125323D01*
X3628857Y-24172942D01*
X3771714Y-24172942D01*
X3866952Y-24125323D01*
X3914571Y-24077704D01*
X3962190Y-23982466D01*
X3962190Y-23601514D01*
X4438380Y-25125323D02*
X4438380Y-24553895D01*
X4438380Y-24839609D02*
X3438380Y-24839609D01*
X3581238Y-24744371D01*
X3676476Y-24649133D01*
X3724095Y-24553895D01*
X3438380Y-25744371D02*
X3438380Y-25839609D01*
X3486000Y-25934847D01*
X3533619Y-25982466D01*
X3628857Y-26030085D01*
X3819333Y-26077704D01*
X4057428Y-26077704D01*
X4247904Y-26030085D01*
X4343142Y-25982466D01*
X4390761Y-25934847D01*
X4438380Y-25839609D01*
X4438380Y-25744371D01*
X4390761Y-25649133D01*
X4343142Y-25601514D01*
X4247904Y-25553895D01*
X4057428Y-25506276D01*
X3819333Y-25506276D01*
X3628857Y-25553895D01*
X3533619Y-25601514D01*
X3486000Y-25649133D01*
X3438380Y-25744371D01*
X14536657Y-79192380D02*
X14869990Y-78716190D01*
X15108085Y-79192380D02*
X15108085Y-78192380D01*
X14727133Y-78192380D01*
X14631895Y-78240000D01*
X14584276Y-78287619D01*
X14536657Y-78382857D01*
X14536657Y-78525714D01*
X14584276Y-78620952D01*
X14631895Y-78668571D01*
X14727133Y-78716190D01*
X15108085Y-78716190D01*
X13584276Y-79192380D02*
X14155704Y-79192380D01*
X13869990Y-79192380D02*
X13869990Y-78192380D01*
X13965228Y-78335238D01*
X14060466Y-78430476D01*
X14155704Y-78478095D01*
X12727133Y-78192380D02*
X12917609Y-78192380D01*
X13012847Y-78240000D01*
X13060466Y-78287619D01*
X13155704Y-78430476D01*
X13203323Y-78620952D01*
X13203323Y-79001904D01*
X13155704Y-79097142D01*
X13108085Y-79144761D01*
X13012847Y-79192380D01*
X12822371Y-79192380D01*
X12727133Y-79144761D01*
X12679514Y-79097142D01*
X12631895Y-79001904D01*
X12631895Y-78763809D01*
X12679514Y-78668571D01*
X12727133Y-78620952D01*
X12822371Y-78573333D01*
X13012847Y-78573333D01*
X13108085Y-78620952D01*
X13155704Y-78668571D01*
X13203323Y-78763809D01*
X53982880Y-37457142D02*
X53506690Y-37123809D01*
X53982880Y-36885714D02*
X52982880Y-36885714D01*
X52982880Y-37266666D01*
X53030500Y-37361904D01*
X53078119Y-37409523D01*
X53173357Y-37457142D01*
X53316214Y-37457142D01*
X53411452Y-37409523D01*
X53459071Y-37361904D01*
X53506690Y-37266666D01*
X53506690Y-36885714D01*
X53078119Y-37838095D02*
X53030500Y-37885714D01*
X52982880Y-37980952D01*
X52982880Y-38219047D01*
X53030500Y-38314285D01*
X53078119Y-38361904D01*
X53173357Y-38409523D01*
X53268595Y-38409523D01*
X53411452Y-38361904D01*
X53982880Y-37790476D01*
X53982880Y-38409523D01*
X52982880Y-39266666D02*
X52982880Y-39076190D01*
X53030500Y-38980952D01*
X53078119Y-38933333D01*
X53220976Y-38838095D01*
X53411452Y-38790476D01*
X53792404Y-38790476D01*
X53887642Y-38838095D01*
X53935261Y-38885714D01*
X53982880Y-38980952D01*
X53982880Y-39171428D01*
X53935261Y-39266666D01*
X53887642Y-39314285D01*
X53792404Y-39361904D01*
X53554309Y-39361904D01*
X53459071Y-39314285D01*
X53411452Y-39266666D01*
X53363833Y-39171428D01*
X53363833Y-38980952D01*
X53411452Y-38885714D01*
X53459071Y-38838095D01*
X53554309Y-38790476D01*
X32161980Y-19202162D02*
X31685790Y-18868829D01*
X32161980Y-18630734D02*
X31161980Y-18630734D01*
X31161980Y-19011686D01*
X31209600Y-19106924D01*
X31257219Y-19154543D01*
X31352457Y-19202162D01*
X31495314Y-19202162D01*
X31590552Y-19154543D01*
X31638171Y-19106924D01*
X31685790Y-19011686D01*
X31685790Y-18630734D01*
X31257219Y-19583115D02*
X31209600Y-19630734D01*
X31161980Y-19725972D01*
X31161980Y-19964067D01*
X31209600Y-20059305D01*
X31257219Y-20106924D01*
X31352457Y-20154543D01*
X31447695Y-20154543D01*
X31590552Y-20106924D01*
X32161980Y-19535496D01*
X32161980Y-20154543D01*
X31161980Y-20487877D02*
X31161980Y-21154543D01*
X32161980Y-20725972D01*
X37028380Y-41140142D02*
X36552190Y-40806809D01*
X37028380Y-40568714D02*
X36028380Y-40568714D01*
X36028380Y-40949666D01*
X36076000Y-41044904D01*
X36123619Y-41092523D01*
X36218857Y-41140142D01*
X36361714Y-41140142D01*
X36456952Y-41092523D01*
X36504571Y-41044904D01*
X36552190Y-40949666D01*
X36552190Y-40568714D01*
X36123619Y-41521095D02*
X36076000Y-41568714D01*
X36028380Y-41663952D01*
X36028380Y-41902047D01*
X36076000Y-41997285D01*
X36123619Y-42044904D01*
X36218857Y-42092523D01*
X36314095Y-42092523D01*
X36456952Y-42044904D01*
X37028380Y-41473476D01*
X37028380Y-42092523D01*
X36456952Y-42663952D02*
X36409333Y-42568714D01*
X36361714Y-42521095D01*
X36266476Y-42473476D01*
X36218857Y-42473476D01*
X36123619Y-42521095D01*
X36076000Y-42568714D01*
X36028380Y-42663952D01*
X36028380Y-42854428D01*
X36076000Y-42949666D01*
X36123619Y-42997285D01*
X36218857Y-43044904D01*
X36266476Y-43044904D01*
X36361714Y-42997285D01*
X36409333Y-42949666D01*
X36456952Y-42854428D01*
X36456952Y-42663952D01*
X36504571Y-42568714D01*
X36552190Y-42521095D01*
X36647428Y-42473476D01*
X36837904Y-42473476D01*
X36933142Y-42521095D01*
X36980761Y-42568714D01*
X37028380Y-42663952D01*
X37028380Y-42854428D01*
X36980761Y-42949666D01*
X36933142Y-42997285D01*
X36837904Y-43044904D01*
X36647428Y-43044904D01*
X36552190Y-42997285D01*
X36504571Y-42949666D01*
X36456952Y-42854428D01*
X32060380Y-23992942D02*
X31584190Y-23659609D01*
X32060380Y-23421514D02*
X31060380Y-23421514D01*
X31060380Y-23802466D01*
X31108000Y-23897704D01*
X31155619Y-23945323D01*
X31250857Y-23992942D01*
X31393714Y-23992942D01*
X31488952Y-23945323D01*
X31536571Y-23897704D01*
X31584190Y-23802466D01*
X31584190Y-23421514D01*
X31155619Y-24373895D02*
X31108000Y-24421514D01*
X31060380Y-24516752D01*
X31060380Y-24754847D01*
X31108000Y-24850085D01*
X31155619Y-24897704D01*
X31250857Y-24945323D01*
X31346095Y-24945323D01*
X31488952Y-24897704D01*
X32060380Y-24326276D01*
X32060380Y-24945323D01*
X32060380Y-25421514D02*
X32060380Y-25611990D01*
X32012761Y-25707228D01*
X31965142Y-25754847D01*
X31822285Y-25850085D01*
X31631809Y-25897704D01*
X31250857Y-25897704D01*
X31155619Y-25850085D01*
X31108000Y-25802466D01*
X31060380Y-25707228D01*
X31060380Y-25516752D01*
X31108000Y-25421514D01*
X31155619Y-25373895D01*
X31250857Y-25326276D01*
X31488952Y-25326276D01*
X31584190Y-25373895D01*
X31631809Y-25421514D01*
X31679428Y-25516752D01*
X31679428Y-25707228D01*
X31631809Y-25802466D01*
X31584190Y-25850085D01*
X31488952Y-25897704D01*
X27770057Y-47905942D02*
X27817676Y-47953561D01*
X27960533Y-48001180D01*
X28055771Y-48001180D01*
X28198628Y-47953561D01*
X28293866Y-47858323D01*
X28341485Y-47763085D01*
X28389104Y-47572609D01*
X28389104Y-47429752D01*
X28341485Y-47239276D01*
X28293866Y-47144038D01*
X28198628Y-47048800D01*
X28055771Y-47001180D01*
X27960533Y-47001180D01*
X27817676Y-47048800D01*
X27770057Y-47096419D01*
X27436723Y-47001180D02*
X26817676Y-47001180D01*
X27151009Y-47382133D01*
X27008152Y-47382133D01*
X26912914Y-47429752D01*
X26865295Y-47477371D01*
X26817676Y-47572609D01*
X26817676Y-47810704D01*
X26865295Y-47905942D01*
X26912914Y-47953561D01*
X27008152Y-48001180D01*
X27293866Y-48001180D01*
X27389104Y-47953561D01*
X27436723Y-47905942D01*
X26246247Y-47429752D02*
X26341485Y-47382133D01*
X26389104Y-47334514D01*
X26436723Y-47239276D01*
X26436723Y-47191657D01*
X26389104Y-47096419D01*
X26341485Y-47048800D01*
X26246247Y-47001180D01*
X26055771Y-47001180D01*
X25960533Y-47048800D01*
X25912914Y-47096419D01*
X25865295Y-47191657D01*
X25865295Y-47239276D01*
X25912914Y-47334514D01*
X25960533Y-47382133D01*
X26055771Y-47429752D01*
X26246247Y-47429752D01*
X26341485Y-47477371D01*
X26389104Y-47524990D01*
X26436723Y-47620228D01*
X26436723Y-47810704D01*
X26389104Y-47905942D01*
X26341485Y-47953561D01*
X26246247Y-48001180D01*
X26055771Y-48001180D01*
X25960533Y-47953561D01*
X25912914Y-47905942D01*
X25865295Y-47810704D01*
X25865295Y-47620228D01*
X25912914Y-47524990D01*
X25960533Y-47477371D01*
X26055771Y-47429752D01*
X33710619Y-39282595D02*
X34710619Y-39282595D01*
X34710619Y-39044500D01*
X34663000Y-38901642D01*
X34567761Y-38806404D01*
X34472523Y-38758785D01*
X34282047Y-38711166D01*
X34139190Y-38711166D01*
X33948714Y-38758785D01*
X33853476Y-38806404D01*
X33758238Y-38901642D01*
X33710619Y-39044500D01*
X33710619Y-39282595D01*
X33710619Y-38234976D02*
X33710619Y-38044500D01*
X33758238Y-37949261D01*
X33805857Y-37901642D01*
X33948714Y-37806404D01*
X34139190Y-37758785D01*
X34520142Y-37758785D01*
X34615380Y-37806404D01*
X34663000Y-37854023D01*
X34710619Y-37949261D01*
X34710619Y-38139738D01*
X34663000Y-38234976D01*
X34615380Y-38282595D01*
X34520142Y-38330214D01*
X34282047Y-38330214D01*
X34186809Y-38282595D01*
X34139190Y-38234976D01*
X34091571Y-38139738D01*
X34091571Y-37949261D01*
X34139190Y-37854023D01*
X34186809Y-37806404D01*
X34282047Y-37758785D01*
X27058785Y-11056880D02*
X27058785Y-10056880D01*
X26820690Y-10056880D01*
X26677833Y-10104500D01*
X26582595Y-10199738D01*
X26534976Y-10294976D01*
X26487357Y-10485452D01*
X26487357Y-10628309D01*
X26534976Y-10818785D01*
X26582595Y-10914023D01*
X26677833Y-11009261D01*
X26820690Y-11056880D01*
X27058785Y-11056880D01*
X25534976Y-11056880D02*
X26106404Y-11056880D01*
X25820690Y-11056880D02*
X25820690Y-10056880D01*
X25915928Y-10199738D01*
X26011166Y-10294976D01*
X26106404Y-10342595D01*
X24582595Y-11056880D02*
X25154023Y-11056880D01*
X24868309Y-11056880D02*
X24868309Y-10056880D01*
X24963547Y-10199738D01*
X25058785Y-10294976D01*
X25154023Y-10342595D01*
X24150580Y-59021742D02*
X23674390Y-58688409D01*
X24150580Y-58450314D02*
X23150580Y-58450314D01*
X23150580Y-58831266D01*
X23198200Y-58926504D01*
X23245819Y-58974123D01*
X23341057Y-59021742D01*
X23483914Y-59021742D01*
X23579152Y-58974123D01*
X23626771Y-58926504D01*
X23674390Y-58831266D01*
X23674390Y-58450314D01*
X23150580Y-59355076D02*
X23150580Y-59974123D01*
X23531533Y-59640790D01*
X23531533Y-59783647D01*
X23579152Y-59878885D01*
X23626771Y-59926504D01*
X23722009Y-59974123D01*
X23960104Y-59974123D01*
X24055342Y-59926504D01*
X24102961Y-59878885D01*
X24150580Y-59783647D01*
X24150580Y-59497933D01*
X24102961Y-59402695D01*
X24055342Y-59355076D01*
X23483914Y-60831266D02*
X24150580Y-60831266D01*
X23102961Y-60593171D02*
X23817247Y-60355076D01*
X23817247Y-60974123D01*
X19975580Y-4526466D02*
X20689866Y-4526466D01*
X20832723Y-4478847D01*
X20927961Y-4383609D01*
X20975580Y-4240752D01*
X20975580Y-4145514D01*
X20308914Y-5431228D02*
X20975580Y-5431228D01*
X19927961Y-5193133D02*
X20642247Y-4955038D01*
X20642247Y-5574085D01*
X17968980Y-4670466D02*
X18683266Y-4670466D01*
X18826123Y-4622847D01*
X18921361Y-4527609D01*
X18968980Y-4384752D01*
X18968980Y-4289514D01*
X17968980Y-5575228D02*
X17968980Y-5384752D01*
X18016600Y-5289514D01*
X18064219Y-5241895D01*
X18207076Y-5146657D01*
X18397552Y-5099038D01*
X18778504Y-5099038D01*
X18873742Y-5146657D01*
X18921361Y-5194276D01*
X18968980Y-5289514D01*
X18968980Y-5479990D01*
X18921361Y-5575228D01*
X18873742Y-5622847D01*
X18778504Y-5670466D01*
X18540409Y-5670466D01*
X18445171Y-5622847D01*
X18397552Y-5575228D01*
X18349933Y-5479990D01*
X18349933Y-5289514D01*
X18397552Y-5194276D01*
X18445171Y-5146657D01*
X18540409Y-5099038D01*
X40910780Y-4704266D02*
X41625066Y-4704266D01*
X41767923Y-4656647D01*
X41863161Y-4561409D01*
X41910780Y-4418552D01*
X41910780Y-4323314D01*
X40910780Y-5085219D02*
X40910780Y-5751885D01*
X41910780Y-5323314D01*
X35057580Y-4551866D02*
X35771866Y-4551866D01*
X35914723Y-4504247D01*
X36009961Y-4409009D01*
X36057580Y-4266152D01*
X36057580Y-4170914D01*
X35486152Y-5170914D02*
X35438533Y-5075676D01*
X35390914Y-5028057D01*
X35295676Y-4980438D01*
X35248057Y-4980438D01*
X35152819Y-5028057D01*
X35105200Y-5075676D01*
X35057580Y-5170914D01*
X35057580Y-5361390D01*
X35105200Y-5456628D01*
X35152819Y-5504247D01*
X35248057Y-5551866D01*
X35295676Y-5551866D01*
X35390914Y-5504247D01*
X35438533Y-5456628D01*
X35486152Y-5361390D01*
X35486152Y-5170914D01*
X35533771Y-5075676D01*
X35581390Y-5028057D01*
X35676628Y-4980438D01*
X35867104Y-4980438D01*
X35962342Y-5028057D01*
X36009961Y-5075676D01*
X36057580Y-5170914D01*
X36057580Y-5361390D01*
X36009961Y-5456628D01*
X35962342Y-5504247D01*
X35867104Y-5551866D01*
X35676628Y-5551866D01*
X35581390Y-5504247D01*
X35533771Y-5456628D01*
X35486152Y-5361390D01*
X27185857Y-43537142D02*
X27233476Y-43584761D01*
X27376333Y-43632380D01*
X27471571Y-43632380D01*
X27614428Y-43584761D01*
X27709666Y-43489523D01*
X27757285Y-43394285D01*
X27804904Y-43203809D01*
X27804904Y-43060952D01*
X27757285Y-42870476D01*
X27709666Y-42775238D01*
X27614428Y-42680000D01*
X27471571Y-42632380D01*
X27376333Y-42632380D01*
X27233476Y-42680000D01*
X27185857Y-42727619D01*
X26804904Y-42727619D02*
X26757285Y-42680000D01*
X26662047Y-42632380D01*
X26423952Y-42632380D01*
X26328714Y-42680000D01*
X26281095Y-42727619D01*
X26233476Y-42822857D01*
X26233476Y-42918095D01*
X26281095Y-43060952D01*
X26852523Y-43632380D01*
X26233476Y-43632380D01*
X25281095Y-43632380D02*
X25852523Y-43632380D01*
X25566809Y-43632380D02*
X25566809Y-42632380D01*
X25662047Y-42775238D01*
X25757285Y-42870476D01*
X25852523Y-42918095D01*
X8466057Y-30760942D02*
X8513676Y-30808561D01*
X8656533Y-30856180D01*
X8751771Y-30856180D01*
X8894628Y-30808561D01*
X8989866Y-30713323D01*
X9037485Y-30618085D01*
X9085104Y-30427609D01*
X9085104Y-30284752D01*
X9037485Y-30094276D01*
X8989866Y-29999038D01*
X8894628Y-29903800D01*
X8751771Y-29856180D01*
X8656533Y-29856180D01*
X8513676Y-29903800D01*
X8466057Y-29951419D01*
X8085104Y-29951419D02*
X8037485Y-29903800D01*
X7942247Y-29856180D01*
X7704152Y-29856180D01*
X7608914Y-29903800D01*
X7561295Y-29951419D01*
X7513676Y-30046657D01*
X7513676Y-30141895D01*
X7561295Y-30284752D01*
X8132723Y-30856180D01*
X7513676Y-30856180D01*
X6656533Y-30189514D02*
X6656533Y-30856180D01*
X6894628Y-29808561D02*
X7132723Y-30522847D01*
X6513676Y-30522847D01*
X6884657Y-26798542D02*
X6932276Y-26846161D01*
X7075133Y-26893780D01*
X7170371Y-26893780D01*
X7313228Y-26846161D01*
X7408466Y-26750923D01*
X7456085Y-26655685D01*
X7503704Y-26465209D01*
X7503704Y-26322352D01*
X7456085Y-26131876D01*
X7408466Y-26036638D01*
X7313228Y-25941400D01*
X7170371Y-25893780D01*
X7075133Y-25893780D01*
X6932276Y-25941400D01*
X6884657Y-25989019D01*
X6551323Y-25893780D02*
X5932276Y-25893780D01*
X6265609Y-26274733D01*
X6122752Y-26274733D01*
X6027514Y-26322352D01*
X5979895Y-26369971D01*
X5932276Y-26465209D01*
X5932276Y-26703304D01*
X5979895Y-26798542D01*
X6027514Y-26846161D01*
X6122752Y-26893780D01*
X6408466Y-26893780D01*
X6503704Y-26846161D01*
X6551323Y-26798542D01*
X5313228Y-25893780D02*
X5217990Y-25893780D01*
X5122752Y-25941400D01*
X5075133Y-25989019D01*
X5027514Y-26084257D01*
X4979895Y-26274733D01*
X4979895Y-26512828D01*
X5027514Y-26703304D01*
X5075133Y-26798542D01*
X5122752Y-26846161D01*
X5217990Y-26893780D01*
X5313228Y-26893780D01*
X5408466Y-26846161D01*
X5456085Y-26798542D01*
X5503704Y-26703304D01*
X5551323Y-26512828D01*
X5551323Y-26274733D01*
X5503704Y-26084257D01*
X5456085Y-25989019D01*
X5408466Y-25941400D01*
X5313228Y-25893780D01*
X23502857Y-24550642D02*
X23550476Y-24598261D01*
X23693333Y-24645880D01*
X23788571Y-24645880D01*
X23931428Y-24598261D01*
X24026666Y-24503023D01*
X24074285Y-24407785D01*
X24121904Y-24217309D01*
X24121904Y-24074452D01*
X24074285Y-23883976D01*
X24026666Y-23788738D01*
X23931428Y-23693500D01*
X23788571Y-23645880D01*
X23693333Y-23645880D01*
X23550476Y-23693500D01*
X23502857Y-23741119D01*
X23169523Y-23645880D02*
X22550476Y-23645880D01*
X22883809Y-24026833D01*
X22740952Y-24026833D01*
X22645714Y-24074452D01*
X22598095Y-24122071D01*
X22550476Y-24217309D01*
X22550476Y-24455404D01*
X22598095Y-24550642D01*
X22645714Y-24598261D01*
X22740952Y-24645880D01*
X23026666Y-24645880D01*
X23121904Y-24598261D01*
X23169523Y-24550642D01*
X21598095Y-24645880D02*
X22169523Y-24645880D01*
X21883809Y-24645880D02*
X21883809Y-23645880D01*
X21979047Y-23788738D01*
X22074285Y-23883976D01*
X22169523Y-23931595D01*
X23566357Y-26836642D02*
X23613976Y-26884261D01*
X23756833Y-26931880D01*
X23852071Y-26931880D01*
X23994928Y-26884261D01*
X24090166Y-26789023D01*
X24137785Y-26693785D01*
X24185404Y-26503309D01*
X24185404Y-26360452D01*
X24137785Y-26169976D01*
X24090166Y-26074738D01*
X23994928Y-25979500D01*
X23852071Y-25931880D01*
X23756833Y-25931880D01*
X23613976Y-25979500D01*
X23566357Y-26027119D01*
X23233023Y-25931880D02*
X22613976Y-25931880D01*
X22947309Y-26312833D01*
X22804452Y-26312833D01*
X22709214Y-26360452D01*
X22661595Y-26408071D01*
X22613976Y-26503309D01*
X22613976Y-26741404D01*
X22661595Y-26836642D01*
X22709214Y-26884261D01*
X22804452Y-26931880D01*
X23090166Y-26931880D01*
X23185404Y-26884261D01*
X23233023Y-26836642D01*
X22280642Y-25931880D02*
X21661595Y-25931880D01*
X21994928Y-26312833D01*
X21852071Y-26312833D01*
X21756833Y-26360452D01*
X21709214Y-26408071D01*
X21661595Y-26503309D01*
X21661595Y-26741404D01*
X21709214Y-26836642D01*
X21756833Y-26884261D01*
X21852071Y-26931880D01*
X22137785Y-26931880D01*
X22233023Y-26884261D01*
X22280642Y-26836642D01*
X53157357Y-42076642D02*
X53204976Y-42124261D01*
X53347833Y-42171880D01*
X53443071Y-42171880D01*
X53585928Y-42124261D01*
X53681166Y-42029023D01*
X53728785Y-41933785D01*
X53776404Y-41743309D01*
X53776404Y-41600452D01*
X53728785Y-41409976D01*
X53681166Y-41314738D01*
X53585928Y-41219500D01*
X53443071Y-41171880D01*
X53347833Y-41171880D01*
X53204976Y-41219500D01*
X53157357Y-41267119D01*
X52824023Y-41171880D02*
X52204976Y-41171880D01*
X52538309Y-41552833D01*
X52395452Y-41552833D01*
X52300214Y-41600452D01*
X52252595Y-41648071D01*
X52204976Y-41743309D01*
X52204976Y-41981404D01*
X52252595Y-42076642D01*
X52300214Y-42124261D01*
X52395452Y-42171880D01*
X52681166Y-42171880D01*
X52776404Y-42124261D01*
X52824023Y-42076642D01*
X51300214Y-41171880D02*
X51776404Y-41171880D01*
X51824023Y-41648071D01*
X51776404Y-41600452D01*
X51681166Y-41552833D01*
X51443071Y-41552833D01*
X51347833Y-41600452D01*
X51300214Y-41648071D01*
X51252595Y-41743309D01*
X51252595Y-41981404D01*
X51300214Y-42076642D01*
X51347833Y-42124261D01*
X51443071Y-42171880D01*
X51681166Y-42171880D01*
X51776404Y-42124261D01*
X51824023Y-42076642D01*
X53157357Y-45759642D02*
X53204976Y-45807261D01*
X53347833Y-45854880D01*
X53443071Y-45854880D01*
X53585928Y-45807261D01*
X53681166Y-45712023D01*
X53728785Y-45616785D01*
X53776404Y-45426309D01*
X53776404Y-45283452D01*
X53728785Y-45092976D01*
X53681166Y-44997738D01*
X53585928Y-44902500D01*
X53443071Y-44854880D01*
X53347833Y-44854880D01*
X53204976Y-44902500D01*
X53157357Y-44950119D01*
X52300214Y-45188214D02*
X52300214Y-45854880D01*
X52538309Y-44807261D02*
X52776404Y-45521547D01*
X52157357Y-45521547D01*
X51300214Y-44854880D02*
X51776404Y-44854880D01*
X51824023Y-45331071D01*
X51776404Y-45283452D01*
X51681166Y-45235833D01*
X51443071Y-45235833D01*
X51347833Y-45283452D01*
X51300214Y-45331071D01*
X51252595Y-45426309D01*
X51252595Y-45664404D01*
X51300214Y-45759642D01*
X51347833Y-45807261D01*
X51443071Y-45854880D01*
X51681166Y-45854880D01*
X51776404Y-45807261D01*
X51824023Y-45759642D01*
X53093857Y-43816542D02*
X53141476Y-43864161D01*
X53284333Y-43911780D01*
X53379571Y-43911780D01*
X53522428Y-43864161D01*
X53617666Y-43768923D01*
X53665285Y-43673685D01*
X53712904Y-43483209D01*
X53712904Y-43340352D01*
X53665285Y-43149876D01*
X53617666Y-43054638D01*
X53522428Y-42959400D01*
X53379571Y-42911780D01*
X53284333Y-42911780D01*
X53141476Y-42959400D01*
X53093857Y-43007019D01*
X52236714Y-43245114D02*
X52236714Y-43911780D01*
X52474809Y-42864161D02*
X52712904Y-43578447D01*
X52093857Y-43578447D01*
X51808142Y-42911780D02*
X51141476Y-42911780D01*
X51570047Y-43911780D01*
X44762657Y-30710142D02*
X44810276Y-30757761D01*
X44953133Y-30805380D01*
X45048371Y-30805380D01*
X45191228Y-30757761D01*
X45286466Y-30662523D01*
X45334085Y-30567285D01*
X45381704Y-30376809D01*
X45381704Y-30233952D01*
X45334085Y-30043476D01*
X45286466Y-29948238D01*
X45191228Y-29853000D01*
X45048371Y-29805380D01*
X44953133Y-29805380D01*
X44810276Y-29853000D01*
X44762657Y-29900619D01*
X43857895Y-29805380D02*
X44334085Y-29805380D01*
X44381704Y-30281571D01*
X44334085Y-30233952D01*
X44238847Y-30186333D01*
X44000752Y-30186333D01*
X43905514Y-30233952D01*
X43857895Y-30281571D01*
X43810276Y-30376809D01*
X43810276Y-30614904D01*
X43857895Y-30710142D01*
X43905514Y-30757761D01*
X44000752Y-30805380D01*
X44238847Y-30805380D01*
X44334085Y-30757761D01*
X44381704Y-30710142D01*
X43191228Y-29805380D02*
X43095990Y-29805380D01*
X43000752Y-29853000D01*
X42953133Y-29900619D01*
X42905514Y-29995857D01*
X42857895Y-30186333D01*
X42857895Y-30424428D01*
X42905514Y-30614904D01*
X42953133Y-30710142D01*
X43000752Y-30757761D01*
X43095990Y-30805380D01*
X43191228Y-30805380D01*
X43286466Y-30757761D01*
X43334085Y-30710142D01*
X43381704Y-30614904D01*
X43429323Y-30424428D01*
X43429323Y-30186333D01*
X43381704Y-29995857D01*
X43334085Y-29900619D01*
X43286466Y-29853000D01*
X43191228Y-29805380D01*
X58370050Y-30461495D02*
X58417669Y-30509114D01*
X58560526Y-30556733D01*
X58655764Y-30556733D01*
X58798621Y-30509114D01*
X58893859Y-30413876D01*
X58941478Y-30318638D01*
X58989097Y-30128162D01*
X58989097Y-29985305D01*
X58941478Y-29794829D01*
X58893859Y-29699591D01*
X58798621Y-29604353D01*
X58655764Y-29556733D01*
X58560526Y-29556733D01*
X58417669Y-29604353D01*
X58370050Y-29651972D01*
X57465288Y-29556733D02*
X57941478Y-29556733D01*
X57989097Y-30032924D01*
X57941478Y-29985305D01*
X57846240Y-29937686D01*
X57608145Y-29937686D01*
X57512907Y-29985305D01*
X57465288Y-30032924D01*
X57417669Y-30128162D01*
X57417669Y-30366257D01*
X57465288Y-30461495D01*
X57512907Y-30509114D01*
X57608145Y-30556733D01*
X57846240Y-30556733D01*
X57941478Y-30509114D01*
X57989097Y-30461495D01*
X56465288Y-30556733D02*
X57036716Y-30556733D01*
X56751002Y-30556733D02*
X56751002Y-29556733D01*
X56846240Y-29699591D01*
X56941478Y-29794829D01*
X57036716Y-29842448D01*
X44711857Y-28754342D02*
X44759476Y-28801961D01*
X44902333Y-28849580D01*
X44997571Y-28849580D01*
X45140428Y-28801961D01*
X45235666Y-28706723D01*
X45283285Y-28611485D01*
X45330904Y-28421009D01*
X45330904Y-28278152D01*
X45283285Y-28087676D01*
X45235666Y-27992438D01*
X45140428Y-27897200D01*
X44997571Y-27849580D01*
X44902333Y-27849580D01*
X44759476Y-27897200D01*
X44711857Y-27944819D01*
X43807095Y-27849580D02*
X44283285Y-27849580D01*
X44330904Y-28325771D01*
X44283285Y-28278152D01*
X44188047Y-28230533D01*
X43949952Y-28230533D01*
X43854714Y-28278152D01*
X43807095Y-28325771D01*
X43759476Y-28421009D01*
X43759476Y-28659104D01*
X43807095Y-28754342D01*
X43854714Y-28801961D01*
X43949952Y-28849580D01*
X44188047Y-28849580D01*
X44283285Y-28801961D01*
X44330904Y-28754342D01*
X43378523Y-27944819D02*
X43330904Y-27897200D01*
X43235666Y-27849580D01*
X42997571Y-27849580D01*
X42902333Y-27897200D01*
X42854714Y-27944819D01*
X42807095Y-28040057D01*
X42807095Y-28135295D01*
X42854714Y-28278152D01*
X43426142Y-28849580D01*
X42807095Y-28849580D01*
X58553250Y-28607295D02*
X58600869Y-28654914D01*
X58743726Y-28702533D01*
X58838964Y-28702533D01*
X58981821Y-28654914D01*
X59077059Y-28559676D01*
X59124678Y-28464438D01*
X59172297Y-28273962D01*
X59172297Y-28131105D01*
X59124678Y-27940629D01*
X59077059Y-27845391D01*
X58981821Y-27750153D01*
X58838964Y-27702533D01*
X58743726Y-27702533D01*
X58600869Y-27750153D01*
X58553250Y-27797772D01*
X57648488Y-27702533D02*
X58124678Y-27702533D01*
X58172297Y-28178724D01*
X58124678Y-28131105D01*
X58029440Y-28083486D01*
X57791345Y-28083486D01*
X57696107Y-28131105D01*
X57648488Y-28178724D01*
X57600869Y-28273962D01*
X57600869Y-28512057D01*
X57648488Y-28607295D01*
X57696107Y-28654914D01*
X57791345Y-28702533D01*
X58029440Y-28702533D01*
X58124678Y-28654914D01*
X58172297Y-28607295D01*
X57267535Y-27702533D02*
X56648488Y-27702533D01*
X56981821Y-28083486D01*
X56838964Y-28083486D01*
X56743726Y-28131105D01*
X56696107Y-28178724D01*
X56648488Y-28273962D01*
X56648488Y-28512057D01*
X56696107Y-28607295D01*
X56743726Y-28654914D01*
X56838964Y-28702533D01*
X57124678Y-28702533D01*
X57219916Y-28654914D01*
X57267535Y-28607295D01*
X43365657Y-24385542D02*
X43413276Y-24433161D01*
X43556133Y-24480780D01*
X43651371Y-24480780D01*
X43794228Y-24433161D01*
X43889466Y-24337923D01*
X43937085Y-24242685D01*
X43984704Y-24052209D01*
X43984704Y-23909352D01*
X43937085Y-23718876D01*
X43889466Y-23623638D01*
X43794228Y-23528400D01*
X43651371Y-23480780D01*
X43556133Y-23480780D01*
X43413276Y-23528400D01*
X43365657Y-23576019D01*
X42460895Y-23480780D02*
X42937085Y-23480780D01*
X42984704Y-23956971D01*
X42937085Y-23909352D01*
X42841847Y-23861733D01*
X42603752Y-23861733D01*
X42508514Y-23909352D01*
X42460895Y-23956971D01*
X42413276Y-24052209D01*
X42413276Y-24290304D01*
X42460895Y-24385542D01*
X42508514Y-24433161D01*
X42603752Y-24480780D01*
X42841847Y-24480780D01*
X42937085Y-24433161D01*
X42984704Y-24385542D01*
X41556133Y-23814114D02*
X41556133Y-24480780D01*
X41794228Y-23433161D02*
X42032323Y-24147447D01*
X41413276Y-24147447D01*
X59316857Y-26646142D02*
X59364476Y-26693761D01*
X59507333Y-26741380D01*
X59602571Y-26741380D01*
X59745428Y-26693761D01*
X59840666Y-26598523D01*
X59888285Y-26503285D01*
X59935904Y-26312809D01*
X59935904Y-26169952D01*
X59888285Y-25979476D01*
X59840666Y-25884238D01*
X59745428Y-25789000D01*
X59602571Y-25741380D01*
X59507333Y-25741380D01*
X59364476Y-25789000D01*
X59316857Y-25836619D01*
X58412095Y-25741380D02*
X58888285Y-25741380D01*
X58935904Y-26217571D01*
X58888285Y-26169952D01*
X58793047Y-26122333D01*
X58554952Y-26122333D01*
X58459714Y-26169952D01*
X58412095Y-26217571D01*
X58364476Y-26312809D01*
X58364476Y-26550904D01*
X58412095Y-26646142D01*
X58459714Y-26693761D01*
X58554952Y-26741380D01*
X58793047Y-26741380D01*
X58888285Y-26693761D01*
X58935904Y-26646142D01*
X57459714Y-25741380D02*
X57935904Y-25741380D01*
X57983523Y-26217571D01*
X57935904Y-26169952D01*
X57840666Y-26122333D01*
X57602571Y-26122333D01*
X57507333Y-26169952D01*
X57459714Y-26217571D01*
X57412095Y-26312809D01*
X57412095Y-26550904D01*
X57459714Y-26646142D01*
X57507333Y-26693761D01*
X57602571Y-26741380D01*
X57840666Y-26741380D01*
X57935904Y-26693761D01*
X57983523Y-26646142D01*
X43391057Y-26544542D02*
X43438676Y-26592161D01*
X43581533Y-26639780D01*
X43676771Y-26639780D01*
X43819628Y-26592161D01*
X43914866Y-26496923D01*
X43962485Y-26401685D01*
X44010104Y-26211209D01*
X44010104Y-26068352D01*
X43962485Y-25877876D01*
X43914866Y-25782638D01*
X43819628Y-25687400D01*
X43676771Y-25639780D01*
X43581533Y-25639780D01*
X43438676Y-25687400D01*
X43391057Y-25735019D01*
X42486295Y-25639780D02*
X42962485Y-25639780D01*
X43010104Y-26115971D01*
X42962485Y-26068352D01*
X42867247Y-26020733D01*
X42629152Y-26020733D01*
X42533914Y-26068352D01*
X42486295Y-26115971D01*
X42438676Y-26211209D01*
X42438676Y-26449304D01*
X42486295Y-26544542D01*
X42533914Y-26592161D01*
X42629152Y-26639780D01*
X42867247Y-26639780D01*
X42962485Y-26592161D01*
X43010104Y-26544542D01*
X41581533Y-25639780D02*
X41772009Y-25639780D01*
X41867247Y-25687400D01*
X41914866Y-25735019D01*
X42010104Y-25877876D01*
X42057723Y-26068352D01*
X42057723Y-26449304D01*
X42010104Y-26544542D01*
X41962485Y-26592161D01*
X41867247Y-26639780D01*
X41676771Y-26639780D01*
X41581533Y-26592161D01*
X41533914Y-26544542D01*
X41486295Y-26449304D01*
X41486295Y-26211209D01*
X41533914Y-26115971D01*
X41581533Y-26068352D01*
X41676771Y-26020733D01*
X41867247Y-26020733D01*
X41962485Y-26068352D01*
X42010104Y-26115971D01*
X42057723Y-26211209D01*
X59380357Y-24296642D02*
X59427976Y-24344261D01*
X59570833Y-24391880D01*
X59666071Y-24391880D01*
X59808928Y-24344261D01*
X59904166Y-24249023D01*
X59951785Y-24153785D01*
X59999404Y-23963309D01*
X59999404Y-23820452D01*
X59951785Y-23629976D01*
X59904166Y-23534738D01*
X59808928Y-23439500D01*
X59666071Y-23391880D01*
X59570833Y-23391880D01*
X59427976Y-23439500D01*
X59380357Y-23487119D01*
X58475595Y-23391880D02*
X58951785Y-23391880D01*
X58999404Y-23868071D01*
X58951785Y-23820452D01*
X58856547Y-23772833D01*
X58618452Y-23772833D01*
X58523214Y-23820452D01*
X58475595Y-23868071D01*
X58427976Y-23963309D01*
X58427976Y-24201404D01*
X58475595Y-24296642D01*
X58523214Y-24344261D01*
X58618452Y-24391880D01*
X58856547Y-24391880D01*
X58951785Y-24344261D01*
X58999404Y-24296642D01*
X58094642Y-23391880D02*
X57427976Y-23391880D01*
X57856547Y-24391880D01*
X37478951Y-13751069D02*
X37526570Y-13798688D01*
X37669427Y-13846307D01*
X37764665Y-13846307D01*
X37907522Y-13798688D01*
X38002760Y-13703450D01*
X38050379Y-13608212D01*
X38097998Y-13417736D01*
X38097998Y-13274879D01*
X38050379Y-13084403D01*
X38002760Y-12989165D01*
X37907522Y-12893927D01*
X37764665Y-12846307D01*
X37669427Y-12846307D01*
X37526570Y-12893927D01*
X37478951Y-12941546D01*
X36574189Y-12846307D02*
X37050379Y-12846307D01*
X37097998Y-13322498D01*
X37050379Y-13274879D01*
X36955141Y-13227260D01*
X36717046Y-13227260D01*
X36621808Y-13274879D01*
X36574189Y-13322498D01*
X36526570Y-13417736D01*
X36526570Y-13655831D01*
X36574189Y-13751069D01*
X36621808Y-13798688D01*
X36717046Y-13846307D01*
X36955141Y-13846307D01*
X37050379Y-13798688D01*
X37097998Y-13751069D01*
X35955141Y-13274879D02*
X36050379Y-13227260D01*
X36097998Y-13179641D01*
X36145617Y-13084403D01*
X36145617Y-13036784D01*
X36097998Y-12941546D01*
X36050379Y-12893927D01*
X35955141Y-12846307D01*
X35764665Y-12846307D01*
X35669427Y-12893927D01*
X35621808Y-12941546D01*
X35574189Y-13036784D01*
X35574189Y-13084403D01*
X35621808Y-13179641D01*
X35669427Y-13227260D01*
X35764665Y-13274879D01*
X35955141Y-13274879D01*
X36050379Y-13322498D01*
X36097998Y-13370117D01*
X36145617Y-13465355D01*
X36145617Y-13655831D01*
X36097998Y-13751069D01*
X36050379Y-13798688D01*
X35955141Y-13846307D01*
X35764665Y-13846307D01*
X35669427Y-13798688D01*
X35621808Y-13751069D01*
X35574189Y-13655831D01*
X35574189Y-13465355D01*
X35621808Y-13370117D01*
X35669427Y-13322498D01*
X35764665Y-13274879D01*
X36139285Y-11056880D02*
X36139285Y-10056880D01*
X35901190Y-10056880D01*
X35758333Y-10104500D01*
X35663095Y-10199738D01*
X35615476Y-10294976D01*
X35567857Y-10485452D01*
X35567857Y-10628309D01*
X35615476Y-10818785D01*
X35663095Y-10914023D01*
X35758333Y-11009261D01*
X35901190Y-11056880D01*
X36139285Y-11056880D01*
X35186904Y-10152119D02*
X35139285Y-10104500D01*
X35044047Y-10056880D01*
X34805952Y-10056880D01*
X34710714Y-10104500D01*
X34663095Y-10152119D01*
X34615476Y-10247357D01*
X34615476Y-10342595D01*
X34663095Y-10485452D01*
X35234523Y-11056880D01*
X34615476Y-11056880D01*
X33996428Y-10056880D02*
X33901190Y-10056880D01*
X33805952Y-10104500D01*
X33758333Y-10152119D01*
X33710714Y-10247357D01*
X33663095Y-10437833D01*
X33663095Y-10675928D01*
X33710714Y-10866404D01*
X33758333Y-10961642D01*
X33805952Y-11009261D01*
X33901190Y-11056880D01*
X33996428Y-11056880D01*
X34091666Y-11009261D01*
X34139285Y-10961642D01*
X34186904Y-10866404D01*
X34234523Y-10675928D01*
X34234523Y-10437833D01*
X34186904Y-10247357D01*
X34139285Y-10152119D01*
X34091666Y-10104500D01*
X33996428Y-10056880D01*
X17724380Y-37139642D02*
X17248190Y-36806309D01*
X17724380Y-36568214D02*
X16724380Y-36568214D01*
X16724380Y-36949166D01*
X16772000Y-37044404D01*
X16819619Y-37092023D01*
X16914857Y-37139642D01*
X17057714Y-37139642D01*
X17152952Y-37092023D01*
X17200571Y-37044404D01*
X17248190Y-36949166D01*
X17248190Y-36568214D01*
X17724380Y-38092023D02*
X17724380Y-37520595D01*
X17724380Y-37806309D02*
X16724380Y-37806309D01*
X16867238Y-37711071D01*
X16962476Y-37615833D01*
X17010095Y-37520595D01*
X16819619Y-38472976D02*
X16772000Y-38520595D01*
X16724380Y-38615833D01*
X16724380Y-38853928D01*
X16772000Y-38949166D01*
X16819619Y-38996785D01*
X16914857Y-39044404D01*
X17010095Y-39044404D01*
X17152952Y-38996785D01*
X17724380Y-38425357D01*
X17724380Y-39044404D01*
X12441180Y-37076142D02*
X11964990Y-36742809D01*
X12441180Y-36504714D02*
X11441180Y-36504714D01*
X11441180Y-36885666D01*
X11488800Y-36980904D01*
X11536419Y-37028523D01*
X11631657Y-37076142D01*
X11774514Y-37076142D01*
X11869752Y-37028523D01*
X11917371Y-36980904D01*
X11964990Y-36885666D01*
X11964990Y-36504714D01*
X12441180Y-38028523D02*
X12441180Y-37457095D01*
X12441180Y-37742809D02*
X11441180Y-37742809D01*
X11584038Y-37647571D01*
X11679276Y-37552333D01*
X11726895Y-37457095D01*
X11441180Y-38361857D02*
X11441180Y-38980904D01*
X11822133Y-38647571D01*
X11822133Y-38790428D01*
X11869752Y-38885666D01*
X11917371Y-38933285D01*
X12012609Y-38980904D01*
X12250704Y-38980904D01*
X12345942Y-38933285D01*
X12393561Y-38885666D01*
X12441180Y-38790428D01*
X12441180Y-38504714D01*
X12393561Y-38409476D01*
X12345942Y-38361857D01*
X24493457Y-15666980D02*
X24826790Y-15190790D01*
X25064885Y-15666980D02*
X25064885Y-14666980D01*
X24683933Y-14666980D01*
X24588695Y-14714600D01*
X24541076Y-14762219D01*
X24493457Y-14857457D01*
X24493457Y-15000314D01*
X24541076Y-15095552D01*
X24588695Y-15143171D01*
X24683933Y-15190790D01*
X25064885Y-15190790D01*
X24112504Y-14762219D02*
X24064885Y-14714600D01*
X23969647Y-14666980D01*
X23731552Y-14666980D01*
X23636314Y-14714600D01*
X23588695Y-14762219D01*
X23541076Y-14857457D01*
X23541076Y-14952695D01*
X23588695Y-15095552D01*
X24160123Y-15666980D01*
X23541076Y-15666980D01*
X22683933Y-15000314D02*
X22683933Y-15666980D01*
X22922028Y-14619361D02*
X23160123Y-15333647D01*
X22541076Y-15333647D01*
X48587180Y-37355542D02*
X48110990Y-37022209D01*
X48587180Y-36784114D02*
X47587180Y-36784114D01*
X47587180Y-37165066D01*
X47634800Y-37260304D01*
X47682419Y-37307923D01*
X47777657Y-37355542D01*
X47920514Y-37355542D01*
X48015752Y-37307923D01*
X48063371Y-37260304D01*
X48110990Y-37165066D01*
X48110990Y-36784114D01*
X47587180Y-37688876D02*
X47587180Y-38307923D01*
X47968133Y-37974590D01*
X47968133Y-38117447D01*
X48015752Y-38212685D01*
X48063371Y-38260304D01*
X48158609Y-38307923D01*
X48396704Y-38307923D01*
X48491942Y-38260304D01*
X48539561Y-38212685D01*
X48587180Y-38117447D01*
X48587180Y-37831733D01*
X48539561Y-37736495D01*
X48491942Y-37688876D01*
X47587180Y-39212685D02*
X47587180Y-38736495D01*
X48063371Y-38688876D01*
X48015752Y-38736495D01*
X47968133Y-38831733D01*
X47968133Y-39069828D01*
X48015752Y-39165066D01*
X48063371Y-39212685D01*
X48158609Y-39260304D01*
X48396704Y-39260304D01*
X48491942Y-39212685D01*
X48539561Y-39165066D01*
X48587180Y-39069828D01*
X48587180Y-38831733D01*
X48539561Y-38736495D01*
X48491942Y-38688876D01*
X37580551Y-15675107D02*
X37913884Y-15198917D01*
X38151979Y-15675107D02*
X38151979Y-14675107D01*
X37771027Y-14675107D01*
X37675789Y-14722727D01*
X37628170Y-14770346D01*
X37580551Y-14865584D01*
X37580551Y-15008441D01*
X37628170Y-15103679D01*
X37675789Y-15151298D01*
X37771027Y-15198917D01*
X38151979Y-15198917D01*
X36723408Y-15008441D02*
X36723408Y-15675107D01*
X36961503Y-14627488D02*
X37199598Y-15341774D01*
X36580551Y-15341774D01*
X36009122Y-14675107D02*
X35913884Y-14675107D01*
X35818646Y-14722727D01*
X35771027Y-14770346D01*
X35723408Y-14865584D01*
X35675789Y-15056060D01*
X35675789Y-15294155D01*
X35723408Y-15484631D01*
X35771027Y-15579869D01*
X35818646Y-15627488D01*
X35913884Y-15675107D01*
X36009122Y-15675107D01*
X36104360Y-15627488D01*
X36151979Y-15579869D01*
X36199598Y-15484631D01*
X36247217Y-15294155D01*
X36247217Y-15056060D01*
X36199598Y-14865584D01*
X36151979Y-14770346D01*
X36104360Y-14722727D01*
X36009122Y-14675107D01*
X11094885Y-2549780D02*
X11094885Y-1549780D01*
X10856790Y-1549780D01*
X10713933Y-1597400D01*
X10618695Y-1692638D01*
X10571076Y-1787876D01*
X10523457Y-1978352D01*
X10523457Y-2121209D01*
X10571076Y-2311685D01*
X10618695Y-2406923D01*
X10713933Y-2502161D01*
X10856790Y-2549780D01*
X11094885Y-2549780D01*
X9571076Y-2549780D02*
X10142504Y-2549780D01*
X9856790Y-2549780D02*
X9856790Y-1549780D01*
X9952028Y-1692638D01*
X10047266Y-1787876D01*
X10142504Y-1835495D01*
X8713933Y-1549780D02*
X8904409Y-1549780D01*
X8999647Y-1597400D01*
X9047266Y-1645019D01*
X9142504Y-1787876D01*
X9190123Y-1978352D01*
X9190123Y-2359304D01*
X9142504Y-2454542D01*
X9094885Y-2502161D01*
X8999647Y-2549780D01*
X8809171Y-2549780D01*
X8713933Y-2502161D01*
X8666314Y-2454542D01*
X8618695Y-2359304D01*
X8618695Y-2121209D01*
X8666314Y-2025971D01*
X8713933Y-1978352D01*
X8809171Y-1930733D01*
X8999647Y-1930733D01*
X9094885Y-1978352D01*
X9142504Y-2025971D01*
X9190123Y-2121209D01*
X31313285Y-2103380D02*
X31313285Y-1103380D01*
X31075190Y-1103380D01*
X30932333Y-1151000D01*
X30837095Y-1246238D01*
X30789476Y-1341476D01*
X30741857Y-1531952D01*
X30741857Y-1674809D01*
X30789476Y-1865285D01*
X30837095Y-1960523D01*
X30932333Y-2055761D01*
X31075190Y-2103380D01*
X31313285Y-2103380D01*
X30360904Y-1198619D02*
X30313285Y-1151000D01*
X30218047Y-1103380D01*
X29979952Y-1103380D01*
X29884714Y-1151000D01*
X29837095Y-1198619D01*
X29789476Y-1293857D01*
X29789476Y-1389095D01*
X29837095Y-1531952D01*
X30408523Y-2103380D01*
X29789476Y-2103380D01*
X29408523Y-1198619D02*
X29360904Y-1151000D01*
X29265666Y-1103380D01*
X29027571Y-1103380D01*
X28932333Y-1151000D01*
X28884714Y-1198619D01*
X28837095Y-1293857D01*
X28837095Y-1389095D01*
X28884714Y-1531952D01*
X29456142Y-2103380D01*
X28837095Y-2103380D01*
X33806342Y-42835533D02*
X33853961Y-42787914D01*
X33901580Y-42645057D01*
X33901580Y-42549819D01*
X33853961Y-42406961D01*
X33758723Y-42311723D01*
X33663485Y-42264104D01*
X33473009Y-42216485D01*
X33330152Y-42216485D01*
X33139676Y-42264104D01*
X33044438Y-42311723D01*
X32949200Y-42406961D01*
X32901580Y-42549819D01*
X32901580Y-42645057D01*
X32949200Y-42787914D01*
X32996819Y-42835533D01*
X33901580Y-43311723D02*
X33901580Y-43502200D01*
X33853961Y-43597438D01*
X33806342Y-43645057D01*
X33663485Y-43740295D01*
X33473009Y-43787914D01*
X33092057Y-43787914D01*
X32996819Y-43740295D01*
X32949200Y-43692676D01*
X32901580Y-43597438D01*
X32901580Y-43406961D01*
X32949200Y-43311723D01*
X32996819Y-43264104D01*
X33092057Y-43216485D01*
X33330152Y-43216485D01*
X33425390Y-43264104D01*
X33473009Y-43311723D01*
X33520628Y-43406961D01*
X33520628Y-43597438D01*
X33473009Y-43692676D01*
X33425390Y-43740295D01*
X33330152Y-43787914D01*
M02*
