G04 #@! TF.GenerationSoftware,KiCad,Pcbnew,no-vcs-found-e062780~61~ubuntu17.10.1*
G04 #@! TF.CreationDate,2018-01-03T10:37:01-05:00*
G04 #@! TF.ProjectId,ENNOID Dual Gate Driver,454E4E4F4944204475616C2047617465,rev?*
G04 #@! TF.SameCoordinates,Original*
G04 #@! TF.FileFunction,Soldermask,Top*
G04 #@! TF.FilePolarity,Negative*
%FSLAX46Y46*%
G04 Gerber Fmt 4.6, Leading zero omitted, Abs format (unit mm)*
G04 Created by KiCad (PCBNEW no-vcs-found-e062780~61~ubuntu17.10.1) date Wed Jan  3 10:37:01 2018*
%MOMM*%
%LPD*%
G01*
G04 APERTURE LIST*
%ADD10C,6.100000*%
%ADD11C,2.100000*%
%ADD12R,2.100000X2.100000*%
%ADD13R,2.400000X2.900000*%
%ADD14R,1.900000X1.650000*%
%ADD15R,1.650000X1.900000*%
%ADD16R,1.600000X1.300000*%
%ADD17O,3.000000X2.400000*%
%ADD18R,3.000000X2.400000*%
%ADD19R,1.700000X1.900000*%
%ADD20R,1.900000X1.700000*%
%ADD21R,1.000000X1.900000*%
%ADD22R,6.800000X6.200000*%
%ADD23R,2.600000X1.600000*%
%ADD24C,3.400000*%
%ADD25R,1.040000X2.305000*%
%ADD26R,1.350000X1.650000*%
%ADD27O,1.900000X1.900000*%
%ADD28R,1.900000X1.900000*%
%ADD29R,2.400000X2.000000*%
%ADD30R,1.400000X1.400000*%
%ADD31R,3.600000X3.100000*%
%ADD32R,0.850000X1.000000*%
%ADD33R,2.600000X2.600000*%
%ADD34O,2.600000X2.600000*%
%ADD35R,2.900000X3.700000*%
%ADD36R,3.700000X2.900000*%
%ADD37R,6.200000X6.800000*%
%ADD38R,1.600000X2.600000*%
G04 APERTURE END LIST*
D10*
X55000000Y-93000000D03*
D11*
X38887400Y-91478100D03*
X38887400Y-94018100D03*
X36347400Y-91478100D03*
X36347400Y-94018100D03*
X33807400Y-91478100D03*
X33807400Y-94018100D03*
X31267400Y-91478100D03*
X31267400Y-94018100D03*
X28727400Y-91478100D03*
X28727400Y-94018100D03*
X26187400Y-91478100D03*
X26187400Y-94018100D03*
X23647400Y-91478100D03*
X23647400Y-94018100D03*
X21107400Y-91478100D03*
D12*
X21107400Y-94018100D03*
D13*
X52495200Y-72618600D03*
X48495200Y-72618600D03*
D14*
X48254600Y-75158600D03*
X50754600Y-75158600D03*
X52598000Y-84848700D03*
X55098000Y-84848700D03*
X55098000Y-86842600D03*
X52598000Y-86842600D03*
X15260000Y-43230800D03*
X17760000Y-43230800D03*
X17760000Y-45059600D03*
X15260000Y-45059600D03*
D15*
X3454400Y-34772600D03*
X3454400Y-32272600D03*
D14*
X51567400Y-45212000D03*
X49067400Y-45212000D03*
D15*
X33680400Y-41677600D03*
X33680400Y-44177600D03*
D14*
X52572600Y-88773000D03*
X55072600Y-88773000D03*
X46273400Y-86334600D03*
X48773400Y-86334600D03*
D16*
X21412200Y-62180200D03*
X21412200Y-65480200D03*
D17*
X11734800Y-95834200D03*
X11734800Y-93294200D03*
X11734800Y-90754200D03*
D18*
X11734800Y-88214200D03*
D17*
X48183800Y-95783400D03*
D18*
X48183800Y-93243400D03*
D19*
X15468600Y-65180200D03*
X15468600Y-62480200D03*
X19278600Y-65180200D03*
X19278600Y-62480200D03*
X13563600Y-65180200D03*
X13563600Y-62480200D03*
X17373600Y-62480200D03*
X17373600Y-65180200D03*
X49428400Y-62531000D03*
X49428400Y-65231000D03*
X53365400Y-62505600D03*
X53365400Y-65205600D03*
X47523400Y-62531000D03*
X47523400Y-65231000D03*
X51435000Y-62505600D03*
X51435000Y-65205600D03*
D20*
X30019000Y-30835600D03*
X32719000Y-30835600D03*
D19*
X31685800Y-44277600D03*
X31685800Y-41577600D03*
X29685800Y-41577600D03*
X29685800Y-44277600D03*
D20*
X48873400Y-90144600D03*
X46173400Y-90144600D03*
X48873400Y-88239600D03*
X46173400Y-88239600D03*
X21613400Y-80403800D03*
X24313400Y-80403800D03*
X12582605Y-80452572D03*
X15282605Y-80452572D03*
D19*
X41503600Y-86440000D03*
X41503600Y-83740000D03*
D21*
X21648200Y-57577600D03*
X20378200Y-57577600D03*
X19108200Y-57577600D03*
X17838200Y-57577600D03*
X16568200Y-57577600D03*
X15298200Y-57577600D03*
X14028200Y-57577600D03*
X12758200Y-57577600D03*
X12758200Y-48277600D03*
X14028200Y-48277600D03*
X15298200Y-48277600D03*
X16568200Y-48277600D03*
X17838200Y-48277600D03*
X19108200Y-48277600D03*
X20378200Y-48277600D03*
X21648200Y-48277600D03*
D22*
X54957400Y-79758600D03*
D23*
X48657400Y-82038600D03*
X48657400Y-79758600D03*
X48657400Y-77478600D03*
D24*
X22500000Y-6830000D03*
X22500000Y-3170000D03*
X2500000Y-5170000D03*
X2500000Y-8830000D03*
X16500000Y-6830000D03*
X16500000Y-3170000D03*
X43500000Y-6830000D03*
X43500000Y-3170000D03*
X37500000Y-3170000D03*
X37500000Y-6830000D03*
D25*
X32893000Y-47580100D03*
X31623000Y-47580100D03*
X30353000Y-47580100D03*
X29083000Y-47580100D03*
X29083000Y-58275100D03*
X30353000Y-58275100D03*
X31623000Y-58275100D03*
X32893000Y-58275100D03*
D26*
X5604000Y-69659600D03*
X7604000Y-69659600D03*
X7604000Y-64909600D03*
X5604000Y-64909600D03*
X39767000Y-64985800D03*
X41767000Y-64985800D03*
X41767000Y-69735800D03*
X39767000Y-69735800D03*
D27*
X3203200Y-44687600D03*
X3203200Y-47227600D03*
X3203200Y-49767600D03*
X3203200Y-57387600D03*
D28*
X3203200Y-59927600D03*
D27*
X37203200Y-44687600D03*
X37203200Y-47227600D03*
X37203200Y-49767600D03*
X37203200Y-57387600D03*
D28*
X37203200Y-59927600D03*
D19*
X25378800Y-61016400D03*
X25378800Y-58316400D03*
D29*
X12732000Y-32435800D03*
X16732000Y-32435800D03*
D14*
X49067400Y-43383200D03*
X51567400Y-43383200D03*
D15*
X33477200Y-36911600D03*
X33477200Y-34411600D03*
D29*
X52749200Y-32334200D03*
X48749200Y-32334200D03*
D30*
X1524000Y-32303400D03*
X1524000Y-34803400D03*
D16*
X55549800Y-65505600D03*
X55549800Y-62205600D03*
D30*
X31496000Y-36708400D03*
X31496000Y-34208400D03*
D20*
X17860000Y-41351200D03*
X15160000Y-41351200D03*
D31*
X9042400Y-18428000D03*
X9042400Y-10528000D03*
X12827000Y-10528000D03*
X12827000Y-18428000D03*
X20472400Y-18402600D03*
X20472400Y-10502600D03*
X16687800Y-10502600D03*
X16687800Y-18402600D03*
D20*
X48992800Y-41554400D03*
X51692800Y-41554400D03*
D31*
X48945800Y-10350200D03*
X48945800Y-18250200D03*
X45110400Y-18250200D03*
X45110400Y-10350200D03*
X52755800Y-18275600D03*
X52755800Y-10375600D03*
X56591200Y-10375600D03*
X56591200Y-18275600D03*
D32*
X5359400Y-34603400D03*
X5359400Y-32503400D03*
X29514800Y-34332200D03*
X29514800Y-36432200D03*
D21*
X55648200Y-57577600D03*
X54378200Y-57577600D03*
X53108200Y-57577600D03*
X51838200Y-57577600D03*
X50568200Y-57577600D03*
X49298200Y-57577600D03*
X48028200Y-57577600D03*
X46758200Y-57577600D03*
X46758200Y-48277600D03*
X48028200Y-48277600D03*
X49298200Y-48277600D03*
X50568200Y-48277600D03*
X51838200Y-48277600D03*
X53108200Y-48277600D03*
X54378200Y-48277600D03*
X55648200Y-48277600D03*
D33*
X2235200Y-16179800D03*
D34*
X2235200Y-28879800D03*
X30000000Y-28457800D03*
D33*
X30000000Y-15757800D03*
D35*
X6099600Y-4749800D03*
X12899600Y-4749800D03*
D36*
X30000000Y-3813600D03*
X30000000Y-10613600D03*
D37*
X10693400Y-27804800D03*
D38*
X8413400Y-21504800D03*
X12973400Y-21504800D03*
X21101400Y-21479400D03*
X16541400Y-21479400D03*
D37*
X18821400Y-27779400D03*
D38*
X49041400Y-21352400D03*
X44481400Y-21352400D03*
D37*
X46761400Y-27652400D03*
X54940200Y-27677800D03*
D38*
X52660200Y-21377800D03*
X57220200Y-21377800D03*
D10*
X5000000Y-93000000D03*
M02*
