G04 #@! TF.GenerationSoftware,KiCad,Pcbnew,no-vcs-found-c6d0075~61~ubuntu17.10.1*
G04 #@! TF.CreationDate,2018-02-01T09:34:47-05:00*
G04 #@! TF.ProjectId,ENNOID Dual Gate Driver,454E4E4F4944204475616C2047617465,rev?*
G04 #@! TF.SameCoordinates,Original*
G04 #@! TF.FileFunction,Copper,L2,Bot,Signal*
G04 #@! TF.FilePolarity,Positive*
%FSLAX46Y46*%
G04 Gerber Fmt 4.6, Leading zero omitted, Abs format (unit mm)*
G04 Created by KiCad (PCBNEW no-vcs-found-c6d0075~61~ubuntu17.10.1) date Thu Feb  1 09:34:47 2018*
%MOMM*%
%LPD*%
G01*
G04 APERTURE LIST*
%ADD10C,5.500000*%
%ADD11R,1.000000X1.000000*%
%ADD12C,1.700000*%
%ADD13R,1.700000X1.700000*%
%ADD14R,1.500000X1.250000*%
%ADD15R,1.500000X1.300000*%
%ADD16R,1.250000X1.500000*%
%ADD17R,2.000000X1.600000*%
%ADD18O,2.600000X2.000000*%
%ADD19R,2.600000X2.000000*%
%ADD20R,1.300000X1.500000*%
%ADD21R,0.900000X0.800000*%
%ADD22R,3.500000X1.800000*%
%ADD23C,3.000000*%
%ADD24O,1.500000X1.500000*%
%ADD25R,1.500000X1.500000*%
%ADD26R,2.200000X2.200000*%
%ADD27O,2.200000X2.200000*%
%ADD28R,0.900000X1.700000*%
%ADD29R,1.800000X3.500000*%
%ADD30C,0.800000*%
%ADD31C,1.000000*%
%ADD32C,1.000000*%
%ADD33C,0.250000*%
%ADD34C,2.000000*%
%ADD35C,0.500000*%
%ADD36C,0.254000*%
G04 APERTURE END LIST*
D10*
X55000000Y-5000000D03*
D11*
X9398000Y-22230400D03*
X9398000Y-19730400D03*
D10*
X55000000Y-93000000D03*
D12*
X38887400Y-91478100D03*
X38887400Y-94018100D03*
X36347400Y-91478100D03*
X36347400Y-94018100D03*
X33807400Y-91478100D03*
X33807400Y-94018100D03*
X31267400Y-91478100D03*
X31267400Y-94018100D03*
X28727400Y-91478100D03*
X28727400Y-94018100D03*
X26187400Y-91478100D03*
X26187400Y-94018100D03*
X23647400Y-91478100D03*
X23647400Y-94018100D03*
X21107400Y-91478100D03*
D13*
X21107400Y-94018100D03*
D14*
X29966600Y-89128600D03*
X32466600Y-89128600D03*
D15*
X24311600Y-80416400D03*
X21611600Y-80416400D03*
D16*
X5283200Y-59898600D03*
X5283200Y-57398600D03*
X7213600Y-57398600D03*
X7213600Y-59898600D03*
X5359400Y-45026900D03*
X5359400Y-42526900D03*
X5359400Y-47264000D03*
X5359400Y-49764000D03*
X39293800Y-59924000D03*
X39293800Y-57424000D03*
X41173400Y-57424000D03*
X41173400Y-59924000D03*
X39370000Y-44728400D03*
X39370000Y-42228400D03*
X39370000Y-47228400D03*
X39370000Y-49728400D03*
D14*
X21671600Y-57683400D03*
X19171600Y-57683400D03*
X21305200Y-41173400D03*
X23805200Y-41173400D03*
X23817466Y-44999107D03*
X21317466Y-44999107D03*
X16758600Y-28549600D03*
X19258600Y-28549600D03*
X12832400Y-28524200D03*
X10332400Y-28524200D03*
X16758600Y-30454600D03*
X19258600Y-30454600D03*
D17*
X13422146Y-24178672D03*
X9422146Y-24178672D03*
D14*
X18739800Y-13233400D03*
X21239800Y-13233400D03*
X32212600Y-57708800D03*
X29712600Y-57708800D03*
X29712600Y-59639200D03*
X32212600Y-59639200D03*
X35072000Y-89128600D03*
X37572000Y-89128600D03*
D18*
X11734800Y-95834200D03*
X11734800Y-93294200D03*
X11734800Y-90754200D03*
D19*
X11734800Y-88214200D03*
D18*
X48183800Y-95783400D03*
D19*
X48183800Y-93243400D03*
D20*
X20548600Y-62099200D03*
X20548600Y-64799200D03*
X18491200Y-64824600D03*
X18491200Y-62124600D03*
X53670200Y-62061100D03*
X53670200Y-64761100D03*
X16433800Y-62099200D03*
X16433800Y-64799200D03*
D15*
X15284405Y-80452572D03*
X12584405Y-80452572D03*
D20*
X51663600Y-62086500D03*
X51663600Y-64786500D03*
X49631600Y-62086500D03*
X49631600Y-64786500D03*
X51841400Y-36648400D03*
X51841400Y-39348400D03*
X34747200Y-41550600D03*
X34747200Y-44250600D03*
D14*
X32238000Y-47548800D03*
X29738000Y-47548800D03*
D21*
X32775400Y-38531800D03*
X30775400Y-37581800D03*
X30775400Y-39481800D03*
D22*
X22337400Y-10464800D03*
X17337400Y-10464800D03*
D20*
X26390600Y-61040000D03*
X26390600Y-58340000D03*
D23*
X22500000Y-6830000D03*
X22500000Y-3170000D03*
X2500000Y-5170000D03*
X2500000Y-8830000D03*
X16500000Y-6830000D03*
X16500000Y-3170000D03*
X43500000Y-6830000D03*
X43500000Y-3170000D03*
X37500000Y-3170000D03*
X37500000Y-6830000D03*
D24*
X3203200Y-44687600D03*
X3203200Y-47227600D03*
X3203200Y-49767600D03*
X3203200Y-57387600D03*
D25*
X3203200Y-59927600D03*
D24*
X37203200Y-44687600D03*
X37203200Y-47227600D03*
X37203200Y-49767600D03*
X37203200Y-57387600D03*
D25*
X37203200Y-59927600D03*
D14*
X21305200Y-43078400D03*
X23805200Y-43078400D03*
X10307000Y-30429200D03*
X12807000Y-30429200D03*
D17*
X13404600Y-26416000D03*
X9404600Y-26416000D03*
X20061495Y-24157873D03*
X16061495Y-24157873D03*
X16059400Y-26390600D03*
X20059400Y-26390600D03*
D14*
X54960200Y-41402000D03*
X57460200Y-41402000D03*
X57485600Y-45237400D03*
X54985600Y-45237400D03*
X54960200Y-43307000D03*
X57460200Y-43307000D03*
X49078200Y-30302200D03*
X46578200Y-30302200D03*
X55352000Y-30124400D03*
X52852000Y-30124400D03*
X46552800Y-28346400D03*
X49052800Y-28346400D03*
X52877400Y-28270200D03*
X55377400Y-28270200D03*
D17*
X49523400Y-23952200D03*
X45523400Y-23952200D03*
X52103607Y-26243553D03*
X56103607Y-26243553D03*
X45498000Y-26212800D03*
X49498000Y-26212800D03*
X56102000Y-23926800D03*
X52102000Y-23926800D03*
D14*
X39415400Y-13335000D03*
X41915400Y-13335000D03*
D22*
X38394000Y-10591800D03*
X43394000Y-10591800D03*
D20*
X15621000Y-39170600D03*
X15621000Y-36470600D03*
X13512800Y-36466800D03*
X13512800Y-39166800D03*
D15*
X18639800Y-15189200D03*
X21339800Y-15189200D03*
D20*
X49733200Y-36648400D03*
X49733200Y-39348400D03*
D15*
X39417000Y-15240000D03*
X42117000Y-15240000D03*
D26*
X2235200Y-16179800D03*
D27*
X2235200Y-28879800D03*
X30000000Y-28457800D03*
D26*
X30000000Y-15757800D03*
D16*
X31699200Y-41752200D03*
X31699200Y-44252200D03*
D14*
X55707600Y-57683400D03*
X53207600Y-57683400D03*
D10*
X5000000Y-93000000D03*
D28*
X26134858Y-22393083D03*
X29034858Y-22393083D03*
X33810058Y-22393083D03*
X30910058Y-22393083D03*
D20*
X29667200Y-44276000D03*
X29667200Y-41576000D03*
D29*
X12750800Y-7202800D03*
X12750800Y-12202800D03*
X33528000Y-3850000D03*
X33528000Y-8850000D03*
D11*
X45542200Y-19572600D03*
X45542200Y-22072600D03*
D30*
X23241000Y-58213500D03*
X23241000Y-57213500D03*
X57213500Y-58086500D03*
X57213500Y-57086500D03*
X28041600Y-59537600D03*
X28067000Y-57683398D03*
X33893000Y-61112400D03*
X44640500Y-88757000D03*
X44640500Y-87757000D03*
X46532800Y-83661000D03*
X46532800Y-82661000D03*
X51079400Y-88671400D03*
X51079400Y-84861400D03*
X51054000Y-86817200D03*
X46532800Y-81661000D03*
X32893000Y-61112400D03*
X16762000Y-34800000D03*
X15762000Y-34800000D03*
X14762000Y-34800000D03*
X13762000Y-34800000D03*
X12762000Y-34800000D03*
X11522200Y-43205400D03*
X7797800Y-31750000D03*
X10797800Y-31750000D03*
X9797800Y-31750000D03*
X8797800Y-31750000D03*
X12522200Y-43205400D03*
X23834600Y-47310800D03*
X22834600Y-47310800D03*
X23834600Y-48310800D03*
X10226800Y-47260000D03*
X11226800Y-47260000D03*
X10226800Y-48260000D03*
X21694400Y-31750000D03*
X20694400Y-31750000D03*
X19694400Y-31750000D03*
X18694400Y-31750000D03*
X22834600Y-48310800D03*
X11226800Y-48260000D03*
X46967400Y-31750000D03*
X45967400Y-31750000D03*
X44967400Y-31750000D03*
X7706360Y-14040360D03*
X34210500Y-45783500D03*
X33210500Y-45783500D03*
X14071600Y-66716400D03*
X28527506Y-67691000D03*
X29527506Y-67691000D03*
X33766002Y-67691000D03*
X50571400Y-66437000D03*
X16814800Y-68716400D03*
X35874200Y-67691000D03*
X26372584Y-67688740D03*
X46879000Y-67627500D03*
X47879000Y-67627500D03*
X20129494Y-60118500D03*
X20129494Y-59118500D03*
X22606000Y-69342000D03*
X21590000Y-69342000D03*
X21615400Y-77816200D03*
X53959000Y-59118500D03*
X52959000Y-59118500D03*
X30353000Y-64989200D03*
X31597600Y-65014600D03*
X32178500Y-45847001D03*
X31178500Y-45847001D03*
X25908000Y-80883000D03*
X25908000Y-79883000D03*
X11049000Y-80946496D03*
X11049000Y-79946496D03*
X28003500Y-61769500D03*
X28003500Y-60769500D03*
X18923000Y-59261506D03*
X18923000Y-60261506D03*
X35798001Y-68960999D03*
X34798001Y-68960999D03*
X19135600Y-68554600D03*
X27670000Y-68961000D03*
X26670000Y-68961000D03*
X15290800Y-77994000D03*
X51816000Y-66500500D03*
X51816000Y-67500500D03*
X53976917Y-60371473D03*
X52976917Y-60371473D03*
X16192500Y-60182000D03*
X16192500Y-59182000D03*
X50355500Y-59388498D03*
X50355500Y-60388498D03*
X19494500Y-42084500D03*
X19494500Y-41084500D03*
X19314162Y-44021500D03*
X19314162Y-45021500D03*
X11175998Y-41449500D03*
X11175998Y-40449500D03*
X7763000Y-36512500D03*
X8763000Y-36512500D03*
X53492400Y-41932100D03*
X53314600Y-44262800D03*
X39767000Y-40386000D03*
X46371000Y-40322500D03*
X40767000Y-40386000D03*
X47371000Y-40322500D03*
X12614400Y-41300400D03*
X13884400Y-46659800D03*
X47158398Y-46609000D03*
X46421800Y-41554400D03*
X13239500Y-2095500D03*
X12239500Y-2095500D03*
X33623000Y-11366500D03*
X32623000Y-11366500D03*
X22034500Y-62087000D03*
X22034500Y-61087000D03*
X55118000Y-62087000D03*
X55118000Y-61087000D03*
X30083000Y-45847000D03*
X29083000Y-45847000D03*
X29591000Y-39862000D03*
X29591000Y-38862000D03*
X11239500Y-2095500D03*
X31623000Y-11366500D03*
X49800000Y-34800000D03*
X46447200Y-43408600D03*
X44770800Y-47285400D03*
X44770800Y-48285400D03*
X57794400Y-47285400D03*
X56794400Y-47285400D03*
X57794400Y-48285400D03*
X45770800Y-47285400D03*
X57889400Y-31750000D03*
X56889400Y-31750000D03*
X55889400Y-31750000D03*
X32766002Y-67691000D03*
X50571400Y-67437000D03*
X14071600Y-67716400D03*
X16706360Y-14040360D03*
X15706360Y-14040360D03*
X14706360Y-14040360D03*
X13706360Y-14040360D03*
X12706360Y-14040360D03*
X11706360Y-14040360D03*
X10706360Y-14040360D03*
X9706360Y-14040360D03*
X8706360Y-14040360D03*
X57975020Y-13877800D03*
X56975020Y-13877800D03*
X55975020Y-13877800D03*
X54975020Y-13877800D03*
X53975020Y-13877800D03*
X52975020Y-13877800D03*
X51975020Y-13877800D03*
X50975020Y-13877800D03*
X49975020Y-13877800D03*
X48975020Y-13877800D03*
X47975020Y-13877800D03*
X46975020Y-13877800D03*
X45975020Y-13877800D03*
X44975020Y-13877800D03*
X43975020Y-13877800D03*
X51800000Y-34800000D03*
X52800000Y-34800000D03*
X50800000Y-34800000D03*
X48800000Y-34800000D03*
X47447200Y-43408600D03*
X43967400Y-31750000D03*
X56794400Y-48285400D03*
X45770800Y-48285400D03*
X54889400Y-31750000D03*
X27381200Y-67716400D03*
X34874200Y-67691000D03*
X16814800Y-67716400D03*
X21615400Y-78816200D03*
X30353000Y-65989200D03*
X31597600Y-66014600D03*
X15290800Y-78994000D03*
X18135600Y-68554600D03*
X53492400Y-40932100D03*
X53314600Y-45262800D03*
X28295600Y-40579800D03*
X18135600Y-35144200D03*
X10583328Y-36474306D03*
X18135600Y-36144200D03*
X11582400Y-36474400D03*
X46523400Y-36487100D03*
X54027010Y-35652200D03*
X47523400Y-36487100D03*
X54027010Y-36652200D03*
X13614400Y-41300400D03*
X14884400Y-46659800D03*
D31*
X17830800Y-46710600D03*
D30*
X48158398Y-46609000D03*
X47421800Y-41554400D03*
D31*
X51841400Y-46685200D03*
D30*
X28295600Y-41579800D03*
D32*
X23241000Y-57213500D02*
X23241000Y-58213500D01*
X21671600Y-57683400D02*
X22710900Y-57683400D01*
X22710900Y-57683400D02*
X23241000Y-58213500D01*
X21671600Y-57683400D02*
X22771100Y-57683400D01*
X22771100Y-57683400D02*
X23241000Y-57213500D01*
X57213500Y-57086500D02*
X57213500Y-58086500D01*
X55707600Y-57683400D02*
X56810400Y-57683400D01*
X56810400Y-57683400D02*
X57213500Y-58086500D01*
X55707600Y-57683400D02*
X56616600Y-57683400D01*
X56616600Y-57683400D02*
X57213500Y-57086500D01*
X28067000Y-57683398D02*
X29687198Y-57683398D01*
X29687198Y-57683398D02*
X29712600Y-57708800D01*
X29712600Y-59639200D02*
X28143200Y-59639200D01*
X28143200Y-59639200D02*
X28041600Y-59537600D01*
X29712600Y-57708800D02*
X29712600Y-59639200D01*
D33*
X37572000Y-89128600D02*
X37572000Y-90162700D01*
X37572000Y-90162700D02*
X38887400Y-91478100D01*
X37572000Y-89128600D02*
X37572000Y-90253500D01*
X37572000Y-90253500D02*
X36347400Y-91478100D01*
X29966600Y-89128600D02*
X29966600Y-90177300D01*
X29966600Y-90177300D02*
X31267400Y-91478100D01*
X29636400Y-59537600D02*
X28041600Y-59537600D01*
X29712600Y-57708800D02*
X28092402Y-57708800D01*
X28092402Y-57708800D02*
X28067000Y-57683398D01*
X5283200Y-59898600D02*
X7213600Y-59898600D01*
D34*
X3203200Y-59927600D02*
X7184600Y-59927600D01*
X7184600Y-59927600D02*
X7213600Y-59898600D01*
D33*
X5283200Y-57398600D02*
X3214200Y-57398600D01*
X3214200Y-57398600D02*
X3203200Y-57387600D01*
D34*
X3203200Y-57387600D02*
X7202600Y-57387600D01*
X7202600Y-57387600D02*
X7213600Y-57398600D01*
D33*
X26134858Y-16486342D02*
X26863400Y-15757800D01*
X26134858Y-21631083D02*
X26134858Y-16486342D01*
X26863400Y-15757800D02*
X30000000Y-15757800D01*
D32*
X14762000Y-34800000D02*
X14762000Y-30546200D01*
X14762000Y-30546200D02*
X16758600Y-28549600D01*
X13762000Y-34800000D02*
X13762000Y-31384200D01*
X13762000Y-31384200D02*
X12807000Y-30429200D01*
X15762000Y-34800000D02*
X15762000Y-31451200D01*
X15762000Y-31451200D02*
X16758600Y-30454600D01*
X12762000Y-34800000D02*
X16762000Y-34800000D01*
X16762000Y-34800000D02*
X16762000Y-30458000D01*
X16762000Y-30458000D02*
X16758600Y-30454600D01*
X12762000Y-34800000D02*
X12762000Y-30474200D01*
X12762000Y-30474200D02*
X12807000Y-30429200D01*
D34*
X12832400Y-28524200D02*
X13925800Y-28524200D01*
X13925800Y-28524200D02*
X16059400Y-26390600D01*
X13404600Y-26416000D02*
X14625000Y-26416000D01*
X14625000Y-26416000D02*
X16758600Y-28549600D01*
X13422146Y-24178672D02*
X13847472Y-24178672D01*
X13847472Y-24178672D02*
X16059400Y-26390600D01*
X13404600Y-26416000D02*
X16034000Y-26416000D01*
X16034000Y-26416000D02*
X16059400Y-26390600D01*
X13422146Y-24178672D02*
X16040696Y-24178672D01*
X16040696Y-24178672D02*
X16061495Y-24157873D01*
X16059400Y-26390600D02*
X16059400Y-24159968D01*
X16059400Y-24159968D02*
X16061495Y-24157873D01*
X13404600Y-26416000D02*
X13404600Y-24196218D01*
X13404600Y-24196218D02*
X13422146Y-24178672D01*
X12832400Y-28524200D02*
X16733200Y-28524200D01*
X16733200Y-28524200D02*
X16758600Y-28549600D01*
X12807000Y-30429200D02*
X16733200Y-30429200D01*
X16733200Y-30429200D02*
X16758600Y-30454600D01*
X16758600Y-28549600D02*
X16758600Y-27089800D01*
X16758600Y-27089800D02*
X16059400Y-26390600D01*
X16758600Y-30454600D02*
X16758600Y-28549600D01*
X12807000Y-30429200D02*
X12807000Y-28549600D01*
X12807000Y-28549600D02*
X12832400Y-28524200D01*
X12832400Y-28524200D02*
X12832400Y-26988200D01*
X12832400Y-26988200D02*
X13404600Y-26416000D01*
D32*
X5359400Y-45026900D02*
X5359400Y-47264000D01*
X3203200Y-47227600D02*
X5323000Y-47227600D01*
X5323000Y-47227600D02*
X5359400Y-47264000D01*
D33*
X9398000Y-22230400D02*
X9398000Y-24154526D01*
D32*
X9194800Y-43205400D02*
X8483600Y-42494200D01*
X5392100Y-42494200D02*
X5359400Y-42526900D01*
X12522200Y-43205400D02*
X9194800Y-43205400D01*
X8483600Y-42494200D02*
X5392100Y-42494200D01*
D34*
X41173400Y-59924000D02*
X39293800Y-59924000D01*
X37203200Y-59927600D02*
X41169800Y-59927600D01*
X41169800Y-59927600D02*
X41173400Y-59924000D01*
X37203200Y-57387600D02*
X39257400Y-57387600D01*
X39257400Y-57387600D02*
X39293800Y-57424000D01*
X37203200Y-57387600D02*
X41137000Y-57387600D01*
X41137000Y-57387600D02*
X41173400Y-57424000D01*
D33*
X45542200Y-22072600D02*
X45542200Y-23933400D01*
X45542200Y-23933400D02*
X45523400Y-23952200D01*
X45567600Y-23908000D02*
X45523400Y-23952200D01*
X9398000Y-19730400D02*
X9398000Y-14348720D01*
X9398000Y-14348720D02*
X9706360Y-14040360D01*
D34*
X18639800Y-15189200D02*
X17896600Y-15189200D01*
X17896600Y-15189200D02*
X15731760Y-13024360D01*
X18639800Y-15189200D02*
X18639800Y-11767200D01*
X18639800Y-11767200D02*
X17337400Y-10464800D01*
D33*
X45542200Y-19572600D02*
X45542200Y-14310620D01*
X45542200Y-14310620D02*
X45975020Y-13877800D01*
D34*
X42117000Y-15240000D02*
X42917620Y-15240000D01*
X42917620Y-15240000D02*
X43975020Y-14182600D01*
X42117000Y-15240000D02*
X42812720Y-15240000D01*
X41915400Y-13335000D02*
X41915400Y-15038400D01*
X41915400Y-15038400D02*
X42117000Y-15240000D01*
D32*
X40863400Y-533400D02*
X35077400Y-533400D01*
X43500000Y-3170000D02*
X40863400Y-533400D01*
X35077400Y-533400D02*
X33528000Y-2082800D01*
X33528000Y-2082800D02*
X33528000Y-3850000D01*
D33*
X33203200Y-44252200D02*
X33210500Y-44259500D01*
X31699200Y-44252200D02*
X33203200Y-44252200D01*
X33210500Y-44259500D02*
X33210500Y-45783500D01*
X33210500Y-45783500D02*
X34210500Y-45783500D01*
X34210500Y-45783500D02*
X34210500Y-44787300D01*
X34210500Y-44787300D02*
X34747200Y-44250600D01*
X32969200Y-45745400D02*
X33007300Y-45783500D01*
X33007300Y-45783500D02*
X33210500Y-45783500D01*
X33210500Y-44361100D02*
X33210500Y-45217815D01*
X33210500Y-45217815D02*
X33210500Y-45783500D01*
X33096200Y-44246800D02*
X33210500Y-44361100D01*
X33096200Y-44246800D02*
X33096200Y-38852600D01*
X34747200Y-44250600D02*
X33100000Y-44250600D01*
X33100000Y-44250600D02*
X33096200Y-44246800D01*
X33096200Y-38852600D02*
X32775400Y-38531800D01*
D32*
X14071600Y-67716400D02*
X14071600Y-66716400D01*
X28527506Y-67691000D02*
X29527506Y-67691000D01*
D33*
X28663906Y-66827400D02*
X29127507Y-67291001D01*
X29127507Y-67291001D02*
X29527506Y-67691000D01*
X14960600Y-66827400D02*
X28663906Y-66827400D01*
X14071600Y-67716400D02*
X14960600Y-66827400D01*
D32*
X32766002Y-67691000D02*
X33766002Y-67691000D01*
X50571400Y-67437000D02*
X50571400Y-66437000D01*
D33*
X33972500Y-88283100D02*
X33972500Y-68707000D01*
X34818000Y-89128600D02*
X33972500Y-88283100D01*
X33972500Y-68707000D02*
X34874200Y-67805300D01*
X34874200Y-67805300D02*
X34874200Y-67691000D01*
D32*
X16814800Y-67716400D02*
X16814800Y-68708660D01*
X16814800Y-68708660D02*
X16810930Y-68712530D01*
X35874200Y-67691000D02*
X35623500Y-67691000D01*
X35623500Y-67691000D02*
X34966012Y-67691000D01*
X26372584Y-67688740D02*
X27299836Y-67688740D01*
X27299836Y-67688740D02*
X27327496Y-67716400D01*
X47879000Y-67627500D02*
X46879000Y-67627500D01*
D33*
X34874200Y-67691000D02*
X47815500Y-67691000D01*
X47815500Y-67691000D02*
X47879000Y-67627500D01*
D32*
X20129494Y-60118500D02*
X20129494Y-59118500D01*
D33*
X19296600Y-58285606D02*
X19729495Y-58718501D01*
X19729495Y-58718501D02*
X20129494Y-59118500D01*
X19296600Y-57683400D02*
X19296600Y-58285606D01*
X19171600Y-57683400D02*
X19296600Y-57683400D01*
D32*
X21590000Y-69342000D02*
X22606000Y-69342000D01*
D33*
X21615400Y-69367400D02*
X21590000Y-69342000D01*
X21615400Y-78816200D02*
X21615400Y-69367400D01*
D32*
X21615400Y-78816200D02*
X21615400Y-77816200D01*
X52959000Y-59118500D02*
X52959000Y-57932000D01*
X52959000Y-57932000D02*
X53207600Y-57683400D01*
X52959000Y-59118500D02*
X53959000Y-59118500D01*
X30353000Y-64989200D02*
X30353000Y-65989200D01*
X31597600Y-65014600D02*
X31597600Y-66014600D01*
D33*
X30910058Y-22393083D02*
X29034858Y-22393083D01*
X31178500Y-45847001D02*
X32178500Y-45847001D01*
X32178500Y-45847001D02*
X32178500Y-47489300D01*
X32178500Y-47489300D02*
X32238000Y-47548800D01*
X29667200Y-44276000D02*
X29667200Y-44376000D01*
X29667200Y-44376000D02*
X31138201Y-45847001D01*
X31178500Y-46614300D02*
X31178500Y-45847001D01*
X31138201Y-45847001D02*
X31178500Y-45847001D01*
X32113000Y-47548800D02*
X31178500Y-46614300D01*
X32238000Y-47548800D02*
X32113000Y-47548800D01*
D32*
X25908000Y-79883000D02*
X25908000Y-80883000D01*
X24311600Y-80416400D02*
X25441400Y-80416400D01*
X25441400Y-80416400D02*
X25908000Y-80883000D01*
X24311600Y-80416400D02*
X25374600Y-80416400D01*
X25374600Y-80416400D02*
X25908000Y-79883000D01*
X11049000Y-79946496D02*
X11049000Y-80946496D01*
X12584405Y-80452572D02*
X11542924Y-80452572D01*
X11542924Y-80452572D02*
X11049000Y-80946496D01*
X12584405Y-80452572D02*
X11555076Y-80452572D01*
X11555076Y-80452572D02*
X11049000Y-79946496D01*
X28003500Y-61769500D02*
X28003500Y-60839210D01*
X26390600Y-61040000D02*
X27274000Y-61040000D01*
X27274000Y-61040000D02*
X28003500Y-61769500D01*
X27733000Y-61040000D02*
X27933790Y-60839210D01*
X26390600Y-61040000D02*
X27733000Y-61040000D01*
X27933790Y-60839210D02*
X28003500Y-60839210D01*
X18923000Y-59261506D02*
X18923000Y-60261506D01*
D33*
X18491200Y-60693306D02*
X18523001Y-60661505D01*
X18491200Y-62124600D02*
X18491200Y-60693306D01*
X18523001Y-60661505D02*
X18923000Y-60261506D01*
X26270001Y-68561001D02*
X26670000Y-68961000D01*
X18135600Y-68554600D02*
X18701285Y-68554600D01*
X18738894Y-68516991D02*
X26225991Y-68516991D01*
X18701285Y-68554600D02*
X18738894Y-68516991D01*
X26225991Y-68516991D02*
X26270001Y-68561001D01*
D32*
X35798001Y-68960999D02*
X34885241Y-68960999D01*
X34885241Y-68960999D02*
X34841621Y-69004619D01*
X18135600Y-68554600D02*
X19135600Y-68554600D01*
D33*
X50419000Y-68897500D02*
X36062185Y-68897500D01*
X51816000Y-67500500D02*
X50419000Y-68897500D01*
D32*
X26670000Y-68961000D02*
X27670000Y-68961000D01*
X15290800Y-78994000D02*
X15290800Y-77994000D01*
X51816000Y-67500500D02*
X51816000Y-66500500D01*
X52976917Y-60371473D02*
X53976917Y-60371473D01*
X52411232Y-60371473D02*
X51663600Y-61119105D01*
X52976917Y-60371473D02*
X52411232Y-60371473D01*
X51663600Y-61119105D02*
X51663600Y-62086500D01*
X16192500Y-60182000D02*
X16192500Y-59182000D01*
D33*
X16192500Y-61730900D02*
X16192500Y-59747685D01*
X16192500Y-59747685D02*
X16192500Y-59182000D01*
X16586200Y-62124600D02*
X16192500Y-61730900D01*
D32*
X50355500Y-60388498D02*
X50355500Y-59388498D01*
D33*
X50355500Y-60388498D02*
X50355500Y-61117500D01*
X50355500Y-61117500D02*
X49631600Y-61841400D01*
X50355500Y-61299100D02*
X50355500Y-60954183D01*
X50355500Y-60954183D02*
X50355500Y-60388498D01*
X49784000Y-61870600D02*
X50355500Y-61299100D01*
D32*
X19494500Y-42084500D02*
X19494500Y-41084500D01*
X19494500Y-42084500D02*
X20405600Y-41173400D01*
X20405600Y-41173400D02*
X21305200Y-41173400D01*
X21305200Y-41351200D02*
X21038500Y-41084500D01*
X21038500Y-41084500D02*
X20060185Y-41084500D01*
X20060185Y-41084500D02*
X19494500Y-41084500D01*
X19314162Y-44021500D02*
X20362100Y-44021500D01*
X20362100Y-44021500D02*
X21305200Y-43078400D01*
X19314162Y-45021500D02*
X19314162Y-44021500D01*
X21317466Y-44999107D02*
X19336555Y-44999107D01*
X19336555Y-44999107D02*
X19314162Y-45021500D01*
X11175998Y-41449500D02*
X11175998Y-40449500D01*
D33*
X8890000Y-36512500D02*
X11175998Y-38798498D01*
X11175998Y-39883815D02*
X11175998Y-40449500D01*
X11175998Y-38798498D02*
X11175998Y-39883815D01*
D32*
X7763000Y-36512500D02*
X8763000Y-36512500D01*
X53492400Y-40932100D02*
X53492400Y-41932100D01*
X54960200Y-41402000D02*
X54022500Y-41402000D01*
X54022500Y-41402000D02*
X53492400Y-41932100D01*
X53492400Y-40932100D02*
X54490300Y-40932100D01*
X54490300Y-40932100D02*
X54960200Y-41402000D01*
X53314600Y-45262800D02*
X53314600Y-44262800D01*
X54985600Y-44259500D02*
X54985600Y-45237400D01*
X54982300Y-44262800D02*
X54985600Y-44259500D01*
X54985600Y-43434000D02*
X54985600Y-44259500D01*
X53314600Y-44262800D02*
X54982300Y-44262800D01*
X54916000Y-43262800D02*
X54960200Y-43307000D01*
X39767000Y-40386000D02*
X40767000Y-40386000D01*
X46371000Y-40322500D02*
X47371000Y-40322500D01*
D33*
X47371000Y-40386000D02*
X40767000Y-40386000D01*
D32*
X13512800Y-39166800D02*
X13512800Y-40402000D01*
X13512800Y-40402000D02*
X12614400Y-41300400D01*
X13614400Y-41300400D02*
X12614400Y-41300400D01*
X13884400Y-46659800D02*
X14884400Y-46659800D01*
X17830800Y-41071800D02*
X15929600Y-39170600D01*
X17830800Y-46710600D02*
X17830800Y-41071800D01*
X15929600Y-39170600D02*
X15519400Y-39170600D01*
X49733200Y-40513000D02*
X49733200Y-39348400D01*
X49733200Y-41098400D02*
X49733200Y-40513000D01*
X47421800Y-41554400D02*
X48691800Y-41554400D01*
X48691800Y-41554400D02*
X49733200Y-40513000D01*
X49277200Y-41554400D02*
X49733200Y-41098400D01*
X47421800Y-41554400D02*
X49277200Y-41554400D01*
X47158398Y-46609000D02*
X48158398Y-46609000D01*
X46421800Y-41554400D02*
X47421800Y-41554400D01*
X51816000Y-39424600D02*
X51816000Y-46507400D01*
X51739800Y-39348400D02*
X51816000Y-39424600D01*
X11239500Y-2095500D02*
X13239500Y-2095500D01*
X12239500Y-2095500D02*
X12239500Y-6691500D01*
X12239500Y-6691500D02*
X12750800Y-7202800D01*
X12750800Y-7202800D02*
X12750800Y-3606800D01*
X12750800Y-3606800D02*
X11239500Y-2095500D01*
X13239500Y-2095500D02*
X13239500Y-6714100D01*
X13239500Y-6714100D02*
X12750800Y-7202800D01*
X31623000Y-11366500D02*
X33623000Y-11366500D01*
X32623000Y-11366500D02*
X32623000Y-9755000D01*
X32623000Y-9755000D02*
X33528000Y-8850000D01*
X33623000Y-11366500D02*
X33623000Y-8945000D01*
X33623000Y-8945000D02*
X33528000Y-8850000D01*
X31623000Y-11366500D02*
X31623000Y-10755000D01*
X31623000Y-10755000D02*
X33528000Y-8850000D01*
X22034500Y-62087000D02*
X22034500Y-61087000D01*
D33*
X20996900Y-62124600D02*
X21634501Y-61486999D01*
X21634501Y-61486999D02*
X22034500Y-61087000D01*
X20421600Y-62124600D02*
X20996900Y-62124600D01*
D32*
X55118000Y-62087000D02*
X55118000Y-61087000D01*
X53670200Y-61870600D02*
X54901600Y-61870600D01*
X54901600Y-61870600D02*
X55118000Y-62087000D01*
D33*
X53886600Y-62087000D02*
X53670200Y-61870600D01*
D32*
X29738000Y-45923800D02*
X29814800Y-45847000D01*
X29738000Y-47548800D02*
X29738000Y-45923800D01*
X29814800Y-45847000D02*
X29971460Y-45847000D01*
X29738000Y-47548800D02*
X29738000Y-46502000D01*
X29738000Y-46502000D02*
X29083000Y-45847000D01*
X29083000Y-45847000D02*
X29971460Y-45847000D01*
X29971460Y-45847000D02*
X30027230Y-45902770D01*
D33*
X30775400Y-39481800D02*
X29971200Y-39481800D01*
X29971200Y-39481800D02*
X29591000Y-39862000D01*
X30075400Y-39481800D02*
X29591000Y-38997400D01*
X29591000Y-38997400D02*
X29591000Y-38862000D01*
X30775400Y-39481800D02*
X30075400Y-39481800D01*
D32*
X12903200Y-7050400D02*
X12750800Y-7202800D01*
X49800000Y-34800000D02*
X49800000Y-31024000D01*
X49800000Y-31024000D02*
X49078200Y-30302200D01*
D33*
X31699200Y-40355600D02*
X30825400Y-39481800D01*
X31699200Y-41752200D02*
X31699200Y-40355600D01*
X30825400Y-39481800D02*
X30775400Y-39481800D01*
X37203200Y-42283200D02*
X36470600Y-41550600D01*
X36470600Y-41550600D02*
X34747200Y-41550600D01*
X37203200Y-44687600D02*
X37203200Y-42283200D01*
X33705802Y-66751200D02*
X49885600Y-66751200D01*
X49885600Y-66751200D02*
X50571400Y-67437000D01*
X32766002Y-67691000D02*
X33705802Y-66751200D01*
X32746000Y-89128600D02*
X32746000Y-67711002D01*
X32746000Y-67711002D02*
X32766002Y-67691000D01*
D32*
X52800000Y-34800000D02*
X48800000Y-34800000D01*
X50800000Y-34800000D02*
X50800000Y-32176400D01*
X50800000Y-32176400D02*
X52852000Y-30124400D01*
X51800000Y-34800000D02*
X51800000Y-31176400D01*
X51800000Y-31176400D02*
X52852000Y-30124400D01*
X52800000Y-34800000D02*
X52800000Y-30176400D01*
X52800000Y-30176400D02*
X52852000Y-30124400D01*
X48800000Y-34800000D02*
X48800000Y-30580400D01*
X48800000Y-30580400D02*
X49078200Y-30302200D01*
X39370000Y-47228400D02*
X39370000Y-44728400D01*
X37203200Y-47227600D02*
X39369200Y-47227600D01*
X39369200Y-47227600D02*
X39370000Y-47228400D01*
D34*
X50800000Y-33350200D02*
X50800000Y-27547160D01*
X50800000Y-27547160D02*
X52103607Y-26243553D01*
D32*
X52171600Y-31978600D02*
X52852000Y-31298200D01*
X49580800Y-32131000D02*
X49078200Y-31628400D01*
D34*
X52852000Y-30124400D02*
X52852000Y-31298200D01*
X52852000Y-31298200D02*
X50800000Y-33350200D01*
X49078200Y-30302200D02*
X49078200Y-31628400D01*
X49078200Y-31628400D02*
X50800000Y-33350200D01*
X49078200Y-30302200D02*
X50845400Y-30302200D01*
X50845400Y-30302200D02*
X52877400Y-28270200D01*
X52852000Y-30124400D02*
X50830800Y-30124400D01*
X50830800Y-30124400D02*
X49052800Y-28346400D01*
X52877400Y-28270200D02*
X49129000Y-28270200D01*
X49129000Y-28270200D02*
X49052800Y-28346400D01*
X49078200Y-30302200D02*
X52674200Y-30302200D01*
X52674200Y-30302200D02*
X52852000Y-30124400D01*
X52877400Y-28270200D02*
X52877400Y-27017346D01*
X52877400Y-27017346D02*
X52103607Y-26243553D01*
X52852000Y-30124400D02*
X52852000Y-28295600D01*
X52852000Y-28295600D02*
X52877400Y-28270200D01*
X49052800Y-28346400D02*
X49052800Y-26658000D01*
X49052800Y-26658000D02*
X49498000Y-26212800D01*
X49078200Y-30302200D02*
X49078200Y-28371800D01*
X49078200Y-28371800D02*
X49052800Y-28346400D01*
X49498000Y-26212800D02*
X49816000Y-26212800D01*
X49816000Y-26212800D02*
X52102000Y-23926800D01*
X49498000Y-26212800D02*
X49498000Y-23977600D01*
X49498000Y-23977600D02*
X49523400Y-23952200D01*
X49498000Y-26212800D02*
X52072854Y-26212800D01*
X52072854Y-26212800D02*
X52103607Y-26243553D01*
X52102000Y-23926800D02*
X52102000Y-26241946D01*
X52102000Y-26241946D02*
X52103607Y-26243553D01*
X49523400Y-23952200D02*
X52076600Y-23952200D01*
X52076600Y-23952200D02*
X52102000Y-23926800D01*
D32*
X43434000Y-43408600D02*
X42253800Y-42228400D01*
X42253800Y-42228400D02*
X39370000Y-42228400D01*
X47447200Y-43408600D02*
X43434000Y-43408600D01*
D33*
X33807400Y-91478100D02*
X32746000Y-90416700D01*
X32746000Y-90416700D02*
X32746000Y-89128600D01*
X33705800Y-91376500D02*
X33807400Y-91478100D01*
X27381200Y-67716400D02*
X16814800Y-67716400D01*
X34818000Y-89128600D02*
X34818000Y-88564400D01*
X35077400Y-92748100D02*
X35077400Y-90263000D01*
X33807400Y-94018100D02*
X35077400Y-92748100D01*
X35077400Y-90263000D02*
X34818000Y-90003600D01*
X34818000Y-90003600D02*
X34818000Y-89128600D01*
X2286000Y-28829000D02*
X2235200Y-28879800D01*
X52207600Y-57683400D02*
X50556600Y-56032400D01*
X53207600Y-57683400D02*
X52207600Y-57683400D01*
X50556600Y-56032400D02*
X20947600Y-56032400D01*
X20947600Y-56032400D02*
X19296600Y-57683400D01*
X22377400Y-92748100D02*
X22377400Y-90220800D01*
X22377400Y-90220800D02*
X30353000Y-82245200D01*
X23647400Y-94018100D02*
X22377400Y-92748100D01*
X30353000Y-82245200D02*
X30353000Y-65989200D01*
X23647400Y-90703400D02*
X31597600Y-82753200D01*
X23647400Y-91478100D02*
X23647400Y-90703400D01*
X31597600Y-82753200D02*
X31597600Y-66580285D01*
X31597600Y-66580285D02*
X31597600Y-66014600D01*
X11544300Y-90792300D02*
X20421600Y-90792300D01*
X20421600Y-90792300D02*
X21107400Y-91478100D01*
X11544300Y-93332300D02*
X20421600Y-93332300D01*
X20421600Y-93332300D02*
X21107400Y-94018100D01*
X32308800Y-47478000D02*
X32238000Y-47548800D01*
X15290800Y-71399400D02*
X15290800Y-78994000D01*
X18135600Y-68554600D02*
X15290800Y-71399400D01*
D32*
X21317466Y-44999107D02*
X21317466Y-43170307D01*
X54909400Y-41529000D02*
X54884000Y-41503600D01*
D33*
X54909400Y-41529000D02*
X54985600Y-41605200D01*
X53340000Y-45237400D02*
X53314600Y-45262800D01*
D32*
X54985600Y-45237400D02*
X53340000Y-45237400D01*
X28295600Y-41579800D02*
X28295600Y-40579800D01*
D33*
X33810058Y-30375742D02*
X28295600Y-35890200D01*
X33810058Y-21631083D02*
X33810058Y-30375742D01*
X28295600Y-35890200D02*
X28295600Y-41014115D01*
D32*
X15621000Y-36470600D02*
X17809200Y-36470600D01*
X17809200Y-36470600D02*
X18135600Y-36144200D01*
X18135600Y-36144200D02*
X18135600Y-35144200D01*
X13512800Y-36466800D02*
X15617200Y-36466800D01*
X15617200Y-36466800D02*
X15621000Y-36470600D01*
X11582400Y-36474400D02*
X13505200Y-36474400D01*
X13505200Y-36474400D02*
X13512800Y-36466800D01*
X10583328Y-36474306D02*
X11582306Y-36474306D01*
X11582306Y-36474306D02*
X11582400Y-36474400D01*
D35*
X11586200Y-36470600D02*
X11582400Y-36474400D01*
D32*
X46523400Y-36487100D02*
X47523400Y-36487100D01*
X47523400Y-36550600D02*
X49635400Y-36550600D01*
X49635400Y-36550600D02*
X49733200Y-36648400D01*
X54027010Y-36652200D02*
X54027010Y-35652200D01*
X51841400Y-36648400D02*
X54023210Y-36648400D01*
X54023210Y-36648400D02*
X54027010Y-36652200D01*
X49733200Y-36648400D02*
X51841400Y-36648400D01*
D35*
X47621200Y-36648400D02*
X47523400Y-36550600D01*
X53896210Y-36648400D02*
X53900010Y-36652200D01*
D32*
X14884400Y-42570400D02*
X14014399Y-41700399D01*
X14014399Y-41700399D02*
X13614400Y-41300400D01*
X14884400Y-46659800D02*
X14884400Y-42570400D01*
X13614400Y-41300400D02*
X13614400Y-39170600D01*
X49834800Y-39348400D02*
X49834800Y-44932598D01*
X48558397Y-46209001D02*
X48158398Y-46609000D01*
X49834800Y-44932598D02*
X48558397Y-46209001D01*
X49809400Y-41554400D02*
X47987485Y-41554400D01*
X47987485Y-41554400D02*
X47421800Y-41554400D01*
X49834800Y-41579800D02*
X49809400Y-41554400D01*
D33*
X49834800Y-39348400D02*
X49834800Y-41579800D01*
X51739800Y-46583600D02*
X51841400Y-46685200D01*
X28299400Y-41576000D02*
X28295600Y-41579800D01*
X29667200Y-41576000D02*
X28299400Y-41576000D01*
D36*
G36*
X46137614Y-23436673D02*
X46744452Y-23842148D01*
X47149927Y-24448986D01*
X47294800Y-25177309D01*
X47294800Y-33840214D01*
X47200769Y-34431129D01*
X46932602Y-34954621D01*
X46532232Y-35352100D01*
X46411617Y-35352100D01*
X46080545Y-35417954D01*
X45705111Y-35668811D01*
X45699341Y-35677446D01*
X45398191Y-35723132D01*
X42426812Y-35701601D01*
X42406843Y-35703035D01*
X41785354Y-35797318D01*
X41747321Y-35809432D01*
X41185793Y-36091966D01*
X41153398Y-36115288D01*
X40707303Y-36558163D01*
X40683748Y-36590387D01*
X40397153Y-37149852D01*
X40384763Y-37187797D01*
X40285978Y-37808587D01*
X40284400Y-37828545D01*
X40284400Y-39251000D01*
X39655217Y-39251000D01*
X39324145Y-39316854D01*
X38948711Y-39567711D01*
X38697854Y-39943145D01*
X38609765Y-40386000D01*
X38697854Y-40828855D01*
X38948711Y-41204289D01*
X39324145Y-41455146D01*
X39655217Y-41521000D01*
X40284400Y-41521000D01*
X40284400Y-43408063D01*
X40242765Y-43380243D01*
X39995000Y-43330960D01*
X38745000Y-43330960D01*
X38497235Y-43380243D01*
X38287191Y-43520591D01*
X38146843Y-43730635D01*
X38097560Y-43978400D01*
X38097560Y-45478400D01*
X38105198Y-45516800D01*
X36810509Y-45516800D01*
X36082186Y-45371927D01*
X35965079Y-45293679D01*
X35995357Y-45248365D01*
X36044640Y-45000600D01*
X36044640Y-43500600D01*
X35995357Y-43252835D01*
X35855009Y-43042791D01*
X35644965Y-42902443D01*
X35397200Y-42853160D01*
X34925000Y-42853160D01*
X34925000Y-32543309D01*
X35069873Y-31814986D01*
X35475348Y-31208148D01*
X36082186Y-30802673D01*
X36810509Y-30657800D01*
X40570400Y-30657800D01*
X40595176Y-30655360D01*
X41360543Y-30503119D01*
X41406324Y-30484156D01*
X42055171Y-30050611D01*
X42090211Y-30015571D01*
X42523756Y-29366724D01*
X42542719Y-29320943D01*
X42694960Y-28555576D01*
X42697400Y-28530800D01*
X42697400Y-25177309D01*
X42842273Y-24448986D01*
X43247748Y-23842148D01*
X43854586Y-23436673D01*
X44582909Y-23291800D01*
X45409291Y-23291800D01*
X46137614Y-23436673D01*
X46137614Y-23436673D01*
G37*
X46137614Y-23436673D02*
X46744452Y-23842148D01*
X47149927Y-24448986D01*
X47294800Y-25177309D01*
X47294800Y-33840214D01*
X47200769Y-34431129D01*
X46932602Y-34954621D01*
X46532232Y-35352100D01*
X46411617Y-35352100D01*
X46080545Y-35417954D01*
X45705111Y-35668811D01*
X45699341Y-35677446D01*
X45398191Y-35723132D01*
X42426812Y-35701601D01*
X42406843Y-35703035D01*
X41785354Y-35797318D01*
X41747321Y-35809432D01*
X41185793Y-36091966D01*
X41153398Y-36115288D01*
X40707303Y-36558163D01*
X40683748Y-36590387D01*
X40397153Y-37149852D01*
X40384763Y-37187797D01*
X40285978Y-37808587D01*
X40284400Y-37828545D01*
X40284400Y-39251000D01*
X39655217Y-39251000D01*
X39324145Y-39316854D01*
X38948711Y-39567711D01*
X38697854Y-39943145D01*
X38609765Y-40386000D01*
X38697854Y-40828855D01*
X38948711Y-41204289D01*
X39324145Y-41455146D01*
X39655217Y-41521000D01*
X40284400Y-41521000D01*
X40284400Y-43408063D01*
X40242765Y-43380243D01*
X39995000Y-43330960D01*
X38745000Y-43330960D01*
X38497235Y-43380243D01*
X38287191Y-43520591D01*
X38146843Y-43730635D01*
X38097560Y-43978400D01*
X38097560Y-45478400D01*
X38105198Y-45516800D01*
X36810509Y-45516800D01*
X36082186Y-45371927D01*
X35965079Y-45293679D01*
X35995357Y-45248365D01*
X36044640Y-45000600D01*
X36044640Y-43500600D01*
X35995357Y-43252835D01*
X35855009Y-43042791D01*
X35644965Y-42902443D01*
X35397200Y-42853160D01*
X34925000Y-42853160D01*
X34925000Y-32543309D01*
X35069873Y-31814986D01*
X35475348Y-31208148D01*
X36082186Y-30802673D01*
X36810509Y-30657800D01*
X40570400Y-30657800D01*
X40595176Y-30655360D01*
X41360543Y-30503119D01*
X41406324Y-30484156D01*
X42055171Y-30050611D01*
X42090211Y-30015571D01*
X42523756Y-29366724D01*
X42542719Y-29320943D01*
X42694960Y-28555576D01*
X42697400Y-28530800D01*
X42697400Y-25177309D01*
X42842273Y-24448986D01*
X43247748Y-23842148D01*
X43854586Y-23436673D01*
X44582909Y-23291800D01*
X45409291Y-23291800D01*
X46137614Y-23436673D01*
G36*
X24115814Y-23436673D02*
X24722652Y-23842148D01*
X25128127Y-24448986D01*
X25273000Y-25177309D01*
X25273000Y-47314291D01*
X25128127Y-48042614D01*
X24722652Y-48649452D01*
X24115814Y-49054927D01*
X23387491Y-49199800D01*
X12573000Y-49199800D01*
X12548223Y-49202240D01*
X12276059Y-49256377D01*
X12230279Y-49275340D01*
X11999549Y-49429509D01*
X11964509Y-49464549D01*
X11810340Y-49695279D01*
X11791377Y-49741059D01*
X11737240Y-50013223D01*
X11736368Y-50018106D01*
X11704696Y-50217802D01*
X11621940Y-50379960D01*
X11493074Y-50508552D01*
X11330741Y-50590958D01*
X11140870Y-50620656D01*
X2008478Y-50601100D01*
X1281410Y-50455061D01*
X735000Y-50088903D01*
X735000Y-46889681D01*
X1282385Y-46523243D01*
X2009901Y-46377613D01*
X2105507Y-46377480D01*
X1898559Y-46687200D01*
X1791067Y-47227600D01*
X1898559Y-47768000D01*
X2204671Y-48226129D01*
X2662800Y-48532241D01*
X3066793Y-48612600D01*
X3339607Y-48612600D01*
X3743600Y-48532241D01*
X3997486Y-48362600D01*
X4203619Y-48362600D01*
X4276591Y-48471809D01*
X4486635Y-48612157D01*
X4734400Y-48661440D01*
X5984400Y-48661440D01*
X6232165Y-48612157D01*
X6442209Y-48471809D01*
X6582557Y-48261765D01*
X6631840Y-48014000D01*
X6631840Y-46514000D01*
X6603444Y-46371242D01*
X12786268Y-46362666D01*
X12727165Y-46659800D01*
X12815254Y-47102655D01*
X13066111Y-47478089D01*
X13441545Y-47728946D01*
X13772617Y-47794800D01*
X14772617Y-47794800D01*
X14884400Y-47817035D01*
X14996183Y-47794800D01*
X15327255Y-47728946D01*
X15702689Y-47478089D01*
X15953546Y-47102655D01*
X16041635Y-46659800D01*
X16019400Y-46548017D01*
X16019400Y-46358182D01*
X16320744Y-46357764D01*
X16345461Y-46355300D01*
X16695800Y-46285271D01*
X16695800Y-46936366D01*
X16739419Y-47041673D01*
X16761654Y-47153454D01*
X16824973Y-47248218D01*
X16868593Y-47353526D01*
X16949192Y-47434125D01*
X17012511Y-47528889D01*
X17107276Y-47592209D01*
X17187874Y-47672807D01*
X17293180Y-47716426D01*
X17387945Y-47779746D01*
X17499728Y-47801981D01*
X17605034Y-47845600D01*
X17719017Y-47845600D01*
X17830800Y-47867835D01*
X17942583Y-47845600D01*
X18056566Y-47845600D01*
X18161873Y-47801981D01*
X18273654Y-47779746D01*
X18368418Y-47716427D01*
X18473726Y-47672807D01*
X18554325Y-47592208D01*
X18649089Y-47528889D01*
X18712409Y-47434124D01*
X18793007Y-47353526D01*
X18836626Y-47248220D01*
X18899946Y-47153455D01*
X18922181Y-47041672D01*
X18965800Y-46936366D01*
X18965800Y-46109442D01*
X19314162Y-46178735D01*
X19538522Y-46134107D01*
X20187766Y-46134107D01*
X20319701Y-46222264D01*
X20567466Y-46271547D01*
X22067466Y-46271547D01*
X22315231Y-46222264D01*
X22525275Y-46081916D01*
X22665623Y-45871872D01*
X22714906Y-45624107D01*
X22714906Y-44374107D01*
X22665623Y-44126342D01*
X22600965Y-44029575D01*
X22653357Y-43951165D01*
X22702640Y-43703400D01*
X22702640Y-42453400D01*
X22653357Y-42205635D01*
X22600079Y-42125900D01*
X22653357Y-42046165D01*
X22702640Y-41798400D01*
X22702640Y-40548400D01*
X22653357Y-40300635D01*
X22513009Y-40090591D01*
X22302965Y-39950243D01*
X22055200Y-39900960D01*
X20555200Y-39900960D01*
X20311170Y-39949500D01*
X19606283Y-39949500D01*
X19494500Y-39927265D01*
X19382717Y-39949500D01*
X19051645Y-40015354D01*
X18676211Y-40266211D01*
X18666893Y-40280156D01*
X18649089Y-40253511D01*
X18554321Y-40190189D01*
X18453920Y-40089788D01*
X18459843Y-37400907D01*
X18627489Y-37288889D01*
X18690813Y-37194118D01*
X18859119Y-37025812D01*
X18953889Y-36962489D01*
X19204746Y-36587055D01*
X19270600Y-36255983D01*
X19270600Y-36255982D01*
X19292835Y-36144201D01*
X19270600Y-36032419D01*
X19270600Y-35032417D01*
X19204746Y-34701345D01*
X18953889Y-34325911D01*
X18578455Y-34075054D01*
X18467217Y-34052928D01*
X18486776Y-25173165D01*
X18632850Y-24446129D01*
X19038600Y-23840688D01*
X19644933Y-23436273D01*
X20372293Y-23291800D01*
X23387491Y-23291800D01*
X24115814Y-23436673D01*
X24115814Y-23436673D01*
G37*
X24115814Y-23436673D02*
X24722652Y-23842148D01*
X25128127Y-24448986D01*
X25273000Y-25177309D01*
X25273000Y-47314291D01*
X25128127Y-48042614D01*
X24722652Y-48649452D01*
X24115814Y-49054927D01*
X23387491Y-49199800D01*
X12573000Y-49199800D01*
X12548223Y-49202240D01*
X12276059Y-49256377D01*
X12230279Y-49275340D01*
X11999549Y-49429509D01*
X11964509Y-49464549D01*
X11810340Y-49695279D01*
X11791377Y-49741059D01*
X11737240Y-50013223D01*
X11736368Y-50018106D01*
X11704696Y-50217802D01*
X11621940Y-50379960D01*
X11493074Y-50508552D01*
X11330741Y-50590958D01*
X11140870Y-50620656D01*
X2008478Y-50601100D01*
X1281410Y-50455061D01*
X735000Y-50088903D01*
X735000Y-46889681D01*
X1282385Y-46523243D01*
X2009901Y-46377613D01*
X2105507Y-46377480D01*
X1898559Y-46687200D01*
X1791067Y-47227600D01*
X1898559Y-47768000D01*
X2204671Y-48226129D01*
X2662800Y-48532241D01*
X3066793Y-48612600D01*
X3339607Y-48612600D01*
X3743600Y-48532241D01*
X3997486Y-48362600D01*
X4203619Y-48362600D01*
X4276591Y-48471809D01*
X4486635Y-48612157D01*
X4734400Y-48661440D01*
X5984400Y-48661440D01*
X6232165Y-48612157D01*
X6442209Y-48471809D01*
X6582557Y-48261765D01*
X6631840Y-48014000D01*
X6631840Y-46514000D01*
X6603444Y-46371242D01*
X12786268Y-46362666D01*
X12727165Y-46659800D01*
X12815254Y-47102655D01*
X13066111Y-47478089D01*
X13441545Y-47728946D01*
X13772617Y-47794800D01*
X14772617Y-47794800D01*
X14884400Y-47817035D01*
X14996183Y-47794800D01*
X15327255Y-47728946D01*
X15702689Y-47478089D01*
X15953546Y-47102655D01*
X16041635Y-46659800D01*
X16019400Y-46548017D01*
X16019400Y-46358182D01*
X16320744Y-46357764D01*
X16345461Y-46355300D01*
X16695800Y-46285271D01*
X16695800Y-46936366D01*
X16739419Y-47041673D01*
X16761654Y-47153454D01*
X16824973Y-47248218D01*
X16868593Y-47353526D01*
X16949192Y-47434125D01*
X17012511Y-47528889D01*
X17107276Y-47592209D01*
X17187874Y-47672807D01*
X17293180Y-47716426D01*
X17387945Y-47779746D01*
X17499728Y-47801981D01*
X17605034Y-47845600D01*
X17719017Y-47845600D01*
X17830800Y-47867835D01*
X17942583Y-47845600D01*
X18056566Y-47845600D01*
X18161873Y-47801981D01*
X18273654Y-47779746D01*
X18368418Y-47716427D01*
X18473726Y-47672807D01*
X18554325Y-47592208D01*
X18649089Y-47528889D01*
X18712409Y-47434124D01*
X18793007Y-47353526D01*
X18836626Y-47248220D01*
X18899946Y-47153455D01*
X18922181Y-47041672D01*
X18965800Y-46936366D01*
X18965800Y-46109442D01*
X19314162Y-46178735D01*
X19538522Y-46134107D01*
X20187766Y-46134107D01*
X20319701Y-46222264D01*
X20567466Y-46271547D01*
X22067466Y-46271547D01*
X22315231Y-46222264D01*
X22525275Y-46081916D01*
X22665623Y-45871872D01*
X22714906Y-45624107D01*
X22714906Y-44374107D01*
X22665623Y-44126342D01*
X22600965Y-44029575D01*
X22653357Y-43951165D01*
X22702640Y-43703400D01*
X22702640Y-42453400D01*
X22653357Y-42205635D01*
X22600079Y-42125900D01*
X22653357Y-42046165D01*
X22702640Y-41798400D01*
X22702640Y-40548400D01*
X22653357Y-40300635D01*
X22513009Y-40090591D01*
X22302965Y-39950243D01*
X22055200Y-39900960D01*
X20555200Y-39900960D01*
X20311170Y-39949500D01*
X19606283Y-39949500D01*
X19494500Y-39927265D01*
X19382717Y-39949500D01*
X19051645Y-40015354D01*
X18676211Y-40266211D01*
X18666893Y-40280156D01*
X18649089Y-40253511D01*
X18554321Y-40190189D01*
X18453920Y-40089788D01*
X18459843Y-37400907D01*
X18627489Y-37288889D01*
X18690813Y-37194118D01*
X18859119Y-37025812D01*
X18953889Y-36962489D01*
X19204746Y-36587055D01*
X19270600Y-36255983D01*
X19270600Y-36255982D01*
X19292835Y-36144201D01*
X19270600Y-36032419D01*
X19270600Y-35032417D01*
X19204746Y-34701345D01*
X18953889Y-34325911D01*
X18578455Y-34075054D01*
X18467217Y-34052928D01*
X18486776Y-25173165D01*
X18632850Y-24446129D01*
X19038600Y-23840688D01*
X19644933Y-23436273D01*
X20372293Y-23291800D01*
X23387491Y-23291800D01*
X24115814Y-23436673D01*
G36*
X9968014Y-23360473D02*
X10574852Y-23765948D01*
X10980327Y-24372786D01*
X11125200Y-25101109D01*
X11125200Y-33750691D01*
X10980327Y-34479014D01*
X10574852Y-35085852D01*
X9968014Y-35491327D01*
X9436023Y-35597147D01*
X9205855Y-35443354D01*
X8874783Y-35377500D01*
X7651217Y-35377500D01*
X7320145Y-35443354D01*
X6944711Y-35694211D01*
X6838782Y-35852745D01*
X6485170Y-36033263D01*
X6452996Y-36056689D01*
X6010385Y-36500440D01*
X5987042Y-36532674D01*
X5703507Y-37091626D01*
X5691286Y-37129502D01*
X5594673Y-37748764D01*
X5593155Y-37768667D01*
X5608219Y-43628977D01*
X5608144Y-43629460D01*
X4734400Y-43629460D01*
X4486635Y-43678743D01*
X4276591Y-43819091D01*
X4136243Y-44029135D01*
X4086960Y-44276900D01*
X4086960Y-45459414D01*
X3725243Y-45516800D01*
X2009992Y-45516800D01*
X1421702Y-45423624D01*
X900009Y-45157808D01*
X735000Y-44992799D01*
X735000Y-31664401D01*
X900009Y-31499392D01*
X1421702Y-31233576D01*
X2009992Y-31140400D01*
X5181779Y-31140400D01*
X5201686Y-31138830D01*
X5820940Y-31040546D01*
X5858798Y-31028218D01*
X6417188Y-30743028D01*
X6449369Y-30719585D01*
X6892017Y-30275516D01*
X6915358Y-30243260D01*
X7198758Y-29683958D01*
X7210964Y-29646060D01*
X7307262Y-29026495D01*
X7308768Y-29006583D01*
X7296262Y-25104619D01*
X7387926Y-24514869D01*
X7653106Y-23991526D01*
X8067295Y-23576007D01*
X8589780Y-23309155D01*
X9179236Y-23215600D01*
X9239691Y-23215600D01*
X9968014Y-23360473D01*
X9968014Y-23360473D01*
G37*
X9968014Y-23360473D02*
X10574852Y-23765948D01*
X10980327Y-24372786D01*
X11125200Y-25101109D01*
X11125200Y-33750691D01*
X10980327Y-34479014D01*
X10574852Y-35085852D01*
X9968014Y-35491327D01*
X9436023Y-35597147D01*
X9205855Y-35443354D01*
X8874783Y-35377500D01*
X7651217Y-35377500D01*
X7320145Y-35443354D01*
X6944711Y-35694211D01*
X6838782Y-35852745D01*
X6485170Y-36033263D01*
X6452996Y-36056689D01*
X6010385Y-36500440D01*
X5987042Y-36532674D01*
X5703507Y-37091626D01*
X5691286Y-37129502D01*
X5594673Y-37748764D01*
X5593155Y-37768667D01*
X5608219Y-43628977D01*
X5608144Y-43629460D01*
X4734400Y-43629460D01*
X4486635Y-43678743D01*
X4276591Y-43819091D01*
X4136243Y-44029135D01*
X4086960Y-44276900D01*
X4086960Y-45459414D01*
X3725243Y-45516800D01*
X2009992Y-45516800D01*
X1421702Y-45423624D01*
X900009Y-45157808D01*
X735000Y-44992799D01*
X735000Y-31664401D01*
X900009Y-31499392D01*
X1421702Y-31233576D01*
X2009992Y-31140400D01*
X5181779Y-31140400D01*
X5201686Y-31138830D01*
X5820940Y-31040546D01*
X5858798Y-31028218D01*
X6417188Y-30743028D01*
X6449369Y-30719585D01*
X6892017Y-30275516D01*
X6915358Y-30243260D01*
X7198758Y-29683958D01*
X7210964Y-29646060D01*
X7307262Y-29026495D01*
X7308768Y-29006583D01*
X7296262Y-25104619D01*
X7387926Y-24514869D01*
X7653106Y-23991526D01*
X8067295Y-23576007D01*
X8589780Y-23309155D01*
X9179236Y-23215600D01*
X9239691Y-23215600D01*
X9968014Y-23360473D01*
G36*
X50082038Y-860057D02*
X50350445Y-1383745D01*
X50444556Y-1974944D01*
X50444443Y-7220023D01*
X50446006Y-7239891D01*
X50543890Y-7857960D01*
X50556169Y-7895752D01*
X50840267Y-8453318D01*
X50863624Y-8485465D01*
X51306121Y-8927943D01*
X51338270Y-8951299D01*
X51895848Y-9235372D01*
X51933640Y-9247650D01*
X52551714Y-9345507D01*
X52571582Y-9347069D01*
X57981926Y-9346716D01*
X58710253Y-9491538D01*
X59265001Y-9862155D01*
X59265001Y-13923252D01*
X59094690Y-14093575D01*
X58572978Y-14359415D01*
X57984660Y-14452600D01*
X43030006Y-14452600D01*
X42302451Y-14308045D01*
X41696013Y-13903410D01*
X41290318Y-13297677D01*
X41144494Y-12570373D01*
X41126091Y-2025163D01*
X41268560Y-1299336D01*
X41658864Y-710000D01*
X49930779Y-710000D01*
X50082038Y-860057D01*
X50082038Y-860057D01*
G37*
X50082038Y-860057D02*
X50350445Y-1383745D01*
X50444556Y-1974944D01*
X50444443Y-7220023D01*
X50446006Y-7239891D01*
X50543890Y-7857960D01*
X50556169Y-7895752D01*
X50840267Y-8453318D01*
X50863624Y-8485465D01*
X51306121Y-8927943D01*
X51338270Y-8951299D01*
X51895848Y-9235372D01*
X51933640Y-9247650D01*
X52551714Y-9345507D01*
X52571582Y-9347069D01*
X57981926Y-9346716D01*
X58710253Y-9491538D01*
X59265001Y-9862155D01*
X59265001Y-13923252D01*
X59094690Y-14093575D01*
X58572978Y-14359415D01*
X57984660Y-14452600D01*
X43030006Y-14452600D01*
X42302451Y-14308045D01*
X41696013Y-13903410D01*
X41290318Y-13297677D01*
X41144494Y-12570373D01*
X41126091Y-2025163D01*
X41268560Y-1299336D01*
X41658864Y-710000D01*
X49930779Y-710000D01*
X50082038Y-860057D01*
G36*
X19097408Y-900009D02*
X19363224Y-1421702D01*
X19456400Y-2009992D01*
X19456400Y-12592491D01*
X19311527Y-13320814D01*
X18906052Y-13927652D01*
X18299214Y-14333127D01*
X17570891Y-14478000D01*
X8874689Y-14478000D01*
X8388037Y-14400544D01*
X7958521Y-14180464D01*
X7618559Y-13837915D01*
X7401740Y-13406749D01*
X7329862Y-12932001D01*
X7452458Y-12336334D01*
X7791336Y-11834329D01*
X8295895Y-11499263D01*
X8902495Y-11379200D01*
X9023865Y-11379200D01*
X9361486Y-11446357D01*
X9638515Y-11446357D01*
X9976135Y-11379200D01*
X12554200Y-11379200D01*
X12578976Y-11376760D01*
X13344343Y-11224519D01*
X13390124Y-11205556D01*
X14038971Y-10772011D01*
X14074011Y-10736971D01*
X14507556Y-10088124D01*
X14526519Y-10042343D01*
X14678760Y-9276976D01*
X14681200Y-9252200D01*
X14681200Y-2009992D01*
X14774376Y-1421702D01*
X15040192Y-900009D01*
X15230201Y-710000D01*
X18907399Y-710000D01*
X19097408Y-900009D01*
X19097408Y-900009D01*
G37*
X19097408Y-900009D02*
X19363224Y-1421702D01*
X19456400Y-2009992D01*
X19456400Y-12592491D01*
X19311527Y-13320814D01*
X18906052Y-13927652D01*
X18299214Y-14333127D01*
X17570891Y-14478000D01*
X8874689Y-14478000D01*
X8388037Y-14400544D01*
X7958521Y-14180464D01*
X7618559Y-13837915D01*
X7401740Y-13406749D01*
X7329862Y-12932001D01*
X7452458Y-12336334D01*
X7791336Y-11834329D01*
X8295895Y-11499263D01*
X8902495Y-11379200D01*
X9023865Y-11379200D01*
X9361486Y-11446357D01*
X9638515Y-11446357D01*
X9976135Y-11379200D01*
X12554200Y-11379200D01*
X12578976Y-11376760D01*
X13344343Y-11224519D01*
X13390124Y-11205556D01*
X14038971Y-10772011D01*
X14074011Y-10736971D01*
X14507556Y-10088124D01*
X14526519Y-10042343D01*
X14678760Y-9276976D01*
X14681200Y-9252200D01*
X14681200Y-2009992D01*
X14774376Y-1421702D01*
X15040192Y-900009D01*
X15230201Y-710000D01*
X18907399Y-710000D01*
X19097408Y-900009D01*
G36*
X57990960Y-23307968D02*
X58716589Y-23455348D01*
X59265001Y-23824074D01*
X59265001Y-48684499D01*
X58710614Y-49054927D01*
X57982291Y-49199800D01*
X46596415Y-49199800D01*
X46571922Y-49202184D01*
X46302659Y-49255108D01*
X46257316Y-49273649D01*
X46028114Y-49424547D01*
X45993162Y-49458869D01*
X45838122Y-49685290D01*
X45818760Y-49730288D01*
X45760953Y-49998533D01*
X45708397Y-50242296D01*
X45581566Y-50427408D01*
X45394090Y-50550709D01*
X45161512Y-50596263D01*
X36023315Y-50589355D01*
X35295732Y-50444194D01*
X34689526Y-50038946D01*
X34284330Y-49432707D01*
X34139229Y-48705104D01*
X34138949Y-48288844D01*
X34231740Y-47700458D01*
X34497224Y-47178575D01*
X34910993Y-46764277D01*
X35432543Y-46498123D01*
X36020802Y-46404583D01*
X36087425Y-46404543D01*
X35898559Y-46687200D01*
X35791067Y-47227600D01*
X35898559Y-47768000D01*
X36204671Y-48226129D01*
X36662800Y-48532241D01*
X37066793Y-48612600D01*
X37339607Y-48612600D01*
X37743600Y-48532241D01*
X37997486Y-48362600D01*
X38238007Y-48362600D01*
X38287191Y-48436209D01*
X38497235Y-48576557D01*
X38745000Y-48625840D01*
X39995000Y-48625840D01*
X40242765Y-48576557D01*
X40452809Y-48436209D01*
X40593157Y-48226165D01*
X40642440Y-47978400D01*
X40642440Y-46478400D01*
X40627202Y-46401794D01*
X46043031Y-46398515D01*
X46001163Y-46609000D01*
X46089252Y-47051855D01*
X46340109Y-47427289D01*
X46715543Y-47678146D01*
X47046615Y-47744000D01*
X48046615Y-47744000D01*
X48158398Y-47766235D01*
X48270181Y-47744000D01*
X48601253Y-47678146D01*
X48976687Y-47427289D01*
X49040011Y-47332518D01*
X49440005Y-46932524D01*
X49976396Y-46396134D01*
X50681001Y-46395707D01*
X50681001Y-46619183D01*
X50706400Y-46746873D01*
X50706400Y-46910966D01*
X50879193Y-47328126D01*
X51198474Y-47647407D01*
X51615634Y-47820200D01*
X52067166Y-47820200D01*
X52484326Y-47647407D01*
X52803607Y-47328126D01*
X52976400Y-46910966D01*
X52976400Y-46459434D01*
X52951000Y-46398113D01*
X52951000Y-46347711D01*
X53314600Y-46420035D01*
X53554078Y-46372400D01*
X53855900Y-46372400D01*
X53987835Y-46460557D01*
X54235600Y-46509840D01*
X55735600Y-46509840D01*
X55983365Y-46460557D01*
X56193409Y-46320209D01*
X56333757Y-46110165D01*
X56383040Y-45862400D01*
X56383040Y-44612400D01*
X56333757Y-44364635D01*
X56259293Y-44253193D01*
X56308357Y-44179765D01*
X56357640Y-43932000D01*
X56357640Y-42682000D01*
X56308357Y-42434235D01*
X56255079Y-42354500D01*
X56308357Y-42274765D01*
X56357640Y-42027000D01*
X56357640Y-40777000D01*
X56308357Y-40529235D01*
X56168009Y-40319191D01*
X55957965Y-40178843D01*
X55710200Y-40129560D01*
X55319112Y-40129560D01*
X55308589Y-40113811D01*
X54933155Y-39862954D01*
X54633620Y-39803373D01*
X54630512Y-37614005D01*
X54845299Y-37470489D01*
X55096156Y-37095055D01*
X55162010Y-36763983D01*
X55162010Y-36763982D01*
X55184245Y-36652199D01*
X55162010Y-36540416D01*
X55162010Y-35540417D01*
X55096156Y-35209345D01*
X54845299Y-34833911D01*
X54626357Y-34687619D01*
X54612870Y-25186745D01*
X54705920Y-24596134D01*
X54972947Y-24072567D01*
X55389199Y-23657640D01*
X55913618Y-23392282D01*
X56504518Y-23301117D01*
X57990960Y-23307968D01*
X57990960Y-23307968D01*
G37*
X57990960Y-23307968D02*
X58716589Y-23455348D01*
X59265001Y-23824074D01*
X59265001Y-48684499D01*
X58710614Y-49054927D01*
X57982291Y-49199800D01*
X46596415Y-49199800D01*
X46571922Y-49202184D01*
X46302659Y-49255108D01*
X46257316Y-49273649D01*
X46028114Y-49424547D01*
X45993162Y-49458869D01*
X45838122Y-49685290D01*
X45818760Y-49730288D01*
X45760953Y-49998533D01*
X45708397Y-50242296D01*
X45581566Y-50427408D01*
X45394090Y-50550709D01*
X45161512Y-50596263D01*
X36023315Y-50589355D01*
X35295732Y-50444194D01*
X34689526Y-50038946D01*
X34284330Y-49432707D01*
X34139229Y-48705104D01*
X34138949Y-48288844D01*
X34231740Y-47700458D01*
X34497224Y-47178575D01*
X34910993Y-46764277D01*
X35432543Y-46498123D01*
X36020802Y-46404583D01*
X36087425Y-46404543D01*
X35898559Y-46687200D01*
X35791067Y-47227600D01*
X35898559Y-47768000D01*
X36204671Y-48226129D01*
X36662800Y-48532241D01*
X37066793Y-48612600D01*
X37339607Y-48612600D01*
X37743600Y-48532241D01*
X37997486Y-48362600D01*
X38238007Y-48362600D01*
X38287191Y-48436209D01*
X38497235Y-48576557D01*
X38745000Y-48625840D01*
X39995000Y-48625840D01*
X40242765Y-48576557D01*
X40452809Y-48436209D01*
X40593157Y-48226165D01*
X40642440Y-47978400D01*
X40642440Y-46478400D01*
X40627202Y-46401794D01*
X46043031Y-46398515D01*
X46001163Y-46609000D01*
X46089252Y-47051855D01*
X46340109Y-47427289D01*
X46715543Y-47678146D01*
X47046615Y-47744000D01*
X48046615Y-47744000D01*
X48158398Y-47766235D01*
X48270181Y-47744000D01*
X48601253Y-47678146D01*
X48976687Y-47427289D01*
X49040011Y-47332518D01*
X49440005Y-46932524D01*
X49976396Y-46396134D01*
X50681001Y-46395707D01*
X50681001Y-46619183D01*
X50706400Y-46746873D01*
X50706400Y-46910966D01*
X50879193Y-47328126D01*
X51198474Y-47647407D01*
X51615634Y-47820200D01*
X52067166Y-47820200D01*
X52484326Y-47647407D01*
X52803607Y-47328126D01*
X52976400Y-46910966D01*
X52976400Y-46459434D01*
X52951000Y-46398113D01*
X52951000Y-46347711D01*
X53314600Y-46420035D01*
X53554078Y-46372400D01*
X53855900Y-46372400D01*
X53987835Y-46460557D01*
X54235600Y-46509840D01*
X55735600Y-46509840D01*
X55983365Y-46460557D01*
X56193409Y-46320209D01*
X56333757Y-46110165D01*
X56383040Y-45862400D01*
X56383040Y-44612400D01*
X56333757Y-44364635D01*
X56259293Y-44253193D01*
X56308357Y-44179765D01*
X56357640Y-43932000D01*
X56357640Y-42682000D01*
X56308357Y-42434235D01*
X56255079Y-42354500D01*
X56308357Y-42274765D01*
X56357640Y-42027000D01*
X56357640Y-40777000D01*
X56308357Y-40529235D01*
X56168009Y-40319191D01*
X55957965Y-40178843D01*
X55710200Y-40129560D01*
X55319112Y-40129560D01*
X55308589Y-40113811D01*
X54933155Y-39862954D01*
X54633620Y-39803373D01*
X54630512Y-37614005D01*
X54845299Y-37470489D01*
X55096156Y-37095055D01*
X55162010Y-36763983D01*
X55162010Y-36763982D01*
X55184245Y-36652199D01*
X55162010Y-36540416D01*
X55162010Y-35540417D01*
X55096156Y-35209345D01*
X54845299Y-34833911D01*
X54626357Y-34687619D01*
X54612870Y-25186745D01*
X54705920Y-24596134D01*
X54972947Y-24072567D01*
X55389199Y-23657640D01*
X55913618Y-23392282D01*
X56504518Y-23301117D01*
X57990960Y-23307968D01*
G36*
X40284400Y-1984592D02*
X40284400Y-13153861D01*
X40280400Y-13173970D01*
X40280400Y-13908000D01*
X40139527Y-14616214D01*
X39734052Y-15223052D01*
X39127214Y-15628527D01*
X38398891Y-15773400D01*
X36810509Y-15773400D01*
X36082186Y-15628527D01*
X35475348Y-15223052D01*
X35069873Y-14616214D01*
X34925000Y-13887891D01*
X34925000Y-10999156D01*
X35026157Y-10847765D01*
X35075440Y-10600000D01*
X35075440Y-7100000D01*
X35026157Y-6852235D01*
X34925000Y-6700844D01*
X34925000Y-5999156D01*
X35026157Y-5847765D01*
X35075440Y-5600000D01*
X35075440Y-2140492D01*
X35547533Y-1668400D01*
X40234320Y-1668400D01*
X40284400Y-1984592D01*
X40284400Y-1984592D01*
G37*
X40284400Y-1984592D02*
X40284400Y-13153861D01*
X40280400Y-13173970D01*
X40280400Y-13908000D01*
X40139527Y-14616214D01*
X39734052Y-15223052D01*
X39127214Y-15628527D01*
X38398891Y-15773400D01*
X36810509Y-15773400D01*
X36082186Y-15628527D01*
X35475348Y-15223052D01*
X35069873Y-14616214D01*
X34925000Y-13887891D01*
X34925000Y-10999156D01*
X35026157Y-10847765D01*
X35075440Y-10600000D01*
X35075440Y-7100000D01*
X35026157Y-6852235D01*
X34925000Y-6700844D01*
X34925000Y-5999156D01*
X35026157Y-5847765D01*
X35075440Y-5600000D01*
X35075440Y-2140492D01*
X35547533Y-1668400D01*
X40234320Y-1668400D01*
X40284400Y-1984592D01*
G36*
X25126699Y-1303826D02*
X25269791Y-2030888D01*
X25250815Y-13890901D01*
X25105070Y-14618290D01*
X24699394Y-15224112D01*
X24092923Y-15628818D01*
X23365299Y-15773400D01*
X22307801Y-15773400D01*
X21718931Y-15680035D01*
X21196841Y-15413702D01*
X20782737Y-14998937D01*
X20517240Y-14476425D01*
X20424816Y-13887402D01*
X20443778Y-2017034D01*
X20538297Y-1427657D01*
X20806050Y-905548D01*
X21002892Y-710000D01*
X24732381Y-710000D01*
X25126699Y-1303826D01*
X25126699Y-1303826D01*
G37*
X25126699Y-1303826D02*
X25269791Y-2030888D01*
X25250815Y-13890901D01*
X25105070Y-14618290D01*
X24699394Y-15224112D01*
X24092923Y-15628818D01*
X23365299Y-15773400D01*
X22307801Y-15773400D01*
X21718931Y-15680035D01*
X21196841Y-15413702D01*
X20782737Y-14998937D01*
X20517240Y-14476425D01*
X20424816Y-13887402D01*
X20443778Y-2017034D01*
X20538297Y-1427657D01*
X20806050Y-905548D01*
X21002892Y-710000D01*
X24732381Y-710000D01*
X25126699Y-1303826D01*
G36*
X1536169Y-57387600D02*
X1663064Y-58025545D01*
X2024431Y-58566369D01*
X2124717Y-58633378D01*
X1995391Y-58719791D01*
X1855043Y-58929835D01*
X1834508Y-59033070D01*
X1663064Y-59289655D01*
X1536169Y-59927600D01*
X1663064Y-60565545D01*
X1834508Y-60822130D01*
X1855043Y-60925365D01*
X1995391Y-61135409D01*
X2205435Y-61275757D01*
X2308670Y-61296292D01*
X2565255Y-61467736D01*
X3042169Y-61562600D01*
X7023570Y-61562600D01*
X7184600Y-61594631D01*
X7345630Y-61562600D01*
X7345631Y-61562600D01*
X7822545Y-61467736D01*
X8363369Y-61106369D01*
X8454588Y-60969850D01*
X8483585Y-60940853D01*
X8753735Y-60536545D01*
X8880630Y-59898601D01*
X8753735Y-59260655D01*
X8392368Y-58719832D01*
X8285762Y-58648600D01*
X8392368Y-58577368D01*
X8753735Y-58036545D01*
X8880630Y-57398599D01*
X8755395Y-56769000D01*
X17851263Y-56769000D01*
X17823443Y-56810635D01*
X17774160Y-57058400D01*
X17774160Y-58308400D01*
X17823443Y-58556165D01*
X17926343Y-58710164D01*
X17853854Y-58818652D01*
X17788000Y-59149724D01*
X17788000Y-60373289D01*
X17788685Y-60376732D01*
X17775297Y-60396769D01*
X17716312Y-60693306D01*
X17727543Y-60749768D01*
X17593435Y-60776443D01*
X17481507Y-60851232D01*
X17331565Y-60751043D01*
X17195424Y-60723963D01*
X17261646Y-60624855D01*
X17327500Y-60293783D01*
X17327500Y-59070217D01*
X17261646Y-58739145D01*
X17010789Y-58363711D01*
X16635355Y-58112854D01*
X16192500Y-58024765D01*
X15749646Y-58112854D01*
X15374212Y-58363711D01*
X15123354Y-58739145D01*
X15057500Y-59070217D01*
X15057500Y-60293782D01*
X15123354Y-60624854D01*
X15313719Y-60909757D01*
X15185643Y-61101435D01*
X15136360Y-61349200D01*
X15136360Y-62849200D01*
X15185643Y-63096965D01*
X15325991Y-63307009D01*
X15536035Y-63447357D01*
X15783800Y-63496640D01*
X17083800Y-63496640D01*
X17331565Y-63447357D01*
X17443493Y-63372568D01*
X17593435Y-63472757D01*
X17841200Y-63522040D01*
X19141200Y-63522040D01*
X19388965Y-63472757D01*
X19538907Y-63372568D01*
X19650835Y-63447357D01*
X19898600Y-63496640D01*
X21198600Y-63496640D01*
X21446365Y-63447357D01*
X21656409Y-63307009D01*
X21737789Y-63185216D01*
X22034500Y-63244235D01*
X22477354Y-63156146D01*
X22852789Y-62905289D01*
X23103646Y-62529855D01*
X23169500Y-62198783D01*
X23169500Y-60975217D01*
X23103646Y-60644145D01*
X22852789Y-60268711D01*
X22477355Y-60017854D01*
X22034500Y-59929765D01*
X21591646Y-60017854D01*
X21263079Y-60237395D01*
X21264494Y-60230283D01*
X21264494Y-59006717D01*
X21254374Y-58955840D01*
X22371964Y-58955840D01*
X22422712Y-59031789D01*
X22668989Y-59196346D01*
X22798145Y-59282646D01*
X23241000Y-59370735D01*
X23683855Y-59282646D01*
X24059289Y-59031789D01*
X24310146Y-58656355D01*
X24376000Y-58325283D01*
X24398235Y-58213500D01*
X24376000Y-58101717D01*
X24376000Y-57325283D01*
X24398235Y-57213500D01*
X24332022Y-56880626D01*
X24314473Y-56792400D01*
X27357528Y-56792400D01*
X27248711Y-56865109D01*
X26997854Y-57240543D01*
X26909765Y-57683398D01*
X26997854Y-58126253D01*
X27248711Y-58501687D01*
X27398861Y-58602014D01*
X27223312Y-58719312D01*
X26972454Y-59094746D01*
X26884365Y-59537600D01*
X26905243Y-59642560D01*
X25740600Y-59642560D01*
X25492835Y-59691843D01*
X25282791Y-59832191D01*
X25142443Y-60042235D01*
X25093160Y-60290000D01*
X25093160Y-61790000D01*
X25142443Y-62037765D01*
X25282791Y-62247809D01*
X25492835Y-62388157D01*
X25740600Y-62437440D01*
X27040600Y-62437440D01*
X27062043Y-62433175D01*
X27121889Y-62493021D01*
X27185211Y-62587789D01*
X27560645Y-62838646D01*
X28003500Y-62926735D01*
X28446354Y-62838646D01*
X28449566Y-62836500D01*
X28821789Y-62587789D01*
X29072646Y-62212355D01*
X29138500Y-61881283D01*
X29138500Y-61881282D01*
X29160735Y-61769500D01*
X29138500Y-61657717D01*
X29138500Y-60950993D01*
X29146328Y-60911640D01*
X30462600Y-60911640D01*
X30710365Y-60862357D01*
X30920409Y-60722009D01*
X31060757Y-60511965D01*
X31110040Y-60264200D01*
X31110040Y-59014200D01*
X31060757Y-58766435D01*
X30998993Y-58674000D01*
X31060757Y-58581565D01*
X31110040Y-58333800D01*
X31110040Y-57083800D01*
X31060757Y-56836035D01*
X31031601Y-56792400D01*
X35654562Y-56792400D01*
X35536169Y-57387600D01*
X35663064Y-58025545D01*
X36024431Y-58566369D01*
X36124717Y-58633378D01*
X35995391Y-58719791D01*
X35855043Y-58929835D01*
X35834508Y-59033070D01*
X35663064Y-59289655D01*
X35536169Y-59927600D01*
X35663064Y-60565545D01*
X35834508Y-60822130D01*
X35855043Y-60925365D01*
X35995391Y-61135409D01*
X36205435Y-61275757D01*
X36308670Y-61296292D01*
X36565255Y-61467736D01*
X37042169Y-61562600D01*
X41008770Y-61562600D01*
X41169800Y-61594631D01*
X41330830Y-61562600D01*
X41330831Y-61562600D01*
X41807745Y-61467736D01*
X42348569Y-61106369D01*
X42350011Y-61104211D01*
X42352169Y-61102769D01*
X42713536Y-60561945D01*
X42840431Y-59924000D01*
X42713536Y-59286055D01*
X42352169Y-58745231D01*
X42245563Y-58673999D01*
X42352168Y-58602768D01*
X42713535Y-58061945D01*
X42840430Y-57423999D01*
X42714797Y-56792400D01*
X50241799Y-56792400D01*
X51617271Y-58167873D01*
X51659671Y-58231329D01*
X51815547Y-58335482D01*
X51824000Y-58377979D01*
X51824000Y-59006717D01*
X51801765Y-59118500D01*
X51853587Y-59379027D01*
X51592943Y-59553184D01*
X51529621Y-59647952D01*
X51490500Y-59687073D01*
X51490500Y-59276715D01*
X51424646Y-58945643D01*
X51173789Y-58570209D01*
X50798355Y-58319352D01*
X50355500Y-58231263D01*
X49912646Y-58319352D01*
X49537212Y-58570209D01*
X49286354Y-58945643D01*
X49220500Y-59276715D01*
X49220500Y-60500280D01*
X49258050Y-60689060D01*
X48981600Y-60689060D01*
X48733835Y-60738343D01*
X48523791Y-60878691D01*
X48383443Y-61088735D01*
X48334160Y-61336500D01*
X48334160Y-62836500D01*
X48383443Y-63084265D01*
X48523791Y-63294309D01*
X48733835Y-63434657D01*
X48981600Y-63483940D01*
X50281600Y-63483940D01*
X50529365Y-63434657D01*
X50647600Y-63355654D01*
X50765835Y-63434657D01*
X51013600Y-63483940D01*
X52313600Y-63483940D01*
X52561365Y-63434657D01*
X52685907Y-63351440D01*
X52772435Y-63409257D01*
X53020200Y-63458540D01*
X54320200Y-63458540D01*
X54567965Y-63409257D01*
X54778009Y-63268909D01*
X54832448Y-63187435D01*
X55118000Y-63244235D01*
X55560854Y-63156146D01*
X55936289Y-62905289D01*
X56187146Y-62529855D01*
X56253000Y-62198783D01*
X56253000Y-62198782D01*
X56275235Y-62087000D01*
X56253000Y-61975217D01*
X56253000Y-60975217D01*
X56187146Y-60644145D01*
X55936289Y-60268711D01*
X55560855Y-60017854D01*
X55118000Y-59929765D01*
X55049020Y-59943486D01*
X55046063Y-59928618D01*
X54914406Y-59731579D01*
X55028146Y-59561355D01*
X55116235Y-59118500D01*
X55083880Y-58955840D01*
X56457600Y-58955840D01*
X56468400Y-58953692D01*
X56770646Y-59155646D01*
X57126884Y-59226506D01*
X57213499Y-59243735D01*
X57213500Y-59243735D01*
X57656355Y-59155646D01*
X58031789Y-58904789D01*
X58282646Y-58529355D01*
X58348500Y-58198283D01*
X58348500Y-58198281D01*
X58370735Y-58086499D01*
X58348500Y-57974717D01*
X58348500Y-57198284D01*
X58370735Y-57086501D01*
X58321638Y-56839671D01*
X58307581Y-56769000D01*
X59265000Y-56769000D01*
X59265000Y-92927610D01*
X58927043Y-94626634D01*
X58005629Y-96005629D01*
X56626634Y-96927043D01*
X54927610Y-97265000D01*
X49209350Y-97265000D01*
X49662569Y-96962169D01*
X50023936Y-96421345D01*
X50150831Y-95783400D01*
X50023936Y-95145455D01*
X49793311Y-94800300D01*
X49941609Y-94701209D01*
X50081957Y-94491165D01*
X50131240Y-94243400D01*
X50131240Y-92326682D01*
X51615000Y-92326682D01*
X51615000Y-93673318D01*
X52130336Y-94917448D01*
X53082552Y-95869664D01*
X54326682Y-96385000D01*
X55673318Y-96385000D01*
X56917448Y-95869664D01*
X57869664Y-94917448D01*
X58385000Y-93673318D01*
X58385000Y-92326682D01*
X57869664Y-91082552D01*
X56917448Y-90130336D01*
X55673318Y-89615000D01*
X54326682Y-89615000D01*
X53082552Y-90130336D01*
X52130336Y-91082552D01*
X51615000Y-92326682D01*
X50131240Y-92326682D01*
X50131240Y-92243400D01*
X50081957Y-91995635D01*
X49941609Y-91785591D01*
X49731565Y-91645243D01*
X49483800Y-91595960D01*
X46883800Y-91595960D01*
X46636035Y-91645243D01*
X46425991Y-91785591D01*
X46285643Y-91995635D01*
X46236360Y-92243400D01*
X46236360Y-94243400D01*
X46285643Y-94491165D01*
X46425991Y-94701209D01*
X46574289Y-94800300D01*
X46343664Y-95145455D01*
X46216769Y-95783400D01*
X46343664Y-96421345D01*
X46705031Y-96962169D01*
X47158250Y-97265000D01*
X12836378Y-97265000D01*
X13213569Y-97012969D01*
X13574936Y-96472145D01*
X13701831Y-95834200D01*
X13574936Y-95196255D01*
X13213569Y-94655431D01*
X13077032Y-94564200D01*
X13213569Y-94472969D01*
X13467924Y-94092300D01*
X19609960Y-94092300D01*
X19609960Y-94868100D01*
X19659243Y-95115865D01*
X19799591Y-95325909D01*
X20009635Y-95466257D01*
X20257400Y-95515540D01*
X21957400Y-95515540D01*
X22205165Y-95466257D01*
X22415209Y-95325909D01*
X22555557Y-95115865D01*
X22570406Y-95041213D01*
X22806215Y-95277022D01*
X23352015Y-95503100D01*
X23942785Y-95503100D01*
X24488585Y-95277022D01*
X24906322Y-94859285D01*
X24917400Y-94832540D01*
X24928478Y-94859285D01*
X25346215Y-95277022D01*
X25892015Y-95503100D01*
X26482785Y-95503100D01*
X27028585Y-95277022D01*
X27446322Y-94859285D01*
X27457400Y-94832540D01*
X27468478Y-94859285D01*
X27886215Y-95277022D01*
X28432015Y-95503100D01*
X29022785Y-95503100D01*
X29568585Y-95277022D01*
X29986322Y-94859285D01*
X29997400Y-94832540D01*
X30008478Y-94859285D01*
X30426215Y-95277022D01*
X30972015Y-95503100D01*
X31562785Y-95503100D01*
X32108585Y-95277022D01*
X32526322Y-94859285D01*
X32537400Y-94832540D01*
X32548478Y-94859285D01*
X32966215Y-95277022D01*
X33512015Y-95503100D01*
X34102785Y-95503100D01*
X34648585Y-95277022D01*
X35066322Y-94859285D01*
X35077400Y-94832540D01*
X35088478Y-94859285D01*
X35506215Y-95277022D01*
X36052015Y-95503100D01*
X36642785Y-95503100D01*
X37188585Y-95277022D01*
X37606322Y-94859285D01*
X37617400Y-94832540D01*
X37628478Y-94859285D01*
X38046215Y-95277022D01*
X38592015Y-95503100D01*
X39182785Y-95503100D01*
X39728585Y-95277022D01*
X40146322Y-94859285D01*
X40372400Y-94313485D01*
X40372400Y-93722715D01*
X40146322Y-93176915D01*
X39728585Y-92759178D01*
X39701840Y-92748100D01*
X39728585Y-92737022D01*
X40146322Y-92319285D01*
X40372400Y-91773485D01*
X40372400Y-91182715D01*
X40146322Y-90636915D01*
X39728585Y-90219178D01*
X39182785Y-89993100D01*
X38921801Y-89993100D01*
X38969440Y-89753600D01*
X38969440Y-88503600D01*
X38920157Y-88255835D01*
X38779809Y-88045791D01*
X38569765Y-87905443D01*
X38322000Y-87856160D01*
X36822000Y-87856160D01*
X36574235Y-87905443D01*
X36364191Y-88045791D01*
X36322000Y-88108934D01*
X36279809Y-88045791D01*
X36069765Y-87905443D01*
X35822000Y-87856160D01*
X35126007Y-87856160D01*
X35114537Y-87848496D01*
X34818000Y-87789511D01*
X34732500Y-87806518D01*
X34732500Y-70140149D01*
X34841621Y-70161854D01*
X35172697Y-70095999D01*
X35909784Y-70095999D01*
X36240856Y-70030145D01*
X36616290Y-69779288D01*
X36697666Y-69657500D01*
X50344153Y-69657500D01*
X50419000Y-69672388D01*
X50493847Y-69657500D01*
X50493852Y-69657500D01*
X50715537Y-69613404D01*
X50966929Y-69445429D01*
X51009331Y-69381970D01*
X51747244Y-68644059D01*
X51816000Y-68657735D01*
X52258854Y-68569646D01*
X52634289Y-68318789D01*
X52885146Y-67943355D01*
X52951000Y-67612283D01*
X52951000Y-66388717D01*
X52885146Y-66057645D01*
X52634289Y-65682211D01*
X52258855Y-65431354D01*
X51816000Y-65343265D01*
X51373146Y-65431354D01*
X51241218Y-65519506D01*
X51014255Y-65367854D01*
X50571400Y-65279765D01*
X50128546Y-65367854D01*
X49753112Y-65618711D01*
X49504222Y-65991200D01*
X33780649Y-65991200D01*
X33705802Y-65976312D01*
X33630955Y-65991200D01*
X33630950Y-65991200D01*
X33409265Y-66035296D01*
X33157873Y-66203271D01*
X33115473Y-66266727D01*
X32826200Y-66556000D01*
X32654219Y-66556000D01*
X32592728Y-66568231D01*
X32666746Y-66457455D01*
X32732600Y-66126383D01*
X32732600Y-64902817D01*
X32666746Y-64571745D01*
X32415889Y-64196311D01*
X32040454Y-63945454D01*
X31597600Y-63857365D01*
X31154745Y-63945454D01*
X30994307Y-64052655D01*
X30795854Y-63920054D01*
X30353000Y-63831965D01*
X29910145Y-63920054D01*
X29534711Y-64170911D01*
X29283854Y-64546346D01*
X29218000Y-64877418D01*
X29218000Y-66100983D01*
X29269078Y-66357771D01*
X29254237Y-66342930D01*
X29211835Y-66279471D01*
X28960443Y-66111496D01*
X28738758Y-66067400D01*
X28738753Y-66067400D01*
X28663906Y-66052512D01*
X28589059Y-66067400D01*
X15035447Y-66067400D01*
X14998031Y-66059958D01*
X14889889Y-65898111D01*
X14514455Y-65647254D01*
X14071600Y-65559165D01*
X13628746Y-65647254D01*
X13253312Y-65898111D01*
X13002454Y-66273545D01*
X12936600Y-66604617D01*
X12936600Y-67828182D01*
X13002454Y-68159254D01*
X13253311Y-68534689D01*
X13628745Y-68785546D01*
X14071600Y-68873635D01*
X14514454Y-68785546D01*
X14889889Y-68534689D01*
X15140746Y-68159255D01*
X15206600Y-67828183D01*
X15206600Y-67656202D01*
X15275402Y-67587400D01*
X15683225Y-67587400D01*
X15679800Y-67604618D01*
X15679800Y-68581291D01*
X15653695Y-68712530D01*
X15741784Y-69155384D01*
X15992642Y-69530818D01*
X16047755Y-69567644D01*
X14806330Y-70809069D01*
X14742871Y-70851471D01*
X14574896Y-71102864D01*
X14530800Y-71324549D01*
X14530800Y-71324553D01*
X14515912Y-71399400D01*
X14530800Y-71474247D01*
X14530801Y-77136764D01*
X14472512Y-77175711D01*
X14221654Y-77551145D01*
X14155800Y-77882217D01*
X14155800Y-79105782D01*
X14221654Y-79436854D01*
X14472511Y-79812289D01*
X14847945Y-80063146D01*
X15290800Y-80151235D01*
X15733654Y-80063146D01*
X16109089Y-79812289D01*
X16359946Y-79436855D01*
X16425800Y-79105783D01*
X16425800Y-77882217D01*
X16359946Y-77551145D01*
X16109089Y-77175711D01*
X16050800Y-77136764D01*
X16050800Y-71714201D01*
X18075402Y-69689600D01*
X19247383Y-69689600D01*
X19578455Y-69623746D01*
X19953889Y-69372889D01*
X20017966Y-69276991D01*
X20445696Y-69276991D01*
X20432765Y-69342000D01*
X20520854Y-69784855D01*
X20771711Y-70160289D01*
X20855401Y-70216209D01*
X20855400Y-76958964D01*
X20797112Y-76997911D01*
X20546254Y-77373345D01*
X20480400Y-77704417D01*
X20480400Y-78927982D01*
X20546254Y-79259054D01*
X20797111Y-79634489D01*
X21172545Y-79885346D01*
X21615400Y-79973435D01*
X22058254Y-79885346D01*
X22236269Y-79766400D01*
X22914160Y-79766400D01*
X22914160Y-81066400D01*
X22963443Y-81314165D01*
X23103791Y-81524209D01*
X23313835Y-81664557D01*
X23561600Y-81713840D01*
X25061600Y-81713840D01*
X25097738Y-81706652D01*
X25349536Y-81874898D01*
X25465145Y-81952146D01*
X25907999Y-82040235D01*
X25908000Y-82040235D01*
X26350855Y-81952146D01*
X26726289Y-81701289D01*
X26977146Y-81325855D01*
X27043000Y-80994783D01*
X27043000Y-80994782D01*
X27065235Y-80882999D01*
X27043000Y-80771216D01*
X27043000Y-79994783D01*
X27065235Y-79883000D01*
X27003167Y-79570964D01*
X26977146Y-79440145D01*
X26726289Y-79064711D01*
X26350854Y-78813854D01*
X25908000Y-78725765D01*
X25465145Y-78813854D01*
X25089711Y-79064711D01*
X25053463Y-79118960D01*
X23561600Y-79118960D01*
X23313835Y-79168243D01*
X23103791Y-79308591D01*
X22963443Y-79518635D01*
X22914160Y-79766400D01*
X22236269Y-79766400D01*
X22433689Y-79634489D01*
X22684546Y-79259055D01*
X22750400Y-78927983D01*
X22750400Y-77704417D01*
X22684546Y-77373345D01*
X22433689Y-76997911D01*
X22375400Y-76958964D01*
X22375400Y-70477000D01*
X22717783Y-70477000D01*
X23048855Y-70411146D01*
X23424289Y-70160289D01*
X23675146Y-69784855D01*
X23763235Y-69342000D01*
X23750304Y-69276991D01*
X25575619Y-69276991D01*
X25600854Y-69403855D01*
X25851711Y-69779289D01*
X26227145Y-70030146D01*
X26558217Y-70096000D01*
X27781783Y-70096000D01*
X28112855Y-70030146D01*
X28488289Y-69779289D01*
X28739146Y-69403855D01*
X28827235Y-68961000D01*
X28800382Y-68826000D01*
X29593001Y-68826000D01*
X29593000Y-81930398D01*
X21892928Y-89630471D01*
X21829472Y-89672871D01*
X21787072Y-89736327D01*
X21787071Y-89736328D01*
X21661497Y-89924263D01*
X21629153Y-90086865D01*
X21402785Y-89993100D01*
X20812015Y-89993100D01*
X20645704Y-90061988D01*
X20496452Y-90032300D01*
X20496447Y-90032300D01*
X20421600Y-90017412D01*
X20346753Y-90032300D01*
X13518839Y-90032300D01*
X13213569Y-89575431D01*
X12672745Y-89214064D01*
X12195831Y-89119200D01*
X11273769Y-89119200D01*
X10796855Y-89214064D01*
X10256031Y-89575431D01*
X9894664Y-90116255D01*
X9767769Y-90754200D01*
X9894664Y-91392145D01*
X10256031Y-91932969D01*
X10392568Y-92024200D01*
X10256031Y-92115431D01*
X9894664Y-92656255D01*
X9767769Y-93294200D01*
X9894664Y-93932145D01*
X10256031Y-94472969D01*
X10392568Y-94564200D01*
X10256031Y-94655431D01*
X9894664Y-95196255D01*
X9767769Y-95834200D01*
X9894664Y-96472145D01*
X10256031Y-97012969D01*
X10633222Y-97265000D01*
X5072390Y-97265000D01*
X3373366Y-96927043D01*
X1994371Y-96005629D01*
X1072957Y-94626634D01*
X735000Y-92927610D01*
X735000Y-92326682D01*
X1615000Y-92326682D01*
X1615000Y-93673318D01*
X2130336Y-94917448D01*
X3082552Y-95869664D01*
X4326682Y-96385000D01*
X5673318Y-96385000D01*
X6917448Y-95869664D01*
X7869664Y-94917448D01*
X8385000Y-93673318D01*
X8385000Y-92326682D01*
X7869664Y-91082552D01*
X6917448Y-90130336D01*
X5673318Y-89615000D01*
X4326682Y-89615000D01*
X3082552Y-90130336D01*
X2130336Y-91082552D01*
X1615000Y-92326682D01*
X735000Y-92326682D01*
X735000Y-79946496D01*
X9891765Y-79946496D01*
X9914000Y-80058279D01*
X9914000Y-80834713D01*
X9891765Y-80946496D01*
X9914000Y-81058279D01*
X9979854Y-81389351D01*
X10230712Y-81764785D01*
X10505905Y-81948663D01*
X10606146Y-82015642D01*
X11049000Y-82103731D01*
X11491855Y-82015642D01*
X11867289Y-81764785D01*
X11877160Y-81750012D01*
X13334405Y-81750012D01*
X13582170Y-81700729D01*
X13792214Y-81560381D01*
X13932562Y-81350337D01*
X13981845Y-81102572D01*
X13981845Y-79802572D01*
X13932562Y-79554807D01*
X13792214Y-79344763D01*
X13582170Y-79204415D01*
X13334405Y-79155132D01*
X11885280Y-79155132D01*
X11867289Y-79128207D01*
X11491854Y-78877350D01*
X11049000Y-78789261D01*
X10606145Y-78877350D01*
X10230711Y-79128207D01*
X10022281Y-79440146D01*
X9979854Y-79503642D01*
X9891765Y-79946496D01*
X735000Y-79946496D01*
X735000Y-56769000D01*
X1659216Y-56769000D01*
X1536169Y-57387600D01*
X1536169Y-57387600D01*
G37*
X1536169Y-57387600D02*
X1663064Y-58025545D01*
X2024431Y-58566369D01*
X2124717Y-58633378D01*
X1995391Y-58719791D01*
X1855043Y-58929835D01*
X1834508Y-59033070D01*
X1663064Y-59289655D01*
X1536169Y-59927600D01*
X1663064Y-60565545D01*
X1834508Y-60822130D01*
X1855043Y-60925365D01*
X1995391Y-61135409D01*
X2205435Y-61275757D01*
X2308670Y-61296292D01*
X2565255Y-61467736D01*
X3042169Y-61562600D01*
X7023570Y-61562600D01*
X7184600Y-61594631D01*
X7345630Y-61562600D01*
X7345631Y-61562600D01*
X7822545Y-61467736D01*
X8363369Y-61106369D01*
X8454588Y-60969850D01*
X8483585Y-60940853D01*
X8753735Y-60536545D01*
X8880630Y-59898601D01*
X8753735Y-59260655D01*
X8392368Y-58719832D01*
X8285762Y-58648600D01*
X8392368Y-58577368D01*
X8753735Y-58036545D01*
X8880630Y-57398599D01*
X8755395Y-56769000D01*
X17851263Y-56769000D01*
X17823443Y-56810635D01*
X17774160Y-57058400D01*
X17774160Y-58308400D01*
X17823443Y-58556165D01*
X17926343Y-58710164D01*
X17853854Y-58818652D01*
X17788000Y-59149724D01*
X17788000Y-60373289D01*
X17788685Y-60376732D01*
X17775297Y-60396769D01*
X17716312Y-60693306D01*
X17727543Y-60749768D01*
X17593435Y-60776443D01*
X17481507Y-60851232D01*
X17331565Y-60751043D01*
X17195424Y-60723963D01*
X17261646Y-60624855D01*
X17327500Y-60293783D01*
X17327500Y-59070217D01*
X17261646Y-58739145D01*
X17010789Y-58363711D01*
X16635355Y-58112854D01*
X16192500Y-58024765D01*
X15749646Y-58112854D01*
X15374212Y-58363711D01*
X15123354Y-58739145D01*
X15057500Y-59070217D01*
X15057500Y-60293782D01*
X15123354Y-60624854D01*
X15313719Y-60909757D01*
X15185643Y-61101435D01*
X15136360Y-61349200D01*
X15136360Y-62849200D01*
X15185643Y-63096965D01*
X15325991Y-63307009D01*
X15536035Y-63447357D01*
X15783800Y-63496640D01*
X17083800Y-63496640D01*
X17331565Y-63447357D01*
X17443493Y-63372568D01*
X17593435Y-63472757D01*
X17841200Y-63522040D01*
X19141200Y-63522040D01*
X19388965Y-63472757D01*
X19538907Y-63372568D01*
X19650835Y-63447357D01*
X19898600Y-63496640D01*
X21198600Y-63496640D01*
X21446365Y-63447357D01*
X21656409Y-63307009D01*
X21737789Y-63185216D01*
X22034500Y-63244235D01*
X22477354Y-63156146D01*
X22852789Y-62905289D01*
X23103646Y-62529855D01*
X23169500Y-62198783D01*
X23169500Y-60975217D01*
X23103646Y-60644145D01*
X22852789Y-60268711D01*
X22477355Y-60017854D01*
X22034500Y-59929765D01*
X21591646Y-60017854D01*
X21263079Y-60237395D01*
X21264494Y-60230283D01*
X21264494Y-59006717D01*
X21254374Y-58955840D01*
X22371964Y-58955840D01*
X22422712Y-59031789D01*
X22668989Y-59196346D01*
X22798145Y-59282646D01*
X23241000Y-59370735D01*
X23683855Y-59282646D01*
X24059289Y-59031789D01*
X24310146Y-58656355D01*
X24376000Y-58325283D01*
X24398235Y-58213500D01*
X24376000Y-58101717D01*
X24376000Y-57325283D01*
X24398235Y-57213500D01*
X24332022Y-56880626D01*
X24314473Y-56792400D01*
X27357528Y-56792400D01*
X27248711Y-56865109D01*
X26997854Y-57240543D01*
X26909765Y-57683398D01*
X26997854Y-58126253D01*
X27248711Y-58501687D01*
X27398861Y-58602014D01*
X27223312Y-58719312D01*
X26972454Y-59094746D01*
X26884365Y-59537600D01*
X26905243Y-59642560D01*
X25740600Y-59642560D01*
X25492835Y-59691843D01*
X25282791Y-59832191D01*
X25142443Y-60042235D01*
X25093160Y-60290000D01*
X25093160Y-61790000D01*
X25142443Y-62037765D01*
X25282791Y-62247809D01*
X25492835Y-62388157D01*
X25740600Y-62437440D01*
X27040600Y-62437440D01*
X27062043Y-62433175D01*
X27121889Y-62493021D01*
X27185211Y-62587789D01*
X27560645Y-62838646D01*
X28003500Y-62926735D01*
X28446354Y-62838646D01*
X28449566Y-62836500D01*
X28821789Y-62587789D01*
X29072646Y-62212355D01*
X29138500Y-61881283D01*
X29138500Y-61881282D01*
X29160735Y-61769500D01*
X29138500Y-61657717D01*
X29138500Y-60950993D01*
X29146328Y-60911640D01*
X30462600Y-60911640D01*
X30710365Y-60862357D01*
X30920409Y-60722009D01*
X31060757Y-60511965D01*
X31110040Y-60264200D01*
X31110040Y-59014200D01*
X31060757Y-58766435D01*
X30998993Y-58674000D01*
X31060757Y-58581565D01*
X31110040Y-58333800D01*
X31110040Y-57083800D01*
X31060757Y-56836035D01*
X31031601Y-56792400D01*
X35654562Y-56792400D01*
X35536169Y-57387600D01*
X35663064Y-58025545D01*
X36024431Y-58566369D01*
X36124717Y-58633378D01*
X35995391Y-58719791D01*
X35855043Y-58929835D01*
X35834508Y-59033070D01*
X35663064Y-59289655D01*
X35536169Y-59927600D01*
X35663064Y-60565545D01*
X35834508Y-60822130D01*
X35855043Y-60925365D01*
X35995391Y-61135409D01*
X36205435Y-61275757D01*
X36308670Y-61296292D01*
X36565255Y-61467736D01*
X37042169Y-61562600D01*
X41008770Y-61562600D01*
X41169800Y-61594631D01*
X41330830Y-61562600D01*
X41330831Y-61562600D01*
X41807745Y-61467736D01*
X42348569Y-61106369D01*
X42350011Y-61104211D01*
X42352169Y-61102769D01*
X42713536Y-60561945D01*
X42840431Y-59924000D01*
X42713536Y-59286055D01*
X42352169Y-58745231D01*
X42245563Y-58673999D01*
X42352168Y-58602768D01*
X42713535Y-58061945D01*
X42840430Y-57423999D01*
X42714797Y-56792400D01*
X50241799Y-56792400D01*
X51617271Y-58167873D01*
X51659671Y-58231329D01*
X51815547Y-58335482D01*
X51824000Y-58377979D01*
X51824000Y-59006717D01*
X51801765Y-59118500D01*
X51853587Y-59379027D01*
X51592943Y-59553184D01*
X51529621Y-59647952D01*
X51490500Y-59687073D01*
X51490500Y-59276715D01*
X51424646Y-58945643D01*
X51173789Y-58570209D01*
X50798355Y-58319352D01*
X50355500Y-58231263D01*
X49912646Y-58319352D01*
X49537212Y-58570209D01*
X49286354Y-58945643D01*
X49220500Y-59276715D01*
X49220500Y-60500280D01*
X49258050Y-60689060D01*
X48981600Y-60689060D01*
X48733835Y-60738343D01*
X48523791Y-60878691D01*
X48383443Y-61088735D01*
X48334160Y-61336500D01*
X48334160Y-62836500D01*
X48383443Y-63084265D01*
X48523791Y-63294309D01*
X48733835Y-63434657D01*
X48981600Y-63483940D01*
X50281600Y-63483940D01*
X50529365Y-63434657D01*
X50647600Y-63355654D01*
X50765835Y-63434657D01*
X51013600Y-63483940D01*
X52313600Y-63483940D01*
X52561365Y-63434657D01*
X52685907Y-63351440D01*
X52772435Y-63409257D01*
X53020200Y-63458540D01*
X54320200Y-63458540D01*
X54567965Y-63409257D01*
X54778009Y-63268909D01*
X54832448Y-63187435D01*
X55118000Y-63244235D01*
X55560854Y-63156146D01*
X55936289Y-62905289D01*
X56187146Y-62529855D01*
X56253000Y-62198783D01*
X56253000Y-62198782D01*
X56275235Y-62087000D01*
X56253000Y-61975217D01*
X56253000Y-60975217D01*
X56187146Y-60644145D01*
X55936289Y-60268711D01*
X55560855Y-60017854D01*
X55118000Y-59929765D01*
X55049020Y-59943486D01*
X55046063Y-59928618D01*
X54914406Y-59731579D01*
X55028146Y-59561355D01*
X55116235Y-59118500D01*
X55083880Y-58955840D01*
X56457600Y-58955840D01*
X56468400Y-58953692D01*
X56770646Y-59155646D01*
X57126884Y-59226506D01*
X57213499Y-59243735D01*
X57213500Y-59243735D01*
X57656355Y-59155646D01*
X58031789Y-58904789D01*
X58282646Y-58529355D01*
X58348500Y-58198283D01*
X58348500Y-58198281D01*
X58370735Y-58086499D01*
X58348500Y-57974717D01*
X58348500Y-57198284D01*
X58370735Y-57086501D01*
X58321638Y-56839671D01*
X58307581Y-56769000D01*
X59265000Y-56769000D01*
X59265000Y-92927610D01*
X58927043Y-94626634D01*
X58005629Y-96005629D01*
X56626634Y-96927043D01*
X54927610Y-97265000D01*
X49209350Y-97265000D01*
X49662569Y-96962169D01*
X50023936Y-96421345D01*
X50150831Y-95783400D01*
X50023936Y-95145455D01*
X49793311Y-94800300D01*
X49941609Y-94701209D01*
X50081957Y-94491165D01*
X50131240Y-94243400D01*
X50131240Y-92326682D01*
X51615000Y-92326682D01*
X51615000Y-93673318D01*
X52130336Y-94917448D01*
X53082552Y-95869664D01*
X54326682Y-96385000D01*
X55673318Y-96385000D01*
X56917448Y-95869664D01*
X57869664Y-94917448D01*
X58385000Y-93673318D01*
X58385000Y-92326682D01*
X57869664Y-91082552D01*
X56917448Y-90130336D01*
X55673318Y-89615000D01*
X54326682Y-89615000D01*
X53082552Y-90130336D01*
X52130336Y-91082552D01*
X51615000Y-92326682D01*
X50131240Y-92326682D01*
X50131240Y-92243400D01*
X50081957Y-91995635D01*
X49941609Y-91785591D01*
X49731565Y-91645243D01*
X49483800Y-91595960D01*
X46883800Y-91595960D01*
X46636035Y-91645243D01*
X46425991Y-91785591D01*
X46285643Y-91995635D01*
X46236360Y-92243400D01*
X46236360Y-94243400D01*
X46285643Y-94491165D01*
X46425991Y-94701209D01*
X46574289Y-94800300D01*
X46343664Y-95145455D01*
X46216769Y-95783400D01*
X46343664Y-96421345D01*
X46705031Y-96962169D01*
X47158250Y-97265000D01*
X12836378Y-97265000D01*
X13213569Y-97012969D01*
X13574936Y-96472145D01*
X13701831Y-95834200D01*
X13574936Y-95196255D01*
X13213569Y-94655431D01*
X13077032Y-94564200D01*
X13213569Y-94472969D01*
X13467924Y-94092300D01*
X19609960Y-94092300D01*
X19609960Y-94868100D01*
X19659243Y-95115865D01*
X19799591Y-95325909D01*
X20009635Y-95466257D01*
X20257400Y-95515540D01*
X21957400Y-95515540D01*
X22205165Y-95466257D01*
X22415209Y-95325909D01*
X22555557Y-95115865D01*
X22570406Y-95041213D01*
X22806215Y-95277022D01*
X23352015Y-95503100D01*
X23942785Y-95503100D01*
X24488585Y-95277022D01*
X24906322Y-94859285D01*
X24917400Y-94832540D01*
X24928478Y-94859285D01*
X25346215Y-95277022D01*
X25892015Y-95503100D01*
X26482785Y-95503100D01*
X27028585Y-95277022D01*
X27446322Y-94859285D01*
X27457400Y-94832540D01*
X27468478Y-94859285D01*
X27886215Y-95277022D01*
X28432015Y-95503100D01*
X29022785Y-95503100D01*
X29568585Y-95277022D01*
X29986322Y-94859285D01*
X29997400Y-94832540D01*
X30008478Y-94859285D01*
X30426215Y-95277022D01*
X30972015Y-95503100D01*
X31562785Y-95503100D01*
X32108585Y-95277022D01*
X32526322Y-94859285D01*
X32537400Y-94832540D01*
X32548478Y-94859285D01*
X32966215Y-95277022D01*
X33512015Y-95503100D01*
X34102785Y-95503100D01*
X34648585Y-95277022D01*
X35066322Y-94859285D01*
X35077400Y-94832540D01*
X35088478Y-94859285D01*
X35506215Y-95277022D01*
X36052015Y-95503100D01*
X36642785Y-95503100D01*
X37188585Y-95277022D01*
X37606322Y-94859285D01*
X37617400Y-94832540D01*
X37628478Y-94859285D01*
X38046215Y-95277022D01*
X38592015Y-95503100D01*
X39182785Y-95503100D01*
X39728585Y-95277022D01*
X40146322Y-94859285D01*
X40372400Y-94313485D01*
X40372400Y-93722715D01*
X40146322Y-93176915D01*
X39728585Y-92759178D01*
X39701840Y-92748100D01*
X39728585Y-92737022D01*
X40146322Y-92319285D01*
X40372400Y-91773485D01*
X40372400Y-91182715D01*
X40146322Y-90636915D01*
X39728585Y-90219178D01*
X39182785Y-89993100D01*
X38921801Y-89993100D01*
X38969440Y-89753600D01*
X38969440Y-88503600D01*
X38920157Y-88255835D01*
X38779809Y-88045791D01*
X38569765Y-87905443D01*
X38322000Y-87856160D01*
X36822000Y-87856160D01*
X36574235Y-87905443D01*
X36364191Y-88045791D01*
X36322000Y-88108934D01*
X36279809Y-88045791D01*
X36069765Y-87905443D01*
X35822000Y-87856160D01*
X35126007Y-87856160D01*
X35114537Y-87848496D01*
X34818000Y-87789511D01*
X34732500Y-87806518D01*
X34732500Y-70140149D01*
X34841621Y-70161854D01*
X35172697Y-70095999D01*
X35909784Y-70095999D01*
X36240856Y-70030145D01*
X36616290Y-69779288D01*
X36697666Y-69657500D01*
X50344153Y-69657500D01*
X50419000Y-69672388D01*
X50493847Y-69657500D01*
X50493852Y-69657500D01*
X50715537Y-69613404D01*
X50966929Y-69445429D01*
X51009331Y-69381970D01*
X51747244Y-68644059D01*
X51816000Y-68657735D01*
X52258854Y-68569646D01*
X52634289Y-68318789D01*
X52885146Y-67943355D01*
X52951000Y-67612283D01*
X52951000Y-66388717D01*
X52885146Y-66057645D01*
X52634289Y-65682211D01*
X52258855Y-65431354D01*
X51816000Y-65343265D01*
X51373146Y-65431354D01*
X51241218Y-65519506D01*
X51014255Y-65367854D01*
X50571400Y-65279765D01*
X50128546Y-65367854D01*
X49753112Y-65618711D01*
X49504222Y-65991200D01*
X33780649Y-65991200D01*
X33705802Y-65976312D01*
X33630955Y-65991200D01*
X33630950Y-65991200D01*
X33409265Y-66035296D01*
X33157873Y-66203271D01*
X33115473Y-66266727D01*
X32826200Y-66556000D01*
X32654219Y-66556000D01*
X32592728Y-66568231D01*
X32666746Y-66457455D01*
X32732600Y-66126383D01*
X32732600Y-64902817D01*
X32666746Y-64571745D01*
X32415889Y-64196311D01*
X32040454Y-63945454D01*
X31597600Y-63857365D01*
X31154745Y-63945454D01*
X30994307Y-64052655D01*
X30795854Y-63920054D01*
X30353000Y-63831965D01*
X29910145Y-63920054D01*
X29534711Y-64170911D01*
X29283854Y-64546346D01*
X29218000Y-64877418D01*
X29218000Y-66100983D01*
X29269078Y-66357771D01*
X29254237Y-66342930D01*
X29211835Y-66279471D01*
X28960443Y-66111496D01*
X28738758Y-66067400D01*
X28738753Y-66067400D01*
X28663906Y-66052512D01*
X28589059Y-66067400D01*
X15035447Y-66067400D01*
X14998031Y-66059958D01*
X14889889Y-65898111D01*
X14514455Y-65647254D01*
X14071600Y-65559165D01*
X13628746Y-65647254D01*
X13253312Y-65898111D01*
X13002454Y-66273545D01*
X12936600Y-66604617D01*
X12936600Y-67828182D01*
X13002454Y-68159254D01*
X13253311Y-68534689D01*
X13628745Y-68785546D01*
X14071600Y-68873635D01*
X14514454Y-68785546D01*
X14889889Y-68534689D01*
X15140746Y-68159255D01*
X15206600Y-67828183D01*
X15206600Y-67656202D01*
X15275402Y-67587400D01*
X15683225Y-67587400D01*
X15679800Y-67604618D01*
X15679800Y-68581291D01*
X15653695Y-68712530D01*
X15741784Y-69155384D01*
X15992642Y-69530818D01*
X16047755Y-69567644D01*
X14806330Y-70809069D01*
X14742871Y-70851471D01*
X14574896Y-71102864D01*
X14530800Y-71324549D01*
X14530800Y-71324553D01*
X14515912Y-71399400D01*
X14530800Y-71474247D01*
X14530801Y-77136764D01*
X14472512Y-77175711D01*
X14221654Y-77551145D01*
X14155800Y-77882217D01*
X14155800Y-79105782D01*
X14221654Y-79436854D01*
X14472511Y-79812289D01*
X14847945Y-80063146D01*
X15290800Y-80151235D01*
X15733654Y-80063146D01*
X16109089Y-79812289D01*
X16359946Y-79436855D01*
X16425800Y-79105783D01*
X16425800Y-77882217D01*
X16359946Y-77551145D01*
X16109089Y-77175711D01*
X16050800Y-77136764D01*
X16050800Y-71714201D01*
X18075402Y-69689600D01*
X19247383Y-69689600D01*
X19578455Y-69623746D01*
X19953889Y-69372889D01*
X20017966Y-69276991D01*
X20445696Y-69276991D01*
X20432765Y-69342000D01*
X20520854Y-69784855D01*
X20771711Y-70160289D01*
X20855401Y-70216209D01*
X20855400Y-76958964D01*
X20797112Y-76997911D01*
X20546254Y-77373345D01*
X20480400Y-77704417D01*
X20480400Y-78927982D01*
X20546254Y-79259054D01*
X20797111Y-79634489D01*
X21172545Y-79885346D01*
X21615400Y-79973435D01*
X22058254Y-79885346D01*
X22236269Y-79766400D01*
X22914160Y-79766400D01*
X22914160Y-81066400D01*
X22963443Y-81314165D01*
X23103791Y-81524209D01*
X23313835Y-81664557D01*
X23561600Y-81713840D01*
X25061600Y-81713840D01*
X25097738Y-81706652D01*
X25349536Y-81874898D01*
X25465145Y-81952146D01*
X25907999Y-82040235D01*
X25908000Y-82040235D01*
X26350855Y-81952146D01*
X26726289Y-81701289D01*
X26977146Y-81325855D01*
X27043000Y-80994783D01*
X27043000Y-80994782D01*
X27065235Y-80882999D01*
X27043000Y-80771216D01*
X27043000Y-79994783D01*
X27065235Y-79883000D01*
X27003167Y-79570964D01*
X26977146Y-79440145D01*
X26726289Y-79064711D01*
X26350854Y-78813854D01*
X25908000Y-78725765D01*
X25465145Y-78813854D01*
X25089711Y-79064711D01*
X25053463Y-79118960D01*
X23561600Y-79118960D01*
X23313835Y-79168243D01*
X23103791Y-79308591D01*
X22963443Y-79518635D01*
X22914160Y-79766400D01*
X22236269Y-79766400D01*
X22433689Y-79634489D01*
X22684546Y-79259055D01*
X22750400Y-78927983D01*
X22750400Y-77704417D01*
X22684546Y-77373345D01*
X22433689Y-76997911D01*
X22375400Y-76958964D01*
X22375400Y-70477000D01*
X22717783Y-70477000D01*
X23048855Y-70411146D01*
X23424289Y-70160289D01*
X23675146Y-69784855D01*
X23763235Y-69342000D01*
X23750304Y-69276991D01*
X25575619Y-69276991D01*
X25600854Y-69403855D01*
X25851711Y-69779289D01*
X26227145Y-70030146D01*
X26558217Y-70096000D01*
X27781783Y-70096000D01*
X28112855Y-70030146D01*
X28488289Y-69779289D01*
X28739146Y-69403855D01*
X28827235Y-68961000D01*
X28800382Y-68826000D01*
X29593001Y-68826000D01*
X29593000Y-81930398D01*
X21892928Y-89630471D01*
X21829472Y-89672871D01*
X21787072Y-89736327D01*
X21787071Y-89736328D01*
X21661497Y-89924263D01*
X21629153Y-90086865D01*
X21402785Y-89993100D01*
X20812015Y-89993100D01*
X20645704Y-90061988D01*
X20496452Y-90032300D01*
X20496447Y-90032300D01*
X20421600Y-90017412D01*
X20346753Y-90032300D01*
X13518839Y-90032300D01*
X13213569Y-89575431D01*
X12672745Y-89214064D01*
X12195831Y-89119200D01*
X11273769Y-89119200D01*
X10796855Y-89214064D01*
X10256031Y-89575431D01*
X9894664Y-90116255D01*
X9767769Y-90754200D01*
X9894664Y-91392145D01*
X10256031Y-91932969D01*
X10392568Y-92024200D01*
X10256031Y-92115431D01*
X9894664Y-92656255D01*
X9767769Y-93294200D01*
X9894664Y-93932145D01*
X10256031Y-94472969D01*
X10392568Y-94564200D01*
X10256031Y-94655431D01*
X9894664Y-95196255D01*
X9767769Y-95834200D01*
X9894664Y-96472145D01*
X10256031Y-97012969D01*
X10633222Y-97265000D01*
X5072390Y-97265000D01*
X3373366Y-96927043D01*
X1994371Y-96005629D01*
X1072957Y-94626634D01*
X735000Y-92927610D01*
X735000Y-92326682D01*
X1615000Y-92326682D01*
X1615000Y-93673318D01*
X2130336Y-94917448D01*
X3082552Y-95869664D01*
X4326682Y-96385000D01*
X5673318Y-96385000D01*
X6917448Y-95869664D01*
X7869664Y-94917448D01*
X8385000Y-93673318D01*
X8385000Y-92326682D01*
X7869664Y-91082552D01*
X6917448Y-90130336D01*
X5673318Y-89615000D01*
X4326682Y-89615000D01*
X3082552Y-90130336D01*
X2130336Y-91082552D01*
X1615000Y-92326682D01*
X735000Y-92326682D01*
X735000Y-79946496D01*
X9891765Y-79946496D01*
X9914000Y-80058279D01*
X9914000Y-80834713D01*
X9891765Y-80946496D01*
X9914000Y-81058279D01*
X9979854Y-81389351D01*
X10230712Y-81764785D01*
X10505905Y-81948663D01*
X10606146Y-82015642D01*
X11049000Y-82103731D01*
X11491855Y-82015642D01*
X11867289Y-81764785D01*
X11877160Y-81750012D01*
X13334405Y-81750012D01*
X13582170Y-81700729D01*
X13792214Y-81560381D01*
X13932562Y-81350337D01*
X13981845Y-81102572D01*
X13981845Y-79802572D01*
X13932562Y-79554807D01*
X13792214Y-79344763D01*
X13582170Y-79204415D01*
X13334405Y-79155132D01*
X11885280Y-79155132D01*
X11867289Y-79128207D01*
X11491854Y-78877350D01*
X11049000Y-78789261D01*
X10606145Y-78877350D01*
X10230711Y-79128207D01*
X10022281Y-79440146D01*
X9979854Y-79503642D01*
X9891765Y-79946496D01*
X735000Y-79946496D01*
X735000Y-56769000D01*
X1659216Y-56769000D01*
X1536169Y-57387600D01*
M02*
