M48
;DRILL file {KiCad no-vcs-found-bf44d39~61~ubuntu17.10.1} date Thu Jan  4 10:05:50 2018
;FORMAT={2:4/ absolute / inch / suppress leading zeros}
FMAT,2
INCH,TZ
T1C0.0157
T2C0.0276
T3C0.0394
T4C0.0433
T5C0.0472
T6C0.0650
T7C0.1260
%
G90
G05
M72
T1
X300Y-9360
X3070Y-4960
X3070Y-5354
X3070Y-5747
X3070Y-12500
X3464Y-4960
X3464Y-5354
X3464Y-5747
X3464Y-12500
X3857Y-4960
X3857Y-5354
X3857Y-5747
X3857Y-12500
X3953Y-14407
X4026Y-18606
X4026Y-19000
X4140Y-230
X4251Y-4960
X4251Y-5354
X4251Y-5747
X4251Y-12500
X4340Y-31670
X4420Y-18606
X4420Y-19000
X4536Y-17010
X4560Y-14360
X4645Y-4960
X4645Y-5354
X4645Y-5747
X4810Y-15970
X4930Y-17010
X5024Y-13701
X5039Y-4960
X5039Y-5354
X5039Y-5747
X5360Y-16260
X5418Y-13701
X5432Y-4960
X5432Y-5354
X5432Y-5747
X5540Y-26660
X5812Y-13701
X5826Y-4960
X5826Y-5354
X5826Y-5747
X5860Y-18370
X6020Y-31100
X6206Y-13701
X6220Y-4960
X6220Y-5354
X6220Y-5747
X6420Y-23460
X6599Y-13701
X6613Y-4960
X6613Y-5354
X6613Y-5747
X6620Y-26660
X7020Y-18390
X7140Y-14230
X7140Y-26990
X7360Y-12500
X7365Y-23781
X7650Y-23350
X7720Y-17720
X7754Y-12500
X7760Y-16290
X7945Y-23782
X8147Y-12500
X8510Y-27275
X8510Y-31030
X8541Y-12500
X8990Y-18626
X8990Y-19020
X9120Y-22740
X9384Y-18626
X9384Y-19020
X10170Y-31660
X10500Y-27000
X10780Y-26660
X10960Y-24030
X11040Y-23440
X11050Y-22710
X11490Y-26650
X11630Y-15540
X11690Y-18040
X11900Y-34410
X11950Y-25980
X12440Y-18030
X12440Y-25990
X12900Y-26650
X12950Y-18040
X12950Y-24060
X13110Y-1480
X13730Y-26650
X14030Y-27000
X14690Y-34410
X16060Y-15930
X17310Y-5010
X17310Y-5404
X17310Y-5797
X17310Y-12500
X17560Y-34740
X17626Y-18616
X17626Y-19010
X17704Y-5010
X17704Y-5404
X17704Y-5797
X17704Y-12500
X18020Y-18616
X18020Y-19010
X18097Y-5010
X18097Y-5404
X18097Y-5797
X18097Y-12500
X18286Y-17090
X18320Y-32150
X18320Y-32544
X18320Y-32937
X18360Y-15970
X18491Y-5010
X18491Y-5404
X18491Y-5797
X18491Y-12500
X18670Y-16360
X18680Y-17090
X18710Y-14390
X18830Y-26565
X18885Y-5010
X18885Y-5404
X18885Y-5797
X18960Y-18350
X19213Y-13701
X19279Y-5010
X19279Y-5404
X19279Y-5797
X19606Y-13701
X19672Y-5010
X19672Y-5404
X19672Y-5797
X19810Y-23620
X19910Y-26550
X20000Y-13701
X20066Y-5010
X20066Y-5404
X20066Y-5797
X20100Y-34180
X20110Y-33410
X20110Y-34910
X20320Y-26560
X20394Y-13701
X20410Y-18380
X20460Y-5010
X20460Y-5404
X20460Y-5797
X20787Y-13701
X20810Y-23680
X20853Y-5010
X20853Y-5404
X20853Y-5797
X20990Y-17820
X21040Y-23244
X21060Y-16340
X21220Y-14430
X21247Y-5010
X21247Y-5404
X21247Y-5797
X21340Y-23680
X21610Y-12500
X21641Y-5010
X21641Y-5404
X21641Y-5797
X22004Y-12500
X22034Y-5010
X22034Y-5404
X22034Y-5797
X22360Y-18616
X22360Y-19010
X22397Y-12500
X22428Y-5010
X22428Y-5404
X22428Y-5797
X22530Y-22720
X22754Y-18616
X22754Y-19010
X22791Y-12500
X22822Y-5010
X22822Y-5404
X22822Y-5797
T2
X1261Y-17594
X1261Y-18594
X1261Y-19594
X1261Y-22594
X1261Y-23594
X14647Y-17594
X14647Y-18594
X14647Y-19594
X14647Y-22594
X14647Y-23594
T3
X8310Y-36015
X8310Y-37015
X9310Y-36015
X9310Y-37015
X10310Y-36015
X10310Y-37015
X11310Y-36015
X11310Y-37015
X12310Y-36015
X12310Y-37015
X13310Y-36015
X13310Y-37015
X14310Y-36015
X14310Y-37015
X15310Y-36015
X15310Y-37015
T4
X880Y-6370
X880Y-11370
X11811Y-6204
X11811Y-11204
T5
X4620Y-34730
X4620Y-35730
X4620Y-36730
X4620Y-37730
X18970Y-36710
X18970Y-37710
T6
X17126Y-1248
X17126Y-2689
X14764Y-1248
X14764Y-2689
X6496Y-1248
X6496Y-2689
X8858Y-1248
X8858Y-2689
X984Y-2035
X984Y-3476
T7
X21654Y-36614
X1969Y-36614
T0
M30
