G04 #@! TF.GenerationSoftware,KiCad,Pcbnew,no-vcs-found-c6d0075~61~ubuntu17.10.1*
G04 #@! TF.CreationDate,2018-02-01T09:34:47-05:00*
G04 #@! TF.ProjectId,ENNOID Dual Gate Driver,454E4E4F4944204475616C2047617465,rev?*
G04 #@! TF.SameCoordinates,Original*
G04 #@! TF.FileFunction,Profile,NP*
%FSLAX46Y46*%
G04 Gerber Fmt 4.6, Leading zero omitted, Abs format (unit mm)*
G04 Created by KiCad (PCBNEW no-vcs-found-c6d0075~61~ubuntu17.10.1) date Thu Feb  1 09:34:47 2018*
%MOMM*%
%LPD*%
G01*
G04 APERTURE LIST*
%ADD10C,0.150000*%
%ADD11C,0.200000*%
G04 APERTURE END LIST*
D10*
X27800000Y-3750000D02*
G75*
G02X30800000Y-3750000I1500000J0D01*
G01*
X8000000Y-3750000D02*
G75*
G02X11000000Y-3750000I1500000J0D01*
G01*
X5000000Y0D02*
X55000000Y0D01*
X11000000Y-9250000D02*
G75*
G02X8000000Y-9250000I-1500000J0D01*
G01*
X30800000Y-9250000D02*
G75*
G02X27800000Y-9250000I-1500000J0D01*
G01*
X33096658Y-25392883D02*
G75*
G02X31623458Y-25392883I-736600J0D01*
G01*
X31623458Y-19373083D02*
G75*
G02X33096658Y-19373083I736600J0D01*
G01*
X26848258Y-19373083D02*
G75*
G02X28321458Y-19373083I736600J0D01*
G01*
X28321458Y-25418283D02*
G75*
G02X26848258Y-25418283I-736600J0D01*
G01*
X30800000Y-9250000D02*
X30800000Y-3750000D01*
X27800000Y-3750000D02*
X27800000Y-9250000D01*
X8000000Y-3750000D02*
X8000000Y-9250000D01*
X11000000Y-9250000D02*
X11000000Y-3750000D01*
X28321458Y-19393083D02*
X28321458Y-25393083D01*
X26848258Y-25393083D02*
X26848258Y-19393083D01*
X31623458Y-25393083D02*
X31623458Y-19393083D01*
X33096658Y-19393083D02*
X33096658Y-25393083D01*
D11*
X5000000Y-98000000D02*
G75*
G02X0Y-93000000I0J5000000D01*
G01*
X55000000Y0D02*
G75*
G02X60000000Y-5000000I0J-5000000D01*
G01*
X0Y-5000000D02*
X0Y-93000000D01*
X60000000Y-93000000D02*
G75*
G02X55000000Y-98000000I-5000000J0D01*
G01*
X5000000Y-98000000D02*
X55000000Y-98000000D01*
X60000000Y-93000000D02*
X60000000Y-5000000D01*
X0Y-5000000D02*
G75*
G02X5000000Y0I5000000J0D01*
G01*
M02*
