*
G04 Mass Parameters ***
*
G04 Image ***
*
%INC:\USERS\BGARROTT\DOCUMENTS\CGD15HB62P1 62MM GATE DRIVER REV 1\CGD15HB62P1 62 MM MODULE EVAL BOARD REV1.SPB*%
%ICAS*%
%MOIN*%
%IPPOS*%
%ASAXBY*%
G74*%FSLAN2X34Y34*%
*
G04 Aperture Definitions ***
*
%ADD10C,0.1500*%
%ADD11C,0.0500*%
%ADD12R,0.0320X0.0380*%
%ADD13R,0.0380X0.0320*%
%ADD14R,0.1000X0.0640*%
%ADD15R,0.0470X0.0280*%
%ADD16C,0.0540*%
%ADD17R,0.0280X0.0470*%
%ADD18R,0.0320X0.0400*%
%ADD19C,0.1160*%
%ADD20C,0.0620*%
%ADD21R,0.0620X0.0620*%
%ADD22R,0.0340X0.0500*%
%ADD23R,0.0340X0.0400*%
%ADD24R,0.0500X0.0340*%
%ADD25R,0.0400X0.0340*%
%ADD26R,0.0600X0.0600*%
%ADD27R,0.0670X0.0940*%
%ADD28C,0.0550*%
%ADD29O,0.0250X0.0940*%
%ADD30R,0.0250X0.0940*%
%ADD31R,0.1000X0.1500*%
%ADD32O,0.0810X0.0250*%
%ADD33R,0.0810X0.0250*%
%ADD34O,0.1000X0.0250*%
%ADD35R,0.1000X0.0250*%
%ADD36C,0.0830*%
%ADD37C,0.0240*%
%ADD38C,0.0100*%
%ADD39C,0.0200*%
%ADD40C,0.0080*%
%ADD41C,0.0120*%
%ADD42C,0.0240*%
%ADD43C,0.0480*%
%ADD44C,0.0240*%
%ADD45C,0.1500*%
%ADD46C,0.0500*%
%ADD47R,0.0320X0.0380*%
%ADD48R,0.0380X0.0320*%
%ADD49R,0.0640X0.1000*%
%ADD50R,0.0600X0.0600*%
%ADD51R,0.0500X0.0450*%
%ADD52C,0.0540*%
%ADD53R,0.0450X0.0500*%
%ADD54C,0.1160*%
%ADD55C,0.0620*%
%ADD56R,0.0620X0.0620*%
%ADD57R,0.0370X0.0600*%
%ADD58R,0.0320X0.0640*%
%ADD59R,0.0320X0.0940*%
%ADD60R,0.0500X0.0500*%
%ADD61R,0.0670X0.0940*%
%ADD62C,0.0550*%
%ADD63R,0.3300X0.4130*%
%ADD64R,0.1380X0.0400*%
%ADD65C,0.0830*%
%ADD66C,0.0240*%
%ADD67C,0.0010*%
%ADD68R,0.1000X0.0640*%
%ADD69R,0.0470X0.0280*%
%ADD70C,0.0590*%
%ADD71R,0.0280X0.0470*%
%ADD72R,0.0320X0.0400*%
%ADD73R,0.0340X0.0500*%
%ADD74R,0.0340X0.0400*%
%ADD75R,0.0500X0.0340*%
%ADD76R,0.0400X0.0340*%
%ADD77C,0.0600*%
%ADD78O,0.0250X0.0940*%
%ADD79R,0.0250X0.0940*%
%ADD80R,0.1000X0.1500*%
%ADD81O,0.0810X0.0250*%
%ADD82R,0.0810X0.0250*%
%ADD83O,0.1000X0.0250*%
%ADD84R,0.1000X0.0250*%
%ADD85C,0.0670*%
%ADD86C,0.0880*%
%ADD87R,0.0700X0.1200*%
*
G04 Plot Data ***
*
G54D67*
G01X0026841Y0018054D02*
X0026729D01*
X0026395Y0019160D02*
Y0018440D01*
X0027175Y0019160D02*
Y0018440D01*
X0027173Y0019199D02*
Y0018400D01*
X0027164Y0019252D02*
Y0018348D01*
X0027155Y0019283D02*
Y0018317D01*
X0027146Y0019307D02*
Y0018292D01*
X0027137Y0019328D02*
Y0018272D01*
X0027128Y0019345D02*
Y0018254D01*
X0027119Y0019361D02*
Y0018238D01*
X0027110Y0019375D02*
Y0018224D01*
X0027101Y0019388D02*
Y0018211D01*
X0027092Y0019400D02*
Y0018199D01*
X0027083Y0019411D02*
Y0018188D01*
X0027074Y0019422D02*
Y0018178D01*
X0027065Y0019431D02*
Y0018168D01*
X0027056Y0019440D02*
Y0018159D01*
X0027047Y0019449D02*
Y0018151D01*
X0027038Y0019457D02*
Y0018143D01*
X0027029Y0019464D02*
Y0018136D01*
X0027020Y0019471D02*
Y0018129D01*
X0027011Y0019478D02*
Y0018122D01*
X0027002Y0019484D02*
Y0018116D01*
X0026993Y0019490D02*
Y0018110D01*
X0026984Y0019495D02*
Y0018104D01*
X0026975Y0019500D02*
Y0018099D01*
X0026966Y0019505D02*
Y0018094D01*
X0026957Y0019510D02*
Y0018090D01*
X0026948Y0019514D02*
Y0018086D01*
X0026939Y0019518D02*
Y0018082D01*
X0026930Y0019522D02*
Y0018078D01*
X0026921Y0019525D02*
Y0018074D01*
X0026912Y0019529D02*
Y0018071D01*
X0026903Y0019532D02*
Y0018068D01*
X0026894Y0019534D02*
Y0018065D01*
X0026885Y0019537D02*
Y0018063D01*
X0026876Y0019539D02*
Y0018061D01*
X0026867Y0019541D02*
Y0018059D01*
X0026858Y0019543D02*
Y0018057D01*
X0026849Y0019545D02*
Y0018055D01*
X0026840Y0019546D02*
Y0018054D01*
X0026831Y0019547D02*
Y0018053D01*
X0026822Y0019548D02*
Y0018052D01*
X0026813Y0019549D02*
Y0018051D01*
X0026804Y0019549D02*
Y0018050D01*
X0026795Y0019550D02*
Y0018050D01*
X0026786Y0019550D02*
Y0018050D01*
X0026777Y0019550D02*
Y0018050D01*
X0026768Y0019549D02*
Y0018050D01*
X0026759Y0019549D02*
Y0018051D01*
X0026750Y0019548D02*
Y0018051D01*
X0026741Y0019547D02*
Y0018052D01*
X0026732Y0019546D02*
Y0018053D01*
X0026723Y0019545D02*
Y0018055D01*
X0026714Y0019543D02*
Y0018056D01*
X0026705Y0019542D02*
Y0018058D01*
X0026696Y0019540D02*
Y0018060D01*
X0026687Y0019537D02*
Y0018062D01*
X0026678Y0019535D02*
Y0018065D01*
X0026669Y0019532D02*
Y0018067D01*
X0026660Y0019529D02*
Y0018070D01*
X0026651Y0019526D02*
Y0018074D01*
X0026642Y0019523D02*
Y0018077D01*
X0026633Y0019519D02*
Y0018081D01*
X0026624Y0019515D02*
Y0018085D01*
X0026615Y0019511D02*
Y0018089D01*
X0026606Y0019506D02*
Y0018093D01*
X0026597Y0019502D02*
Y0018098D01*
X0026588Y0019496D02*
Y0018103D01*
X0026579Y0019491D02*
Y0018109D01*
X0026570Y0019485D02*
Y0018114D01*
X0026561Y0019479D02*
Y0018121D01*
X0026552Y0019473D02*
Y0018127D01*
X0026543Y0019466D02*
Y0018134D01*
X0026534Y0019458D02*
Y0018141D01*
X0026525Y0019451D02*
Y0018149D01*
X0026516Y0019442D02*
Y0018157D01*
X0026507Y0019433D02*
Y0018166D01*
X0026498Y0019424D02*
Y0018176D01*
X0026489Y0019414D02*
Y0018186D01*
X0026480Y0019403D02*
Y0018197D01*
X0026471Y0019391D02*
Y0018209D01*
X0026462Y0019378D02*
Y0018221D01*
X0026453Y0019364D02*
Y0018235D01*
X0026444Y0019349D02*
Y0018251D01*
X0026435Y0019332D02*
Y0018268D01*
X0026426Y0019312D02*
Y0018287D01*
X0026417Y0019289D02*
Y0018311D01*
X0026408Y0019260D02*
Y0018340D01*
X0026399Y0019216D02*
Y0018384D01*
X0026824Y0019548D02*
X0026745D01*
X0026877Y0019539D02*
X0026693D01*
X0026908Y0019530D02*
X0026662D01*
X0026932Y0019521D02*
X0026637D01*
X0026953Y0019512D02*
X0026617D01*
X0026970Y0019503D02*
X0026599D01*
X0026986Y0019494D02*
X0026583D01*
X0027000Y0019485D02*
X0026569D01*
X0027013Y0019476D02*
X0026556D01*
X0027025Y0019467D02*
X0026544D01*
X0027036Y0019458D02*
X0026533D01*
X0027047Y0019449D02*
X0026523D01*
X0027056Y0019440D02*
X0026513D01*
X0027065Y0019431D02*
X0026504D01*
X0027074Y0019422D02*
X0026496D01*
X0027082Y0019413D02*
X0026488D01*
X0027089Y0019404D02*
X0026481D01*
X0027096Y0019395D02*
X0026474D01*
X0027103Y0019386D02*
X0026467D01*
X0027109Y0019377D02*
X0026461D01*
X0027115Y0019368D02*
X0026455D01*
X0027120Y0019359D02*
X0026449D01*
X0027125Y0019350D02*
X0026444D01*
X0027130Y0019341D02*
X0026439D01*
X0027135Y0019332D02*
X0026435D01*
X0027139Y0019323D02*
X0026431D01*
X0027143Y0019314D02*
X0026427D01*
X0027147Y0019305D02*
X0026423D01*
X0027150Y0019296D02*
X0026419D01*
X0027154Y0019287D02*
X0026416D01*
X0027157Y0019278D02*
X0026413D01*
X0027159Y0019269D02*
X0026410D01*
X0027162Y0019260D02*
X0026408D01*
X0027164Y0019251D02*
X0026406D01*
X0027166Y0019242D02*
X0026404D01*
X0027168Y0019233D02*
X0026402D01*
X0027170Y0019224D02*
X0026400D01*
X0027171Y0019215D02*
X0026399D01*
X0027172Y0019206D02*
X0026398D01*
X0027173Y0019197D02*
X0026397D01*
X0027174Y0019188D02*
X0026396D01*
X0027174Y0019179D02*
X0026395D01*
X0027175Y0019170D02*
X0026395D01*
X0027175Y0019161D02*
X0026395D01*
X0027175Y0019152D02*
X0026395D01*
X0027175Y0019143D02*
X0026395D01*
X0027175Y0019134D02*
X0026395D01*
X0027175Y0019125D02*
X0026395D01*
X0027175Y0019116D02*
X0026395D01*
X0027175Y0019107D02*
X0026395D01*
X0027175Y0019098D02*
X0026395D01*
X0027175Y0019089D02*
X0026395D01*
X0027175Y0019080D02*
X0026395D01*
X0027175Y0019071D02*
X0026395D01*
X0027175Y0019062D02*
X0026395D01*
X0027175Y0019053D02*
X0026395D01*
X0027175Y0019044D02*
X0026395D01*
X0027175Y0019035D02*
X0026395D01*
X0027175Y0019026D02*
X0026395D01*
X0027175Y0019017D02*
X0026395D01*
X0027175Y0019008D02*
X0026395D01*
X0027175Y0018999D02*
X0026395D01*
X0027175Y0018990D02*
X0026395D01*
X0027175Y0018981D02*
X0026395D01*
X0027175Y0018972D02*
X0026395D01*
X0027175Y0018963D02*
X0026395D01*
X0027175Y0018954D02*
X0026395D01*
X0027175Y0018945D02*
X0026395D01*
X0027175Y0018936D02*
X0026395D01*
X0027175Y0018927D02*
X0026395D01*
X0027175Y0018918D02*
X0026395D01*
X0027175Y0018909D02*
X0026395D01*
X0027175Y0018900D02*
X0026395D01*
X0027175Y0018891D02*
X0026395D01*
X0027175Y0018882D02*
X0026395D01*
X0027175Y0018873D02*
X0026395D01*
X0027175Y0018864D02*
X0026395D01*
X0027175Y0018855D02*
X0026395D01*
X0027175Y0018846D02*
X0026395D01*
X0027175Y0018837D02*
X0026395D01*
X0027175Y0018828D02*
X0026395D01*
X0027175Y0018819D02*
X0026395D01*
X0027175Y0018810D02*
X0026395D01*
X0027175Y0018801D02*
X0026395D01*
X0027175Y0018792D02*
X0026395D01*
X0027175Y0018783D02*
X0026395D01*
X0027175Y0018774D02*
X0026395D01*
X0027175Y0018765D02*
X0026395D01*
X0027175Y0018756D02*
X0026395D01*
X0027175Y0018747D02*
X0026395D01*
X0027175Y0018738D02*
X0026395D01*
X0027175Y0018729D02*
X0026395D01*
X0027175Y0018720D02*
X0026395D01*
X0027175Y0018711D02*
X0026395D01*
X0027175Y0018702D02*
X0026395D01*
X0027175Y0018693D02*
X0026395D01*
X0027175Y0018684D02*
X0026395D01*
X0027175Y0018675D02*
X0026395D01*
X0027175Y0018666D02*
X0026395D01*
X0027175Y0018657D02*
X0026395D01*
X0027175Y0018648D02*
X0026395D01*
X0027175Y0018639D02*
X0026395D01*
X0027175Y0018630D02*
X0026395D01*
X0027175Y0018621D02*
X0026395D01*
X0027175Y0018612D02*
X0026395D01*
X0027175Y0018603D02*
X0026395D01*
X0027175Y0018594D02*
X0026395D01*
X0027175Y0018585D02*
X0026395D01*
X0027175Y0018576D02*
X0026395D01*
X0027175Y0018567D02*
X0026395D01*
X0027175Y0018558D02*
X0026395D01*
X0027175Y0018549D02*
X0026395D01*
X0027175Y0018540D02*
X0026395D01*
X0027175Y0018531D02*
X0026395D01*
X0027175Y0018522D02*
X0026395D01*
X0027175Y0018513D02*
X0026395D01*
X0027175Y0018504D02*
X0026395D01*
X0027175Y0018495D02*
X0026395D01*
X0027175Y0018486D02*
X0026395D01*
X0027175Y0018477D02*
X0026395D01*
X0027175Y0018468D02*
X0026395D01*
X0027175Y0018459D02*
X0026395D01*
X0027175Y0018450D02*
X0026395D01*
X0027175Y0018441D02*
X0026395D01*
X0027175Y0018432D02*
X0026395D01*
X0027174Y0018423D02*
X0026395D01*
X0027174Y0018414D02*
X0026396D01*
X0027173Y0018405D02*
X0026396D01*
X0027172Y0018396D02*
X0026397D01*
X0027171Y0018387D02*
X0026398D01*
X0027170Y0018378D02*
X0026400D01*
X0027168Y0018369D02*
X0026401D01*
X0027167Y0018360D02*
X0026403D01*
X0027165Y0018351D02*
X0026405D01*
X0027162Y0018342D02*
X0026407D01*
X0027160Y0018333D02*
X0026410D01*
X0027157Y0018324D02*
X0026412D01*
X0027154Y0018315D02*
X0026415D01*
X0027151Y0018306D02*
X0026419D01*
X0027148Y0018297D02*
X0026422D01*
X0027144Y0018288D02*
X0026426D01*
X0027140Y0018279D02*
X0026430D01*
X0027136Y0018270D02*
X0026434D01*
X0027131Y0018261D02*
X0026438D01*
X0027127Y0018252D02*
X0026443D01*
X0027121Y0018243D02*
X0026448D01*
X0027116Y0018234D02*
X0026454D01*
X0027110Y0018225D02*
X0026459D01*
X0027104Y0018216D02*
X0026466D01*
X0027098Y0018207D02*
X0026472D01*
X0027091Y0018198D02*
X0026479D01*
X0027083Y0018189D02*
X0026486D01*
X0027076Y0018180D02*
X0026494D01*
X0027067Y0018171D02*
X0026502D01*
X0027058Y0018162D02*
X0026511D01*
X0027049Y0018153D02*
X0026521D01*
X0027039Y0018144D02*
X0026531D01*
X0027028Y0018135D02*
X0026542D01*
X0027016Y0018126D02*
X0026554D01*
X0027003Y0018117D02*
X0026566D01*
X0026989Y0018108D02*
X0026580D01*
X0026974Y0018099D02*
X0026596D01*
X0026957Y0018090D02*
X0026613D01*
X0026937Y0018081D02*
X0026632D01*
X0026914Y0018072D02*
X0026656D01*
X0026885Y0018063D02*
X0026685D01*
X0026716Y0006304D02*
X0026604D01*
X0026270Y0007410D02*
Y0006690D01*
X0027050Y0007410D02*
Y0006690D01*
X0027048Y0007449D02*
Y0006650D01*
X0027039Y0007502D02*
Y0006598D01*
X0027030Y0007533D02*
Y0006567D01*
X0027021Y0007557D02*
Y0006542D01*
X0027012Y0007578D02*
Y0006522D01*
X0027003Y0007595D02*
Y0006504D01*
X0026994Y0007611D02*
Y0006488D01*
X0026985Y0007625D02*
Y0006474D01*
X0026976Y0007638D02*
Y0006461D01*
X0026967Y0007650D02*
Y0006449D01*
X0026958Y0007661D02*
Y0006438D01*
X0026949Y0007672D02*
Y0006428D01*
X0026940Y0007681D02*
Y0006418D01*
X0026931Y0007690D02*
Y0006409D01*
X0026922Y0007699D02*
Y0006401D01*
X0026913Y0007707D02*
Y0006393D01*
X0026904Y0007714D02*
Y0006386D01*
X0026895Y0007721D02*
Y0006379D01*
X0026886Y0007728D02*
Y0006372D01*
X0026877Y0007734D02*
Y0006366D01*
X0026868Y0007740D02*
Y0006360D01*
X0026859Y0007745D02*
Y0006354D01*
X0026850Y0007750D02*
Y0006349D01*
X0026841Y0007755D02*
Y0006344D01*
X0026832Y0007760D02*
Y0006340D01*
X0026823Y0007764D02*
Y0006336D01*
X0026814Y0007768D02*
Y0006332D01*
X0026805Y0007772D02*
Y0006328D01*
X0026796Y0007775D02*
Y0006324D01*
X0026787Y0007779D02*
Y0006321D01*
X0026778Y0007782D02*
Y0006318D01*
X0026769Y0007784D02*
Y0006315D01*
X0026760Y0007787D02*
Y0006313D01*
X0026751Y0007789D02*
Y0006311D01*
X0026742Y0007791D02*
Y0006309D01*
X0026733Y0007793D02*
Y0006307D01*
X0026724Y0007795D02*
Y0006305D01*
X0026715Y0007796D02*
Y0006304D01*
X0026706Y0007797D02*
Y0006303D01*
X0026697Y0007798D02*
Y0006302D01*
X0026688Y0007799D02*
Y0006301D01*
X0026679Y0007799D02*
Y0006300D01*
X0026670Y0007800D02*
Y0006300D01*
X0026661Y0007800D02*
Y0006300D01*
X0026652Y0007800D02*
Y0006300D01*
X0026643Y0007799D02*
Y0006300D01*
X0026634Y0007799D02*
Y0006301D01*
X0026625Y0007798D02*
Y0006301D01*
X0026616Y0007797D02*
Y0006302D01*
X0026607Y0007796D02*
Y0006303D01*
X0026598Y0007795D02*
Y0006305D01*
X0026589Y0007793D02*
Y0006306D01*
X0026580Y0007792D02*
Y0006308D01*
X0026571Y0007790D02*
Y0006310D01*
X0026562Y0007787D02*
Y0006312D01*
X0026553Y0007785D02*
Y0006315D01*
X0026544Y0007782D02*
Y0006317D01*
X0026535Y0007779D02*
Y0006320D01*
X0026526Y0007776D02*
Y0006324D01*
X0026517Y0007773D02*
Y0006327D01*
X0026508Y0007769D02*
Y0006331D01*
X0026499Y0007765D02*
Y0006335D01*
X0026490Y0007761D02*
Y0006339D01*
X0026481Y0007756D02*
Y0006343D01*
X0026472Y0007752D02*
Y0006348D01*
X0026463Y0007746D02*
Y0006353D01*
X0026454Y0007741D02*
Y0006359D01*
X0026445Y0007735D02*
Y0006364D01*
X0026436Y0007729D02*
Y0006371D01*
X0026427Y0007723D02*
Y0006377D01*
X0026418Y0007716D02*
Y0006384D01*
X0026409Y0007708D02*
Y0006391D01*
X0026400Y0007701D02*
Y0006399D01*
X0026391Y0007692D02*
Y0006407D01*
X0026382Y0007683D02*
Y0006416D01*
X0026373Y0007674D02*
Y0006426D01*
X0026364Y0007664D02*
Y0006436D01*
X0026355Y0007653D02*
Y0006447D01*
X0026346Y0007641D02*
Y0006459D01*
X0026337Y0007628D02*
Y0006471D01*
X0026328Y0007614D02*
Y0006485D01*
X0026319Y0007599D02*
Y0006501D01*
X0026310Y0007582D02*
Y0006518D01*
X0026301Y0007562D02*
Y0006537D01*
X0026292Y0007539D02*
Y0006561D01*
X0026283Y0007510D02*
Y0006590D01*
X0026274Y0007466D02*
Y0006634D01*
X0026699Y0007798D02*
X0026620D01*
X0026752Y0007789D02*
X0026568D01*
X0026783Y0007780D02*
X0026537D01*
X0026807Y0007771D02*
X0026512D01*
X0026828Y0007762D02*
X0026492D01*
X0026845Y0007753D02*
X0026474D01*
X0026861Y0007744D02*
X0026458D01*
X0026875Y0007735D02*
X0026444D01*
X0026888Y0007726D02*
X0026431D01*
X0026900Y0007717D02*
X0026419D01*
X0026911Y0007708D02*
X0026408D01*
X0026922Y0007699D02*
X0026398D01*
X0026931Y0007690D02*
X0026388D01*
X0026940Y0007681D02*
X0026379D01*
X0026949Y0007672D02*
X0026371D01*
X0026957Y0007663D02*
X0026363D01*
X0026964Y0007654D02*
X0026356D01*
X0026971Y0007645D02*
X0026349D01*
X0026978Y0007636D02*
X0026342D01*
X0026984Y0007627D02*
X0026336D01*
X0026990Y0007618D02*
X0026330D01*
X0026995Y0007609D02*
X0026324D01*
X0027000Y0007600D02*
X0026319D01*
X0027005Y0007591D02*
X0026314D01*
X0027010Y0007582D02*
X0026310D01*
X0027014Y0007573D02*
X0026306D01*
X0027018Y0007564D02*
X0026302D01*
X0027022Y0007555D02*
X0026298D01*
X0027025Y0007546D02*
X0026294D01*
X0027029Y0007537D02*
X0026291D01*
X0027032Y0007528D02*
X0026288D01*
X0027034Y0007519D02*
X0026285D01*
X0027037Y0007510D02*
X0026283D01*
X0027039Y0007501D02*
X0026281D01*
X0027041Y0007492D02*
X0026279D01*
X0027043Y0007483D02*
X0026277D01*
X0027045Y0007474D02*
X0026275D01*
X0027046Y0007465D02*
X0026274D01*
X0027047Y0007456D02*
X0026273D01*
X0027048Y0007447D02*
X0026272D01*
X0027049Y0007438D02*
X0026271D01*
X0027049Y0007429D02*
X0026270D01*
X0027050Y0007420D02*
X0026270D01*
X0027050Y0007411D02*
X0026270D01*
X0027050Y0007402D02*
X0026270D01*
X0027050Y0007393D02*
X0026270D01*
X0027050Y0007384D02*
X0026270D01*
X0027050Y0007375D02*
X0026270D01*
X0027050Y0007366D02*
X0026270D01*
X0027050Y0007357D02*
X0026270D01*
X0027050Y0007348D02*
X0026270D01*
X0027050Y0007339D02*
X0026270D01*
X0027050Y0007330D02*
X0026270D01*
X0027050Y0007321D02*
X0026270D01*
X0027050Y0007312D02*
X0026270D01*
X0027050Y0007303D02*
X0026270D01*
X0027050Y0007294D02*
X0026270D01*
X0027050Y0007285D02*
X0026270D01*
X0027050Y0007276D02*
X0026270D01*
X0027050Y0007267D02*
X0026270D01*
X0027050Y0007258D02*
X0026270D01*
X0027050Y0007249D02*
X0026270D01*
X0027050Y0007240D02*
X0026270D01*
X0027050Y0007231D02*
X0026270D01*
X0027050Y0007222D02*
X0026270D01*
X0027050Y0007213D02*
X0026270D01*
X0027050Y0007204D02*
X0026270D01*
X0027050Y0007195D02*
X0026270D01*
X0027050Y0007186D02*
X0026270D01*
X0027050Y0007177D02*
X0026270D01*
X0027050Y0007168D02*
X0026270D01*
X0027050Y0007159D02*
X0026270D01*
X0027050Y0007150D02*
X0026270D01*
X0027050Y0007141D02*
X0026270D01*
X0027050Y0007132D02*
X0026270D01*
X0027050Y0007123D02*
X0026270D01*
X0027050Y0007114D02*
X0026270D01*
X0027050Y0007105D02*
X0026270D01*
X0027050Y0007096D02*
X0026270D01*
X0027050Y0007087D02*
X0026270D01*
X0027050Y0007078D02*
X0026270D01*
X0027050Y0007069D02*
X0026270D01*
X0027050Y0007060D02*
X0026270D01*
X0027050Y0007051D02*
X0026270D01*
X0027050Y0007042D02*
X0026270D01*
X0027050Y0007033D02*
X0026270D01*
X0027050Y0007024D02*
X0026270D01*
X0027050Y0007015D02*
X0026270D01*
X0027050Y0007006D02*
X0026270D01*
X0027050Y0006997D02*
X0026270D01*
X0027050Y0006988D02*
X0026270D01*
X0027050Y0006979D02*
X0026270D01*
X0027050Y0006970D02*
X0026270D01*
X0027050Y0006961D02*
X0026270D01*
X0027050Y0006952D02*
X0026270D01*
X0027050Y0006943D02*
X0026270D01*
X0027050Y0006934D02*
X0026270D01*
X0027050Y0006925D02*
X0026270D01*
X0027050Y0006916D02*
X0026270D01*
X0027050Y0006907D02*
X0026270D01*
X0027050Y0006898D02*
X0026270D01*
X0027050Y0006889D02*
X0026270D01*
X0027050Y0006880D02*
X0026270D01*
X0027050Y0006871D02*
X0026270D01*
X0027050Y0006862D02*
X0026270D01*
X0027050Y0006853D02*
X0026270D01*
X0027050Y0006844D02*
X0026270D01*
X0027050Y0006835D02*
X0026270D01*
X0027050Y0006826D02*
X0026270D01*
X0027050Y0006817D02*
X0026270D01*
X0027050Y0006808D02*
X0026270D01*
X0027050Y0006799D02*
X0026270D01*
X0027050Y0006790D02*
X0026270D01*
X0027050Y0006781D02*
X0026270D01*
X0027050Y0006772D02*
X0026270D01*
X0027050Y0006763D02*
X0026270D01*
X0027050Y0006754D02*
X0026270D01*
X0027050Y0006745D02*
X0026270D01*
X0027050Y0006736D02*
X0026270D01*
X0027050Y0006727D02*
X0026270D01*
X0027050Y0006718D02*
X0026270D01*
X0027050Y0006709D02*
X0026270D01*
X0027050Y0006700D02*
X0026270D01*
X0027050Y0006691D02*
X0026270D01*
X0027050Y0006682D02*
X0026270D01*
X0027049Y0006673D02*
X0026270D01*
X0027049Y0006664D02*
X0026271D01*
X0027048Y0006655D02*
X0026271D01*
X0027047Y0006646D02*
X0026272D01*
X0027046Y0006637D02*
X0026273D01*
X0027045Y0006628D02*
X0026275D01*
X0027043Y0006619D02*
X0026276D01*
X0027042Y0006610D02*
X0026278D01*
X0027040Y0006601D02*
X0026280D01*
X0027037Y0006592D02*
X0026282D01*
X0027035Y0006583D02*
X0026285D01*
X0027032Y0006574D02*
X0026287D01*
X0027029Y0006565D02*
X0026290D01*
X0027026Y0006556D02*
X0026294D01*
X0027023Y0006547D02*
X0026297D01*
X0027019Y0006538D02*
X0026301D01*
X0027015Y0006529D02*
X0026305D01*
X0027011Y0006520D02*
X0026309D01*
X0027006Y0006511D02*
X0026313D01*
X0027002Y0006502D02*
X0026318D01*
X0026996Y0006493D02*
X0026323D01*
X0026991Y0006484D02*
X0026329D01*
X0026985Y0006475D02*
X0026334D01*
X0026979Y0006466D02*
X0026341D01*
X0026973Y0006457D02*
X0026347D01*
X0026966Y0006448D02*
X0026354D01*
X0026958Y0006439D02*
X0026361D01*
X0026951Y0006430D02*
X0026369D01*
X0026942Y0006421D02*
X0026377D01*
X0026933Y0006412D02*
X0026386D01*
X0026924Y0006403D02*
X0026396D01*
X0026914Y0006394D02*
X0026406D01*
X0026903Y0006385D02*
X0026417D01*
X0026891Y0006376D02*
X0026429D01*
X0026878Y0006367D02*
X0026441D01*
X0026864Y0006358D02*
X0026455D01*
X0026849Y0006349D02*
X0026471D01*
X0026832Y0006340D02*
X0026488D01*
X0026812Y0006331D02*
X0026507D01*
X0026789Y0006322D02*
X0026531D01*
X0026760Y0006313D02*
X0026560D01*
G01X0026395Y0018440D02*
G03X0026785Y0018050I0000390J0000000D01*
G03X0027175Y0018440I0000000J0000390D01*
Y0019160D02*
G03X0026785Y0019550I0000390J0000000D01*
G03X0026395Y0019160I0000000J0000390D01*
G01X0026270Y0006690D02*
G03X0026660Y0006300I0000390J0000000D01*
G03X0027050Y0006690I0000000J0000390D01*
Y0007410D02*
G03X0026660Y0007800I0000390J0000000D01*
G03X0026270Y0007410I0000000J0000390D01*
G54D47*
X0006000Y0017625D03*
X0006560D03*
X0006000Y0018750D03*
X0006560D03*
X0006000Y0014750D03*
X0006560D03*
X0023750Y0009500D03*
X0024310D03*
X0020750D03*
X0020190D03*
X0020750Y0011000D03*
X0020190D03*
X0025500Y0009500D03*
X0026060D03*
X0023875Y0021125D03*
X0024435D03*
X0020500Y0022750D03*
X0019940D03*
X0020500Y0021250D03*
X0019940D03*
X0025500Y0021125D03*
X0026060D03*
G54D48*
X0028125Y0006750D03*
Y0007310D03*
Y0008500D03*
Y0009060D03*
X0028250Y0018500D03*
Y0019060D03*
Y0020250D03*
Y0020810D03*
X0030000Y0004875D03*
Y0005435D03*
X0035750Y0008215D03*
Y0007655D03*
X0035500Y0015375D03*
Y0015935D03*
X0029875Y0016625D03*
Y0017185D03*
X0026000Y0004250D03*
Y0004810D03*
X0026250Y0016250D03*
Y0016810D03*
G54D49*
X0005500Y0016000D03*
X0006850D03*
G54D50*
X0033500Y0005000D03*
X0035430D03*
X0033500Y0006375D03*
X0035430D03*
X0033500Y0017500D03*
X0035430D03*
X0033500Y0018625D03*
X0035430D03*
X0032125Y0004625D03*
Y0005925D03*
X0032000Y0016125D03*
Y0017425D03*
G54D51*
X0032745Y0019275D03*
Y0017725D03*
X0029000Y0005980D03*
Y0007530D03*
X0029125Y0017480D03*
Y0019030D03*
G54D53*
X0032855Y0003875D03*
X0034405D03*
G54D57*
X0020000Y0006375D03*
X0020790D03*
X0020000Y0008245D03*
X0020790D03*
X0019750Y0018375D03*
X0020540D03*
X0019750Y0020245D03*
X0020540D03*
G54D58*
X0027250Y0006000D03*
X0026070D03*
X0027375Y0017750D03*
X0026195D03*
G54D59*
X0026660Y0006150D03*
X0026785Y0017900D03*
G54D60*
X0020295Y0004455D03*
Y0005295D03*
X0020170Y0016580D03*
Y0017420D03*
G54D63*
X0012270Y0016750D03*
G54D64*
X0008250Y0015750D03*
Y0017750D03*
M02*
