*
G04 Mass Parameters ***
*
G04 Image ***
*
%INC:\USERS\BGARROTT\DOCUMENTS\CGD15HB62P1 62MM GATE DRIVER REV 1\CGD15HB62P1 62 MM MODULE EVAL BOARD REV1.SST*%
%ICAS*%
%MOIN*%
%IPPOS*%
%ASAXBY*%
G74*%FSLAN2X34Y34*%
*
G04 Aperture Definitions ***
*
%ADD10C,0.1500*%
%ADD11C,0.0500*%
%ADD12R,0.0320X0.0380*%
%ADD13R,0.0380X0.0320*%
%ADD14R,0.1000X0.0640*%
%ADD15R,0.0470X0.0280*%
%ADD16C,0.0540*%
%ADD17R,0.0280X0.0470*%
%ADD18R,0.0320X0.0400*%
%ADD19C,0.1160*%
%ADD20C,0.0620*%
%ADD21R,0.0620X0.0620*%
%ADD22R,0.0340X0.0500*%
%ADD23R,0.0340X0.0400*%
%ADD24R,0.0500X0.0340*%
%ADD25R,0.0400X0.0340*%
%ADD26R,0.0600X0.0600*%
%ADD27R,0.0670X0.0940*%
%ADD28C,0.0550*%
%ADD29O,0.0250X0.0940*%
%ADD30R,0.0250X0.0940*%
%ADD31R,0.1000X0.1500*%
%ADD32O,0.0810X0.0250*%
%ADD33R,0.0810X0.0250*%
%ADD34O,0.1000X0.0250*%
%ADD35R,0.1000X0.0250*%
%ADD36C,0.0830*%
%ADD37C,0.0240*%
%ADD38C,0.0100*%
%ADD39C,0.0200*%
%ADD40C,0.0080*%
%ADD41C,0.0120*%
%ADD42C,0.0240*%
%ADD43C,0.0480*%
%ADD44C,0.0240*%
%ADD45C,0.1500*%
%ADD46C,0.0500*%
%ADD47R,0.0320X0.0380*%
%ADD48R,0.0380X0.0320*%
%ADD49R,0.0640X0.1000*%
%ADD50R,0.0600X0.0600*%
%ADD51R,0.0500X0.0450*%
%ADD52C,0.0540*%
%ADD53R,0.0450X0.0500*%
%ADD54C,0.1160*%
%ADD55C,0.0620*%
%ADD56R,0.0620X0.0620*%
%ADD57R,0.0370X0.0600*%
%ADD58R,0.0320X0.0640*%
%ADD59R,0.0320X0.0940*%
%ADD60R,0.0500X0.0500*%
%ADD61R,0.0670X0.0940*%
%ADD62C,0.0550*%
%ADD63R,0.3300X0.4130*%
%ADD64R,0.1380X0.0400*%
%ADD65C,0.0830*%
%ADD66C,0.0240*%
%ADD67C,0.0010*%
%ADD68R,0.1000X0.0640*%
%ADD69R,0.0470X0.0280*%
%ADD70C,0.0590*%
%ADD71R,0.0280X0.0470*%
%ADD72R,0.0320X0.0400*%
%ADD73R,0.0340X0.0500*%
%ADD74R,0.0340X0.0400*%
%ADD75R,0.0500X0.0340*%
%ADD76R,0.0400X0.0340*%
%ADD77C,0.0600*%
%ADD78O,0.0250X0.0940*%
%ADD79R,0.0250X0.0940*%
%ADD80R,0.1000X0.1500*%
%ADD81O,0.0810X0.0250*%
%ADD82R,0.0810X0.0250*%
%ADD83O,0.1000X0.0250*%
%ADD84R,0.1000X0.0250*%
%ADD85C,0.0670*%
%ADD86C,0.0880*%
%ADD87R,0.0700X0.1200*%
%ADD88C,0.0060*%
%ADD89C,0.1000*%
*
G04 Plot Data ***
*
G54D38*
G01X0038462Y0021808D02*
X0038587Y0021558D01*
X0038254Y0021808D02*
X0038504D01*
X0038587Y0021892D01*
Y0021975D01*
X0038504Y0022058D01*
X0038254D01*
Y0021558D01*
X0037929Y0021808D02*
X0037679D01*
X0038012Y0021558D02*
X0037679D01*
Y0022058D01*
X0038012D01*
X0037104Y0021808D02*
X0037354D01*
X0037437Y0021892D01*
Y0021975D01*
X0037354Y0022058D01*
X0037104D01*
Y0021558D01*
X0036529Y0021808D02*
X0036779D01*
X0036862Y0021892D01*
Y0021975D01*
X0036779Y0022058D01*
X0036529D01*
Y0021558D01*
X0036287Y0022058D02*
Y0021642D01*
X0036246Y0021558D01*
X0035996D01*
X0035954Y0021642D01*
Y0022058D01*
X0034783Y0021558D02*
Y0022058D01*
X0034950D02*
X0034617D01*
X0034375Y0021725D02*
X0034042D01*
X0034375Y0021558D02*
Y0021808D01*
X0034250Y0022058D01*
X0034167D01*
X0034042Y0021808D01*
Y0021558D01*
X0033800Y0021975D02*
X0033758Y0022058D01*
X0033508D01*
X0033467Y0021975D01*
Y0021892D01*
X0033508Y0021808D01*
X0033758D01*
X0033800Y0021725D01*
Y0021642D01*
X0033758Y0021558D01*
X0033508D01*
X0033467Y0021642D01*
X0032933Y0021558D02*
Y0022058D01*
X0032892Y0021558D02*
X0033142D01*
X0033225Y0021725D01*
Y0021892D01*
X0033142Y0022058D01*
X0032892D01*
X0037450Y0022583D02*
X0037283D01*
X0037367D02*
Y0023083D01*
X0037283Y0023000D01*
X0036667Y0022750D02*
Y0022667D01*
X0036708Y0022583D01*
X0036875D01*
X0036917Y0022667D01*
Y0023083D01*
X0036958D02*
X0036792D01*
X0038171Y0002058D02*
X0038296Y0001808D01*
X0037962Y0002058D02*
X0038212D01*
X0038296Y0002142D01*
Y0002225D01*
X0038212Y0002308D01*
X0037962D01*
Y0001808D01*
X0037637Y0002058D02*
X0037387D01*
X0037721Y0001808D02*
X0037387D01*
Y0002308D01*
X0037721D01*
X0037146D02*
Y0001892D01*
X0037104Y0001808D01*
X0036979Y0002058D01*
Y0002142D02*
Y0002058D01*
X0036854Y0001808D01*
X0036812Y0001892D01*
Y0002308D01*
X0036279Y0001808D02*
X0036237Y0001892D01*
Y0002225D01*
X0036279Y0002308D01*
X0036529D01*
X0036571Y0002225D01*
Y0001892D01*
X0036529Y0001808D01*
X0036279D01*
X0035996D02*
X0035704D01*
Y0002308D01*
X0034533Y0001808D02*
Y0002308D01*
X0034700D02*
X0034367D01*
X0034125Y0001975D02*
X0033792D01*
X0034125Y0001808D02*
Y0002058D01*
X0034000Y0002308D01*
X0033917D01*
X0033792Y0002058D01*
Y0001808D01*
X0033550Y0002225D02*
X0033508Y0002308D01*
X0033258D01*
X0033217Y0002225D01*
Y0002142D01*
X0033258Y0002058D01*
X0033508D01*
X0033550Y0001975D01*
Y0001892D01*
X0033508Y0001808D01*
X0033258D01*
X0033217Y0001892D01*
X0032683Y0001808D02*
Y0002308D01*
X0032642Y0001808D02*
X0032892D01*
X0032975Y0001975D01*
Y0002142D01*
X0032892Y0002308D01*
X0032642D01*
X0037158Y0000708D02*
X0036825D01*
X0037158Y0001042D01*
Y0001125D01*
X0037117Y0001208D01*
X0036867D01*
X0036825Y0001125D01*
X0036292Y0000875D02*
Y0000792D01*
X0036333Y0000708D01*
X0036500D01*
X0036542Y0000792D01*
Y0001208D01*
X0036583D02*
X0036417D01*
X0014008Y0019508D02*
Y0020008D01*
X0013967Y0019508D02*
X0014217D01*
X0014300Y0019675D01*
Y0019842D01*
X0014217Y0020008D01*
X0013967D01*
X0013725D02*
Y0019508D01*
X0013642Y0019592D01*
X0013475Y0019925D01*
X0013392Y0020008D01*
Y0019508D01*
X0012983Y0019758D02*
X0013150D01*
Y0019592D01*
X0013108Y0019508D01*
X0012858D01*
X0012817Y0019592D01*
Y0019925D01*
X0012858Y0020008D01*
X0013108D01*
X0013150Y0019925D01*
X0036725Y0013883D02*
Y0013467D01*
X0036683Y0013383D01*
X0036433D01*
X0036392Y0013467D01*
Y0013883D01*
X0036150Y0013800D02*
X0036108Y0013883D01*
X0035858D01*
X0035817Y0013800D01*
Y0013717D01*
X0035858Y0013633D01*
X0036108D01*
X0036150Y0013550D01*
Y0013467D01*
X0036108Y0013383D01*
X0035858D01*
X0035817Y0013467D01*
X0032708Y0012861D02*
X0032875Y0012528D01*
X0032430Y0012861D02*
X0032764D01*
X0032875Y0012972D01*
Y0013083D01*
X0032764Y0013194D01*
X0032430D01*
Y0012528D01*
X0032064Y0012861D02*
X0031730D01*
X0032175Y0012528D02*
X0031730D01*
Y0013194D01*
X0032175D01*
X0031253Y0012861D02*
X0031475D01*
Y0012639D01*
X0031419Y0012528D01*
X0031086D01*
X0031030Y0012639D01*
Y0013083D01*
X0031086Y0013194D01*
X0031419D01*
X0031475Y0013083D01*
X0030775Y0013194D02*
Y0012528D01*
X0030664Y0012639D01*
X0030442Y0013083D01*
X0030330Y0013194D01*
Y0012528D01*
X0030075Y0012750D02*
X0029630D01*
X0030075Y0012528D02*
Y0012861D01*
X0029908Y0013194D01*
X0029797D01*
X0029630Y0012861D01*
Y0012528D01*
X0028986D02*
Y0013194D01*
X0028930Y0012528D02*
X0029264D01*
X0029375Y0012750D01*
Y0012972D01*
X0029264Y0013194D01*
X0028930D01*
X0034797Y0011861D02*
X0034464D01*
X0034908Y0011528D02*
X0034464D01*
Y0012194D01*
X0034908D01*
X0033986Y0011861D02*
X0034208D01*
Y0011639D01*
X0034152Y0011528D01*
X0033819D01*
X0033764Y0011639D01*
Y0012083D01*
X0033819Y0012194D01*
X0034152D01*
X0034208Y0012083D01*
X0033508Y0011750D02*
X0033064D01*
X0033508Y0011528D02*
Y0011861D01*
X0033341Y0012194D01*
X0033230D01*
X0033064Y0011861D01*
Y0011528D01*
X0032586D02*
Y0012194D01*
X0032808D02*
X0032364D01*
X0032108Y0011528D02*
X0031719D01*
Y0012194D01*
X0031075Y0011528D02*
X0031019Y0011639D01*
Y0012083D01*
X0031075Y0012194D01*
X0031408D01*
X0031464Y0012083D01*
Y0011639D01*
X0031408Y0011528D01*
X0031075D01*
X0030764Y0012194D02*
Y0011972D01*
X0030541Y0011528D01*
X0030319Y0011972D01*
Y0012194D01*
X0029114Y0011861D02*
X0028669D01*
X0029114Y0011528D02*
Y0012194D01*
X0028669Y0011528D02*
Y0012194D01*
X0028191Y0011861D02*
X0028414D01*
Y0011639D01*
X0028358Y0011528D01*
X0028025D01*
X0027969Y0011639D01*
Y0012083D01*
X0028025Y0012194D01*
X0028358D01*
X0028414Y0012083D01*
X0027714Y0011528D02*
X0027492D01*
X0027603D02*
Y0012194D01*
X0027714D02*
X0027492D01*
X0027125Y0011861D02*
X0026680D01*
X0027125Y0011528D02*
Y0012194D01*
X0026680Y0011528D02*
Y0012194D01*
X0005912Y0014612D02*
Y0014779D01*
Y0014696D02*
X0006412D01*
X0006329Y0014779D01*
X0006162Y0015437D02*
Y0015187D01*
X0006246Y0015104D01*
X0006329D01*
X0006412Y0015187D01*
Y0015437D01*
X0005912D01*
Y0015679D02*
Y0016012D01*
X0006246Y0015679D01*
X0006329D01*
X0006412Y0015721D01*
Y0015971D01*
X0006329Y0016012D01*
X0006162Y0016546D02*
Y0016296D01*
X0006079Y0016254D01*
X0005996D01*
X0005912Y0016296D01*
Y0016546D01*
X0005996Y0016587D01*
X0006079D01*
X0006412Y0016421D01*
X0005912Y0017121D02*
X0006412D01*
X0005912Y0017162D02*
Y0016912D01*
X0005996Y0016829D01*
X0006079D01*
X0006162Y0016871D01*
Y0017121D02*
Y0016871D01*
X0006246Y0016829D01*
X0006329D01*
X0006412Y0016912D01*
Y0017162D01*
X0006162Y0017404D02*
Y0017737D01*
X0005912Y0017404D02*
X0006412D01*
X0005912Y0017737D02*
X0006412D01*
X0005996Y0018312D02*
X0005912Y0018271D01*
Y0018021D01*
X0005996Y0017979D01*
X0006162D01*
X0006246Y0018062D01*
Y0018312D01*
X0006412D01*
Y0017979D01*
X0005912Y0018554D02*
Y0018721D01*
Y0018637D02*
X0006412D01*
X0006329Y0018721D01*
X0005912Y0019337D02*
X0006412D01*
X0005912Y0019379D02*
Y0019129D01*
X0006079Y0019046D01*
X0006246D01*
X0006412Y0019129D01*
Y0019379D01*
X0006162Y0019787D02*
Y0019621D01*
X0005996D01*
X0005912Y0019662D01*
Y0019912D01*
X0005996Y0019954D01*
X0006329D01*
X0006412Y0019912D01*
Y0019662D01*
X0006329Y0019621D01*
X0005996Y0020196D02*
X0005912Y0020237D01*
Y0020487D01*
X0005996Y0020529D01*
X0006329D01*
X0006412Y0020487D01*
Y0020237D01*
X0006329Y0020196D01*
X0004925Y0015346D02*
Y0015512D01*
Y0015429D02*
X0005425D01*
X0005342Y0015512D01*
X0005258Y0016600D02*
X0004925Y0016767D01*
X0005258Y0016933D01*
X0004925Y0017217D02*
Y0017467D01*
X0005008Y0017508D01*
X0005175D01*
X0005258Y0017467D01*
Y0017217D01*
X0005175Y0017175D01*
X0005092D01*
Y0017508D01*
X0005258Y0017750D02*
Y0017917D01*
X0005175Y0017958D01*
Y0018042D01*
X0005258D02*
X0004925D01*
Y0019337D02*
X0005425D01*
X0004925Y0019379D02*
Y0019129D01*
X0005008Y0019046D01*
X0005092D01*
X0005175Y0019087D01*
Y0019337D02*
Y0019087D01*
X0005258Y0019046D01*
X0005342D01*
X0005425Y0019129D01*
Y0019379D01*
X0005008Y0019621D02*
X0004925Y0019662D01*
Y0019912D01*
X0005008Y0019954D01*
X0005342D01*
X0005425Y0019912D01*
Y0019662D01*
X0005342Y0019621D01*
X0005175Y0020529D02*
Y0020279D01*
X0005258Y0020196D01*
X0005342D01*
X0005425Y0020279D01*
Y0020529D01*
X0004925D01*
X0014008Y0017758D02*
Y0018258D01*
X0013967Y0017758D02*
X0014217D01*
X0014300Y0017925D01*
Y0018092D01*
X0014217Y0018258D01*
X0013967D01*
X0013725D02*
Y0017758D01*
X0013642Y0017842D01*
X0013475Y0018175D01*
X0013392Y0018258D01*
Y0017758D01*
X0012983Y0018008D02*
X0013150D01*
Y0017842D01*
X0013108Y0017758D01*
X0012858D01*
X0012817Y0017842D01*
Y0018175D01*
X0012858Y0018258D01*
X0013108D01*
X0013150Y0018175D01*
X0006883Y0017867D02*
X0007383D01*
X0006883Y0017908D02*
Y0017658D01*
X0007050Y0017575D01*
X0007217D01*
X0007383Y0017658D01*
Y0017908D01*
Y0018150D02*
X0006883D01*
X0006967Y0018233D01*
X0007300Y0018400D01*
X0007383Y0018483D01*
X0006883D01*
X0007133Y0018892D02*
Y0018725D01*
X0006967D01*
X0006883Y0018767D01*
Y0019017D01*
X0006967Y0019058D01*
X0007300D01*
X0007383Y0019017D01*
Y0018767D01*
X0007300Y0018725D01*
X0018450Y0010719D02*
X0018505Y0010664D01*
X0018616D01*
X0018672Y0010719D01*
Y0010775D01*
X0018561Y0010886D01*
X0018672Y0010997D01*
X0018450D01*
X0018222Y0010664D02*
X0018055Y0010997D01*
X0018222D02*
X0018055Y0010664D01*
X0017358Y0009917D02*
X0017858D01*
X0017358Y0009958D02*
Y0009708D01*
X0017442Y0009625D01*
X0017525D01*
X0017608Y0009667D01*
Y0009917D02*
Y0009667D01*
X0017692Y0009625D01*
X0017775D01*
X0017858Y0009708D01*
Y0009958D01*
X0017192Y0010200D02*
Y0010533D01*
X0017358Y0010775D02*
X0017858D01*
X0017775Y0010858D01*
X0017608Y0010942D01*
X0017775Y0011025D01*
X0017858Y0011108D01*
X0017358D01*
X0017858Y0011350D02*
X0017442D01*
X0017358Y0011392D01*
X0017608Y0011517D01*
X0017692D02*
X0017608D01*
X0017358Y0011642D01*
X0017442Y0011683D01*
X0017858D01*
X0017608Y0012258D02*
Y0012008D01*
X0017692Y0011925D01*
X0017775D01*
X0017858Y0012008D01*
Y0012258D01*
X0017358D01*
X0005542Y0001692D02*
Y0001192D01*
X0005458Y0001275D01*
X0005292Y0001608D01*
X0005208Y0001692D01*
Y0001192D01*
X0004967Y0001608D02*
X0004925Y0001692D01*
X0004675D01*
X0004633Y0001608D01*
Y0001525D01*
X0004675Y0001442D01*
X0004925D01*
X0004967Y0001358D01*
Y0001275D01*
X0004925Y0001192D01*
X0004675D01*
X0004633Y0001275D01*
X0038233Y0002592D02*
Y0002883D01*
X0038733D01*
X0038067Y0003125D02*
Y0003458D01*
X0038483Y0003783D02*
Y0004033D01*
X0038233Y0003700D02*
Y0004033D01*
X0038733D01*
Y0003700D01*
X0038233Y0004442D02*
X0038733D01*
Y0004275D02*
Y0004608D01*
X0038400Y0004850D02*
Y0005183D01*
X0038233Y0004850D02*
X0038483D01*
X0038733Y0004975D01*
Y0005058D01*
X0038483Y0005183D01*
X0038233D01*
X0038483Y0005592D02*
Y0005425D01*
X0038317D01*
X0038233Y0005467D01*
Y0005717D01*
X0038317Y0005758D01*
X0038650D01*
X0038733Y0005717D01*
Y0005467D01*
X0038650Y0005425D01*
X0016158Y0021633D02*
Y0022133D01*
X0016325D02*
X0015992D01*
X0015750Y0021467D02*
X0015417D01*
X0015175Y0021633D02*
Y0022133D01*
X0015092Y0022050D01*
X0015008Y0021883D01*
X0014925Y0022050D01*
X0014842Y0022133D01*
Y0021633D01*
X0014600Y0022133D02*
Y0021717D01*
X0014558Y0021633D01*
X0014433Y0021883D01*
Y0021967D02*
Y0021883D01*
X0014308Y0021633D01*
X0014267Y0021717D01*
Y0022133D01*
X0013692Y0021883D02*
X0013942D01*
X0014025Y0021967D01*
Y0022050D01*
X0013942Y0022133D01*
X0013692D01*
Y0021633D01*
X0036933Y0009758D02*
X0036642D01*
Y0010258D01*
X0036400Y0010175D02*
X0036358Y0010258D01*
X0036108D01*
X0036067Y0010175D01*
Y0010092D01*
X0036108Y0010008D01*
X0036358D01*
X0036400Y0009925D01*
Y0009842D01*
X0036358Y0009758D01*
X0036108D01*
X0036067Y0009842D01*
X0009775Y0009617D02*
X0010275D01*
Y0009450D02*
Y0009783D01*
X0009608Y0010025D02*
Y0010358D01*
X0009775Y0010767D02*
X0010025D01*
X0010275Y0010600D02*
X0010025Y0010725D01*
Y0010808D01*
X0010275Y0010933D01*
X0009775Y0011467D02*
X0010275D01*
X0009775Y0011508D02*
Y0011258D01*
X0009942Y0011175D01*
X0010108D01*
X0010275Y0011258D01*
Y0011508D01*
X0010025Y0011875D02*
X0009775Y0011750D01*
X0010025Y0012083D02*
Y0011833D01*
X0010108Y0011750D01*
X0010192D01*
X0010275Y0011833D01*
Y0012083D01*
X0009775D01*
X0015025Y0009533D02*
X0015525D01*
Y0009367D02*
Y0009700D01*
X0014858Y0009942D02*
Y0010275D01*
X0015025Y0010683D02*
X0015525D01*
Y0010517D02*
Y0010850D01*
X0015025Y0011092D02*
Y0011383D01*
X0015525D01*
X0015275Y0011708D02*
Y0011958D01*
X0015025D02*
X0015525D01*
Y0011625D01*
X0008833Y0017725D02*
X0008667D01*
X0008333Y0017892D01*
X0008667Y0018058D01*
X0008833D01*
X0008417Y0018633D02*
X0008333Y0018592D01*
Y0018342D01*
X0008417Y0018300D01*
X0008583D01*
X0008667Y0018383D01*
Y0018633D01*
X0008833D01*
Y0018300D01*
X0008750Y0019042D02*
X0008417D01*
X0008583Y0018875D02*
Y0019208D01*
X0016008Y0009867D02*
X0016508D01*
X0016008Y0009908D02*
Y0009658D01*
X0016175Y0009575D01*
X0016342D01*
X0016508Y0009658D01*
Y0009908D01*
Y0010150D02*
X0016008D01*
X0016092Y0010233D01*
X0016425Y0010400D01*
X0016508Y0010483D01*
X0016008D01*
X0016258Y0010892D02*
Y0010725D01*
X0016092D01*
X0016008Y0010767D01*
Y0011017D01*
X0016092Y0011058D01*
X0016425D01*
X0016508Y0011017D01*
Y0010767D01*
X0016425Y0010725D01*
X0018616Y0022414D02*
X0018505D01*
X0018561D02*
Y0022747D01*
X0018505Y0022692D01*
X0018222Y0022414D02*
X0018055Y0022747D01*
X0018222D02*
X0018055Y0022414D01*
X0014242Y0016508D02*
Y0017008D01*
X0014408D02*
X0014075D01*
X0013833Y0016342D02*
X0013500D01*
X0013092Y0016508D02*
Y0017008D01*
X0013258D02*
X0012925D01*
X0012683Y0016508D02*
X0012392D01*
Y0017008D01*
X0012067Y0016758D02*
X0011817D01*
Y0016508D02*
Y0017008D01*
X0012150D01*
X0013758Y0001758D02*
Y0002258D01*
X0013717Y0001758D02*
X0013967D01*
X0014050Y0001925D01*
Y0002092D01*
X0013967Y0002258D01*
X0013717D01*
X0013475D02*
Y0001758D01*
X0013392Y0001842D01*
X0013225Y0002175D01*
X0013142Y0002258D01*
Y0001758D01*
X0012733Y0002008D02*
X0012900D01*
Y0001842D01*
X0012858Y0001758D01*
X0012608D01*
X0012567Y0001842D01*
Y0002175D01*
X0012608Y0002258D01*
X0012858D01*
X0012900Y0002175D01*
X0014867Y0003508D02*
Y0004008D01*
X0014825Y0003508D02*
X0015075D01*
X0015158Y0003592D01*
Y0003675D01*
X0015117Y0003758D01*
X0014867D02*
X0015117D01*
X0015158Y0003842D01*
Y0003925D01*
X0015075Y0004008D01*
X0014825D01*
X0014583Y0003342D02*
X0014250D01*
X0013842Y0003508D02*
Y0004008D01*
X0014008D02*
X0013675D01*
X0013433Y0003508D02*
X0013142D01*
Y0004008D01*
X0012817Y0003758D02*
X0012567D01*
Y0003508D02*
Y0004008D01*
X0012900D01*
X0014900Y0005033D02*
X0015400D01*
X0014900Y0005075D02*
Y0004825D01*
X0014983Y0004742D01*
X0015067D01*
X0015150Y0004783D01*
Y0005033D02*
Y0004783D01*
X0015233Y0004742D01*
X0015317D01*
X0015400Y0004825D01*
Y0005075D01*
X0014733Y0005317D02*
Y0005650D01*
X0014900Y0006058D02*
X0015400D01*
Y0005892D02*
Y0006225D01*
X0014900Y0006467D02*
Y0006758D01*
X0015400D01*
X0015150Y0007083D02*
Y0007333D01*
X0014900D02*
X0015400D01*
Y0007000D01*
X0009650Y0004867D02*
X0010150D01*
X0009650Y0004908D02*
Y0004658D01*
X0009733Y0004575D01*
X0009817D01*
X0009900Y0004617D01*
Y0004867D02*
Y0004617D01*
X0009983Y0004575D01*
X0010067D01*
X0010150Y0004658D01*
Y0004908D01*
X0009483Y0005150D02*
Y0005483D01*
X0009650Y0005892D02*
X0009900D01*
X0010150Y0005725D02*
X0009900Y0005850D01*
Y0005933D01*
X0010150Y0006058D01*
X0009650Y0006592D02*
X0010150D01*
X0009650Y0006633D02*
Y0006383D01*
X0009817Y0006300D01*
X0009983D01*
X0010150Y0006383D01*
Y0006633D01*
X0009900Y0007000D02*
X0009650Y0006875D01*
X0009900Y0007208D02*
Y0006958D01*
X0009983Y0006875D01*
X0010067D01*
X0010150Y0006958D01*
Y0007208D01*
X0009650D01*
X0038733Y0018050D02*
X0038317D01*
X0038233Y0018092D01*
Y0018342D01*
X0038317Y0018383D01*
X0038733D01*
X0038067Y0018625D02*
Y0018958D01*
X0038483Y0019283D02*
Y0019533D01*
X0038233Y0019200D02*
Y0019533D01*
X0038733D01*
Y0019200D01*
X0038233Y0019942D02*
X0038733D01*
Y0019775D02*
Y0020108D01*
X0038400Y0020350D02*
Y0020683D01*
X0038233Y0020350D02*
X0038483D01*
X0038733Y0020475D01*
Y0020558D01*
X0038483Y0020683D01*
X0038233D01*
X0038483Y0021092D02*
Y0020925D01*
X0038317D01*
X0038233Y0020967D01*
Y0021217D01*
X0038317Y0021258D01*
X0038650D01*
X0038733Y0021217D01*
Y0020967D01*
X0038650Y0020925D01*
X0018950Y0007400D02*
X0026650D01*
Y0011250D01*
X0018950D01*
Y0007400D01*
X0034950Y0018900D02*
X0033950D01*
X0034950Y0018100D02*
X0033950D01*
X0018950Y0019150D02*
Y0023000D01*
X0026650D01*
Y0019150D01*
X0018950D01*
X0006375Y0013925D02*
X0004512D01*
X0006375Y0013835D02*
X0004512D01*
X0006375Y0013745D02*
X0004512D01*
X0006375Y0013655D02*
X0004512D01*
X0006375Y0013565D02*
X0004512D01*
X0006375Y0013475D02*
X0004512D01*
X0006375Y0013385D02*
X0004512D01*
X0006375Y0013295D02*
X0004512D01*
X0006375Y0013205D02*
X0004512D01*
X0006375Y0013115D02*
X0004512D01*
X0006375Y0013025D02*
X0004512D01*
X0006375Y0012935D02*
X0004512D01*
X0006375Y0012845D02*
X0004512D01*
X0006375Y0012755D02*
X0004512D01*
X0006375Y0012665D02*
X0004512D01*
X0006375Y0012575D02*
X0004512D01*
X0006375Y0012485D02*
X0004512D01*
X0006375Y0012395D02*
X0004512D01*
X0006375Y0012305D02*
X0004512D01*
X0004602Y0013987D02*
Y0012125D01*
X0006132Y0013987D02*
Y0012125D01*
X0006042Y0013987D02*
Y0012125D01*
X0005952Y0013987D02*
Y0012125D01*
X0005862Y0013987D02*
Y0012125D01*
X0005772Y0013987D02*
Y0012125D01*
X0005682Y0013987D02*
Y0012125D01*
X0005592Y0013987D02*
Y0012125D01*
X0005502Y0013987D02*
Y0012125D01*
X0005412Y0013987D02*
Y0012125D01*
X0005322Y0013987D02*
Y0012125D01*
X0005232Y0013987D02*
Y0012125D01*
X0005142Y0013987D02*
Y0012125D01*
X0005052Y0013987D02*
Y0012125D01*
X0004962Y0013987D02*
Y0012125D01*
X0004872Y0013987D02*
Y0012125D01*
X0004782Y0013987D02*
Y0012125D01*
X0004692Y0013987D02*
Y0012125D01*
X0006375Y0012215D02*
X0004512D01*
X0006375Y0013987D02*
Y0012125D01*
X0004512D01*
Y0013987D02*
Y0012125D01*
X0006375Y0013987D02*
X0004512D01*
X0006312D02*
Y0012125D01*
X0006222Y0013987D02*
Y0012125D01*
X0031600Y0018150D02*
X0030400D01*
Y0018000D02*
X0031600D01*
X0030400Y0016000D02*
X0031600D01*
X0034950Y0006350D02*
X0033950D01*
X0034950Y0005650D02*
X0033950D01*
X0031600Y0006400D02*
X0030400D01*
Y0006250D02*
X0031600D01*
X0030400Y0004250D02*
X0031600D01*
X0034950Y0004850D02*
X0033950D01*
X0034950Y0007150D02*
X0033950D01*
X0011450Y0003325D02*
Y0004175D01*
X0012300D01*
Y0003325D01*
X0011450D01*
X0034950Y0016850D02*
X0033950D01*
X0034950Y0017650D02*
X0033950D01*
X0017325Y0008325D02*
Y0009175D01*
X0018175D01*
Y0008325D01*
X0017325D01*
X0014575Y0020450D02*
Y0021300D01*
X0015425D01*
Y0020450D01*
X0014575D01*
Y0016200D02*
Y0017050D01*
X0015425D01*
Y0016200D01*
X0014575D01*
X0030078Y0011210D02*
X0031329Y0009045D01*
X0031250Y0008910D02*
X0028750D01*
X0028672Y0009045D02*
X0029922Y0011210D01*
X0011450Y0001575D02*
Y0002425D01*
X0012300D01*
Y0001575D01*
X0011450D01*
X0008335Y0011445D02*
X0008295D01*
Y0009755D01*
X0008515D01*
X0009235Y0011495D02*
X0009375Y0011355D01*
Y0009755D01*
X0009145D01*
X0008335Y0006695D02*
X0008295D01*
Y0005005D01*
X0008515D01*
X0009235Y0006745D02*
X0009375Y0006605D01*
Y0005005D01*
X0009145D01*
X0013585Y0006695D02*
X0013545D01*
Y0005005D01*
X0013765D01*
X0014485Y0006745D02*
X0014625Y0006605D01*
Y0005005D01*
X0014395D01*
X0013585Y0011445D02*
X0013545D01*
Y0009755D01*
X0013765D01*
X0014485Y0011495D02*
X0014625Y0011355D01*
Y0009755D01*
X0014395D01*
X0037200Y0009325D02*
Y0010175D01*
X0038050D01*
Y0009325D01*
X0037200D01*
Y0005075D02*
Y0005925D01*
X0038050D01*
Y0005075D01*
X0037200D01*
X0037075Y0013325D02*
Y0014175D01*
X0037925D01*
Y0013325D01*
X0037075D01*
X0014575Y0019200D02*
Y0020050D01*
X0015425D01*
Y0019200D01*
X0014575D01*
X0015825Y0009175D02*
X0016675D01*
Y0008325D01*
X0015825D01*
Y0009175D01*
X0008075Y0019325D02*
Y0020175D01*
X0008925D01*
Y0019325D01*
X0008075D01*
X0037200Y0017575D02*
Y0018425D01*
X0038050D01*
Y0017575D01*
X0037200D01*
X0006825Y0019325D02*
Y0020175D01*
X0007675D01*
Y0019325D01*
X0006825D01*
X0014575Y0017450D02*
Y0018300D01*
X0015425D01*
Y0017450D01*
X0014575D01*
G01X0030000Y0019700D02*
G03X0030800Y0020500I0000000J0000800D01*
G01X0029200D02*
G03X0030000Y0019700I0000800J0000000D01*
Y0021300D02*
G03X0029200Y0020500I0000000J0000800D01*
G01X0030800D02*
G03X0030000Y0021300I0000800J0000000D01*
G01X0003375Y0021825D02*
G03X0004175Y0022625I0000000J0000800D01*
G01X0002575D02*
G03X0003375Y0021825I0000800J0000000D01*
Y0023425D02*
G03X0002575Y0022625I0000000J0000800D01*
G01X0004175D02*
G03X0003375Y0023425I0000800J0000000D01*
G01X0030000Y0011256D02*
G03X0029922Y0011210I0000000J0000091D01*
G01X0030078D02*
G03X0030000Y0011255I0000078J0000045D01*
G01X0031341Y0009000D02*
G03X0031329Y0009045I0000091J0000000D01*
G01X0031250Y0008910D02*
G03X0031340Y0009000I0000000J0000090D01*
G01X0028660D02*
G03X0028750Y0008910I0000090J0000000D01*
G01X0028672Y0009045D02*
G03X0028660Y0009000I0000078J0000045D01*
G01X0003500Y0000575D02*
G03X0004300Y0001375I0000000J0000800D01*
G01X0002700D02*
G03X0003500Y0000575I0000800J0000000D01*
Y0002175D02*
G03X0002700Y0001375I0000000J0000800D01*
G01X0004300D02*
G03X0003500Y0002175I0000800J0000000D01*
G54D39*
G01X0029950Y0018229D02*
G03X0030021Y0018300I0000000J0000071D01*
G01X0029879D02*
G03X0029950Y0018229I0000071J0000000D01*
Y0018371D02*
G03X0029879Y0018300I0000000J0000071D01*
G01X0030021D02*
G03X0029950Y0018371I0000071J0000000D01*
Y0006479D02*
G03X0030021Y0006550I0000000J0000071D01*
G01X0029879D02*
G03X0029950Y0006479I0000071J0000000D01*
Y0006621D02*
G03X0029879Y0006550I0000000J0000071D01*
G01X0030021D02*
G03X0029950Y0006621I0000071J0000000D01*
G54D40*
G01X0029889Y0022220D02*
X0030055Y0022553D01*
X0029833D01*
X0029451Y0022220D02*
Y0022553D01*
X0029423Y0022220D02*
X0029590D01*
X0029645Y0022331D01*
Y0022442D01*
X0029590Y0022553D01*
X0029423D01*
X0002332Y0017014D02*
Y0017236D01*
X0002555Y0017014D01*
X0002610D01*
X0002666Y0017042D01*
Y0017208D01*
X0002610Y0017236D01*
X0002332Y0006132D02*
X0002388Y0006187D01*
X0002444Y0006215D01*
X0002555D01*
X0002610Y0006187D01*
X0002666Y0006132D01*
Y0006076D01*
X0002610Y0006021D01*
X0002555Y0005993D01*
X0002444D01*
X0002388Y0006021D01*
X0002332Y0006076D01*
Y0006132D01*
Y0006403D02*
Y0006625D01*
X0002555Y0006403D01*
X0002610D01*
X0002666Y0006431D01*
Y0006597D01*
X0002610Y0006625D01*
X0009083Y0007044D02*
X0009138Y0006989D01*
X0009249D01*
X0009305Y0007044D01*
Y0007100D01*
X0009194Y0007211D01*
X0009305Y0007322D01*
X0009083D01*
X0008895Y0006989D02*
X0008784D01*
X0008839D02*
Y0007322D01*
X0008784Y0007267D01*
X0008346Y0006989D02*
Y0007322D01*
X0008318Y0006989D02*
X0008485D01*
X0008541Y0007100D01*
Y0007211D01*
X0008485Y0007322D01*
X0008318D01*
X0029896Y0001345D02*
X0029840Y0001400D01*
X0029812Y0001456D01*
Y0001567D01*
X0029840Y0001623D01*
X0029896Y0001678D01*
X0029951D01*
X0030007Y0001623D01*
X0030035Y0001567D01*
Y0001456D01*
X0030007Y0001400D01*
X0029951Y0001345D01*
X0029896D01*
X0029625D02*
X0029514D01*
X0029569D02*
Y0001678D01*
X0029514Y0001623D01*
X0029076Y0001345D02*
Y0001678D01*
X0029048Y0001345D02*
X0029215D01*
X0029270Y0001456D01*
Y0001567D01*
X0029215Y0001678D01*
X0029048D01*
X0014680Y0004600D02*
X0014458D01*
X0014569Y0004822D01*
X0014624D01*
Y0004489D01*
X0014270D02*
X0014159D01*
X0014214D02*
Y0004822D01*
X0014159Y0004767D01*
X0013721Y0004489D02*
Y0004822D01*
X0013693Y0004489D02*
X0013860D01*
X0013916Y0004600D01*
Y0004711D01*
X0013860Y0004822D01*
X0013693D01*
X0004088Y0016785D02*
X0004033Y0016757D01*
Y0016590D01*
X0004088Y0016562D01*
X0004199D01*
X0004255Y0016618D01*
Y0016785D01*
X0004366D01*
Y0016562D01*
X0004144Y0017167D02*
X0004088D01*
X0004033Y0017139D01*
Y0017028D01*
X0004088Y0017000D01*
X0004366D01*
Y0016972D02*
Y0017083D01*
X0014360Y0009405D02*
X0014527D01*
X0014555Y0009350D01*
Y0009294D01*
X0014527Y0009239D01*
X0014360D01*
X0014333Y0009294D01*
Y0009350D01*
X0014444Y0009572D01*
X0014145Y0009239D02*
X0014034D01*
X0014089D02*
Y0009572D01*
X0014034Y0009517D01*
X0013596Y0009239D02*
Y0009572D01*
X0013568Y0009239D02*
X0013735D01*
X0013791Y0009350D01*
Y0009461D01*
X0013735Y0009572D01*
X0013568D01*
X0024063Y0013757D02*
X0024091Y0013812D01*
Y0013868D01*
X0024063Y0013924D01*
X0023897D01*
X0023869Y0013868D01*
Y0013812D01*
X0023897Y0013757D01*
X0024063D01*
X0024091Y0013701D01*
Y0013646D01*
X0024063Y0013590D01*
X0023897D01*
X0023869Y0013646D01*
Y0013701D01*
X0023897Y0013757D01*
X0023681Y0013924D02*
Y0013646D01*
X0023653Y0013590D01*
X0023487D01*
X0023459Y0013646D01*
Y0013924D01*
X0008958Y0011794D02*
X0008985Y0011739D01*
X0009152D01*
X0009180Y0011794D01*
Y0011905D01*
X0009124Y0011961D01*
X0008958D01*
Y0012072D01*
X0009180D01*
X0008770Y0011739D02*
X0008659D01*
X0008714D02*
Y0012072D01*
X0008659Y0012017D01*
X0008221Y0011739D02*
Y0012072D01*
X0008193Y0011739D02*
X0008360D01*
X0008416Y0011850D01*
Y0011961D01*
X0008360Y0012072D01*
X0008193D01*
X0030132Y0018712D02*
X0030299Y0019046D01*
X0030076D01*
X0029889D02*
Y0018768D01*
X0029861Y0018712D01*
X0029694D01*
X0029666Y0018768D01*
Y0019046D01*
X0024640Y0001715D02*
X0024529D01*
X0024584D02*
Y0002049D01*
X0024529Y0001993D01*
X0024285Y0001715D02*
X0024174D01*
X0024230D02*
Y0002049D01*
X0024174Y0001993D01*
X0023931Y0002049D02*
Y0001771D01*
X0023903Y0001715D01*
X0023737D01*
X0023709Y0001771D01*
Y0002049D01*
X0006945Y0013349D02*
Y0013571D01*
X0007167Y0013349D01*
X0007223D01*
X0007279Y0013377D01*
Y0013543D01*
X0007223Y0013571D01*
X0007279Y0013759D02*
X0007001D01*
X0006945Y0013787D01*
Y0013953D01*
X0007001Y0013981D01*
X0007279D01*
X0030653Y0007073D02*
X0030431D01*
X0030542Y0007296D01*
X0030597D01*
Y0006962D01*
X0030243D02*
X0030132D01*
X0030188D02*
Y0007296D01*
X0030132Y0007240D01*
X0029889Y0007296D02*
Y0007018D01*
X0029861Y0006962D01*
X0029694D01*
X0029666Y0007018D01*
Y0007296D01*
X0001332Y0017069D02*
Y0017180D01*
Y0017125D02*
X0001666D01*
X0001610Y0017180D01*
X0001499Y0006076D02*
Y0006243D01*
X0001555Y0006271D01*
X0001610D01*
X0001666Y0006243D01*
Y0006076D01*
X0001610Y0006048D01*
X0001555D01*
X0001332Y0006160D01*
Y0006458D02*
Y0006569D01*
Y0006514D02*
X0001666D01*
X0001610Y0006569D01*
X0030000Y0010924D02*
X0028959Y0009120D01*
X0031042D01*
X0030000Y0010924D01*
X0012125Y0021575D02*
X0011825D01*
X0009341Y0022768D02*
X0009002D01*
X0009341Y0022696D02*
X0009002D01*
X0009341Y0022624D02*
X0009002D01*
X0009352Y0022552D02*
X0009002D01*
X0009780Y0022480D02*
X0009002D01*
X0009780Y0022408D02*
X0009002D01*
X0009780Y0022336D02*
X0009002D01*
X0009341Y0022264D02*
X0009002D01*
X0009341Y0022192D02*
X0009002D01*
X0009341Y0022120D02*
X0009002D01*
X0009341Y0022048D02*
X0009002D01*
X0009345Y0021976D02*
X0009002D01*
X0010058Y0021904D02*
X0009002D01*
X0010058Y0021832D02*
X0009002D01*
X0010058Y0021760D02*
X0009002D01*
X0009610Y0021953D02*
Y0021724D01*
X0009538Y0021953D02*
Y0021724D01*
X0009466Y0021953D02*
Y0021724D01*
X0009394Y0021953D02*
Y0021724D01*
X0009322Y0023116D02*
Y0021724D01*
X0009250Y0023116D02*
Y0021724D01*
X0009178Y0023116D02*
Y0021724D01*
X0009106Y0023116D02*
Y0021724D01*
X0009034Y0023116D02*
Y0021724D01*
X0009394Y0022540D02*
Y0022331D01*
Y0023116D02*
Y0022899D01*
X0010035Y0023056D02*
X0009002D01*
X0010035Y0022984D02*
X0009002D01*
X0010035Y0022912D02*
X0009002D01*
X0009341Y0022840D02*
X0009002D01*
X0009780Y0022540D02*
Y0022331D01*
X0009002Y0023116D02*
Y0021993D01*
X0010035Y0023116D02*
Y0022899D01*
X0009002Y0021993D02*
Y0021724D01*
X0010035Y0022899D02*
X0009381D01*
X0010035Y0023116D02*
X0009002D01*
X0010042Y0021953D02*
Y0021724D01*
X0009970Y0021953D02*
Y0021724D01*
X0009898Y0021953D02*
Y0021724D01*
X0009826Y0021953D02*
Y0021724D01*
X0009754Y0021953D02*
Y0021724D01*
X0009682Y0021953D02*
Y0021724D01*
X0009610Y0023116D02*
Y0022899D01*
Y0022540D02*
Y0022331D01*
X0009538Y0023116D02*
Y0022899D01*
Y0022540D02*
Y0022331D01*
X0009466Y0023116D02*
Y0022899D01*
Y0022540D02*
Y0022331D01*
X0009341Y0022291D02*
Y0021993D01*
X0010058Y0021724D02*
X0009002D01*
X0010058Y0021953D02*
X0009381D01*
X0010058D02*
Y0021724D01*
X0009341Y0022859D02*
Y0022580D01*
X0009780Y0022331D02*
X0009381D01*
X0009780Y0022540D02*
X0009381D01*
X0009970Y0023116D02*
Y0022899D01*
X0009898Y0023116D02*
Y0022899D01*
X0009826Y0023116D02*
Y0022899D01*
X0009754Y0023116D02*
Y0022899D01*
Y0022540D02*
Y0022331D01*
X0009682Y0023116D02*
Y0022899D01*
Y0022540D02*
Y0022331D01*
X0011258Y0021992D02*
Y0021724D01*
X0011186Y0021992D02*
Y0021796D01*
X0011114Y0021992D02*
Y0021868D01*
X0011042Y0021992D02*
Y0021940D01*
X0011609Y0021989D02*
X0010894D01*
X0011537Y0021917D02*
X0011066D01*
X0011465Y0021845D02*
X0011138D01*
X0011393Y0021773D02*
X0011210D01*
X0011321Y0021701D02*
X0011282D01*
X0010991Y0021992D02*
X0011301Y0021681D01*
X0011612Y0021992D02*
X0010991D01*
X0011612D02*
X0011301Y0021681D01*
X0011546Y0021992D02*
Y0021926D01*
X0011474Y0021992D02*
Y0021854D01*
X0011402Y0021992D02*
Y0021782D01*
X0011330Y0021992D02*
Y0021710D01*
X0021065Y0014500D02*
Y0018500D01*
X0023315D01*
Y0014500D01*
X0021065D01*
Y0014750D02*
X0023315D01*
X0021065Y0002500D02*
Y0006500D01*
X0023315D01*
Y0002500D01*
X0021065D01*
Y0002750D02*
X0023315D01*
X0007480Y0014625D02*
X0010980D01*
Y0015375D01*
X0007480D01*
Y0014625D01*
X0007730D02*
Y0015375D01*
X0006497Y0022478D02*
X0006160D01*
X0006497Y0022406D02*
X0006160D01*
X0006497Y0022334D02*
X0006160D01*
X0006497Y0022262D02*
X0006160D01*
X0006497Y0022190D02*
X0006160D01*
X0006497Y0022118D02*
X0006160D01*
X0006497Y0022046D02*
X0006160D01*
X0006497Y0021974D02*
X0006160D01*
X0006497Y0021902D02*
X0006160D01*
X0006497Y0021830D02*
X0006160D01*
X0006497Y0021758D02*
X0006160D01*
X0006196Y0023115D02*
Y0021722D01*
X0006497Y0023054D02*
X0006160D01*
X0006497Y0022982D02*
X0006160D01*
X0006497Y0022910D02*
X0006160D01*
X0006497Y0022838D02*
X0006160D01*
X0006497Y0022766D02*
X0006160D01*
X0006497Y0022694D02*
X0006160D01*
X0006497Y0022622D02*
X0006160D01*
X0006497Y0022550D02*
X0006160D01*
Y0023115D02*
Y0021722D01*
X0006497Y0023115D02*
Y0021722D01*
X0006160D01*
X0006497Y0023115D02*
X0006160D01*
X0006484D02*
Y0021722D01*
X0006412Y0023115D02*
Y0021722D01*
X0006340Y0023115D02*
Y0021722D01*
X0006268Y0023115D02*
Y0021722D01*
X0007330Y0022547D02*
X0006903D01*
X0007255Y0022475D02*
X0006579D01*
X0007145Y0022403D02*
X0006578D01*
X0006734Y0022331D02*
X0006577D01*
X0007143Y0022259D02*
X0006783D01*
X0007171Y0022187D02*
X0006810D01*
X0007200Y0022115D02*
X0006836D01*
X0007229Y0022043D02*
X0006863D01*
X0007257Y0021971D02*
X0006889D01*
X0007286Y0021899D02*
X0006916D01*
X0007315Y0021827D02*
X0006942D01*
X0007343Y0021755D02*
X0006969D01*
X0006757Y0022531D02*
Y0022319D01*
X0006685Y0022531D02*
Y0022331D01*
X0006613Y0022531D02*
Y0022331D01*
Y0023115D02*
Y0022918D01*
X0006685Y0023115D02*
Y0022918D01*
X0007199Y0023051D02*
X0006578D01*
X0007298Y0022979D02*
X0006579D01*
X0007347Y0022907D02*
X0006891D01*
X0007374Y0022835D02*
X0006986D01*
X0007384Y0022763D02*
X0007016D01*
X0007381Y0022691D02*
X0007017D01*
X0007366Y0022619D02*
X0006989D01*
X0007333Y0021781D02*
Y0021719D01*
X0007261Y0021961D02*
Y0021719D01*
X0007189Y0022142D02*
Y0021719D01*
X0007117Y0022323D02*
Y0021719D01*
X0007045Y0023107D02*
Y0021719D01*
X0006973Y0022597D02*
Y0021743D01*
X0006901Y0022546D02*
Y0021939D01*
X0006829Y0022531D02*
Y0022134D01*
X0006827Y0022531D02*
X0006579D01*
X0006729Y0022331D02*
X0006577D01*
X0006579Y0022531D02*
X0006577Y0022331D01*
X0007358Y0021719D02*
X0006982D01*
X0006766Y0022305D02*
X0006982Y0021719D01*
X0007109Y0022344D02*
X0007358Y0021719D01*
X0007328Y0022544D02*
X0007327Y0022542D01*
X0007129Y0022395D03*
X0007109Y0022344D03*
X0007021Y0022725D02*
X0007020D01*
X0006953Y0023116D02*
X0006949D01*
X0006577Y0023115D02*
X0006579Y0022918D01*
X0006929Y0023115D02*
X0006577D01*
X0006827Y0022918D02*
X0006579D01*
X0007333Y0022932D02*
Y0022551D01*
X0007261Y0023010D02*
Y0022479D01*
X0007189Y0023056D02*
Y0022428D01*
X0007117Y0023087D02*
Y0022386D01*
X0006973Y0023115D02*
Y0022851D01*
X0006901Y0023115D02*
Y0022903D01*
X0006829Y0023115D02*
Y0022917D01*
X0006757Y0023115D02*
Y0022918D01*
X0007298Y0022978D02*
X0007300Y0022977D01*
X0007382Y0022717D02*
Y0022712D01*
X0005706Y0023023D02*
X0004924D01*
X0005778Y0022951D02*
X0004839D01*
X0005148Y0022879D02*
X0004786D01*
X0005086Y0022807D02*
X0004746D01*
X0005057Y0022735D02*
X0004715D01*
X0005044Y0022663D02*
X0004692D01*
X0005034Y0022591D02*
X0004676D01*
X0005028Y0022519D02*
X0004667D01*
X0005026Y0022447D02*
X0004665D01*
X0005027Y0022375D02*
X0004668D01*
X0005029Y0022303D02*
X0004673D01*
X0005033Y0022231D02*
X0004682D01*
X0005042Y0022159D02*
X0004694D01*
X0005066Y0022087D02*
X0004709D01*
X0005110Y0022015D02*
X0004739D01*
X0005192Y0021943D02*
X0004783D01*
X0005759Y0021871D02*
X0004844D01*
X0005675Y0021799D02*
X0004932D01*
X0005526Y0021727D02*
X0005079D01*
X0005781Y0022108D02*
Y0021895D01*
X0005709Y0022108D02*
Y0021825D01*
X0005637Y0022097D02*
Y0021775D01*
X0005565Y0021992D02*
Y0021741D01*
X0005493Y0021939D02*
Y0021718D01*
X0005421Y0021912D02*
Y0021703D01*
X0005349Y0021903D02*
Y0021693D01*
X0005277Y0021911D02*
Y0021692D01*
X0005205Y0021937D02*
Y0021698D01*
X0005133Y0021989D02*
Y0021712D01*
X0005061Y0022100D02*
Y0021734D01*
X0004989Y0023065D02*
Y0021766D01*
X0004917Y0023018D02*
Y0021810D01*
X0004845Y0022957D02*
Y0021871D01*
X0004773Y0022857D02*
Y0021958D01*
X0004701Y0022693D02*
Y0022125D01*
X0005061Y0023100D02*
Y0022749D01*
X0005133Y0023125D02*
Y0022866D01*
X0005590Y0023095D02*
X0005050D01*
X0004665Y0022473D02*
Y0022457D01*
X0005887Y0022720D02*
X0005567D01*
X0005853Y0022108D02*
Y0022005D01*
X0004665Y0022474D02*
Y0022473D01*
Y0022458D02*
Y0022457D01*
X0004711Y0022077D02*
X0004712Y0022074D01*
X0004977Y0021771D02*
X0004978D01*
X0005294Y0021691D02*
X0005299D01*
X0005477Y0021713D02*
X0005465D01*
X0005034Y0022223D02*
Y0022221D01*
X0005026Y0022443D02*
Y0022408D01*
X0005053Y0022713D02*
Y0022712D01*
X0005311Y0022937D02*
Y0022936D01*
X0005477Y0023131D02*
X0005478D01*
X0005314Y0023151D02*
X0005321D01*
X0005891Y0022108D02*
X0005641D01*
X0005853Y0022831D02*
Y0022720D01*
X0005781Y0022949D02*
Y0022720D01*
X0005709Y0023022D02*
Y0022720D01*
X0005637Y0023072D02*
Y0022720D01*
X0005565Y0023106D02*
Y0022734D01*
X0005493Y0023128D02*
Y0022862D01*
X0005421Y0023143D02*
Y0022912D01*
X0005349Y0023150D02*
Y0022933D01*
X0005277Y0023149D02*
Y0022934D01*
X0005205Y0023141D02*
Y0022914D01*
X0005828Y0022879D02*
X0005473D01*
X0005862Y0022807D02*
X0005535D01*
X0005884Y0022735D02*
X0005564D01*
X0005886Y0022087D02*
X0005632D01*
X0005858Y0022015D02*
X0005587D01*
X0005817Y0021943D02*
X0005500D01*
X0004828Y0022940D02*
X0004827Y0022938D01*
X0012475Y0021175D02*
Y0021575D01*
X0012375Y0021325D01*
X0012275Y0021575D01*
Y0021175D01*
X0029922Y0009962D02*
X0029816D01*
X0029995Y0009890D02*
X0029807D01*
X0029872Y0009818D02*
X0029798D01*
X0030134Y0009746D02*
X0030087D01*
X0030113Y0009674D02*
X0030072D01*
X0030092Y0009602D02*
X0030057D01*
X0030071Y0009530D02*
X0030041D01*
X0030050Y0009458D02*
X0030026D01*
X0030067Y0009386D02*
X0029980D01*
X0030018Y0009314D02*
X0029988D01*
X0030155Y0009818D02*
X0030103D01*
X0029891Y0010557D02*
Y0009829D01*
X0029819Y0009982D02*
Y0009787D01*
X0029963Y0010557D02*
Y0010159D01*
X0030043Y0010538D02*
X0029888D01*
X0030027Y0010466D02*
X0029879D01*
X0030012Y0010394D02*
X0029870D01*
X0029997Y0010322D02*
X0029861D01*
X0029982Y0010250D02*
X0029852D01*
X0029966Y0010178D02*
X0029843D01*
X0029951Y0010106D02*
X0029834D01*
X0029936Y0010034D02*
X0029825D01*
X0030047Y0010557D02*
X0029890D01*
X0029792Y0009771D01*
X0030179Y0010044D02*
Y0009897D01*
X0030107Y0009836D02*
Y0009652D01*
X0030035Y0009498D02*
Y0009338D01*
X0029963Y0009924D02*
Y0009871D01*
X0030117Y0009883D02*
X0030026Y0009457D01*
X0030077Y0009400D02*
X0029992Y0009276D01*
X0030230Y0010074D02*
X0030048Y0009451D01*
X0030230Y0010074D02*
X0029983Y0009930D01*
X0030047Y0010557D02*
X0029923Y0009973D01*
X0030117Y0009883D03*
X0030026Y0009457D02*
Y0009456D01*
X0029975Y0009426D03*
X0029992Y0009276D03*
X0030077Y0009400D03*
X0030048Y0009451D02*
X0030047Y0009450D01*
X0029983Y0009930D02*
X0029982Y0009929D01*
X0029923Y0009973D02*
Y0009972D01*
X0030057Y0009926D02*
X0029792Y0009771D01*
X0029975Y0009426D02*
X0029992Y0009276D01*
X0030107Y0010002D02*
Y0009919D01*
X0030035Y0010557D02*
Y0010500D01*
Y0009960D02*
Y0009913D01*
X0030218Y0010034D02*
X0030160D01*
X0030197Y0009962D02*
X0030037D01*
X0030176Y0009890D02*
X0030117D01*
X0029792Y0009771D03*
X0011975Y0021575D02*
Y0021175D01*
X0008022Y0022768D02*
X0007682D01*
X0008022Y0022696D02*
X0007682D01*
X0008022Y0022624D02*
X0007682D01*
X0008033Y0022552D02*
X0007682D01*
X0008460Y0022480D02*
X0007682D01*
X0008460Y0022408D02*
X0007682D01*
X0008460Y0022336D02*
X0007682D01*
X0008022Y0022264D02*
X0007682D01*
X0008022Y0022192D02*
X0007682D01*
X0008022Y0022120D02*
X0007682D01*
X0008022Y0022048D02*
X0007682D01*
X0008026Y0021976D02*
X0007682D01*
X0008739Y0021904D02*
X0007682D01*
X0008739Y0021832D02*
X0007682D01*
X0008739Y0021760D02*
X0007682D01*
X0008291Y0021953D02*
Y0021724D01*
X0008219Y0021953D02*
Y0021724D01*
X0008147Y0021953D02*
Y0021724D01*
X0008075Y0021953D02*
Y0021724D01*
X0008003Y0023116D02*
Y0021724D01*
X0007931Y0023116D02*
Y0021724D01*
X0007859Y0023116D02*
Y0021724D01*
X0007787Y0023116D02*
Y0021724D01*
X0007715Y0023116D02*
Y0021724D01*
X0008075Y0022540D02*
Y0022331D01*
Y0023116D02*
Y0022899D01*
X0008716Y0023056D02*
X0007682D01*
X0008716Y0022984D02*
X0007682D01*
X0008716Y0022912D02*
X0007682D01*
X0008022Y0022840D02*
X0007682D01*
X0008460Y0022540D02*
Y0022331D01*
X0007682Y0023116D02*
Y0021724D01*
X0008716Y0023116D02*
Y0022899D01*
X0008739Y0021724D02*
X0007682D01*
X0008716Y0022899D02*
X0008062D01*
X0008716Y0023116D02*
X0007682D01*
X0008723Y0021953D02*
Y0021724D01*
X0008651Y0021953D02*
Y0021724D01*
X0008579Y0021953D02*
Y0021724D01*
X0008507Y0021953D02*
Y0021724D01*
X0008435Y0021953D02*
Y0021724D01*
X0008363Y0021953D02*
Y0021724D01*
Y0022540D02*
Y0022331D01*
X0008291Y0023116D02*
Y0022899D01*
Y0022540D02*
Y0022331D01*
X0008219Y0023116D02*
Y0022899D01*
Y0022540D02*
Y0022331D01*
X0008147Y0023116D02*
Y0022899D01*
Y0022540D02*
Y0022331D01*
X0008022Y0022291D02*
Y0021993D01*
X0008739Y0021953D02*
X0008062D01*
X0008739D02*
Y0021724D01*
X0008022Y0022859D02*
Y0022580D01*
X0008460Y0022331D02*
X0008062D01*
X0008460Y0022540D02*
X0008062D01*
X0008651Y0023116D02*
Y0022899D01*
X0008579Y0023116D02*
Y0022899D01*
X0008507Y0023116D02*
Y0022899D01*
X0008435Y0023116D02*
Y0022899D01*
Y0022540D02*
Y0022331D01*
X0008363Y0023116D02*
Y0022899D01*
X0010942Y0022539D02*
Y0022302D01*
X0010870Y0022539D02*
Y0022302D01*
X0010798Y0022539D02*
Y0022302D01*
X0010726Y0022539D02*
Y0022302D01*
X0010654Y0022512D02*
Y0022329D01*
X0010582Y0022440D02*
Y0022401D01*
X0011979Y0022482D02*
X0010623D01*
X0012029Y0022410D02*
X0010573D01*
X0011957Y0022338D02*
X0010645D01*
X0011734Y0022539D02*
Y0022302D01*
X0011662Y0022539D02*
Y0022302D01*
X0011590Y0022539D02*
Y0022302D01*
X0011518Y0022539D02*
Y0022302D01*
X0011446Y0022539D02*
Y0022302D01*
X0011374Y0022539D02*
Y0022302D01*
X0011302Y0022539D02*
Y0022302D01*
X0011230Y0022539D02*
Y0022302D01*
X0011158Y0022539D02*
Y0022302D01*
X0011086Y0022539D02*
Y0022302D01*
X0011014Y0022539D02*
Y0022302D01*
X0012040Y0022420D02*
X0011921Y0022302D01*
X0010681D01*
X0011921Y0022539D02*
X0012040Y0022420D01*
X0011921Y0022539D02*
X0010681D01*
X0010562Y0022420D01*
X0012022Y0022439D02*
Y0022402D01*
X0011950Y0022511D02*
Y0022330D01*
X0011878Y0022539D02*
Y0022302D01*
X0011806Y0022539D02*
Y0022302D01*
X0010562Y0022420D03*
X0012040D03*
X0010562D02*
X0010681Y0022302D01*
X0011258Y0023116D02*
Y0022849D01*
X0011186Y0023044D02*
Y0022849D01*
X0011114Y0022972D02*
Y0022849D01*
X0011042Y0022900D02*
Y0022849D01*
X0011360Y0023101D02*
X0011243D01*
X0011432Y0023029D02*
X0011171D01*
X0011504Y0022957D02*
X0011099D01*
X0011576Y0022885D02*
X0011027D01*
X0011301Y0023159D02*
X0010991Y0022849D01*
X0011612D02*
X0010991D01*
X0011301Y0023159D02*
X0011612Y0022849D01*
X0011546Y0022914D02*
Y0022849D01*
X0011474Y0022986D02*
Y0022849D01*
X0011402Y0023058D02*
Y0022849D01*
X0011330Y0023130D02*
Y0022849D01*
X0031900Y0001150D02*
X0030100D01*
Y0000350D01*
X0031900D01*
Y0001150D01*
X0031400D02*
Y0000350D01*
X0032550Y0000750D02*
X0031900D01*
X0029450D02*
X0030100D01*
X0031900Y0023400D02*
X0030100D01*
Y0022600D01*
X0031900D01*
Y0023400D01*
X0031400D02*
Y0022600D01*
X0032550Y0023000D02*
X0031900D01*
X0029450D02*
X0030100D01*
X0001250Y0020875D02*
X0000250D01*
Y0002875D01*
X0002750D01*
X0001265Y0020875D02*
X0001250D01*
X0001265D01*
X0002750D01*
X0003750D01*
Y0002875D01*
X0002750D01*
X0000375Y0010875D02*
Y0012875D01*
G01X0009341Y0022580D02*
G03X0009381Y0022540I0000040J0000000D01*
Y0022899D02*
G03X0009341Y0022859I0000000J0000040D01*
Y0021993D02*
G03X0009381Y0021953I0000040J0000000D01*
Y0022331D02*
G03X0009341Y0022291I0000000J0000040D01*
G01X0007327Y0022542D02*
G03X0007382Y0022712I0000234J0000170D01*
G01X0007106Y0022359D02*
G03X0007109Y0022344I0000040J0000000D01*
G01X0006827Y0022531D02*
G03X0007021Y0022725I0000000J0000194D01*
G01X0006766Y0022305D02*
G03X0006729Y0022331I0000037J0000014D01*
G01X0007129Y0022395D02*
G03X0007328Y0022544I0000278J0000580D01*
G01X0007382Y0022717D02*
G03X0007384Y0022752I0000342J0000035D01*
G03X0007298Y0022978I0000344J0000000D01*
G01X0007129Y0022395D02*
G03X0007106Y0022359I0000017J0000036D01*
G01X0006949Y0023116D02*
G03X0006931Y0023115I0000000J0000514D01*
G01X0007300Y0022977D02*
G03X0006953Y0023116I0000351J0000375D01*
G01X0006929Y0023115D02*
G03X0006931Y0023115I0000000J0000040D01*
G01X0007020Y0022725D02*
G03X0006827Y0022918I0000193J0000000D01*
G01X0004977Y0021771D02*
G03X0005294Y0021691I0000320J0000597D01*
G01X0004711Y0022077D02*
G03X0004978Y0021771I0000551J0000212D01*
G01X0004665Y0022458D02*
G03X0004712Y0022074I0001704J0000015D01*
G01X0004828Y0022940D02*
G03X0004665Y0022474I0000634J0000483D01*
G01X0005314Y0023151D02*
G03X0004827Y0022938I0000004J0000673D01*
G01X0005476Y0023132D02*
G03X0005321Y0023151I0000158J0000654D01*
G01X0005887Y0022720D02*
G03X0005477Y0023131I0000510J0000098D01*
G01X0005567Y0022720D02*
G03X0005311Y0022936I0000256J0000044D01*
G01X0005026Y0022443D02*
G03X0005034Y0022221I0003030J0000000D01*
G01X0005311Y0022937D02*
G03X0005053Y0022712I0000000J0000261D01*
G01X0005476Y0023132D02*
G03X0005478Y0023131I0000010J0000039D01*
G01X0005034Y0022223D02*
G03X0005155Y0021968I0000356J0000013D01*
G01X0005053Y0022713D02*
G03X0005026Y0022438I0001373J0000275D01*
G03X0005026Y0022408I0001400J0000000D01*
G01X0005158Y0021966D02*
G03X0005346Y0021904I0000188J0000252D01*
Y0021903D02*
G03X0005641Y0022108I0000000J0000315D01*
G01X0005155Y0021968D02*
G03X0005158Y0021966I0000027J0000030D01*
G01X0005477Y0021713D02*
G03X0005891Y0022108I0000109J0000532D01*
G01X0005465Y0021713D02*
G03X0005462Y0021712I0000007J0000040D01*
G01X0005299Y0021691D02*
G03X0005462Y0021712I0000002J0000677D01*
G01X0029975Y0009426D02*
G03X0029987Y0009424I0000012J0000038D01*
G01X0029923Y0009972D02*
G03X0029922Y0009964I0000039J0000008D01*
G01X0029962Y0009924D02*
G03X0029982Y0009929I0000000J0000040D01*
G01X0030117Y0009883D02*
G03X0030118Y0009892I0000039J0000009D01*
G01X0029987Y0009424D02*
G03X0030026Y0009456I0000000J0000040D01*
G01X0030078Y0009932D02*
G03X0030057Y0009926I0000000J0000040D01*
G01X0030046Y0009439D02*
G03X0030077Y0009400I0000040J0000000D01*
G01X0030047Y0009450D02*
G03X0030045Y0009439I0000039J0000011D01*
G01X0029922Y0009964D02*
G03X0029962Y0009924I0000040J0000000D01*
G01X0030118Y0009892D02*
G03X0030078Y0009932I0000040J0000000D01*
G01X0008022Y0022580D02*
G03X0008062Y0022540I0000040J0000000D01*
Y0022899D02*
G03X0008022Y0022859I0000000J0000040D01*
Y0021993D02*
G03X0008062Y0021953I0000040J0000000D01*
Y0022331D02*
G03X0008022Y0022291I0000000J0000040D01*
G54D88*
G01X0036261Y0022999D02*
X0036428D01*
X0036455Y0022944D01*
Y0022888D01*
X0036428Y0022832D01*
X0036261D01*
X0036233Y0022888D01*
Y0022944D01*
X0036344Y0023166D01*
X0035891Y0022832D02*
Y0023166D01*
X0035863Y0022832D02*
X0036030D01*
X0036085Y0022944D01*
Y0023055D01*
X0036030Y0023166D01*
X0035863D01*
X0017319Y0006799D02*
Y0007022D01*
X0017541Y0006911D01*
Y0006855D01*
X0017208D01*
Y0007169D02*
Y0007392D01*
X0017430Y0007169D01*
X0017485D01*
X0017541Y0007197D01*
Y0007364D01*
X0017485Y0007392D01*
X0017374Y0007623D02*
X0017208Y0007539D01*
X0017374Y0007762D02*
Y0007595D01*
X0017430Y0007539D01*
X0017485D01*
X0017541Y0007595D01*
Y0007762D01*
X0017208D01*
X0031775Y0008518D02*
X0031720Y0008462D01*
Y0008351D01*
X0031775Y0008295D01*
X0031831D01*
X0031942Y0008407D01*
X0032053Y0008295D01*
Y0008518D01*
X0031831Y0008665D02*
Y0008888D01*
X0032053Y0008777D01*
Y0008721D01*
X0031720D01*
X0031775Y0009035D02*
X0031720Y0009063D01*
Y0009230D01*
X0031775Y0009258D01*
X0031998D01*
X0032053Y0009230D01*
Y0009063D01*
X0031998Y0009035D01*
X0017513Y0019022D02*
X0017458Y0018966D01*
Y0018855D01*
X0017513Y0018799D01*
X0017569D01*
X0017680Y0018911D01*
X0017791Y0018799D01*
Y0019022D01*
X0017458Y0019169D02*
Y0019392D01*
X0017680Y0019169D01*
X0017735D01*
X0017791Y0019197D01*
Y0019364D01*
X0017735Y0019392D01*
X0017624Y0019623D02*
X0017458Y0019539D01*
X0017624Y0019762D02*
Y0019595D01*
X0017680Y0019539D01*
X0017735D01*
X0017791Y0019595D01*
Y0019762D01*
X0017458D01*
X0014683Y0013302D02*
X0014628Y0013246D01*
Y0013135D01*
X0014683Y0013079D01*
X0014739D01*
X0014850Y0013191D01*
X0014961Y0013079D01*
Y0013302D01*
X0014739Y0013561D02*
X0014628Y0013449D01*
X0014683Y0013672D02*
X0014628Y0013644D01*
Y0013533D01*
X0014683Y0013505D01*
X0014739Y0013449D01*
X0014905D01*
X0014961Y0013477D01*
Y0013644D01*
X0014905Y0013672D01*
X0014683D01*
X0017958Y0018966D02*
X0018291Y0018799D01*
Y0019022D01*
X0018069Y0019169D02*
Y0019392D01*
X0018291Y0019281D01*
Y0019225D01*
X0017958D01*
X0018124Y0019623D02*
X0017958Y0019539D01*
X0018124Y0019762D02*
Y0019595D01*
X0018180Y0019539D01*
X0018235D01*
X0018291Y0019595D01*
Y0019762D01*
X0017958D01*
X0019362Y0013123D02*
X0019417Y0013095D01*
X0019473D01*
X0019528Y0013123D01*
Y0013290D01*
X0019473Y0013318D01*
X0019417D01*
X0019362Y0013290D01*
Y0013123D01*
X0019306Y0013095D01*
X0019250D01*
X0019195Y0013123D01*
Y0013290D01*
X0019250Y0013318D01*
X0019306D01*
X0019362Y0013290D01*
X0019195Y0013465D02*
Y0013688D01*
X0019417Y0013465D01*
X0019473D01*
X0019528Y0013493D01*
Y0013660D01*
X0019473Y0013688D01*
X0019250Y0013835D02*
X0019195Y0013863D01*
Y0014030D01*
X0019250Y0014058D01*
X0019473D01*
X0019528Y0014030D01*
Y0013863D01*
X0019473Y0013835D01*
X0026682Y0006125D02*
X0026710Y0006070D01*
X0026877D01*
X0026904Y0006125D01*
Y0006237D01*
X0026849Y0006292D01*
X0026682D01*
Y0006403D01*
X0026904D01*
X0026312Y0006125D02*
X0026368Y0006070D01*
X0026479D01*
X0026534Y0006125D01*
Y0006181D01*
X0026423Y0006292D01*
X0026534Y0006403D01*
X0026312D01*
X0026164Y0006125D02*
X0026137Y0006070D01*
X0025970D01*
X0025942Y0006125D01*
Y0006348D01*
X0025970Y0006403D01*
X0026137D01*
X0026164Y0006348D01*
X0011798Y0006999D02*
X0011631D01*
X0011603Y0007055D01*
Y0007110D01*
X0011631Y0007166D01*
X0011798D01*
X0011825Y0007110D01*
Y0007055D01*
X0011714Y0006833D01*
X0011455D02*
X0011233D01*
X0011455Y0007055D01*
Y0007110D01*
X0011428Y0007166D01*
X0011261D01*
X0011233Y0007110D01*
X0011002Y0006999D02*
X0011085Y0006833D01*
X0010863Y0006999D02*
X0011030D01*
X0011085Y0007055D01*
Y0007110D01*
X0011030Y0007166D01*
X0010863D01*
Y0006833D01*
X0016708Y0018799D02*
Y0019022D01*
X0016930Y0018799D01*
X0016985D01*
X0017041Y0018827D01*
Y0018994D01*
X0016985Y0019022D01*
X0016763Y0019392D02*
X0016708Y0019336D01*
Y0019225D01*
X0016763Y0019169D01*
X0016819D01*
X0016930Y0019281D01*
X0017041Y0019169D01*
Y0019392D01*
X0016874Y0019623D02*
X0016708Y0019539D01*
X0016874Y0019762D02*
Y0019595D01*
X0016930Y0019539D01*
X0016985D01*
X0017041Y0019595D01*
Y0019762D01*
X0016708D01*
X0036020Y0007958D02*
X0035909D01*
X0035964D02*
Y0008291D01*
X0035909Y0008235D01*
X0035705Y0008069D02*
X0035483D01*
X0035594Y0008291D01*
X0035650D01*
Y0007958D01*
X0035335Y0008013D02*
X0035308Y0007958D01*
X0035141D01*
X0035113Y0008013D01*
Y0008235D01*
X0035141Y0008291D01*
X0035308D01*
X0035335Y0008235D01*
X0006113Y0003445D02*
X0006279Y0003778D01*
X0006057D01*
X0005909Y0003445D02*
X0005687D01*
X0005909Y0003667D01*
Y0003723D01*
X0005882Y0003778D01*
X0005715D01*
X0005687Y0003723D01*
X0005456Y0003612D02*
X0005539Y0003445D01*
X0005317Y0003612D02*
X0005484D01*
X0005539Y0003667D01*
Y0003723D01*
X0005484Y0003778D01*
X0005317D01*
Y0003445D01*
X0007168Y0007445D02*
X0007057D01*
X0007113D02*
Y0007778D01*
X0007057Y0007723D01*
X0006854Y0007445D02*
X0006743D01*
X0006798D02*
Y0007778D01*
X0006743Y0007723D01*
X0006456Y0007612D02*
X0006539Y0007445D01*
X0006317Y0007612D02*
X0006484D01*
X0006539Y0007667D01*
Y0007723D01*
X0006484Y0007778D01*
X0006317D01*
Y0007445D01*
X0025638Y0013897D02*
X0025583Y0013869D01*
Y0013702D01*
X0025638Y0013674D01*
X0025749D01*
X0025805Y0013730D01*
Y0013897D01*
X0025916D01*
Y0013674D01*
X0025694Y0014044D02*
Y0014267D01*
X0025916Y0014156D01*
Y0014100D01*
X0025583D01*
X0025749Y0014498D02*
X0025583Y0014414D01*
X0025749Y0014637D02*
Y0014470D01*
X0025805Y0014414D01*
X0025860D01*
X0025916Y0014470D01*
Y0014637D01*
X0025583D01*
X0010029Y0016931D02*
X0009807D01*
X0009918Y0017153D01*
X0009974D01*
Y0016820D01*
X0009659Y0016931D02*
X0009437D01*
X0009548Y0017153D01*
X0009604D01*
Y0016820D01*
X0009289Y0016875D02*
X0009262Y0016820D01*
X0009095D01*
X0009067Y0016875D01*
Y0017098D01*
X0009095Y0017153D01*
X0009262D01*
X0009289Y0017098D01*
X0014738Y0014320D02*
X0014904Y0014653D01*
X0014682D01*
X0014312Y0014376D02*
X0014368Y0014320D01*
X0014479D01*
X0014534Y0014376D01*
Y0014431D01*
X0014423Y0014542D01*
X0014534Y0014653D01*
X0014312D01*
X0013970Y0014320D02*
Y0014653D01*
X0013942Y0014320D02*
X0014109D01*
X0014164Y0014431D01*
Y0014542D01*
X0014109Y0014653D01*
X0013942D01*
X0018654Y0002945D02*
X0018432D01*
X0018654Y0003167D01*
Y0003223D01*
X0018627Y0003278D01*
X0018460D01*
X0018432Y0003223D01*
X0018062Y0003000D02*
X0018090Y0002945D01*
X0018257D01*
X0018284Y0003000D01*
Y0003112D01*
X0018229Y0003167D01*
X0018062D01*
Y0003278D01*
X0018284D01*
X0017831Y0003112D02*
X0017914Y0002945D01*
X0017692Y0003112D02*
X0017859D01*
X0017914Y0003167D01*
Y0003223D01*
X0017859Y0003278D01*
X0017692D01*
Y0002945D01*
X0036806Y0018783D02*
X0036751Y0018838D01*
X0036723Y0018894D01*
Y0019005D01*
X0036751Y0019060D01*
X0036806Y0019116D01*
X0036862D01*
X0036918Y0019060D01*
X0036945Y0019005D01*
Y0018894D01*
X0036918Y0018838D01*
X0036862Y0018783D01*
X0036806D01*
X0036575Y0018894D02*
X0036353D01*
X0036464Y0019116D01*
X0036520D01*
Y0018783D01*
X0036122Y0018949D02*
X0036205Y0018783D01*
X0035983Y0018949D02*
X0036150D01*
X0036205Y0019005D01*
Y0019060D01*
X0036150Y0019116D01*
X0035983D01*
Y0018783D01*
X0025583Y0016105D02*
Y0016216D01*
Y0016161D02*
X0025916D01*
X0025860Y0016216D01*
X0025638Y0016642D02*
X0025583Y0016586D01*
Y0016475D01*
X0025638Y0016419D01*
X0025694D01*
X0025805Y0016531D01*
X0025916Y0016419D01*
Y0016642D01*
X0025638Y0016789D02*
X0025583Y0016817D01*
Y0016984D01*
X0025638Y0017012D01*
X0025860D01*
X0025916Y0016984D01*
Y0016817D01*
X0025860Y0016789D01*
X0018388Y0007022D02*
X0018333Y0006994D01*
Y0006827D01*
X0018388Y0006799D01*
X0018499D01*
X0018555Y0006855D01*
Y0007022D01*
X0018666D01*
Y0006799D01*
X0018444Y0007169D02*
Y0007392D01*
X0018666Y0007281D01*
Y0007225D01*
X0018333D01*
X0018388Y0007539D02*
X0018333Y0007567D01*
Y0007734D01*
X0018388Y0007762D01*
X0018610D01*
X0018666Y0007734D01*
Y0007567D01*
X0018610Y0007539D01*
X0018529Y0014931D02*
X0018307D01*
X0018418Y0015153D01*
X0018474D01*
Y0014820D01*
X0018159Y0014931D02*
X0017937D01*
X0018048Y0015153D01*
X0018104D01*
Y0014820D01*
X0017706Y0014987D02*
X0017789Y0014820D01*
X0017567Y0014987D02*
X0017734D01*
X0017789Y0015042D01*
Y0015098D01*
X0017734Y0015153D01*
X0017567D01*
Y0014820D01*
X0024958Y0013674D02*
Y0013897D01*
X0025180Y0013674D01*
X0025235D01*
X0025291Y0013702D01*
Y0013869D01*
X0025235Y0013897D01*
X0025013Y0014267D02*
X0024958Y0014211D01*
Y0014100D01*
X0025013Y0014044D01*
X0025069D01*
X0025180Y0014156D01*
X0025291Y0014044D01*
Y0014267D01*
X0025013Y0014414D02*
X0024958Y0014442D01*
Y0014609D01*
X0025013Y0014637D01*
X0025235D01*
X0025291Y0014609D01*
Y0014442D01*
X0025235Y0014414D01*
X0026612Y0013868D02*
X0026667Y0013840D01*
X0026723D01*
X0026778Y0013868D01*
Y0014035D01*
X0026723Y0014063D01*
X0026667D01*
X0026612Y0014035D01*
Y0013868D01*
X0026556Y0013840D01*
X0026501D01*
X0026445Y0013868D01*
Y0014035D01*
X0026501Y0014063D01*
X0026556D01*
X0026612Y0014035D01*
X0026445Y0014405D02*
X0026778D01*
X0026445Y0014433D02*
Y0014266D01*
X0026556Y0014210D01*
X0026667D01*
X0026778Y0014266D01*
Y0014433D01*
X0031738Y0014697D02*
X0031683Y0014641D01*
Y0014530D01*
X0031738Y0014474D01*
X0031794D01*
X0031905Y0014586D01*
X0032016Y0014474D01*
Y0014697D01*
X0031738Y0015067D02*
X0031683Y0015011D01*
Y0014900D01*
X0031738Y0014844D01*
X0031794D01*
X0031905Y0014956D01*
X0032016Y0014844D01*
Y0015067D01*
X0031738Y0015214D02*
X0031683Y0015242D01*
Y0015409D01*
X0031738Y0015437D01*
X0031960D01*
X0032016Y0015409D01*
Y0015242D01*
X0031960Y0015214D01*
X0005734Y0009945D02*
X0005623D01*
X0005678D02*
Y0010278D01*
X0005623Y0010223D01*
X0005336Y0010112D02*
X0005419Y0009945D01*
X0005197Y0010112D02*
X0005364D01*
X0005419Y0010167D01*
Y0010223D01*
X0005364Y0010278D01*
X0005197D01*
Y0009945D01*
X0018612Y0001540D02*
Y0001373D01*
X0018556Y0001345D01*
X0018500D01*
X0018445Y0001373D01*
Y0001540D01*
X0018500Y0001568D01*
X0018556D01*
X0018778Y0001457D01*
X0018500Y0001938D02*
X0018445Y0001882D01*
Y0001771D01*
X0018500Y0001715D01*
X0018556D01*
X0018667Y0001827D01*
X0018778Y0001715D01*
Y0001938D01*
X0018500Y0002085D02*
X0018445Y0002113D01*
Y0002280D01*
X0018500Y0002308D01*
X0018723D01*
X0018778Y0002280D01*
Y0002113D01*
X0018723Y0002085D01*
X0026557Y0018125D02*
X0026585Y0018070D01*
X0026752D01*
X0026779Y0018125D01*
Y0018237D01*
X0026724Y0018292D01*
X0026557D01*
Y0018403D01*
X0026779D01*
X0026409Y0018070D02*
X0026187D01*
X0026409Y0018292D01*
Y0018348D01*
X0026382Y0018403D01*
X0026215D01*
X0026187Y0018348D01*
X0026039Y0018125D02*
X0026012Y0018070D01*
X0025845D01*
X0025817Y0018125D01*
Y0018348D01*
X0025845Y0018403D01*
X0026012D01*
X0026039Y0018348D01*
X0005317Y0005875D02*
X0005345Y0005820D01*
X0005512D01*
X0005539Y0005875D01*
Y0005987D01*
X0005484Y0006042D01*
X0005317D01*
Y0006153D01*
X0005539D01*
X0005086Y0005987D02*
X0005169Y0005820D01*
X0004947Y0005987D02*
X0005114D01*
X0005169Y0006042D01*
Y0006098D01*
X0005114Y0006153D01*
X0004947D01*
Y0005820D01*
X0009170Y0002864D02*
X0008948D01*
X0009059Y0003086D01*
X0009115D01*
Y0002753D01*
X0008689Y0002864D02*
X0008800Y0002753D01*
X0008578Y0002808D02*
X0008606Y0002753D01*
X0008717D01*
X0008745Y0002808D01*
X0008800Y0002864D01*
Y0003030D01*
X0008773Y0003086D01*
X0008606D01*
X0008578Y0003030D01*
Y0002808D01*
X0037167Y0016575D02*
Y0016353D01*
X0036945Y0016575D01*
X0036889D01*
X0036834Y0016548D01*
Y0016381D01*
X0036889Y0016353D01*
X0037056Y0016205D02*
Y0015983D01*
X0036834Y0016094D01*
Y0016150D01*
X0037167D01*
X0037001Y0015752D02*
X0037167Y0015835D01*
X0037001Y0015613D02*
Y0015780D01*
X0036945Y0015835D01*
X0036889D01*
X0036834Y0015780D01*
Y0015613D01*
X0037167D01*
X0010748Y0005320D02*
X0010914Y0005653D01*
X0010692D01*
X0010461Y0005487D02*
X0010544Y0005320D01*
X0010322Y0005487D02*
X0010489D01*
X0010544Y0005542D01*
Y0005598D01*
X0010489Y0005653D01*
X0010322D01*
Y0005320D01*
X0018307Y0015375D02*
X0018363Y0015320D01*
X0018474D01*
X0018529Y0015375D01*
Y0015431D01*
X0018418Y0015542D01*
X0018529Y0015653D01*
X0018307D01*
X0018159Y0015431D02*
X0017937D01*
X0018048Y0015653D01*
X0018104D01*
Y0015320D01*
X0017706Y0015487D02*
X0017789Y0015320D01*
X0017567Y0015487D02*
X0017734D01*
X0017789Y0015542D01*
Y0015598D01*
X0017734Y0015653D01*
X0017567D01*
Y0015320D01*
X0012317Y0009000D02*
X0012373Y0008945D01*
X0012484D01*
X0012539Y0009000D01*
Y0009056D01*
X0012428Y0009167D01*
X0012539Y0009278D01*
X0012317D01*
X0012086Y0009112D02*
X0012169Y0008945D01*
X0011947Y0009112D02*
X0012114D01*
X0012169Y0009167D01*
Y0009223D01*
X0012114Y0009278D01*
X0011947D01*
Y0008945D01*
X0009189Y0008469D02*
Y0008691D01*
X0009411Y0008469D01*
X0009467D01*
X0009523Y0008497D01*
Y0008663D01*
X0009467Y0008691D01*
X0009300Y0008950D02*
X0009189Y0008839D01*
X0009245Y0009061D02*
X0009189Y0009033D01*
Y0008922D01*
X0009245Y0008894D01*
X0009300Y0008839D01*
X0009467D01*
X0009523Y0008867D01*
Y0009033D01*
X0009467Y0009061D01*
X0009245D01*
X0025708Y0004091D02*
X0026041Y0003924D01*
Y0004147D01*
X0025763Y0004517D02*
X0025708Y0004461D01*
Y0004350D01*
X0025763Y0004294D01*
X0025819D01*
X0025930Y0004406D01*
X0026041Y0004294D01*
Y0004517D01*
X0025763Y0004664D02*
X0025708Y0004692D01*
Y0004859D01*
X0025763Y0004887D01*
X0025985D01*
X0026041Y0004859D01*
Y0004692D01*
X0025985Y0004664D01*
X0017167Y0015478D02*
X0017334Y0015812D01*
X0017111D01*
X0016853Y0015589D02*
X0016964Y0015478D01*
X0016741Y0015534D02*
X0016769Y0015478D01*
X0016880D01*
X0016908Y0015534D01*
X0016964Y0015589D01*
Y0015756D01*
X0016936Y0015812D01*
X0016769D01*
X0016741Y0015756D01*
Y0015534D01*
X0036173Y0016124D02*
X0036006D01*
X0035978Y0016180D01*
Y0016235D01*
X0036006Y0016291D01*
X0036173D01*
X0036200Y0016235D01*
Y0016180D01*
X0036089Y0015958D01*
X0035830D02*
X0035608D01*
X0035830Y0016180D01*
Y0016235D01*
X0035803Y0016291D01*
X0035636D01*
X0035608Y0016235D01*
X0035460Y0016013D02*
X0035433Y0015958D01*
X0035266D01*
X0035238Y0016013D01*
Y0016235D01*
X0035266Y0016291D01*
X0035433D01*
X0035460Y0016235D01*
X0011332Y0012138D02*
X0011388Y0012083D01*
X0011499D01*
X0011555Y0012138D01*
Y0012194D01*
X0011444Y0012305D01*
X0011555Y0012416D01*
X0011332D01*
X0011185Y0012083D02*
X0011074D01*
X0011129D02*
Y0012416D01*
X0011074Y0012360D01*
X0010787Y0012249D02*
X0010870Y0012083D01*
X0010648Y0012249D02*
X0010815D01*
X0010870Y0012305D01*
Y0012360D01*
X0010815Y0012416D01*
X0010648D01*
Y0012083D01*
X0036075Y0015320D02*
X0036020Y0015375D01*
X0035992Y0015431D01*
Y0015542D01*
X0036020Y0015598D01*
X0036075Y0015653D01*
X0036131D01*
X0036187Y0015598D01*
X0036214Y0015542D01*
Y0015431D01*
X0036187Y0015375D01*
X0036131Y0015320D01*
X0036075D01*
X0035622Y0015375D02*
X0035678Y0015320D01*
X0035789D01*
X0035844Y0015375D01*
Y0015431D01*
X0035733Y0015542D01*
X0035844Y0015653D01*
X0035622D01*
X0035474Y0015375D02*
X0035447Y0015320D01*
X0035280D01*
X0035252Y0015375D01*
Y0015598D01*
X0035280Y0015653D01*
X0035447D01*
X0035474Y0015598D01*
X0036890Y0018158D02*
X0036779D01*
X0036834D02*
Y0018491D01*
X0036779Y0018435D01*
X0036575Y0018269D02*
X0036353D01*
X0036464Y0018491D01*
X0036520D01*
Y0018158D01*
X0036122Y0018324D02*
X0036205Y0018158D01*
X0035983Y0018324D02*
X0036150D01*
X0036205Y0018380D01*
Y0018435D01*
X0036150Y0018491D01*
X0035983D01*
Y0018158D01*
X0014682Y0015251D02*
X0014710Y0015195D01*
X0014877D01*
X0014904Y0015251D01*
Y0015362D01*
X0014849Y0015417D01*
X0014682D01*
Y0015528D01*
X0014904D01*
X0014312Y0015251D02*
X0014368Y0015195D01*
X0014479D01*
X0014534Y0015251D01*
Y0015306D01*
X0014423Y0015417D01*
X0014534Y0015528D01*
X0014312D01*
X0013970Y0015195D02*
Y0015528D01*
X0013942Y0015195D02*
X0014109D01*
X0014164Y0015306D01*
Y0015417D01*
X0014109Y0015528D01*
X0013942D01*
X0036089Y0008695D02*
X0035867D01*
X0036089Y0008917D01*
Y0008973D01*
X0036062Y0009028D01*
X0035895D01*
X0035867Y0008973D01*
X0035719Y0008806D02*
X0035497D01*
X0035608Y0009028D01*
X0035664D01*
Y0008695D01*
X0035349Y0008750D02*
X0035322Y0008695D01*
X0035155D01*
X0035127Y0008750D01*
Y0008973D01*
X0035155Y0009028D01*
X0035322D01*
X0035349Y0008973D01*
X0018569Y0018799D02*
Y0019022D01*
X0018791Y0018911D01*
Y0018855D01*
X0018458D01*
X0018513Y0019392D02*
X0018458Y0019336D01*
Y0019225D01*
X0018513Y0019169D01*
X0018569D01*
X0018680Y0019281D01*
X0018791Y0019169D01*
Y0019392D01*
X0018513Y0019539D02*
X0018458Y0019567D01*
Y0019734D01*
X0018513Y0019762D01*
X0018735D01*
X0018791Y0019734D01*
Y0019567D01*
X0018735Y0019539D01*
X0035043Y0004324D02*
X0035070Y0004380D01*
Y0004435D01*
X0035043Y0004491D01*
X0034876D01*
X0034848Y0004435D01*
Y0004380D01*
X0034876Y0004324D01*
X0035043D01*
X0035070Y0004269D01*
Y0004213D01*
X0035043Y0004158D01*
X0034876D01*
X0034848Y0004213D01*
Y0004269D01*
X0034876Y0004324D01*
X0034478Y0004213D02*
X0034506Y0004158D01*
X0034673D01*
X0034700Y0004213D01*
Y0004324D01*
X0034645Y0004380D01*
X0034478D01*
Y0004491D01*
X0034700D01*
X0034247Y0004324D02*
X0034330Y0004158D01*
X0034108Y0004324D02*
X0034275D01*
X0034330Y0004380D01*
Y0004435D01*
X0034275Y0004491D01*
X0034108D01*
Y0004158D01*
X0011603Y0007763D02*
X0011659Y0007708D01*
X0011770D01*
X0011825Y0007763D01*
Y0007819D01*
X0011714Y0007930D01*
X0011825Y0008041D01*
X0011603D01*
X0011233Y0007763D02*
X0011289Y0007708D01*
X0011400D01*
X0011455Y0007763D01*
Y0007819D01*
X0011344Y0007930D01*
X0011455Y0008041D01*
X0011233D01*
X0011002Y0007874D02*
X0011085Y0007708D01*
X0010863Y0007874D02*
X0011030D01*
X0011085Y0007930D01*
Y0007985D01*
X0011030Y0008041D01*
X0010863D01*
Y0007708D01*
X0036126Y0007574D02*
X0036293D01*
X0036320Y0007519D01*
Y0007463D01*
X0036293Y0007408D01*
X0036126D01*
X0036098Y0007463D01*
Y0007519D01*
X0036209Y0007741D01*
X0035728Y0007463D02*
X0035756Y0007408D01*
X0035923D01*
X0035950Y0007463D01*
Y0007574D01*
X0035895Y0007630D01*
X0035728D01*
Y0007741D01*
X0035950D01*
X0035497Y0007574D02*
X0035580Y0007408D01*
X0035358Y0007574D02*
X0035525D01*
X0035580Y0007630D01*
Y0007685D01*
X0035525Y0007741D01*
X0035358D01*
Y0007408D01*
X0025819Y0001299D02*
Y0001522D01*
X0026041Y0001411D01*
Y0001355D01*
X0025708D01*
X0025763Y0001892D02*
X0025708Y0001864D01*
Y0001697D01*
X0025763Y0001669D01*
X0025874D01*
X0025930Y0001725D01*
Y0001892D01*
X0026041D01*
Y0001669D01*
X0025874Y0002123D02*
X0025708Y0002039D01*
X0025874Y0002262D02*
Y0002095D01*
X0025930Y0002039D01*
X0025985D01*
X0026041Y0002095D01*
Y0002262D01*
X0025708D01*
X0038083Y0007563D02*
X0038138Y0007619D01*
X0038194Y0007647D01*
X0038305D01*
X0038360Y0007619D01*
X0038416Y0007563D01*
Y0007508D01*
X0038360Y0007452D01*
X0038305Y0007424D01*
X0038194D01*
X0038138Y0007452D01*
X0038083Y0007508D01*
Y0007563D01*
X0038249Y0007989D02*
Y0007822D01*
X0038194Y0007794D01*
X0038138D01*
X0038083Y0007822D01*
Y0007989D01*
X0038138Y0008017D01*
X0038194D01*
X0038416Y0007906D01*
X0038249Y0008248D02*
X0038083Y0008164D01*
X0038249Y0008387D02*
Y0008220D01*
X0038305Y0008164D01*
X0038360D01*
X0038416Y0008220D01*
Y0008387D01*
X0038083D01*
X0026570Y0001401D02*
Y0001623D01*
X0026792Y0001401D01*
X0026848D01*
X0026903Y0001429D01*
Y0001596D01*
X0026848Y0001623D01*
X0026570Y0001771D02*
Y0001882D01*
Y0001827D02*
X0026903D01*
X0026848Y0001882D01*
X0026570Y0002280D02*
X0026903D01*
X0026570Y0002308D02*
Y0002141D01*
X0026681Y0002085D01*
X0026792D01*
X0026903Y0002141D01*
Y0002308D01*
X0018432Y0003500D02*
X0018488Y0003445D01*
X0018599D01*
X0018654Y0003500D01*
Y0003556D01*
X0018543Y0003667D01*
X0018654Y0003778D01*
X0018432D01*
X0018062Y0003500D02*
X0018090Y0003445D01*
X0018257D01*
X0018284Y0003500D01*
Y0003612D01*
X0018229Y0003667D01*
X0018062D01*
Y0003778D01*
X0018284D01*
X0017831Y0003612D02*
X0017914Y0003445D01*
X0017692Y0003612D02*
X0017859D01*
X0017914Y0003667D01*
Y0003723D01*
X0017859Y0003778D01*
X0017692D01*
Y0003445D01*
X0017999Y0006827D02*
Y0006994D01*
X0018055Y0007022D01*
X0018110D01*
X0018166Y0006994D01*
Y0006827D01*
X0018110Y0006799D01*
X0018055D01*
X0017833Y0006911D01*
X0017888Y0007392D02*
X0017833Y0007364D01*
Y0007197D01*
X0017888Y0007169D01*
X0017999D01*
X0018055Y0007225D01*
Y0007392D01*
X0018166D01*
Y0007169D01*
X0017999Y0007623D02*
X0017833Y0007539D01*
X0017999Y0007762D02*
Y0007595D01*
X0018055Y0007539D01*
X0018110D01*
X0018166Y0007595D01*
Y0007762D01*
X0017833D01*
X0011360Y0013124D02*
X0011527D01*
X0011555Y0013069D01*
Y0013013D01*
X0011527Y0012958D01*
X0011360D01*
X0011332Y0013013D01*
Y0013069D01*
X0011444Y0013291D01*
X0011185Y0012958D02*
X0011074D01*
X0011129D02*
Y0013291D01*
X0011074Y0013235D01*
X0010787Y0013124D02*
X0010870Y0012958D01*
X0010648Y0013124D02*
X0010815D01*
X0010870Y0013180D01*
Y0013235D01*
X0010815Y0013291D01*
X0010648D01*
Y0012958D01*
X0017331Y0003630D02*
X0017359Y0003685D01*
Y0003741D01*
X0017331Y0003797D01*
X0017164D01*
X0017136Y0003741D01*
Y0003685D01*
X0017164Y0003630D01*
X0017331D01*
X0017359Y0003574D01*
Y0003519D01*
X0017331Y0003463D01*
X0017164D01*
X0017136Y0003519D01*
Y0003574D01*
X0017164Y0003630D01*
X0016878Y0003574D02*
X0016989Y0003463D01*
X0016766Y0003519D02*
X0016794Y0003463D01*
X0016905D01*
X0016933Y0003519D01*
X0016989Y0003574D01*
Y0003741D01*
X0016961Y0003797D01*
X0016794D01*
X0016766Y0003741D01*
Y0003519D01*
X0016819Y0006799D02*
Y0007022D01*
X0017041Y0006911D01*
Y0006855D01*
X0016708D01*
X0016763Y0007392D02*
X0016708Y0007336D01*
Y0007225D01*
X0016763Y0007169D01*
X0016819D01*
X0016930Y0007281D01*
X0017041Y0007169D01*
Y0007392D01*
X0016874Y0007623D02*
X0016708Y0007539D01*
X0016874Y0007762D02*
Y0007595D01*
X0016930Y0007539D01*
X0016985D01*
X0017041Y0007595D01*
Y0007762D01*
X0016708D01*
X0034214Y0001207D02*
X0034103D01*
X0034159D02*
Y0001541D01*
X0034103Y0001485D01*
X0033900Y0001207D02*
X0033789D01*
X0033844D02*
Y0001541D01*
X0033789Y0001485D01*
X0033391Y0001207D02*
Y0001541D01*
X0033363Y0001207D02*
X0033530D01*
X0033585Y0001319D01*
Y0001430D01*
X0033530Y0001541D01*
X0033363D01*
X0014683Y0008302D02*
X0014628Y0008274D01*
Y0008107D01*
X0014683Y0008079D01*
X0014794D01*
X0014850Y0008135D01*
Y0008302D01*
X0014961D01*
Y0008079D01*
X0014739Y0008561D02*
X0014628Y0008449D01*
X0014683Y0008672D02*
X0014628Y0008644D01*
Y0008533D01*
X0014683Y0008505D01*
X0014739Y0008449D01*
X0014905D01*
X0014961Y0008477D01*
Y0008644D01*
X0014905Y0008672D01*
X0014683D01*
X0025124Y0001327D02*
X0025180Y0001299D01*
X0025235D01*
X0025291Y0001327D01*
Y0001494D01*
X0025235Y0001522D01*
X0025180D01*
X0025124Y0001494D01*
Y0001327D01*
X0025069Y0001299D01*
X0025013D01*
X0024958Y0001327D01*
Y0001494D01*
X0025013Y0001522D01*
X0025069D01*
X0025124Y0001494D01*
X0025013Y0001892D02*
X0024958Y0001836D01*
Y0001725D01*
X0025013Y0001669D01*
X0025069D01*
X0025180Y0001781D01*
X0025291Y0001669D01*
Y0001892D01*
X0025013Y0002039D02*
X0024958Y0002067D01*
Y0002234D01*
X0025013Y0002262D01*
X0025235D01*
X0025291Y0002234D01*
Y0002067D01*
X0025235Y0002039D01*
X0017275Y0004030D02*
X0017575D01*
Y0004290D01*
X0034980Y0008950D02*
X0033830D01*
Y0008305D01*
X0034980D01*
Y0008950D01*
X0033525Y0009805D02*
X0032225D01*
Y0007555D01*
X0033525D01*
Y0007530D01*
Y0009805D01*
X0019545Y0016450D02*
X0018395D01*
Y0015805D01*
X0019545D01*
Y0016450D01*
X0019575Y0002080D02*
Y0003230D01*
X0018930D01*
Y0002080D01*
X0019575D01*
X0025670Y0018575D02*
X0024520D01*
Y0017930D01*
X0025670D01*
Y0018575D01*
X0019545Y0005325D02*
X0018395D01*
Y0004680D01*
X0019545D01*
Y0005325D01*
X0018175Y0018670D02*
Y0017520D01*
X0018820D01*
Y0018670D01*
X0018175D01*
X0019700Y0014205D02*
Y0015355D01*
X0019055D01*
Y0014205D01*
X0019700D01*
X0011000Y0010450D02*
X0013200D01*
Y0009550D01*
X0011000D01*
Y0010450D01*
X0018175Y0006670D02*
Y0005520D01*
X0018820D01*
Y0006670D01*
X0018175D01*
X0011740Y0012800D02*
X0012890D01*
Y0013445D01*
X0011740D01*
Y0012800D01*
X0024800Y0017045D02*
Y0015895D01*
X0025445D01*
Y0017045D01*
X0024800D01*
Y0015920D02*
Y0014770D01*
X0025445D01*
Y0015920D01*
X0024800D01*
X0016675Y0006670D02*
Y0005520D01*
X0017320D01*
Y0006670D01*
X0016675D01*
X0033555Y0000675D02*
Y0000400D01*
X0035725D01*
Y0001100D01*
X0033555D01*
Y0000825D01*
X0033480Y0000750D01*
X0033555Y0000675D01*
X0014450Y0007845D02*
Y0008105D01*
X0014150D01*
Y0008155D01*
Y0006905D02*
X0014450D01*
Y0007165D01*
X0037300Y0008420D02*
Y0007270D01*
X0037945D01*
Y0008420D01*
X0037300D01*
X0033430Y0022925D02*
Y0022650D01*
X0035600D01*
Y0023350D01*
X0033430D01*
Y0023075D01*
X0033355Y0023000D01*
X0033430Y0022925D01*
X0017425Y0006670D02*
Y0005520D01*
X0018070D01*
Y0006670D01*
X0017425D01*
X0014450Y0012970D02*
Y0013230D01*
X0014150D01*
Y0013280D01*
Y0012030D02*
X0014450D01*
Y0012290D01*
X0018925Y0018670D02*
Y0017520D01*
X0019570D01*
Y0018670D01*
X0018925D01*
X0025795Y0006575D02*
X0024645D01*
Y0005930D01*
X0025795D01*
Y0006575D01*
X0024800Y0005045D02*
Y0003895D01*
X0025445D01*
Y0005045D01*
X0024800D01*
X0007670Y0003950D02*
X0006520D01*
Y0003305D01*
X0007670D01*
Y0003950D01*
X0025550Y0015920D02*
Y0014770D01*
X0026195D01*
Y0015920D01*
X0025550D01*
X0019545Y0004575D02*
X0018395D01*
Y0003930D01*
X0019545D01*
Y0004575D01*
X0018925Y0006670D02*
Y0005520D01*
X0019570D01*
Y0006670D01*
X0018925D01*
X0026700Y0014680D02*
X0026975D01*
Y0016850D01*
X0026275D01*
Y0014680D01*
X0026550D01*
X0026625Y0014605D01*
X0026700Y0014680D01*
X0032225Y0013695D02*
X0033525D01*
Y0015945D01*
X0032225D01*
Y0015970D01*
Y0013695D01*
X0005750Y0010575D02*
X0007950D01*
Y0009675D01*
X0005750D01*
Y0010575D01*
X0024800Y0003670D02*
Y0002520D01*
X0025445D01*
Y0003670D01*
X0024800D01*
X0005750Y0006450D02*
X0007950D01*
Y0005550D01*
X0005750D01*
Y0006450D01*
X0008405Y0004200D02*
X0008145D01*
Y0003900D01*
X0008095D01*
X0009345D02*
Y0004200D01*
X0009085D01*
X0037950Y0015330D02*
Y0016480D01*
X0037305D01*
Y0015330D01*
X0037950D01*
X0011000Y0006450D02*
X0013200D01*
Y0005550D01*
X0011000D01*
Y0006450D01*
X0019545Y0017200D02*
X0018395D01*
Y0016555D01*
X0019545D01*
Y0017200D01*
X0008155Y0009075D02*
X0007895D01*
Y0008775D01*
X0007845D01*
X0009095D02*
Y0009075D01*
X0008835D01*
X0017575Y0004970D02*
Y0005230D01*
X0017275D01*
Y0005280D01*
X0011955Y0007550D02*
X0013105D01*
Y0008195D01*
X0011955D01*
Y0007550D01*
X0025550Y0003670D02*
Y0002520D01*
X0026195D01*
Y0003670D01*
X0025550D01*
X0026825Y0002430D02*
X0027100D01*
Y0004600D01*
X0026400D01*
Y0002430D01*
X0026675D01*
X0026750Y0002355D01*
X0026825Y0002430D01*
X0017425Y0018670D02*
Y0017520D01*
X0018070D01*
Y0018670D01*
X0017425D01*
X0008920Y0017325D02*
X0007770D01*
Y0016680D01*
X0008920D01*
Y0017325D01*
X0017675Y0016860D02*
Y0017120D01*
X0017375D01*
Y0017170D01*
Y0015920D02*
X0017675D01*
Y0016180D01*
X0013695Y0015450D02*
Y0015725D01*
X0011525D01*
Y0015025D01*
X0013695D01*
Y0015300D01*
X0013770Y0015375D01*
X0013695Y0015450D01*
Y0014575D02*
Y0014850D01*
X0011525D01*
Y0014150D01*
X0013695D01*
Y0014425D01*
X0013770Y0014500D01*
X0013695Y0014575D01*
X0033830Y0007550D02*
X0034980D01*
Y0008195D01*
X0033830D01*
Y0007550D01*
X0035105Y0015700D02*
X0033955D01*
Y0015055D01*
X0035105D01*
Y0015700D01*
X0033955Y0015800D02*
X0035105D01*
Y0016445D01*
X0033955D01*
Y0015800D01*
X0011740Y0011925D02*
X0012890D01*
Y0012570D01*
X0011740D01*
Y0011925D01*
X0007420Y0008700D02*
X0006270D01*
Y0008055D01*
X0007420D01*
Y0008700D01*
X0016675Y0018670D02*
Y0017520D01*
X0017320D01*
Y0018670D01*
X0016675D01*
X0011955Y0006675D02*
X0013105D01*
Y0007320D01*
X0011955D01*
Y0006675D01*
G54D89*
G01X0022250Y0011000D02*
Y0001500D01*
Y0013500D02*
Y0022625D01*
M02*
