G04 #@! TF.GenerationSoftware,KiCad,Pcbnew,no-vcs-found-9413793~61~ubuntu17.10.1*
G04 #@! TF.CreationDate,2017-12-18T18:39:30-05:00*
G04 #@! TF.ProjectId,ENNOID Dual Gate Driver,454E4E4F4944204475616C2047617465,rev?*
G04 #@! TF.SameCoordinates,Original*
G04 #@! TF.FileFunction,Legend,Top*
G04 #@! TF.FilePolarity,Positive*
%FSLAX46Y46*%
G04 Gerber Fmt 4.6, Leading zero omitted, Abs format (unit mm)*
G04 Created by KiCad (PCBNEW no-vcs-found-9413793~61~ubuntu17.10.1) date Mon Dec 18 18:39:30 2017*
%MOMM*%
%LPD*%
G01*
G04 APERTURE LIST*
%ADD10C,0.200000*%
%ADD11C,0.120000*%
%ADD12C,0.150000*%
%ADD13C,0.100000*%
G04 APERTURE END LIST*
D10*
X11053771Y-80135219D02*
X11053771Y-80468552D01*
X11577580Y-80468552D02*
X10577580Y-80468552D01*
X10577580Y-79992361D01*
X11577580Y-79135219D02*
X11577580Y-79611409D01*
X10577580Y-79611409D01*
X10577580Y-78944742D02*
X10577580Y-78373314D01*
X11577580Y-78659028D02*
X10577580Y-78659028D01*
X11672819Y-78278076D02*
X11672819Y-77516171D01*
X11577580Y-77278076D02*
X10577580Y-77278076D01*
X11053771Y-77278076D02*
X11053771Y-76706647D01*
X11577580Y-76706647D02*
X10577580Y-76706647D01*
X16149580Y-84175409D02*
X15673390Y-84508742D01*
X16149580Y-84746838D02*
X15149580Y-84746838D01*
X15149580Y-84365885D01*
X15197200Y-84270647D01*
X15244819Y-84223028D01*
X15340057Y-84175409D01*
X15482914Y-84175409D01*
X15578152Y-84223028D01*
X15625771Y-84270647D01*
X15673390Y-84365885D01*
X15673390Y-84746838D01*
X16149580Y-83746838D02*
X15149580Y-83746838D01*
X15149580Y-83508742D01*
X15197200Y-83365885D01*
X15292438Y-83270647D01*
X15387676Y-83223028D01*
X15578152Y-83175409D01*
X15721009Y-83175409D01*
X15911485Y-83223028D01*
X16006723Y-83270647D01*
X16101961Y-83365885D01*
X16149580Y-83508742D01*
X16149580Y-83746838D01*
X15673390Y-82556361D02*
X16149580Y-82556361D01*
X15149580Y-82889695D02*
X15673390Y-82556361D01*
X15149580Y-82223028D01*
X16244819Y-82127790D02*
X16244819Y-81365885D01*
X16149580Y-81127790D02*
X15149580Y-81127790D01*
X15625771Y-81127790D02*
X15625771Y-80556361D01*
X16149580Y-80556361D02*
X15149580Y-80556361D01*
X49153771Y-83978571D02*
X49153771Y-84311904D01*
X49677580Y-84311904D02*
X48677580Y-84311904D01*
X48677580Y-83835714D01*
X49677580Y-82978571D02*
X49677580Y-83454761D01*
X48677580Y-83454761D01*
X48677580Y-82788095D02*
X48677580Y-82216666D01*
X49677580Y-82502380D02*
X48677580Y-82502380D01*
X49772819Y-82121428D02*
X49772819Y-81359523D01*
X49677580Y-80645238D02*
X49677580Y-81121428D01*
X48677580Y-81121428D01*
X56230780Y-81160761D02*
X55754590Y-81494095D01*
X56230780Y-81732190D02*
X55230780Y-81732190D01*
X55230780Y-81351238D01*
X55278400Y-81256000D01*
X55326019Y-81208380D01*
X55421257Y-81160761D01*
X55564114Y-81160761D01*
X55659352Y-81208380D01*
X55706971Y-81256000D01*
X55754590Y-81351238D01*
X55754590Y-81732190D01*
X56230780Y-80732190D02*
X55230780Y-80732190D01*
X55230780Y-80494095D01*
X55278400Y-80351238D01*
X55373638Y-80256000D01*
X55468876Y-80208380D01*
X55659352Y-80160761D01*
X55802209Y-80160761D01*
X55992685Y-80208380D01*
X56087923Y-80256000D01*
X56183161Y-80351238D01*
X56230780Y-80494095D01*
X56230780Y-80732190D01*
X55754590Y-79541714D02*
X56230780Y-79541714D01*
X55230780Y-79875047D02*
X55754590Y-79541714D01*
X55230780Y-79208380D01*
X56326019Y-79113142D02*
X56326019Y-78351238D01*
X56230780Y-77636952D02*
X56230780Y-78113142D01*
X55230780Y-78113142D01*
D11*
X39536000Y-83066000D02*
X39536000Y-84066000D01*
X41236000Y-84066000D02*
X41236000Y-83066000D01*
X21415900Y-66887800D02*
X21415900Y-68087800D01*
X19655900Y-68087800D02*
X19655900Y-66887800D01*
X24314600Y-75053700D02*
X24314600Y-73053700D01*
X21354600Y-73053700D02*
X21354600Y-75053700D01*
X24550000Y-74557000D02*
X24550000Y-75557000D01*
X26250000Y-75557000D02*
X26250000Y-74557000D01*
X33757500Y-74506200D02*
X33757500Y-75506200D01*
X35457500Y-75506200D02*
X35457500Y-74506200D01*
X37451400Y-75506200D02*
X37451400Y-74506200D01*
X35751400Y-74506200D02*
X35751400Y-75506200D01*
X3624200Y-60313200D02*
X2624200Y-60313200D01*
X2624200Y-62013200D02*
X3624200Y-62013200D01*
X2626740Y-60011680D02*
X3626740Y-60011680D01*
X3626740Y-58311680D02*
X2626740Y-58311680D01*
X2535300Y-37095800D02*
X3535300Y-37095800D01*
X3535300Y-35395800D02*
X2535300Y-35395800D01*
X8272400Y-35395800D02*
X7272400Y-35395800D01*
X7272400Y-37095800D02*
X8272400Y-37095800D01*
X17036160Y-29092260D02*
X18036160Y-29092260D01*
X18036160Y-27392260D02*
X17036160Y-27392260D01*
X39247700Y-57824000D02*
X38247700Y-57824000D01*
X38247700Y-59524000D02*
X39247700Y-59524000D01*
X38247700Y-61581400D02*
X39247700Y-61581400D01*
X39247700Y-59881400D02*
X38247700Y-59881400D01*
X38285800Y-37146600D02*
X39285800Y-37146600D01*
X39285800Y-35446600D02*
X38285800Y-35446600D01*
X44020360Y-35436440D02*
X43020360Y-35436440D01*
X43020360Y-37136440D02*
X44020360Y-37136440D01*
X48580420Y-29249740D02*
X49580420Y-29249740D01*
X49580420Y-27549740D02*
X48580420Y-27549740D01*
X18102200Y-57570000D02*
X17102200Y-57570000D01*
X17102200Y-59270000D02*
X18102200Y-59270000D01*
X25818200Y-60037600D02*
X25818200Y-59037600D01*
X24118200Y-59037600D02*
X24118200Y-60037600D01*
X20350100Y-35370400D02*
X19350100Y-35370400D01*
X19350100Y-37070400D02*
X20350100Y-37070400D01*
X14790800Y-38975400D02*
X15790800Y-38975400D01*
X15790800Y-37275400D02*
X14790800Y-37275400D01*
X19355500Y-38975400D02*
X20355500Y-38975400D01*
X20355500Y-37275400D02*
X19355500Y-37275400D01*
X24985600Y-27547200D02*
X23985600Y-27547200D01*
X23985600Y-29247200D02*
X24985600Y-29247200D01*
X24948640Y-15266480D02*
X22948640Y-15266480D01*
X22948640Y-17306480D02*
X24948640Y-17306480D01*
X23490300Y-9983840D02*
X24490300Y-9983840D01*
X24490300Y-8283840D02*
X23490300Y-8283840D01*
X24464900Y-10153280D02*
X23464900Y-10153280D01*
X23464900Y-11853280D02*
X24464900Y-11853280D01*
X22926800Y-12129320D02*
X24926800Y-12129320D01*
X24926800Y-15089320D02*
X22926800Y-15089320D01*
X16301340Y-8283840D02*
X15301340Y-8283840D01*
X15301340Y-9983840D02*
X16301340Y-9983840D01*
X50452400Y-58304800D02*
X51452400Y-58304800D01*
X51452400Y-56604800D02*
X50452400Y-56604800D01*
X57341400Y-57526300D02*
X57341400Y-58526300D01*
X59041400Y-58526300D02*
X59041400Y-57526300D01*
X55211600Y-35395800D02*
X54211600Y-35395800D01*
X54211600Y-37095800D02*
X55211600Y-37095800D01*
X49601500Y-39026200D02*
X50601500Y-39026200D01*
X50601500Y-37326200D02*
X49601500Y-37326200D01*
X54224300Y-39026200D02*
X55224300Y-39026200D01*
X55224300Y-37326200D02*
X54224300Y-37326200D01*
X56243600Y-28688400D02*
X57243600Y-28688400D01*
X57243600Y-26988400D02*
X56243600Y-26988400D01*
X54732680Y-17263300D02*
X56732680Y-17263300D01*
X56732680Y-15223300D02*
X54732680Y-15223300D01*
X55203980Y-7849500D02*
X54203980Y-7849500D01*
X54203980Y-9549500D02*
X55203980Y-9549500D01*
X55191280Y-9767200D02*
X54191280Y-9767200D01*
X54191280Y-11467200D02*
X55191280Y-11467200D01*
X56681880Y-14675300D02*
X54681880Y-14675300D01*
X54681880Y-11715300D02*
X56681880Y-11715300D01*
X38704900Y-9486000D02*
X39704900Y-9486000D01*
X39704900Y-7786000D02*
X38704900Y-7786000D01*
X33844600Y-39120700D02*
X33844600Y-38120700D01*
X32144600Y-38120700D02*
X32144600Y-39120700D01*
X30074500Y-58059700D02*
X30074500Y-59059700D01*
X31774500Y-59059700D02*
X31774500Y-58059700D01*
X29882200Y-59059700D02*
X29882200Y-58059700D01*
X28182200Y-58059700D02*
X28182200Y-59059700D01*
X33768400Y-85742400D02*
X33768400Y-84742400D01*
X32068400Y-84742400D02*
X32068400Y-85742400D01*
X5856860Y-87524220D02*
X4856860Y-87524220D01*
X4856860Y-89224220D02*
X5856860Y-89224220D01*
X47992400Y-83855058D02*
X47992400Y-82855058D01*
X46292400Y-82855058D02*
X46292400Y-83855058D01*
X20660800Y-31308800D02*
X20660800Y-33308800D01*
X20660800Y-33308800D02*
X24560800Y-33308800D01*
X20660800Y-31308800D02*
X24560800Y-31308800D01*
X54595200Y-30902400D02*
X58495200Y-30902400D01*
X54595200Y-32902400D02*
X58495200Y-32902400D01*
X54595200Y-30902400D02*
X54595200Y-32902400D01*
X3501900Y-29830200D02*
X1501900Y-29830200D01*
X1501900Y-29830200D02*
X1501900Y-33730200D01*
X3501900Y-29830200D02*
X3501900Y-33730200D01*
X3873800Y-15058300D02*
X1053800Y-15058300D01*
X2463800Y-21948300D02*
X2463800Y-19538300D01*
X2463800Y-11808300D02*
X2463800Y-14218300D01*
X3873800Y-19538300D02*
X3873800Y-14218300D01*
X1053800Y-19538300D02*
X3873800Y-19538300D01*
X1053800Y-14218300D02*
X1053800Y-19538300D01*
X3873800Y-14218300D02*
X1053800Y-14218300D01*
X1890200Y-6797800D02*
X5790200Y-6797800D01*
X1890200Y-8797800D02*
X5790200Y-8797800D01*
X1890200Y-6797800D02*
X1890200Y-8797800D01*
X34457200Y-30552900D02*
X34457200Y-28552900D01*
X34457200Y-28552900D02*
X30557200Y-28552900D01*
X34457200Y-30552900D02*
X30557200Y-30552900D01*
X32258360Y-14203060D02*
X29438360Y-14203060D01*
X29438360Y-14203060D02*
X29438360Y-19523060D01*
X29438360Y-19523060D02*
X32258360Y-19523060D01*
X32258360Y-19523060D02*
X32258360Y-14203060D01*
X30848360Y-11793060D02*
X30848360Y-14203060D01*
X30848360Y-21933060D02*
X30848360Y-19523060D01*
X32258360Y-15043060D02*
X29438360Y-15043060D01*
X31447300Y-8823200D02*
X27547300Y-8823200D01*
X31447300Y-6823200D02*
X27547300Y-6823200D01*
X31447300Y-8823200D02*
X31447300Y-6823200D01*
X13944300Y-96672300D02*
X14564300Y-96672300D01*
X13944300Y-95072300D02*
X13944300Y-96672300D01*
X14564300Y-95072300D02*
X13944300Y-95072300D01*
X13944300Y-94132300D02*
X14564300Y-94132300D01*
X13944300Y-92532300D02*
X13944300Y-94132300D01*
X14564300Y-92532300D02*
X13944300Y-92532300D01*
X13944300Y-91592300D02*
X14564300Y-91592300D01*
X13944300Y-89992300D02*
X13944300Y-91592300D01*
X14564300Y-89992300D02*
X13944300Y-89992300D01*
X13944300Y-89052300D02*
X14564300Y-89052300D01*
X13944300Y-87452300D02*
X13944300Y-89052300D01*
X14564300Y-87452300D02*
X13944300Y-87452300D01*
X8564300Y-95622300D02*
X9564300Y-95622300D01*
X8564300Y-88502300D02*
X9564300Y-88502300D01*
X9994300Y-95622300D02*
X9564300Y-95872300D01*
X9994300Y-88502300D02*
X9994300Y-95622300D01*
X9564300Y-88252300D02*
X9994300Y-88502300D01*
X9564300Y-95872300D02*
X8564300Y-95872300D01*
X9564300Y-88252300D02*
X9564300Y-95872300D01*
X8564300Y-88252300D02*
X9564300Y-88252300D01*
X14564300Y-97242300D02*
X14564300Y-86882300D01*
X8564300Y-97242300D02*
X14564300Y-97242300D01*
X8564300Y-86882300D02*
X8564300Y-97242300D01*
X14564300Y-86882300D02*
X8564300Y-86882300D01*
X45898100Y-92506900D02*
X45278100Y-92506900D01*
X45898100Y-94106900D02*
X45898100Y-92506900D01*
X45278100Y-94106900D02*
X45898100Y-94106900D01*
X45898100Y-95046900D02*
X45278100Y-95046900D01*
X45898100Y-96646900D02*
X45898100Y-95046900D01*
X45278100Y-96646900D02*
X45898100Y-96646900D01*
X51278100Y-93556900D02*
X50278100Y-93556900D01*
X51278100Y-95596900D02*
X50278100Y-95596900D01*
X49848100Y-93556900D02*
X50278100Y-93306900D01*
X49848100Y-95596900D02*
X49848100Y-93556900D01*
X50278100Y-95846900D02*
X49848100Y-95596900D01*
X50278100Y-93306900D02*
X51278100Y-93306900D01*
X50278100Y-95846900D02*
X50278100Y-93306900D01*
X51278100Y-95846900D02*
X50278100Y-95846900D01*
X45278100Y-91936900D02*
X45278100Y-97216900D01*
X51278100Y-91936900D02*
X45278100Y-91936900D01*
X51278100Y-97216900D02*
X51278100Y-91936900D01*
X45278100Y-97216900D02*
X51278100Y-97216900D01*
X41298400Y-32930800D02*
X41298400Y-31730800D01*
X45298400Y-32930800D02*
X41298400Y-32930800D01*
X41298400Y-28130800D02*
X43998400Y-28130800D01*
X41298400Y-29330800D02*
X41298400Y-28130800D01*
X9690640Y-29391760D02*
X9690640Y-28191760D01*
X9690640Y-28191760D02*
X12390640Y-28191760D01*
X13690640Y-32991760D02*
X9690640Y-32991760D01*
X9690640Y-32991760D02*
X9690640Y-31791760D01*
X17007300Y-63609100D02*
X18467300Y-63609100D01*
X17007300Y-66769100D02*
X19167300Y-66769100D01*
X17007300Y-66769100D02*
X17007300Y-65839100D01*
X17007300Y-63609100D02*
X17007300Y-64539100D01*
X50294000Y-62402600D02*
X50294000Y-63332600D01*
X50294000Y-65562600D02*
X50294000Y-64632600D01*
X50294000Y-65562600D02*
X52454000Y-65562600D01*
X50294000Y-62402600D02*
X51754000Y-62402600D01*
X18222520Y-31078060D02*
X17022520Y-31078060D01*
X17022520Y-29318060D02*
X18222520Y-29318060D01*
X17007280Y-31324660D02*
X18207280Y-31324660D01*
X18207280Y-33084660D02*
X17007280Y-33084660D01*
X48582020Y-29412040D02*
X49782020Y-29412040D01*
X49782020Y-31172040D02*
X48582020Y-31172040D01*
X48582020Y-31304340D02*
X49782020Y-31304340D01*
X49782020Y-33064340D02*
X48582020Y-33064340D01*
X14684900Y-58924900D02*
X14684900Y-60124900D01*
X12924900Y-60124900D02*
X12924900Y-58924900D01*
X23892400Y-58823300D02*
X23892400Y-60023300D01*
X22132400Y-60023300D02*
X22132400Y-58823300D01*
X16964100Y-59610100D02*
X18164100Y-59610100D01*
X18164100Y-61370100D02*
X16964100Y-61370100D01*
X20125800Y-60023300D02*
X20125800Y-58823300D01*
X21885800Y-58823300D02*
X21885800Y-60023300D01*
X3381900Y-26590700D02*
X3381900Y-27790700D01*
X1621900Y-27790700D02*
X1621900Y-26590700D01*
X6369200Y-17596000D02*
X6369200Y-19996000D01*
X8769200Y-17596000D02*
X8769200Y-19996000D01*
X12020400Y-17616320D02*
X12020400Y-20016320D01*
X9620400Y-17616320D02*
X9620400Y-20016320D01*
X15322400Y-17596000D02*
X15322400Y-19996000D01*
X12922400Y-17596000D02*
X12922400Y-19996000D01*
X16224400Y-17596000D02*
X16224400Y-19996000D01*
X18624400Y-17596000D02*
X18624400Y-19996000D01*
X15109900Y-10128360D02*
X16309900Y-10128360D01*
X16309900Y-11888360D02*
X15109900Y-11888360D01*
X52993400Y-66894000D02*
X52993400Y-65694000D01*
X54753400Y-65694000D02*
X54753400Y-66894000D01*
X46554500Y-58969200D02*
X46554500Y-57769200D01*
X48314500Y-57769200D02*
X48314500Y-58969200D01*
X55381000Y-58512000D02*
X55381000Y-57312000D01*
X57141000Y-57312000D02*
X57141000Y-58512000D01*
X51501600Y-60265200D02*
X50301600Y-60265200D01*
X50301600Y-58505200D02*
X51501600Y-58505200D01*
X53450600Y-58512000D02*
X53450600Y-57312000D01*
X55210600Y-57312000D02*
X55210600Y-58512000D01*
X32807200Y-28261200D02*
X31607200Y-28261200D01*
X31607200Y-26501200D02*
X32807200Y-26501200D01*
X40232180Y-17545200D02*
X40232180Y-19945200D01*
X37832180Y-17545200D02*
X37832180Y-19945200D01*
X41184980Y-17532500D02*
X41184980Y-19932500D01*
X43584980Y-17532500D02*
X43584980Y-19932500D01*
X50315980Y-17532500D02*
X50315980Y-19932500D01*
X47915980Y-17532500D02*
X47915980Y-19932500D01*
X44550480Y-17545200D02*
X44550480Y-19945200D01*
X46950480Y-17545200D02*
X46950480Y-19945200D01*
X39779500Y-11421000D02*
X38579500Y-11421000D01*
X38579500Y-9661000D02*
X39779500Y-9661000D01*
X34441020Y-15953180D02*
X34441020Y-17153180D01*
X32681020Y-17153180D02*
X32681020Y-15953180D01*
X34108500Y-39131800D02*
X34108500Y-37931800D01*
X35868500Y-37931800D02*
X35868500Y-39131800D01*
X32681020Y-22080780D02*
X32681020Y-20880780D01*
X34441020Y-20880780D02*
X34441020Y-22080780D01*
X31893400Y-36064900D02*
X31893400Y-37264900D01*
X30133400Y-37264900D02*
X30133400Y-36064900D01*
X27415600Y-37226800D02*
X27415600Y-36026800D01*
X29175600Y-36026800D02*
X29175600Y-37226800D01*
X46261202Y-88704858D02*
X46261202Y-87504858D01*
X48021202Y-87504858D02*
X48021202Y-88704858D01*
X55108400Y-89830800D02*
X53908400Y-89830800D01*
X53908400Y-88070800D02*
X55108400Y-88070800D01*
D12*
X21279880Y-23639600D02*
X21279880Y-25039600D01*
X26379880Y-23639600D02*
X26379880Y-19489600D01*
X21229880Y-23639600D02*
X21229880Y-19489600D01*
X26379880Y-23639600D02*
X26234880Y-23639600D01*
X26379880Y-19489600D02*
X26234880Y-19489600D01*
X21229880Y-19489600D02*
X21374880Y-19489600D01*
X21229880Y-23639600D02*
X21279880Y-23639600D01*
X52988286Y-23637886D02*
X52988286Y-25037886D01*
X58088286Y-23637886D02*
X58088286Y-19487886D01*
X52938286Y-23637886D02*
X52938286Y-19487886D01*
X58088286Y-23637886D02*
X57943286Y-23637886D01*
X58088286Y-19487886D02*
X57943286Y-19487886D01*
X52938286Y-19487886D02*
X53083286Y-19487886D01*
X52938286Y-23637886D02*
X52988286Y-23637886D01*
D11*
X29154500Y-40842300D02*
X30154500Y-40842300D01*
X30154500Y-39142300D02*
X29154500Y-39142300D01*
X5856860Y-85504920D02*
X4856860Y-85504920D01*
X4856860Y-87204920D02*
X5856860Y-87204920D01*
X33980000Y-33018000D02*
X33980000Y-31558000D01*
X37140000Y-33018000D02*
X37140000Y-30858000D01*
X37140000Y-33018000D02*
X36210000Y-33018000D01*
X33980000Y-33018000D02*
X34910000Y-33018000D01*
X17006020Y-26232120D02*
X17006020Y-22932120D01*
X17006020Y-22932120D02*
X10106020Y-22932120D01*
X17006020Y-26232120D02*
X10106020Y-26232120D01*
X48448680Y-26084800D02*
X41548680Y-26084800D01*
X48448680Y-22784800D02*
X41548680Y-22784800D01*
X48448680Y-26084800D02*
X48448680Y-22784800D01*
X56806400Y-80540100D02*
X56806400Y-77340100D01*
X58306400Y-77340100D02*
X58306400Y-80540100D01*
X58306400Y-77340100D02*
X56806400Y-77340100D01*
X51727800Y-80264900D02*
X50227800Y-80264900D01*
X51727800Y-80264900D02*
X51727800Y-83464900D01*
X50227800Y-83464900D02*
X50227800Y-80264900D01*
X3969260Y-70871520D02*
X1969260Y-70871520D01*
X1969260Y-70871520D02*
X1969260Y-74771520D01*
X3969260Y-70871520D02*
X3969260Y-74771520D01*
X6445760Y-70871520D02*
X6445760Y-74771520D01*
X4445760Y-70871520D02*
X4445760Y-74771520D01*
X6445760Y-70871520D02*
X4445760Y-70871520D01*
X18098200Y-80489700D02*
X16598200Y-80489700D01*
X18098200Y-80489700D02*
X18098200Y-83689700D01*
X16598200Y-83689700D02*
X16598200Y-80489700D01*
X12000800Y-79435200D02*
X12000800Y-76235200D01*
X13500800Y-76235200D02*
X13500800Y-79435200D01*
X13500800Y-76235200D02*
X12000800Y-76235200D01*
X37240100Y-84413800D02*
X37240100Y-85613800D01*
X35480100Y-85613800D02*
X35480100Y-84413800D01*
X55150900Y-76096400D02*
X56080900Y-76096400D01*
X58310900Y-76096400D02*
X57380900Y-76096400D01*
X58310900Y-76096400D02*
X58310900Y-73936400D01*
X55150900Y-76096400D02*
X55150900Y-74636400D01*
X48612900Y-78810900D02*
X48612900Y-77350900D01*
X51772900Y-78810900D02*
X51772900Y-76650900D01*
X51772900Y-78810900D02*
X50842900Y-78810900D01*
X48612900Y-78810900D02*
X49542900Y-78810900D01*
X16581000Y-79169800D02*
X17511000Y-79169800D01*
X19741000Y-79169800D02*
X18811000Y-79169800D01*
X19741000Y-79169800D02*
X19741000Y-77009800D01*
X16581000Y-79169800D02*
X16581000Y-77709800D01*
X11374000Y-75093100D02*
X11374000Y-73633100D01*
X14534000Y-75093100D02*
X14534000Y-72933100D01*
X14534000Y-75093100D02*
X13604000Y-75093100D01*
X11374000Y-75093100D02*
X12304000Y-75093100D01*
X58449100Y-70456500D02*
X58449100Y-71656500D01*
X56689100Y-71656500D02*
X56689100Y-70456500D01*
X58398300Y-83804200D02*
X58398300Y-85004200D01*
X56638300Y-85004200D02*
X56638300Y-83804200D01*
X51857800Y-86877600D02*
X51857800Y-88077600D01*
X50097800Y-88077600D02*
X50097800Y-86877600D01*
X49006200Y-74418300D02*
X50206200Y-74418300D01*
X50206200Y-76178300D02*
X49006200Y-76178300D01*
X50174000Y-72494700D02*
X50174000Y-71294700D01*
X51934000Y-71294700D02*
X51934000Y-72494700D01*
X18266300Y-73428300D02*
X18266300Y-74628300D01*
X16506300Y-74628300D02*
X16506300Y-73428300D01*
X18119800Y-85543500D02*
X19319800Y-85543500D01*
X19319800Y-87303500D02*
X18119800Y-87303500D01*
X11870800Y-83899300D02*
X11870800Y-82699300D01*
X13630800Y-82699300D02*
X13630800Y-83899300D01*
X13439700Y-72482600D02*
X12239700Y-72482600D01*
X12239700Y-70722600D02*
X13439700Y-70722600D01*
X12239700Y-68766800D02*
X13439700Y-68766800D01*
X13439700Y-70526800D02*
X12239700Y-70526800D01*
D12*
X21623500Y-43902400D02*
X21623500Y-42377400D01*
X11248500Y-43902400D02*
X11248500Y-51652400D01*
X21898500Y-43902400D02*
X21898500Y-51652400D01*
X11248500Y-43902400D02*
X11603500Y-43902400D01*
X11248500Y-51652400D02*
X11603500Y-51652400D01*
X21898500Y-51652400D02*
X21543500Y-51652400D01*
X21898500Y-43902400D02*
X21623500Y-43902400D01*
X57636300Y-43788100D02*
X57361300Y-43788100D01*
X57636300Y-51538100D02*
X57281300Y-51538100D01*
X46986300Y-51538100D02*
X47341300Y-51538100D01*
X46986300Y-43788100D02*
X47341300Y-43788100D01*
X57636300Y-43788100D02*
X57636300Y-51538100D01*
X46986300Y-43788100D02*
X46986300Y-51538100D01*
X57361300Y-43788100D02*
X57361300Y-42263100D01*
X7119440Y-84907040D02*
X7119440Y-84882040D01*
X2969440Y-84907040D02*
X2969440Y-84792040D01*
X2969440Y-76007040D02*
X2969440Y-76122040D01*
X7119440Y-76007040D02*
X7119440Y-76122040D01*
X7119440Y-84907040D02*
X2969440Y-84907040D01*
X7119440Y-76007040D02*
X2969440Y-76007040D01*
X7119440Y-84882040D02*
X8494440Y-84882040D01*
D11*
X15763800Y-37087700D02*
X14563800Y-37087700D01*
X14563800Y-35327700D02*
X15763800Y-35327700D01*
X49361800Y-35403900D02*
X50561800Y-35403900D01*
X50561800Y-37163900D02*
X49361800Y-37163900D01*
X33180000Y-74174200D02*
X33180000Y-75274200D01*
X33450000Y-74174200D02*
X33180000Y-74174200D01*
X33450000Y-72674200D02*
X33450000Y-74174200D01*
X26820000Y-74174200D02*
X26820000Y-77004200D01*
X26550000Y-74174200D02*
X26820000Y-74174200D01*
X26550000Y-72674200D02*
X26550000Y-74174200D01*
X27597400Y-44100400D02*
X26897400Y-44100400D01*
X26897400Y-44100400D02*
X26897400Y-51150400D01*
X26897400Y-51150400D02*
X27647400Y-51150400D01*
X32347400Y-51150400D02*
X33097400Y-51150400D01*
X33097400Y-51150400D02*
X33097400Y-44100400D01*
X33097400Y-44100400D02*
X32447400Y-44100400D01*
X32447400Y-44100400D02*
X32447400Y-41400400D01*
D12*
X19507400Y-94018100D02*
X18907400Y-94618100D01*
X18907400Y-93418100D02*
X19507400Y-94018100D01*
X18907400Y-94618100D02*
X18907400Y-93418100D01*
X18457400Y-88178100D02*
X18957400Y-88178100D01*
X18957400Y-88078100D02*
X18957400Y-88278100D01*
X18457400Y-88078100D02*
X18957400Y-88078100D01*
X18457400Y-88278100D02*
X18457400Y-88078100D01*
X41037400Y-88178100D02*
X41537400Y-88178100D01*
X41537400Y-88078100D02*
X41537400Y-88278100D01*
X41037400Y-88078100D02*
X41537400Y-88078100D01*
X41037400Y-88278100D02*
X41037400Y-88078100D01*
X29747400Y-88178100D02*
X30247400Y-88178100D01*
X30247400Y-88078100D02*
X30247400Y-88278100D01*
X29747400Y-88078100D02*
X30247400Y-88078100D01*
X29747400Y-88278100D02*
X29747400Y-88078100D01*
X32222400Y-95918100D02*
X32222400Y-97218100D01*
X42757400Y-95918100D02*
X32222400Y-95918100D01*
X42757400Y-89578100D02*
X42757400Y-95918100D01*
X17237400Y-89578100D02*
X42757400Y-89578100D01*
X17237400Y-95918100D02*
X17237400Y-89578100D01*
X27772400Y-95918100D02*
X17237400Y-95918100D01*
X27772400Y-97218100D02*
X27772400Y-95918100D01*
X43957400Y-97218100D02*
X16037400Y-97218100D01*
X43957400Y-88278100D02*
X43957400Y-97218100D01*
X16037400Y-88278100D02*
X43957400Y-88278100D01*
X16037400Y-97218100D02*
X16037400Y-88278100D01*
D13*
X449600Y-64289200D02*
X449600Y-62289200D01*
X449600Y-62289200D02*
X2649600Y-62289200D01*
D11*
X649600Y-69489200D02*
X5649600Y-69489200D01*
X5649600Y-69489200D02*
X5649600Y-62489200D01*
X5649600Y-62489200D02*
X649600Y-62489200D01*
X649600Y-62489200D02*
X649600Y-69489200D01*
X36362000Y-62032000D02*
X36362000Y-69032000D01*
X41362000Y-62032000D02*
X36362000Y-62032000D01*
X41362000Y-69032000D02*
X41362000Y-62032000D01*
X36362000Y-69032000D02*
X41362000Y-69032000D01*
D13*
X36162000Y-61832000D02*
X38362000Y-61832000D01*
X36162000Y-63832000D02*
X36162000Y-61832000D01*
D11*
X598800Y-57115600D02*
X10598800Y-57115600D01*
X598800Y-37375600D02*
X598800Y-57115600D01*
X10598800Y-37375600D02*
X598800Y-37375600D01*
X10598800Y-57115600D02*
X10598800Y-37375600D01*
D13*
X298800Y-57495600D02*
X298800Y-55465600D01*
X298800Y-57495600D02*
X2598800Y-57495600D01*
X35985800Y-57533700D02*
X38285800Y-57533700D01*
X35985800Y-57533700D02*
X35985800Y-55503700D01*
D11*
X46285800Y-57153700D02*
X46285800Y-37413700D01*
X46285800Y-37413700D02*
X36285800Y-37413700D01*
X36285800Y-37413700D02*
X36285800Y-57153700D01*
X36285800Y-57153700D02*
X46285800Y-57153700D01*
D12*
X39219142Y-84564457D02*
X39266761Y-84612076D01*
X39314380Y-84754933D01*
X39314380Y-84850171D01*
X39266761Y-84993028D01*
X39171523Y-85088266D01*
X39076285Y-85135885D01*
X38885809Y-85183504D01*
X38742952Y-85183504D01*
X38552476Y-85135885D01*
X38457238Y-85088266D01*
X38362000Y-84993028D01*
X38314380Y-84850171D01*
X38314380Y-84754933D01*
X38362000Y-84612076D01*
X38409619Y-84564457D01*
X38647714Y-83707314D02*
X39314380Y-83707314D01*
X38266761Y-83945409D02*
X38981047Y-84183504D01*
X38981047Y-83564457D01*
X38409619Y-83231123D02*
X38362000Y-83183504D01*
X38314380Y-83088266D01*
X38314380Y-82850171D01*
X38362000Y-82754933D01*
X38409619Y-82707314D01*
X38504857Y-82659695D01*
X38600095Y-82659695D01*
X38742952Y-82707314D01*
X39314380Y-83278742D01*
X39314380Y-82659695D01*
X22688280Y-67654466D02*
X22212090Y-67987800D01*
X22688280Y-68225895D02*
X21688280Y-68225895D01*
X21688280Y-67844942D01*
X21735900Y-67749704D01*
X21783519Y-67702085D01*
X21878757Y-67654466D01*
X22021614Y-67654466D01*
X22116852Y-67702085D01*
X22164471Y-67749704D01*
X22212090Y-67844942D01*
X22212090Y-68225895D01*
X21688280Y-66749704D02*
X21688280Y-67225895D01*
X22164471Y-67273514D01*
X22116852Y-67225895D01*
X22069233Y-67130657D01*
X22069233Y-66892561D01*
X22116852Y-66797323D01*
X22164471Y-66749704D01*
X22259709Y-66702085D01*
X22497804Y-66702085D01*
X22593042Y-66749704D01*
X22640661Y-66797323D01*
X22688280Y-66892561D01*
X22688280Y-67130657D01*
X22640661Y-67225895D01*
X22593042Y-67273514D01*
X23280642Y-69749966D02*
X23328261Y-69797585D01*
X23375880Y-69940442D01*
X23375880Y-70035680D01*
X23328261Y-70178538D01*
X23233023Y-70273776D01*
X23137785Y-70321395D01*
X22947309Y-70369014D01*
X22804452Y-70369014D01*
X22613976Y-70321395D01*
X22518738Y-70273776D01*
X22423500Y-70178538D01*
X22375880Y-70035680D01*
X22375880Y-69940442D01*
X22423500Y-69797585D01*
X22471119Y-69749966D01*
X23375880Y-68797585D02*
X23375880Y-69369014D01*
X23375880Y-69083300D02*
X22375880Y-69083300D01*
X22518738Y-69178538D01*
X22613976Y-69273776D01*
X22661595Y-69369014D01*
X25719042Y-71718466D02*
X25766661Y-71766085D01*
X25814280Y-71908942D01*
X25814280Y-72004180D01*
X25766661Y-72147038D01*
X25671423Y-72242276D01*
X25576185Y-72289895D01*
X25385709Y-72337514D01*
X25242852Y-72337514D01*
X25052376Y-72289895D01*
X24957138Y-72242276D01*
X24861900Y-72147038D01*
X24814280Y-72004180D01*
X24814280Y-71908942D01*
X24861900Y-71766085D01*
X24909519Y-71718466D01*
X24909519Y-71337514D02*
X24861900Y-71289895D01*
X24814280Y-71194657D01*
X24814280Y-70956561D01*
X24861900Y-70861323D01*
X24909519Y-70813704D01*
X25004757Y-70766085D01*
X25099995Y-70766085D01*
X25242852Y-70813704D01*
X25814280Y-71385133D01*
X25814280Y-70766085D01*
X34964642Y-71832766D02*
X35012261Y-71880385D01*
X35059880Y-72023242D01*
X35059880Y-72118480D01*
X35012261Y-72261338D01*
X34917023Y-72356576D01*
X34821785Y-72404195D01*
X34631309Y-72451814D01*
X34488452Y-72451814D01*
X34297976Y-72404195D01*
X34202738Y-72356576D01*
X34107500Y-72261338D01*
X34059880Y-72118480D01*
X34059880Y-72023242D01*
X34107500Y-71880385D01*
X34155119Y-71832766D01*
X34059880Y-71499433D02*
X34059880Y-70880385D01*
X34440833Y-71213719D01*
X34440833Y-71070861D01*
X34488452Y-70975623D01*
X34536071Y-70928004D01*
X34631309Y-70880385D01*
X34869404Y-70880385D01*
X34964642Y-70928004D01*
X35012261Y-70975623D01*
X35059880Y-71070861D01*
X35059880Y-71356576D01*
X35012261Y-71451814D01*
X34964642Y-71499433D01*
X36844242Y-71870866D02*
X36891861Y-71918485D01*
X36939480Y-72061342D01*
X36939480Y-72156580D01*
X36891861Y-72299438D01*
X36796623Y-72394676D01*
X36701385Y-72442295D01*
X36510909Y-72489914D01*
X36368052Y-72489914D01*
X36177576Y-72442295D01*
X36082338Y-72394676D01*
X35987100Y-72299438D01*
X35939480Y-72156580D01*
X35939480Y-72061342D01*
X35987100Y-71918485D01*
X36034719Y-71870866D01*
X36272814Y-71013723D02*
X36939480Y-71013723D01*
X35891861Y-71251819D02*
X36606147Y-71489914D01*
X36606147Y-70870866D01*
X6335733Y-61520342D02*
X6288114Y-61567961D01*
X6145257Y-61615580D01*
X6050019Y-61615580D01*
X5907161Y-61567961D01*
X5811923Y-61472723D01*
X5764304Y-61377485D01*
X5716685Y-61187009D01*
X5716685Y-61044152D01*
X5764304Y-60853676D01*
X5811923Y-60758438D01*
X5907161Y-60663200D01*
X6050019Y-60615580D01*
X6145257Y-60615580D01*
X6288114Y-60663200D01*
X6335733Y-60710819D01*
X7240495Y-60615580D02*
X6764304Y-60615580D01*
X6716685Y-61091771D01*
X6764304Y-61044152D01*
X6859542Y-60996533D01*
X7097638Y-60996533D01*
X7192876Y-61044152D01*
X7240495Y-61091771D01*
X7288114Y-61187009D01*
X7288114Y-61425104D01*
X7240495Y-61520342D01*
X7192876Y-61567961D01*
X7097638Y-61615580D01*
X6859542Y-61615580D01*
X6764304Y-61567961D01*
X6716685Y-61520342D01*
X6284933Y-59539142D02*
X6237314Y-59586761D01*
X6094457Y-59634380D01*
X5999219Y-59634380D01*
X5856361Y-59586761D01*
X5761123Y-59491523D01*
X5713504Y-59396285D01*
X5665885Y-59205809D01*
X5665885Y-59062952D01*
X5713504Y-58872476D01*
X5761123Y-58777238D01*
X5856361Y-58682000D01*
X5999219Y-58634380D01*
X6094457Y-58634380D01*
X6237314Y-58682000D01*
X6284933Y-58729619D01*
X7142076Y-58634380D02*
X6951600Y-58634380D01*
X6856361Y-58682000D01*
X6808742Y-58729619D01*
X6713504Y-58872476D01*
X6665885Y-59062952D01*
X6665885Y-59443904D01*
X6713504Y-59539142D01*
X6761123Y-59586761D01*
X6856361Y-59634380D01*
X7046838Y-59634380D01*
X7142076Y-59586761D01*
X7189695Y-59539142D01*
X7237314Y-59443904D01*
X7237314Y-59205809D01*
X7189695Y-59110571D01*
X7142076Y-59062952D01*
X7046838Y-59015333D01*
X6856361Y-59015333D01*
X6761123Y-59062952D01*
X6713504Y-59110571D01*
X6665885Y-59205809D01*
X4456133Y-35002742D02*
X4408514Y-35050361D01*
X4265657Y-35097980D01*
X4170419Y-35097980D01*
X4027561Y-35050361D01*
X3932323Y-34955123D01*
X3884704Y-34859885D01*
X3837085Y-34669409D01*
X3837085Y-34526552D01*
X3884704Y-34336076D01*
X3932323Y-34240838D01*
X4027561Y-34145600D01*
X4170419Y-34097980D01*
X4265657Y-34097980D01*
X4408514Y-34145600D01*
X4456133Y-34193219D01*
X4789466Y-34097980D02*
X5456133Y-34097980D01*
X5027561Y-35097980D01*
X7605733Y-34852942D02*
X7558114Y-34900561D01*
X7415257Y-34948180D01*
X7320019Y-34948180D01*
X7177161Y-34900561D01*
X7081923Y-34805323D01*
X7034304Y-34710085D01*
X6986685Y-34519609D01*
X6986685Y-34376752D01*
X7034304Y-34186276D01*
X7081923Y-34091038D01*
X7177161Y-33995800D01*
X7320019Y-33948180D01*
X7415257Y-33948180D01*
X7558114Y-33995800D01*
X7605733Y-34043419D01*
X8177161Y-34376752D02*
X8081923Y-34329133D01*
X8034304Y-34281514D01*
X7986685Y-34186276D01*
X7986685Y-34138657D01*
X8034304Y-34043419D01*
X8081923Y-33995800D01*
X8177161Y-33948180D01*
X8367638Y-33948180D01*
X8462876Y-33995800D01*
X8510495Y-34043419D01*
X8558114Y-34138657D01*
X8558114Y-34186276D01*
X8510495Y-34281514D01*
X8462876Y-34329133D01*
X8367638Y-34376752D01*
X8177161Y-34376752D01*
X8081923Y-34424371D01*
X8034304Y-34471990D01*
X7986685Y-34567228D01*
X7986685Y-34757704D01*
X8034304Y-34852942D01*
X8081923Y-34900561D01*
X8177161Y-34948180D01*
X8367638Y-34948180D01*
X8462876Y-34900561D01*
X8510495Y-34852942D01*
X8558114Y-34757704D01*
X8558114Y-34567228D01*
X8510495Y-34471990D01*
X8462876Y-34424371D01*
X8367638Y-34376752D01*
X20734993Y-28627342D02*
X20687374Y-28674961D01*
X20544517Y-28722580D01*
X20449279Y-28722580D01*
X20306421Y-28674961D01*
X20211183Y-28579723D01*
X20163564Y-28484485D01*
X20115945Y-28294009D01*
X20115945Y-28151152D01*
X20163564Y-27960676D01*
X20211183Y-27865438D01*
X20306421Y-27770200D01*
X20449279Y-27722580D01*
X20544517Y-27722580D01*
X20687374Y-27770200D01*
X20734993Y-27817819D01*
X21211183Y-28722580D02*
X21401660Y-28722580D01*
X21496898Y-28674961D01*
X21544517Y-28627342D01*
X21639755Y-28484485D01*
X21687374Y-28294009D01*
X21687374Y-27913057D01*
X21639755Y-27817819D01*
X21592136Y-27770200D01*
X21496898Y-27722580D01*
X21306421Y-27722580D01*
X21211183Y-27770200D01*
X21163564Y-27817819D01*
X21115945Y-27913057D01*
X21115945Y-28151152D01*
X21163564Y-28246390D01*
X21211183Y-28294009D01*
X21306421Y-28341628D01*
X21496898Y-28341628D01*
X21592136Y-28294009D01*
X21639755Y-28246390D01*
X21687374Y-28151152D01*
X41876742Y-59031142D02*
X41829123Y-59078761D01*
X41686266Y-59126380D01*
X41591028Y-59126380D01*
X41448171Y-59078761D01*
X41352933Y-58983523D01*
X41305314Y-58888285D01*
X41257695Y-58697809D01*
X41257695Y-58554952D01*
X41305314Y-58364476D01*
X41352933Y-58269238D01*
X41448171Y-58174000D01*
X41591028Y-58126380D01*
X41686266Y-58126380D01*
X41829123Y-58174000D01*
X41876742Y-58221619D01*
X42829123Y-59126380D02*
X42257695Y-59126380D01*
X42543409Y-59126380D02*
X42543409Y-58126380D01*
X42448171Y-58269238D01*
X42352933Y-58364476D01*
X42257695Y-58412095D01*
X43448171Y-58126380D02*
X43543409Y-58126380D01*
X43638647Y-58174000D01*
X43686266Y-58221619D01*
X43733885Y-58316857D01*
X43781504Y-58507333D01*
X43781504Y-58745428D01*
X43733885Y-58935904D01*
X43686266Y-59031142D01*
X43638647Y-59078761D01*
X43543409Y-59126380D01*
X43448171Y-59126380D01*
X43352933Y-59078761D01*
X43305314Y-59031142D01*
X43257695Y-58935904D01*
X43210076Y-58745428D01*
X43210076Y-58507333D01*
X43257695Y-58316857D01*
X43305314Y-58221619D01*
X43352933Y-58174000D01*
X43448171Y-58126380D01*
X41825942Y-61113942D02*
X41778323Y-61161561D01*
X41635466Y-61209180D01*
X41540228Y-61209180D01*
X41397371Y-61161561D01*
X41302133Y-61066323D01*
X41254514Y-60971085D01*
X41206895Y-60780609D01*
X41206895Y-60637752D01*
X41254514Y-60447276D01*
X41302133Y-60352038D01*
X41397371Y-60256800D01*
X41540228Y-60209180D01*
X41635466Y-60209180D01*
X41778323Y-60256800D01*
X41825942Y-60304419D01*
X42778323Y-61209180D02*
X42206895Y-61209180D01*
X42492609Y-61209180D02*
X42492609Y-60209180D01*
X42397371Y-60352038D01*
X42302133Y-60447276D01*
X42206895Y-60494895D01*
X43730704Y-61209180D02*
X43159276Y-61209180D01*
X43444990Y-61209180D02*
X43444990Y-60209180D01*
X43349752Y-60352038D01*
X43254514Y-60447276D01*
X43159276Y-60494895D01*
X38193742Y-35002742D02*
X38146123Y-35050361D01*
X38003266Y-35097980D01*
X37908028Y-35097980D01*
X37765171Y-35050361D01*
X37669933Y-34955123D01*
X37622314Y-34859885D01*
X37574695Y-34669409D01*
X37574695Y-34526552D01*
X37622314Y-34336076D01*
X37669933Y-34240838D01*
X37765171Y-34145600D01*
X37908028Y-34097980D01*
X38003266Y-34097980D01*
X38146123Y-34145600D01*
X38193742Y-34193219D01*
X39146123Y-35097980D02*
X38574695Y-35097980D01*
X38860409Y-35097980D02*
X38860409Y-34097980D01*
X38765171Y-34240838D01*
X38669933Y-34336076D01*
X38574695Y-34383695D01*
X39527076Y-34193219D02*
X39574695Y-34145600D01*
X39669933Y-34097980D01*
X39908028Y-34097980D01*
X40003266Y-34145600D01*
X40050885Y-34193219D01*
X40098504Y-34288457D01*
X40098504Y-34383695D01*
X40050885Y-34526552D01*
X39479457Y-35097980D01*
X40098504Y-35097980D01*
X42890202Y-34954482D02*
X42842583Y-35002101D01*
X42699726Y-35049720D01*
X42604488Y-35049720D01*
X42461631Y-35002101D01*
X42366393Y-34906863D01*
X42318774Y-34811625D01*
X42271155Y-34621149D01*
X42271155Y-34478292D01*
X42318774Y-34287816D01*
X42366393Y-34192578D01*
X42461631Y-34097340D01*
X42604488Y-34049720D01*
X42699726Y-34049720D01*
X42842583Y-34097340D01*
X42890202Y-34144959D01*
X43842583Y-35049720D02*
X43271155Y-35049720D01*
X43556869Y-35049720D02*
X43556869Y-34049720D01*
X43461631Y-34192578D01*
X43366393Y-34287816D01*
X43271155Y-34335435D01*
X44175917Y-34049720D02*
X44794964Y-34049720D01*
X44461631Y-34430673D01*
X44604488Y-34430673D01*
X44699726Y-34478292D01*
X44747345Y-34525911D01*
X44794964Y-34621149D01*
X44794964Y-34859244D01*
X44747345Y-34954482D01*
X44699726Y-35002101D01*
X44604488Y-35049720D01*
X44318774Y-35049720D01*
X44223536Y-35002101D01*
X44175917Y-34954482D01*
X49649142Y-27128742D02*
X49601523Y-27176361D01*
X49458666Y-27223980D01*
X49363428Y-27223980D01*
X49220571Y-27176361D01*
X49125333Y-27081123D01*
X49077714Y-26985885D01*
X49030095Y-26795409D01*
X49030095Y-26652552D01*
X49077714Y-26462076D01*
X49125333Y-26366838D01*
X49220571Y-26271600D01*
X49363428Y-26223980D01*
X49458666Y-26223980D01*
X49601523Y-26271600D01*
X49649142Y-26319219D01*
X50601523Y-27223980D02*
X50030095Y-27223980D01*
X50315809Y-27223980D02*
X50315809Y-26223980D01*
X50220571Y-26366838D01*
X50125333Y-26462076D01*
X50030095Y-26509695D01*
X51458666Y-26557314D02*
X51458666Y-27223980D01*
X51220571Y-26176361D02*
X50982476Y-26890647D01*
X51601523Y-26890647D01*
X16959342Y-57027142D02*
X16911723Y-57074761D01*
X16768866Y-57122380D01*
X16673628Y-57122380D01*
X16530771Y-57074761D01*
X16435533Y-56979523D01*
X16387914Y-56884285D01*
X16340295Y-56693809D01*
X16340295Y-56550952D01*
X16387914Y-56360476D01*
X16435533Y-56265238D01*
X16530771Y-56170000D01*
X16673628Y-56122380D01*
X16768866Y-56122380D01*
X16911723Y-56170000D01*
X16959342Y-56217619D01*
X17911723Y-57122380D02*
X17340295Y-57122380D01*
X17626009Y-57122380D02*
X17626009Y-56122380D01*
X17530771Y-56265238D01*
X17435533Y-56360476D01*
X17340295Y-56408095D01*
X18816485Y-56122380D02*
X18340295Y-56122380D01*
X18292676Y-56598571D01*
X18340295Y-56550952D01*
X18435533Y-56503333D01*
X18673628Y-56503333D01*
X18768866Y-56550952D01*
X18816485Y-56598571D01*
X18864104Y-56693809D01*
X18864104Y-56931904D01*
X18816485Y-57027142D01*
X18768866Y-57074761D01*
X18673628Y-57122380D01*
X18435533Y-57122380D01*
X18340295Y-57074761D01*
X18292676Y-57027142D01*
X25325342Y-63914257D02*
X25372961Y-63961876D01*
X25420580Y-64104733D01*
X25420580Y-64199971D01*
X25372961Y-64342828D01*
X25277723Y-64438066D01*
X25182485Y-64485685D01*
X24992009Y-64533304D01*
X24849152Y-64533304D01*
X24658676Y-64485685D01*
X24563438Y-64438066D01*
X24468200Y-64342828D01*
X24420580Y-64199971D01*
X24420580Y-64104733D01*
X24468200Y-63961876D01*
X24515819Y-63914257D01*
X25420580Y-62961876D02*
X25420580Y-63533304D01*
X25420580Y-63247590D02*
X24420580Y-63247590D01*
X24563438Y-63342828D01*
X24658676Y-63438066D01*
X24706295Y-63533304D01*
X24420580Y-62104733D02*
X24420580Y-62295209D01*
X24468200Y-62390447D01*
X24515819Y-62438066D01*
X24658676Y-62533304D01*
X24849152Y-62580923D01*
X25230104Y-62580923D01*
X25325342Y-62533304D01*
X25372961Y-62485685D01*
X25420580Y-62390447D01*
X25420580Y-62199971D01*
X25372961Y-62104733D01*
X25325342Y-62057114D01*
X25230104Y-62009495D01*
X24992009Y-62009495D01*
X24896771Y-62057114D01*
X24849152Y-62104733D01*
X24801533Y-62199971D01*
X24801533Y-62390447D01*
X24849152Y-62485685D01*
X24896771Y-62533304D01*
X24992009Y-62580923D01*
X19207242Y-34990042D02*
X19159623Y-35037661D01*
X19016766Y-35085280D01*
X18921528Y-35085280D01*
X18778671Y-35037661D01*
X18683433Y-34942423D01*
X18635814Y-34847185D01*
X18588195Y-34656709D01*
X18588195Y-34513852D01*
X18635814Y-34323376D01*
X18683433Y-34228138D01*
X18778671Y-34132900D01*
X18921528Y-34085280D01*
X19016766Y-34085280D01*
X19159623Y-34132900D01*
X19207242Y-34180519D01*
X20159623Y-35085280D02*
X19588195Y-35085280D01*
X19873909Y-35085280D02*
X19873909Y-34085280D01*
X19778671Y-34228138D01*
X19683433Y-34323376D01*
X19588195Y-34370995D01*
X20492957Y-34085280D02*
X21159623Y-34085280D01*
X20731052Y-35085280D01*
X14647942Y-40232542D02*
X14600323Y-40280161D01*
X14457466Y-40327780D01*
X14362228Y-40327780D01*
X14219371Y-40280161D01*
X14124133Y-40184923D01*
X14076514Y-40089685D01*
X14028895Y-39899209D01*
X14028895Y-39756352D01*
X14076514Y-39565876D01*
X14124133Y-39470638D01*
X14219371Y-39375400D01*
X14362228Y-39327780D01*
X14457466Y-39327780D01*
X14600323Y-39375400D01*
X14647942Y-39423019D01*
X15600323Y-40327780D02*
X15028895Y-40327780D01*
X15314609Y-40327780D02*
X15314609Y-39327780D01*
X15219371Y-39470638D01*
X15124133Y-39565876D01*
X15028895Y-39613495D01*
X16171752Y-39756352D02*
X16076514Y-39708733D01*
X16028895Y-39661114D01*
X15981276Y-39565876D01*
X15981276Y-39518257D01*
X16028895Y-39423019D01*
X16076514Y-39375400D01*
X16171752Y-39327780D01*
X16362228Y-39327780D01*
X16457466Y-39375400D01*
X16505085Y-39423019D01*
X16552704Y-39518257D01*
X16552704Y-39565876D01*
X16505085Y-39661114D01*
X16457466Y-39708733D01*
X16362228Y-39756352D01*
X16171752Y-39756352D01*
X16076514Y-39803971D01*
X16028895Y-39851590D01*
X15981276Y-39946828D01*
X15981276Y-40137304D01*
X16028895Y-40232542D01*
X16076514Y-40280161D01*
X16171752Y-40327780D01*
X16362228Y-40327780D01*
X16457466Y-40280161D01*
X16505085Y-40232542D01*
X16552704Y-40137304D01*
X16552704Y-39946828D01*
X16505085Y-39851590D01*
X16457466Y-39803971D01*
X16362228Y-39756352D01*
X19212642Y-40232542D02*
X19165023Y-40280161D01*
X19022166Y-40327780D01*
X18926928Y-40327780D01*
X18784071Y-40280161D01*
X18688833Y-40184923D01*
X18641214Y-40089685D01*
X18593595Y-39899209D01*
X18593595Y-39756352D01*
X18641214Y-39565876D01*
X18688833Y-39470638D01*
X18784071Y-39375400D01*
X18926928Y-39327780D01*
X19022166Y-39327780D01*
X19165023Y-39375400D01*
X19212642Y-39423019D01*
X20165023Y-40327780D02*
X19593595Y-40327780D01*
X19879309Y-40327780D02*
X19879309Y-39327780D01*
X19784071Y-39470638D01*
X19688833Y-39565876D01*
X19593595Y-39613495D01*
X20641214Y-40327780D02*
X20831690Y-40327780D01*
X20926928Y-40280161D01*
X20974547Y-40232542D01*
X21069785Y-40089685D01*
X21117404Y-39899209D01*
X21117404Y-39518257D01*
X21069785Y-39423019D01*
X21022166Y-39375400D01*
X20926928Y-39327780D01*
X20736452Y-39327780D01*
X20641214Y-39375400D01*
X20593595Y-39423019D01*
X20545976Y-39518257D01*
X20545976Y-39756352D01*
X20593595Y-39851590D01*
X20641214Y-39899209D01*
X20736452Y-39946828D01*
X20926928Y-39946828D01*
X21022166Y-39899209D01*
X21069785Y-39851590D01*
X21117404Y-39756352D01*
X23893542Y-27128742D02*
X23845923Y-27176361D01*
X23703066Y-27223980D01*
X23607828Y-27223980D01*
X23464971Y-27176361D01*
X23369733Y-27081123D01*
X23322114Y-26985885D01*
X23274495Y-26795409D01*
X23274495Y-26652552D01*
X23322114Y-26462076D01*
X23369733Y-26366838D01*
X23464971Y-26271600D01*
X23607828Y-26223980D01*
X23703066Y-26223980D01*
X23845923Y-26271600D01*
X23893542Y-26319219D01*
X24274495Y-26319219D02*
X24322114Y-26271600D01*
X24417352Y-26223980D01*
X24655447Y-26223980D01*
X24750685Y-26271600D01*
X24798304Y-26319219D01*
X24845923Y-26414457D01*
X24845923Y-26509695D01*
X24798304Y-26652552D01*
X24226876Y-27223980D01*
X24845923Y-27223980D01*
X25464971Y-26223980D02*
X25560209Y-26223980D01*
X25655447Y-26271600D01*
X25703066Y-26319219D01*
X25750685Y-26414457D01*
X25798304Y-26604933D01*
X25798304Y-26843028D01*
X25750685Y-27033504D01*
X25703066Y-27128742D01*
X25655447Y-27176361D01*
X25560209Y-27223980D01*
X25464971Y-27223980D01*
X25369733Y-27176361D01*
X25322114Y-27128742D01*
X25274495Y-27033504D01*
X25226876Y-26843028D01*
X25226876Y-26604933D01*
X25274495Y-26414457D01*
X25322114Y-26319219D01*
X25369733Y-26271600D01*
X25464971Y-26223980D01*
X20362182Y-16964897D02*
X20409801Y-17012516D01*
X20457420Y-17155373D01*
X20457420Y-17250611D01*
X20409801Y-17393468D01*
X20314563Y-17488706D01*
X20219325Y-17536325D01*
X20028849Y-17583944D01*
X19885992Y-17583944D01*
X19695516Y-17536325D01*
X19600278Y-17488706D01*
X19505040Y-17393468D01*
X19457420Y-17250611D01*
X19457420Y-17155373D01*
X19505040Y-17012516D01*
X19552659Y-16964897D01*
X19552659Y-16583944D02*
X19505040Y-16536325D01*
X19457420Y-16441087D01*
X19457420Y-16202992D01*
X19505040Y-16107754D01*
X19552659Y-16060135D01*
X19647897Y-16012516D01*
X19743135Y-16012516D01*
X19885992Y-16060135D01*
X20457420Y-16631563D01*
X20457420Y-16012516D01*
X20457420Y-15060135D02*
X20457420Y-15631563D01*
X20457420Y-15345849D02*
X19457420Y-15345849D01*
X19600278Y-15441087D01*
X19695516Y-15536325D01*
X19743135Y-15631563D01*
X19448542Y-9475742D02*
X19400923Y-9523361D01*
X19258066Y-9570980D01*
X19162828Y-9570980D01*
X19019971Y-9523361D01*
X18924733Y-9428123D01*
X18877114Y-9332885D01*
X18829495Y-9142409D01*
X18829495Y-8999552D01*
X18877114Y-8809076D01*
X18924733Y-8713838D01*
X19019971Y-8618600D01*
X19162828Y-8570980D01*
X19258066Y-8570980D01*
X19400923Y-8618600D01*
X19448542Y-8666219D01*
X19829495Y-8666219D02*
X19877114Y-8618600D01*
X19972352Y-8570980D01*
X20210447Y-8570980D01*
X20305685Y-8618600D01*
X20353304Y-8666219D01*
X20400923Y-8761457D01*
X20400923Y-8856695D01*
X20353304Y-8999552D01*
X19781876Y-9570980D01*
X20400923Y-9570980D01*
X20781876Y-8666219D02*
X20829495Y-8618600D01*
X20924733Y-8570980D01*
X21162828Y-8570980D01*
X21258066Y-8618600D01*
X21305685Y-8666219D01*
X21353304Y-8761457D01*
X21353304Y-8856695D01*
X21305685Y-8999552D01*
X20734257Y-9570980D01*
X21353304Y-9570980D01*
X19486642Y-11368042D02*
X19439023Y-11415661D01*
X19296166Y-11463280D01*
X19200928Y-11463280D01*
X19058071Y-11415661D01*
X18962833Y-11320423D01*
X18915214Y-11225185D01*
X18867595Y-11034709D01*
X18867595Y-10891852D01*
X18915214Y-10701376D01*
X18962833Y-10606138D01*
X19058071Y-10510900D01*
X19200928Y-10463280D01*
X19296166Y-10463280D01*
X19439023Y-10510900D01*
X19486642Y-10558519D01*
X19867595Y-10558519D02*
X19915214Y-10510900D01*
X20010452Y-10463280D01*
X20248547Y-10463280D01*
X20343785Y-10510900D01*
X20391404Y-10558519D01*
X20439023Y-10653757D01*
X20439023Y-10748995D01*
X20391404Y-10891852D01*
X19819976Y-11463280D01*
X20439023Y-11463280D01*
X20772357Y-10463280D02*
X21391404Y-10463280D01*
X21058071Y-10844233D01*
X21200928Y-10844233D01*
X21296166Y-10891852D01*
X21343785Y-10939471D01*
X21391404Y-11034709D01*
X21391404Y-11272804D01*
X21343785Y-11368042D01*
X21296166Y-11415661D01*
X21200928Y-11463280D01*
X20915214Y-11463280D01*
X20819976Y-11415661D01*
X20772357Y-11368042D01*
X20362182Y-14226777D02*
X20409801Y-14274396D01*
X20457420Y-14417253D01*
X20457420Y-14512491D01*
X20409801Y-14655348D01*
X20314563Y-14750586D01*
X20219325Y-14798205D01*
X20028849Y-14845824D01*
X19885992Y-14845824D01*
X19695516Y-14798205D01*
X19600278Y-14750586D01*
X19505040Y-14655348D01*
X19457420Y-14512491D01*
X19457420Y-14417253D01*
X19505040Y-14274396D01*
X19552659Y-14226777D01*
X19552659Y-13845824D02*
X19505040Y-13798205D01*
X19457420Y-13702967D01*
X19457420Y-13464872D01*
X19505040Y-13369634D01*
X19552659Y-13322015D01*
X19647897Y-13274396D01*
X19743135Y-13274396D01*
X19885992Y-13322015D01*
X20457420Y-13893443D01*
X20457420Y-13274396D01*
X19790754Y-12417253D02*
X20457420Y-12417253D01*
X19409801Y-12655348D02*
X20124087Y-12893443D01*
X20124087Y-12274396D01*
X11470402Y-9437642D02*
X11422783Y-9485261D01*
X11279926Y-9532880D01*
X11184688Y-9532880D01*
X11041831Y-9485261D01*
X10946593Y-9390023D01*
X10898974Y-9294785D01*
X10851355Y-9104309D01*
X10851355Y-8961452D01*
X10898974Y-8770976D01*
X10946593Y-8675738D01*
X11041831Y-8580500D01*
X11184688Y-8532880D01*
X11279926Y-8532880D01*
X11422783Y-8580500D01*
X11470402Y-8628119D01*
X11851355Y-8628119D02*
X11898974Y-8580500D01*
X11994212Y-8532880D01*
X12232307Y-8532880D01*
X12327545Y-8580500D01*
X12375164Y-8628119D01*
X12422783Y-8723357D01*
X12422783Y-8818595D01*
X12375164Y-8961452D01*
X11803736Y-9532880D01*
X12422783Y-9532880D01*
X13327545Y-8532880D02*
X12851355Y-8532880D01*
X12803736Y-9009071D01*
X12851355Y-8961452D01*
X12946593Y-8913833D01*
X13184688Y-8913833D01*
X13279926Y-8961452D01*
X13327545Y-9009071D01*
X13375164Y-9104309D01*
X13375164Y-9342404D01*
X13327545Y-9437642D01*
X13279926Y-9485261D01*
X13184688Y-9532880D01*
X12946593Y-9532880D01*
X12851355Y-9485261D01*
X12803736Y-9437642D01*
X50309542Y-56224442D02*
X50261923Y-56272061D01*
X50119066Y-56319680D01*
X50023828Y-56319680D01*
X49880971Y-56272061D01*
X49785733Y-56176823D01*
X49738114Y-56081585D01*
X49690495Y-55891109D01*
X49690495Y-55748252D01*
X49738114Y-55557776D01*
X49785733Y-55462538D01*
X49880971Y-55367300D01*
X50023828Y-55319680D01*
X50119066Y-55319680D01*
X50261923Y-55367300D01*
X50309542Y-55414919D01*
X50690495Y-55414919D02*
X50738114Y-55367300D01*
X50833352Y-55319680D01*
X51071447Y-55319680D01*
X51166685Y-55367300D01*
X51214304Y-55414919D01*
X51261923Y-55510157D01*
X51261923Y-55605395D01*
X51214304Y-55748252D01*
X50642876Y-56319680D01*
X51261923Y-56319680D01*
X52119066Y-55319680D02*
X51928590Y-55319680D01*
X51833352Y-55367300D01*
X51785733Y-55414919D01*
X51690495Y-55557776D01*
X51642876Y-55748252D01*
X51642876Y-56129204D01*
X51690495Y-56224442D01*
X51738114Y-56272061D01*
X51833352Y-56319680D01*
X52023828Y-56319680D01*
X52119066Y-56272061D01*
X52166685Y-56224442D01*
X52214304Y-56129204D01*
X52214304Y-55891109D01*
X52166685Y-55795871D01*
X52119066Y-55748252D01*
X52023828Y-55700633D01*
X51833352Y-55700633D01*
X51738114Y-55748252D01*
X51690495Y-55795871D01*
X51642876Y-55891109D01*
X58599342Y-62415657D02*
X58646961Y-62463276D01*
X58694580Y-62606133D01*
X58694580Y-62701371D01*
X58646961Y-62844228D01*
X58551723Y-62939466D01*
X58456485Y-62987085D01*
X58266009Y-63034704D01*
X58123152Y-63034704D01*
X57932676Y-62987085D01*
X57837438Y-62939466D01*
X57742200Y-62844228D01*
X57694580Y-62701371D01*
X57694580Y-62606133D01*
X57742200Y-62463276D01*
X57789819Y-62415657D01*
X57789819Y-62034704D02*
X57742200Y-61987085D01*
X57694580Y-61891847D01*
X57694580Y-61653752D01*
X57742200Y-61558514D01*
X57789819Y-61510895D01*
X57885057Y-61463276D01*
X57980295Y-61463276D01*
X58123152Y-61510895D01*
X58694580Y-62082323D01*
X58694580Y-61463276D01*
X57694580Y-61129942D02*
X57694580Y-60463276D01*
X58694580Y-60891847D01*
X54017942Y-34913842D02*
X53970323Y-34961461D01*
X53827466Y-35009080D01*
X53732228Y-35009080D01*
X53589371Y-34961461D01*
X53494133Y-34866223D01*
X53446514Y-34770985D01*
X53398895Y-34580509D01*
X53398895Y-34437652D01*
X53446514Y-34247176D01*
X53494133Y-34151938D01*
X53589371Y-34056700D01*
X53732228Y-34009080D01*
X53827466Y-34009080D01*
X53970323Y-34056700D01*
X54017942Y-34104319D01*
X54398895Y-34104319D02*
X54446514Y-34056700D01*
X54541752Y-34009080D01*
X54779847Y-34009080D01*
X54875085Y-34056700D01*
X54922704Y-34104319D01*
X54970323Y-34199557D01*
X54970323Y-34294795D01*
X54922704Y-34437652D01*
X54351276Y-35009080D01*
X54970323Y-35009080D01*
X55541752Y-34437652D02*
X55446514Y-34390033D01*
X55398895Y-34342414D01*
X55351276Y-34247176D01*
X55351276Y-34199557D01*
X55398895Y-34104319D01*
X55446514Y-34056700D01*
X55541752Y-34009080D01*
X55732228Y-34009080D01*
X55827466Y-34056700D01*
X55875085Y-34104319D01*
X55922704Y-34199557D01*
X55922704Y-34247176D01*
X55875085Y-34342414D01*
X55827466Y-34390033D01*
X55732228Y-34437652D01*
X55541752Y-34437652D01*
X55446514Y-34485271D01*
X55398895Y-34532890D01*
X55351276Y-34628128D01*
X55351276Y-34818604D01*
X55398895Y-34913842D01*
X55446514Y-34961461D01*
X55541752Y-35009080D01*
X55732228Y-35009080D01*
X55827466Y-34961461D01*
X55875085Y-34913842D01*
X55922704Y-34818604D01*
X55922704Y-34628128D01*
X55875085Y-34532890D01*
X55827466Y-34485271D01*
X55732228Y-34437652D01*
X49458642Y-40400242D02*
X49411023Y-40447861D01*
X49268166Y-40495480D01*
X49172928Y-40495480D01*
X49030071Y-40447861D01*
X48934833Y-40352623D01*
X48887214Y-40257385D01*
X48839595Y-40066909D01*
X48839595Y-39924052D01*
X48887214Y-39733576D01*
X48934833Y-39638338D01*
X49030071Y-39543100D01*
X49172928Y-39495480D01*
X49268166Y-39495480D01*
X49411023Y-39543100D01*
X49458642Y-39590719D01*
X49839595Y-39590719D02*
X49887214Y-39543100D01*
X49982452Y-39495480D01*
X50220547Y-39495480D01*
X50315785Y-39543100D01*
X50363404Y-39590719D01*
X50411023Y-39685957D01*
X50411023Y-39781195D01*
X50363404Y-39924052D01*
X49791976Y-40495480D01*
X50411023Y-40495480D01*
X50887214Y-40495480D02*
X51077690Y-40495480D01*
X51172928Y-40447861D01*
X51220547Y-40400242D01*
X51315785Y-40257385D01*
X51363404Y-40066909D01*
X51363404Y-39685957D01*
X51315785Y-39590719D01*
X51268166Y-39543100D01*
X51172928Y-39495480D01*
X50982452Y-39495480D01*
X50887214Y-39543100D01*
X50839595Y-39590719D01*
X50791976Y-39685957D01*
X50791976Y-39924052D01*
X50839595Y-40019290D01*
X50887214Y-40066909D01*
X50982452Y-40114528D01*
X51172928Y-40114528D01*
X51268166Y-40066909D01*
X51315785Y-40019290D01*
X51363404Y-39924052D01*
X54112242Y-40324042D02*
X54064623Y-40371661D01*
X53921766Y-40419280D01*
X53826528Y-40419280D01*
X53683671Y-40371661D01*
X53588433Y-40276423D01*
X53540814Y-40181185D01*
X53493195Y-39990709D01*
X53493195Y-39847852D01*
X53540814Y-39657376D01*
X53588433Y-39562138D01*
X53683671Y-39466900D01*
X53826528Y-39419280D01*
X53921766Y-39419280D01*
X54064623Y-39466900D01*
X54112242Y-39514519D01*
X54445576Y-39419280D02*
X55064623Y-39419280D01*
X54731290Y-39800233D01*
X54874147Y-39800233D01*
X54969385Y-39847852D01*
X55017004Y-39895471D01*
X55064623Y-39990709D01*
X55064623Y-40228804D01*
X55017004Y-40324042D01*
X54969385Y-40371661D01*
X54874147Y-40419280D01*
X54588433Y-40419280D01*
X54493195Y-40371661D01*
X54445576Y-40324042D01*
X55683671Y-39419280D02*
X55778909Y-39419280D01*
X55874147Y-39466900D01*
X55921766Y-39514519D01*
X55969385Y-39609757D01*
X56017004Y-39800233D01*
X56017004Y-40038328D01*
X55969385Y-40228804D01*
X55921766Y-40324042D01*
X55874147Y-40371661D01*
X55778909Y-40419280D01*
X55683671Y-40419280D01*
X55588433Y-40371661D01*
X55540814Y-40324042D01*
X55493195Y-40228804D01*
X55445576Y-40038328D01*
X55445576Y-39800233D01*
X55493195Y-39609757D01*
X55540814Y-39514519D01*
X55588433Y-39466900D01*
X55683671Y-39419280D01*
X56100742Y-26620742D02*
X56053123Y-26668361D01*
X55910266Y-26715980D01*
X55815028Y-26715980D01*
X55672171Y-26668361D01*
X55576933Y-26573123D01*
X55529314Y-26477885D01*
X55481695Y-26287409D01*
X55481695Y-26144552D01*
X55529314Y-25954076D01*
X55576933Y-25858838D01*
X55672171Y-25763600D01*
X55815028Y-25715980D01*
X55910266Y-25715980D01*
X56053123Y-25763600D01*
X56100742Y-25811219D01*
X56434076Y-25715980D02*
X57053123Y-25715980D01*
X56719790Y-26096933D01*
X56862647Y-26096933D01*
X56957885Y-26144552D01*
X57005504Y-26192171D01*
X57053123Y-26287409D01*
X57053123Y-26525504D01*
X57005504Y-26620742D01*
X56957885Y-26668361D01*
X56862647Y-26715980D01*
X56576933Y-26715980D01*
X56481695Y-26668361D01*
X56434076Y-26620742D01*
X58005504Y-26715980D02*
X57434076Y-26715980D01*
X57719790Y-26715980D02*
X57719790Y-25715980D01*
X57624552Y-25858838D01*
X57529314Y-25954076D01*
X57434076Y-26001695D01*
X52112182Y-17229057D02*
X52159801Y-17276676D01*
X52207420Y-17419533D01*
X52207420Y-17514771D01*
X52159801Y-17657628D01*
X52064563Y-17752866D01*
X51969325Y-17800485D01*
X51778849Y-17848104D01*
X51635992Y-17848104D01*
X51445516Y-17800485D01*
X51350278Y-17752866D01*
X51255040Y-17657628D01*
X51207420Y-17514771D01*
X51207420Y-17419533D01*
X51255040Y-17276676D01*
X51302659Y-17229057D01*
X51207420Y-16895723D02*
X51207420Y-16276676D01*
X51588373Y-16610009D01*
X51588373Y-16467152D01*
X51635992Y-16371914D01*
X51683611Y-16324295D01*
X51778849Y-16276676D01*
X52016944Y-16276676D01*
X52112182Y-16324295D01*
X52159801Y-16371914D01*
X52207420Y-16467152D01*
X52207420Y-16752866D01*
X52159801Y-16848104D01*
X52112182Y-16895723D01*
X51302659Y-15895723D02*
X51255040Y-15848104D01*
X51207420Y-15752866D01*
X51207420Y-15514771D01*
X51255040Y-15419533D01*
X51302659Y-15371914D01*
X51397897Y-15324295D01*
X51493135Y-15324295D01*
X51635992Y-15371914D01*
X52207420Y-15943342D01*
X52207420Y-15324295D01*
X50157142Y-9084582D02*
X50109523Y-9132201D01*
X49966666Y-9179820D01*
X49871428Y-9179820D01*
X49728571Y-9132201D01*
X49633333Y-9036963D01*
X49585714Y-8941725D01*
X49538095Y-8751249D01*
X49538095Y-8608392D01*
X49585714Y-8417916D01*
X49633333Y-8322678D01*
X49728571Y-8227440D01*
X49871428Y-8179820D01*
X49966666Y-8179820D01*
X50109523Y-8227440D01*
X50157142Y-8275059D01*
X50490476Y-8179820D02*
X51109523Y-8179820D01*
X50776190Y-8560773D01*
X50919047Y-8560773D01*
X51014285Y-8608392D01*
X51061904Y-8656011D01*
X51109523Y-8751249D01*
X51109523Y-8989344D01*
X51061904Y-9084582D01*
X51014285Y-9132201D01*
X50919047Y-9179820D01*
X50633333Y-9179820D01*
X50538095Y-9132201D01*
X50490476Y-9084582D01*
X51442857Y-8179820D02*
X52061904Y-8179820D01*
X51728571Y-8560773D01*
X51871428Y-8560773D01*
X51966666Y-8608392D01*
X52014285Y-8656011D01*
X52061904Y-8751249D01*
X52061904Y-8989344D01*
X52014285Y-9084582D01*
X51966666Y-9132201D01*
X51871428Y-9179820D01*
X51585714Y-9179820D01*
X51490476Y-9132201D01*
X51442857Y-9084582D01*
X50106342Y-11045462D02*
X50058723Y-11093081D01*
X49915866Y-11140700D01*
X49820628Y-11140700D01*
X49677771Y-11093081D01*
X49582533Y-10997843D01*
X49534914Y-10902605D01*
X49487295Y-10712129D01*
X49487295Y-10569272D01*
X49534914Y-10378796D01*
X49582533Y-10283558D01*
X49677771Y-10188320D01*
X49820628Y-10140700D01*
X49915866Y-10140700D01*
X50058723Y-10188320D01*
X50106342Y-10235939D01*
X50439676Y-10140700D02*
X51058723Y-10140700D01*
X50725390Y-10521653D01*
X50868247Y-10521653D01*
X50963485Y-10569272D01*
X51011104Y-10616891D01*
X51058723Y-10712129D01*
X51058723Y-10950224D01*
X51011104Y-11045462D01*
X50963485Y-11093081D01*
X50868247Y-11140700D01*
X50582533Y-11140700D01*
X50487295Y-11093081D01*
X50439676Y-11045462D01*
X51915866Y-10474034D02*
X51915866Y-11140700D01*
X51677771Y-10093081D02*
X51439676Y-10807367D01*
X52058723Y-10807367D01*
X52061382Y-13988017D02*
X52109001Y-14035636D01*
X52156620Y-14178493D01*
X52156620Y-14273731D01*
X52109001Y-14416588D01*
X52013763Y-14511826D01*
X51918525Y-14559445D01*
X51728049Y-14607064D01*
X51585192Y-14607064D01*
X51394716Y-14559445D01*
X51299478Y-14511826D01*
X51204240Y-14416588D01*
X51156620Y-14273731D01*
X51156620Y-14178493D01*
X51204240Y-14035636D01*
X51251859Y-13988017D01*
X51156620Y-13654683D02*
X51156620Y-13035636D01*
X51537573Y-13368969D01*
X51537573Y-13226112D01*
X51585192Y-13130874D01*
X51632811Y-13083255D01*
X51728049Y-13035636D01*
X51966144Y-13035636D01*
X52061382Y-13083255D01*
X52109001Y-13130874D01*
X52156620Y-13226112D01*
X52156620Y-13511826D01*
X52109001Y-13607064D01*
X52061382Y-13654683D01*
X51156620Y-12130874D02*
X51156620Y-12607064D01*
X51632811Y-12654683D01*
X51585192Y-12607064D01*
X51537573Y-12511826D01*
X51537573Y-12273731D01*
X51585192Y-12178493D01*
X51632811Y-12130874D01*
X51728049Y-12083255D01*
X51966144Y-12083255D01*
X52061382Y-12130874D01*
X52109001Y-12178493D01*
X52156620Y-12273731D01*
X52156620Y-12511826D01*
X52109001Y-12607064D01*
X52061382Y-12654683D01*
X42410142Y-9005842D02*
X42362523Y-9053461D01*
X42219666Y-9101080D01*
X42124428Y-9101080D01*
X41981571Y-9053461D01*
X41886333Y-8958223D01*
X41838714Y-8862985D01*
X41791095Y-8672509D01*
X41791095Y-8529652D01*
X41838714Y-8339176D01*
X41886333Y-8243938D01*
X41981571Y-8148700D01*
X42124428Y-8101080D01*
X42219666Y-8101080D01*
X42362523Y-8148700D01*
X42410142Y-8196319D01*
X42743476Y-8101080D02*
X43362523Y-8101080D01*
X43029190Y-8482033D01*
X43172047Y-8482033D01*
X43267285Y-8529652D01*
X43314904Y-8577271D01*
X43362523Y-8672509D01*
X43362523Y-8910604D01*
X43314904Y-9005842D01*
X43267285Y-9053461D01*
X43172047Y-9101080D01*
X42886333Y-9101080D01*
X42791095Y-9053461D01*
X42743476Y-9005842D01*
X44219666Y-8101080D02*
X44029190Y-8101080D01*
X43933952Y-8148700D01*
X43886333Y-8196319D01*
X43791095Y-8339176D01*
X43743476Y-8529652D01*
X43743476Y-8910604D01*
X43791095Y-9005842D01*
X43838714Y-9053461D01*
X43933952Y-9101080D01*
X44124428Y-9101080D01*
X44219666Y-9053461D01*
X44267285Y-9005842D01*
X44314904Y-8910604D01*
X44314904Y-8672509D01*
X44267285Y-8577271D01*
X44219666Y-8529652D01*
X44124428Y-8482033D01*
X43933952Y-8482033D01*
X43838714Y-8529652D01*
X43791095Y-8577271D01*
X43743476Y-8672509D01*
X33300942Y-35009057D02*
X33348561Y-35056676D01*
X33396180Y-35199533D01*
X33396180Y-35294771D01*
X33348561Y-35437628D01*
X33253323Y-35532866D01*
X33158085Y-35580485D01*
X32967609Y-35628104D01*
X32824752Y-35628104D01*
X32634276Y-35580485D01*
X32539038Y-35532866D01*
X32443800Y-35437628D01*
X32396180Y-35294771D01*
X32396180Y-35199533D01*
X32443800Y-35056676D01*
X32491419Y-35009057D01*
X32396180Y-34675723D02*
X32396180Y-34056676D01*
X32777133Y-34390009D01*
X32777133Y-34247152D01*
X32824752Y-34151914D01*
X32872371Y-34104295D01*
X32967609Y-34056676D01*
X33205704Y-34056676D01*
X33300942Y-34104295D01*
X33348561Y-34151914D01*
X33396180Y-34247152D01*
X33396180Y-34532866D01*
X33348561Y-34628104D01*
X33300942Y-34675723D01*
X32396180Y-33723342D02*
X32396180Y-33056676D01*
X33396180Y-33485247D01*
X33135842Y-59100957D02*
X33183461Y-59148576D01*
X33231080Y-59291433D01*
X33231080Y-59386671D01*
X33183461Y-59529528D01*
X33088223Y-59624766D01*
X32992985Y-59672385D01*
X32802509Y-59720004D01*
X32659652Y-59720004D01*
X32469176Y-59672385D01*
X32373938Y-59624766D01*
X32278700Y-59529528D01*
X32231080Y-59386671D01*
X32231080Y-59291433D01*
X32278700Y-59148576D01*
X32326319Y-59100957D01*
X32231080Y-58767623D02*
X32231080Y-58148576D01*
X32612033Y-58481909D01*
X32612033Y-58339052D01*
X32659652Y-58243814D01*
X32707271Y-58196195D01*
X32802509Y-58148576D01*
X33040604Y-58148576D01*
X33135842Y-58196195D01*
X33183461Y-58243814D01*
X33231080Y-58339052D01*
X33231080Y-58624766D01*
X33183461Y-58720004D01*
X33135842Y-58767623D01*
X33231080Y-57672385D02*
X33231080Y-57481909D01*
X33183461Y-57386671D01*
X33135842Y-57339052D01*
X32992985Y-57243814D01*
X32802509Y-57196195D01*
X32421557Y-57196195D01*
X32326319Y-57243814D01*
X32278700Y-57291433D01*
X32231080Y-57386671D01*
X32231080Y-57577147D01*
X32278700Y-57672385D01*
X32326319Y-57720004D01*
X32421557Y-57767623D01*
X32659652Y-57767623D01*
X32754890Y-57720004D01*
X32802509Y-57672385D01*
X32850128Y-57577147D01*
X32850128Y-57386671D01*
X32802509Y-57291433D01*
X32754890Y-57243814D01*
X32659652Y-57196195D01*
X27497042Y-59291457D02*
X27544661Y-59339076D01*
X27592280Y-59481933D01*
X27592280Y-59577171D01*
X27544661Y-59720028D01*
X27449423Y-59815266D01*
X27354185Y-59862885D01*
X27163709Y-59910504D01*
X27020852Y-59910504D01*
X26830376Y-59862885D01*
X26735138Y-59815266D01*
X26639900Y-59720028D01*
X26592280Y-59577171D01*
X26592280Y-59481933D01*
X26639900Y-59339076D01*
X26687519Y-59291457D01*
X26925614Y-58434314D02*
X27592280Y-58434314D01*
X26544661Y-58672409D02*
X27258947Y-58910504D01*
X27258947Y-58291457D01*
X26592280Y-57720028D02*
X26592280Y-57624790D01*
X26639900Y-57529552D01*
X26687519Y-57481933D01*
X26782757Y-57434314D01*
X26973233Y-57386695D01*
X27211328Y-57386695D01*
X27401804Y-57434314D01*
X27497042Y-57481933D01*
X27544661Y-57529552D01*
X27592280Y-57624790D01*
X27592280Y-57720028D01*
X27544661Y-57815266D01*
X27497042Y-57862885D01*
X27401804Y-57910504D01*
X27211328Y-57958123D01*
X26973233Y-57958123D01*
X26782757Y-57910504D01*
X26687519Y-57862885D01*
X26639900Y-57815266D01*
X26592280Y-57720028D01*
X31649942Y-85072457D02*
X31697561Y-85120076D01*
X31745180Y-85262933D01*
X31745180Y-85358171D01*
X31697561Y-85501028D01*
X31602323Y-85596266D01*
X31507085Y-85643885D01*
X31316609Y-85691504D01*
X31173752Y-85691504D01*
X30983276Y-85643885D01*
X30888038Y-85596266D01*
X30792800Y-85501028D01*
X30745180Y-85358171D01*
X30745180Y-85262933D01*
X30792800Y-85120076D01*
X30840419Y-85072457D01*
X31078514Y-84215314D02*
X31745180Y-84215314D01*
X30697561Y-84453409D02*
X31411847Y-84691504D01*
X31411847Y-84072457D01*
X31745180Y-83167695D02*
X31745180Y-83739123D01*
X31745180Y-83453409D02*
X30745180Y-83453409D01*
X30888038Y-83548647D01*
X30983276Y-83643885D01*
X31030895Y-83739123D01*
X967502Y-88782162D02*
X919883Y-88829781D01*
X777026Y-88877400D01*
X681788Y-88877400D01*
X538931Y-88829781D01*
X443693Y-88734543D01*
X396074Y-88639305D01*
X348455Y-88448829D01*
X348455Y-88305972D01*
X396074Y-88115496D01*
X443693Y-88020258D01*
X538931Y-87925020D01*
X681788Y-87877400D01*
X777026Y-87877400D01*
X919883Y-87925020D01*
X967502Y-87972639D01*
X1824645Y-88210734D02*
X1824645Y-88877400D01*
X1586550Y-87829781D02*
X1348455Y-88544067D01*
X1967502Y-88544067D01*
X2253217Y-87877400D02*
X2872264Y-87877400D01*
X2538931Y-88258353D01*
X2681788Y-88258353D01*
X2777026Y-88305972D01*
X2824645Y-88353591D01*
X2872264Y-88448829D01*
X2872264Y-88686924D01*
X2824645Y-88782162D01*
X2777026Y-88829781D01*
X2681788Y-88877400D01*
X2396074Y-88877400D01*
X2300836Y-88829781D01*
X2253217Y-88782162D01*
X45721542Y-84005657D02*
X45769161Y-84053276D01*
X45816780Y-84196133D01*
X45816780Y-84291371D01*
X45769161Y-84434228D01*
X45673923Y-84529466D01*
X45578685Y-84577085D01*
X45388209Y-84624704D01*
X45245352Y-84624704D01*
X45054876Y-84577085D01*
X44959638Y-84529466D01*
X44864400Y-84434228D01*
X44816780Y-84291371D01*
X44816780Y-84196133D01*
X44864400Y-84053276D01*
X44912019Y-84005657D01*
X45150114Y-83148514D02*
X45816780Y-83148514D01*
X44769161Y-83386609D02*
X45483447Y-83624704D01*
X45483447Y-83005657D01*
X45150114Y-82196133D02*
X45816780Y-82196133D01*
X44769161Y-82434228D02*
X45483447Y-82672323D01*
X45483447Y-82053276D01*
X23391904Y-30729180D02*
X23391904Y-29729180D01*
X23630000Y-29729180D01*
X23772857Y-29776800D01*
X23868095Y-29872038D01*
X23915714Y-29967276D01*
X23963333Y-30157752D01*
X23963333Y-30300609D01*
X23915714Y-30491085D01*
X23868095Y-30586323D01*
X23772857Y-30681561D01*
X23630000Y-30729180D01*
X23391904Y-30729180D01*
X24915714Y-30729180D02*
X24344285Y-30729180D01*
X24630000Y-30729180D02*
X24630000Y-29729180D01*
X24534761Y-29872038D01*
X24439523Y-29967276D01*
X24344285Y-30014895D01*
X56107104Y-34183580D02*
X56107104Y-33183580D01*
X56345200Y-33183580D01*
X56488057Y-33231200D01*
X56583295Y-33326438D01*
X56630914Y-33421676D01*
X56678533Y-33612152D01*
X56678533Y-33755009D01*
X56630914Y-33945485D01*
X56583295Y-34040723D01*
X56488057Y-34135961D01*
X56345200Y-34183580D01*
X56107104Y-34183580D01*
X57059485Y-33278819D02*
X57107104Y-33231200D01*
X57202342Y-33183580D01*
X57440438Y-33183580D01*
X57535676Y-33231200D01*
X57583295Y-33278819D01*
X57630914Y-33374057D01*
X57630914Y-33469295D01*
X57583295Y-33612152D01*
X57011866Y-34183580D01*
X57630914Y-34183580D01*
X4954280Y-32818295D02*
X3954280Y-32818295D01*
X3954280Y-32580200D01*
X4001900Y-32437342D01*
X4097138Y-32342104D01*
X4192376Y-32294485D01*
X4382852Y-32246866D01*
X4525709Y-32246866D01*
X4716185Y-32294485D01*
X4811423Y-32342104D01*
X4906661Y-32437342D01*
X4954280Y-32580200D01*
X4954280Y-32818295D01*
X3954280Y-31913533D02*
X3954280Y-31294485D01*
X4335233Y-31627819D01*
X4335233Y-31484961D01*
X4382852Y-31389723D01*
X4430471Y-31342104D01*
X4525709Y-31294485D01*
X4763804Y-31294485D01*
X4859042Y-31342104D01*
X4906661Y-31389723D01*
X4954280Y-31484961D01*
X4954280Y-31770676D01*
X4906661Y-31865914D01*
X4859042Y-31913533D01*
X5486660Y-17867855D02*
X4486660Y-17867855D01*
X4486660Y-17629760D01*
X4534280Y-17486902D01*
X4629518Y-17391664D01*
X4724756Y-17344045D01*
X4915232Y-17296426D01*
X5058089Y-17296426D01*
X5248565Y-17344045D01*
X5343803Y-17391664D01*
X5439041Y-17486902D01*
X5486660Y-17629760D01*
X5486660Y-17867855D01*
X4819994Y-16439283D02*
X5486660Y-16439283D01*
X4439041Y-16677379D02*
X5153327Y-16915474D01*
X5153327Y-16296426D01*
X1582680Y-8535895D02*
X582680Y-8535895D01*
X582680Y-8297800D01*
X630300Y-8154942D01*
X725538Y-8059704D01*
X820776Y-8012085D01*
X1011252Y-7964466D01*
X1154109Y-7964466D01*
X1344585Y-8012085D01*
X1439823Y-8059704D01*
X1535061Y-8154942D01*
X1582680Y-8297800D01*
X1582680Y-8535895D01*
X582680Y-7059704D02*
X582680Y-7535895D01*
X1058871Y-7583514D01*
X1011252Y-7535895D01*
X963633Y-7440657D01*
X963633Y-7202561D01*
X1011252Y-7107323D01*
X1058871Y-7059704D01*
X1154109Y-7012085D01*
X1392204Y-7012085D01*
X1487442Y-7059704D01*
X1535061Y-7107323D01*
X1582680Y-7202561D01*
X1582680Y-7440657D01*
X1535061Y-7535895D01*
X1487442Y-7583514D01*
X32078704Y-31897580D02*
X32078704Y-30897580D01*
X32316800Y-30897580D01*
X32459657Y-30945200D01*
X32554895Y-31040438D01*
X32602514Y-31135676D01*
X32650133Y-31326152D01*
X32650133Y-31469009D01*
X32602514Y-31659485D01*
X32554895Y-31754723D01*
X32459657Y-31849961D01*
X32316800Y-31897580D01*
X32078704Y-31897580D01*
X33507276Y-30897580D02*
X33316800Y-30897580D01*
X33221561Y-30945200D01*
X33173942Y-30992819D01*
X33078704Y-31135676D01*
X33031085Y-31326152D01*
X33031085Y-31707104D01*
X33078704Y-31802342D01*
X33126323Y-31849961D01*
X33221561Y-31897580D01*
X33412038Y-31897580D01*
X33507276Y-31849961D01*
X33554895Y-31802342D01*
X33602514Y-31707104D01*
X33602514Y-31469009D01*
X33554895Y-31373771D01*
X33507276Y-31326152D01*
X33412038Y-31278533D01*
X33221561Y-31278533D01*
X33126323Y-31326152D01*
X33078704Y-31373771D01*
X33031085Y-31469009D01*
X29164540Y-17745935D02*
X28164540Y-17745935D01*
X28164540Y-17507840D01*
X28212160Y-17364982D01*
X28307398Y-17269744D01*
X28402636Y-17222125D01*
X28593112Y-17174506D01*
X28735969Y-17174506D01*
X28926445Y-17222125D01*
X29021683Y-17269744D01*
X29116921Y-17364982D01*
X29164540Y-17507840D01*
X29164540Y-17745935D01*
X28164540Y-16841173D02*
X28164540Y-16174506D01*
X29164540Y-16603078D01*
X26614380Y-7938995D02*
X25614380Y-7938995D01*
X25614380Y-7700900D01*
X25662000Y-7558042D01*
X25757238Y-7462804D01*
X25852476Y-7415185D01*
X26042952Y-7367566D01*
X26185809Y-7367566D01*
X26376285Y-7415185D01*
X26471523Y-7462804D01*
X26566761Y-7558042D01*
X26614380Y-7700900D01*
X26614380Y-7938995D01*
X26042952Y-6796138D02*
X25995333Y-6891376D01*
X25947714Y-6938995D01*
X25852476Y-6986614D01*
X25804857Y-6986614D01*
X25709619Y-6938995D01*
X25662000Y-6891376D01*
X25614380Y-6796138D01*
X25614380Y-6605661D01*
X25662000Y-6510423D01*
X25709619Y-6462804D01*
X25804857Y-6415185D01*
X25852476Y-6415185D01*
X25947714Y-6462804D01*
X25995333Y-6510423D01*
X26042952Y-6605661D01*
X26042952Y-6796138D01*
X26090571Y-6891376D01*
X26138190Y-6938995D01*
X26233428Y-6986614D01*
X26423904Y-6986614D01*
X26519142Y-6938995D01*
X26566761Y-6891376D01*
X26614380Y-6796138D01*
X26614380Y-6605661D01*
X26566761Y-6510423D01*
X26519142Y-6462804D01*
X26423904Y-6415185D01*
X26233428Y-6415185D01*
X26138190Y-6462804D01*
X26090571Y-6510423D01*
X26042952Y-6605661D01*
X13875426Y-85070700D02*
X13875426Y-85784986D01*
X13827807Y-85927843D01*
X13732569Y-86023081D01*
X13589712Y-86070700D01*
X13494474Y-86070700D01*
X14303998Y-85165939D02*
X14351617Y-85118320D01*
X14446855Y-85070700D01*
X14684950Y-85070700D01*
X14780188Y-85118320D01*
X14827807Y-85165939D01*
X14875426Y-85261177D01*
X14875426Y-85356415D01*
X14827807Y-85499272D01*
X14256379Y-86070700D01*
X14875426Y-86070700D01*
X47850466Y-90041480D02*
X47850466Y-90755766D01*
X47802847Y-90898623D01*
X47707609Y-90993861D01*
X47564752Y-91041480D01*
X47469514Y-91041480D01*
X48231419Y-90041480D02*
X48850466Y-90041480D01*
X48517133Y-90422433D01*
X48659990Y-90422433D01*
X48755228Y-90470052D01*
X48802847Y-90517671D01*
X48850466Y-90612909D01*
X48850466Y-90851004D01*
X48802847Y-90946242D01*
X48755228Y-90993861D01*
X48659990Y-91041480D01*
X48374276Y-91041480D01*
X48279038Y-90993861D01*
X48231419Y-90946242D01*
X38606979Y-30697158D02*
X38559360Y-30792396D01*
X38464121Y-30887634D01*
X38321264Y-31030491D01*
X38273645Y-31125729D01*
X38273645Y-31220967D01*
X38511740Y-31173348D02*
X38464121Y-31268586D01*
X38368883Y-31363824D01*
X38178407Y-31411443D01*
X37845074Y-31411443D01*
X37654598Y-31363824D01*
X37559360Y-31268586D01*
X37511740Y-31173348D01*
X37511740Y-30982872D01*
X37559360Y-30887634D01*
X37654598Y-30792396D01*
X37845074Y-30744777D01*
X38178407Y-30744777D01*
X38368883Y-30792396D01*
X38464121Y-30887634D01*
X38511740Y-30982872D01*
X38511740Y-31173348D01*
X38511740Y-29792396D02*
X38511740Y-30363824D01*
X38511740Y-30078110D02*
X37511740Y-30078110D01*
X37654598Y-30173348D01*
X37749836Y-30268586D01*
X37797455Y-30363824D01*
X10925401Y-34439379D02*
X10830163Y-34391760D01*
X10734925Y-34296521D01*
X10592068Y-34153664D01*
X10496830Y-34106045D01*
X10401592Y-34106045D01*
X10449211Y-34344140D02*
X10353973Y-34296521D01*
X10258735Y-34201283D01*
X10211116Y-34010807D01*
X10211116Y-33677474D01*
X10258735Y-33486998D01*
X10353973Y-33391760D01*
X10449211Y-33344140D01*
X10639687Y-33344140D01*
X10734925Y-33391760D01*
X10830163Y-33486998D01*
X10877782Y-33677474D01*
X10877782Y-34010807D01*
X10830163Y-34201283D01*
X10734925Y-34296521D01*
X10639687Y-34344140D01*
X10449211Y-34344140D01*
X11258735Y-33439379D02*
X11306354Y-33391760D01*
X11401592Y-33344140D01*
X11639687Y-33344140D01*
X11734925Y-33391760D01*
X11782544Y-33439379D01*
X11830163Y-33534617D01*
X11830163Y-33629855D01*
X11782544Y-33772712D01*
X11211116Y-34344140D01*
X11830163Y-34344140D01*
X17722861Y-68721219D02*
X17627623Y-68673600D01*
X17532385Y-68578361D01*
X17389528Y-68435504D01*
X17294290Y-68387885D01*
X17199052Y-68387885D01*
X17246671Y-68625980D02*
X17151433Y-68578361D01*
X17056195Y-68483123D01*
X17008576Y-68292647D01*
X17008576Y-67959314D01*
X17056195Y-67768838D01*
X17151433Y-67673600D01*
X17246671Y-67625980D01*
X17437147Y-67625980D01*
X17532385Y-67673600D01*
X17627623Y-67768838D01*
X17675242Y-67959314D01*
X17675242Y-68292647D01*
X17627623Y-68483123D01*
X17532385Y-68578361D01*
X17437147Y-68625980D01*
X17246671Y-68625980D01*
X18008576Y-67625980D02*
X18627623Y-67625980D01*
X18294290Y-68006933D01*
X18437147Y-68006933D01*
X18532385Y-68054552D01*
X18580004Y-68102171D01*
X18627623Y-68197409D01*
X18627623Y-68435504D01*
X18580004Y-68530742D01*
X18532385Y-68578361D01*
X18437147Y-68625980D01*
X18151433Y-68625980D01*
X18056195Y-68578361D01*
X18008576Y-68530742D01*
X51022261Y-67400419D02*
X50927023Y-67352800D01*
X50831785Y-67257561D01*
X50688928Y-67114704D01*
X50593690Y-67067085D01*
X50498452Y-67067085D01*
X50546071Y-67305180D02*
X50450833Y-67257561D01*
X50355595Y-67162323D01*
X50307976Y-66971847D01*
X50307976Y-66638514D01*
X50355595Y-66448038D01*
X50450833Y-66352800D01*
X50546071Y-66305180D01*
X50736547Y-66305180D01*
X50831785Y-66352800D01*
X50927023Y-66448038D01*
X50974642Y-66638514D01*
X50974642Y-66971847D01*
X50927023Y-67162323D01*
X50831785Y-67257561D01*
X50736547Y-67305180D01*
X50546071Y-67305180D01*
X51831785Y-66638514D02*
X51831785Y-67305180D01*
X51593690Y-66257561D02*
X51355595Y-66971847D01*
X51974642Y-66971847D01*
X20804853Y-30650440D02*
X20471520Y-30174250D01*
X20233424Y-30650440D02*
X20233424Y-29650440D01*
X20614377Y-29650440D01*
X20709615Y-29698060D01*
X20757234Y-29745679D01*
X20804853Y-29840917D01*
X20804853Y-29983774D01*
X20757234Y-30079012D01*
X20709615Y-30126631D01*
X20614377Y-30174250D01*
X20233424Y-30174250D01*
X21757234Y-30650440D02*
X21185805Y-30650440D01*
X21471520Y-30650440D02*
X21471520Y-29650440D01*
X21376281Y-29793298D01*
X21281043Y-29888536D01*
X21185805Y-29936155D01*
X17410133Y-34234380D02*
X17076800Y-33758190D01*
X16838704Y-34234380D02*
X16838704Y-33234380D01*
X17219657Y-33234380D01*
X17314895Y-33282000D01*
X17362514Y-33329619D01*
X17410133Y-33424857D01*
X17410133Y-33567714D01*
X17362514Y-33662952D01*
X17314895Y-33710571D01*
X17219657Y-33758190D01*
X16838704Y-33758190D01*
X17791085Y-33329619D02*
X17838704Y-33282000D01*
X17933942Y-33234380D01*
X18172038Y-33234380D01*
X18267276Y-33282000D01*
X18314895Y-33329619D01*
X18362514Y-33424857D01*
X18362514Y-33520095D01*
X18314895Y-33662952D01*
X17743466Y-34234380D01*
X18362514Y-34234380D01*
X52360533Y-30729180D02*
X52027200Y-30252990D01*
X51789104Y-30729180D02*
X51789104Y-29729180D01*
X52170057Y-29729180D01*
X52265295Y-29776800D01*
X52312914Y-29824419D01*
X52360533Y-29919657D01*
X52360533Y-30062514D01*
X52312914Y-30157752D01*
X52265295Y-30205371D01*
X52170057Y-30252990D01*
X51789104Y-30252990D01*
X52693866Y-29729180D02*
X53312914Y-29729180D01*
X52979580Y-30110133D01*
X53122438Y-30110133D01*
X53217676Y-30157752D01*
X53265295Y-30205371D01*
X53312914Y-30300609D01*
X53312914Y-30538704D01*
X53265295Y-30633942D01*
X53217676Y-30681561D01*
X53122438Y-30729180D01*
X52836723Y-30729180D01*
X52741485Y-30681561D01*
X52693866Y-30633942D01*
X52360533Y-32659580D02*
X52027200Y-32183390D01*
X51789104Y-32659580D02*
X51789104Y-31659580D01*
X52170057Y-31659580D01*
X52265295Y-31707200D01*
X52312914Y-31754819D01*
X52360533Y-31850057D01*
X52360533Y-31992914D01*
X52312914Y-32088152D01*
X52265295Y-32135771D01*
X52170057Y-32183390D01*
X51789104Y-32183390D01*
X53217676Y-31992914D02*
X53217676Y-32659580D01*
X52979580Y-31611961D02*
X52741485Y-32326247D01*
X53360533Y-32326247D01*
X12441180Y-59691566D02*
X11964990Y-60024900D01*
X12441180Y-60262995D02*
X11441180Y-60262995D01*
X11441180Y-59882042D01*
X11488800Y-59786804D01*
X11536419Y-59739185D01*
X11631657Y-59691566D01*
X11774514Y-59691566D01*
X11869752Y-59739185D01*
X11917371Y-59786804D01*
X11964990Y-59882042D01*
X11964990Y-60262995D01*
X11441180Y-58834423D02*
X11441180Y-59024900D01*
X11488800Y-59120138D01*
X11536419Y-59167757D01*
X11679276Y-59262995D01*
X11869752Y-59310614D01*
X12250704Y-59310614D01*
X12345942Y-59262995D01*
X12393561Y-59215376D01*
X12441180Y-59120138D01*
X12441180Y-58929661D01*
X12393561Y-58834423D01*
X12345942Y-58786804D01*
X12250704Y-58739185D01*
X12012609Y-58739185D01*
X11917371Y-58786804D01*
X11869752Y-58834423D01*
X11822133Y-58929661D01*
X11822133Y-59120138D01*
X11869752Y-59215376D01*
X11917371Y-59262995D01*
X12012609Y-59310614D01*
X23464780Y-63031666D02*
X22988590Y-63365000D01*
X23464780Y-63603095D02*
X22464780Y-63603095D01*
X22464780Y-63222142D01*
X22512400Y-63126904D01*
X22560019Y-63079285D01*
X22655257Y-63031666D01*
X22798114Y-63031666D01*
X22893352Y-63079285D01*
X22940971Y-63126904D01*
X22988590Y-63222142D01*
X22988590Y-63603095D01*
X22464780Y-62698333D02*
X22464780Y-62031666D01*
X23464780Y-62460238D01*
X17397433Y-62642480D02*
X17064100Y-62166290D01*
X16826004Y-62642480D02*
X16826004Y-61642480D01*
X17206957Y-61642480D01*
X17302195Y-61690100D01*
X17349814Y-61737719D01*
X17397433Y-61832957D01*
X17397433Y-61975814D01*
X17349814Y-62071052D01*
X17302195Y-62118671D01*
X17206957Y-62166290D01*
X16826004Y-62166290D01*
X17968861Y-62071052D02*
X17873623Y-62023433D01*
X17826004Y-61975814D01*
X17778385Y-61880576D01*
X17778385Y-61832957D01*
X17826004Y-61737719D01*
X17873623Y-61690100D01*
X17968861Y-61642480D01*
X18159338Y-61642480D01*
X18254576Y-61690100D01*
X18302195Y-61737719D01*
X18349814Y-61832957D01*
X18349814Y-61880576D01*
X18302195Y-61975814D01*
X18254576Y-62023433D01*
X18159338Y-62071052D01*
X17968861Y-62071052D01*
X17873623Y-62118671D01*
X17826004Y-62166290D01*
X17778385Y-62261528D01*
X17778385Y-62452004D01*
X17826004Y-62547242D01*
X17873623Y-62594861D01*
X17968861Y-62642480D01*
X18159338Y-62642480D01*
X18254576Y-62594861D01*
X18302195Y-62547242D01*
X18349814Y-62452004D01*
X18349814Y-62261528D01*
X18302195Y-62166290D01*
X18254576Y-62118671D01*
X18159338Y-62071052D01*
X21458180Y-63107866D02*
X20981990Y-63441200D01*
X21458180Y-63679295D02*
X20458180Y-63679295D01*
X20458180Y-63298342D01*
X20505800Y-63203104D01*
X20553419Y-63155485D01*
X20648657Y-63107866D01*
X20791514Y-63107866D01*
X20886752Y-63155485D01*
X20934371Y-63203104D01*
X20981990Y-63298342D01*
X20981990Y-63679295D01*
X21458180Y-62631676D02*
X21458180Y-62441200D01*
X21410561Y-62345961D01*
X21362942Y-62298342D01*
X21220085Y-62203104D01*
X21029609Y-62155485D01*
X20648657Y-62155485D01*
X20553419Y-62203104D01*
X20505800Y-62250723D01*
X20458180Y-62345961D01*
X20458180Y-62536438D01*
X20505800Y-62631676D01*
X20553419Y-62679295D01*
X20648657Y-62726914D01*
X20886752Y-62726914D01*
X20981990Y-62679295D01*
X21029609Y-62631676D01*
X21077228Y-62536438D01*
X21077228Y-62345961D01*
X21029609Y-62250723D01*
X20981990Y-62203104D01*
X20886752Y-62155485D01*
X4654280Y-27833557D02*
X4178090Y-28166890D01*
X4654280Y-28404985D02*
X3654280Y-28404985D01*
X3654280Y-28024033D01*
X3701900Y-27928795D01*
X3749519Y-27881176D01*
X3844757Y-27833557D01*
X3987614Y-27833557D01*
X4082852Y-27881176D01*
X4130471Y-27928795D01*
X4178090Y-28024033D01*
X4178090Y-28404985D01*
X4654280Y-26881176D02*
X4654280Y-27452604D01*
X4654280Y-27166890D02*
X3654280Y-27166890D01*
X3797138Y-27262128D01*
X3892376Y-27357366D01*
X3939995Y-27452604D01*
X3654280Y-26262128D02*
X3654280Y-26166890D01*
X3701900Y-26071652D01*
X3749519Y-26024033D01*
X3844757Y-25976414D01*
X4035233Y-25928795D01*
X4273328Y-25928795D01*
X4463804Y-25976414D01*
X4559042Y-26024033D01*
X4606661Y-26071652D01*
X4654280Y-26166890D01*
X4654280Y-26262128D01*
X4606661Y-26357366D01*
X4559042Y-26404985D01*
X4463804Y-26452604D01*
X4273328Y-26500223D01*
X4035233Y-26500223D01*
X3844757Y-26452604D01*
X3749519Y-26404985D01*
X3701900Y-26357366D01*
X3654280Y-26262128D01*
X8059680Y-14181057D02*
X7583490Y-14514390D01*
X8059680Y-14752485D02*
X7059680Y-14752485D01*
X7059680Y-14371533D01*
X7107300Y-14276295D01*
X7154919Y-14228676D01*
X7250157Y-14181057D01*
X7393014Y-14181057D01*
X7488252Y-14228676D01*
X7535871Y-14276295D01*
X7583490Y-14371533D01*
X7583490Y-14752485D01*
X8059680Y-13228676D02*
X8059680Y-13800104D01*
X8059680Y-13514390D02*
X7059680Y-13514390D01*
X7202538Y-13609628D01*
X7297776Y-13704866D01*
X7345395Y-13800104D01*
X8059680Y-12276295D02*
X8059680Y-12847723D01*
X8059680Y-12562009D02*
X7059680Y-12562009D01*
X7202538Y-12657247D01*
X7297776Y-12752485D01*
X7345395Y-12847723D01*
X11387080Y-14125177D02*
X10910890Y-14458510D01*
X11387080Y-14696605D02*
X10387080Y-14696605D01*
X10387080Y-14315653D01*
X10434700Y-14220415D01*
X10482319Y-14172796D01*
X10577557Y-14125177D01*
X10720414Y-14125177D01*
X10815652Y-14172796D01*
X10863271Y-14220415D01*
X10910890Y-14315653D01*
X10910890Y-14696605D01*
X11387080Y-13172796D02*
X11387080Y-13744224D01*
X11387080Y-13458510D02*
X10387080Y-13458510D01*
X10529938Y-13553748D01*
X10625176Y-13648986D01*
X10672795Y-13744224D01*
X10482319Y-12791843D02*
X10434700Y-12744224D01*
X10387080Y-12648986D01*
X10387080Y-12410891D01*
X10434700Y-12315653D01*
X10482319Y-12268034D01*
X10577557Y-12220415D01*
X10672795Y-12220415D01*
X10815652Y-12268034D01*
X11387080Y-12839462D01*
X11387080Y-12220415D01*
X14612880Y-14142957D02*
X14136690Y-14476290D01*
X14612880Y-14714385D02*
X13612880Y-14714385D01*
X13612880Y-14333433D01*
X13660500Y-14238195D01*
X13708119Y-14190576D01*
X13803357Y-14142957D01*
X13946214Y-14142957D01*
X14041452Y-14190576D01*
X14089071Y-14238195D01*
X14136690Y-14333433D01*
X14136690Y-14714385D01*
X14612880Y-13190576D02*
X14612880Y-13762004D01*
X14612880Y-13476290D02*
X13612880Y-13476290D01*
X13755738Y-13571528D01*
X13850976Y-13666766D01*
X13898595Y-13762004D01*
X13612880Y-12857242D02*
X13612880Y-12238195D01*
X13993833Y-12571528D01*
X13993833Y-12428671D01*
X14041452Y-12333433D01*
X14089071Y-12285814D01*
X14184309Y-12238195D01*
X14422404Y-12238195D01*
X14517642Y-12285814D01*
X14565261Y-12333433D01*
X14612880Y-12428671D01*
X14612880Y-12714385D01*
X14565261Y-12809623D01*
X14517642Y-12857242D01*
X17864080Y-14104857D02*
X17387890Y-14438190D01*
X17864080Y-14676285D02*
X16864080Y-14676285D01*
X16864080Y-14295333D01*
X16911700Y-14200095D01*
X16959319Y-14152476D01*
X17054557Y-14104857D01*
X17197414Y-14104857D01*
X17292652Y-14152476D01*
X17340271Y-14200095D01*
X17387890Y-14295333D01*
X17387890Y-14676285D01*
X17864080Y-13152476D02*
X17864080Y-13723904D01*
X17864080Y-13438190D02*
X16864080Y-13438190D01*
X17006938Y-13533428D01*
X17102176Y-13628666D01*
X17149795Y-13723904D01*
X17197414Y-12295333D02*
X17864080Y-12295333D01*
X16816461Y-12533428D02*
X17530747Y-12771523D01*
X17530747Y-12152476D01*
X11140202Y-11450580D02*
X10806869Y-10974390D01*
X10568774Y-11450580D02*
X10568774Y-10450580D01*
X10949726Y-10450580D01*
X11044964Y-10498200D01*
X11092583Y-10545819D01*
X11140202Y-10641057D01*
X11140202Y-10783914D01*
X11092583Y-10879152D01*
X11044964Y-10926771D01*
X10949726Y-10974390D01*
X10568774Y-10974390D01*
X12092583Y-11450580D02*
X11521155Y-11450580D01*
X11806869Y-11450580D02*
X11806869Y-10450580D01*
X11711631Y-10593438D01*
X11616393Y-10688676D01*
X11521155Y-10736295D01*
X12997345Y-10450580D02*
X12521155Y-10450580D01*
X12473536Y-10926771D01*
X12521155Y-10879152D01*
X12616393Y-10831533D01*
X12854488Y-10831533D01*
X12949726Y-10879152D01*
X12997345Y-10926771D01*
X13044964Y-11022009D01*
X13044964Y-11260104D01*
X12997345Y-11355342D01*
X12949726Y-11402961D01*
X12854488Y-11450580D01*
X12616393Y-11450580D01*
X12521155Y-11402961D01*
X12473536Y-11355342D01*
X56025780Y-66936857D02*
X55549590Y-67270190D01*
X56025780Y-67508285D02*
X55025780Y-67508285D01*
X55025780Y-67127333D01*
X55073400Y-67032095D01*
X55121019Y-66984476D01*
X55216257Y-66936857D01*
X55359114Y-66936857D01*
X55454352Y-66984476D01*
X55501971Y-67032095D01*
X55549590Y-67127333D01*
X55549590Y-67508285D01*
X56025780Y-65984476D02*
X56025780Y-66555904D01*
X56025780Y-66270190D02*
X55025780Y-66270190D01*
X55168638Y-66365428D01*
X55263876Y-66460666D01*
X55311495Y-66555904D01*
X55025780Y-65127333D02*
X55025780Y-65317809D01*
X55073400Y-65413047D01*
X55121019Y-65460666D01*
X55263876Y-65555904D01*
X55454352Y-65603523D01*
X55835304Y-65603523D01*
X55930542Y-65555904D01*
X55978161Y-65508285D01*
X56025780Y-65413047D01*
X56025780Y-65222571D01*
X55978161Y-65127333D01*
X55930542Y-65079714D01*
X55835304Y-65032095D01*
X55597209Y-65032095D01*
X55501971Y-65079714D01*
X55454352Y-65127333D01*
X55406733Y-65222571D01*
X55406733Y-65413047D01*
X55454352Y-65508285D01*
X55501971Y-65555904D01*
X55597209Y-65603523D01*
X47886880Y-62978257D02*
X47410690Y-63311590D01*
X47886880Y-63549685D02*
X46886880Y-63549685D01*
X46886880Y-63168733D01*
X46934500Y-63073495D01*
X46982119Y-63025876D01*
X47077357Y-62978257D01*
X47220214Y-62978257D01*
X47315452Y-63025876D01*
X47363071Y-63073495D01*
X47410690Y-63168733D01*
X47410690Y-63549685D01*
X47886880Y-62025876D02*
X47886880Y-62597304D01*
X47886880Y-62311590D02*
X46886880Y-62311590D01*
X47029738Y-62406828D01*
X47124976Y-62502066D01*
X47172595Y-62597304D01*
X46886880Y-61692542D02*
X46886880Y-61025876D01*
X47886880Y-61454447D01*
X56827680Y-62517257D02*
X56351490Y-62850590D01*
X56827680Y-63088685D02*
X55827680Y-63088685D01*
X55827680Y-62707733D01*
X55875300Y-62612495D01*
X55922919Y-62564876D01*
X56018157Y-62517257D01*
X56161014Y-62517257D01*
X56256252Y-62564876D01*
X56303871Y-62612495D01*
X56351490Y-62707733D01*
X56351490Y-63088685D01*
X56827680Y-61564876D02*
X56827680Y-62136304D01*
X56827680Y-61850590D02*
X55827680Y-61850590D01*
X55970538Y-61945828D01*
X56065776Y-62041066D01*
X56113395Y-62136304D01*
X56256252Y-60993447D02*
X56208633Y-61088685D01*
X56161014Y-61136304D01*
X56065776Y-61183923D01*
X56018157Y-61183923D01*
X55922919Y-61136304D01*
X55875300Y-61088685D01*
X55827680Y-60993447D01*
X55827680Y-60802971D01*
X55875300Y-60707733D01*
X55922919Y-60660114D01*
X56018157Y-60612495D01*
X56065776Y-60612495D01*
X56161014Y-60660114D01*
X56208633Y-60707733D01*
X56256252Y-60802971D01*
X56256252Y-60993447D01*
X56303871Y-61088685D01*
X56351490Y-61136304D01*
X56446728Y-61183923D01*
X56637204Y-61183923D01*
X56732442Y-61136304D01*
X56780061Y-61088685D01*
X56827680Y-60993447D01*
X56827680Y-60802971D01*
X56780061Y-60707733D01*
X56732442Y-60660114D01*
X56637204Y-60612495D01*
X56446728Y-60612495D01*
X56351490Y-60660114D01*
X56303871Y-60707733D01*
X56256252Y-60802971D01*
X50258742Y-61537580D02*
X49925409Y-61061390D01*
X49687314Y-61537580D02*
X49687314Y-60537580D01*
X50068266Y-60537580D01*
X50163504Y-60585200D01*
X50211123Y-60632819D01*
X50258742Y-60728057D01*
X50258742Y-60870914D01*
X50211123Y-60966152D01*
X50163504Y-61013771D01*
X50068266Y-61061390D01*
X49687314Y-61061390D01*
X51211123Y-61537580D02*
X50639695Y-61537580D01*
X50925409Y-61537580D02*
X50925409Y-60537580D01*
X50830171Y-60680438D01*
X50734933Y-60775676D01*
X50639695Y-60823295D01*
X51687314Y-61537580D02*
X51877790Y-61537580D01*
X51973028Y-61489961D01*
X52020647Y-61442342D01*
X52115885Y-61299485D01*
X52163504Y-61109009D01*
X52163504Y-60728057D01*
X52115885Y-60632819D01*
X52068266Y-60585200D01*
X51973028Y-60537580D01*
X51782552Y-60537580D01*
X51687314Y-60585200D01*
X51639695Y-60632819D01*
X51592076Y-60728057D01*
X51592076Y-60966152D01*
X51639695Y-61061390D01*
X51687314Y-61109009D01*
X51782552Y-61156628D01*
X51973028Y-61156628D01*
X52068266Y-61109009D01*
X52115885Y-61061390D01*
X52163504Y-60966152D01*
X54859180Y-62479157D02*
X54382990Y-62812490D01*
X54859180Y-63050585D02*
X53859180Y-63050585D01*
X53859180Y-62669633D01*
X53906800Y-62574395D01*
X53954419Y-62526776D01*
X54049657Y-62479157D01*
X54192514Y-62479157D01*
X54287752Y-62526776D01*
X54335371Y-62574395D01*
X54382990Y-62669633D01*
X54382990Y-63050585D01*
X53954419Y-62098204D02*
X53906800Y-62050585D01*
X53859180Y-61955347D01*
X53859180Y-61717252D01*
X53906800Y-61622014D01*
X53954419Y-61574395D01*
X54049657Y-61526776D01*
X54144895Y-61526776D01*
X54287752Y-61574395D01*
X54859180Y-62145823D01*
X54859180Y-61526776D01*
X53859180Y-60907728D02*
X53859180Y-60812490D01*
X53906800Y-60717252D01*
X53954419Y-60669633D01*
X54049657Y-60622014D01*
X54240133Y-60574395D01*
X54478228Y-60574395D01*
X54668704Y-60622014D01*
X54763942Y-60669633D01*
X54811561Y-60717252D01*
X54859180Y-60812490D01*
X54859180Y-60907728D01*
X54811561Y-61002966D01*
X54763942Y-61050585D01*
X54668704Y-61098204D01*
X54478228Y-61145823D01*
X54240133Y-61145823D01*
X54049657Y-61098204D01*
X53954419Y-61050585D01*
X53906800Y-61002966D01*
X53859180Y-60907728D01*
X31564342Y-26133580D02*
X31231009Y-25657390D01*
X30992914Y-26133580D02*
X30992914Y-25133580D01*
X31373866Y-25133580D01*
X31469104Y-25181200D01*
X31516723Y-25228819D01*
X31564342Y-25324057D01*
X31564342Y-25466914D01*
X31516723Y-25562152D01*
X31469104Y-25609771D01*
X31373866Y-25657390D01*
X30992914Y-25657390D01*
X31945295Y-25228819D02*
X31992914Y-25181200D01*
X32088152Y-25133580D01*
X32326247Y-25133580D01*
X32421485Y-25181200D01*
X32469104Y-25228819D01*
X32516723Y-25324057D01*
X32516723Y-25419295D01*
X32469104Y-25562152D01*
X31897676Y-26133580D01*
X32516723Y-26133580D01*
X33469104Y-26133580D02*
X32897676Y-26133580D01*
X33183390Y-26133580D02*
X33183390Y-25133580D01*
X33088152Y-25276438D01*
X32992914Y-25371676D01*
X32897676Y-25419295D01*
X39573460Y-14130257D02*
X39097270Y-14463590D01*
X39573460Y-14701685D02*
X38573460Y-14701685D01*
X38573460Y-14320733D01*
X38621080Y-14225495D01*
X38668699Y-14177876D01*
X38763937Y-14130257D01*
X38906794Y-14130257D01*
X39002032Y-14177876D01*
X39049651Y-14225495D01*
X39097270Y-14320733D01*
X39097270Y-14701685D01*
X38668699Y-13749304D02*
X38621080Y-13701685D01*
X38573460Y-13606447D01*
X38573460Y-13368352D01*
X38621080Y-13273114D01*
X38668699Y-13225495D01*
X38763937Y-13177876D01*
X38859175Y-13177876D01*
X39002032Y-13225495D01*
X39573460Y-13796923D01*
X39573460Y-13177876D01*
X38668699Y-12796923D02*
X38621080Y-12749304D01*
X38573460Y-12654066D01*
X38573460Y-12415971D01*
X38621080Y-12320733D01*
X38668699Y-12273114D01*
X38763937Y-12225495D01*
X38859175Y-12225495D01*
X39002032Y-12273114D01*
X39573460Y-12844542D01*
X39573460Y-12225495D01*
X42824660Y-14117557D02*
X42348470Y-14450890D01*
X42824660Y-14688985D02*
X41824660Y-14688985D01*
X41824660Y-14308033D01*
X41872280Y-14212795D01*
X41919899Y-14165176D01*
X42015137Y-14117557D01*
X42157994Y-14117557D01*
X42253232Y-14165176D01*
X42300851Y-14212795D01*
X42348470Y-14308033D01*
X42348470Y-14688985D01*
X41919899Y-13736604D02*
X41872280Y-13688985D01*
X41824660Y-13593747D01*
X41824660Y-13355652D01*
X41872280Y-13260414D01*
X41919899Y-13212795D01*
X42015137Y-13165176D01*
X42110375Y-13165176D01*
X42253232Y-13212795D01*
X42824660Y-13784223D01*
X42824660Y-13165176D01*
X41824660Y-12831842D02*
X41824660Y-12212795D01*
X42205613Y-12546128D01*
X42205613Y-12403271D01*
X42253232Y-12308033D01*
X42300851Y-12260414D01*
X42396089Y-12212795D01*
X42634184Y-12212795D01*
X42729422Y-12260414D01*
X42777041Y-12308033D01*
X42824660Y-12403271D01*
X42824660Y-12688985D01*
X42777041Y-12784223D01*
X42729422Y-12831842D01*
X49593760Y-14091057D02*
X49117570Y-14424390D01*
X49593760Y-14662485D02*
X48593760Y-14662485D01*
X48593760Y-14281533D01*
X48641380Y-14186295D01*
X48688999Y-14138676D01*
X48784237Y-14091057D01*
X48927094Y-14091057D01*
X49022332Y-14138676D01*
X49069951Y-14186295D01*
X49117570Y-14281533D01*
X49117570Y-14662485D01*
X48688999Y-13710104D02*
X48641380Y-13662485D01*
X48593760Y-13567247D01*
X48593760Y-13329152D01*
X48641380Y-13233914D01*
X48688999Y-13186295D01*
X48784237Y-13138676D01*
X48879475Y-13138676D01*
X49022332Y-13186295D01*
X49593760Y-13757723D01*
X49593760Y-13138676D01*
X48927094Y-12281533D02*
X49593760Y-12281533D01*
X48546141Y-12519628D02*
X49260427Y-12757723D01*
X49260427Y-12138676D01*
X46279060Y-14130257D02*
X45802870Y-14463590D01*
X46279060Y-14701685D02*
X45279060Y-14701685D01*
X45279060Y-14320733D01*
X45326680Y-14225495D01*
X45374299Y-14177876D01*
X45469537Y-14130257D01*
X45612394Y-14130257D01*
X45707632Y-14177876D01*
X45755251Y-14225495D01*
X45802870Y-14320733D01*
X45802870Y-14701685D01*
X45374299Y-13749304D02*
X45326680Y-13701685D01*
X45279060Y-13606447D01*
X45279060Y-13368352D01*
X45326680Y-13273114D01*
X45374299Y-13225495D01*
X45469537Y-13177876D01*
X45564775Y-13177876D01*
X45707632Y-13225495D01*
X46279060Y-13796923D01*
X46279060Y-13177876D01*
X45279060Y-12273114D02*
X45279060Y-12749304D01*
X45755251Y-12796923D01*
X45707632Y-12749304D01*
X45660013Y-12654066D01*
X45660013Y-12415971D01*
X45707632Y-12320733D01*
X45755251Y-12273114D01*
X45850489Y-12225495D01*
X46088584Y-12225495D01*
X46183822Y-12273114D01*
X46231441Y-12320733D01*
X46279060Y-12415971D01*
X46279060Y-12654066D01*
X46231441Y-12749304D01*
X46183822Y-12796923D01*
X42448242Y-10904480D02*
X42114909Y-10428290D01*
X41876814Y-10904480D02*
X41876814Y-9904480D01*
X42257766Y-9904480D01*
X42353004Y-9952100D01*
X42400623Y-9999719D01*
X42448242Y-10094957D01*
X42448242Y-10237814D01*
X42400623Y-10333052D01*
X42353004Y-10380671D01*
X42257766Y-10428290D01*
X41876814Y-10428290D01*
X42829195Y-9999719D02*
X42876814Y-9952100D01*
X42972052Y-9904480D01*
X43210147Y-9904480D01*
X43305385Y-9952100D01*
X43353004Y-9999719D01*
X43400623Y-10094957D01*
X43400623Y-10190195D01*
X43353004Y-10333052D01*
X42781576Y-10904480D01*
X43400623Y-10904480D01*
X44257766Y-9904480D02*
X44067290Y-9904480D01*
X43972052Y-9952100D01*
X43924433Y-9999719D01*
X43829195Y-10142576D01*
X43781576Y-10333052D01*
X43781576Y-10714004D01*
X43829195Y-10809242D01*
X43876814Y-10856861D01*
X43972052Y-10904480D01*
X44162528Y-10904480D01*
X44257766Y-10856861D01*
X44305385Y-10809242D01*
X44353004Y-10714004D01*
X44353004Y-10475909D01*
X44305385Y-10380671D01*
X44257766Y-10333052D01*
X44162528Y-10285433D01*
X43972052Y-10285433D01*
X43876814Y-10333052D01*
X43829195Y-10380671D01*
X43781576Y-10475909D01*
X35768540Y-17290017D02*
X35292350Y-17623350D01*
X35768540Y-17861445D02*
X34768540Y-17861445D01*
X34768540Y-17480493D01*
X34816160Y-17385255D01*
X34863779Y-17337636D01*
X34959017Y-17290017D01*
X35101874Y-17290017D01*
X35197112Y-17337636D01*
X35244731Y-17385255D01*
X35292350Y-17480493D01*
X35292350Y-17861445D01*
X34863779Y-16909064D02*
X34816160Y-16861445D01*
X34768540Y-16766207D01*
X34768540Y-16528112D01*
X34816160Y-16432874D01*
X34863779Y-16385255D01*
X34959017Y-16337636D01*
X35054255Y-16337636D01*
X35197112Y-16385255D01*
X35768540Y-16956683D01*
X35768540Y-16337636D01*
X34768540Y-16004302D02*
X34768540Y-15337636D01*
X35768540Y-15766207D01*
X35428180Y-43314857D02*
X34951990Y-43648190D01*
X35428180Y-43886285D02*
X34428180Y-43886285D01*
X34428180Y-43505333D01*
X34475800Y-43410095D01*
X34523419Y-43362476D01*
X34618657Y-43314857D01*
X34761514Y-43314857D01*
X34856752Y-43362476D01*
X34904371Y-43410095D01*
X34951990Y-43505333D01*
X34951990Y-43886285D01*
X34523419Y-42933904D02*
X34475800Y-42886285D01*
X34428180Y-42791047D01*
X34428180Y-42552952D01*
X34475800Y-42457714D01*
X34523419Y-42410095D01*
X34618657Y-42362476D01*
X34713895Y-42362476D01*
X34856752Y-42410095D01*
X35428180Y-42981523D01*
X35428180Y-42362476D01*
X34856752Y-41791047D02*
X34809133Y-41886285D01*
X34761514Y-41933904D01*
X34666276Y-41981523D01*
X34618657Y-41981523D01*
X34523419Y-41933904D01*
X34475800Y-41886285D01*
X34428180Y-41791047D01*
X34428180Y-41600571D01*
X34475800Y-41505333D01*
X34523419Y-41457714D01*
X34618657Y-41410095D01*
X34666276Y-41410095D01*
X34761514Y-41457714D01*
X34809133Y-41505333D01*
X34856752Y-41600571D01*
X34856752Y-41791047D01*
X34904371Y-41886285D01*
X34951990Y-41933904D01*
X35047228Y-41981523D01*
X35237704Y-41981523D01*
X35332942Y-41933904D01*
X35380561Y-41886285D01*
X35428180Y-41791047D01*
X35428180Y-41600571D01*
X35380561Y-41505333D01*
X35332942Y-41457714D01*
X35237704Y-41410095D01*
X35047228Y-41410095D01*
X34951990Y-41457714D01*
X34904371Y-41505333D01*
X34856752Y-41600571D01*
X35799020Y-22171897D02*
X35322830Y-22505230D01*
X35799020Y-22743325D02*
X34799020Y-22743325D01*
X34799020Y-22362373D01*
X34846640Y-22267135D01*
X34894259Y-22219516D01*
X34989497Y-22171897D01*
X35132354Y-22171897D01*
X35227592Y-22219516D01*
X35275211Y-22267135D01*
X35322830Y-22362373D01*
X35322830Y-22743325D01*
X34894259Y-21790944D02*
X34846640Y-21743325D01*
X34799020Y-21648087D01*
X34799020Y-21409992D01*
X34846640Y-21314754D01*
X34894259Y-21267135D01*
X34989497Y-21219516D01*
X35084735Y-21219516D01*
X35227592Y-21267135D01*
X35799020Y-21838563D01*
X35799020Y-21219516D01*
X35799020Y-20743325D02*
X35799020Y-20552849D01*
X35751401Y-20457611D01*
X35703782Y-20409992D01*
X35560925Y-20314754D01*
X35370449Y-20267135D01*
X34989497Y-20267135D01*
X34894259Y-20314754D01*
X34846640Y-20362373D01*
X34799020Y-20457611D01*
X34799020Y-20648087D01*
X34846640Y-20743325D01*
X34894259Y-20790944D01*
X34989497Y-20838563D01*
X35227592Y-20838563D01*
X35322830Y-20790944D01*
X35370449Y-20743325D01*
X35418068Y-20648087D01*
X35418068Y-20457611D01*
X35370449Y-20362373D01*
X35322830Y-20314754D01*
X35227592Y-20267135D01*
X31618180Y-33434257D02*
X31141990Y-33767590D01*
X31618180Y-34005685D02*
X30618180Y-34005685D01*
X30618180Y-33624733D01*
X30665800Y-33529495D01*
X30713419Y-33481876D01*
X30808657Y-33434257D01*
X30951514Y-33434257D01*
X31046752Y-33481876D01*
X31094371Y-33529495D01*
X31141990Y-33624733D01*
X31141990Y-34005685D01*
X30618180Y-33100923D02*
X30618180Y-32481876D01*
X30999133Y-32815209D01*
X30999133Y-32672352D01*
X31046752Y-32577114D01*
X31094371Y-32529495D01*
X31189609Y-32481876D01*
X31427704Y-32481876D01*
X31522942Y-32529495D01*
X31570561Y-32577114D01*
X31618180Y-32672352D01*
X31618180Y-32958066D01*
X31570561Y-33053304D01*
X31522942Y-33100923D01*
X30618180Y-31862828D02*
X30618180Y-31767590D01*
X30665800Y-31672352D01*
X30713419Y-31624733D01*
X30808657Y-31577114D01*
X30999133Y-31529495D01*
X31237228Y-31529495D01*
X31427704Y-31577114D01*
X31522942Y-31624733D01*
X31570561Y-31672352D01*
X31618180Y-31767590D01*
X31618180Y-31862828D01*
X31570561Y-31958066D01*
X31522942Y-32005685D01*
X31427704Y-32053304D01*
X31237228Y-32100923D01*
X30999133Y-32100923D01*
X30808657Y-32053304D01*
X30713419Y-32005685D01*
X30665800Y-31958066D01*
X30618180Y-31862828D01*
X28760680Y-33294557D02*
X28284490Y-33627890D01*
X28760680Y-33865985D02*
X27760680Y-33865985D01*
X27760680Y-33485033D01*
X27808300Y-33389795D01*
X27855919Y-33342176D01*
X27951157Y-33294557D01*
X28094014Y-33294557D01*
X28189252Y-33342176D01*
X28236871Y-33389795D01*
X28284490Y-33485033D01*
X28284490Y-33865985D01*
X27760680Y-32961223D02*
X27760680Y-32342176D01*
X28141633Y-32675509D01*
X28141633Y-32532652D01*
X28189252Y-32437414D01*
X28236871Y-32389795D01*
X28332109Y-32342176D01*
X28570204Y-32342176D01*
X28665442Y-32389795D01*
X28713061Y-32437414D01*
X28760680Y-32532652D01*
X28760680Y-32818366D01*
X28713061Y-32913604D01*
X28665442Y-32961223D01*
X28760680Y-31389795D02*
X28760680Y-31961223D01*
X28760680Y-31675509D02*
X27760680Y-31675509D01*
X27903538Y-31770747D01*
X27998776Y-31865985D01*
X28046395Y-31961223D01*
X45867580Y-88780857D02*
X45391390Y-89114190D01*
X45867580Y-89352285D02*
X44867580Y-89352285D01*
X44867580Y-88971333D01*
X44915200Y-88876095D01*
X44962819Y-88828476D01*
X45058057Y-88780857D01*
X45200914Y-88780857D01*
X45296152Y-88828476D01*
X45343771Y-88876095D01*
X45391390Y-88971333D01*
X45391390Y-89352285D01*
X44867580Y-88447523D02*
X44867580Y-87828476D01*
X45248533Y-88161809D01*
X45248533Y-88018952D01*
X45296152Y-87923714D01*
X45343771Y-87876095D01*
X45439009Y-87828476D01*
X45677104Y-87828476D01*
X45772342Y-87876095D01*
X45819961Y-87923714D01*
X45867580Y-88018952D01*
X45867580Y-88304666D01*
X45819961Y-88399904D01*
X45772342Y-88447523D01*
X44962819Y-87447523D02*
X44915200Y-87399904D01*
X44867580Y-87304666D01*
X44867580Y-87066571D01*
X44915200Y-86971333D01*
X44962819Y-86923714D01*
X45058057Y-86876095D01*
X45153295Y-86876095D01*
X45296152Y-86923714D01*
X45867580Y-87495142D01*
X45867580Y-86876095D01*
X57764442Y-89403180D02*
X57431109Y-88926990D01*
X57193014Y-89403180D02*
X57193014Y-88403180D01*
X57573966Y-88403180D01*
X57669204Y-88450800D01*
X57716823Y-88498419D01*
X57764442Y-88593657D01*
X57764442Y-88736514D01*
X57716823Y-88831752D01*
X57669204Y-88879371D01*
X57573966Y-88926990D01*
X57193014Y-88926990D01*
X58097776Y-88403180D02*
X58716823Y-88403180D01*
X58383490Y-88784133D01*
X58526347Y-88784133D01*
X58621585Y-88831752D01*
X58669204Y-88879371D01*
X58716823Y-88974609D01*
X58716823Y-89212704D01*
X58669204Y-89307942D01*
X58621585Y-89355561D01*
X58526347Y-89403180D01*
X58240633Y-89403180D01*
X58145395Y-89355561D01*
X58097776Y-89307942D01*
X59050157Y-88403180D02*
X59669204Y-88403180D01*
X59335871Y-88784133D01*
X59478728Y-88784133D01*
X59573966Y-88831752D01*
X59621585Y-88879371D01*
X59669204Y-88974609D01*
X59669204Y-89212704D01*
X59621585Y-89307942D01*
X59573966Y-89355561D01*
X59478728Y-89403180D01*
X59193014Y-89403180D01*
X59097776Y-89355561D01*
X59050157Y-89307942D01*
X26889460Y-22466204D02*
X27698984Y-22466204D01*
X27794222Y-22418585D01*
X27841841Y-22370966D01*
X27889460Y-22275728D01*
X27889460Y-22085252D01*
X27841841Y-21990014D01*
X27794222Y-21942395D01*
X27698984Y-21894776D01*
X26889460Y-21894776D01*
X26889460Y-20942395D02*
X26889460Y-21418585D01*
X27365651Y-21466204D01*
X27318032Y-21418585D01*
X27270413Y-21323347D01*
X27270413Y-21085252D01*
X27318032Y-20990014D01*
X27365651Y-20942395D01*
X27460889Y-20894776D01*
X27698984Y-20894776D01*
X27794222Y-20942395D01*
X27841841Y-20990014D01*
X27889460Y-21085252D01*
X27889460Y-21323347D01*
X27841841Y-21418585D01*
X27794222Y-21466204D01*
X51465666Y-22324790D02*
X52275190Y-22324790D01*
X52370428Y-22277171D01*
X52418047Y-22229552D01*
X52465666Y-22134314D01*
X52465666Y-21943838D01*
X52418047Y-21848600D01*
X52370428Y-21800981D01*
X52275190Y-21753362D01*
X51465666Y-21753362D01*
X51465666Y-21372409D02*
X51465666Y-20705743D01*
X52465666Y-21134314D01*
X25150842Y-40349442D02*
X25103223Y-40397061D01*
X24960366Y-40444680D01*
X24865128Y-40444680D01*
X24722271Y-40397061D01*
X24627033Y-40301823D01*
X24579414Y-40206585D01*
X24531795Y-40016109D01*
X24531795Y-39873252D01*
X24579414Y-39682776D01*
X24627033Y-39587538D01*
X24722271Y-39492300D01*
X24865128Y-39444680D01*
X24960366Y-39444680D01*
X25103223Y-39492300D01*
X25150842Y-39539919D01*
X25484176Y-39444680D02*
X26103223Y-39444680D01*
X25769890Y-39825633D01*
X25912747Y-39825633D01*
X26007985Y-39873252D01*
X26055604Y-39920871D01*
X26103223Y-40016109D01*
X26103223Y-40254204D01*
X26055604Y-40349442D01*
X26007985Y-40397061D01*
X25912747Y-40444680D01*
X25627033Y-40444680D01*
X25531795Y-40397061D01*
X25484176Y-40349442D01*
X26674652Y-39873252D02*
X26579414Y-39825633D01*
X26531795Y-39778014D01*
X26484176Y-39682776D01*
X26484176Y-39635157D01*
X26531795Y-39539919D01*
X26579414Y-39492300D01*
X26674652Y-39444680D01*
X26865128Y-39444680D01*
X26960366Y-39492300D01*
X27007985Y-39539919D01*
X27055604Y-39635157D01*
X27055604Y-39682776D01*
X27007985Y-39778014D01*
X26960366Y-39825633D01*
X26865128Y-39873252D01*
X26674652Y-39873252D01*
X26579414Y-39920871D01*
X26531795Y-39968490D01*
X26484176Y-40063728D01*
X26484176Y-40254204D01*
X26531795Y-40349442D01*
X26579414Y-40397061D01*
X26674652Y-40444680D01*
X26865128Y-40444680D01*
X26960366Y-40397061D01*
X27007985Y-40349442D01*
X27055604Y-40254204D01*
X27055604Y-40063728D01*
X27007985Y-39968490D01*
X26960366Y-39920871D01*
X26865128Y-39873252D01*
X967502Y-86661262D02*
X919883Y-86708881D01*
X777026Y-86756500D01*
X681788Y-86756500D01*
X538931Y-86708881D01*
X443693Y-86613643D01*
X396074Y-86518405D01*
X348455Y-86327929D01*
X348455Y-86185072D01*
X396074Y-85994596D01*
X443693Y-85899358D01*
X538931Y-85804120D01*
X681788Y-85756500D01*
X777026Y-85756500D01*
X919883Y-85804120D01*
X967502Y-85851739D01*
X1824645Y-86089834D02*
X1824645Y-86756500D01*
X1586550Y-85708881D02*
X1348455Y-86423167D01*
X1967502Y-86423167D01*
X2824645Y-85756500D02*
X2348455Y-85756500D01*
X2300836Y-86232691D01*
X2348455Y-86185072D01*
X2443693Y-86137453D01*
X2681788Y-86137453D01*
X2777026Y-86185072D01*
X2824645Y-86232691D01*
X2872264Y-86327929D01*
X2872264Y-86566024D01*
X2824645Y-86661262D01*
X2777026Y-86708881D01*
X2681788Y-86756500D01*
X2443693Y-86756500D01*
X2348455Y-86708881D01*
X2300836Y-86661262D01*
X34834604Y-35097980D02*
X34834604Y-34097980D01*
X35072700Y-34097980D01*
X35215557Y-34145600D01*
X35310795Y-34240838D01*
X35358414Y-34336076D01*
X35406033Y-34526552D01*
X35406033Y-34669409D01*
X35358414Y-34859885D01*
X35310795Y-34955123D01*
X35215557Y-35050361D01*
X35072700Y-35097980D01*
X34834604Y-35097980D01*
X35882223Y-35097980D02*
X36072700Y-35097980D01*
X36167938Y-35050361D01*
X36215557Y-35002742D01*
X36310795Y-34859885D01*
X36358414Y-34669409D01*
X36358414Y-34288457D01*
X36310795Y-34193219D01*
X36263176Y-34145600D01*
X36167938Y-34097980D01*
X35977461Y-34097980D01*
X35882223Y-34145600D01*
X35834604Y-34193219D01*
X35786985Y-34288457D01*
X35786985Y-34526552D01*
X35834604Y-34621790D01*
X35882223Y-34669409D01*
X35977461Y-34717028D01*
X36167938Y-34717028D01*
X36263176Y-34669409D01*
X36310795Y-34621790D01*
X36358414Y-34526552D01*
X11366334Y-27782780D02*
X11366334Y-26782780D01*
X11604429Y-26782780D01*
X11747286Y-26830400D01*
X11842524Y-26925638D01*
X11890143Y-27020876D01*
X11937762Y-27211352D01*
X11937762Y-27354209D01*
X11890143Y-27544685D01*
X11842524Y-27639923D01*
X11747286Y-27735161D01*
X11604429Y-27782780D01*
X11366334Y-27782780D01*
X12890143Y-27782780D02*
X12318715Y-27782780D01*
X12604429Y-27782780D02*
X12604429Y-26782780D01*
X12509191Y-26925638D01*
X12413953Y-27020876D01*
X12318715Y-27068495D01*
X13509191Y-26782780D02*
X13604429Y-26782780D01*
X13699667Y-26830400D01*
X13747286Y-26878019D01*
X13794905Y-26973257D01*
X13842524Y-27163733D01*
X13842524Y-27401828D01*
X13794905Y-27592304D01*
X13747286Y-27687542D01*
X13699667Y-27735161D01*
X13604429Y-27782780D01*
X13509191Y-27782780D01*
X13413953Y-27735161D01*
X13366334Y-27687542D01*
X13318715Y-27592304D01*
X13271096Y-27401828D01*
X13271096Y-27163733D01*
X13318715Y-26973257D01*
X13366334Y-26878019D01*
X13413953Y-26830400D01*
X13509191Y-26782780D01*
X42821694Y-27528780D02*
X42821694Y-26528780D01*
X43059789Y-26528780D01*
X43202646Y-26576400D01*
X43297884Y-26671638D01*
X43345503Y-26766876D01*
X43393122Y-26957352D01*
X43393122Y-27100209D01*
X43345503Y-27290685D01*
X43297884Y-27385923D01*
X43202646Y-27481161D01*
X43059789Y-27528780D01*
X42821694Y-27528780D01*
X44345503Y-27528780D02*
X43774075Y-27528780D01*
X44059789Y-27528780D02*
X44059789Y-26528780D01*
X43964551Y-26671638D01*
X43869313Y-26766876D01*
X43774075Y-26814495D01*
X45297884Y-27528780D02*
X44726456Y-27528780D01*
X45012170Y-27528780D02*
X45012170Y-26528780D01*
X44916932Y-26671638D01*
X44821694Y-26766876D01*
X44726456Y-26814495D01*
X59634380Y-80716285D02*
X58634380Y-80716285D01*
X58634380Y-80478190D01*
X58682000Y-80335333D01*
X58777238Y-80240095D01*
X58872476Y-80192476D01*
X59062952Y-80144857D01*
X59205809Y-80144857D01*
X59396285Y-80192476D01*
X59491523Y-80240095D01*
X59586761Y-80335333D01*
X59634380Y-80478190D01*
X59634380Y-80716285D01*
X59634380Y-79192476D02*
X59634380Y-79763904D01*
X59634380Y-79478190D02*
X58634380Y-79478190D01*
X58777238Y-79573428D01*
X58872476Y-79668666D01*
X58920095Y-79763904D01*
X58729619Y-78811523D02*
X58682000Y-78763904D01*
X58634380Y-78668666D01*
X58634380Y-78430571D01*
X58682000Y-78335333D01*
X58729619Y-78287714D01*
X58824857Y-78240095D01*
X58920095Y-78240095D01*
X59062952Y-78287714D01*
X59634380Y-78859142D01*
X59634380Y-78240095D01*
X53131980Y-83662685D02*
X52131980Y-83662685D01*
X52131980Y-83424590D01*
X52179600Y-83281733D01*
X52274838Y-83186495D01*
X52370076Y-83138876D01*
X52560552Y-83091257D01*
X52703409Y-83091257D01*
X52893885Y-83138876D01*
X52989123Y-83186495D01*
X53084361Y-83281733D01*
X53131980Y-83424590D01*
X53131980Y-83662685D01*
X53131980Y-82138876D02*
X53131980Y-82710304D01*
X53131980Y-82424590D02*
X52131980Y-82424590D01*
X52274838Y-82519828D01*
X52370076Y-82615066D01*
X52417695Y-82710304D01*
X52131980Y-81805542D02*
X52131980Y-81186495D01*
X52512933Y-81519828D01*
X52512933Y-81376971D01*
X52560552Y-81281733D01*
X52608171Y-81234114D01*
X52703409Y-81186495D01*
X52941504Y-81186495D01*
X53036742Y-81234114D01*
X53084361Y-81281733D01*
X53131980Y-81376971D01*
X53131980Y-81662685D01*
X53084361Y-81757923D01*
X53036742Y-81805542D01*
X1542040Y-74246905D02*
X542040Y-74246905D01*
X542040Y-74008810D01*
X589660Y-73865953D01*
X684898Y-73770715D01*
X780136Y-73723096D01*
X970612Y-73675477D01*
X1113469Y-73675477D01*
X1303945Y-73723096D01*
X1399183Y-73770715D01*
X1494421Y-73865953D01*
X1542040Y-74008810D01*
X1542040Y-74246905D01*
X1542040Y-72723096D02*
X1542040Y-73294524D01*
X1542040Y-73008810D02*
X542040Y-73008810D01*
X684898Y-73104048D01*
X780136Y-73199286D01*
X827755Y-73294524D01*
X875374Y-71865953D02*
X1542040Y-71865953D01*
X494421Y-72104048D02*
X1208707Y-72342143D01*
X1208707Y-71723096D01*
X7899660Y-75082565D02*
X6899660Y-75082565D01*
X6899660Y-74844470D01*
X6947280Y-74701613D01*
X7042518Y-74606375D01*
X7137756Y-74558756D01*
X7328232Y-74511137D01*
X7471089Y-74511137D01*
X7661565Y-74558756D01*
X7756803Y-74606375D01*
X7852041Y-74701613D01*
X7899660Y-74844470D01*
X7899660Y-75082565D01*
X7899660Y-73558756D02*
X7899660Y-74130184D01*
X7899660Y-73844470D02*
X6899660Y-73844470D01*
X7042518Y-73939708D01*
X7137756Y-74034946D01*
X7185375Y-74130184D01*
X6899660Y-72653994D02*
X6899660Y-73130184D01*
X7375851Y-73177803D01*
X7328232Y-73130184D01*
X7280613Y-73034946D01*
X7280613Y-72796851D01*
X7328232Y-72701613D01*
X7375851Y-72653994D01*
X7471089Y-72606375D01*
X7709184Y-72606375D01*
X7804422Y-72653994D01*
X7852041Y-72701613D01*
X7899660Y-72796851D01*
X7899660Y-73034946D01*
X7852041Y-73130184D01*
X7804422Y-73177803D01*
X19500580Y-83903985D02*
X18500580Y-83903985D01*
X18500580Y-83665890D01*
X18548200Y-83523033D01*
X18643438Y-83427795D01*
X18738676Y-83380176D01*
X18929152Y-83332557D01*
X19072009Y-83332557D01*
X19262485Y-83380176D01*
X19357723Y-83427795D01*
X19452961Y-83523033D01*
X19500580Y-83665890D01*
X19500580Y-83903985D01*
X19500580Y-82380176D02*
X19500580Y-82951604D01*
X19500580Y-82665890D02*
X18500580Y-82665890D01*
X18643438Y-82761128D01*
X18738676Y-82856366D01*
X18786295Y-82951604D01*
X18500580Y-81523033D02*
X18500580Y-81713509D01*
X18548200Y-81808747D01*
X18595819Y-81856366D01*
X18738676Y-81951604D01*
X18929152Y-81999223D01*
X19310104Y-81999223D01*
X19405342Y-81951604D01*
X19452961Y-81903985D01*
X19500580Y-81808747D01*
X19500580Y-81618271D01*
X19452961Y-81523033D01*
X19405342Y-81475414D01*
X19310104Y-81427795D01*
X19072009Y-81427795D01*
X18976771Y-81475414D01*
X18929152Y-81523033D01*
X18881533Y-81618271D01*
X18881533Y-81808747D01*
X18929152Y-81903985D01*
X18976771Y-81951604D01*
X19072009Y-81999223D01*
X14903180Y-79649485D02*
X13903180Y-79649485D01*
X13903180Y-79411390D01*
X13950800Y-79268533D01*
X14046038Y-79173295D01*
X14141276Y-79125676D01*
X14331752Y-79078057D01*
X14474609Y-79078057D01*
X14665085Y-79125676D01*
X14760323Y-79173295D01*
X14855561Y-79268533D01*
X14903180Y-79411390D01*
X14903180Y-79649485D01*
X14903180Y-78125676D02*
X14903180Y-78697104D01*
X14903180Y-78411390D02*
X13903180Y-78411390D01*
X14046038Y-78506628D01*
X14141276Y-78601866D01*
X14188895Y-78697104D01*
X13903180Y-77792342D02*
X13903180Y-77125676D01*
X14903180Y-77554247D01*
X36225171Y-81829233D02*
X36225171Y-82162566D01*
X36748980Y-82162566D02*
X35748980Y-82162566D01*
X35748980Y-81686376D01*
X36748980Y-80781614D02*
X36748980Y-81353042D01*
X36748980Y-81067328D02*
X35748980Y-81067328D01*
X35891838Y-81162566D01*
X35987076Y-81257804D01*
X36034695Y-81353042D01*
X54725819Y-75203038D02*
X54678200Y-75298276D01*
X54582961Y-75393514D01*
X54440104Y-75536371D01*
X54392485Y-75631609D01*
X54392485Y-75726847D01*
X54630580Y-75679228D02*
X54582961Y-75774466D01*
X54487723Y-75869704D01*
X54297247Y-75917323D01*
X53963914Y-75917323D01*
X53773438Y-75869704D01*
X53678200Y-75774466D01*
X53630580Y-75679228D01*
X53630580Y-75488752D01*
X53678200Y-75393514D01*
X53773438Y-75298276D01*
X53963914Y-75250657D01*
X54297247Y-75250657D01*
X54487723Y-75298276D01*
X54582961Y-75393514D01*
X54630580Y-75488752D01*
X54630580Y-75679228D01*
X53630580Y-74345895D02*
X53630580Y-74822085D01*
X54106771Y-74869704D01*
X54059152Y-74822085D01*
X54011533Y-74726847D01*
X54011533Y-74488752D01*
X54059152Y-74393514D01*
X54106771Y-74345895D01*
X54202009Y-74298276D01*
X54440104Y-74298276D01*
X54535342Y-74345895D01*
X54582961Y-74393514D01*
X54630580Y-74488752D01*
X54630580Y-74726847D01*
X54582961Y-74822085D01*
X54535342Y-74869704D01*
X48083719Y-78124038D02*
X48036100Y-78219276D01*
X47940861Y-78314514D01*
X47798004Y-78457371D01*
X47750385Y-78552609D01*
X47750385Y-78647847D01*
X47988480Y-78600228D02*
X47940861Y-78695466D01*
X47845623Y-78790704D01*
X47655147Y-78838323D01*
X47321814Y-78838323D01*
X47131338Y-78790704D01*
X47036100Y-78695466D01*
X46988480Y-78600228D01*
X46988480Y-78409752D01*
X47036100Y-78314514D01*
X47131338Y-78219276D01*
X47321814Y-78171657D01*
X47655147Y-78171657D01*
X47845623Y-78219276D01*
X47940861Y-78314514D01*
X47988480Y-78409752D01*
X47988480Y-78600228D01*
X46988480Y-77314514D02*
X46988480Y-77504990D01*
X47036100Y-77600228D01*
X47083719Y-77647847D01*
X47226576Y-77743085D01*
X47417052Y-77790704D01*
X47798004Y-77790704D01*
X47893242Y-77743085D01*
X47940861Y-77695466D01*
X47988480Y-77600228D01*
X47988480Y-77409752D01*
X47940861Y-77314514D01*
X47893242Y-77266895D01*
X47798004Y-77219276D01*
X47559909Y-77219276D01*
X47464671Y-77266895D01*
X47417052Y-77314514D01*
X47369433Y-77409752D01*
X47369433Y-77600228D01*
X47417052Y-77695466D01*
X47464671Y-77743085D01*
X47559909Y-77790704D01*
X21286719Y-78428838D02*
X21239100Y-78524076D01*
X21143861Y-78619314D01*
X21001004Y-78762171D01*
X20953385Y-78857409D01*
X20953385Y-78952647D01*
X21191480Y-78905028D02*
X21143861Y-79000266D01*
X21048623Y-79095504D01*
X20858147Y-79143123D01*
X20524814Y-79143123D01*
X20334338Y-79095504D01*
X20239100Y-79000266D01*
X20191480Y-78905028D01*
X20191480Y-78714552D01*
X20239100Y-78619314D01*
X20334338Y-78524076D01*
X20524814Y-78476457D01*
X20858147Y-78476457D01*
X21048623Y-78524076D01*
X21143861Y-78619314D01*
X21191480Y-78714552D01*
X21191480Y-78905028D01*
X20191480Y-78143123D02*
X20191480Y-77476457D01*
X21191480Y-77905028D01*
X16001619Y-74428338D02*
X15954000Y-74523576D01*
X15858761Y-74618814D01*
X15715904Y-74761671D01*
X15668285Y-74856909D01*
X15668285Y-74952147D01*
X15906380Y-74904528D02*
X15858761Y-74999766D01*
X15763523Y-75095004D01*
X15573047Y-75142623D01*
X15239714Y-75142623D01*
X15049238Y-75095004D01*
X14954000Y-74999766D01*
X14906380Y-74904528D01*
X14906380Y-74714052D01*
X14954000Y-74618814D01*
X15049238Y-74523576D01*
X15239714Y-74475957D01*
X15573047Y-74475957D01*
X15763523Y-74523576D01*
X15858761Y-74618814D01*
X15906380Y-74714052D01*
X15906380Y-74904528D01*
X15334952Y-73904528D02*
X15287333Y-73999766D01*
X15239714Y-74047385D01*
X15144476Y-74095004D01*
X15096857Y-74095004D01*
X15001619Y-74047385D01*
X14954000Y-73999766D01*
X14906380Y-73904528D01*
X14906380Y-73714052D01*
X14954000Y-73618814D01*
X15001619Y-73571195D01*
X15096857Y-73523576D01*
X15144476Y-73523576D01*
X15239714Y-73571195D01*
X15287333Y-73618814D01*
X15334952Y-73714052D01*
X15334952Y-73904528D01*
X15382571Y-73999766D01*
X15430190Y-74047385D01*
X15525428Y-74095004D01*
X15715904Y-74095004D01*
X15811142Y-74047385D01*
X15858761Y-73999766D01*
X15906380Y-73904528D01*
X15906380Y-73714052D01*
X15858761Y-73618814D01*
X15811142Y-73571195D01*
X15715904Y-73523576D01*
X15525428Y-73523576D01*
X15430190Y-73571195D01*
X15382571Y-73618814D01*
X15334952Y-73714052D01*
X56321480Y-71699357D02*
X55845290Y-72032690D01*
X56321480Y-72270785D02*
X55321480Y-72270785D01*
X55321480Y-71889833D01*
X55369100Y-71794595D01*
X55416719Y-71746976D01*
X55511957Y-71699357D01*
X55654814Y-71699357D01*
X55750052Y-71746976D01*
X55797671Y-71794595D01*
X55845290Y-71889833D01*
X55845290Y-72270785D01*
X55321480Y-71366023D02*
X55321480Y-70746976D01*
X55702433Y-71080309D01*
X55702433Y-70937452D01*
X55750052Y-70842214D01*
X55797671Y-70794595D01*
X55892909Y-70746976D01*
X56131004Y-70746976D01*
X56226242Y-70794595D01*
X56273861Y-70842214D01*
X56321480Y-70937452D01*
X56321480Y-71223166D01*
X56273861Y-71318404D01*
X56226242Y-71366023D01*
X55654814Y-69889833D02*
X56321480Y-69889833D01*
X55273861Y-70127928D02*
X55988147Y-70366023D01*
X55988147Y-69746976D01*
X59634380Y-85021657D02*
X59158190Y-85354990D01*
X59634380Y-85593085D02*
X58634380Y-85593085D01*
X58634380Y-85212133D01*
X58682000Y-85116895D01*
X58729619Y-85069276D01*
X58824857Y-85021657D01*
X58967714Y-85021657D01*
X59062952Y-85069276D01*
X59110571Y-85116895D01*
X59158190Y-85212133D01*
X59158190Y-85593085D01*
X58634380Y-84688323D02*
X58634380Y-84069276D01*
X59015333Y-84402609D01*
X59015333Y-84259752D01*
X59062952Y-84164514D01*
X59110571Y-84116895D01*
X59205809Y-84069276D01*
X59443904Y-84069276D01*
X59539142Y-84116895D01*
X59586761Y-84164514D01*
X59634380Y-84259752D01*
X59634380Y-84545466D01*
X59586761Y-84640704D01*
X59539142Y-84688323D01*
X58634380Y-83164514D02*
X58634380Y-83640704D01*
X59110571Y-83688323D01*
X59062952Y-83640704D01*
X59015333Y-83545466D01*
X59015333Y-83307371D01*
X59062952Y-83212133D01*
X59110571Y-83164514D01*
X59205809Y-83116895D01*
X59443904Y-83116895D01*
X59539142Y-83164514D01*
X59586761Y-83212133D01*
X59634380Y-83307371D01*
X59634380Y-83545466D01*
X59586761Y-83640704D01*
X59539142Y-83688323D01*
X53284380Y-87053657D02*
X52808190Y-87386990D01*
X53284380Y-87625085D02*
X52284380Y-87625085D01*
X52284380Y-87244133D01*
X52332000Y-87148895D01*
X52379619Y-87101276D01*
X52474857Y-87053657D01*
X52617714Y-87053657D01*
X52712952Y-87101276D01*
X52760571Y-87148895D01*
X52808190Y-87244133D01*
X52808190Y-87625085D01*
X52284380Y-86720323D02*
X52284380Y-86101276D01*
X52665333Y-86434609D01*
X52665333Y-86291752D01*
X52712952Y-86196514D01*
X52760571Y-86148895D01*
X52855809Y-86101276D01*
X53093904Y-86101276D01*
X53189142Y-86148895D01*
X53236761Y-86196514D01*
X53284380Y-86291752D01*
X53284380Y-86577466D01*
X53236761Y-86672704D01*
X53189142Y-86720323D01*
X52284380Y-85244133D02*
X52284380Y-85434609D01*
X52332000Y-85529847D01*
X52379619Y-85577466D01*
X52522476Y-85672704D01*
X52712952Y-85720323D01*
X53093904Y-85720323D01*
X53189142Y-85672704D01*
X53236761Y-85625085D01*
X53284380Y-85529847D01*
X53284380Y-85339371D01*
X53236761Y-85244133D01*
X53189142Y-85196514D01*
X53093904Y-85148895D01*
X52855809Y-85148895D01*
X52760571Y-85196514D01*
X52712952Y-85244133D01*
X52665333Y-85339371D01*
X52665333Y-85529847D01*
X52712952Y-85625085D01*
X52760571Y-85672704D01*
X52855809Y-85720323D01*
X45000942Y-75801480D02*
X44667609Y-75325290D01*
X44429514Y-75801480D02*
X44429514Y-74801480D01*
X44810466Y-74801480D01*
X44905704Y-74849100D01*
X44953323Y-74896719D01*
X45000942Y-74991957D01*
X45000942Y-75134814D01*
X44953323Y-75230052D01*
X44905704Y-75277671D01*
X44810466Y-75325290D01*
X44429514Y-75325290D01*
X45334276Y-74801480D02*
X45953323Y-74801480D01*
X45619990Y-75182433D01*
X45762847Y-75182433D01*
X45858085Y-75230052D01*
X45905704Y-75277671D01*
X45953323Y-75372909D01*
X45953323Y-75611004D01*
X45905704Y-75706242D01*
X45858085Y-75753861D01*
X45762847Y-75801480D01*
X45477133Y-75801480D01*
X45381895Y-75753861D01*
X45334276Y-75706242D01*
X46286657Y-74801480D02*
X46953323Y-74801480D01*
X46524752Y-75801480D01*
X49893480Y-72601057D02*
X49417290Y-72934390D01*
X49893480Y-73172485D02*
X48893480Y-73172485D01*
X48893480Y-72791533D01*
X48941100Y-72696295D01*
X48988719Y-72648676D01*
X49083957Y-72601057D01*
X49226814Y-72601057D01*
X49322052Y-72648676D01*
X49369671Y-72696295D01*
X49417290Y-72791533D01*
X49417290Y-73172485D01*
X48893480Y-72267723D02*
X48893480Y-71648676D01*
X49274433Y-71982009D01*
X49274433Y-71839152D01*
X49322052Y-71743914D01*
X49369671Y-71696295D01*
X49464909Y-71648676D01*
X49703004Y-71648676D01*
X49798242Y-71696295D01*
X49845861Y-71743914D01*
X49893480Y-71839152D01*
X49893480Y-72124866D01*
X49845861Y-72220104D01*
X49798242Y-72267723D01*
X49322052Y-71077247D02*
X49274433Y-71172485D01*
X49226814Y-71220104D01*
X49131576Y-71267723D01*
X49083957Y-71267723D01*
X48988719Y-71220104D01*
X48941100Y-71172485D01*
X48893480Y-71077247D01*
X48893480Y-70886771D01*
X48941100Y-70791533D01*
X48988719Y-70743914D01*
X49083957Y-70696295D01*
X49131576Y-70696295D01*
X49226814Y-70743914D01*
X49274433Y-70791533D01*
X49322052Y-70886771D01*
X49322052Y-71077247D01*
X49369671Y-71172485D01*
X49417290Y-71220104D01*
X49512528Y-71267723D01*
X49703004Y-71267723D01*
X49798242Y-71220104D01*
X49845861Y-71172485D01*
X49893480Y-71077247D01*
X49893480Y-70886771D01*
X49845861Y-70791533D01*
X49798242Y-70743914D01*
X49703004Y-70696295D01*
X49512528Y-70696295D01*
X49417290Y-70743914D01*
X49369671Y-70791533D01*
X49322052Y-70886771D01*
X19616680Y-74671157D02*
X19140490Y-75004490D01*
X19616680Y-75242585D02*
X18616680Y-75242585D01*
X18616680Y-74861633D01*
X18664300Y-74766395D01*
X18711919Y-74718776D01*
X18807157Y-74671157D01*
X18950014Y-74671157D01*
X19045252Y-74718776D01*
X19092871Y-74766395D01*
X19140490Y-74861633D01*
X19140490Y-75242585D01*
X18616680Y-74337823D02*
X18616680Y-73718776D01*
X18997633Y-74052109D01*
X18997633Y-73909252D01*
X19045252Y-73814014D01*
X19092871Y-73766395D01*
X19188109Y-73718776D01*
X19426204Y-73718776D01*
X19521442Y-73766395D01*
X19569061Y-73814014D01*
X19616680Y-73909252D01*
X19616680Y-74194966D01*
X19569061Y-74290204D01*
X19521442Y-74337823D01*
X19616680Y-73242585D02*
X19616680Y-73052109D01*
X19569061Y-72956871D01*
X19521442Y-72909252D01*
X19378585Y-72814014D01*
X19188109Y-72766395D01*
X18807157Y-72766395D01*
X18711919Y-72814014D01*
X18664300Y-72861633D01*
X18616680Y-72956871D01*
X18616680Y-73147347D01*
X18664300Y-73242585D01*
X18711919Y-73290204D01*
X18807157Y-73337823D01*
X19045252Y-73337823D01*
X19140490Y-73290204D01*
X19188109Y-73242585D01*
X19235728Y-73147347D01*
X19235728Y-72956871D01*
X19188109Y-72861633D01*
X19140490Y-72814014D01*
X19045252Y-72766395D01*
X22090142Y-86952080D02*
X21756809Y-86475890D01*
X21518714Y-86952080D02*
X21518714Y-85952080D01*
X21899666Y-85952080D01*
X21994904Y-85999700D01*
X22042523Y-86047319D01*
X22090142Y-86142557D01*
X22090142Y-86285414D01*
X22042523Y-86380652D01*
X21994904Y-86428271D01*
X21899666Y-86475890D01*
X21518714Y-86475890D01*
X22947285Y-86285414D02*
X22947285Y-86952080D01*
X22709190Y-85904461D02*
X22471095Y-86618747D01*
X23090142Y-86618747D01*
X23661571Y-85952080D02*
X23756809Y-85952080D01*
X23852047Y-85999700D01*
X23899666Y-86047319D01*
X23947285Y-86142557D01*
X23994904Y-86333033D01*
X23994904Y-86571128D01*
X23947285Y-86761604D01*
X23899666Y-86856842D01*
X23852047Y-86904461D01*
X23756809Y-86952080D01*
X23661571Y-86952080D01*
X23566333Y-86904461D01*
X23518714Y-86856842D01*
X23471095Y-86761604D01*
X23423476Y-86571128D01*
X23423476Y-86333033D01*
X23471095Y-86142557D01*
X23518714Y-86047319D01*
X23566333Y-85999700D01*
X23661571Y-85952080D01*
X11503180Y-83942157D02*
X11026990Y-84275490D01*
X11503180Y-84513585D02*
X10503180Y-84513585D01*
X10503180Y-84132633D01*
X10550800Y-84037395D01*
X10598419Y-83989776D01*
X10693657Y-83942157D01*
X10836514Y-83942157D01*
X10931752Y-83989776D01*
X10979371Y-84037395D01*
X11026990Y-84132633D01*
X11026990Y-84513585D01*
X10836514Y-83085014D02*
X11503180Y-83085014D01*
X10455561Y-83323109D02*
X11169847Y-83561204D01*
X11169847Y-82942157D01*
X11503180Y-82037395D02*
X11503180Y-82608823D01*
X11503180Y-82323109D02*
X10503180Y-82323109D01*
X10646038Y-82418347D01*
X10741276Y-82513585D01*
X10788895Y-82608823D01*
X8285242Y-72054980D02*
X7951909Y-71578790D01*
X7713814Y-72054980D02*
X7713814Y-71054980D01*
X8094766Y-71054980D01*
X8190004Y-71102600D01*
X8237623Y-71150219D01*
X8285242Y-71245457D01*
X8285242Y-71388314D01*
X8237623Y-71483552D01*
X8190004Y-71531171D01*
X8094766Y-71578790D01*
X7713814Y-71578790D01*
X9142385Y-71388314D02*
X9142385Y-72054980D01*
X8904290Y-71007361D02*
X8666195Y-71721647D01*
X9285242Y-71721647D01*
X9618576Y-71150219D02*
X9666195Y-71102600D01*
X9761433Y-71054980D01*
X9999528Y-71054980D01*
X10094766Y-71102600D01*
X10142385Y-71150219D01*
X10190004Y-71245457D01*
X10190004Y-71340695D01*
X10142385Y-71483552D01*
X9570957Y-72054980D01*
X10190004Y-72054980D01*
X8386842Y-70137280D02*
X8053509Y-69661090D01*
X7815414Y-70137280D02*
X7815414Y-69137280D01*
X8196366Y-69137280D01*
X8291604Y-69184900D01*
X8339223Y-69232519D01*
X8386842Y-69327757D01*
X8386842Y-69470614D01*
X8339223Y-69565852D01*
X8291604Y-69613471D01*
X8196366Y-69661090D01*
X7815414Y-69661090D01*
X9243985Y-69470614D02*
X9243985Y-70137280D01*
X9005890Y-69089661D02*
X8767795Y-69803947D01*
X9386842Y-69803947D01*
X9672557Y-69137280D02*
X10291604Y-69137280D01*
X9958271Y-69518233D01*
X10101128Y-69518233D01*
X10196366Y-69565852D01*
X10243985Y-69613471D01*
X10291604Y-69708709D01*
X10291604Y-69946804D01*
X10243985Y-70042042D01*
X10196366Y-70089661D01*
X10101128Y-70137280D01*
X9815414Y-70137280D01*
X9720176Y-70089661D01*
X9672557Y-70042042D01*
X22275880Y-48539304D02*
X23085404Y-48539304D01*
X23180642Y-48491685D01*
X23228261Y-48444066D01*
X23275880Y-48348828D01*
X23275880Y-48158352D01*
X23228261Y-48063114D01*
X23180642Y-48015495D01*
X23085404Y-47967876D01*
X22275880Y-47967876D01*
X22609214Y-47063114D02*
X23275880Y-47063114D01*
X22228261Y-47301209D02*
X22942547Y-47539304D01*
X22942547Y-46920257D01*
X58013680Y-48425004D02*
X58823204Y-48425004D01*
X58918442Y-48377385D01*
X58966061Y-48329766D01*
X59013680Y-48234528D01*
X59013680Y-48044052D01*
X58966061Y-47948814D01*
X58918442Y-47901195D01*
X58823204Y-47853576D01*
X58013680Y-47853576D01*
X58013680Y-46948814D02*
X58013680Y-47139290D01*
X58061300Y-47234528D01*
X58108919Y-47282147D01*
X58251776Y-47377385D01*
X58442252Y-47425004D01*
X58823204Y-47425004D01*
X58918442Y-47377385D01*
X58966061Y-47329766D01*
X59013680Y-47234528D01*
X59013680Y-47044052D01*
X58966061Y-46948814D01*
X58918442Y-46901195D01*
X58823204Y-46853576D01*
X58585109Y-46853576D01*
X58489871Y-46901195D01*
X58442252Y-46948814D01*
X58394633Y-47044052D01*
X58394633Y-47234528D01*
X58442252Y-47329766D01*
X58489871Y-47377385D01*
X58585109Y-47425004D01*
X9226300Y-77784864D02*
X10035824Y-77784864D01*
X10131062Y-77737245D01*
X10178681Y-77689626D01*
X10226300Y-77594388D01*
X10226300Y-77403912D01*
X10178681Y-77308674D01*
X10131062Y-77261055D01*
X10035824Y-77213436D01*
X9226300Y-77213436D01*
X10226300Y-76689626D02*
X10226300Y-76499150D01*
X10178681Y-76403912D01*
X10131062Y-76356293D01*
X9988205Y-76261055D01*
X9797729Y-76213436D01*
X9416777Y-76213436D01*
X9321539Y-76261055D01*
X9273920Y-76308674D01*
X9226300Y-76403912D01*
X9226300Y-76594388D01*
X9273920Y-76689626D01*
X9321539Y-76737245D01*
X9416777Y-76784864D01*
X9654872Y-76784864D01*
X9750110Y-76737245D01*
X9797729Y-76689626D01*
X9845348Y-76594388D01*
X9845348Y-76403912D01*
X9797729Y-76308674D01*
X9750110Y-76261055D01*
X9654872Y-76213436D01*
X14520942Y-35059880D02*
X14187609Y-34583690D01*
X13949514Y-35059880D02*
X13949514Y-34059880D01*
X14330466Y-34059880D01*
X14425704Y-34107500D01*
X14473323Y-34155119D01*
X14520942Y-34250357D01*
X14520942Y-34393214D01*
X14473323Y-34488452D01*
X14425704Y-34536071D01*
X14330466Y-34583690D01*
X13949514Y-34583690D01*
X15378085Y-34393214D02*
X15378085Y-35059880D01*
X15139990Y-34012261D02*
X14901895Y-34726547D01*
X15520942Y-34726547D01*
X16330466Y-34393214D02*
X16330466Y-35059880D01*
X16092371Y-34012261D02*
X15854276Y-34726547D01*
X16473323Y-34726547D01*
X49306242Y-35097980D02*
X48972909Y-34621790D01*
X48734814Y-35097980D02*
X48734814Y-34097980D01*
X49115766Y-34097980D01*
X49211004Y-34145600D01*
X49258623Y-34193219D01*
X49306242Y-34288457D01*
X49306242Y-34431314D01*
X49258623Y-34526552D01*
X49211004Y-34574171D01*
X49115766Y-34621790D01*
X48734814Y-34621790D01*
X50163385Y-34431314D02*
X50163385Y-35097980D01*
X49925290Y-34050361D02*
X49687195Y-34764647D01*
X50306242Y-34764647D01*
X51163385Y-34097980D02*
X50687195Y-34097980D01*
X50639576Y-34574171D01*
X50687195Y-34526552D01*
X50782433Y-34478933D01*
X51020528Y-34478933D01*
X51115766Y-34526552D01*
X51163385Y-34574171D01*
X51211004Y-34669409D01*
X51211004Y-34907504D01*
X51163385Y-35002742D01*
X51115766Y-35050361D01*
X51020528Y-35097980D01*
X50782433Y-35097980D01*
X50687195Y-35050361D01*
X50639576Y-35002742D01*
X26822495Y-64984380D02*
X26822495Y-65793904D01*
X26870114Y-65889142D01*
X26917733Y-65936761D01*
X27012971Y-65984380D01*
X27203447Y-65984380D01*
X27298685Y-65936761D01*
X27346304Y-65889142D01*
X27393923Y-65793904D01*
X27393923Y-64984380D01*
X28393923Y-65984380D02*
X27822495Y-65984380D01*
X28108209Y-65984380D02*
X28108209Y-64984380D01*
X28012971Y-65127238D01*
X27917733Y-65222476D01*
X27822495Y-65270095D01*
X5751580Y-4473533D02*
X6465866Y-4473533D01*
X6608723Y-4521152D01*
X6703961Y-4616390D01*
X6751580Y-4759247D01*
X6751580Y-4854485D01*
X5751580Y-3521152D02*
X5751580Y-3997342D01*
X6227771Y-4044961D01*
X6180152Y-3997342D01*
X6132533Y-3902104D01*
X6132533Y-3664009D01*
X6180152Y-3568771D01*
X6227771Y-3521152D01*
X6323009Y-3473533D01*
X6561104Y-3473533D01*
X6656342Y-3521152D01*
X6703961Y-3568771D01*
X6751580Y-3664009D01*
X6751580Y-3902104D01*
X6703961Y-3997342D01*
X6656342Y-4044961D01*
X33349780Y-48512304D02*
X34159304Y-48512304D01*
X34254542Y-48464685D01*
X34302161Y-48417066D01*
X34349780Y-48321828D01*
X34349780Y-48131352D01*
X34302161Y-48036114D01*
X34254542Y-47988495D01*
X34159304Y-47940876D01*
X33349780Y-47940876D01*
X33778352Y-47321828D02*
X33730733Y-47417066D01*
X33683114Y-47464685D01*
X33587876Y-47512304D01*
X33540257Y-47512304D01*
X33445019Y-47464685D01*
X33397400Y-47417066D01*
X33349780Y-47321828D01*
X33349780Y-47131352D01*
X33397400Y-47036114D01*
X33445019Y-46988495D01*
X33540257Y-46940876D01*
X33587876Y-46940876D01*
X33683114Y-46988495D01*
X33730733Y-47036114D01*
X33778352Y-47131352D01*
X33778352Y-47321828D01*
X33825971Y-47417066D01*
X33873590Y-47464685D01*
X33968828Y-47512304D01*
X34159304Y-47512304D01*
X34254542Y-47464685D01*
X34302161Y-47417066D01*
X34349780Y-47321828D01*
X34349780Y-47131352D01*
X34302161Y-47036114D01*
X34254542Y-46988495D01*
X34159304Y-46940876D01*
X33968828Y-46940876D01*
X33873590Y-46988495D01*
X33825971Y-47036114D01*
X33778352Y-47131352D01*
X27860666Y-86523580D02*
X27860666Y-87237866D01*
X27813047Y-87380723D01*
X27717809Y-87475961D01*
X27574952Y-87523580D01*
X27479714Y-87523580D01*
X28860666Y-87523580D02*
X28289238Y-87523580D01*
X28574952Y-87523580D02*
X28574952Y-86523580D01*
X28479714Y-86666438D01*
X28384476Y-86761676D01*
X28289238Y-86809295D01*
X6583371Y-66727295D02*
X6583371Y-67060628D01*
X7107180Y-67060628D02*
X6107180Y-67060628D01*
X6107180Y-66584438D01*
X7107180Y-65727295D02*
X7107180Y-66203485D01*
X6107180Y-66203485D01*
X7107180Y-64870152D02*
X7107180Y-65441580D01*
X7107180Y-65155866D02*
X6107180Y-65155866D01*
X6250038Y-65251104D01*
X6345276Y-65346342D01*
X6392895Y-65441580D01*
X34980571Y-66270095D02*
X34980571Y-66603428D01*
X35504380Y-66603428D02*
X34504380Y-66603428D01*
X34504380Y-66127238D01*
X35504380Y-65270095D02*
X35504380Y-65746285D01*
X34504380Y-65746285D01*
X34599619Y-64984380D02*
X34552000Y-64936761D01*
X34504380Y-64841523D01*
X34504380Y-64603428D01*
X34552000Y-64508190D01*
X34599619Y-64460571D01*
X34694857Y-64412952D01*
X34790095Y-64412952D01*
X34932952Y-64460571D01*
X35504380Y-65032000D01*
X35504380Y-64412952D01*
X5336895Y-57417980D02*
X5336895Y-58227504D01*
X5384514Y-58322742D01*
X5432133Y-58370361D01*
X5527371Y-58417980D01*
X5717847Y-58417980D01*
X5813085Y-58370361D01*
X5860704Y-58322742D01*
X5908323Y-58227504D01*
X5908323Y-57417980D01*
X6336895Y-57513219D02*
X6384514Y-57465600D01*
X6479752Y-57417980D01*
X6717847Y-57417980D01*
X6813085Y-57465600D01*
X6860704Y-57513219D01*
X6908323Y-57608457D01*
X6908323Y-57703695D01*
X6860704Y-57846552D01*
X6289276Y-58417980D01*
X6908323Y-58417980D01*
X41023895Y-57456080D02*
X41023895Y-58265604D01*
X41071514Y-58360842D01*
X41119133Y-58408461D01*
X41214371Y-58456080D01*
X41404847Y-58456080D01*
X41500085Y-58408461D01*
X41547704Y-58360842D01*
X41595323Y-58265604D01*
X41595323Y-57456080D01*
X41976276Y-57456080D02*
X42595323Y-57456080D01*
X42261990Y-57837033D01*
X42404847Y-57837033D01*
X42500085Y-57884652D01*
X42547704Y-57932271D01*
X42595323Y-58027509D01*
X42595323Y-58265604D01*
X42547704Y-58360842D01*
X42500085Y-58408461D01*
X42404847Y-58456080D01*
X42119133Y-58456080D01*
X42023895Y-58408461D01*
X41976276Y-58360842D01*
M02*
