G04 #@! TF.GenerationSoftware,KiCad,Pcbnew,no-vcs-found-9413793~61~ubuntu17.10.1*
G04 #@! TF.CreationDate,2017-12-18T18:39:30-05:00*
G04 #@! TF.ProjectId,ENNOID Dual Gate Driver,454E4E4F4944204475616C2047617465,rev?*
G04 #@! TF.SameCoordinates,Original*
G04 #@! TF.FileFunction,Copper,L1,Top,Signal*
G04 #@! TF.FilePolarity,Positive*
%FSLAX46Y46*%
G04 Gerber Fmt 4.6, Leading zero omitted, Abs format (unit mm)*
G04 Created by KiCad (PCBNEW no-vcs-found-9413793~61~ubuntu17.10.1) date Mon Dec 18 18:39:30 2017*
%MOMM*%
%LPD*%
G01*
G04 APERTURE LIST*
%ADD10R,1.250000X1.500000*%
%ADD11R,1.300000X1.500000*%
%ADD12C,0.700000*%
%ADD13C,4.400000*%
%ADD14R,2.500000X2.000000*%
%ADD15R,1.500000X1.250000*%
%ADD16R,2.000000X1.600000*%
%ADD17R,2.000000X2.500000*%
%ADD18R,0.900000X1.200000*%
%ADD19R,1.200000X0.900000*%
%ADD20O,2.200000X2.200000*%
%ADD21R,2.200000X2.200000*%
%ADD22O,2.600000X2.000000*%
%ADD23R,2.600000X2.000000*%
%ADD24C,0.750000*%
%ADD25C,0.100000*%
%ADD26R,4.000000X2.000000*%
%ADD27R,2.500000X1.000000*%
%ADD28R,0.900000X0.800000*%
%ADD29R,1.500000X1.300000*%
%ADD30R,2.600000X2.100000*%
%ADD31R,0.600000X1.550000*%
%ADD32R,0.800000X0.900000*%
%ADD33R,3.500000X1.800000*%
%ADD34R,0.600000X1.500000*%
%ADD35R,1.500000X0.600000*%
%ADD36R,2.750000X3.050000*%
%ADD37R,5.800000X6.400000*%
%ADD38R,1.200000X2.200000*%
%ADD39C,3.000000*%
%ADD40R,0.640000X1.905000*%
%ADD41C,1.700000*%
%ADD42R,1.700000X1.700000*%
%ADD43R,0.950000X1.250000*%
%ADD44O,1.500000X1.500000*%
%ADD45R,1.500000X1.500000*%
%ADD46C,0.800000*%
%ADD47C,0.250000*%
%ADD48C,1.000000*%
%ADD49C,2.000000*%
%ADD50C,3.000000*%
%ADD51C,0.254000*%
G04 APERTURE END LIST*
D10*
X40386000Y-84816000D03*
X40386000Y-82316000D03*
D11*
X20535900Y-68837800D03*
X20535900Y-66137800D03*
D12*
X31166726Y-2833274D03*
X30000000Y-2350000D03*
X28833274Y-2833274D03*
X28350000Y-4000000D03*
X28833274Y-5166726D03*
X30000000Y-5650000D03*
X31166726Y-5166726D03*
X31650000Y-4000000D03*
D13*
X30000000Y-4000000D03*
D12*
X6166726Y-91833274D03*
X5000000Y-91350000D03*
X3833274Y-91833274D03*
X3350000Y-93000000D03*
X3833274Y-94166726D03*
X5000000Y-94650000D03*
X6166726Y-94166726D03*
X6650000Y-93000000D03*
D13*
X5000000Y-93000000D03*
X55000000Y-93000000D03*
D12*
X56650000Y-93000000D03*
X56166726Y-94166726D03*
X55000000Y-94650000D03*
X53833274Y-94166726D03*
X53350000Y-93000000D03*
X53833274Y-91833274D03*
X55000000Y-91350000D03*
X56166726Y-91833274D03*
D14*
X22834600Y-72053700D03*
X22834600Y-76053700D03*
D10*
X25400000Y-76307000D03*
X25400000Y-73807000D03*
X34607500Y-76256200D03*
X34607500Y-73756200D03*
X36601400Y-73756200D03*
X36601400Y-76256200D03*
D15*
X1874200Y-61163200D03*
X4374200Y-61163200D03*
X4376740Y-59161680D03*
X1876740Y-59161680D03*
X4285300Y-36245800D03*
X1785300Y-36245800D03*
X6522400Y-36245800D03*
X9022400Y-36245800D03*
X18786160Y-28242260D03*
X16286160Y-28242260D03*
X37497700Y-58674000D03*
X39997700Y-58674000D03*
X39997700Y-60731400D03*
X37497700Y-60731400D03*
X40035800Y-36296600D03*
X37535800Y-36296600D03*
X42270360Y-36286440D03*
X44770360Y-36286440D03*
X50330420Y-28399740D03*
X47830420Y-28399740D03*
X16352200Y-58420000D03*
X18852200Y-58420000D03*
D10*
X24968200Y-58287600D03*
X24968200Y-60787600D03*
D15*
X18600100Y-36220400D03*
X21100100Y-36220400D03*
X16540800Y-38125400D03*
X14040800Y-38125400D03*
X21105500Y-38125400D03*
X18605500Y-38125400D03*
X23235600Y-28397200D03*
X25735600Y-28397200D03*
D16*
X21948640Y-16286480D03*
X25948640Y-16286480D03*
D15*
X25240300Y-9133840D03*
X22740300Y-9133840D03*
X22714900Y-11003280D03*
X25214900Y-11003280D03*
D17*
X25926800Y-13609320D03*
X21926800Y-13609320D03*
D15*
X14551340Y-9133840D03*
X17051340Y-9133840D03*
X52202400Y-57454800D03*
X49702400Y-57454800D03*
D10*
X58191400Y-59276300D03*
X58191400Y-56776300D03*
D15*
X53461600Y-36245800D03*
X55961600Y-36245800D03*
X51351500Y-38176200D03*
X48851500Y-38176200D03*
X55974300Y-38176200D03*
X53474300Y-38176200D03*
X57993600Y-27838400D03*
X55493600Y-27838400D03*
D16*
X57732680Y-16243300D03*
X53732680Y-16243300D03*
D15*
X53453980Y-8699500D03*
X55953980Y-8699500D03*
X53441280Y-10617200D03*
X55941280Y-10617200D03*
D17*
X53681880Y-13195300D03*
X57681880Y-13195300D03*
D15*
X40454900Y-8636000D03*
X37954900Y-8636000D03*
D10*
X32994600Y-37370700D03*
X32994600Y-39870700D03*
X30924500Y-59809700D03*
X30924500Y-57309700D03*
X29032200Y-57309700D03*
X29032200Y-59809700D03*
X32918400Y-83992400D03*
X32918400Y-86492400D03*
D15*
X4106860Y-88374220D03*
X6606860Y-88374220D03*
D10*
X47142400Y-82105058D03*
X47142400Y-84605058D03*
D18*
X21260800Y-32308800D03*
X24560800Y-32308800D03*
X58495200Y-31902400D03*
X55195200Y-31902400D03*
D19*
X2501900Y-30430200D03*
X2501900Y-33730200D03*
D20*
X2463800Y-23228300D03*
D21*
X2463800Y-10528300D03*
D18*
X5790200Y-7797800D03*
X2490200Y-7797800D03*
X33857200Y-29552900D03*
X30557200Y-29552900D03*
D21*
X30848360Y-10513060D03*
D20*
X30848360Y-23213060D03*
D18*
X27547300Y-7823200D03*
X30847300Y-7823200D03*
D22*
X11544300Y-95872300D03*
X11544300Y-93332300D03*
X11544300Y-90792300D03*
D23*
X11544300Y-88252300D03*
D22*
X48298100Y-93306900D03*
D23*
X48298100Y-95846900D03*
D24*
X43448400Y-30530800D03*
D25*
G36*
X43073400Y-29530800D02*
X43823400Y-30030800D01*
X43823400Y-31030800D01*
X43073400Y-31530800D01*
X43073400Y-29530800D01*
X43073400Y-29530800D01*
G37*
D26*
X41098400Y-30530800D03*
D27*
X45058400Y-29030800D03*
X45058400Y-30530800D03*
X45058400Y-32030800D03*
X13450640Y-32091760D03*
X13450640Y-30591760D03*
X13450640Y-29091760D03*
D26*
X9490640Y-30591760D03*
D24*
X11840640Y-30591760D03*
D25*
G36*
X11465640Y-29591760D02*
X12215640Y-30091760D01*
X12215640Y-31091760D01*
X11465640Y-31591760D01*
X11465640Y-29591760D01*
X11465640Y-29591760D01*
G37*
D28*
X16767300Y-65189100D03*
X18767300Y-64239100D03*
X18767300Y-66139100D03*
X52054000Y-64932600D03*
X52054000Y-63032600D03*
X50054000Y-63982600D03*
D29*
X16272520Y-30198060D03*
X18972520Y-30198060D03*
X18957280Y-32204660D03*
X16257280Y-32204660D03*
X50532020Y-30292040D03*
X47832020Y-30292040D03*
X50532020Y-32184340D03*
X47832020Y-32184340D03*
D11*
X13804900Y-60874900D03*
X13804900Y-58174900D03*
X23012400Y-60773300D03*
X23012400Y-58073300D03*
D29*
X18914100Y-60490100D03*
X16214100Y-60490100D03*
D11*
X21005800Y-58073300D03*
X21005800Y-60773300D03*
X2501900Y-28540700D03*
X2501900Y-25840700D03*
D30*
X7569200Y-21246000D03*
X7569200Y-16346000D03*
X10820400Y-16366320D03*
X10820400Y-21266320D03*
X14122400Y-16346000D03*
X14122400Y-21246000D03*
X17424400Y-21246000D03*
X17424400Y-16346000D03*
D29*
X17059900Y-11008360D03*
X14359900Y-11008360D03*
D11*
X53873400Y-64944000D03*
X53873400Y-67644000D03*
X47434500Y-57019200D03*
X47434500Y-59719200D03*
X56261000Y-56562000D03*
X56261000Y-59262000D03*
D29*
X49551600Y-59385200D03*
X52251600Y-59385200D03*
D11*
X54330600Y-56562000D03*
X54330600Y-59262000D03*
D29*
X30857200Y-27381200D03*
X33557200Y-27381200D03*
D30*
X39032180Y-16295200D03*
X39032180Y-21195200D03*
X42384980Y-21182500D03*
X42384980Y-16282500D03*
X49115980Y-16282500D03*
X49115980Y-21182500D03*
X45750480Y-21195200D03*
X45750480Y-16295200D03*
D29*
X37829500Y-10541000D03*
X40529500Y-10541000D03*
D11*
X33561020Y-17903180D03*
X33561020Y-15203180D03*
X34988500Y-37181800D03*
X34988500Y-39881800D03*
X33561020Y-20130780D03*
X33561020Y-22830780D03*
X31013400Y-38014900D03*
X31013400Y-35314900D03*
X28295600Y-35276800D03*
X28295600Y-37976800D03*
X47141202Y-86754858D03*
X47141202Y-89454858D03*
D29*
X53158400Y-88950800D03*
X55858400Y-88950800D03*
D31*
X21899880Y-18864600D03*
X23169880Y-18864600D03*
X24439880Y-18864600D03*
X25709880Y-18864600D03*
X25709880Y-24264600D03*
X24439880Y-24264600D03*
X23169880Y-24264600D03*
X21899880Y-24264600D03*
X53608286Y-18862886D03*
X54878286Y-18862886D03*
X56148286Y-18862886D03*
X57418286Y-18862886D03*
X57418286Y-24262886D03*
X56148286Y-24262886D03*
X54878286Y-24262886D03*
X53608286Y-24262886D03*
D15*
X30904500Y-39992300D03*
X28404500Y-39992300D03*
X4106860Y-86354920D03*
X6606860Y-86354920D03*
D32*
X35560000Y-33258000D03*
X34610000Y-31258000D03*
X36510000Y-31258000D03*
D33*
X15106020Y-24582120D03*
X10106020Y-24582120D03*
X41548680Y-24434800D03*
X46548680Y-24434800D03*
D11*
X57556400Y-78190100D03*
X57556400Y-80890100D03*
X50977800Y-83814900D03*
X50977800Y-81114900D03*
D19*
X2969260Y-71471520D03*
X2969260Y-74771520D03*
X5445760Y-74771520D03*
X5445760Y-71471520D03*
D11*
X17348200Y-84039700D03*
X17348200Y-81339700D03*
X12750800Y-77085200D03*
X12750800Y-79785200D03*
X36360100Y-86363800D03*
X36360100Y-83663800D03*
D32*
X57680900Y-74336400D03*
X55780900Y-74336400D03*
X56730900Y-76336400D03*
X50192900Y-79050900D03*
X49242900Y-77050900D03*
X51142900Y-77050900D03*
X19111000Y-77409800D03*
X17211000Y-77409800D03*
X18161000Y-79409800D03*
X12954000Y-75333100D03*
X12004000Y-73333100D03*
X13904000Y-73333100D03*
D11*
X57569100Y-72406500D03*
X57569100Y-69706500D03*
X57518300Y-85754200D03*
X57518300Y-83054200D03*
X50977800Y-88827600D03*
X50977800Y-86127600D03*
D29*
X50956200Y-75298300D03*
X48256200Y-75298300D03*
D11*
X51054000Y-70544700D03*
X51054000Y-73244700D03*
X17386300Y-75378300D03*
X17386300Y-72678300D03*
D29*
X20069800Y-86423500D03*
X17369800Y-86423500D03*
D11*
X12750800Y-81949300D03*
X12750800Y-84649300D03*
D29*
X11489700Y-71602600D03*
X14189700Y-71602600D03*
X14189700Y-69646800D03*
X11489700Y-69646800D03*
D34*
X21018500Y-52427400D03*
X19748500Y-52427400D03*
X18478500Y-52427400D03*
X17208500Y-52427400D03*
X15938500Y-52427400D03*
X14668500Y-52427400D03*
X13398500Y-52427400D03*
X12128500Y-52427400D03*
X12128500Y-43127400D03*
X13398500Y-43127400D03*
X14668500Y-43127400D03*
X15938500Y-43127400D03*
X17208500Y-43127400D03*
X18478500Y-43127400D03*
X19748500Y-43127400D03*
X21018500Y-43127400D03*
X56756300Y-43013100D03*
X55486300Y-43013100D03*
X54216300Y-43013100D03*
X52946300Y-43013100D03*
X51676300Y-43013100D03*
X50406300Y-43013100D03*
X49136300Y-43013100D03*
X47866300Y-43013100D03*
X47866300Y-52313100D03*
X49136300Y-52313100D03*
X50406300Y-52313100D03*
X51676300Y-52313100D03*
X52946300Y-52313100D03*
X54216300Y-52313100D03*
X55486300Y-52313100D03*
X56756300Y-52313100D03*
D35*
X7744440Y-84267040D03*
X7744440Y-82997040D03*
X7744440Y-81727040D03*
X7744440Y-80457040D03*
X7744440Y-79187040D03*
X7744440Y-77917040D03*
X7744440Y-76647040D03*
X2344440Y-76647040D03*
X2344440Y-77917040D03*
X2344440Y-79187040D03*
X2344440Y-80457040D03*
X2344440Y-81727040D03*
X2344440Y-82997040D03*
X2344440Y-84267040D03*
D29*
X13813800Y-36207700D03*
X16513800Y-36207700D03*
X51311800Y-36283900D03*
X48611800Y-36283900D03*
D36*
X31525000Y-71279200D03*
X28475000Y-67929200D03*
X28475000Y-71279200D03*
X31525000Y-67929200D03*
D37*
X30000000Y-69604200D03*
D38*
X32280000Y-75904200D03*
X30000000Y-75904200D03*
X27720000Y-75904200D03*
D39*
X22500000Y-5830000D03*
X22500000Y-2170000D03*
X8500000Y-5830000D03*
X8500000Y-2170000D03*
X16500000Y-5830000D03*
X16500000Y-2170000D03*
X43500000Y-5830000D03*
X43500000Y-2170000D03*
X37500000Y-2170000D03*
X37500000Y-5830000D03*
D40*
X31902400Y-42302900D03*
X30632400Y-42302900D03*
X29362400Y-42302900D03*
X28092400Y-42302900D03*
X28092400Y-52997900D03*
X29362400Y-52997900D03*
X30632400Y-52997900D03*
X31902400Y-52997900D03*
D41*
X38887400Y-91478100D03*
X38887400Y-94018100D03*
X36347400Y-91478100D03*
X36347400Y-94018100D03*
X33807400Y-91478100D03*
X33807400Y-94018100D03*
X31267400Y-91478100D03*
X31267400Y-94018100D03*
X28727400Y-91478100D03*
X28727400Y-94018100D03*
X26187400Y-91478100D03*
X26187400Y-94018100D03*
X23647400Y-91478100D03*
X23647400Y-94018100D03*
X21107400Y-91478100D03*
D42*
X21107400Y-94018100D03*
D43*
X2149600Y-68364200D03*
X4149600Y-68364200D03*
X4149600Y-63614200D03*
X2149600Y-63614200D03*
X37862000Y-63157000D03*
X39862000Y-63157000D03*
X39862000Y-67907000D03*
X37862000Y-67907000D03*
D44*
X3098800Y-39725600D03*
X3098800Y-42265600D03*
X3098800Y-44805600D03*
X3098800Y-52425600D03*
D45*
X3098800Y-54965600D03*
X38785800Y-55003700D03*
D44*
X38785800Y-52463700D03*
X38785800Y-44843700D03*
X38785800Y-42303700D03*
X38785800Y-39763700D03*
D46*
X32918400Y-88138000D03*
X48564800Y-71424800D03*
X44145200Y-71424800D03*
X7823200Y-40589202D03*
X41757600Y-38150800D03*
X16713200Y-14427200D03*
X14884400Y-14427200D03*
X15798800Y-14427200D03*
X12141200Y-14427200D03*
X13970000Y-14427200D03*
X13055600Y-14427200D03*
X10312400Y-14427200D03*
X11226800Y-14427200D03*
X9398000Y-14427200D03*
X8483600Y-14427200D03*
X7569200Y-14427200D03*
X42976800Y-80670400D03*
X33121600Y-78486000D03*
X32258000Y-78943200D03*
X36588700Y-77889100D03*
X32258002Y-77927200D03*
X34594800Y-77914500D03*
X47548800Y-14325600D03*
X46634400Y-14325600D03*
X45720000Y-14325600D03*
X44805600Y-14325600D03*
X43891200Y-14325600D03*
X42976800Y-14325600D03*
X42062400Y-14325600D03*
X41148000Y-14325600D03*
X40182800Y-14325600D03*
X39268400Y-14325600D03*
X38354000Y-14325600D03*
X36017200Y-11430000D03*
X36017200Y-10515600D03*
X36017200Y-9550400D03*
X36017200Y-8636000D03*
X42976800Y-81635600D03*
X42976800Y-82600800D03*
X42976800Y-84531200D03*
X42976800Y-83566000D03*
X33020000Y-35814000D03*
X19405600Y-13817600D03*
X19405600Y-12954000D03*
X18643600Y-14274800D03*
X18643600Y-13411200D03*
X18643600Y-12547600D03*
X16459200Y-39522400D03*
X20523200Y-19608800D03*
X20523200Y-17881600D03*
X50800000Y-13868400D03*
X50800000Y-12954000D03*
X49987200Y-14224000D03*
X49987200Y-13360400D03*
X49987200Y-12496800D03*
X51663600Y-19558000D03*
X51663596Y-17830800D03*
X51663600Y-25146000D03*
X51663600Y-23317200D03*
X38049200Y-34798000D03*
X38049200Y-33832800D03*
X38811200Y-33375600D03*
X38811200Y-34340800D03*
X38049200Y-32867600D03*
X42976800Y-28651200D03*
X42113200Y-28651200D03*
X41249600Y-28651200D03*
X40386000Y-28651200D03*
X39522400Y-28651200D03*
X20523200Y-23368000D03*
X10414000Y-28702000D03*
X20523200Y-25247600D03*
X5029200Y-33629600D03*
X4267200Y-34086800D03*
X4267200Y-32359600D03*
X5029200Y-32766000D03*
X4267200Y-33223200D03*
X11277600Y-28702000D03*
X9550400Y-28702000D03*
X8686800Y-28702000D03*
X20523200Y-24282400D03*
X20523200Y-18745200D03*
X7823200Y-28702000D03*
X10871200Y-38100000D03*
X14579600Y-27432000D03*
X32969200Y-44653200D03*
X43332400Y-40233600D03*
X50139600Y-34747200D03*
X51358800Y-39624000D03*
X51663596Y-18694400D03*
X51663600Y-24231600D03*
X46278800Y-27127200D03*
X46278800Y-38150800D03*
X4318000Y-30429200D03*
X19761200Y-41503600D03*
X31445200Y-83972400D03*
X38862000Y-85090000D03*
X34848800Y-85090000D03*
X45364400Y-86207600D03*
X35306000Y-29514800D03*
X55524400Y-41249600D03*
X34340800Y-33324800D03*
X35001200Y-41554400D03*
X14427696Y-83818114D03*
X15748000Y-72796400D03*
X40690800Y-75387200D03*
X49177940Y-67588157D03*
X26162000Y-82042002D03*
X27533600Y-81737200D03*
X23622000Y-81737200D03*
X24841200Y-81737200D03*
X863600Y-77927200D03*
X17221200Y-54000400D03*
X47879000Y-53822600D03*
X56730900Y-53822600D03*
X50431700Y-53822600D03*
X12065000Y-54063900D03*
X14681200Y-54114700D03*
X23977600Y-62280800D03*
X21894800Y-62230000D03*
X30886402Y-61518800D03*
X29006800Y-61518800D03*
X21805900Y-54978302D03*
X55683113Y-54330326D03*
X13919200Y-62839600D03*
X48340601Y-62064900D03*
X5384800Y-73101200D03*
X25666700Y-68834000D03*
X26403300Y-56718200D03*
X26390600Y-60452000D03*
X54216301Y-54368701D03*
X19306718Y-53950298D03*
X29387800Y-54940200D03*
X30607000Y-54927500D03*
X15240000Y-62788802D03*
X15786100Y-71170800D03*
X17983200Y-55212411D03*
X53104620Y-54833790D03*
X6096000Y-84277200D03*
X6096000Y-79209900D03*
X53296711Y-56308610D03*
X57594500Y-68021200D03*
X29870402Y-37998400D03*
X33528000Y-24587200D03*
X49728540Y-68422940D03*
X9283700Y-82994500D03*
X9499600Y-76403202D03*
X9906000Y-73761600D03*
X12496800Y-39116000D03*
X23164800Y-25908000D03*
X13411200Y-34798000D03*
X17576800Y-40284400D03*
X17221200Y-34798000D03*
X52984402Y-34696400D03*
X52984400Y-39979600D03*
X56286400Y-25908000D03*
X47752000Y-39420800D03*
X48158400Y-34747200D03*
X14173200Y-84785200D03*
X20091400Y-84861400D03*
X48971200Y-86258400D03*
X4318000Y-70154800D03*
X2489200Y-70154800D03*
X1574800Y-70154800D03*
X3403600Y-70154800D03*
X20574000Y-75234800D03*
X20574000Y-76149200D03*
X20574000Y-77063600D03*
X20574000Y-77978000D03*
X59309000Y-60807600D03*
X9118600Y-88442800D03*
X31851600Y-55410100D03*
X57277000Y-60769500D03*
X55346600Y-60794900D03*
X2667000Y-89687400D03*
X4140200Y-84251800D03*
X863600Y-84264500D03*
X55867300Y-87388700D03*
D47*
X32918400Y-88138000D02*
X32918400Y-86492400D01*
D48*
X44145200Y-71424800D02*
X48564800Y-71424800D01*
X6522400Y-36245800D02*
X6522400Y-39288402D01*
X6522400Y-39288402D02*
X7423201Y-40189203D01*
X7423201Y-40189203D02*
X7823200Y-40589202D01*
X21969870Y-19608800D02*
X21948640Y-19587570D01*
X21948640Y-19587570D02*
X21948640Y-16286480D01*
X20523200Y-19608800D02*
X21969870Y-19608800D01*
X21948640Y-16286480D02*
X21948640Y-18183360D01*
X21948640Y-18183360D02*
X20523200Y-19608800D01*
X21948640Y-16286480D02*
X21948640Y-17319760D01*
X21948640Y-17319760D02*
X20523200Y-18745200D01*
X20523200Y-17881600D02*
X20523200Y-17711920D01*
X20523200Y-17711920D02*
X21948640Y-16286480D01*
X9022400Y-39571300D02*
X12128500Y-42677400D01*
X9022400Y-36245800D02*
X9022400Y-39571300D01*
X12128500Y-42677400D02*
X12128500Y-43127400D01*
X42976800Y-36992880D02*
X42976800Y-39878000D01*
X42270360Y-36286440D02*
X42976800Y-36992880D01*
X42976800Y-39878000D02*
X43230800Y-40132000D01*
X43230800Y-40132000D02*
X43332400Y-40233600D01*
X53678276Y-18097704D02*
X53732680Y-18043300D01*
X53678276Y-19558000D02*
X53678276Y-18097704D01*
X53732680Y-18043300D02*
X53732680Y-16243300D01*
X51663600Y-19558000D02*
X53678276Y-19558000D01*
X53732680Y-16243300D02*
X53732680Y-16625316D01*
X53732680Y-16625316D02*
X51663596Y-18694400D01*
X53732680Y-16243300D02*
X53608286Y-16367694D01*
X53608286Y-16367694D02*
X53608286Y-18862886D01*
X53732680Y-16243300D02*
X53251096Y-16243300D01*
X53251096Y-16243300D02*
X51663596Y-17830800D01*
X34988500Y-37181800D02*
X35957500Y-38150800D01*
X41191915Y-38150800D02*
X41757600Y-38150800D01*
X35957500Y-38150800D02*
X41191915Y-38150800D01*
D47*
X16214100Y-60490100D02*
X16214100Y-61390100D01*
X16214100Y-61390100D02*
X16767300Y-61943300D01*
X16767300Y-61943300D02*
X16767300Y-65189100D01*
X16214100Y-60490100D02*
X16214100Y-58558100D01*
X13804900Y-58174900D02*
X16107100Y-58174900D01*
D48*
X8483600Y-14427200D02*
X7569200Y-14427200D01*
X8483600Y-14427200D02*
X9398000Y-14427200D01*
X9398000Y-14427200D02*
X10312400Y-14427200D01*
X11226800Y-14427200D02*
X10312400Y-14427200D01*
X12141200Y-14427200D02*
X11226800Y-14427200D01*
X13055600Y-14427200D02*
X12141200Y-14427200D01*
X13970000Y-14427200D02*
X13055600Y-14427200D01*
X14884400Y-14427200D02*
X13970000Y-14427200D01*
X15798800Y-14427200D02*
X14884400Y-14427200D01*
X16713200Y-14427200D02*
X15798800Y-14427200D01*
X16713200Y-14427200D02*
X16713200Y-15634800D01*
X16713200Y-15634800D02*
X17424400Y-16346000D01*
X7569200Y-14427200D02*
X16713200Y-14427200D01*
X7569200Y-16346000D02*
X7569200Y-14427200D01*
D47*
X12004000Y-73333100D02*
X12004000Y-73383100D01*
X8194440Y-76647040D02*
X7744440Y-76647040D01*
X11489700Y-71602600D02*
X11489700Y-72818800D01*
X11489700Y-72818800D02*
X12004000Y-73333100D01*
D48*
X32258000Y-78943200D02*
X32258000Y-77927202D01*
X32258000Y-77927202D02*
X32258002Y-77927200D01*
X32258000Y-78943200D02*
X32664400Y-78943200D01*
X32664400Y-78943200D02*
X33121600Y-78486000D01*
X32258002Y-77927200D02*
X32562800Y-77927200D01*
X32562800Y-77927200D02*
X33121600Y-78486000D01*
X36601400Y-76256200D02*
X36601400Y-77876400D01*
D47*
X36601400Y-77876400D02*
X36588700Y-77889100D01*
D48*
X32280000Y-75904200D02*
X32280000Y-77905202D01*
D47*
X32280000Y-77905202D02*
X32258002Y-77927200D01*
D48*
X34607500Y-76256200D02*
X34607500Y-77901800D01*
D47*
X34607500Y-77901800D02*
X34594800Y-77914500D01*
D49*
X4673600Y-52374800D02*
X5740400Y-53441600D01*
X5740400Y-53441600D02*
X5740400Y-57923020D01*
X3098800Y-52374800D02*
X4673600Y-52374800D01*
X4501740Y-59161680D02*
X4376740Y-59161680D01*
X5740400Y-57923020D02*
X4501740Y-59161680D01*
D50*
X22500000Y-5830000D02*
X22500000Y-2170000D01*
D49*
X40322500Y-52463700D02*
X41402000Y-53543200D01*
X38785800Y-52463700D02*
X40322500Y-52463700D01*
X41402000Y-57269700D02*
X39997700Y-58674000D01*
X41402000Y-53543200D02*
X41402000Y-57269700D01*
D50*
X37500000Y-5830000D02*
X37500000Y-2170000D01*
X16500000Y-5830000D02*
X16500000Y-2170000D01*
X47599600Y-16282500D02*
X45763180Y-16282500D01*
D48*
X47548800Y-14325600D02*
X47548800Y-16231700D01*
D50*
X49115980Y-16282500D02*
X47599600Y-16282500D01*
D48*
X47548800Y-16231700D02*
X47599600Y-16282500D01*
X45720000Y-14325600D02*
X44805600Y-14325600D01*
X47548800Y-14325600D02*
X46634400Y-14325600D01*
X45720000Y-14325600D02*
X46634400Y-14325600D01*
X43891200Y-14325600D02*
X44805600Y-14325600D01*
X42976800Y-14325600D02*
X43891200Y-14325600D01*
X42062400Y-14325600D02*
X42976800Y-14325600D01*
X41148000Y-14325600D02*
X42062400Y-14325600D01*
X39268400Y-14325600D02*
X40182800Y-14325600D01*
X38354000Y-14325600D02*
X39268400Y-14325600D01*
X38354000Y-14325600D02*
X47548800Y-14325600D01*
X37829500Y-15092520D02*
X37829500Y-14850100D01*
X37829500Y-14850100D02*
X38354000Y-14325600D01*
D47*
X36017200Y-11430000D02*
X36017200Y-10515600D01*
D50*
X43500000Y-5830000D02*
X43500000Y-2170000D01*
D49*
X36017200Y-11430000D02*
X36940500Y-11430000D01*
X36940500Y-11430000D02*
X37829500Y-10541000D01*
X36017200Y-11430000D02*
X36017200Y-8636000D01*
X36017200Y-8636000D02*
X37954900Y-8636000D01*
D47*
X7744440Y-76647040D02*
X8138160Y-76647040D01*
D48*
X29006800Y-61518800D02*
X30886402Y-61518800D01*
X23977600Y-62280800D02*
X28244800Y-62280800D01*
X28244800Y-62280800D02*
X29006800Y-61518800D01*
X21894800Y-62230000D02*
X23926800Y-62230000D01*
X23926800Y-62230000D02*
X23977600Y-62280800D01*
D49*
X40529500Y-10541000D02*
X46456600Y-10541000D01*
X46456600Y-10541000D02*
X46532800Y-10617200D01*
X40454900Y-8636000D02*
X40454900Y-10466400D01*
X40454900Y-10466400D02*
X40529500Y-10541000D01*
X40154910Y-6363590D02*
X39621320Y-5830000D01*
X39621320Y-5830000D02*
X37500000Y-5830000D01*
X40154910Y-7724727D02*
X40154910Y-6363590D01*
X40454900Y-8636000D02*
X40454900Y-8024717D01*
X40454900Y-8024717D02*
X40154910Y-7724727D01*
D48*
X32994600Y-37370700D02*
X32994600Y-35839400D01*
X32994600Y-35839400D02*
X33020000Y-35814000D01*
X34137600Y-34696400D02*
X33020000Y-35814000D01*
X2501900Y-33730200D02*
X2501900Y-34462400D01*
X2501900Y-34462400D02*
X4285300Y-36245800D01*
X6522400Y-36245800D02*
X4285300Y-36245800D01*
D49*
X19405600Y-13817600D02*
X21718520Y-13817600D01*
X21718520Y-13817600D02*
X21926800Y-13609320D01*
X19405600Y-12954000D02*
X21271480Y-12954000D01*
X21271480Y-12954000D02*
X21926800Y-13609320D01*
X17059900Y-11008360D02*
X17459960Y-11008360D01*
X17459960Y-11008360D02*
X19405600Y-12954000D01*
X17059900Y-11008360D02*
X17104360Y-11008360D01*
X17104360Y-11008360D02*
X18643600Y-12547600D01*
X18643600Y-13411200D02*
X18643600Y-12547600D01*
X19405600Y-13817600D02*
X19405600Y-12954000D01*
D48*
X18478500Y-43127400D02*
X18478500Y-41079770D01*
X18478500Y-41079770D02*
X18776809Y-40781461D01*
X18776809Y-38296709D02*
X18605500Y-38125400D01*
X18776809Y-40781461D02*
X18776809Y-38296709D01*
X16459200Y-38207000D02*
X16459200Y-38956715D01*
X16459200Y-38956715D02*
X16459200Y-39522400D01*
X16540800Y-38125400D02*
X16459200Y-38207000D01*
X18605500Y-38125400D02*
X18605500Y-36225800D01*
X18605500Y-36225800D02*
X18600100Y-36220400D01*
X18605500Y-38125400D02*
X16540800Y-38125400D01*
X32156400Y-12598400D02*
X33561020Y-14003020D01*
X29306240Y-12598400D02*
X32156400Y-12598400D01*
X28808960Y-12146560D02*
X28854400Y-12146560D01*
X28854400Y-12146560D02*
X29306240Y-12598400D01*
X27547300Y-7823200D02*
X27547300Y-10884900D01*
X27547300Y-10884900D02*
X28808960Y-12146560D01*
X33561020Y-14003020D02*
X33561020Y-15203180D01*
X22500000Y-5830000D02*
X25554100Y-5830000D01*
X25554100Y-5830000D02*
X27547300Y-7823200D01*
D49*
X17059900Y-11008360D02*
X17059900Y-9142400D01*
X17059900Y-9142400D02*
X17051340Y-9133840D01*
X17059900Y-11008360D02*
X22709820Y-11008360D01*
X22709820Y-11008360D02*
X22714900Y-11003280D01*
X17051340Y-9133840D02*
X22740300Y-9133840D01*
X21926800Y-13609320D02*
X21926800Y-11791380D01*
X21926800Y-11791380D02*
X22714900Y-11003280D01*
X22740300Y-9133840D02*
X22740300Y-10977880D01*
X22740300Y-10977880D02*
X22714900Y-11003280D01*
X22500000Y-5830000D02*
X22500000Y-8893540D01*
X22500000Y-8893540D02*
X22740300Y-9133840D01*
D48*
X20523200Y-17881600D02*
X20523200Y-19608800D01*
X20523200Y-18745200D02*
X21780480Y-18745200D01*
X21780480Y-18745200D02*
X21899880Y-18864600D01*
X20523200Y-19608800D02*
X21155680Y-19608800D01*
X21155680Y-19608800D02*
X21899880Y-18864600D01*
X20523200Y-17881600D02*
X20916880Y-17881600D01*
X20916880Y-17881600D02*
X21899880Y-18864600D01*
X20523200Y-25247600D02*
X20523200Y-24282400D01*
X20523200Y-23368000D02*
X20523200Y-24282400D01*
X20523200Y-23368000D02*
X21003280Y-23368000D01*
X21003280Y-23368000D02*
X21899880Y-24264600D01*
X20523200Y-25247600D02*
X20916880Y-25247600D01*
X20916880Y-25247600D02*
X21899880Y-24264600D01*
X36779200Y-31527200D02*
X36779200Y-34340800D01*
X36510000Y-31258000D02*
X36779200Y-31527200D01*
X36779200Y-34340800D02*
X36423600Y-34696400D01*
X34137600Y-34696400D02*
X36423600Y-34696400D01*
D49*
X49987200Y-12496800D02*
X48412400Y-12496800D01*
X53441280Y-10617200D02*
X46532800Y-10617200D01*
X48412400Y-12496800D02*
X46532800Y-10617200D01*
X49987200Y-12496800D02*
X49987200Y-12166280D01*
X49987200Y-12166280D02*
X53453980Y-8699500D01*
X50800000Y-12954000D02*
X51104480Y-12954000D01*
X51104480Y-12954000D02*
X53441280Y-10617200D01*
X50800000Y-12954000D02*
X53440580Y-12954000D01*
X53440580Y-12954000D02*
X53681880Y-13195300D01*
X49987200Y-13360400D02*
X49987200Y-12496800D01*
D48*
X42270360Y-36286440D02*
X40045960Y-36286440D01*
X40045960Y-36286440D02*
X40035800Y-36296600D01*
X51663596Y-17830800D02*
X51663596Y-19557996D01*
X51663596Y-19557996D02*
X51663600Y-19558000D01*
X52913172Y-19558000D02*
X53608286Y-18862886D01*
X51663600Y-19558000D02*
X52913172Y-19558000D01*
X51663596Y-18694400D02*
X53439800Y-18694400D01*
X53439800Y-18694400D02*
X53608286Y-18862886D01*
X51663596Y-17830800D02*
X52576200Y-17830800D01*
X52576200Y-17830800D02*
X53608286Y-18862886D01*
X51663600Y-25146000D02*
X51663600Y-23317200D01*
X51663600Y-25146000D02*
X52725172Y-25146000D01*
X52725172Y-25146000D02*
X53608286Y-24262886D01*
X51663600Y-23317200D02*
X52662600Y-23317200D01*
X52662600Y-23317200D02*
X53608286Y-24262886D01*
X39522400Y-28651200D02*
X42976800Y-28651200D01*
X42976800Y-28651200D02*
X42976800Y-28652400D01*
X42976800Y-28652400D02*
X41098400Y-30530800D01*
X42113200Y-28651200D02*
X42113200Y-29516000D01*
X42113200Y-29516000D02*
X41098400Y-30530800D01*
X41249600Y-28651200D02*
X41249600Y-30379600D01*
X41249600Y-30379600D02*
X41098400Y-30530800D01*
X40386000Y-28651200D02*
X40386000Y-29818400D01*
X40386000Y-29818400D02*
X41098400Y-30530800D01*
X39522400Y-28651200D02*
X39522400Y-28954800D01*
X39522400Y-28954800D02*
X41098400Y-30530800D01*
X38049200Y-33832800D02*
X38303200Y-33832800D01*
X38303200Y-33832800D02*
X38811200Y-34340800D01*
X41098400Y-30530800D02*
X41098400Y-32053600D01*
X41098400Y-32053600D02*
X38811200Y-34340800D01*
X41098400Y-30530800D02*
X41098400Y-31088400D01*
X41098400Y-31088400D02*
X38811200Y-33375600D01*
X38811200Y-33375600D02*
X38811200Y-32818000D01*
X38811200Y-32818000D02*
X41098400Y-30530800D01*
X41098400Y-30530800D02*
X40386000Y-30530800D01*
X40386000Y-30530800D02*
X38049200Y-32867600D01*
X38049200Y-34798000D02*
X38354000Y-34798000D01*
X38354000Y-34798000D02*
X38811200Y-34340800D01*
X38049200Y-32867600D02*
X38049200Y-34798000D01*
X37535800Y-36296600D02*
X37535800Y-35311400D01*
X37535800Y-35311400D02*
X38049200Y-34798000D01*
X11277600Y-28702000D02*
X11277600Y-30028720D01*
X11277600Y-30028720D02*
X11840640Y-30591760D01*
X4267200Y-34086800D02*
X4267200Y-32359600D01*
X4267200Y-34086800D02*
X5029200Y-34086800D01*
X5029200Y-34086800D02*
X10414000Y-28702000D01*
X4267200Y-33223200D02*
X5892800Y-33223200D01*
X5892800Y-33223200D02*
X10414000Y-28702000D01*
X5029200Y-33629600D02*
X5029200Y-33223200D01*
X5029200Y-33223200D02*
X9550400Y-28702000D01*
X5029200Y-32766000D02*
X5029200Y-32359600D01*
X5029200Y-32359600D02*
X8686800Y-28702000D01*
X4267200Y-32359600D02*
X4267200Y-32258000D01*
X4267200Y-32258000D02*
X7823200Y-28702000D01*
X1785300Y-36245800D02*
X1785300Y-38361300D01*
X1785300Y-38361300D02*
X3098800Y-39674800D01*
X7823200Y-28702000D02*
X11277600Y-28702000D01*
X11277600Y-28702000D02*
X11277600Y-28804800D01*
X11277600Y-28804800D02*
X9490640Y-30591760D01*
X10414000Y-28702000D02*
X10414000Y-29668400D01*
X10414000Y-29668400D02*
X9490640Y-30591760D01*
X9550400Y-28702000D02*
X9550400Y-30532000D01*
X9550400Y-30532000D02*
X9490640Y-30591760D01*
X8686800Y-28702000D02*
X8686800Y-29787920D01*
X8686800Y-29787920D02*
X9490640Y-30591760D01*
X7823200Y-28702000D02*
X7823200Y-28924320D01*
X7823200Y-28924320D02*
X9490640Y-30591760D01*
X11840640Y-30591760D02*
X13450640Y-30591760D01*
X9490640Y-30591760D02*
X13450640Y-30591760D01*
X16272520Y-30198060D02*
X15878820Y-30591760D01*
X15878820Y-30591760D02*
X13450640Y-30591760D01*
X21899880Y-24264600D02*
X21899880Y-27061480D01*
X21899880Y-27061480D02*
X23235600Y-28397200D01*
X20523200Y-24282400D02*
X21882080Y-24282400D01*
X21882080Y-24282400D02*
X21899880Y-24264600D01*
X12128500Y-43127400D02*
X12128500Y-44167402D01*
X12128500Y-44167402D02*
X12538499Y-44577401D01*
X12538499Y-44577401D02*
X20608501Y-44577401D01*
X21018500Y-44167402D02*
X21018500Y-43127400D01*
X20608501Y-44577401D02*
X21018500Y-44167402D01*
X21100100Y-36220400D02*
X22173200Y-36220400D01*
X25709880Y-28371480D02*
X25735600Y-28397200D01*
D49*
X25948640Y-16286480D02*
X25948640Y-13631160D01*
X25948640Y-13631160D02*
X25926800Y-13609320D01*
X25926800Y-13609320D02*
X25926800Y-11715180D01*
X25926800Y-11715180D02*
X25214900Y-11003280D01*
X25240300Y-9133840D02*
X25240300Y-10977880D01*
X25240300Y-10977880D02*
X25214900Y-11003280D01*
D48*
X15938500Y-43127400D02*
X15938500Y-41377400D01*
X14040800Y-39479700D02*
X14040800Y-38125400D01*
X15938500Y-41377400D02*
X14040800Y-39479700D01*
X11271199Y-37700001D02*
X10871200Y-38100000D01*
X13615401Y-37700001D02*
X11271199Y-37700001D01*
X14040800Y-38125400D02*
X13615401Y-37700001D01*
X14579600Y-27432000D02*
X15475900Y-27432000D01*
X15475900Y-27432000D02*
X16286160Y-28242260D01*
X14579600Y-27432000D02*
X14579600Y-27962800D01*
X14579600Y-27962800D02*
X13450640Y-29091760D01*
X33883600Y-44653200D02*
X32969200Y-44653200D01*
X28092400Y-44551600D02*
X28194000Y-44653200D01*
X28092400Y-42302900D02*
X28092400Y-44551600D01*
X28194000Y-44653200D02*
X32969200Y-44653200D01*
X36233100Y-42303700D02*
X33883600Y-44653200D01*
X38785800Y-42303700D02*
X36233100Y-42303700D01*
X28295600Y-35276800D02*
X30975300Y-35276800D01*
X30975300Y-35276800D02*
X31013400Y-35314900D01*
X31013400Y-35314900D02*
X31013400Y-35389500D01*
X31013400Y-35389500D02*
X32994600Y-37370700D01*
X30962600Y-35264100D02*
X31013400Y-35314900D01*
X30557200Y-29552900D02*
X30557200Y-34858700D01*
X30557200Y-34858700D02*
X31013400Y-35314900D01*
X51351500Y-39616700D02*
X51358800Y-39624000D01*
X51351500Y-38176200D02*
X51351500Y-39616700D01*
X53474300Y-38176200D02*
X54216300Y-38918200D01*
X54216300Y-38918200D02*
X54216300Y-43013100D01*
X53474300Y-38176200D02*
X53474300Y-36258500D01*
X53474300Y-36258500D02*
X53461600Y-36245800D01*
X51351500Y-38176200D02*
X53474300Y-38176200D01*
D49*
X53441280Y-10617200D02*
X53441280Y-12954700D01*
X53441280Y-12954700D02*
X53681880Y-13195300D01*
X53453980Y-8699500D02*
X53453980Y-10604500D01*
X53453980Y-10604500D02*
X53441280Y-10617200D01*
D48*
X51694886Y-24262886D02*
X51663600Y-24231600D01*
X53608286Y-24262886D02*
X51694886Y-24262886D01*
X43448400Y-30530800D02*
X41098400Y-30530800D01*
X45058400Y-30530800D02*
X43448400Y-30530800D01*
X45058400Y-30530800D02*
X47593260Y-30530800D01*
X47593260Y-30530800D02*
X47832020Y-30292040D01*
X55493600Y-27838400D02*
X53608286Y-25953086D01*
X53608286Y-25953086D02*
X53608286Y-24262886D01*
X44770360Y-36286440D02*
X44770360Y-39917160D01*
X44770360Y-39917160D02*
X47866300Y-43013100D01*
X56756300Y-43013100D02*
X56756300Y-44053102D01*
X48276299Y-44463101D02*
X47866300Y-44053102D01*
X56756300Y-44053102D02*
X56346301Y-44463101D01*
X56346301Y-44463101D02*
X48276299Y-44463101D01*
X47866300Y-44053102D02*
X47866300Y-43013100D01*
X57993600Y-29565600D02*
X57993600Y-31400800D01*
X57993600Y-27838400D02*
X57993600Y-29565600D01*
X56141400Y-29565600D02*
X57993600Y-29565600D01*
X53246280Y-29565600D02*
X56141400Y-29565600D01*
X50330420Y-28399740D02*
X52080420Y-28399740D01*
X52080420Y-28399740D02*
X53246280Y-29565600D01*
X55961600Y-36245800D02*
X55961600Y-34436000D01*
X55961600Y-34436000D02*
X58495200Y-31902400D01*
X57993600Y-31400800D02*
X58495200Y-31902400D01*
X56921400Y-36245800D02*
X57810400Y-37134800D01*
X55961600Y-36245800D02*
X56921400Y-36245800D01*
X57810400Y-37134800D02*
X57810400Y-40209000D01*
X56756300Y-41263100D02*
X56756300Y-43013100D01*
X57810400Y-40209000D02*
X56756300Y-41263100D01*
X57993600Y-27838400D02*
X57993600Y-24838200D01*
X57993600Y-24838200D02*
X57418286Y-24262886D01*
X58292000Y-28136800D02*
X57993600Y-27838400D01*
X57418286Y-18862886D02*
X57418286Y-24262886D01*
X57418286Y-18862886D02*
X57418286Y-16557694D01*
X57418286Y-16557694D02*
X57732680Y-16243300D01*
D49*
X57732680Y-16243300D02*
X57732680Y-13246100D01*
X57732680Y-13246100D02*
X57681880Y-13195300D01*
X57681880Y-13195300D02*
X57681880Y-12357800D01*
X57681880Y-12357800D02*
X55941280Y-10617200D01*
X55953980Y-8699500D02*
X55953980Y-10604500D01*
X55953980Y-10604500D02*
X55941280Y-10617200D01*
D48*
X51676300Y-41648030D02*
X48851500Y-38823230D01*
X51676300Y-43013100D02*
X51676300Y-41648030D01*
X48851500Y-38823230D02*
X48851500Y-38176200D01*
X46278800Y-27127200D02*
X45878801Y-27527199D01*
X45878801Y-28210399D02*
X45689460Y-28399740D01*
X45878801Y-27527199D02*
X45878801Y-28210399D01*
X46304200Y-38176200D02*
X46278800Y-38150800D01*
X48851500Y-38176200D02*
X46304200Y-38176200D01*
X45058400Y-29030800D02*
X45689460Y-28399740D01*
X45689460Y-28399740D02*
X47830420Y-28399740D01*
X4318000Y-30429200D02*
X2502900Y-30429200D01*
X2502900Y-30429200D02*
X2501900Y-30430200D01*
X19748500Y-41516300D02*
X19761200Y-41503600D01*
X21105500Y-38125400D02*
X21105500Y-40159300D01*
X21105500Y-40159300D02*
X19761200Y-41503600D01*
X19748500Y-43127400D02*
X19748500Y-41516300D01*
X2501900Y-28540700D02*
X2501900Y-30430200D01*
D47*
X31445200Y-83972400D02*
X32898400Y-83972400D01*
X32898400Y-83972400D02*
X32918400Y-83992400D01*
X31445200Y-88798400D02*
X31445200Y-83972400D01*
X32442401Y-89795601D02*
X31445200Y-88798400D01*
X33807400Y-94018100D02*
X32442401Y-92653101D01*
X32442401Y-92653101D02*
X32442401Y-89795601D01*
X40690800Y-75387200D02*
X40690800Y-82011200D01*
X40690800Y-82011200D02*
X40386000Y-82316000D01*
X39511000Y-82316000D02*
X38862000Y-82965000D01*
X38862000Y-82965000D02*
X38862000Y-84524315D01*
X40386000Y-82316000D02*
X39511000Y-82316000D01*
X38862000Y-84524315D02*
X38862000Y-85090000D01*
X33807400Y-90276019D02*
X34848800Y-89234619D01*
X33807400Y-91478100D02*
X33807400Y-90276019D01*
X34848800Y-89234619D02*
X34848800Y-85655685D01*
X34848800Y-85655685D02*
X34848800Y-85090000D01*
X47142400Y-84605058D02*
X47142400Y-86753660D01*
X40734860Y-95961200D02*
X47141202Y-89554858D01*
X47141202Y-89554858D02*
X47141202Y-89454858D01*
X42621200Y-86258400D02*
X45313600Y-86258400D01*
X45313600Y-86258400D02*
X45364400Y-86207600D01*
X38954700Y-86258400D02*
X42621200Y-86258400D01*
D49*
X17487210Y-21308810D02*
X22500670Y-21308810D01*
X22500670Y-21308810D02*
X22563480Y-21246000D01*
X17424400Y-21246000D02*
X17487210Y-21308810D01*
D48*
X24439880Y-18864600D02*
X24439880Y-19369600D01*
X24439880Y-19369600D02*
X23169880Y-20639600D01*
X24439880Y-20116800D02*
X24439880Y-20721320D01*
X24439880Y-18864600D02*
X24439880Y-20116800D01*
X23169880Y-18864600D02*
X23187680Y-18864600D01*
X23187680Y-18864600D02*
X24439880Y-20116800D01*
X24434800Y-18384520D02*
X24246680Y-18384520D01*
X22148640Y-16286480D02*
X21948640Y-16286480D01*
X24439880Y-18864600D02*
X24439880Y-18389600D01*
X24439880Y-18389600D02*
X24434800Y-18384520D01*
X23169880Y-18864600D02*
X24439880Y-18864600D01*
D49*
X22563480Y-21246000D02*
X23915200Y-21246000D01*
D48*
X24439880Y-20721320D02*
X23915200Y-21246000D01*
X23169880Y-18864600D02*
X23169880Y-20639600D01*
X23169880Y-20639600D02*
X22563480Y-21246000D01*
D50*
X14122400Y-21246000D02*
X14122400Y-23598500D01*
X14122400Y-23598500D02*
X15106020Y-24582120D01*
X17424400Y-21246000D02*
X14122400Y-21246000D01*
X14122400Y-16346000D02*
X14122400Y-11245860D01*
X14122400Y-11245860D02*
X14359900Y-11008360D01*
X14122400Y-16346000D02*
X17424400Y-16346000D01*
X10820400Y-16366320D02*
X14102080Y-16366320D01*
X14102080Y-16366320D02*
X14122400Y-16346000D01*
X7569200Y-16346000D02*
X10800080Y-16346000D01*
X10800080Y-16346000D02*
X10820400Y-16366320D01*
D49*
X14551340Y-9133840D02*
X14551340Y-10816920D01*
X14551340Y-10816920D02*
X14359900Y-11008360D01*
X16500000Y-5830000D02*
X14551340Y-7778660D01*
X14551340Y-7778660D02*
X14551340Y-9133840D01*
D48*
X35306000Y-29514800D02*
X33895300Y-29514800D01*
X33895300Y-29514800D02*
X33857200Y-29552900D01*
X55974300Y-38176200D02*
X55524400Y-38626100D01*
X55524400Y-38626100D02*
X55524400Y-41249600D01*
X55486300Y-41287700D02*
X55524400Y-41249600D01*
X55486300Y-43013100D02*
X55486300Y-41287700D01*
X33557200Y-27381200D02*
X33557200Y-29252900D01*
X33557200Y-29252900D02*
X33857200Y-29552900D01*
X54878286Y-18862886D02*
X54878286Y-18594764D01*
X54878286Y-20407314D02*
X56148286Y-19137314D01*
X56148286Y-19137314D02*
X56148286Y-18862886D01*
X54878286Y-20737106D02*
X54878286Y-20407314D01*
X54878286Y-18862886D02*
X56148286Y-18862886D01*
X56148286Y-20637886D02*
X55528162Y-21258010D01*
X56148286Y-18862886D02*
X56148286Y-20637886D01*
X55528162Y-21258010D02*
X55399190Y-21258010D01*
X54878286Y-18862886D02*
X54878286Y-20737106D01*
X54878286Y-20737106D02*
X55399190Y-21258010D01*
D49*
X50959433Y-21258010D02*
X49191490Y-21258010D01*
X50959433Y-21258010D02*
X55399190Y-21258010D01*
X49115980Y-21182500D02*
X49191490Y-21258010D01*
D50*
X46548680Y-24434800D02*
X46548680Y-21993400D01*
X46548680Y-21993400D02*
X45750480Y-21195200D01*
X49115980Y-21182500D02*
X45763180Y-21182500D01*
X45763180Y-21182500D02*
X45750480Y-21195200D01*
D49*
X37829500Y-11480800D02*
X37829500Y-15092520D01*
X39032180Y-12683480D02*
X37829500Y-11480800D01*
X37829500Y-10541000D02*
X37829500Y-11480800D01*
X39032180Y-16295200D02*
X39032180Y-12683480D01*
X37829500Y-15092520D02*
X39032180Y-16295200D01*
X37954900Y-8636000D02*
X37954900Y-10415600D01*
X37954900Y-10415600D02*
X37829500Y-10541000D01*
D50*
X42384980Y-16282500D02*
X39044880Y-16282500D01*
X39044880Y-16282500D02*
X39032180Y-16295200D01*
X45750480Y-16295200D02*
X42397680Y-16295200D01*
X42397680Y-16295200D02*
X42384980Y-16282500D01*
X45763180Y-16282500D02*
X45750480Y-16295200D01*
D48*
X34340800Y-33324800D02*
X35493200Y-33324800D01*
X35493200Y-33324800D02*
X35560000Y-33258000D01*
X34988500Y-41541700D02*
X35001200Y-41554400D01*
X34988500Y-39881800D02*
X34988500Y-41541700D01*
X32994600Y-39870700D02*
X34977400Y-39870700D01*
X34977400Y-39870700D02*
X34988500Y-39881800D01*
X32994600Y-39870700D02*
X32994600Y-41210700D01*
X32994600Y-41210700D02*
X31902400Y-42302900D01*
D47*
X14436299Y-74108101D02*
X14427696Y-74116704D01*
X15748000Y-72796400D02*
X15748000Y-73362085D01*
X15748000Y-73362085D02*
X15001984Y-74108101D01*
X14427696Y-74116704D02*
X14427696Y-83252429D01*
X15001984Y-74108101D02*
X14436299Y-74108101D01*
X14427696Y-83252429D02*
X14427696Y-83818114D01*
X49377600Y-88091256D02*
X49377600Y-90558200D01*
X49377600Y-90558200D02*
X50914300Y-92094900D01*
X47141202Y-86754858D02*
X48041202Y-86754858D01*
X48041202Y-86754858D02*
X49377600Y-88091256D01*
X47142400Y-86753660D02*
X47141202Y-86754858D01*
D48*
X18957280Y-32204660D02*
X21156660Y-32204660D01*
X21156660Y-32204660D02*
X21260800Y-32308800D01*
X19061420Y-32308800D02*
X18957280Y-32204660D01*
X18972520Y-30198060D02*
X18972520Y-32189420D01*
X18972520Y-32189420D02*
X18957280Y-32204660D01*
X50532020Y-32184340D02*
X54913260Y-32184340D01*
X54913260Y-32184340D02*
X55195200Y-31902400D01*
X50532020Y-30292040D02*
X50532020Y-32184340D01*
X2463800Y-23228300D02*
X2463800Y-25802600D01*
X2463800Y-25802600D02*
X2501900Y-25840700D01*
X2490200Y-7797800D02*
X2490200Y-10501900D01*
X2490200Y-10501900D02*
X2463800Y-10528300D01*
D50*
X8500000Y-5830000D02*
X8500000Y-2170000D01*
D48*
X8500000Y-5830000D02*
X7758000Y-5830000D01*
X7758000Y-5830000D02*
X5790200Y-7797800D01*
X30847300Y-7823200D02*
X30847300Y-10512000D01*
X30847300Y-10512000D02*
X30848360Y-10513060D01*
X30848360Y-23213060D02*
X30848360Y-27372360D01*
X30848360Y-27372360D02*
X30857200Y-27381200D01*
D47*
X33210500Y-95961200D02*
X40734860Y-95961200D01*
X31267400Y-94018100D02*
X33210500Y-95961200D01*
X53873400Y-67644000D02*
X49233783Y-67644000D01*
X49233783Y-67644000D02*
X49177940Y-67588157D01*
X26187400Y-82067402D02*
X26162000Y-82042002D01*
X26187400Y-91478100D02*
X26187400Y-82067402D01*
X26187400Y-94018100D02*
X27533600Y-92671900D01*
X27533600Y-92671900D02*
X27533600Y-82302885D01*
X27533600Y-82302885D02*
X27533600Y-81737200D01*
X23647400Y-91478100D02*
X23647400Y-81762600D01*
X23647400Y-81762600D02*
X23622000Y-81737200D01*
X23647400Y-94018100D02*
X24841200Y-92824300D01*
X24841200Y-82302885D02*
X24841200Y-81737200D01*
X24841200Y-92824300D02*
X24841200Y-82302885D01*
X863600Y-77927200D02*
X2334280Y-77927200D01*
X2334280Y-77927200D02*
X2344440Y-77917040D01*
X17221200Y-54000400D02*
X17621199Y-54400399D01*
X17621199Y-54400399D02*
X18731499Y-54400399D01*
X18731499Y-54400399D02*
X20528600Y-56197500D01*
X17208500Y-52427400D02*
X17208500Y-53987700D01*
X17208500Y-53987700D02*
X17221200Y-54000400D01*
X52251600Y-59385200D02*
X52251600Y-57504000D01*
X52251600Y-57504000D02*
X52202400Y-57454800D01*
X56730900Y-53822600D02*
X58191400Y-55283100D01*
X58191400Y-55283100D02*
X58191400Y-56776300D01*
X17211000Y-77359800D02*
X17211000Y-77409800D01*
X47879000Y-53822600D02*
X47879000Y-52325800D01*
X47879000Y-52325800D02*
X47866300Y-52313100D01*
X56730900Y-53822600D02*
X56730900Y-52338500D01*
X56730900Y-52338500D02*
X56756300Y-52313100D01*
X12128500Y-52427400D02*
X12128500Y-54000400D01*
X12128500Y-54000400D02*
X12065000Y-54063900D01*
X14668500Y-52427400D02*
X14668500Y-54102000D01*
X14668500Y-54102000D02*
X14681200Y-54114700D01*
X24968200Y-60787600D02*
X24968200Y-61290200D01*
X24968200Y-61290200D02*
X23977600Y-62280800D01*
X23012400Y-60773300D02*
X23012400Y-61315600D01*
X23012400Y-61315600D02*
X23977600Y-62280800D01*
X23012400Y-60773300D02*
X23012400Y-61112400D01*
X23012400Y-61112400D02*
X21894800Y-62230000D01*
X21005800Y-60773300D02*
X21005800Y-61341000D01*
X21005800Y-61341000D02*
X21894800Y-62230000D01*
X30924500Y-59809700D02*
X30924500Y-61480702D01*
X30924500Y-61480702D02*
X30886402Y-61518800D01*
X29032200Y-59809700D02*
X29032200Y-61493400D01*
X29032200Y-61493400D02*
X29006800Y-61518800D01*
X19748500Y-52877400D02*
X21805900Y-54934800D01*
X21805900Y-54934800D02*
X21805900Y-54978302D01*
X19748500Y-52427400D02*
X19748500Y-52877400D01*
X24968200Y-60787600D02*
X24968200Y-60912600D01*
X23012400Y-60773300D02*
X23012400Y-60873300D01*
X21005800Y-60773300D02*
X21005800Y-60873300D01*
D48*
X29032200Y-59809700D02*
X30924500Y-59809700D01*
X29032200Y-59809700D02*
X29032200Y-59945110D01*
D47*
X55486300Y-54133513D02*
X55683113Y-54330326D01*
X55486300Y-52313100D02*
X55486300Y-54133513D01*
X58191400Y-59276300D02*
X58191400Y-59855100D01*
X58191400Y-59855100D02*
X57277000Y-60769500D01*
X29032200Y-59809700D02*
X29032200Y-59934700D01*
D49*
X3098800Y-56997600D02*
X1876740Y-58219660D01*
X3098800Y-54914800D02*
X3098800Y-56997600D01*
X1876740Y-58219660D02*
X1876740Y-59161680D01*
X1874200Y-61163200D02*
X1874200Y-63338800D01*
X1874200Y-63338800D02*
X1949592Y-63414192D01*
X1949592Y-63414192D02*
X1949592Y-63614200D01*
X1876740Y-59161680D02*
X1876740Y-61160660D01*
X1876740Y-61160660D02*
X1874200Y-61163200D01*
X4374200Y-61163200D02*
X4374200Y-63389600D01*
X4376740Y-59161680D02*
X4376740Y-61160660D01*
X4376740Y-61160660D02*
X4374200Y-61163200D01*
X38785800Y-56210200D02*
X37490400Y-57505600D01*
X38785800Y-55003700D02*
X38785800Y-56210200D01*
X37490400Y-57505600D02*
X37497700Y-57512900D01*
X37497700Y-57512900D02*
X37497700Y-58674000D01*
X37497700Y-58674000D02*
X37497700Y-60731400D01*
X37497700Y-60731400D02*
X37497700Y-62792700D01*
X37497700Y-62792700D02*
X37661992Y-62956992D01*
X37661992Y-62956992D02*
X37661992Y-63157000D01*
X39997700Y-60731400D02*
X39997700Y-63021300D01*
X39997700Y-58674000D02*
X39997700Y-60731400D01*
D47*
X13398500Y-52427400D02*
X13398500Y-57768500D01*
X13398500Y-57768500D02*
X13804900Y-58174900D01*
X16107100Y-58174900D02*
X16352200Y-58420000D01*
X16214100Y-58558100D02*
X16352200Y-58420000D01*
X47434500Y-57019200D02*
X47434500Y-56019200D01*
X47434500Y-56019200D02*
X49136300Y-54317400D01*
X49136300Y-54317400D02*
X49136300Y-53313100D01*
X49136300Y-53313100D02*
X49136300Y-52313100D01*
X49702400Y-57454800D02*
X49702400Y-59234400D01*
X49702400Y-59234400D02*
X49551600Y-59385200D01*
X50054000Y-63982600D02*
X50054000Y-59887600D01*
X50054000Y-59887600D02*
X49551600Y-59385200D01*
X49702400Y-57454800D02*
X47870100Y-57454800D01*
X47870100Y-57454800D02*
X47434500Y-57019200D01*
X13919200Y-62839600D02*
X13919200Y-60989200D01*
X13919200Y-60989200D02*
X13804900Y-60874900D01*
X47434500Y-59719200D02*
X47434500Y-61158799D01*
X47940602Y-61664901D02*
X48340601Y-62064900D01*
X47434500Y-61158799D02*
X47940602Y-61664901D01*
D49*
X36347400Y-94018100D02*
X38887400Y-94018100D01*
X41249600Y-90030300D02*
X41249600Y-92857981D01*
X41249600Y-92857981D02*
X40089481Y-94018100D01*
X40089481Y-94018100D02*
X38887400Y-94018100D01*
X40233600Y-89014300D02*
X41249600Y-90030300D01*
X37553900Y-89014300D02*
X40233600Y-89014300D01*
X36360100Y-87820500D02*
X37553900Y-89014300D01*
X36360100Y-86363800D02*
X36360100Y-87820500D01*
D47*
X5384800Y-73101200D02*
X5384800Y-71532480D01*
X5384800Y-71532480D02*
X5445760Y-71471520D01*
X25666700Y-68834000D02*
X20539700Y-68834000D01*
X20539700Y-68834000D02*
X20535900Y-68837800D01*
X5422900Y-71448660D02*
X5445760Y-71471520D01*
X2969260Y-71471520D02*
X5445760Y-71471520D01*
X26390600Y-56730900D02*
X26403300Y-56718200D01*
X26390600Y-60452000D02*
X26390600Y-56730900D01*
X54216301Y-53803016D02*
X54216301Y-54368701D01*
X54216300Y-52313100D02*
X54216301Y-53803016D01*
X19306718Y-53705618D02*
X19306718Y-53950298D01*
X18478500Y-52877400D02*
X19306718Y-53705618D01*
X18478500Y-52427400D02*
X18478500Y-52877400D01*
X29387800Y-54940200D02*
X29387800Y-53023300D01*
X29387800Y-53023300D02*
X29362400Y-52997900D01*
X30607000Y-54927500D02*
X30607000Y-53023300D01*
X30607000Y-53023300D02*
X30632400Y-52997900D01*
X21107400Y-91478100D02*
X12230100Y-91478100D01*
X12230100Y-91478100D02*
X11544300Y-90792300D01*
X21107400Y-94018100D02*
X12230100Y-94018100D01*
X12230100Y-94018100D02*
X11544300Y-93332300D01*
X18767300Y-66139100D02*
X20534600Y-66139100D01*
X20534600Y-66139100D02*
X20535900Y-66137800D01*
X52054000Y-64932600D02*
X53862000Y-64932600D01*
X53862000Y-64932600D02*
X53873400Y-64944000D01*
X7203440Y-81727040D02*
X3393440Y-77917040D01*
X7744440Y-81727040D02*
X7203440Y-81727040D01*
X3393440Y-77917040D02*
X3344440Y-77917040D01*
X3344440Y-77917040D02*
X2344440Y-77917040D01*
X17208500Y-52427400D02*
X17208500Y-52877400D01*
X20528600Y-56197500D02*
X21236600Y-56197500D01*
X21236600Y-56197500D02*
X23012400Y-57973300D01*
X23012400Y-57973300D02*
X23012400Y-58073300D01*
X17221200Y-52440100D02*
X17208500Y-52427400D01*
X7294440Y-81727040D02*
X7744440Y-81727040D01*
X15786100Y-71170800D02*
X15878800Y-71170800D01*
X15878800Y-71170800D02*
X17386300Y-72678300D01*
X15938500Y-52427400D02*
X15938500Y-53930402D01*
X15938500Y-53930402D02*
X17220509Y-55212411D01*
X21005800Y-57973300D02*
X21005800Y-58073300D01*
X18244911Y-55212411D02*
X21005800Y-57973300D01*
X17220509Y-55212411D02*
X18244911Y-55212411D01*
D50*
X10820400Y-21266320D02*
X10820400Y-23867740D01*
X10820400Y-23867740D02*
X10106020Y-24582120D01*
X7569200Y-21246000D02*
X10800080Y-21246000D01*
X10800080Y-21246000D02*
X10820400Y-21266320D01*
D47*
X52946300Y-52313100D02*
X52946300Y-54675470D01*
X56261000Y-56462000D02*
X55032789Y-55233789D01*
X56261000Y-56562000D02*
X56261000Y-56462000D01*
X53504619Y-55233789D02*
X53104620Y-54833790D01*
X52946300Y-54675470D02*
X53104620Y-54833790D01*
X55032789Y-55233789D02*
X53504619Y-55233789D01*
X6096000Y-84277200D02*
X7734280Y-84277200D01*
X7734280Y-84277200D02*
X7744440Y-84267040D01*
X6118860Y-79187040D02*
X6096000Y-79209900D01*
X7744440Y-79187040D02*
X6118860Y-79187040D01*
X51676300Y-54430790D02*
X52896712Y-55651202D01*
X52896712Y-55651202D02*
X52896712Y-55908611D01*
X52896712Y-55908611D02*
X53296711Y-56308610D01*
X51676300Y-52313100D02*
X51676300Y-54430790D01*
X53296711Y-56428111D02*
X53296711Y-56308610D01*
X53430600Y-56562000D02*
X53296711Y-56428111D01*
X54330600Y-56562000D02*
X53430600Y-56562000D01*
X57569100Y-68046600D02*
X57594500Y-68021200D01*
X57569100Y-69706500D02*
X57569100Y-68046600D01*
D50*
X41548680Y-24434800D02*
X41548680Y-22018800D01*
X41548680Y-22018800D02*
X42384980Y-21182500D01*
X39032180Y-21195200D02*
X42372280Y-21195200D01*
X42372280Y-21195200D02*
X42384980Y-21182500D01*
D48*
X33561020Y-17903180D02*
X33561020Y-20130780D01*
X31013400Y-38014900D02*
X30996900Y-37998400D01*
X30996900Y-37998400D02*
X30436087Y-37998400D01*
X30436087Y-37998400D02*
X29870402Y-37998400D01*
X33528000Y-24587200D02*
X33528000Y-22863800D01*
X33528000Y-22863800D02*
X33561020Y-22830780D01*
X31013400Y-38014900D02*
X31013400Y-39883400D01*
X31013400Y-39883400D02*
X30904500Y-39992300D01*
X30904500Y-39992300D02*
X30632400Y-40264400D01*
X30632400Y-40264400D02*
X30632400Y-42302900D01*
X28404500Y-39992300D02*
X28404500Y-38085700D01*
X28404500Y-38085700D02*
X28295600Y-37976800D01*
X28321000Y-39908800D02*
X28404500Y-39992300D01*
X29362400Y-42302900D02*
X29362400Y-40950200D01*
X29362400Y-40950200D02*
X28404500Y-39992300D01*
D47*
X27693300Y-39992300D02*
X27818300Y-39992300D01*
X29362400Y-41536400D02*
X29362400Y-42302900D01*
X57556400Y-80890100D02*
X57556400Y-83016100D01*
X57556400Y-83016100D02*
X57518300Y-83054200D01*
X56730900Y-76336400D02*
X56730900Y-77364600D01*
X56730900Y-77364600D02*
X57556400Y-78190100D01*
X50192900Y-79050900D02*
X50192900Y-80330000D01*
X50192900Y-80330000D02*
X50977800Y-81114900D01*
X50977800Y-86127600D02*
X50977800Y-83814900D01*
X2344440Y-76647040D02*
X2344440Y-75396340D01*
X2344440Y-75396340D02*
X2969260Y-74771520D01*
X5445760Y-76984860D02*
X6377940Y-77917040D01*
X5445760Y-74771520D02*
X5445760Y-76984860D01*
X6377940Y-77917040D02*
X7744440Y-77917040D01*
X18161000Y-79409800D02*
X18161000Y-80526900D01*
X18161000Y-80526900D02*
X17348200Y-81339700D01*
X17369800Y-86423500D02*
X17369800Y-84061300D01*
X17369800Y-84061300D02*
X17348200Y-84039700D01*
X12750800Y-79785200D02*
X12750800Y-81949300D01*
X12954000Y-75333100D02*
X12954000Y-76882000D01*
X12954000Y-76882000D02*
X12750800Y-77085200D01*
X57680900Y-74336400D02*
X57680900Y-72518300D01*
X57680900Y-72518300D02*
X57569100Y-72406500D01*
X50956200Y-75298300D02*
X50956200Y-76864200D01*
X50956200Y-76864200D02*
X51142900Y-77050900D01*
X51054000Y-73244700D02*
X51054000Y-75200500D01*
X51054000Y-75200500D02*
X50956200Y-75298300D01*
X19111000Y-77409800D02*
X19111000Y-77203000D01*
X19111000Y-77203000D02*
X17386300Y-75478300D01*
X17386300Y-75478300D02*
X17386300Y-75378300D01*
X14189700Y-69646800D02*
X14189700Y-71602600D01*
X13904000Y-73333100D02*
X13904000Y-71888300D01*
X13904000Y-71888300D02*
X14189700Y-71602600D01*
X51054000Y-70544700D02*
X51054000Y-70444700D01*
X51054000Y-70444700D02*
X49728540Y-69119240D01*
X49728540Y-69119240D02*
X49728540Y-68422940D01*
X9281160Y-82997040D02*
X9283700Y-82994500D01*
X7744440Y-82997040D02*
X9281160Y-82997040D01*
X8646160Y-80457040D02*
X9550400Y-79552800D01*
X7744440Y-80457040D02*
X8646160Y-80457040D01*
X9550400Y-79552800D02*
X9550400Y-76454002D01*
X9550400Y-76454002D02*
X9499600Y-76403202D01*
X9906000Y-73195915D02*
X9906000Y-73761600D01*
X11389700Y-69646800D02*
X9906000Y-71130500D01*
X11489700Y-69646800D02*
X11389700Y-69646800D01*
X9906000Y-71130500D02*
X9906000Y-73195915D01*
D48*
X14668500Y-41853385D02*
X12496800Y-39681685D01*
X12496800Y-39681685D02*
X12496800Y-39116000D01*
X14668500Y-43127400D02*
X14668500Y-41853385D01*
X23164800Y-25908000D02*
X23164800Y-24269680D01*
X23164800Y-24269680D02*
X23169880Y-24264600D01*
X13813800Y-35200600D02*
X13411200Y-34798000D01*
X13813800Y-36207700D02*
X13813800Y-35200600D01*
X17208500Y-40652700D02*
X17576800Y-40284400D01*
X17208500Y-43127400D02*
X17208500Y-40652700D01*
X17221200Y-34798000D02*
X16513800Y-35505400D01*
X16513800Y-35505400D02*
X16513800Y-36207700D01*
X51311800Y-35803317D02*
X52418717Y-34696400D01*
X52418717Y-34696400D02*
X52984402Y-34696400D01*
X51311800Y-36283900D02*
X51311800Y-35803317D01*
X52946300Y-40017700D02*
X52984400Y-39979600D01*
X52946300Y-43013100D02*
X52946300Y-40017700D01*
X54878286Y-25363486D02*
X55422800Y-25908000D01*
X54878286Y-24262886D02*
X54878286Y-25363486D01*
X55422800Y-25908000D02*
X56286400Y-25908000D01*
X50406300Y-43013100D02*
X50406300Y-42075100D01*
X50406300Y-42075100D02*
X47752000Y-39420800D01*
X48611800Y-35200600D02*
X48158400Y-34747200D01*
X48611800Y-36283900D02*
X48611800Y-35200600D01*
D47*
X12750800Y-84649300D02*
X14037300Y-84649300D01*
X14037300Y-84649300D02*
X14173200Y-84785200D01*
X20069800Y-84883000D02*
X20091400Y-84861400D01*
X20069800Y-86423500D02*
X20069800Y-84883000D01*
X50977800Y-88727600D02*
X48971200Y-86721000D01*
X48971200Y-86721000D02*
X48971200Y-86258400D01*
X36360100Y-83663800D02*
X38954700Y-86258400D01*
D49*
X37862000Y-70532000D02*
X38862000Y-71532000D01*
X37862000Y-67907000D02*
X37862000Y-70532000D01*
X38862000Y-71532000D02*
X38862000Y-78411900D01*
X38862000Y-78411900D02*
X36360100Y-80913800D01*
X33517500Y-80721200D02*
X36167500Y-80721200D01*
X36167500Y-80721200D02*
X36360100Y-80913800D01*
D48*
X1574800Y-70154800D02*
X1574800Y-68939000D01*
X1574800Y-68939000D02*
X2149600Y-68364200D01*
X2149600Y-68364200D02*
X2149600Y-69815200D01*
X2149600Y-69815200D02*
X2489200Y-70154800D01*
X3403600Y-70154800D02*
X2149600Y-68900800D01*
X2149600Y-68900800D02*
X2149600Y-68364200D01*
X4318000Y-70154800D02*
X3403600Y-70154800D01*
X20574000Y-77978000D02*
X20574000Y-75234800D01*
X20574000Y-75234800D02*
X22015700Y-75234800D01*
X22015700Y-75234800D02*
X22834600Y-76053700D01*
X20574000Y-76149200D02*
X22739100Y-76149200D01*
X22739100Y-76149200D02*
X22834600Y-76053700D01*
X22834600Y-76053700D02*
X21583900Y-76053700D01*
X21583900Y-76053700D02*
X20574000Y-77063600D01*
X20574000Y-77978000D02*
X20574000Y-77063600D01*
X22834600Y-76053700D02*
X22498300Y-76053700D01*
X22498300Y-76053700D02*
X20574000Y-77978000D01*
D47*
X20069800Y-86423500D02*
X20069800Y-78482200D01*
X20069800Y-78482200D02*
X20574000Y-77978000D01*
D49*
X25400000Y-76307000D02*
X23087900Y-76307000D01*
X23087900Y-76307000D02*
X22834600Y-76053700D01*
X25400000Y-76307000D02*
X27317200Y-76307000D01*
X27317200Y-76307000D02*
X27720000Y-75904200D01*
X36360100Y-80913800D02*
X36360100Y-83663800D01*
X27720000Y-78260166D02*
X27720000Y-75904200D01*
X33517500Y-80721200D02*
X30181034Y-80721200D01*
X36360100Y-83563800D02*
X33517500Y-80721200D01*
X30181034Y-80721200D02*
X27720000Y-78260166D01*
X36360100Y-83663800D02*
X36360100Y-83563800D01*
D47*
X22834600Y-76053700D02*
X22584600Y-76053700D01*
D48*
X25146700Y-76053700D02*
X25400000Y-76307000D01*
X36122600Y-83426300D02*
X36360100Y-83663800D01*
X36623000Y-83400900D02*
X36360100Y-83663800D01*
D47*
X57518300Y-85754200D02*
X53951200Y-85754200D01*
X53951200Y-85754200D02*
X50977800Y-88727600D01*
X50977800Y-88727600D02*
X50977800Y-88827600D01*
X2667000Y-89687400D02*
X2793680Y-89687400D01*
X2793680Y-89687400D02*
X4106860Y-88374220D01*
X31851600Y-55410100D02*
X31851600Y-53048700D01*
X31851600Y-53048700D02*
X31902400Y-52997900D01*
X55346600Y-60794900D02*
X55346600Y-60316100D01*
X55346600Y-60316100D02*
X54305200Y-59274700D01*
X57277000Y-60769500D02*
X57277000Y-60290700D01*
X57277000Y-60290700D02*
X56261000Y-59274700D01*
X59309000Y-60807600D02*
X59309000Y-60393900D01*
X59309000Y-60393900D02*
X58191400Y-59276300D01*
X31851600Y-53554100D02*
X31841500Y-53544000D01*
X55867300Y-87388700D02*
X55867300Y-88941900D01*
X55867300Y-88941900D02*
X55858400Y-88950800D01*
X9118600Y-88442800D02*
X11551920Y-88442800D01*
X11551920Y-88442800D02*
X11572240Y-88422480D01*
X4089400Y-88391680D02*
X4106860Y-88374220D01*
X4140200Y-84251800D02*
X4140200Y-86321580D01*
X4140200Y-86321580D02*
X4106860Y-86354920D01*
X2344440Y-84267040D02*
X866140Y-84267040D01*
X866140Y-84267040D02*
X863600Y-84264500D01*
X25468900Y-60083700D02*
X24980900Y-60571700D01*
X50914300Y-92094900D02*
X50914300Y-93530700D01*
X50914300Y-93530700D02*
X48598100Y-95846900D01*
X48598100Y-95846900D02*
X48298100Y-95846900D01*
X53158400Y-88950800D02*
X53158400Y-89850800D01*
X53158400Y-89850800D02*
X50914300Y-92094900D01*
D48*
X45058400Y-32030800D02*
X47678480Y-32030800D01*
X47678480Y-32030800D02*
X47832020Y-32184340D01*
X16257280Y-32204660D02*
X13563540Y-32204660D01*
X13563540Y-32204660D02*
X13450640Y-32091760D01*
D51*
G36*
X50778143Y-51315335D02*
X50728860Y-51563100D01*
X50728860Y-53063100D01*
X50778143Y-53310865D01*
X50916300Y-53517630D01*
X50916300Y-54430790D01*
X50974152Y-54721629D01*
X51138899Y-54968191D01*
X52150963Y-55980255D01*
X52194564Y-56199450D01*
X52261718Y-56299954D01*
X52261532Y-56513581D01*
X52418769Y-56894125D01*
X52709665Y-57185529D01*
X53034863Y-57320563D01*
X53082443Y-57559765D01*
X53222791Y-57769809D01*
X53432835Y-57910157D01*
X53442100Y-57912000D01*
X53432835Y-57913843D01*
X53222791Y-58054191D01*
X53082443Y-58264235D01*
X53033160Y-58512000D01*
X53033160Y-60012000D01*
X53082443Y-60259765D01*
X53222791Y-60469809D01*
X53432835Y-60610157D01*
X53680600Y-60659440D01*
X54311718Y-60659440D01*
X54311421Y-60999871D01*
X54468658Y-61380415D01*
X54759554Y-61671819D01*
X55139823Y-61829720D01*
X55551571Y-61830079D01*
X55932115Y-61672842D01*
X56223519Y-61381946D01*
X56317083Y-61156619D01*
X56399058Y-61355015D01*
X56689954Y-61646419D01*
X57070223Y-61804320D01*
X57481971Y-61804679D01*
X57862515Y-61647442D01*
X58153919Y-61356546D01*
X58285257Y-61040248D01*
X58431058Y-61393115D01*
X58721954Y-61684519D01*
X59102223Y-61842420D01*
X59265000Y-61842562D01*
X59265000Y-92927610D01*
X58927043Y-94626634D01*
X58005629Y-96005629D01*
X56626634Y-96927043D01*
X54927610Y-97265000D01*
X50082442Y-97265000D01*
X50196257Y-97094665D01*
X50245540Y-96846900D01*
X50245540Y-95274262D01*
X51451701Y-94068101D01*
X51616448Y-93821540D01*
X51635201Y-93727261D01*
X51674300Y-93530700D01*
X51674300Y-92409702D01*
X52531262Y-91552740D01*
X52165493Y-92433610D01*
X52164509Y-93561442D01*
X52595202Y-94603801D01*
X53392005Y-95401995D01*
X54433610Y-95834507D01*
X55561442Y-95835491D01*
X56603801Y-95404798D01*
X57401995Y-94607995D01*
X57834507Y-93566390D01*
X57835491Y-92438558D01*
X57404798Y-91396199D01*
X56607995Y-90598005D01*
X55765667Y-90248240D01*
X56608400Y-90248240D01*
X56856165Y-90198957D01*
X57066209Y-90058609D01*
X57206557Y-89848565D01*
X57255840Y-89600800D01*
X57255840Y-88300800D01*
X57206557Y-88053035D01*
X57066209Y-87842991D01*
X56857305Y-87703405D01*
X56902120Y-87595477D01*
X56902479Y-87183729D01*
X56889220Y-87151640D01*
X58168300Y-87151640D01*
X58416065Y-87102357D01*
X58626109Y-86962009D01*
X58766457Y-86751965D01*
X58815740Y-86504200D01*
X58815740Y-85004200D01*
X58766457Y-84756435D01*
X58626109Y-84546391D01*
X58416065Y-84406043D01*
X58406800Y-84404200D01*
X58416065Y-84402357D01*
X58626109Y-84262009D01*
X58766457Y-84051965D01*
X58815740Y-83804200D01*
X58815740Y-82304200D01*
X58766457Y-82056435D01*
X58729189Y-82000660D01*
X58804557Y-81887865D01*
X58853840Y-81640100D01*
X58853840Y-80140100D01*
X58804557Y-79892335D01*
X58664209Y-79682291D01*
X58454165Y-79541943D01*
X58444900Y-79540100D01*
X58454165Y-79538257D01*
X58664209Y-79397909D01*
X58804557Y-79187865D01*
X58853840Y-78940100D01*
X58853840Y-77440100D01*
X58804557Y-77192335D01*
X58664209Y-76982291D01*
X58454165Y-76841943D01*
X58206400Y-76792660D01*
X57777095Y-76792660D01*
X57778340Y-76786400D01*
X57778340Y-75886400D01*
X57729057Y-75638635D01*
X57592216Y-75433840D01*
X58080900Y-75433840D01*
X58328665Y-75384557D01*
X58538709Y-75244209D01*
X58679057Y-75034165D01*
X58728340Y-74786400D01*
X58728340Y-73886400D01*
X58679057Y-73638635D01*
X58667157Y-73620825D01*
X58676909Y-73614309D01*
X58817257Y-73404265D01*
X58866540Y-73156500D01*
X58866540Y-71656500D01*
X58817257Y-71408735D01*
X58676909Y-71198691D01*
X58466865Y-71058343D01*
X58457600Y-71056500D01*
X58466865Y-71054657D01*
X58676909Y-70914309D01*
X58817257Y-70704265D01*
X58866540Y-70456500D01*
X58866540Y-68956500D01*
X58817257Y-68708735D01*
X58676909Y-68498691D01*
X58551661Y-68415002D01*
X58629320Y-68227977D01*
X58629679Y-67816229D01*
X58472442Y-67435685D01*
X58181546Y-67144281D01*
X57801277Y-66986380D01*
X57389529Y-66986021D01*
X57008985Y-67143258D01*
X56717581Y-67434154D01*
X56559680Y-67814423D01*
X56559321Y-68226171D01*
X56626352Y-68388400D01*
X56461291Y-68498691D01*
X56320943Y-68708735D01*
X56271660Y-68956500D01*
X56271660Y-70456500D01*
X56320943Y-70704265D01*
X56461291Y-70914309D01*
X56671335Y-71054657D01*
X56680600Y-71056500D01*
X56671335Y-71058343D01*
X56461291Y-71198691D01*
X56320943Y-71408735D01*
X56271660Y-71656500D01*
X56271660Y-73156500D01*
X56320943Y-73404265D01*
X56461291Y-73614309D01*
X56661034Y-73747774D01*
X56633460Y-73886400D01*
X56633460Y-74786400D01*
X56682743Y-75034165D01*
X56819584Y-75238960D01*
X56330900Y-75238960D01*
X56083135Y-75288243D01*
X55873091Y-75428591D01*
X55732743Y-75638635D01*
X55683460Y-75886400D01*
X55683460Y-76786400D01*
X55732743Y-77034165D01*
X55873091Y-77244209D01*
X55970900Y-77309563D01*
X55970900Y-77364600D01*
X56028752Y-77655439D01*
X56193499Y-77902001D01*
X56258960Y-77967462D01*
X56258960Y-78940100D01*
X56308243Y-79187865D01*
X56448591Y-79397909D01*
X56658635Y-79538257D01*
X56667900Y-79540100D01*
X56658635Y-79541943D01*
X56448591Y-79682291D01*
X56308243Y-79892335D01*
X56258960Y-80140100D01*
X56258960Y-81640100D01*
X56308243Y-81887865D01*
X56345511Y-81943640D01*
X56270143Y-82056435D01*
X56220860Y-82304200D01*
X56220860Y-83804200D01*
X56270143Y-84051965D01*
X56410491Y-84262009D01*
X56620535Y-84402357D01*
X56629800Y-84404200D01*
X56620535Y-84406043D01*
X56410491Y-84546391D01*
X56270143Y-84756435D01*
X56222849Y-84994200D01*
X53951200Y-84994200D01*
X53660361Y-85052052D01*
X53413799Y-85216799D01*
X52275240Y-86355358D01*
X52275240Y-85377600D01*
X52225957Y-85129835D01*
X52119993Y-84971250D01*
X52225957Y-84812665D01*
X52275240Y-84564900D01*
X52275240Y-83064900D01*
X52225957Y-82817135D01*
X52085609Y-82607091D01*
X51875565Y-82466743D01*
X51866300Y-82464900D01*
X51875565Y-82463057D01*
X52085609Y-82322709D01*
X52225957Y-82112665D01*
X52275240Y-81864900D01*
X52275240Y-80364900D01*
X52225957Y-80117135D01*
X52085609Y-79907091D01*
X51875565Y-79766743D01*
X51627800Y-79717460D01*
X51197264Y-79717460D01*
X51240340Y-79500900D01*
X51240340Y-78600900D01*
X51191057Y-78353135D01*
X51054216Y-78148340D01*
X51542900Y-78148340D01*
X51790665Y-78099057D01*
X52000709Y-77958709D01*
X52141057Y-77748665D01*
X52190340Y-77500900D01*
X52190340Y-76600900D01*
X52153051Y-76413431D01*
X52164009Y-76406109D01*
X52304357Y-76196065D01*
X52353640Y-75948300D01*
X52353640Y-74648300D01*
X52304357Y-74400535D01*
X52250447Y-74319854D01*
X52302157Y-74242465D01*
X52351440Y-73994700D01*
X52351440Y-72494700D01*
X52302157Y-72246935D01*
X52161809Y-72036891D01*
X51951765Y-71896543D01*
X51942500Y-71894700D01*
X51951765Y-71892857D01*
X52161809Y-71752509D01*
X52302157Y-71542465D01*
X52351440Y-71294700D01*
X52351440Y-69794700D01*
X52302157Y-69546935D01*
X52161809Y-69336891D01*
X51951765Y-69196543D01*
X51704000Y-69147260D01*
X50831362Y-69147260D01*
X50631463Y-68947361D01*
X50763360Y-68629717D01*
X50763557Y-68404000D01*
X52577949Y-68404000D01*
X52625243Y-68641765D01*
X52765591Y-68851809D01*
X52975635Y-68992157D01*
X53223400Y-69041440D01*
X54523400Y-69041440D01*
X54771165Y-68992157D01*
X54981209Y-68851809D01*
X55121557Y-68641765D01*
X55170840Y-68394000D01*
X55170840Y-66894000D01*
X55121557Y-66646235D01*
X54981209Y-66436191D01*
X54771165Y-66295843D01*
X54761900Y-66294000D01*
X54771165Y-66292157D01*
X54981209Y-66151809D01*
X55121557Y-65941765D01*
X55170840Y-65694000D01*
X55170840Y-64194000D01*
X55121557Y-63946235D01*
X54981209Y-63736191D01*
X54771165Y-63595843D01*
X54523400Y-63546560D01*
X53223400Y-63546560D01*
X52975635Y-63595843D01*
X52765591Y-63736191D01*
X52647041Y-63913612D01*
X52504000Y-63885160D01*
X51604000Y-63885160D01*
X51356235Y-63934443D01*
X51151440Y-64071284D01*
X51151440Y-63582600D01*
X51102157Y-63334835D01*
X50961809Y-63124791D01*
X50814000Y-63026027D01*
X50814000Y-60411308D01*
X50899757Y-60282965D01*
X50949040Y-60035200D01*
X50949040Y-58735200D01*
X50909792Y-58537887D01*
X50910209Y-58537609D01*
X51050557Y-58327565D01*
X51099840Y-58079800D01*
X51099840Y-56829800D01*
X51050557Y-56582035D01*
X50910209Y-56371991D01*
X50700165Y-56231643D01*
X50452400Y-56182360D01*
X48952400Y-56182360D01*
X48723715Y-56227848D01*
X48682657Y-56021435D01*
X48612325Y-55916177D01*
X49673701Y-54854801D01*
X49838448Y-54608239D01*
X49896300Y-54317400D01*
X49896300Y-53517630D01*
X50034457Y-53310865D01*
X50083740Y-53063100D01*
X50083740Y-51563100D01*
X50034457Y-51315335D01*
X49910753Y-51130200D01*
X50901847Y-51130200D01*
X50778143Y-51315335D01*
X50778143Y-51315335D01*
G37*
X50778143Y-51315335D02*
X50728860Y-51563100D01*
X50728860Y-53063100D01*
X50778143Y-53310865D01*
X50916300Y-53517630D01*
X50916300Y-54430790D01*
X50974152Y-54721629D01*
X51138899Y-54968191D01*
X52150963Y-55980255D01*
X52194564Y-56199450D01*
X52261718Y-56299954D01*
X52261532Y-56513581D01*
X52418769Y-56894125D01*
X52709665Y-57185529D01*
X53034863Y-57320563D01*
X53082443Y-57559765D01*
X53222791Y-57769809D01*
X53432835Y-57910157D01*
X53442100Y-57912000D01*
X53432835Y-57913843D01*
X53222791Y-58054191D01*
X53082443Y-58264235D01*
X53033160Y-58512000D01*
X53033160Y-60012000D01*
X53082443Y-60259765D01*
X53222791Y-60469809D01*
X53432835Y-60610157D01*
X53680600Y-60659440D01*
X54311718Y-60659440D01*
X54311421Y-60999871D01*
X54468658Y-61380415D01*
X54759554Y-61671819D01*
X55139823Y-61829720D01*
X55551571Y-61830079D01*
X55932115Y-61672842D01*
X56223519Y-61381946D01*
X56317083Y-61156619D01*
X56399058Y-61355015D01*
X56689954Y-61646419D01*
X57070223Y-61804320D01*
X57481971Y-61804679D01*
X57862515Y-61647442D01*
X58153919Y-61356546D01*
X58285257Y-61040248D01*
X58431058Y-61393115D01*
X58721954Y-61684519D01*
X59102223Y-61842420D01*
X59265000Y-61842562D01*
X59265000Y-92927610D01*
X58927043Y-94626634D01*
X58005629Y-96005629D01*
X56626634Y-96927043D01*
X54927610Y-97265000D01*
X50082442Y-97265000D01*
X50196257Y-97094665D01*
X50245540Y-96846900D01*
X50245540Y-95274262D01*
X51451701Y-94068101D01*
X51616448Y-93821540D01*
X51635201Y-93727261D01*
X51674300Y-93530700D01*
X51674300Y-92409702D01*
X52531262Y-91552740D01*
X52165493Y-92433610D01*
X52164509Y-93561442D01*
X52595202Y-94603801D01*
X53392005Y-95401995D01*
X54433610Y-95834507D01*
X55561442Y-95835491D01*
X56603801Y-95404798D01*
X57401995Y-94607995D01*
X57834507Y-93566390D01*
X57835491Y-92438558D01*
X57404798Y-91396199D01*
X56607995Y-90598005D01*
X55765667Y-90248240D01*
X56608400Y-90248240D01*
X56856165Y-90198957D01*
X57066209Y-90058609D01*
X57206557Y-89848565D01*
X57255840Y-89600800D01*
X57255840Y-88300800D01*
X57206557Y-88053035D01*
X57066209Y-87842991D01*
X56857305Y-87703405D01*
X56902120Y-87595477D01*
X56902479Y-87183729D01*
X56889220Y-87151640D01*
X58168300Y-87151640D01*
X58416065Y-87102357D01*
X58626109Y-86962009D01*
X58766457Y-86751965D01*
X58815740Y-86504200D01*
X58815740Y-85004200D01*
X58766457Y-84756435D01*
X58626109Y-84546391D01*
X58416065Y-84406043D01*
X58406800Y-84404200D01*
X58416065Y-84402357D01*
X58626109Y-84262009D01*
X58766457Y-84051965D01*
X58815740Y-83804200D01*
X58815740Y-82304200D01*
X58766457Y-82056435D01*
X58729189Y-82000660D01*
X58804557Y-81887865D01*
X58853840Y-81640100D01*
X58853840Y-80140100D01*
X58804557Y-79892335D01*
X58664209Y-79682291D01*
X58454165Y-79541943D01*
X58444900Y-79540100D01*
X58454165Y-79538257D01*
X58664209Y-79397909D01*
X58804557Y-79187865D01*
X58853840Y-78940100D01*
X58853840Y-77440100D01*
X58804557Y-77192335D01*
X58664209Y-76982291D01*
X58454165Y-76841943D01*
X58206400Y-76792660D01*
X57777095Y-76792660D01*
X57778340Y-76786400D01*
X57778340Y-75886400D01*
X57729057Y-75638635D01*
X57592216Y-75433840D01*
X58080900Y-75433840D01*
X58328665Y-75384557D01*
X58538709Y-75244209D01*
X58679057Y-75034165D01*
X58728340Y-74786400D01*
X58728340Y-73886400D01*
X58679057Y-73638635D01*
X58667157Y-73620825D01*
X58676909Y-73614309D01*
X58817257Y-73404265D01*
X58866540Y-73156500D01*
X58866540Y-71656500D01*
X58817257Y-71408735D01*
X58676909Y-71198691D01*
X58466865Y-71058343D01*
X58457600Y-71056500D01*
X58466865Y-71054657D01*
X58676909Y-70914309D01*
X58817257Y-70704265D01*
X58866540Y-70456500D01*
X58866540Y-68956500D01*
X58817257Y-68708735D01*
X58676909Y-68498691D01*
X58551661Y-68415002D01*
X58629320Y-68227977D01*
X58629679Y-67816229D01*
X58472442Y-67435685D01*
X58181546Y-67144281D01*
X57801277Y-66986380D01*
X57389529Y-66986021D01*
X57008985Y-67143258D01*
X56717581Y-67434154D01*
X56559680Y-67814423D01*
X56559321Y-68226171D01*
X56626352Y-68388400D01*
X56461291Y-68498691D01*
X56320943Y-68708735D01*
X56271660Y-68956500D01*
X56271660Y-70456500D01*
X56320943Y-70704265D01*
X56461291Y-70914309D01*
X56671335Y-71054657D01*
X56680600Y-71056500D01*
X56671335Y-71058343D01*
X56461291Y-71198691D01*
X56320943Y-71408735D01*
X56271660Y-71656500D01*
X56271660Y-73156500D01*
X56320943Y-73404265D01*
X56461291Y-73614309D01*
X56661034Y-73747774D01*
X56633460Y-73886400D01*
X56633460Y-74786400D01*
X56682743Y-75034165D01*
X56819584Y-75238960D01*
X56330900Y-75238960D01*
X56083135Y-75288243D01*
X55873091Y-75428591D01*
X55732743Y-75638635D01*
X55683460Y-75886400D01*
X55683460Y-76786400D01*
X55732743Y-77034165D01*
X55873091Y-77244209D01*
X55970900Y-77309563D01*
X55970900Y-77364600D01*
X56028752Y-77655439D01*
X56193499Y-77902001D01*
X56258960Y-77967462D01*
X56258960Y-78940100D01*
X56308243Y-79187865D01*
X56448591Y-79397909D01*
X56658635Y-79538257D01*
X56667900Y-79540100D01*
X56658635Y-79541943D01*
X56448591Y-79682291D01*
X56308243Y-79892335D01*
X56258960Y-80140100D01*
X56258960Y-81640100D01*
X56308243Y-81887865D01*
X56345511Y-81943640D01*
X56270143Y-82056435D01*
X56220860Y-82304200D01*
X56220860Y-83804200D01*
X56270143Y-84051965D01*
X56410491Y-84262009D01*
X56620535Y-84402357D01*
X56629800Y-84404200D01*
X56620535Y-84406043D01*
X56410491Y-84546391D01*
X56270143Y-84756435D01*
X56222849Y-84994200D01*
X53951200Y-84994200D01*
X53660361Y-85052052D01*
X53413799Y-85216799D01*
X52275240Y-86355358D01*
X52275240Y-85377600D01*
X52225957Y-85129835D01*
X52119993Y-84971250D01*
X52225957Y-84812665D01*
X52275240Y-84564900D01*
X52275240Y-83064900D01*
X52225957Y-82817135D01*
X52085609Y-82607091D01*
X51875565Y-82466743D01*
X51866300Y-82464900D01*
X51875565Y-82463057D01*
X52085609Y-82322709D01*
X52225957Y-82112665D01*
X52275240Y-81864900D01*
X52275240Y-80364900D01*
X52225957Y-80117135D01*
X52085609Y-79907091D01*
X51875565Y-79766743D01*
X51627800Y-79717460D01*
X51197264Y-79717460D01*
X51240340Y-79500900D01*
X51240340Y-78600900D01*
X51191057Y-78353135D01*
X51054216Y-78148340D01*
X51542900Y-78148340D01*
X51790665Y-78099057D01*
X52000709Y-77958709D01*
X52141057Y-77748665D01*
X52190340Y-77500900D01*
X52190340Y-76600900D01*
X52153051Y-76413431D01*
X52164009Y-76406109D01*
X52304357Y-76196065D01*
X52353640Y-75948300D01*
X52353640Y-74648300D01*
X52304357Y-74400535D01*
X52250447Y-74319854D01*
X52302157Y-74242465D01*
X52351440Y-73994700D01*
X52351440Y-72494700D01*
X52302157Y-72246935D01*
X52161809Y-72036891D01*
X51951765Y-71896543D01*
X51942500Y-71894700D01*
X51951765Y-71892857D01*
X52161809Y-71752509D01*
X52302157Y-71542465D01*
X52351440Y-71294700D01*
X52351440Y-69794700D01*
X52302157Y-69546935D01*
X52161809Y-69336891D01*
X51951765Y-69196543D01*
X51704000Y-69147260D01*
X50831362Y-69147260D01*
X50631463Y-68947361D01*
X50763360Y-68629717D01*
X50763557Y-68404000D01*
X52577949Y-68404000D01*
X52625243Y-68641765D01*
X52765591Y-68851809D01*
X52975635Y-68992157D01*
X53223400Y-69041440D01*
X54523400Y-69041440D01*
X54771165Y-68992157D01*
X54981209Y-68851809D01*
X55121557Y-68641765D01*
X55170840Y-68394000D01*
X55170840Y-66894000D01*
X55121557Y-66646235D01*
X54981209Y-66436191D01*
X54771165Y-66295843D01*
X54761900Y-66294000D01*
X54771165Y-66292157D01*
X54981209Y-66151809D01*
X55121557Y-65941765D01*
X55170840Y-65694000D01*
X55170840Y-64194000D01*
X55121557Y-63946235D01*
X54981209Y-63736191D01*
X54771165Y-63595843D01*
X54523400Y-63546560D01*
X53223400Y-63546560D01*
X52975635Y-63595843D01*
X52765591Y-63736191D01*
X52647041Y-63913612D01*
X52504000Y-63885160D01*
X51604000Y-63885160D01*
X51356235Y-63934443D01*
X51151440Y-64071284D01*
X51151440Y-63582600D01*
X51102157Y-63334835D01*
X50961809Y-63124791D01*
X50814000Y-63026027D01*
X50814000Y-60411308D01*
X50899757Y-60282965D01*
X50949040Y-60035200D01*
X50949040Y-58735200D01*
X50909792Y-58537887D01*
X50910209Y-58537609D01*
X51050557Y-58327565D01*
X51099840Y-58079800D01*
X51099840Y-56829800D01*
X51050557Y-56582035D01*
X50910209Y-56371991D01*
X50700165Y-56231643D01*
X50452400Y-56182360D01*
X48952400Y-56182360D01*
X48723715Y-56227848D01*
X48682657Y-56021435D01*
X48612325Y-55916177D01*
X49673701Y-54854801D01*
X49838448Y-54608239D01*
X49896300Y-54317400D01*
X49896300Y-53517630D01*
X50034457Y-53310865D01*
X50083740Y-53063100D01*
X50083740Y-51563100D01*
X50034457Y-51315335D01*
X49910753Y-51130200D01*
X50901847Y-51130200D01*
X50778143Y-51315335D01*
G36*
X12640691Y-51219591D02*
X12500343Y-51429635D01*
X12451060Y-51677400D01*
X12451060Y-53177400D01*
X12500343Y-53425165D01*
X12638500Y-53631930D01*
X12638500Y-57054778D01*
X12556743Y-57177135D01*
X12507460Y-57424900D01*
X12507460Y-58924900D01*
X12556743Y-59172665D01*
X12697091Y-59382709D01*
X12907135Y-59523057D01*
X12916400Y-59524900D01*
X12907135Y-59526743D01*
X12697091Y-59667091D01*
X12556743Y-59877135D01*
X12507460Y-60124900D01*
X12507460Y-61624900D01*
X12556743Y-61872665D01*
X12697091Y-62082709D01*
X12907135Y-62223057D01*
X13044465Y-62250373D01*
X13042281Y-62252554D01*
X12884380Y-62632823D01*
X12884021Y-63044571D01*
X13041258Y-63425115D01*
X13332154Y-63716519D01*
X13712423Y-63874420D01*
X14124171Y-63874779D01*
X14504715Y-63717542D01*
X14604874Y-63617557D01*
X14652954Y-63665721D01*
X15033223Y-63823622D01*
X15444971Y-63823981D01*
X15825515Y-63666744D01*
X16007300Y-63485276D01*
X16007300Y-64232527D01*
X15859491Y-64331291D01*
X15719143Y-64541335D01*
X15669860Y-64789100D01*
X15669860Y-65589100D01*
X15719143Y-65836865D01*
X15859491Y-66046909D01*
X16069535Y-66187257D01*
X16317300Y-66236540D01*
X17217300Y-66236540D01*
X17465065Y-66187257D01*
X17669860Y-66050416D01*
X17669860Y-66539100D01*
X17719143Y-66786865D01*
X17859491Y-66996909D01*
X18069535Y-67137257D01*
X18317300Y-67186540D01*
X19217300Y-67186540D01*
X19309544Y-67168192D01*
X19428091Y-67345609D01*
X19638135Y-67485957D01*
X19647400Y-67487800D01*
X19638135Y-67489643D01*
X19428091Y-67629991D01*
X19287743Y-67840035D01*
X19238460Y-68087800D01*
X19238460Y-69587800D01*
X19287743Y-69835565D01*
X19428091Y-70045609D01*
X19638135Y-70185957D01*
X19885900Y-70235240D01*
X21185900Y-70235240D01*
X21433665Y-70185957D01*
X21643709Y-70045609D01*
X21784057Y-69835565D01*
X21832107Y-69594000D01*
X24962939Y-69594000D01*
X25079654Y-69710919D01*
X25459923Y-69868820D01*
X25871671Y-69869179D01*
X26252215Y-69711942D01*
X26543619Y-69421046D01*
X26701520Y-69040777D01*
X26701879Y-68629029D01*
X26544642Y-68248485D01*
X26253746Y-67957081D01*
X25873477Y-67799180D01*
X25461729Y-67798821D01*
X25081185Y-67956058D01*
X24963037Y-68074000D01*
X21830595Y-68074000D01*
X21784057Y-67840035D01*
X21643709Y-67629991D01*
X21433665Y-67489643D01*
X21424400Y-67487800D01*
X21433665Y-67485957D01*
X21643709Y-67345609D01*
X21784057Y-67135565D01*
X21833340Y-66887800D01*
X21833340Y-65387800D01*
X21784057Y-65140035D01*
X21643709Y-64929991D01*
X21433665Y-64789643D01*
X21185900Y-64740360D01*
X19885900Y-64740360D01*
X19638135Y-64789643D01*
X19428091Y-64929991D01*
X19308010Y-65109703D01*
X19217300Y-65091660D01*
X18317300Y-65091660D01*
X18069535Y-65140943D01*
X17864740Y-65277784D01*
X17864740Y-64789100D01*
X17815457Y-64541335D01*
X17675109Y-64331291D01*
X17527300Y-64232527D01*
X17527300Y-61943300D01*
X17469448Y-61652461D01*
X17427453Y-61589611D01*
X17562257Y-61387865D01*
X17611540Y-61140100D01*
X17611540Y-59840100D01*
X17562257Y-59592335D01*
X17520207Y-59529404D01*
X17560009Y-59502809D01*
X17700357Y-59292765D01*
X17749640Y-59045000D01*
X17749640Y-57795000D01*
X17700357Y-57547235D01*
X17560009Y-57337191D01*
X17349965Y-57196843D01*
X17102200Y-57147560D01*
X15602200Y-57147560D01*
X15354435Y-57196843D01*
X15144391Y-57337191D01*
X15098542Y-57405808D01*
X15053057Y-57177135D01*
X14912709Y-56967091D01*
X14702665Y-56826743D01*
X14454900Y-56777460D01*
X14158500Y-56777460D01*
X14158500Y-53631930D01*
X14296657Y-53425165D01*
X14345940Y-53177400D01*
X14345940Y-51677400D01*
X14296657Y-51429635D01*
X14156309Y-51219591D01*
X14022527Y-51130200D01*
X15314473Y-51130200D01*
X15180691Y-51219591D01*
X15040343Y-51429635D01*
X14991060Y-51677400D01*
X14991060Y-53177400D01*
X15040343Y-53425165D01*
X15178500Y-53631930D01*
X15178500Y-53930402D01*
X15236352Y-54221241D01*
X15401099Y-54467803D01*
X16683108Y-55749812D01*
X16929670Y-55914559D01*
X17220509Y-55972411D01*
X17279439Y-55972411D01*
X17396154Y-56089330D01*
X17776423Y-56247231D01*
X18188171Y-56247590D01*
X18200283Y-56242585D01*
X19708360Y-57750662D01*
X19708360Y-58823300D01*
X19757643Y-59071065D01*
X19897991Y-59281109D01*
X20108035Y-59421457D01*
X20117300Y-59423300D01*
X20108035Y-59425143D01*
X19897991Y-59565491D01*
X19757643Y-59775535D01*
X19708360Y-60023300D01*
X19708360Y-61523300D01*
X19757643Y-61771065D01*
X19897991Y-61981109D01*
X20108035Y-62121457D01*
X20355800Y-62170740D01*
X20760738Y-62170740D01*
X20769788Y-62179790D01*
X20759800Y-62230000D01*
X20846197Y-62664346D01*
X21092234Y-63032566D01*
X21460454Y-63278603D01*
X21894800Y-63365000D01*
X23722212Y-63365000D01*
X23977600Y-63415800D01*
X28244800Y-63415800D01*
X28679146Y-63329403D01*
X29047366Y-63083366D01*
X29476932Y-62653800D01*
X30886402Y-62653800D01*
X31320748Y-62567403D01*
X31688968Y-62321366D01*
X31935005Y-61953146D01*
X32021402Y-61518800D01*
X31935005Y-61084454D01*
X31926398Y-61071573D01*
X32007309Y-61017509D01*
X32147657Y-60807465D01*
X32196940Y-60559700D01*
X32196940Y-59059700D01*
X32147657Y-58811935D01*
X32007309Y-58601891D01*
X31797265Y-58461543D01*
X31549500Y-58412260D01*
X30299500Y-58412260D01*
X30051735Y-58461543D01*
X29978350Y-58510578D01*
X29904965Y-58461543D01*
X29657200Y-58412260D01*
X28407200Y-58412260D01*
X28159435Y-58461543D01*
X27949391Y-58601891D01*
X27809043Y-58811935D01*
X27759760Y-59059700D01*
X27759760Y-60559700D01*
X27809043Y-60807465D01*
X27930793Y-60989675D01*
X27774668Y-61145800D01*
X27160579Y-61145800D01*
X27267519Y-61039046D01*
X27425420Y-60658777D01*
X27425779Y-60247029D01*
X27268542Y-59866485D01*
X27150600Y-59748337D01*
X27150600Y-57434639D01*
X27280219Y-57305246D01*
X27438120Y-56924977D01*
X27438479Y-56513229D01*
X27281242Y-56132685D01*
X26990346Y-55841281D01*
X26610077Y-55683380D01*
X26198329Y-55683021D01*
X25817785Y-55840258D01*
X25526381Y-56131154D01*
X25368480Y-56511423D01*
X25368121Y-56923171D01*
X25525358Y-57303715D01*
X25630600Y-57409141D01*
X25630600Y-59355864D01*
X25468900Y-59323700D01*
X25178060Y-59381552D01*
X25165177Y-59390160D01*
X24343200Y-59390160D01*
X24095435Y-59439443D01*
X24013501Y-59494190D01*
X23910165Y-59425143D01*
X23900900Y-59423300D01*
X23910165Y-59421457D01*
X24120209Y-59281109D01*
X24260557Y-59071065D01*
X24309840Y-58823300D01*
X24309840Y-57323300D01*
X24260557Y-57075535D01*
X24120209Y-56865491D01*
X23910165Y-56725143D01*
X23662400Y-56675860D01*
X22789762Y-56675860D01*
X22093317Y-55979415D01*
X22391415Y-55856244D01*
X22682819Y-55565348D01*
X22840720Y-55185079D01*
X22840754Y-55145171D01*
X28352621Y-55145171D01*
X28509858Y-55525715D01*
X28800754Y-55817119D01*
X29181023Y-55975020D01*
X29592771Y-55975379D01*
X29973315Y-55818142D01*
X30003537Y-55787973D01*
X30019954Y-55804419D01*
X30400223Y-55962320D01*
X30811971Y-55962679D01*
X30938455Y-55910417D01*
X30973658Y-55995615D01*
X31264554Y-56287019D01*
X31644823Y-56444920D01*
X32056571Y-56445279D01*
X32437115Y-56288042D01*
X32728519Y-55997146D01*
X32886420Y-55616877D01*
X32886779Y-55205129D01*
X32729542Y-54824585D01*
X32611600Y-54706437D01*
X32611600Y-54454052D01*
X32680209Y-54408209D01*
X32820557Y-54198165D01*
X32869840Y-53950400D01*
X32869840Y-52045400D01*
X32820557Y-51797635D01*
X32680209Y-51587591D01*
X32470165Y-51447243D01*
X32222400Y-51397960D01*
X31582400Y-51397960D01*
X31334635Y-51447243D01*
X31267400Y-51492168D01*
X31200165Y-51447243D01*
X30952400Y-51397960D01*
X30312400Y-51397960D01*
X30064635Y-51447243D01*
X29997400Y-51492168D01*
X29930165Y-51447243D01*
X29682400Y-51397960D01*
X29042400Y-51397960D01*
X28794635Y-51447243D01*
X28584591Y-51587591D01*
X28444243Y-51797635D01*
X28394960Y-52045400D01*
X28394960Y-53950400D01*
X28444243Y-54198165D01*
X28533030Y-54331043D01*
X28510881Y-54353154D01*
X28352980Y-54733423D01*
X28352621Y-55145171D01*
X22840754Y-55145171D01*
X22841079Y-54773331D01*
X22683842Y-54392787D01*
X22392946Y-54101383D01*
X22012677Y-53943482D01*
X21889276Y-53943374D01*
X20695940Y-52750038D01*
X20695940Y-51677400D01*
X20646657Y-51429635D01*
X20506309Y-51219591D01*
X20372527Y-51130200D01*
X37895149Y-51130200D01*
X37629680Y-51307580D01*
X37275257Y-51838013D01*
X37150800Y-52463700D01*
X37275257Y-53089387D01*
X37629680Y-53619820D01*
X37735589Y-53690586D01*
X37577991Y-53795891D01*
X37437643Y-54005935D01*
X37401093Y-54189685D01*
X37275257Y-54378013D01*
X37150800Y-55003700D01*
X37150800Y-55532961D01*
X36334280Y-56349480D01*
X35979857Y-56879912D01*
X35855399Y-57505600D01*
X35862700Y-57542304D01*
X35862700Y-62792695D01*
X35862699Y-62792700D01*
X35987157Y-63418388D01*
X36117910Y-63614073D01*
X36151449Y-63782687D01*
X36505872Y-64313120D01*
X37036305Y-64667543D01*
X37661992Y-64792000D01*
X38287679Y-64667543D01*
X38818112Y-64313120D01*
X38888041Y-64208464D01*
X38924544Y-64232855D01*
X38929191Y-64239809D01*
X39139235Y-64380157D01*
X39147441Y-64381789D01*
X39372013Y-64531843D01*
X39997700Y-64656300D01*
X40623387Y-64531843D01*
X41153820Y-64177420D01*
X41508243Y-63646987D01*
X41632700Y-63021300D01*
X41632700Y-59351240D01*
X42558120Y-58425820D01*
X42912543Y-57895388D01*
X43037001Y-57269700D01*
X43037000Y-57269695D01*
X43037000Y-53543205D01*
X43037001Y-53543200D01*
X42912543Y-52917513D01*
X42844656Y-52815913D01*
X42558120Y-52387080D01*
X42558117Y-52387078D01*
X41478620Y-51307580D01*
X41213152Y-51130200D01*
X48361847Y-51130200D01*
X48238143Y-51315335D01*
X48188860Y-51563100D01*
X48188860Y-53063100D01*
X48238143Y-53310865D01*
X48376300Y-53517630D01*
X48376300Y-54002598D01*
X46897099Y-55481799D01*
X46803580Y-55621760D01*
X46784500Y-55621760D01*
X46536735Y-55671043D01*
X46326691Y-55811391D01*
X46186343Y-56021435D01*
X46137060Y-56269200D01*
X46137060Y-57769200D01*
X46186343Y-58016965D01*
X46326691Y-58227009D01*
X46536735Y-58367357D01*
X46546000Y-58369200D01*
X46536735Y-58371043D01*
X46326691Y-58511391D01*
X46186343Y-58721435D01*
X46137060Y-58969200D01*
X46137060Y-60469200D01*
X46186343Y-60716965D01*
X46326691Y-60927009D01*
X46536735Y-61067357D01*
X46674500Y-61094760D01*
X46674500Y-61158799D01*
X46732352Y-61449638D01*
X46897099Y-61696200D01*
X47305566Y-62104667D01*
X47305422Y-62269871D01*
X47462659Y-62650415D01*
X47753555Y-62941819D01*
X48133824Y-63099720D01*
X48545572Y-63100079D01*
X48926116Y-62942842D01*
X49217520Y-62651946D01*
X49294000Y-62467761D01*
X49294000Y-63026027D01*
X49146191Y-63124791D01*
X49005843Y-63334835D01*
X48956560Y-63582600D01*
X48956560Y-64382600D01*
X49005843Y-64630365D01*
X49146191Y-64840409D01*
X49356235Y-64980757D01*
X49604000Y-65030040D01*
X50504000Y-65030040D01*
X50751765Y-64980757D01*
X50956560Y-64843916D01*
X50956560Y-65332600D01*
X51005843Y-65580365D01*
X51146191Y-65790409D01*
X51356235Y-65930757D01*
X51604000Y-65980040D01*
X52504000Y-65980040D01*
X52633594Y-65954262D01*
X52765591Y-66151809D01*
X52975635Y-66292157D01*
X52984900Y-66294000D01*
X52975635Y-66295843D01*
X52765591Y-66436191D01*
X52625243Y-66646235D01*
X52577949Y-66884000D01*
X49937447Y-66884000D01*
X49764986Y-66711238D01*
X49384717Y-66553337D01*
X48972969Y-66552978D01*
X48592425Y-66710215D01*
X48301021Y-67001111D01*
X48143120Y-67381380D01*
X48142761Y-67793128D01*
X48299998Y-68173672D01*
X48590894Y-68465076D01*
X48693466Y-68507667D01*
X48693361Y-68627911D01*
X48850598Y-69008455D01*
X48970369Y-69128435D01*
X49026392Y-69410079D01*
X49191139Y-69656641D01*
X49756560Y-70222062D01*
X49756560Y-71294700D01*
X49805843Y-71542465D01*
X49946191Y-71752509D01*
X50156235Y-71892857D01*
X50165500Y-71894700D01*
X50156235Y-71896543D01*
X49946191Y-72036891D01*
X49805843Y-72246935D01*
X49756560Y-72494700D01*
X49756560Y-73994700D01*
X49789978Y-74162703D01*
X49748391Y-74190491D01*
X49608043Y-74400535D01*
X49558760Y-74648300D01*
X49558760Y-75948300D01*
X49608043Y-76196065D01*
X49748391Y-76406109D01*
X49958435Y-76546457D01*
X50100662Y-76574747D01*
X50095460Y-76600900D01*
X50095460Y-77500900D01*
X50144743Y-77748665D01*
X50281584Y-77953460D01*
X49792900Y-77953460D01*
X49545135Y-78002743D01*
X49335091Y-78143091D01*
X49194743Y-78353135D01*
X49145460Y-78600900D01*
X49145460Y-79500900D01*
X49194743Y-79748665D01*
X49335091Y-79958709D01*
X49432900Y-80024063D01*
X49432900Y-80330000D01*
X49490752Y-80620839D01*
X49655499Y-80867401D01*
X49680360Y-80892262D01*
X49680360Y-81864900D01*
X49729643Y-82112665D01*
X49869991Y-82322709D01*
X50080035Y-82463057D01*
X50089300Y-82464900D01*
X50080035Y-82466743D01*
X49869991Y-82607091D01*
X49729643Y-82817135D01*
X49680360Y-83064900D01*
X49680360Y-84564900D01*
X49729643Y-84812665D01*
X49835607Y-84971250D01*
X49729643Y-85129835D01*
X49680360Y-85377600D01*
X49680360Y-85503808D01*
X49558246Y-85381481D01*
X49177977Y-85223580D01*
X48766229Y-85223221D01*
X48411946Y-85369607D01*
X48414840Y-85355058D01*
X48414840Y-83855058D01*
X48365557Y-83607293D01*
X48225209Y-83397249D01*
X48015165Y-83256901D01*
X47767400Y-83207618D01*
X46517400Y-83207618D01*
X46269635Y-83256901D01*
X46059591Y-83397249D01*
X45919243Y-83607293D01*
X45869960Y-83855058D01*
X45869960Y-85296845D01*
X45571177Y-85172780D01*
X45159429Y-85172421D01*
X44778885Y-85329658D01*
X44609848Y-85498400D01*
X39813099Y-85498400D01*
X39896820Y-85296777D01*
X39897179Y-84885029D01*
X39739942Y-84504485D01*
X39622000Y-84386337D01*
X39622000Y-83685791D01*
X39761000Y-83713440D01*
X41011000Y-83713440D01*
X41258765Y-83664157D01*
X41468809Y-83523809D01*
X41609157Y-83313765D01*
X41658440Y-83066000D01*
X41658440Y-81566000D01*
X41609157Y-81318235D01*
X41468809Y-81108191D01*
X41450800Y-81096158D01*
X41450800Y-76090961D01*
X41567719Y-75974246D01*
X41725620Y-75593977D01*
X41725979Y-75182229D01*
X41568742Y-74801685D01*
X41277846Y-74510281D01*
X40897577Y-74352380D01*
X40497000Y-74352031D01*
X40497000Y-71532005D01*
X40497001Y-71532000D01*
X40475678Y-71424800D01*
X43010200Y-71424800D01*
X43096597Y-71859146D01*
X43342634Y-72227366D01*
X43710854Y-72473403D01*
X44145200Y-72559800D01*
X48564800Y-72559800D01*
X48999146Y-72473403D01*
X49367366Y-72227366D01*
X49613403Y-71859146D01*
X49699800Y-71424800D01*
X49613403Y-70990454D01*
X49367366Y-70622234D01*
X48999146Y-70376197D01*
X48564800Y-70289800D01*
X44145200Y-70289800D01*
X43710854Y-70376197D01*
X43342634Y-70622234D01*
X43096597Y-70990454D01*
X43010200Y-71424800D01*
X40475678Y-71424800D01*
X40372543Y-70906313D01*
X40271178Y-70754609D01*
X40018120Y-70375880D01*
X40018117Y-70375878D01*
X39497000Y-69854760D01*
X39497000Y-67907000D01*
X39372543Y-67281313D01*
X39018120Y-66750880D01*
X38487687Y-66396457D01*
X37862000Y-66272000D01*
X37236313Y-66396457D01*
X36705880Y-66750880D01*
X36351457Y-67281313D01*
X36227000Y-67907000D01*
X36227000Y-70531995D01*
X36226999Y-70532000D01*
X36351457Y-71157688D01*
X36705880Y-71688120D01*
X37227000Y-72209239D01*
X37227000Y-74858879D01*
X37226400Y-74858760D01*
X35976400Y-74858760D01*
X35728635Y-74908043D01*
X35604450Y-74991021D01*
X35480265Y-74908043D01*
X35232500Y-74858760D01*
X33982500Y-74858760D01*
X33734735Y-74908043D01*
X33527440Y-75046554D01*
X33527440Y-74804200D01*
X33478157Y-74556435D01*
X33337809Y-74346391D01*
X33127765Y-74206043D01*
X32880000Y-74156760D01*
X31680000Y-74156760D01*
X31432235Y-74206043D01*
X31222191Y-74346391D01*
X31081843Y-74556435D01*
X31032560Y-74804200D01*
X31032560Y-77004200D01*
X31081843Y-77251965D01*
X31145000Y-77346485D01*
X31145000Y-77816601D01*
X31123000Y-77927202D01*
X31123000Y-78943200D01*
X31151445Y-79086200D01*
X30858273Y-79086200D01*
X29355000Y-77582926D01*
X29355000Y-75904200D01*
X29338187Y-75819677D01*
X29230543Y-75278512D01*
X29114940Y-75105501D01*
X28967440Y-74884750D01*
X28967440Y-74804200D01*
X28918157Y-74556435D01*
X28777809Y-74346391D01*
X28567765Y-74206043D01*
X28320000Y-74156760D01*
X27120000Y-74156760D01*
X26872235Y-74206043D01*
X26662191Y-74346391D01*
X26521843Y-74556435D01*
X26498856Y-74672000D01*
X24593264Y-74672000D01*
X24542409Y-74595891D01*
X24332365Y-74455543D01*
X24084600Y-74406260D01*
X22779393Y-74406260D01*
X22770825Y-74400535D01*
X22450046Y-74186197D01*
X22015700Y-74099800D01*
X20574000Y-74099800D01*
X20139654Y-74186197D01*
X19771434Y-74432234D01*
X19525397Y-74800454D01*
X19439000Y-75234800D01*
X19439000Y-76312360D01*
X19295162Y-76312360D01*
X18683740Y-75700938D01*
X18683740Y-74628300D01*
X18634457Y-74380535D01*
X18494109Y-74170491D01*
X18284065Y-74030143D01*
X18274800Y-74028300D01*
X18284065Y-74026457D01*
X18494109Y-73886109D01*
X18634457Y-73676065D01*
X18683740Y-73428300D01*
X18683740Y-71928300D01*
X18634457Y-71680535D01*
X18494109Y-71470491D01*
X18284065Y-71330143D01*
X18036300Y-71280860D01*
X17063662Y-71280860D01*
X16821216Y-71038414D01*
X16821279Y-70965829D01*
X16664042Y-70585285D01*
X16373146Y-70293881D01*
X15992877Y-70135980D01*
X15587140Y-70135626D01*
X15587140Y-68996800D01*
X15537857Y-68749035D01*
X15397509Y-68538991D01*
X15187465Y-68398643D01*
X14939700Y-68349360D01*
X13439700Y-68349360D01*
X13191935Y-68398643D01*
X12981891Y-68538991D01*
X12841543Y-68749035D01*
X12839700Y-68758300D01*
X12837857Y-68749035D01*
X12697509Y-68538991D01*
X12487465Y-68398643D01*
X12239700Y-68349360D01*
X10739700Y-68349360D01*
X10491935Y-68398643D01*
X10281891Y-68538991D01*
X10141543Y-68749035D01*
X10092260Y-68996800D01*
X10092260Y-69869438D01*
X9368599Y-70593099D01*
X9203852Y-70839661D01*
X9146000Y-71130500D01*
X9146000Y-73057839D01*
X9029081Y-73174554D01*
X8871180Y-73554823D01*
X8870821Y-73966571D01*
X9028058Y-74347115D01*
X9318954Y-74638519D01*
X9699223Y-74796420D01*
X10110971Y-74796779D01*
X10491515Y-74639542D01*
X10782919Y-74348646D01*
X10940820Y-73968377D01*
X10941179Y-73556629D01*
X10783942Y-73176085D01*
X10666000Y-73057937D01*
X10666000Y-71445302D01*
X11167062Y-70944240D01*
X12239700Y-70944240D01*
X12487465Y-70894957D01*
X12697509Y-70754609D01*
X12837857Y-70544565D01*
X12839700Y-70535300D01*
X12841543Y-70544565D01*
X12895088Y-70624700D01*
X12841543Y-70704835D01*
X12792260Y-70952600D01*
X12792260Y-72252600D01*
X12841543Y-72500365D01*
X12918785Y-72615966D01*
X12905843Y-72635335D01*
X12856560Y-72883100D01*
X12856560Y-73783100D01*
X12905843Y-74030865D01*
X13042684Y-74235660D01*
X12554000Y-74235660D01*
X12306235Y-74284943D01*
X12096191Y-74425291D01*
X11955843Y-74635335D01*
X11906560Y-74883100D01*
X11906560Y-75726396D01*
X11853035Y-75737043D01*
X11642991Y-75877391D01*
X11502643Y-76087435D01*
X11453360Y-76335200D01*
X11453360Y-77835200D01*
X11502643Y-78082965D01*
X11642991Y-78293009D01*
X11853035Y-78433357D01*
X11862300Y-78435200D01*
X11853035Y-78437043D01*
X11642991Y-78577391D01*
X11502643Y-78787435D01*
X11453360Y-79035200D01*
X11453360Y-80535200D01*
X11502643Y-80782965D01*
X11558961Y-80867250D01*
X11502643Y-80951535D01*
X11453360Y-81199300D01*
X11453360Y-82699300D01*
X11502643Y-82947065D01*
X11642991Y-83157109D01*
X11853035Y-83297457D01*
X11862300Y-83299300D01*
X11853035Y-83301143D01*
X11642991Y-83441491D01*
X11502643Y-83651535D01*
X11453360Y-83899300D01*
X11453360Y-85399300D01*
X11502643Y-85647065D01*
X11642991Y-85857109D01*
X11853035Y-85997457D01*
X12100800Y-86046740D01*
X13400800Y-86046740D01*
X13648565Y-85997457D01*
X13858609Y-85857109D01*
X13901425Y-85793031D01*
X13966423Y-85820020D01*
X14378171Y-85820379D01*
X14758715Y-85663142D01*
X15050119Y-85372246D01*
X15208020Y-84991977D01*
X15208379Y-84580229D01*
X15185269Y-84524298D01*
X15304615Y-84405160D01*
X15462516Y-84024891D01*
X15462875Y-83613143D01*
X15305638Y-83232599D01*
X15187696Y-83114451D01*
X15187696Y-74831160D01*
X15292823Y-74810249D01*
X15539385Y-74645502D01*
X16285401Y-73899486D01*
X16289448Y-73893430D01*
X16488535Y-74026457D01*
X16497800Y-74028300D01*
X16488535Y-74030143D01*
X16278491Y-74170491D01*
X16138143Y-74380535D01*
X16088860Y-74628300D01*
X16088860Y-76128300D01*
X16138143Y-76376065D01*
X16278491Y-76586109D01*
X16488535Y-76726457D01*
X16736300Y-76775740D01*
X17608938Y-76775740D01*
X18063560Y-77230362D01*
X18063560Y-77859800D01*
X18112843Y-78107565D01*
X18249684Y-78312360D01*
X17761000Y-78312360D01*
X17513235Y-78361643D01*
X17303191Y-78501991D01*
X17162843Y-78712035D01*
X17113560Y-78959800D01*
X17113560Y-79859800D01*
X17129962Y-79942260D01*
X16698200Y-79942260D01*
X16450435Y-79991543D01*
X16240391Y-80131891D01*
X16100043Y-80341935D01*
X16050760Y-80589700D01*
X16050760Y-82089700D01*
X16100043Y-82337465D01*
X16240391Y-82547509D01*
X16450435Y-82687857D01*
X16459700Y-82689700D01*
X16450435Y-82691543D01*
X16240391Y-82831891D01*
X16100043Y-83041935D01*
X16050760Y-83289700D01*
X16050760Y-84789700D01*
X16100043Y-85037465D01*
X16240391Y-85247509D01*
X16252211Y-85255407D01*
X16161991Y-85315691D01*
X16021643Y-85525735D01*
X15972360Y-85773500D01*
X15972360Y-87073500D01*
X16021643Y-87321265D01*
X16161991Y-87531309D01*
X16372035Y-87671657D01*
X16619800Y-87720940D01*
X18119800Y-87720940D01*
X18367565Y-87671657D01*
X18577609Y-87531309D01*
X18717957Y-87321265D01*
X18719800Y-87312000D01*
X18721643Y-87321265D01*
X18861991Y-87531309D01*
X19072035Y-87671657D01*
X19319800Y-87720940D01*
X20819800Y-87720940D01*
X21067565Y-87671657D01*
X21277609Y-87531309D01*
X21417957Y-87321265D01*
X21467240Y-87073500D01*
X21467240Y-85773500D01*
X21417957Y-85525735D01*
X21277609Y-85315691D01*
X21078646Y-85182747D01*
X21126220Y-85068177D01*
X21126579Y-84656429D01*
X20969342Y-84275885D01*
X20829800Y-84136099D01*
X20829800Y-79062118D01*
X21008346Y-79026603D01*
X21376566Y-78780566D01*
X22388705Y-77768427D01*
X22462212Y-77817543D01*
X23087900Y-77942000D01*
X26085000Y-77942000D01*
X26085000Y-78260161D01*
X26084999Y-78260166D01*
X26209457Y-78885854D01*
X26563880Y-79416286D01*
X27927799Y-80780204D01*
X27740377Y-80702380D01*
X27328629Y-80702021D01*
X26948085Y-80859258D01*
X26673253Y-81133611D01*
X26368777Y-81007182D01*
X25957029Y-81006823D01*
X25686229Y-81118715D01*
X25428246Y-80860281D01*
X25047977Y-80702380D01*
X24636229Y-80702021D01*
X24255685Y-80859258D01*
X24231813Y-80883088D01*
X24209046Y-80860281D01*
X23828777Y-80702380D01*
X23417029Y-80702021D01*
X23036485Y-80859258D01*
X22745081Y-81150154D01*
X22587180Y-81530423D01*
X22586821Y-81942171D01*
X22744058Y-82322715D01*
X22887400Y-82466307D01*
X22887400Y-90185353D01*
X22807314Y-90218444D01*
X22389212Y-90635817D01*
X22377652Y-90663657D01*
X22367056Y-90638014D01*
X21949683Y-90219912D01*
X21404081Y-89993358D01*
X20813311Y-89992843D01*
X20267314Y-90218444D01*
X19849212Y-90635817D01*
X19815045Y-90718100D01*
X13502450Y-90718100D01*
X13392752Y-90166613D01*
X13153898Y-89809141D01*
X13302109Y-89710109D01*
X13442457Y-89500065D01*
X13491740Y-89252300D01*
X13491740Y-87252300D01*
X13442457Y-87004535D01*
X13302109Y-86794491D01*
X13092065Y-86654143D01*
X12844300Y-86604860D01*
X10244300Y-86604860D01*
X9996535Y-86654143D01*
X9786491Y-86794491D01*
X9646143Y-87004535D01*
X9596860Y-87252300D01*
X9596860Y-87520709D01*
X9325377Y-87407980D01*
X8913629Y-87407621D01*
X8533085Y-87564858D01*
X8241681Y-87855754D01*
X8083780Y-88236023D01*
X8083421Y-88647771D01*
X8240658Y-89028315D01*
X8531554Y-89319719D01*
X8911823Y-89477620D01*
X9323571Y-89477979D01*
X9617585Y-89356495D01*
X9646143Y-89500065D01*
X9786491Y-89710109D01*
X9934702Y-89809141D01*
X9695848Y-90166613D01*
X9571391Y-90792300D01*
X9695848Y-91417987D01*
X10050271Y-91948420D01*
X10220705Y-92062300D01*
X10050271Y-92176180D01*
X9695848Y-92706613D01*
X9571391Y-93332300D01*
X9695848Y-93957987D01*
X10050271Y-94488420D01*
X10580704Y-94842843D01*
X11206391Y-94967300D01*
X11882209Y-94967300D01*
X12507896Y-94842843D01*
X12604791Y-94778100D01*
X19609960Y-94778100D01*
X19609960Y-94868100D01*
X19659243Y-95115865D01*
X19799591Y-95325909D01*
X20009635Y-95466257D01*
X20257400Y-95515540D01*
X21957400Y-95515540D01*
X22205165Y-95466257D01*
X22415209Y-95325909D01*
X22555557Y-95115865D01*
X22570414Y-95041175D01*
X22805117Y-95276288D01*
X23350719Y-95502842D01*
X23941489Y-95503357D01*
X24487486Y-95277756D01*
X24905588Y-94860383D01*
X24917148Y-94832543D01*
X24927744Y-94858186D01*
X25345117Y-95276288D01*
X25890719Y-95502842D01*
X26481489Y-95503357D01*
X27027486Y-95277756D01*
X27445588Y-94860383D01*
X27457148Y-94832543D01*
X27467744Y-94858186D01*
X27885117Y-95276288D01*
X28430719Y-95502842D01*
X29021489Y-95503357D01*
X29567486Y-95277756D01*
X29985588Y-94860383D01*
X29997148Y-94832543D01*
X30007744Y-94858186D01*
X30425117Y-95276288D01*
X30970719Y-95502842D01*
X31561489Y-95503357D01*
X31643832Y-95469334D01*
X32673099Y-96498601D01*
X32919660Y-96663348D01*
X33210500Y-96721200D01*
X40734860Y-96721200D01*
X41025699Y-96663348D01*
X41272261Y-96498601D01*
X46918564Y-90852298D01*
X47791202Y-90852298D01*
X48038967Y-90803015D01*
X48249011Y-90662667D01*
X48389359Y-90452623D01*
X48438642Y-90204858D01*
X48438642Y-88704858D01*
X48389359Y-88457093D01*
X48249011Y-88247049D01*
X48038967Y-88106701D01*
X48029702Y-88104858D01*
X48038967Y-88103015D01*
X48204171Y-87992629D01*
X48617600Y-88406058D01*
X48617600Y-90558200D01*
X48675452Y-90849039D01*
X48840199Y-91095601D01*
X50154300Y-92409702D01*
X50154300Y-93215898D01*
X49170738Y-94199460D01*
X46998100Y-94199460D01*
X46750335Y-94248743D01*
X46540291Y-94389091D01*
X46399943Y-94599135D01*
X46350660Y-94846900D01*
X46350660Y-96846900D01*
X46399943Y-97094665D01*
X46513758Y-97265000D01*
X5072390Y-97265000D01*
X3373366Y-96927043D01*
X1994371Y-96005629D01*
X1072957Y-94626634D01*
X861078Y-93561442D01*
X2164509Y-93561442D01*
X2595202Y-94603801D01*
X3392005Y-95401995D01*
X4433610Y-95834507D01*
X5561442Y-95835491D01*
X6603801Y-95404798D01*
X7401995Y-94607995D01*
X7834507Y-93566390D01*
X7835491Y-92438558D01*
X7404798Y-91396199D01*
X6607995Y-90598005D01*
X5566390Y-90165493D01*
X4438558Y-90164509D01*
X3396199Y-90595202D01*
X2598005Y-91392005D01*
X2165493Y-92433610D01*
X2164509Y-93561442D01*
X861078Y-93561442D01*
X735000Y-92927610D01*
X735000Y-85299388D01*
X1068571Y-85299679D01*
X1378650Y-85171557D01*
X1594440Y-85214480D01*
X2985301Y-85214480D01*
X2899051Y-85272111D01*
X2758703Y-85482155D01*
X2709420Y-85729920D01*
X2709420Y-86979920D01*
X2758703Y-87227685D01*
X2850167Y-87364570D01*
X2758703Y-87501455D01*
X2709420Y-87749220D01*
X2709420Y-88652437D01*
X2462029Y-88652221D01*
X2081485Y-88809458D01*
X1790081Y-89100354D01*
X1632180Y-89480623D01*
X1631821Y-89892371D01*
X1789058Y-90272915D01*
X2079954Y-90564319D01*
X2460223Y-90722220D01*
X2871971Y-90722579D01*
X3252515Y-90565342D01*
X3543919Y-90274446D01*
X3701820Y-89894177D01*
X3701855Y-89854027D01*
X3909222Y-89646660D01*
X4856860Y-89646660D01*
X5104625Y-89597377D01*
X5314669Y-89457029D01*
X5455017Y-89246985D01*
X5504300Y-88999220D01*
X5504300Y-87749220D01*
X5455017Y-87501455D01*
X5363553Y-87364570D01*
X5455017Y-87227685D01*
X5504300Y-86979920D01*
X5504300Y-85729920D01*
X5455017Y-85482155D01*
X5314669Y-85272111D01*
X5104625Y-85131763D01*
X4900200Y-85091101D01*
X4900200Y-84955561D01*
X5017119Y-84838846D01*
X5112893Y-84608196D01*
X5218058Y-84862715D01*
X5508954Y-85154119D01*
X5889223Y-85312020D01*
X6300971Y-85312379D01*
X6681515Y-85155142D01*
X6701608Y-85135084D01*
X6746675Y-85165197D01*
X6994440Y-85214480D01*
X8494440Y-85214480D01*
X8742205Y-85165197D01*
X8952249Y-85024849D01*
X9092597Y-84814805D01*
X9141880Y-84567040D01*
X9141880Y-84029377D01*
X9488671Y-84029679D01*
X9869215Y-83872442D01*
X10160619Y-83581546D01*
X10318520Y-83201277D01*
X10318879Y-82789529D01*
X10161642Y-82408985D01*
X9870746Y-82117581D01*
X9490477Y-81959680D01*
X9141880Y-81959376D01*
X9141880Y-81427040D01*
X9092597Y-81179275D01*
X9035291Y-81093511D01*
X9183561Y-80994441D01*
X10087801Y-80090201D01*
X10252548Y-79843640D01*
X10270201Y-79754892D01*
X10310400Y-79552800D01*
X10310400Y-77056252D01*
X10376519Y-76990248D01*
X10534420Y-76609979D01*
X10534779Y-76198231D01*
X10377542Y-75817687D01*
X10086646Y-75526283D01*
X9706377Y-75368382D01*
X9294629Y-75368023D01*
X8914085Y-75525260D01*
X8622681Y-75816156D01*
X8464780Y-76196425D01*
X8464421Y-76608173D01*
X8621658Y-76988717D01*
X8629366Y-76996438D01*
X8494440Y-76969600D01*
X6994440Y-76969600D01*
X6746675Y-77018883D01*
X6631526Y-77095824D01*
X6205760Y-76670058D01*
X6205760Y-75837134D01*
X6293525Y-75819677D01*
X6503569Y-75679329D01*
X6643917Y-75469285D01*
X6693200Y-75221520D01*
X6693200Y-74321520D01*
X6643917Y-74073755D01*
X6503569Y-73863711D01*
X6293525Y-73723363D01*
X6237670Y-73712253D01*
X6261719Y-73688246D01*
X6419620Y-73307977D01*
X6419979Y-72896229D01*
X6266604Y-72525032D01*
X6293525Y-72519677D01*
X6503569Y-72379329D01*
X6643917Y-72169285D01*
X6693200Y-71921520D01*
X6693200Y-71021520D01*
X6643917Y-70773755D01*
X6503569Y-70563711D01*
X6293525Y-70423363D01*
X6045760Y-70374080D01*
X5409382Y-70374080D01*
X5453000Y-70154800D01*
X5366603Y-69720454D01*
X5120566Y-69352234D01*
X4752346Y-69106197D01*
X4318000Y-69019800D01*
X3873732Y-69019800D01*
X3284600Y-68430668D01*
X3284600Y-68364200D01*
X3272040Y-68301057D01*
X3272040Y-67739200D01*
X3222757Y-67491435D01*
X3082409Y-67281391D01*
X2872365Y-67141043D01*
X2624600Y-67091760D01*
X1674600Y-67091760D01*
X1426835Y-67141043D01*
X1216791Y-67281391D01*
X1076443Y-67491435D01*
X1027160Y-67739200D01*
X1027160Y-67881508D01*
X772234Y-68136434D01*
X735000Y-68192159D01*
X735000Y-64682810D01*
X793472Y-64770320D01*
X1323905Y-65124743D01*
X1949592Y-65249200D01*
X2575279Y-65124743D01*
X3105712Y-64770320D01*
X3185744Y-64650544D01*
X3216791Y-64697009D01*
X3426835Y-64837357D01*
X3674600Y-64886640D01*
X3728304Y-64886640D01*
X3748513Y-64900143D01*
X4374200Y-65024600D01*
X4999887Y-64900143D01*
X5530320Y-64545720D01*
X5884743Y-64015287D01*
X6009200Y-63389600D01*
X6009200Y-61173434D01*
X6011741Y-61160660D01*
X6011740Y-61160655D01*
X6011740Y-59963920D01*
X6896517Y-59079142D01*
X6896520Y-59079140D01*
X7127603Y-58733299D01*
X7250943Y-58548708D01*
X7375401Y-57923020D01*
X7375400Y-57923015D01*
X7375400Y-53441605D01*
X7375401Y-53441600D01*
X7250943Y-52815912D01*
X6896520Y-52285480D01*
X5829720Y-51218680D01*
X5697300Y-51130200D01*
X12774473Y-51130200D01*
X12640691Y-51219591D01*
X12640691Y-51219591D01*
G37*
X12640691Y-51219591D02*
X12500343Y-51429635D01*
X12451060Y-51677400D01*
X12451060Y-53177400D01*
X12500343Y-53425165D01*
X12638500Y-53631930D01*
X12638500Y-57054778D01*
X12556743Y-57177135D01*
X12507460Y-57424900D01*
X12507460Y-58924900D01*
X12556743Y-59172665D01*
X12697091Y-59382709D01*
X12907135Y-59523057D01*
X12916400Y-59524900D01*
X12907135Y-59526743D01*
X12697091Y-59667091D01*
X12556743Y-59877135D01*
X12507460Y-60124900D01*
X12507460Y-61624900D01*
X12556743Y-61872665D01*
X12697091Y-62082709D01*
X12907135Y-62223057D01*
X13044465Y-62250373D01*
X13042281Y-62252554D01*
X12884380Y-62632823D01*
X12884021Y-63044571D01*
X13041258Y-63425115D01*
X13332154Y-63716519D01*
X13712423Y-63874420D01*
X14124171Y-63874779D01*
X14504715Y-63717542D01*
X14604874Y-63617557D01*
X14652954Y-63665721D01*
X15033223Y-63823622D01*
X15444971Y-63823981D01*
X15825515Y-63666744D01*
X16007300Y-63485276D01*
X16007300Y-64232527D01*
X15859491Y-64331291D01*
X15719143Y-64541335D01*
X15669860Y-64789100D01*
X15669860Y-65589100D01*
X15719143Y-65836865D01*
X15859491Y-66046909D01*
X16069535Y-66187257D01*
X16317300Y-66236540D01*
X17217300Y-66236540D01*
X17465065Y-66187257D01*
X17669860Y-66050416D01*
X17669860Y-66539100D01*
X17719143Y-66786865D01*
X17859491Y-66996909D01*
X18069535Y-67137257D01*
X18317300Y-67186540D01*
X19217300Y-67186540D01*
X19309544Y-67168192D01*
X19428091Y-67345609D01*
X19638135Y-67485957D01*
X19647400Y-67487800D01*
X19638135Y-67489643D01*
X19428091Y-67629991D01*
X19287743Y-67840035D01*
X19238460Y-68087800D01*
X19238460Y-69587800D01*
X19287743Y-69835565D01*
X19428091Y-70045609D01*
X19638135Y-70185957D01*
X19885900Y-70235240D01*
X21185900Y-70235240D01*
X21433665Y-70185957D01*
X21643709Y-70045609D01*
X21784057Y-69835565D01*
X21832107Y-69594000D01*
X24962939Y-69594000D01*
X25079654Y-69710919D01*
X25459923Y-69868820D01*
X25871671Y-69869179D01*
X26252215Y-69711942D01*
X26543619Y-69421046D01*
X26701520Y-69040777D01*
X26701879Y-68629029D01*
X26544642Y-68248485D01*
X26253746Y-67957081D01*
X25873477Y-67799180D01*
X25461729Y-67798821D01*
X25081185Y-67956058D01*
X24963037Y-68074000D01*
X21830595Y-68074000D01*
X21784057Y-67840035D01*
X21643709Y-67629991D01*
X21433665Y-67489643D01*
X21424400Y-67487800D01*
X21433665Y-67485957D01*
X21643709Y-67345609D01*
X21784057Y-67135565D01*
X21833340Y-66887800D01*
X21833340Y-65387800D01*
X21784057Y-65140035D01*
X21643709Y-64929991D01*
X21433665Y-64789643D01*
X21185900Y-64740360D01*
X19885900Y-64740360D01*
X19638135Y-64789643D01*
X19428091Y-64929991D01*
X19308010Y-65109703D01*
X19217300Y-65091660D01*
X18317300Y-65091660D01*
X18069535Y-65140943D01*
X17864740Y-65277784D01*
X17864740Y-64789100D01*
X17815457Y-64541335D01*
X17675109Y-64331291D01*
X17527300Y-64232527D01*
X17527300Y-61943300D01*
X17469448Y-61652461D01*
X17427453Y-61589611D01*
X17562257Y-61387865D01*
X17611540Y-61140100D01*
X17611540Y-59840100D01*
X17562257Y-59592335D01*
X17520207Y-59529404D01*
X17560009Y-59502809D01*
X17700357Y-59292765D01*
X17749640Y-59045000D01*
X17749640Y-57795000D01*
X17700357Y-57547235D01*
X17560009Y-57337191D01*
X17349965Y-57196843D01*
X17102200Y-57147560D01*
X15602200Y-57147560D01*
X15354435Y-57196843D01*
X15144391Y-57337191D01*
X15098542Y-57405808D01*
X15053057Y-57177135D01*
X14912709Y-56967091D01*
X14702665Y-56826743D01*
X14454900Y-56777460D01*
X14158500Y-56777460D01*
X14158500Y-53631930D01*
X14296657Y-53425165D01*
X14345940Y-53177400D01*
X14345940Y-51677400D01*
X14296657Y-51429635D01*
X14156309Y-51219591D01*
X14022527Y-51130200D01*
X15314473Y-51130200D01*
X15180691Y-51219591D01*
X15040343Y-51429635D01*
X14991060Y-51677400D01*
X14991060Y-53177400D01*
X15040343Y-53425165D01*
X15178500Y-53631930D01*
X15178500Y-53930402D01*
X15236352Y-54221241D01*
X15401099Y-54467803D01*
X16683108Y-55749812D01*
X16929670Y-55914559D01*
X17220509Y-55972411D01*
X17279439Y-55972411D01*
X17396154Y-56089330D01*
X17776423Y-56247231D01*
X18188171Y-56247590D01*
X18200283Y-56242585D01*
X19708360Y-57750662D01*
X19708360Y-58823300D01*
X19757643Y-59071065D01*
X19897991Y-59281109D01*
X20108035Y-59421457D01*
X20117300Y-59423300D01*
X20108035Y-59425143D01*
X19897991Y-59565491D01*
X19757643Y-59775535D01*
X19708360Y-60023300D01*
X19708360Y-61523300D01*
X19757643Y-61771065D01*
X19897991Y-61981109D01*
X20108035Y-62121457D01*
X20355800Y-62170740D01*
X20760738Y-62170740D01*
X20769788Y-62179790D01*
X20759800Y-62230000D01*
X20846197Y-62664346D01*
X21092234Y-63032566D01*
X21460454Y-63278603D01*
X21894800Y-63365000D01*
X23722212Y-63365000D01*
X23977600Y-63415800D01*
X28244800Y-63415800D01*
X28679146Y-63329403D01*
X29047366Y-63083366D01*
X29476932Y-62653800D01*
X30886402Y-62653800D01*
X31320748Y-62567403D01*
X31688968Y-62321366D01*
X31935005Y-61953146D01*
X32021402Y-61518800D01*
X31935005Y-61084454D01*
X31926398Y-61071573D01*
X32007309Y-61017509D01*
X32147657Y-60807465D01*
X32196940Y-60559700D01*
X32196940Y-59059700D01*
X32147657Y-58811935D01*
X32007309Y-58601891D01*
X31797265Y-58461543D01*
X31549500Y-58412260D01*
X30299500Y-58412260D01*
X30051735Y-58461543D01*
X29978350Y-58510578D01*
X29904965Y-58461543D01*
X29657200Y-58412260D01*
X28407200Y-58412260D01*
X28159435Y-58461543D01*
X27949391Y-58601891D01*
X27809043Y-58811935D01*
X27759760Y-59059700D01*
X27759760Y-60559700D01*
X27809043Y-60807465D01*
X27930793Y-60989675D01*
X27774668Y-61145800D01*
X27160579Y-61145800D01*
X27267519Y-61039046D01*
X27425420Y-60658777D01*
X27425779Y-60247029D01*
X27268542Y-59866485D01*
X27150600Y-59748337D01*
X27150600Y-57434639D01*
X27280219Y-57305246D01*
X27438120Y-56924977D01*
X27438479Y-56513229D01*
X27281242Y-56132685D01*
X26990346Y-55841281D01*
X26610077Y-55683380D01*
X26198329Y-55683021D01*
X25817785Y-55840258D01*
X25526381Y-56131154D01*
X25368480Y-56511423D01*
X25368121Y-56923171D01*
X25525358Y-57303715D01*
X25630600Y-57409141D01*
X25630600Y-59355864D01*
X25468900Y-59323700D01*
X25178060Y-59381552D01*
X25165177Y-59390160D01*
X24343200Y-59390160D01*
X24095435Y-59439443D01*
X24013501Y-59494190D01*
X23910165Y-59425143D01*
X23900900Y-59423300D01*
X23910165Y-59421457D01*
X24120209Y-59281109D01*
X24260557Y-59071065D01*
X24309840Y-58823300D01*
X24309840Y-57323300D01*
X24260557Y-57075535D01*
X24120209Y-56865491D01*
X23910165Y-56725143D01*
X23662400Y-56675860D01*
X22789762Y-56675860D01*
X22093317Y-55979415D01*
X22391415Y-55856244D01*
X22682819Y-55565348D01*
X22840720Y-55185079D01*
X22840754Y-55145171D01*
X28352621Y-55145171D01*
X28509858Y-55525715D01*
X28800754Y-55817119D01*
X29181023Y-55975020D01*
X29592771Y-55975379D01*
X29973315Y-55818142D01*
X30003537Y-55787973D01*
X30019954Y-55804419D01*
X30400223Y-55962320D01*
X30811971Y-55962679D01*
X30938455Y-55910417D01*
X30973658Y-55995615D01*
X31264554Y-56287019D01*
X31644823Y-56444920D01*
X32056571Y-56445279D01*
X32437115Y-56288042D01*
X32728519Y-55997146D01*
X32886420Y-55616877D01*
X32886779Y-55205129D01*
X32729542Y-54824585D01*
X32611600Y-54706437D01*
X32611600Y-54454052D01*
X32680209Y-54408209D01*
X32820557Y-54198165D01*
X32869840Y-53950400D01*
X32869840Y-52045400D01*
X32820557Y-51797635D01*
X32680209Y-51587591D01*
X32470165Y-51447243D01*
X32222400Y-51397960D01*
X31582400Y-51397960D01*
X31334635Y-51447243D01*
X31267400Y-51492168D01*
X31200165Y-51447243D01*
X30952400Y-51397960D01*
X30312400Y-51397960D01*
X30064635Y-51447243D01*
X29997400Y-51492168D01*
X29930165Y-51447243D01*
X29682400Y-51397960D01*
X29042400Y-51397960D01*
X28794635Y-51447243D01*
X28584591Y-51587591D01*
X28444243Y-51797635D01*
X28394960Y-52045400D01*
X28394960Y-53950400D01*
X28444243Y-54198165D01*
X28533030Y-54331043D01*
X28510881Y-54353154D01*
X28352980Y-54733423D01*
X28352621Y-55145171D01*
X22840754Y-55145171D01*
X22841079Y-54773331D01*
X22683842Y-54392787D01*
X22392946Y-54101383D01*
X22012677Y-53943482D01*
X21889276Y-53943374D01*
X20695940Y-52750038D01*
X20695940Y-51677400D01*
X20646657Y-51429635D01*
X20506309Y-51219591D01*
X20372527Y-51130200D01*
X37895149Y-51130200D01*
X37629680Y-51307580D01*
X37275257Y-51838013D01*
X37150800Y-52463700D01*
X37275257Y-53089387D01*
X37629680Y-53619820D01*
X37735589Y-53690586D01*
X37577991Y-53795891D01*
X37437643Y-54005935D01*
X37401093Y-54189685D01*
X37275257Y-54378013D01*
X37150800Y-55003700D01*
X37150800Y-55532961D01*
X36334280Y-56349480D01*
X35979857Y-56879912D01*
X35855399Y-57505600D01*
X35862700Y-57542304D01*
X35862700Y-62792695D01*
X35862699Y-62792700D01*
X35987157Y-63418388D01*
X36117910Y-63614073D01*
X36151449Y-63782687D01*
X36505872Y-64313120D01*
X37036305Y-64667543D01*
X37661992Y-64792000D01*
X38287679Y-64667543D01*
X38818112Y-64313120D01*
X38888041Y-64208464D01*
X38924544Y-64232855D01*
X38929191Y-64239809D01*
X39139235Y-64380157D01*
X39147441Y-64381789D01*
X39372013Y-64531843D01*
X39997700Y-64656300D01*
X40623387Y-64531843D01*
X41153820Y-64177420D01*
X41508243Y-63646987D01*
X41632700Y-63021300D01*
X41632700Y-59351240D01*
X42558120Y-58425820D01*
X42912543Y-57895388D01*
X43037001Y-57269700D01*
X43037000Y-57269695D01*
X43037000Y-53543205D01*
X43037001Y-53543200D01*
X42912543Y-52917513D01*
X42844656Y-52815913D01*
X42558120Y-52387080D01*
X42558117Y-52387078D01*
X41478620Y-51307580D01*
X41213152Y-51130200D01*
X48361847Y-51130200D01*
X48238143Y-51315335D01*
X48188860Y-51563100D01*
X48188860Y-53063100D01*
X48238143Y-53310865D01*
X48376300Y-53517630D01*
X48376300Y-54002598D01*
X46897099Y-55481799D01*
X46803580Y-55621760D01*
X46784500Y-55621760D01*
X46536735Y-55671043D01*
X46326691Y-55811391D01*
X46186343Y-56021435D01*
X46137060Y-56269200D01*
X46137060Y-57769200D01*
X46186343Y-58016965D01*
X46326691Y-58227009D01*
X46536735Y-58367357D01*
X46546000Y-58369200D01*
X46536735Y-58371043D01*
X46326691Y-58511391D01*
X46186343Y-58721435D01*
X46137060Y-58969200D01*
X46137060Y-60469200D01*
X46186343Y-60716965D01*
X46326691Y-60927009D01*
X46536735Y-61067357D01*
X46674500Y-61094760D01*
X46674500Y-61158799D01*
X46732352Y-61449638D01*
X46897099Y-61696200D01*
X47305566Y-62104667D01*
X47305422Y-62269871D01*
X47462659Y-62650415D01*
X47753555Y-62941819D01*
X48133824Y-63099720D01*
X48545572Y-63100079D01*
X48926116Y-62942842D01*
X49217520Y-62651946D01*
X49294000Y-62467761D01*
X49294000Y-63026027D01*
X49146191Y-63124791D01*
X49005843Y-63334835D01*
X48956560Y-63582600D01*
X48956560Y-64382600D01*
X49005843Y-64630365D01*
X49146191Y-64840409D01*
X49356235Y-64980757D01*
X49604000Y-65030040D01*
X50504000Y-65030040D01*
X50751765Y-64980757D01*
X50956560Y-64843916D01*
X50956560Y-65332600D01*
X51005843Y-65580365D01*
X51146191Y-65790409D01*
X51356235Y-65930757D01*
X51604000Y-65980040D01*
X52504000Y-65980040D01*
X52633594Y-65954262D01*
X52765591Y-66151809D01*
X52975635Y-66292157D01*
X52984900Y-66294000D01*
X52975635Y-66295843D01*
X52765591Y-66436191D01*
X52625243Y-66646235D01*
X52577949Y-66884000D01*
X49937447Y-66884000D01*
X49764986Y-66711238D01*
X49384717Y-66553337D01*
X48972969Y-66552978D01*
X48592425Y-66710215D01*
X48301021Y-67001111D01*
X48143120Y-67381380D01*
X48142761Y-67793128D01*
X48299998Y-68173672D01*
X48590894Y-68465076D01*
X48693466Y-68507667D01*
X48693361Y-68627911D01*
X48850598Y-69008455D01*
X48970369Y-69128435D01*
X49026392Y-69410079D01*
X49191139Y-69656641D01*
X49756560Y-70222062D01*
X49756560Y-71294700D01*
X49805843Y-71542465D01*
X49946191Y-71752509D01*
X50156235Y-71892857D01*
X50165500Y-71894700D01*
X50156235Y-71896543D01*
X49946191Y-72036891D01*
X49805843Y-72246935D01*
X49756560Y-72494700D01*
X49756560Y-73994700D01*
X49789978Y-74162703D01*
X49748391Y-74190491D01*
X49608043Y-74400535D01*
X49558760Y-74648300D01*
X49558760Y-75948300D01*
X49608043Y-76196065D01*
X49748391Y-76406109D01*
X49958435Y-76546457D01*
X50100662Y-76574747D01*
X50095460Y-76600900D01*
X50095460Y-77500900D01*
X50144743Y-77748665D01*
X50281584Y-77953460D01*
X49792900Y-77953460D01*
X49545135Y-78002743D01*
X49335091Y-78143091D01*
X49194743Y-78353135D01*
X49145460Y-78600900D01*
X49145460Y-79500900D01*
X49194743Y-79748665D01*
X49335091Y-79958709D01*
X49432900Y-80024063D01*
X49432900Y-80330000D01*
X49490752Y-80620839D01*
X49655499Y-80867401D01*
X49680360Y-80892262D01*
X49680360Y-81864900D01*
X49729643Y-82112665D01*
X49869991Y-82322709D01*
X50080035Y-82463057D01*
X50089300Y-82464900D01*
X50080035Y-82466743D01*
X49869991Y-82607091D01*
X49729643Y-82817135D01*
X49680360Y-83064900D01*
X49680360Y-84564900D01*
X49729643Y-84812665D01*
X49835607Y-84971250D01*
X49729643Y-85129835D01*
X49680360Y-85377600D01*
X49680360Y-85503808D01*
X49558246Y-85381481D01*
X49177977Y-85223580D01*
X48766229Y-85223221D01*
X48411946Y-85369607D01*
X48414840Y-85355058D01*
X48414840Y-83855058D01*
X48365557Y-83607293D01*
X48225209Y-83397249D01*
X48015165Y-83256901D01*
X47767400Y-83207618D01*
X46517400Y-83207618D01*
X46269635Y-83256901D01*
X46059591Y-83397249D01*
X45919243Y-83607293D01*
X45869960Y-83855058D01*
X45869960Y-85296845D01*
X45571177Y-85172780D01*
X45159429Y-85172421D01*
X44778885Y-85329658D01*
X44609848Y-85498400D01*
X39813099Y-85498400D01*
X39896820Y-85296777D01*
X39897179Y-84885029D01*
X39739942Y-84504485D01*
X39622000Y-84386337D01*
X39622000Y-83685791D01*
X39761000Y-83713440D01*
X41011000Y-83713440D01*
X41258765Y-83664157D01*
X41468809Y-83523809D01*
X41609157Y-83313765D01*
X41658440Y-83066000D01*
X41658440Y-81566000D01*
X41609157Y-81318235D01*
X41468809Y-81108191D01*
X41450800Y-81096158D01*
X41450800Y-76090961D01*
X41567719Y-75974246D01*
X41725620Y-75593977D01*
X41725979Y-75182229D01*
X41568742Y-74801685D01*
X41277846Y-74510281D01*
X40897577Y-74352380D01*
X40497000Y-74352031D01*
X40497000Y-71532005D01*
X40497001Y-71532000D01*
X40475678Y-71424800D01*
X43010200Y-71424800D01*
X43096597Y-71859146D01*
X43342634Y-72227366D01*
X43710854Y-72473403D01*
X44145200Y-72559800D01*
X48564800Y-72559800D01*
X48999146Y-72473403D01*
X49367366Y-72227366D01*
X49613403Y-71859146D01*
X49699800Y-71424800D01*
X49613403Y-70990454D01*
X49367366Y-70622234D01*
X48999146Y-70376197D01*
X48564800Y-70289800D01*
X44145200Y-70289800D01*
X43710854Y-70376197D01*
X43342634Y-70622234D01*
X43096597Y-70990454D01*
X43010200Y-71424800D01*
X40475678Y-71424800D01*
X40372543Y-70906313D01*
X40271178Y-70754609D01*
X40018120Y-70375880D01*
X40018117Y-70375878D01*
X39497000Y-69854760D01*
X39497000Y-67907000D01*
X39372543Y-67281313D01*
X39018120Y-66750880D01*
X38487687Y-66396457D01*
X37862000Y-66272000D01*
X37236313Y-66396457D01*
X36705880Y-66750880D01*
X36351457Y-67281313D01*
X36227000Y-67907000D01*
X36227000Y-70531995D01*
X36226999Y-70532000D01*
X36351457Y-71157688D01*
X36705880Y-71688120D01*
X37227000Y-72209239D01*
X37227000Y-74858879D01*
X37226400Y-74858760D01*
X35976400Y-74858760D01*
X35728635Y-74908043D01*
X35604450Y-74991021D01*
X35480265Y-74908043D01*
X35232500Y-74858760D01*
X33982500Y-74858760D01*
X33734735Y-74908043D01*
X33527440Y-75046554D01*
X33527440Y-74804200D01*
X33478157Y-74556435D01*
X33337809Y-74346391D01*
X33127765Y-74206043D01*
X32880000Y-74156760D01*
X31680000Y-74156760D01*
X31432235Y-74206043D01*
X31222191Y-74346391D01*
X31081843Y-74556435D01*
X31032560Y-74804200D01*
X31032560Y-77004200D01*
X31081843Y-77251965D01*
X31145000Y-77346485D01*
X31145000Y-77816601D01*
X31123000Y-77927202D01*
X31123000Y-78943200D01*
X31151445Y-79086200D01*
X30858273Y-79086200D01*
X29355000Y-77582926D01*
X29355000Y-75904200D01*
X29338187Y-75819677D01*
X29230543Y-75278512D01*
X29114940Y-75105501D01*
X28967440Y-74884750D01*
X28967440Y-74804200D01*
X28918157Y-74556435D01*
X28777809Y-74346391D01*
X28567765Y-74206043D01*
X28320000Y-74156760D01*
X27120000Y-74156760D01*
X26872235Y-74206043D01*
X26662191Y-74346391D01*
X26521843Y-74556435D01*
X26498856Y-74672000D01*
X24593264Y-74672000D01*
X24542409Y-74595891D01*
X24332365Y-74455543D01*
X24084600Y-74406260D01*
X22779393Y-74406260D01*
X22770825Y-74400535D01*
X22450046Y-74186197D01*
X22015700Y-74099800D01*
X20574000Y-74099800D01*
X20139654Y-74186197D01*
X19771434Y-74432234D01*
X19525397Y-74800454D01*
X19439000Y-75234800D01*
X19439000Y-76312360D01*
X19295162Y-76312360D01*
X18683740Y-75700938D01*
X18683740Y-74628300D01*
X18634457Y-74380535D01*
X18494109Y-74170491D01*
X18284065Y-74030143D01*
X18274800Y-74028300D01*
X18284065Y-74026457D01*
X18494109Y-73886109D01*
X18634457Y-73676065D01*
X18683740Y-73428300D01*
X18683740Y-71928300D01*
X18634457Y-71680535D01*
X18494109Y-71470491D01*
X18284065Y-71330143D01*
X18036300Y-71280860D01*
X17063662Y-71280860D01*
X16821216Y-71038414D01*
X16821279Y-70965829D01*
X16664042Y-70585285D01*
X16373146Y-70293881D01*
X15992877Y-70135980D01*
X15587140Y-70135626D01*
X15587140Y-68996800D01*
X15537857Y-68749035D01*
X15397509Y-68538991D01*
X15187465Y-68398643D01*
X14939700Y-68349360D01*
X13439700Y-68349360D01*
X13191935Y-68398643D01*
X12981891Y-68538991D01*
X12841543Y-68749035D01*
X12839700Y-68758300D01*
X12837857Y-68749035D01*
X12697509Y-68538991D01*
X12487465Y-68398643D01*
X12239700Y-68349360D01*
X10739700Y-68349360D01*
X10491935Y-68398643D01*
X10281891Y-68538991D01*
X10141543Y-68749035D01*
X10092260Y-68996800D01*
X10092260Y-69869438D01*
X9368599Y-70593099D01*
X9203852Y-70839661D01*
X9146000Y-71130500D01*
X9146000Y-73057839D01*
X9029081Y-73174554D01*
X8871180Y-73554823D01*
X8870821Y-73966571D01*
X9028058Y-74347115D01*
X9318954Y-74638519D01*
X9699223Y-74796420D01*
X10110971Y-74796779D01*
X10491515Y-74639542D01*
X10782919Y-74348646D01*
X10940820Y-73968377D01*
X10941179Y-73556629D01*
X10783942Y-73176085D01*
X10666000Y-73057937D01*
X10666000Y-71445302D01*
X11167062Y-70944240D01*
X12239700Y-70944240D01*
X12487465Y-70894957D01*
X12697509Y-70754609D01*
X12837857Y-70544565D01*
X12839700Y-70535300D01*
X12841543Y-70544565D01*
X12895088Y-70624700D01*
X12841543Y-70704835D01*
X12792260Y-70952600D01*
X12792260Y-72252600D01*
X12841543Y-72500365D01*
X12918785Y-72615966D01*
X12905843Y-72635335D01*
X12856560Y-72883100D01*
X12856560Y-73783100D01*
X12905843Y-74030865D01*
X13042684Y-74235660D01*
X12554000Y-74235660D01*
X12306235Y-74284943D01*
X12096191Y-74425291D01*
X11955843Y-74635335D01*
X11906560Y-74883100D01*
X11906560Y-75726396D01*
X11853035Y-75737043D01*
X11642991Y-75877391D01*
X11502643Y-76087435D01*
X11453360Y-76335200D01*
X11453360Y-77835200D01*
X11502643Y-78082965D01*
X11642991Y-78293009D01*
X11853035Y-78433357D01*
X11862300Y-78435200D01*
X11853035Y-78437043D01*
X11642991Y-78577391D01*
X11502643Y-78787435D01*
X11453360Y-79035200D01*
X11453360Y-80535200D01*
X11502643Y-80782965D01*
X11558961Y-80867250D01*
X11502643Y-80951535D01*
X11453360Y-81199300D01*
X11453360Y-82699300D01*
X11502643Y-82947065D01*
X11642991Y-83157109D01*
X11853035Y-83297457D01*
X11862300Y-83299300D01*
X11853035Y-83301143D01*
X11642991Y-83441491D01*
X11502643Y-83651535D01*
X11453360Y-83899300D01*
X11453360Y-85399300D01*
X11502643Y-85647065D01*
X11642991Y-85857109D01*
X11853035Y-85997457D01*
X12100800Y-86046740D01*
X13400800Y-86046740D01*
X13648565Y-85997457D01*
X13858609Y-85857109D01*
X13901425Y-85793031D01*
X13966423Y-85820020D01*
X14378171Y-85820379D01*
X14758715Y-85663142D01*
X15050119Y-85372246D01*
X15208020Y-84991977D01*
X15208379Y-84580229D01*
X15185269Y-84524298D01*
X15304615Y-84405160D01*
X15462516Y-84024891D01*
X15462875Y-83613143D01*
X15305638Y-83232599D01*
X15187696Y-83114451D01*
X15187696Y-74831160D01*
X15292823Y-74810249D01*
X15539385Y-74645502D01*
X16285401Y-73899486D01*
X16289448Y-73893430D01*
X16488535Y-74026457D01*
X16497800Y-74028300D01*
X16488535Y-74030143D01*
X16278491Y-74170491D01*
X16138143Y-74380535D01*
X16088860Y-74628300D01*
X16088860Y-76128300D01*
X16138143Y-76376065D01*
X16278491Y-76586109D01*
X16488535Y-76726457D01*
X16736300Y-76775740D01*
X17608938Y-76775740D01*
X18063560Y-77230362D01*
X18063560Y-77859800D01*
X18112843Y-78107565D01*
X18249684Y-78312360D01*
X17761000Y-78312360D01*
X17513235Y-78361643D01*
X17303191Y-78501991D01*
X17162843Y-78712035D01*
X17113560Y-78959800D01*
X17113560Y-79859800D01*
X17129962Y-79942260D01*
X16698200Y-79942260D01*
X16450435Y-79991543D01*
X16240391Y-80131891D01*
X16100043Y-80341935D01*
X16050760Y-80589700D01*
X16050760Y-82089700D01*
X16100043Y-82337465D01*
X16240391Y-82547509D01*
X16450435Y-82687857D01*
X16459700Y-82689700D01*
X16450435Y-82691543D01*
X16240391Y-82831891D01*
X16100043Y-83041935D01*
X16050760Y-83289700D01*
X16050760Y-84789700D01*
X16100043Y-85037465D01*
X16240391Y-85247509D01*
X16252211Y-85255407D01*
X16161991Y-85315691D01*
X16021643Y-85525735D01*
X15972360Y-85773500D01*
X15972360Y-87073500D01*
X16021643Y-87321265D01*
X16161991Y-87531309D01*
X16372035Y-87671657D01*
X16619800Y-87720940D01*
X18119800Y-87720940D01*
X18367565Y-87671657D01*
X18577609Y-87531309D01*
X18717957Y-87321265D01*
X18719800Y-87312000D01*
X18721643Y-87321265D01*
X18861991Y-87531309D01*
X19072035Y-87671657D01*
X19319800Y-87720940D01*
X20819800Y-87720940D01*
X21067565Y-87671657D01*
X21277609Y-87531309D01*
X21417957Y-87321265D01*
X21467240Y-87073500D01*
X21467240Y-85773500D01*
X21417957Y-85525735D01*
X21277609Y-85315691D01*
X21078646Y-85182747D01*
X21126220Y-85068177D01*
X21126579Y-84656429D01*
X20969342Y-84275885D01*
X20829800Y-84136099D01*
X20829800Y-79062118D01*
X21008346Y-79026603D01*
X21376566Y-78780566D01*
X22388705Y-77768427D01*
X22462212Y-77817543D01*
X23087900Y-77942000D01*
X26085000Y-77942000D01*
X26085000Y-78260161D01*
X26084999Y-78260166D01*
X26209457Y-78885854D01*
X26563880Y-79416286D01*
X27927799Y-80780204D01*
X27740377Y-80702380D01*
X27328629Y-80702021D01*
X26948085Y-80859258D01*
X26673253Y-81133611D01*
X26368777Y-81007182D01*
X25957029Y-81006823D01*
X25686229Y-81118715D01*
X25428246Y-80860281D01*
X25047977Y-80702380D01*
X24636229Y-80702021D01*
X24255685Y-80859258D01*
X24231813Y-80883088D01*
X24209046Y-80860281D01*
X23828777Y-80702380D01*
X23417029Y-80702021D01*
X23036485Y-80859258D01*
X22745081Y-81150154D01*
X22587180Y-81530423D01*
X22586821Y-81942171D01*
X22744058Y-82322715D01*
X22887400Y-82466307D01*
X22887400Y-90185353D01*
X22807314Y-90218444D01*
X22389212Y-90635817D01*
X22377652Y-90663657D01*
X22367056Y-90638014D01*
X21949683Y-90219912D01*
X21404081Y-89993358D01*
X20813311Y-89992843D01*
X20267314Y-90218444D01*
X19849212Y-90635817D01*
X19815045Y-90718100D01*
X13502450Y-90718100D01*
X13392752Y-90166613D01*
X13153898Y-89809141D01*
X13302109Y-89710109D01*
X13442457Y-89500065D01*
X13491740Y-89252300D01*
X13491740Y-87252300D01*
X13442457Y-87004535D01*
X13302109Y-86794491D01*
X13092065Y-86654143D01*
X12844300Y-86604860D01*
X10244300Y-86604860D01*
X9996535Y-86654143D01*
X9786491Y-86794491D01*
X9646143Y-87004535D01*
X9596860Y-87252300D01*
X9596860Y-87520709D01*
X9325377Y-87407980D01*
X8913629Y-87407621D01*
X8533085Y-87564858D01*
X8241681Y-87855754D01*
X8083780Y-88236023D01*
X8083421Y-88647771D01*
X8240658Y-89028315D01*
X8531554Y-89319719D01*
X8911823Y-89477620D01*
X9323571Y-89477979D01*
X9617585Y-89356495D01*
X9646143Y-89500065D01*
X9786491Y-89710109D01*
X9934702Y-89809141D01*
X9695848Y-90166613D01*
X9571391Y-90792300D01*
X9695848Y-91417987D01*
X10050271Y-91948420D01*
X10220705Y-92062300D01*
X10050271Y-92176180D01*
X9695848Y-92706613D01*
X9571391Y-93332300D01*
X9695848Y-93957987D01*
X10050271Y-94488420D01*
X10580704Y-94842843D01*
X11206391Y-94967300D01*
X11882209Y-94967300D01*
X12507896Y-94842843D01*
X12604791Y-94778100D01*
X19609960Y-94778100D01*
X19609960Y-94868100D01*
X19659243Y-95115865D01*
X19799591Y-95325909D01*
X20009635Y-95466257D01*
X20257400Y-95515540D01*
X21957400Y-95515540D01*
X22205165Y-95466257D01*
X22415209Y-95325909D01*
X22555557Y-95115865D01*
X22570414Y-95041175D01*
X22805117Y-95276288D01*
X23350719Y-95502842D01*
X23941489Y-95503357D01*
X24487486Y-95277756D01*
X24905588Y-94860383D01*
X24917148Y-94832543D01*
X24927744Y-94858186D01*
X25345117Y-95276288D01*
X25890719Y-95502842D01*
X26481489Y-95503357D01*
X27027486Y-95277756D01*
X27445588Y-94860383D01*
X27457148Y-94832543D01*
X27467744Y-94858186D01*
X27885117Y-95276288D01*
X28430719Y-95502842D01*
X29021489Y-95503357D01*
X29567486Y-95277756D01*
X29985588Y-94860383D01*
X29997148Y-94832543D01*
X30007744Y-94858186D01*
X30425117Y-95276288D01*
X30970719Y-95502842D01*
X31561489Y-95503357D01*
X31643832Y-95469334D01*
X32673099Y-96498601D01*
X32919660Y-96663348D01*
X33210500Y-96721200D01*
X40734860Y-96721200D01*
X41025699Y-96663348D01*
X41272261Y-96498601D01*
X46918564Y-90852298D01*
X47791202Y-90852298D01*
X48038967Y-90803015D01*
X48249011Y-90662667D01*
X48389359Y-90452623D01*
X48438642Y-90204858D01*
X48438642Y-88704858D01*
X48389359Y-88457093D01*
X48249011Y-88247049D01*
X48038967Y-88106701D01*
X48029702Y-88104858D01*
X48038967Y-88103015D01*
X48204171Y-87992629D01*
X48617600Y-88406058D01*
X48617600Y-90558200D01*
X48675452Y-90849039D01*
X48840199Y-91095601D01*
X50154300Y-92409702D01*
X50154300Y-93215898D01*
X49170738Y-94199460D01*
X46998100Y-94199460D01*
X46750335Y-94248743D01*
X46540291Y-94389091D01*
X46399943Y-94599135D01*
X46350660Y-94846900D01*
X46350660Y-96846900D01*
X46399943Y-97094665D01*
X46513758Y-97265000D01*
X5072390Y-97265000D01*
X3373366Y-96927043D01*
X1994371Y-96005629D01*
X1072957Y-94626634D01*
X861078Y-93561442D01*
X2164509Y-93561442D01*
X2595202Y-94603801D01*
X3392005Y-95401995D01*
X4433610Y-95834507D01*
X5561442Y-95835491D01*
X6603801Y-95404798D01*
X7401995Y-94607995D01*
X7834507Y-93566390D01*
X7835491Y-92438558D01*
X7404798Y-91396199D01*
X6607995Y-90598005D01*
X5566390Y-90165493D01*
X4438558Y-90164509D01*
X3396199Y-90595202D01*
X2598005Y-91392005D01*
X2165493Y-92433610D01*
X2164509Y-93561442D01*
X861078Y-93561442D01*
X735000Y-92927610D01*
X735000Y-85299388D01*
X1068571Y-85299679D01*
X1378650Y-85171557D01*
X1594440Y-85214480D01*
X2985301Y-85214480D01*
X2899051Y-85272111D01*
X2758703Y-85482155D01*
X2709420Y-85729920D01*
X2709420Y-86979920D01*
X2758703Y-87227685D01*
X2850167Y-87364570D01*
X2758703Y-87501455D01*
X2709420Y-87749220D01*
X2709420Y-88652437D01*
X2462029Y-88652221D01*
X2081485Y-88809458D01*
X1790081Y-89100354D01*
X1632180Y-89480623D01*
X1631821Y-89892371D01*
X1789058Y-90272915D01*
X2079954Y-90564319D01*
X2460223Y-90722220D01*
X2871971Y-90722579D01*
X3252515Y-90565342D01*
X3543919Y-90274446D01*
X3701820Y-89894177D01*
X3701855Y-89854027D01*
X3909222Y-89646660D01*
X4856860Y-89646660D01*
X5104625Y-89597377D01*
X5314669Y-89457029D01*
X5455017Y-89246985D01*
X5504300Y-88999220D01*
X5504300Y-87749220D01*
X5455017Y-87501455D01*
X5363553Y-87364570D01*
X5455017Y-87227685D01*
X5504300Y-86979920D01*
X5504300Y-85729920D01*
X5455017Y-85482155D01*
X5314669Y-85272111D01*
X5104625Y-85131763D01*
X4900200Y-85091101D01*
X4900200Y-84955561D01*
X5017119Y-84838846D01*
X5112893Y-84608196D01*
X5218058Y-84862715D01*
X5508954Y-85154119D01*
X5889223Y-85312020D01*
X6300971Y-85312379D01*
X6681515Y-85155142D01*
X6701608Y-85135084D01*
X6746675Y-85165197D01*
X6994440Y-85214480D01*
X8494440Y-85214480D01*
X8742205Y-85165197D01*
X8952249Y-85024849D01*
X9092597Y-84814805D01*
X9141880Y-84567040D01*
X9141880Y-84029377D01*
X9488671Y-84029679D01*
X9869215Y-83872442D01*
X10160619Y-83581546D01*
X10318520Y-83201277D01*
X10318879Y-82789529D01*
X10161642Y-82408985D01*
X9870746Y-82117581D01*
X9490477Y-81959680D01*
X9141880Y-81959376D01*
X9141880Y-81427040D01*
X9092597Y-81179275D01*
X9035291Y-81093511D01*
X9183561Y-80994441D01*
X10087801Y-80090201D01*
X10252548Y-79843640D01*
X10270201Y-79754892D01*
X10310400Y-79552800D01*
X10310400Y-77056252D01*
X10376519Y-76990248D01*
X10534420Y-76609979D01*
X10534779Y-76198231D01*
X10377542Y-75817687D01*
X10086646Y-75526283D01*
X9706377Y-75368382D01*
X9294629Y-75368023D01*
X8914085Y-75525260D01*
X8622681Y-75816156D01*
X8464780Y-76196425D01*
X8464421Y-76608173D01*
X8621658Y-76988717D01*
X8629366Y-76996438D01*
X8494440Y-76969600D01*
X6994440Y-76969600D01*
X6746675Y-77018883D01*
X6631526Y-77095824D01*
X6205760Y-76670058D01*
X6205760Y-75837134D01*
X6293525Y-75819677D01*
X6503569Y-75679329D01*
X6643917Y-75469285D01*
X6693200Y-75221520D01*
X6693200Y-74321520D01*
X6643917Y-74073755D01*
X6503569Y-73863711D01*
X6293525Y-73723363D01*
X6237670Y-73712253D01*
X6261719Y-73688246D01*
X6419620Y-73307977D01*
X6419979Y-72896229D01*
X6266604Y-72525032D01*
X6293525Y-72519677D01*
X6503569Y-72379329D01*
X6643917Y-72169285D01*
X6693200Y-71921520D01*
X6693200Y-71021520D01*
X6643917Y-70773755D01*
X6503569Y-70563711D01*
X6293525Y-70423363D01*
X6045760Y-70374080D01*
X5409382Y-70374080D01*
X5453000Y-70154800D01*
X5366603Y-69720454D01*
X5120566Y-69352234D01*
X4752346Y-69106197D01*
X4318000Y-69019800D01*
X3873732Y-69019800D01*
X3284600Y-68430668D01*
X3284600Y-68364200D01*
X3272040Y-68301057D01*
X3272040Y-67739200D01*
X3222757Y-67491435D01*
X3082409Y-67281391D01*
X2872365Y-67141043D01*
X2624600Y-67091760D01*
X1674600Y-67091760D01*
X1426835Y-67141043D01*
X1216791Y-67281391D01*
X1076443Y-67491435D01*
X1027160Y-67739200D01*
X1027160Y-67881508D01*
X772234Y-68136434D01*
X735000Y-68192159D01*
X735000Y-64682810D01*
X793472Y-64770320D01*
X1323905Y-65124743D01*
X1949592Y-65249200D01*
X2575279Y-65124743D01*
X3105712Y-64770320D01*
X3185744Y-64650544D01*
X3216791Y-64697009D01*
X3426835Y-64837357D01*
X3674600Y-64886640D01*
X3728304Y-64886640D01*
X3748513Y-64900143D01*
X4374200Y-65024600D01*
X4999887Y-64900143D01*
X5530320Y-64545720D01*
X5884743Y-64015287D01*
X6009200Y-63389600D01*
X6009200Y-61173434D01*
X6011741Y-61160660D01*
X6011740Y-61160655D01*
X6011740Y-59963920D01*
X6896517Y-59079142D01*
X6896520Y-59079140D01*
X7127603Y-58733299D01*
X7250943Y-58548708D01*
X7375401Y-57923020D01*
X7375400Y-57923015D01*
X7375400Y-53441605D01*
X7375401Y-53441600D01*
X7250943Y-52815912D01*
X6896520Y-52285480D01*
X5829720Y-51218680D01*
X5697300Y-51130200D01*
X12774473Y-51130200D01*
X12640691Y-51219591D01*
G36*
X29024912Y-81877317D02*
X29024914Y-81877320D01*
X29377134Y-82112665D01*
X29555347Y-82231743D01*
X30181034Y-82356201D01*
X30181039Y-82356200D01*
X32840260Y-82356200D01*
X33079020Y-82594960D01*
X32293400Y-82594960D01*
X32045635Y-82644243D01*
X31835591Y-82784591D01*
X31715689Y-82964035D01*
X31651977Y-82937580D01*
X31240229Y-82937221D01*
X30859685Y-83094458D01*
X30568281Y-83385354D01*
X30410380Y-83765623D01*
X30410021Y-84177371D01*
X30567258Y-84557915D01*
X30685200Y-84676063D01*
X30685200Y-88798400D01*
X30743052Y-89089239D01*
X30907799Y-89335801D01*
X31682401Y-90110403D01*
X31682401Y-92582489D01*
X31564081Y-92533358D01*
X30973311Y-92532843D01*
X30427314Y-92758444D01*
X30009212Y-93175817D01*
X29997652Y-93203657D01*
X29987056Y-93178014D01*
X29569683Y-92759912D01*
X29541843Y-92748352D01*
X29567486Y-92737756D01*
X29985588Y-92320383D01*
X30212142Y-91774781D01*
X30212657Y-91184011D01*
X29987056Y-90638014D01*
X29569683Y-90219912D01*
X29024081Y-89993358D01*
X28433311Y-89992843D01*
X28293600Y-90050570D01*
X28293600Y-82440961D01*
X28410519Y-82324246D01*
X28568420Y-81943977D01*
X28568779Y-81532229D01*
X28490589Y-81342994D01*
X29024912Y-81877317D01*
X29024912Y-81877317D01*
G37*
X29024912Y-81877317D02*
X29024914Y-81877320D01*
X29377134Y-82112665D01*
X29555347Y-82231743D01*
X30181034Y-82356201D01*
X30181039Y-82356200D01*
X32840260Y-82356200D01*
X33079020Y-82594960D01*
X32293400Y-82594960D01*
X32045635Y-82644243D01*
X31835591Y-82784591D01*
X31715689Y-82964035D01*
X31651977Y-82937580D01*
X31240229Y-82937221D01*
X30859685Y-83094458D01*
X30568281Y-83385354D01*
X30410380Y-83765623D01*
X30410021Y-84177371D01*
X30567258Y-84557915D01*
X30685200Y-84676063D01*
X30685200Y-88798400D01*
X30743052Y-89089239D01*
X30907799Y-89335801D01*
X31682401Y-90110403D01*
X31682401Y-92582489D01*
X31564081Y-92533358D01*
X30973311Y-92532843D01*
X30427314Y-92758444D01*
X30009212Y-93175817D01*
X29997652Y-93203657D01*
X29987056Y-93178014D01*
X29569683Y-92759912D01*
X29541843Y-92748352D01*
X29567486Y-92737756D01*
X29985588Y-92320383D01*
X30212142Y-91774781D01*
X30212657Y-91184011D01*
X29987056Y-90638014D01*
X29569683Y-90219912D01*
X29024081Y-89993358D01*
X28433311Y-89992843D01*
X28293600Y-90050570D01*
X28293600Y-82440961D01*
X28410519Y-82324246D01*
X28568420Y-81943977D01*
X28568779Y-81532229D01*
X28490589Y-81342994D01*
X29024912Y-81877317D01*
G36*
X36397778Y-90170417D02*
X36397780Y-90170420D01*
X36641102Y-90333002D01*
X36928212Y-90524843D01*
X37553900Y-90649300D01*
X39556360Y-90649300D01*
X39614600Y-90707540D01*
X39614600Y-92180741D01*
X39412241Y-92383100D01*
X36347400Y-92383100D01*
X35721713Y-92507557D01*
X35191280Y-92861980D01*
X35014974Y-93125841D01*
X34649683Y-92759912D01*
X34621843Y-92748352D01*
X34647486Y-92737756D01*
X35065588Y-92320383D01*
X35292142Y-91774781D01*
X35292657Y-91184011D01*
X35067056Y-90638014D01*
X34793870Y-90364351D01*
X35386201Y-89772020D01*
X35550948Y-89525458D01*
X35584441Y-89357080D01*
X36397778Y-90170417D01*
X36397778Y-90170417D01*
G37*
X36397778Y-90170417D02*
X36397780Y-90170420D01*
X36641102Y-90333002D01*
X36928212Y-90524843D01*
X37553900Y-90649300D01*
X39556360Y-90649300D01*
X39614600Y-90707540D01*
X39614600Y-92180741D01*
X39412241Y-92383100D01*
X36347400Y-92383100D01*
X35721713Y-92507557D01*
X35191280Y-92861980D01*
X35014974Y-93125841D01*
X34649683Y-92759912D01*
X34621843Y-92748352D01*
X34647486Y-92737756D01*
X35065588Y-92320383D01*
X35292142Y-91774781D01*
X35292657Y-91184011D01*
X35067056Y-90638014D01*
X34793870Y-90364351D01*
X35386201Y-89772020D01*
X35550948Y-89525458D01*
X35584441Y-89357080D01*
X36397778Y-90170417D01*
G36*
X33970858Y-85675515D02*
X34088800Y-85793663D01*
X34088800Y-88919817D01*
X33269999Y-89738618D01*
X33202401Y-89839786D01*
X33202401Y-89795601D01*
X33163652Y-89600800D01*
X33144549Y-89504761D01*
X32979802Y-89258200D01*
X32205200Y-88483598D01*
X32205200Y-85372296D01*
X32293400Y-85389840D01*
X33543400Y-85389840D01*
X33791165Y-85340557D01*
X33823523Y-85318936D01*
X33970858Y-85675515D01*
X33970858Y-85675515D01*
G37*
X33970858Y-85675515D02*
X34088800Y-85793663D01*
X34088800Y-88919817D01*
X33269999Y-89738618D01*
X33202401Y-89839786D01*
X33202401Y-89795601D01*
X33163652Y-89600800D01*
X33144549Y-89504761D01*
X32979802Y-89258200D01*
X32205200Y-88483598D01*
X32205200Y-85372296D01*
X32293400Y-85389840D01*
X33543400Y-85389840D01*
X33791165Y-85340557D01*
X33823523Y-85318936D01*
X33970858Y-85675515D01*
G36*
X59265000Y-58062338D02*
X59064165Y-57928143D01*
X58816400Y-57878860D01*
X57566400Y-57878860D01*
X57318635Y-57928143D01*
X57249401Y-57974404D01*
X57158765Y-57913843D01*
X57149500Y-57912000D01*
X57158765Y-57910157D01*
X57368809Y-57769809D01*
X57509157Y-57559765D01*
X57558440Y-57312000D01*
X57558440Y-55812000D01*
X57509157Y-55564235D01*
X57368809Y-55354191D01*
X57158765Y-55213843D01*
X56911000Y-55164560D01*
X56312412Y-55164560D01*
X56560032Y-54917372D01*
X56717933Y-54537103D01*
X56718292Y-54125355D01*
X56561055Y-53744811D01*
X56281573Y-53464841D01*
X56384457Y-53310865D01*
X56433740Y-53063100D01*
X56433740Y-51563100D01*
X56384457Y-51315335D01*
X56260753Y-51130200D01*
X59265000Y-51130200D01*
X59265000Y-58062338D01*
X59265000Y-58062338D01*
G37*
X59265000Y-58062338D02*
X59064165Y-57928143D01*
X58816400Y-57878860D01*
X57566400Y-57878860D01*
X57318635Y-57928143D01*
X57249401Y-57974404D01*
X57158765Y-57913843D01*
X57149500Y-57912000D01*
X57158765Y-57910157D01*
X57368809Y-57769809D01*
X57509157Y-57559765D01*
X57558440Y-57312000D01*
X57558440Y-55812000D01*
X57509157Y-55564235D01*
X57368809Y-55354191D01*
X57158765Y-55213843D01*
X56911000Y-55164560D01*
X56312412Y-55164560D01*
X56560032Y-54917372D01*
X56717933Y-54537103D01*
X56718292Y-54125355D01*
X56561055Y-53744811D01*
X56281573Y-53464841D01*
X56384457Y-53310865D01*
X56433740Y-53063100D01*
X56433740Y-51563100D01*
X56384457Y-51315335D01*
X56260753Y-51130200D01*
X59265000Y-51130200D01*
X59265000Y-58062338D01*
G36*
X26673797Y-30968282D02*
X21925192Y-45948171D01*
X735000Y-45850520D01*
X735000Y-38787115D01*
X736697Y-38795646D01*
X939576Y-39099276D01*
X982734Y-39163866D01*
X1721974Y-39903107D01*
X1792093Y-40255617D01*
X2092323Y-40704943D01*
X2527322Y-40995600D01*
X2092323Y-41286257D01*
X1792093Y-41735583D01*
X1686666Y-42265600D01*
X1792093Y-42795617D01*
X2092323Y-43244943D01*
X2541649Y-43545173D01*
X3071666Y-43650600D01*
X3125934Y-43650600D01*
X3655951Y-43545173D01*
X4105277Y-43244943D01*
X4405507Y-42795617D01*
X4510934Y-42265600D01*
X4405507Y-41735583D01*
X4105277Y-41286257D01*
X3670278Y-40995600D01*
X4105277Y-40704943D01*
X4405507Y-40255617D01*
X4510934Y-39725600D01*
X4405507Y-39195583D01*
X4105277Y-38746257D01*
X3655951Y-38446027D01*
X3430269Y-38401136D01*
X2920300Y-37891168D01*
X2920300Y-37377259D01*
X2993109Y-37328609D01*
X3035300Y-37265466D01*
X3077491Y-37328609D01*
X3287535Y-37468957D01*
X3535300Y-37518240D01*
X5035300Y-37518240D01*
X5283065Y-37468957D01*
X5387400Y-37399242D01*
X5387400Y-39288402D01*
X5473797Y-39722748D01*
X5679876Y-40031167D01*
X5719834Y-40090968D01*
X7020634Y-41391768D01*
X7388855Y-41637805D01*
X7823200Y-41724202D01*
X8257545Y-41637805D01*
X8625766Y-41391768D01*
X8871803Y-41023547D01*
X8958200Y-40589202D01*
X8871803Y-40154857D01*
X8625766Y-39786636D01*
X7657400Y-38818270D01*
X7657400Y-38100000D01*
X9736200Y-38100000D01*
X9822597Y-38534345D01*
X10068634Y-38902566D01*
X10436855Y-39148603D01*
X10871200Y-39235000D01*
X11305545Y-39148603D01*
X11362944Y-39110251D01*
X11361800Y-39116000D01*
X11361800Y-39681685D01*
X11448197Y-40116031D01*
X11625444Y-40381300D01*
X11694234Y-40484251D01*
X12966249Y-41756266D01*
X12850735Y-41779243D01*
X12640691Y-41919591D01*
X12500343Y-42129635D01*
X12451060Y-42377400D01*
X12451060Y-43877400D01*
X12500343Y-44125165D01*
X12640691Y-44335209D01*
X12850735Y-44475557D01*
X13098500Y-44524840D01*
X13698500Y-44524840D01*
X13946265Y-44475557D01*
X14033500Y-44417268D01*
X14120735Y-44475557D01*
X14368500Y-44524840D01*
X14968500Y-44524840D01*
X15216265Y-44475557D01*
X15303500Y-44417268D01*
X15390735Y-44475557D01*
X15638500Y-44524840D01*
X16238500Y-44524840D01*
X16486265Y-44475557D01*
X16573500Y-44417268D01*
X16660735Y-44475557D01*
X16908500Y-44524840D01*
X17508500Y-44524840D01*
X17756265Y-44475557D01*
X17843500Y-44417268D01*
X17930735Y-44475557D01*
X18178500Y-44524840D01*
X18778500Y-44524840D01*
X19026265Y-44475557D01*
X19113500Y-44417268D01*
X19200735Y-44475557D01*
X19448500Y-44524840D01*
X20048500Y-44524840D01*
X20296265Y-44475557D01*
X20506309Y-44335209D01*
X20646657Y-44125165D01*
X20695940Y-43877400D01*
X20695940Y-43713147D01*
X20797103Y-43561746D01*
X20883500Y-43127400D01*
X20883500Y-41986432D01*
X21908066Y-40961866D01*
X21920636Y-40943054D01*
X22154103Y-40593646D01*
X22240500Y-40159300D01*
X22240500Y-39256859D01*
X22313309Y-39208209D01*
X22453657Y-38998165D01*
X22502940Y-38750400D01*
X22502940Y-37500400D01*
X22453657Y-37252635D01*
X22313309Y-37042591D01*
X22103265Y-36902243D01*
X21855500Y-36852960D01*
X20355500Y-36852960D01*
X20107735Y-36902243D01*
X19967609Y-36995873D01*
X19997540Y-36845400D01*
X19997540Y-35595400D01*
X19948257Y-35347635D01*
X19807909Y-35137591D01*
X19597865Y-34997243D01*
X19350100Y-34947960D01*
X18326371Y-34947960D01*
X18356200Y-34798000D01*
X18269804Y-34363654D01*
X18023766Y-33995434D01*
X17655546Y-33749396D01*
X17221200Y-33663000D01*
X16786855Y-33749396D01*
X16418634Y-33995434D01*
X15711234Y-34702834D01*
X15543335Y-34954113D01*
X15516035Y-34959543D01*
X15305991Y-35099891D01*
X15165643Y-35309935D01*
X15163800Y-35319200D01*
X15161957Y-35309935D01*
X15021609Y-35099891D01*
X14914537Y-35028347D01*
X14862403Y-34766254D01*
X14616366Y-34398034D01*
X14213766Y-33995434D01*
X13845545Y-33749397D01*
X13411200Y-33663000D01*
X12976855Y-33749397D01*
X12608634Y-33995434D01*
X12362597Y-34363655D01*
X12276200Y-34798000D01*
X12362597Y-35232345D01*
X12453897Y-35368986D01*
X12416360Y-35557700D01*
X12416360Y-36565001D01*
X11271199Y-36565001D01*
X10836853Y-36651398D01*
X10528101Y-36857700D01*
X10468633Y-36897435D01*
X10068634Y-37297434D01*
X9822597Y-37665655D01*
X9736200Y-38100000D01*
X7657400Y-38100000D01*
X7657400Y-37377259D01*
X7730209Y-37328609D01*
X7870557Y-37118565D01*
X7919840Y-36870800D01*
X7919840Y-35620800D01*
X7870557Y-35373035D01*
X7730209Y-35162991D01*
X7520165Y-35022643D01*
X7272400Y-34973360D01*
X5772400Y-34973360D01*
X5677941Y-34992149D01*
X5831766Y-34889366D01*
X8481932Y-32239200D01*
X11490640Y-32239200D01*
X11552725Y-32226851D01*
X11553200Y-32226851D01*
X11553200Y-32591760D01*
X11602483Y-32839525D01*
X11742831Y-33049569D01*
X11952875Y-33189917D01*
X12200640Y-33239200D01*
X13108147Y-33239200D01*
X13129194Y-33253263D01*
X13563540Y-33339660D01*
X15090165Y-33339660D01*
X15259515Y-33452817D01*
X15507280Y-33502100D01*
X17007280Y-33502100D01*
X17255045Y-33452817D01*
X17465089Y-33312469D01*
X17605437Y-33102425D01*
X17607280Y-33093160D01*
X17609123Y-33102425D01*
X17749471Y-33312469D01*
X17959515Y-33452817D01*
X18207280Y-33502100D01*
X19707280Y-33502100D01*
X19955045Y-33452817D01*
X20124395Y-33339660D01*
X20334984Y-33339660D01*
X20352991Y-33366609D01*
X20563035Y-33506957D01*
X20810800Y-33556240D01*
X21710800Y-33556240D01*
X21958565Y-33506957D01*
X22168609Y-33366609D01*
X22308957Y-33156565D01*
X22358240Y-32908800D01*
X22358240Y-32497626D01*
X22395800Y-32308800D01*
X22358240Y-32119974D01*
X22358240Y-31708800D01*
X22308957Y-31461035D01*
X22168609Y-31250991D01*
X21958565Y-31110643D01*
X21710800Y-31061360D01*
X20810800Y-31061360D01*
X20769073Y-31069660D01*
X20325881Y-31069660D01*
X20369960Y-30848060D01*
X20369960Y-29548060D01*
X20320677Y-29300295D01*
X20180329Y-29090251D01*
X19970285Y-28949903D01*
X19722520Y-28900620D01*
X18222520Y-28900620D01*
X17974755Y-28949903D01*
X17764711Y-29090251D01*
X17624363Y-29300295D01*
X17622520Y-29309560D01*
X17620677Y-29300295D01*
X17565600Y-29217867D01*
X17634317Y-29115025D01*
X17683600Y-28867260D01*
X17683600Y-27617260D01*
X17634317Y-27369495D01*
X17493969Y-27159451D01*
X17283925Y-27019103D01*
X17036160Y-26969820D01*
X16618852Y-26969820D01*
X16278466Y-26629434D01*
X16242146Y-26605166D01*
X16044762Y-26473278D01*
X16559171Y-26129560D01*
X16856020Y-26129560D01*
X17103785Y-26080277D01*
X17313829Y-25939929D01*
X17454177Y-25729885D01*
X17503460Y-25482120D01*
X17503460Y-23682120D01*
X17454177Y-23434355D01*
X17418526Y-23381000D01*
X17424400Y-23381000D01*
X18241429Y-23218483D01*
X18652506Y-22943810D01*
X19472577Y-22943810D01*
X19388200Y-23368000D01*
X19388200Y-25247600D01*
X19474597Y-25681946D01*
X19720634Y-26050166D01*
X20088854Y-26296203D01*
X20523200Y-26382600D01*
X20764880Y-26382600D01*
X20764880Y-27061480D01*
X20851277Y-27495826D01*
X21070595Y-27824058D01*
X21097314Y-27864046D01*
X21838160Y-28604892D01*
X21838160Y-29022200D01*
X21887443Y-29269965D01*
X22027791Y-29480009D01*
X22237835Y-29620357D01*
X22485600Y-29669640D01*
X23985600Y-29669640D01*
X24233365Y-29620357D01*
X24443409Y-29480009D01*
X24583757Y-29269965D01*
X24633040Y-29022200D01*
X24633040Y-27772200D01*
X24583757Y-27524435D01*
X24443409Y-27314391D01*
X24233365Y-27174043D01*
X23985600Y-27124760D01*
X23568292Y-27124760D01*
X23433153Y-26989621D01*
X23599146Y-26956603D01*
X23967366Y-26710566D01*
X24213403Y-26342346D01*
X24299800Y-25908000D01*
X24299800Y-25687040D01*
X24739880Y-25687040D01*
X24987645Y-25637757D01*
X25197689Y-25497409D01*
X25338037Y-25287365D01*
X25387320Y-25039600D01*
X25387320Y-23489600D01*
X25338037Y-23241835D01*
X25197689Y-23031791D01*
X24987645Y-22891443D01*
X24739880Y-22842160D01*
X24139880Y-22842160D01*
X23892115Y-22891443D01*
X23804880Y-22949732D01*
X23717645Y-22891443D01*
X23665144Y-22881000D01*
X23915200Y-22881000D01*
X24540887Y-22756543D01*
X25071320Y-22402120D01*
X25425743Y-21871687D01*
X25550200Y-21246000D01*
X25510358Y-21045699D01*
X25574880Y-20721320D01*
X25574880Y-18389600D01*
X25488483Y-17955254D01*
X25242446Y-17587034D01*
X25237366Y-17581954D01*
X25180996Y-17544289D01*
X24869146Y-17335917D01*
X24434800Y-17249520D01*
X24246680Y-17249520D01*
X23812334Y-17335917D01*
X23611247Y-17470279D01*
X23474126Y-17443005D01*
X23546797Y-17334245D01*
X23596080Y-17086480D01*
X23596080Y-15486480D01*
X23546797Y-15238715D01*
X23491900Y-15156557D01*
X23524957Y-15107085D01*
X23574240Y-14859320D01*
X23574240Y-12456179D01*
X23865937Y-12164482D01*
X23865940Y-12164480D01*
X23871017Y-12159402D01*
X23871020Y-12159400D01*
X23896420Y-12134000D01*
X23971817Y-12021160D01*
X26695256Y-12014511D01*
X26673797Y-30968282D01*
X26673797Y-30968282D01*
G37*
X26673797Y-30968282D02*
X21925192Y-45948171D01*
X735000Y-45850520D01*
X735000Y-38787115D01*
X736697Y-38795646D01*
X939576Y-39099276D01*
X982734Y-39163866D01*
X1721974Y-39903107D01*
X1792093Y-40255617D01*
X2092323Y-40704943D01*
X2527322Y-40995600D01*
X2092323Y-41286257D01*
X1792093Y-41735583D01*
X1686666Y-42265600D01*
X1792093Y-42795617D01*
X2092323Y-43244943D01*
X2541649Y-43545173D01*
X3071666Y-43650600D01*
X3125934Y-43650600D01*
X3655951Y-43545173D01*
X4105277Y-43244943D01*
X4405507Y-42795617D01*
X4510934Y-42265600D01*
X4405507Y-41735583D01*
X4105277Y-41286257D01*
X3670278Y-40995600D01*
X4105277Y-40704943D01*
X4405507Y-40255617D01*
X4510934Y-39725600D01*
X4405507Y-39195583D01*
X4105277Y-38746257D01*
X3655951Y-38446027D01*
X3430269Y-38401136D01*
X2920300Y-37891168D01*
X2920300Y-37377259D01*
X2993109Y-37328609D01*
X3035300Y-37265466D01*
X3077491Y-37328609D01*
X3287535Y-37468957D01*
X3535300Y-37518240D01*
X5035300Y-37518240D01*
X5283065Y-37468957D01*
X5387400Y-37399242D01*
X5387400Y-39288402D01*
X5473797Y-39722748D01*
X5679876Y-40031167D01*
X5719834Y-40090968D01*
X7020634Y-41391768D01*
X7388855Y-41637805D01*
X7823200Y-41724202D01*
X8257545Y-41637805D01*
X8625766Y-41391768D01*
X8871803Y-41023547D01*
X8958200Y-40589202D01*
X8871803Y-40154857D01*
X8625766Y-39786636D01*
X7657400Y-38818270D01*
X7657400Y-38100000D01*
X9736200Y-38100000D01*
X9822597Y-38534345D01*
X10068634Y-38902566D01*
X10436855Y-39148603D01*
X10871200Y-39235000D01*
X11305545Y-39148603D01*
X11362944Y-39110251D01*
X11361800Y-39116000D01*
X11361800Y-39681685D01*
X11448197Y-40116031D01*
X11625444Y-40381300D01*
X11694234Y-40484251D01*
X12966249Y-41756266D01*
X12850735Y-41779243D01*
X12640691Y-41919591D01*
X12500343Y-42129635D01*
X12451060Y-42377400D01*
X12451060Y-43877400D01*
X12500343Y-44125165D01*
X12640691Y-44335209D01*
X12850735Y-44475557D01*
X13098500Y-44524840D01*
X13698500Y-44524840D01*
X13946265Y-44475557D01*
X14033500Y-44417268D01*
X14120735Y-44475557D01*
X14368500Y-44524840D01*
X14968500Y-44524840D01*
X15216265Y-44475557D01*
X15303500Y-44417268D01*
X15390735Y-44475557D01*
X15638500Y-44524840D01*
X16238500Y-44524840D01*
X16486265Y-44475557D01*
X16573500Y-44417268D01*
X16660735Y-44475557D01*
X16908500Y-44524840D01*
X17508500Y-44524840D01*
X17756265Y-44475557D01*
X17843500Y-44417268D01*
X17930735Y-44475557D01*
X18178500Y-44524840D01*
X18778500Y-44524840D01*
X19026265Y-44475557D01*
X19113500Y-44417268D01*
X19200735Y-44475557D01*
X19448500Y-44524840D01*
X20048500Y-44524840D01*
X20296265Y-44475557D01*
X20506309Y-44335209D01*
X20646657Y-44125165D01*
X20695940Y-43877400D01*
X20695940Y-43713147D01*
X20797103Y-43561746D01*
X20883500Y-43127400D01*
X20883500Y-41986432D01*
X21908066Y-40961866D01*
X21920636Y-40943054D01*
X22154103Y-40593646D01*
X22240500Y-40159300D01*
X22240500Y-39256859D01*
X22313309Y-39208209D01*
X22453657Y-38998165D01*
X22502940Y-38750400D01*
X22502940Y-37500400D01*
X22453657Y-37252635D01*
X22313309Y-37042591D01*
X22103265Y-36902243D01*
X21855500Y-36852960D01*
X20355500Y-36852960D01*
X20107735Y-36902243D01*
X19967609Y-36995873D01*
X19997540Y-36845400D01*
X19997540Y-35595400D01*
X19948257Y-35347635D01*
X19807909Y-35137591D01*
X19597865Y-34997243D01*
X19350100Y-34947960D01*
X18326371Y-34947960D01*
X18356200Y-34798000D01*
X18269804Y-34363654D01*
X18023766Y-33995434D01*
X17655546Y-33749396D01*
X17221200Y-33663000D01*
X16786855Y-33749396D01*
X16418634Y-33995434D01*
X15711234Y-34702834D01*
X15543335Y-34954113D01*
X15516035Y-34959543D01*
X15305991Y-35099891D01*
X15165643Y-35309935D01*
X15163800Y-35319200D01*
X15161957Y-35309935D01*
X15021609Y-35099891D01*
X14914537Y-35028347D01*
X14862403Y-34766254D01*
X14616366Y-34398034D01*
X14213766Y-33995434D01*
X13845545Y-33749397D01*
X13411200Y-33663000D01*
X12976855Y-33749397D01*
X12608634Y-33995434D01*
X12362597Y-34363655D01*
X12276200Y-34798000D01*
X12362597Y-35232345D01*
X12453897Y-35368986D01*
X12416360Y-35557700D01*
X12416360Y-36565001D01*
X11271199Y-36565001D01*
X10836853Y-36651398D01*
X10528101Y-36857700D01*
X10468633Y-36897435D01*
X10068634Y-37297434D01*
X9822597Y-37665655D01*
X9736200Y-38100000D01*
X7657400Y-38100000D01*
X7657400Y-37377259D01*
X7730209Y-37328609D01*
X7870557Y-37118565D01*
X7919840Y-36870800D01*
X7919840Y-35620800D01*
X7870557Y-35373035D01*
X7730209Y-35162991D01*
X7520165Y-35022643D01*
X7272400Y-34973360D01*
X5772400Y-34973360D01*
X5677941Y-34992149D01*
X5831766Y-34889366D01*
X8481932Y-32239200D01*
X11490640Y-32239200D01*
X11552725Y-32226851D01*
X11553200Y-32226851D01*
X11553200Y-32591760D01*
X11602483Y-32839525D01*
X11742831Y-33049569D01*
X11952875Y-33189917D01*
X12200640Y-33239200D01*
X13108147Y-33239200D01*
X13129194Y-33253263D01*
X13563540Y-33339660D01*
X15090165Y-33339660D01*
X15259515Y-33452817D01*
X15507280Y-33502100D01*
X17007280Y-33502100D01*
X17255045Y-33452817D01*
X17465089Y-33312469D01*
X17605437Y-33102425D01*
X17607280Y-33093160D01*
X17609123Y-33102425D01*
X17749471Y-33312469D01*
X17959515Y-33452817D01*
X18207280Y-33502100D01*
X19707280Y-33502100D01*
X19955045Y-33452817D01*
X20124395Y-33339660D01*
X20334984Y-33339660D01*
X20352991Y-33366609D01*
X20563035Y-33506957D01*
X20810800Y-33556240D01*
X21710800Y-33556240D01*
X21958565Y-33506957D01*
X22168609Y-33366609D01*
X22308957Y-33156565D01*
X22358240Y-32908800D01*
X22358240Y-32497626D01*
X22395800Y-32308800D01*
X22358240Y-32119974D01*
X22358240Y-31708800D01*
X22308957Y-31461035D01*
X22168609Y-31250991D01*
X21958565Y-31110643D01*
X21710800Y-31061360D01*
X20810800Y-31061360D01*
X20769073Y-31069660D01*
X20325881Y-31069660D01*
X20369960Y-30848060D01*
X20369960Y-29548060D01*
X20320677Y-29300295D01*
X20180329Y-29090251D01*
X19970285Y-28949903D01*
X19722520Y-28900620D01*
X18222520Y-28900620D01*
X17974755Y-28949903D01*
X17764711Y-29090251D01*
X17624363Y-29300295D01*
X17622520Y-29309560D01*
X17620677Y-29300295D01*
X17565600Y-29217867D01*
X17634317Y-29115025D01*
X17683600Y-28867260D01*
X17683600Y-27617260D01*
X17634317Y-27369495D01*
X17493969Y-27159451D01*
X17283925Y-27019103D01*
X17036160Y-26969820D01*
X16618852Y-26969820D01*
X16278466Y-26629434D01*
X16242146Y-26605166D01*
X16044762Y-26473278D01*
X16559171Y-26129560D01*
X16856020Y-26129560D01*
X17103785Y-26080277D01*
X17313829Y-25939929D01*
X17454177Y-25729885D01*
X17503460Y-25482120D01*
X17503460Y-23682120D01*
X17454177Y-23434355D01*
X17418526Y-23381000D01*
X17424400Y-23381000D01*
X18241429Y-23218483D01*
X18652506Y-22943810D01*
X19472577Y-22943810D01*
X19388200Y-23368000D01*
X19388200Y-25247600D01*
X19474597Y-25681946D01*
X19720634Y-26050166D01*
X20088854Y-26296203D01*
X20523200Y-26382600D01*
X20764880Y-26382600D01*
X20764880Y-27061480D01*
X20851277Y-27495826D01*
X21070595Y-27824058D01*
X21097314Y-27864046D01*
X21838160Y-28604892D01*
X21838160Y-29022200D01*
X21887443Y-29269965D01*
X22027791Y-29480009D01*
X22237835Y-29620357D01*
X22485600Y-29669640D01*
X23985600Y-29669640D01*
X24233365Y-29620357D01*
X24443409Y-29480009D01*
X24583757Y-29269965D01*
X24633040Y-29022200D01*
X24633040Y-27772200D01*
X24583757Y-27524435D01*
X24443409Y-27314391D01*
X24233365Y-27174043D01*
X23985600Y-27124760D01*
X23568292Y-27124760D01*
X23433153Y-26989621D01*
X23599146Y-26956603D01*
X23967366Y-26710566D01*
X24213403Y-26342346D01*
X24299800Y-25908000D01*
X24299800Y-25687040D01*
X24739880Y-25687040D01*
X24987645Y-25637757D01*
X25197689Y-25497409D01*
X25338037Y-25287365D01*
X25387320Y-25039600D01*
X25387320Y-23489600D01*
X25338037Y-23241835D01*
X25197689Y-23031791D01*
X24987645Y-22891443D01*
X24739880Y-22842160D01*
X24139880Y-22842160D01*
X23892115Y-22891443D01*
X23804880Y-22949732D01*
X23717645Y-22891443D01*
X23665144Y-22881000D01*
X23915200Y-22881000D01*
X24540887Y-22756543D01*
X25071320Y-22402120D01*
X25425743Y-21871687D01*
X25550200Y-21246000D01*
X25510358Y-21045699D01*
X25574880Y-20721320D01*
X25574880Y-18389600D01*
X25488483Y-17955254D01*
X25242446Y-17587034D01*
X25237366Y-17581954D01*
X25180996Y-17544289D01*
X24869146Y-17335917D01*
X24434800Y-17249520D01*
X24246680Y-17249520D01*
X23812334Y-17335917D01*
X23611247Y-17470279D01*
X23474126Y-17443005D01*
X23546797Y-17334245D01*
X23596080Y-17086480D01*
X23596080Y-15486480D01*
X23546797Y-15238715D01*
X23491900Y-15156557D01*
X23524957Y-15107085D01*
X23574240Y-14859320D01*
X23574240Y-12456179D01*
X23865937Y-12164482D01*
X23865940Y-12164480D01*
X23871017Y-12159402D01*
X23871020Y-12159400D01*
X23896420Y-12134000D01*
X23971817Y-12021160D01*
X26695256Y-12014511D01*
X26673797Y-30968282D01*
G36*
X59265000Y-45897800D02*
X36144390Y-45897800D01*
X36147235Y-43994697D01*
X36703232Y-43438700D01*
X38012280Y-43438700D01*
X38228649Y-43583273D01*
X38758666Y-43688700D01*
X38812934Y-43688700D01*
X39342951Y-43583273D01*
X39792277Y-43283043D01*
X40092507Y-42833717D01*
X40197934Y-42303700D01*
X40092507Y-41773683D01*
X39792277Y-41324357D01*
X39357278Y-41033700D01*
X39792277Y-40743043D01*
X40092507Y-40293717D01*
X40197934Y-39763700D01*
X40102874Y-39285800D01*
X41757600Y-39285800D01*
X41841800Y-39269052D01*
X41841800Y-39878000D01*
X41928197Y-40312346D01*
X42097092Y-40565115D01*
X42174234Y-40680566D01*
X42529834Y-41036166D01*
X42898055Y-41282203D01*
X43332400Y-41368600D01*
X43766745Y-41282203D01*
X44134966Y-41036166D01*
X44381003Y-40667945D01*
X44467400Y-40233600D01*
X44381003Y-39799255D01*
X44134966Y-39431034D01*
X44111800Y-39407868D01*
X44111800Y-38150800D01*
X45143800Y-38150800D01*
X45230197Y-38585145D01*
X45476234Y-38953366D01*
X45501634Y-38978766D01*
X45869854Y-39224803D01*
X46304200Y-39311200D01*
X46638801Y-39311200D01*
X46617000Y-39420800D01*
X46703397Y-39855145D01*
X46949434Y-40223366D01*
X48470128Y-41744060D01*
X48378491Y-41805291D01*
X48238143Y-42015335D01*
X48188860Y-42263100D01*
X48188860Y-43763100D01*
X48238143Y-44010865D01*
X48378491Y-44220909D01*
X48588535Y-44361257D01*
X48836300Y-44410540D01*
X49436300Y-44410540D01*
X49684065Y-44361257D01*
X49771300Y-44302968D01*
X49858535Y-44361257D01*
X50106300Y-44410540D01*
X50706300Y-44410540D01*
X50954065Y-44361257D01*
X51041300Y-44302968D01*
X51128535Y-44361257D01*
X51376300Y-44410540D01*
X51976300Y-44410540D01*
X52224065Y-44361257D01*
X52311300Y-44302968D01*
X52398535Y-44361257D01*
X52646300Y-44410540D01*
X53246300Y-44410540D01*
X53494065Y-44361257D01*
X53581300Y-44302968D01*
X53668535Y-44361257D01*
X53916300Y-44410540D01*
X54516300Y-44410540D01*
X54764065Y-44361257D01*
X54851300Y-44302968D01*
X54938535Y-44361257D01*
X55186300Y-44410540D01*
X55786300Y-44410540D01*
X56034065Y-44361257D01*
X56244109Y-44220909D01*
X56384457Y-44010865D01*
X56433740Y-43763100D01*
X56433740Y-43598847D01*
X56534903Y-43447446D01*
X56621300Y-43013100D01*
X56621300Y-41441143D01*
X56659400Y-41249600D01*
X56659400Y-39448640D01*
X56724300Y-39448640D01*
X56972065Y-39399357D01*
X57182109Y-39259009D01*
X57322457Y-39048965D01*
X57371740Y-38801200D01*
X57371740Y-37551200D01*
X57322457Y-37303435D01*
X57182109Y-37093391D01*
X56972065Y-36953043D01*
X56724300Y-36903760D01*
X55224300Y-36903760D01*
X54976535Y-36953043D01*
X54822164Y-37056191D01*
X54859040Y-36870800D01*
X54859040Y-35620800D01*
X54809757Y-35373035D01*
X54669409Y-35162991D01*
X54459365Y-35022643D01*
X54211600Y-34973360D01*
X54064311Y-34973360D01*
X54119402Y-34696400D01*
X54033005Y-34262054D01*
X53786968Y-33893834D01*
X53418748Y-33647797D01*
X52984402Y-33561400D01*
X52418717Y-33561400D01*
X51984371Y-33647797D01*
X51741700Y-33809945D01*
X51616151Y-33893834D01*
X51114249Y-34395736D01*
X51017542Y-34161685D01*
X50726646Y-33870281D01*
X50346377Y-33712380D01*
X49934629Y-33712021D01*
X49554085Y-33869258D01*
X49262681Y-34160154D01*
X49237391Y-34221059D01*
X48960966Y-33944634D01*
X48592745Y-33698597D01*
X48158400Y-33612200D01*
X47724055Y-33698597D01*
X47355834Y-33944634D01*
X47109797Y-34312855D01*
X47023400Y-34747200D01*
X47109797Y-35181545D01*
X47259710Y-35405906D01*
X47214360Y-35633900D01*
X47214360Y-36933900D01*
X47235703Y-37041200D01*
X46406494Y-37041200D01*
X46278800Y-37015800D01*
X45844455Y-37102197D01*
X45476234Y-37348234D01*
X45230197Y-37716455D01*
X45143800Y-38150800D01*
X44111800Y-38150800D01*
X44111800Y-36992880D01*
X44025403Y-36558534D01*
X43779366Y-36190314D01*
X43667800Y-36078748D01*
X43667800Y-35661440D01*
X43618517Y-35413675D01*
X43478169Y-35203631D01*
X43268125Y-35063283D01*
X43020360Y-35014000D01*
X41520360Y-35014000D01*
X41272595Y-35063283D01*
X41145477Y-35148221D01*
X41033565Y-35073443D01*
X40785800Y-35024160D01*
X39732972Y-35024160D01*
X41900966Y-32856166D01*
X41926468Y-32818000D01*
X42147003Y-32487946D01*
X42208608Y-32178240D01*
X43098400Y-32178240D01*
X43160485Y-32165891D01*
X43160960Y-32165891D01*
X43160960Y-32530800D01*
X43210243Y-32778565D01*
X43350591Y-32988609D01*
X43560635Y-33128957D01*
X43808400Y-33178240D01*
X46308400Y-33178240D01*
X46370941Y-33165800D01*
X46539787Y-33165800D01*
X46624211Y-33292149D01*
X46834255Y-33432497D01*
X47082020Y-33481780D01*
X48582020Y-33481780D01*
X48829785Y-33432497D01*
X49039829Y-33292149D01*
X49180177Y-33082105D01*
X49182020Y-33072840D01*
X49183863Y-33082105D01*
X49324211Y-33292149D01*
X49534255Y-33432497D01*
X49782020Y-33481780D01*
X51282020Y-33481780D01*
X51529785Y-33432497D01*
X51699135Y-33319340D01*
X54913260Y-33319340D01*
X55347606Y-33232943D01*
X55471978Y-33149840D01*
X55645200Y-33149840D01*
X55892965Y-33100557D01*
X56103009Y-32960209D01*
X56243357Y-32750165D01*
X56292640Y-32502400D01*
X56292640Y-32091224D01*
X56330199Y-31902400D01*
X56292640Y-31713577D01*
X56292640Y-31302400D01*
X56243357Y-31054635D01*
X56103009Y-30844591D01*
X55892965Y-30704243D01*
X55645200Y-30654960D01*
X54745200Y-30654960D01*
X54497435Y-30704243D01*
X54287391Y-30844591D01*
X54150581Y-31049340D01*
X51908117Y-31049340D01*
X51929460Y-30942040D01*
X51929460Y-29642040D01*
X51880177Y-29394275D01*
X51739829Y-29184231D01*
X51529785Y-29043883D01*
X51282020Y-28994600D01*
X49782020Y-28994600D01*
X49534255Y-29043883D01*
X49324211Y-29184231D01*
X49183863Y-29394275D01*
X49182020Y-29403540D01*
X49180177Y-29394275D01*
X49138695Y-29332193D01*
X49178577Y-29272505D01*
X49227860Y-29024740D01*
X49227860Y-27774740D01*
X49178577Y-27526975D01*
X49038229Y-27316931D01*
X48828185Y-27176583D01*
X48580420Y-27127300D01*
X47413780Y-27127300D01*
X47413800Y-27127200D01*
X47327403Y-26692855D01*
X47163470Y-26447511D01*
X47365709Y-26407283D01*
X48001831Y-25982240D01*
X48298680Y-25982240D01*
X48546445Y-25932957D01*
X48756489Y-25792609D01*
X48896837Y-25582565D01*
X48946120Y-25334800D01*
X48946120Y-23534800D01*
X48902897Y-23317500D01*
X49115980Y-23317500D01*
X49933009Y-23154983D01*
X50325079Y-22893010D01*
X50612977Y-22893010D01*
X50528600Y-23317200D01*
X50528600Y-25146000D01*
X50614997Y-25580346D01*
X50861034Y-25948566D01*
X51229254Y-26194603D01*
X51663600Y-26281000D01*
X52538512Y-26281000D01*
X52559683Y-26387432D01*
X52784994Y-26724633D01*
X52805720Y-26755652D01*
X54096160Y-28046092D01*
X54096160Y-28463400D01*
X54145443Y-28711165D01*
X54285791Y-28921209D01*
X54495835Y-29061557D01*
X54743600Y-29110840D01*
X56243600Y-29110840D01*
X56491365Y-29061557D01*
X56701409Y-28921209D01*
X56841757Y-28711165D01*
X56891040Y-28463400D01*
X56891040Y-27213400D01*
X56841757Y-26965635D01*
X56800233Y-26903491D01*
X57088966Y-26710566D01*
X57335003Y-26342346D01*
X57421400Y-25908000D01*
X57335003Y-25473654D01*
X57088966Y-25105434D01*
X57083073Y-25101497D01*
X57095726Y-25037886D01*
X57095726Y-23487886D01*
X57046443Y-23240121D01*
X56906095Y-23030077D01*
X56696051Y-22889729D01*
X56448286Y-22840446D01*
X55848286Y-22840446D01*
X55600521Y-22889729D01*
X55513286Y-22948018D01*
X55426051Y-22889729D01*
X55420868Y-22888698D01*
X56024877Y-22768553D01*
X56555310Y-22414130D01*
X56909733Y-21883697D01*
X57017843Y-21340193D01*
X57104915Y-21209880D01*
X57196889Y-21072232D01*
X57283286Y-20637886D01*
X57283286Y-18862886D01*
X57196889Y-18428540D01*
X57095726Y-18277139D01*
X57095726Y-18087886D01*
X57046443Y-17840121D01*
X56906095Y-17630077D01*
X56696051Y-17489729D01*
X56448286Y-17440446D01*
X55848286Y-17440446D01*
X55600521Y-17489729D01*
X55513286Y-17548018D01*
X55426051Y-17489729D01*
X55224836Y-17449705D01*
X55330837Y-17291065D01*
X55380120Y-17043300D01*
X55380120Y-15443300D01*
X55330837Y-15195535D01*
X55190489Y-14985491D01*
X55103443Y-14927328D01*
X55139689Y-14903109D01*
X55280037Y-14693065D01*
X55329320Y-14445300D01*
X55329320Y-12166600D01*
X59265000Y-12166600D01*
X59265000Y-45897800D01*
X59265000Y-45897800D01*
G37*
X59265000Y-45897800D02*
X36144390Y-45897800D01*
X36147235Y-43994697D01*
X36703232Y-43438700D01*
X38012280Y-43438700D01*
X38228649Y-43583273D01*
X38758666Y-43688700D01*
X38812934Y-43688700D01*
X39342951Y-43583273D01*
X39792277Y-43283043D01*
X40092507Y-42833717D01*
X40197934Y-42303700D01*
X40092507Y-41773683D01*
X39792277Y-41324357D01*
X39357278Y-41033700D01*
X39792277Y-40743043D01*
X40092507Y-40293717D01*
X40197934Y-39763700D01*
X40102874Y-39285800D01*
X41757600Y-39285800D01*
X41841800Y-39269052D01*
X41841800Y-39878000D01*
X41928197Y-40312346D01*
X42097092Y-40565115D01*
X42174234Y-40680566D01*
X42529834Y-41036166D01*
X42898055Y-41282203D01*
X43332400Y-41368600D01*
X43766745Y-41282203D01*
X44134966Y-41036166D01*
X44381003Y-40667945D01*
X44467400Y-40233600D01*
X44381003Y-39799255D01*
X44134966Y-39431034D01*
X44111800Y-39407868D01*
X44111800Y-38150800D01*
X45143800Y-38150800D01*
X45230197Y-38585145D01*
X45476234Y-38953366D01*
X45501634Y-38978766D01*
X45869854Y-39224803D01*
X46304200Y-39311200D01*
X46638801Y-39311200D01*
X46617000Y-39420800D01*
X46703397Y-39855145D01*
X46949434Y-40223366D01*
X48470128Y-41744060D01*
X48378491Y-41805291D01*
X48238143Y-42015335D01*
X48188860Y-42263100D01*
X48188860Y-43763100D01*
X48238143Y-44010865D01*
X48378491Y-44220909D01*
X48588535Y-44361257D01*
X48836300Y-44410540D01*
X49436300Y-44410540D01*
X49684065Y-44361257D01*
X49771300Y-44302968D01*
X49858535Y-44361257D01*
X50106300Y-44410540D01*
X50706300Y-44410540D01*
X50954065Y-44361257D01*
X51041300Y-44302968D01*
X51128535Y-44361257D01*
X51376300Y-44410540D01*
X51976300Y-44410540D01*
X52224065Y-44361257D01*
X52311300Y-44302968D01*
X52398535Y-44361257D01*
X52646300Y-44410540D01*
X53246300Y-44410540D01*
X53494065Y-44361257D01*
X53581300Y-44302968D01*
X53668535Y-44361257D01*
X53916300Y-44410540D01*
X54516300Y-44410540D01*
X54764065Y-44361257D01*
X54851300Y-44302968D01*
X54938535Y-44361257D01*
X55186300Y-44410540D01*
X55786300Y-44410540D01*
X56034065Y-44361257D01*
X56244109Y-44220909D01*
X56384457Y-44010865D01*
X56433740Y-43763100D01*
X56433740Y-43598847D01*
X56534903Y-43447446D01*
X56621300Y-43013100D01*
X56621300Y-41441143D01*
X56659400Y-41249600D01*
X56659400Y-39448640D01*
X56724300Y-39448640D01*
X56972065Y-39399357D01*
X57182109Y-39259009D01*
X57322457Y-39048965D01*
X57371740Y-38801200D01*
X57371740Y-37551200D01*
X57322457Y-37303435D01*
X57182109Y-37093391D01*
X56972065Y-36953043D01*
X56724300Y-36903760D01*
X55224300Y-36903760D01*
X54976535Y-36953043D01*
X54822164Y-37056191D01*
X54859040Y-36870800D01*
X54859040Y-35620800D01*
X54809757Y-35373035D01*
X54669409Y-35162991D01*
X54459365Y-35022643D01*
X54211600Y-34973360D01*
X54064311Y-34973360D01*
X54119402Y-34696400D01*
X54033005Y-34262054D01*
X53786968Y-33893834D01*
X53418748Y-33647797D01*
X52984402Y-33561400D01*
X52418717Y-33561400D01*
X51984371Y-33647797D01*
X51741700Y-33809945D01*
X51616151Y-33893834D01*
X51114249Y-34395736D01*
X51017542Y-34161685D01*
X50726646Y-33870281D01*
X50346377Y-33712380D01*
X49934629Y-33712021D01*
X49554085Y-33869258D01*
X49262681Y-34160154D01*
X49237391Y-34221059D01*
X48960966Y-33944634D01*
X48592745Y-33698597D01*
X48158400Y-33612200D01*
X47724055Y-33698597D01*
X47355834Y-33944634D01*
X47109797Y-34312855D01*
X47023400Y-34747200D01*
X47109797Y-35181545D01*
X47259710Y-35405906D01*
X47214360Y-35633900D01*
X47214360Y-36933900D01*
X47235703Y-37041200D01*
X46406494Y-37041200D01*
X46278800Y-37015800D01*
X45844455Y-37102197D01*
X45476234Y-37348234D01*
X45230197Y-37716455D01*
X45143800Y-38150800D01*
X44111800Y-38150800D01*
X44111800Y-36992880D01*
X44025403Y-36558534D01*
X43779366Y-36190314D01*
X43667800Y-36078748D01*
X43667800Y-35661440D01*
X43618517Y-35413675D01*
X43478169Y-35203631D01*
X43268125Y-35063283D01*
X43020360Y-35014000D01*
X41520360Y-35014000D01*
X41272595Y-35063283D01*
X41145477Y-35148221D01*
X41033565Y-35073443D01*
X40785800Y-35024160D01*
X39732972Y-35024160D01*
X41900966Y-32856166D01*
X41926468Y-32818000D01*
X42147003Y-32487946D01*
X42208608Y-32178240D01*
X43098400Y-32178240D01*
X43160485Y-32165891D01*
X43160960Y-32165891D01*
X43160960Y-32530800D01*
X43210243Y-32778565D01*
X43350591Y-32988609D01*
X43560635Y-33128957D01*
X43808400Y-33178240D01*
X46308400Y-33178240D01*
X46370941Y-33165800D01*
X46539787Y-33165800D01*
X46624211Y-33292149D01*
X46834255Y-33432497D01*
X47082020Y-33481780D01*
X48582020Y-33481780D01*
X48829785Y-33432497D01*
X49039829Y-33292149D01*
X49180177Y-33082105D01*
X49182020Y-33072840D01*
X49183863Y-33082105D01*
X49324211Y-33292149D01*
X49534255Y-33432497D01*
X49782020Y-33481780D01*
X51282020Y-33481780D01*
X51529785Y-33432497D01*
X51699135Y-33319340D01*
X54913260Y-33319340D01*
X55347606Y-33232943D01*
X55471978Y-33149840D01*
X55645200Y-33149840D01*
X55892965Y-33100557D01*
X56103009Y-32960209D01*
X56243357Y-32750165D01*
X56292640Y-32502400D01*
X56292640Y-32091224D01*
X56330199Y-31902400D01*
X56292640Y-31713577D01*
X56292640Y-31302400D01*
X56243357Y-31054635D01*
X56103009Y-30844591D01*
X55892965Y-30704243D01*
X55645200Y-30654960D01*
X54745200Y-30654960D01*
X54497435Y-30704243D01*
X54287391Y-30844591D01*
X54150581Y-31049340D01*
X51908117Y-31049340D01*
X51929460Y-30942040D01*
X51929460Y-29642040D01*
X51880177Y-29394275D01*
X51739829Y-29184231D01*
X51529785Y-29043883D01*
X51282020Y-28994600D01*
X49782020Y-28994600D01*
X49534255Y-29043883D01*
X49324211Y-29184231D01*
X49183863Y-29394275D01*
X49182020Y-29403540D01*
X49180177Y-29394275D01*
X49138695Y-29332193D01*
X49178577Y-29272505D01*
X49227860Y-29024740D01*
X49227860Y-27774740D01*
X49178577Y-27526975D01*
X49038229Y-27316931D01*
X48828185Y-27176583D01*
X48580420Y-27127300D01*
X47413780Y-27127300D01*
X47413800Y-27127200D01*
X47327403Y-26692855D01*
X47163470Y-26447511D01*
X47365709Y-26407283D01*
X48001831Y-25982240D01*
X48298680Y-25982240D01*
X48546445Y-25932957D01*
X48756489Y-25792609D01*
X48896837Y-25582565D01*
X48946120Y-25334800D01*
X48946120Y-23534800D01*
X48902897Y-23317500D01*
X49115980Y-23317500D01*
X49933009Y-23154983D01*
X50325079Y-22893010D01*
X50612977Y-22893010D01*
X50528600Y-23317200D01*
X50528600Y-25146000D01*
X50614997Y-25580346D01*
X50861034Y-25948566D01*
X51229254Y-26194603D01*
X51663600Y-26281000D01*
X52538512Y-26281000D01*
X52559683Y-26387432D01*
X52784994Y-26724633D01*
X52805720Y-26755652D01*
X54096160Y-28046092D01*
X54096160Y-28463400D01*
X54145443Y-28711165D01*
X54285791Y-28921209D01*
X54495835Y-29061557D01*
X54743600Y-29110840D01*
X56243600Y-29110840D01*
X56491365Y-29061557D01*
X56701409Y-28921209D01*
X56841757Y-28711165D01*
X56891040Y-28463400D01*
X56891040Y-27213400D01*
X56841757Y-26965635D01*
X56800233Y-26903491D01*
X57088966Y-26710566D01*
X57335003Y-26342346D01*
X57421400Y-25908000D01*
X57335003Y-25473654D01*
X57088966Y-25105434D01*
X57083073Y-25101497D01*
X57095726Y-25037886D01*
X57095726Y-23487886D01*
X57046443Y-23240121D01*
X56906095Y-23030077D01*
X56696051Y-22889729D01*
X56448286Y-22840446D01*
X55848286Y-22840446D01*
X55600521Y-22889729D01*
X55513286Y-22948018D01*
X55426051Y-22889729D01*
X55420868Y-22888698D01*
X56024877Y-22768553D01*
X56555310Y-22414130D01*
X56909733Y-21883697D01*
X57017843Y-21340193D01*
X57104915Y-21209880D01*
X57196889Y-21072232D01*
X57283286Y-20637886D01*
X57283286Y-18862886D01*
X57196889Y-18428540D01*
X57095726Y-18277139D01*
X57095726Y-18087886D01*
X57046443Y-17840121D01*
X56906095Y-17630077D01*
X56696051Y-17489729D01*
X56448286Y-17440446D01*
X55848286Y-17440446D01*
X55600521Y-17489729D01*
X55513286Y-17548018D01*
X55426051Y-17489729D01*
X55224836Y-17449705D01*
X55330837Y-17291065D01*
X55380120Y-17043300D01*
X55380120Y-15443300D01*
X55330837Y-15195535D01*
X55190489Y-14985491D01*
X55103443Y-14927328D01*
X55139689Y-14903109D01*
X55280037Y-14693065D01*
X55329320Y-14445300D01*
X55329320Y-12166600D01*
X59265000Y-12166600D01*
X59265000Y-45897800D01*
M02*
