G04 #@! TF.GenerationSoftware,KiCad,Pcbnew,no-vcs-found-9413793~61~ubuntu17.10.1*
G04 #@! TF.CreationDate,2017-12-18T18:39:30-05:00*
G04 #@! TF.ProjectId,ENNOID Dual Gate Driver,454E4E4F4944204475616C2047617465,rev?*
G04 #@! TF.SameCoordinates,Original*
G04 #@! TF.FileFunction,Soldermask,Top*
G04 #@! TF.FilePolarity,Negative*
%FSLAX46Y46*%
G04 Gerber Fmt 4.6, Leading zero omitted, Abs format (unit mm)*
G04 Created by KiCad (PCBNEW no-vcs-found-9413793~61~ubuntu17.10.1) date Mon Dec 18 18:39:30 2017*
%MOMM*%
%LPD*%
G01*
G04 APERTURE LIST*
%ADD10R,1.650000X1.900000*%
%ADD11R,1.700000X1.900000*%
%ADD12C,1.100000*%
%ADD13C,4.800000*%
%ADD14R,2.900000X2.400000*%
%ADD15R,1.900000X1.650000*%
%ADD16R,2.400000X2.000000*%
%ADD17R,2.400000X2.900000*%
%ADD18R,1.300000X1.600000*%
%ADD19R,1.600000X1.300000*%
%ADD20O,2.600000X2.600000*%
%ADD21R,2.600000X2.600000*%
%ADD22O,3.000000X2.400000*%
%ADD23R,3.000000X2.400000*%
%ADD24C,1.150000*%
%ADD25C,0.100000*%
%ADD26R,4.400000X2.400000*%
%ADD27R,2.900000X1.400000*%
%ADD28R,1.300000X1.200000*%
%ADD29R,1.900000X1.700000*%
%ADD30R,3.000000X2.500000*%
%ADD31R,1.000000X1.950000*%
%ADD32R,1.200000X1.300000*%
%ADD33R,3.900000X2.200000*%
%ADD34R,1.000000X1.900000*%
%ADD35R,1.900000X1.000000*%
%ADD36R,6.200000X6.800000*%
%ADD37R,1.600000X2.600000*%
%ADD38C,3.400000*%
%ADD39R,1.040000X2.305000*%
%ADD40C,2.100000*%
%ADD41R,2.100000X2.100000*%
%ADD42R,1.350000X1.650000*%
%ADD43O,1.900000X1.900000*%
%ADD44R,1.900000X1.900000*%
G04 APERTURE END LIST*
D10*
X40386000Y-84816000D03*
X40386000Y-82316000D03*
D11*
X20535900Y-68837800D03*
X20535900Y-66137800D03*
D12*
X31166726Y-2833274D03*
X30000000Y-2350000D03*
X28833274Y-2833274D03*
X28350000Y-4000000D03*
X28833274Y-5166726D03*
X30000000Y-5650000D03*
X31166726Y-5166726D03*
X31650000Y-4000000D03*
D13*
X30000000Y-4000000D03*
D12*
X6166726Y-91833274D03*
X5000000Y-91350000D03*
X3833274Y-91833274D03*
X3350000Y-93000000D03*
X3833274Y-94166726D03*
X5000000Y-94650000D03*
X6166726Y-94166726D03*
X6650000Y-93000000D03*
D13*
X5000000Y-93000000D03*
X55000000Y-93000000D03*
D12*
X56650000Y-93000000D03*
X56166726Y-94166726D03*
X55000000Y-94650000D03*
X53833274Y-94166726D03*
X53350000Y-93000000D03*
X53833274Y-91833274D03*
X55000000Y-91350000D03*
X56166726Y-91833274D03*
D14*
X22834600Y-72053700D03*
X22834600Y-76053700D03*
D10*
X25400000Y-76307000D03*
X25400000Y-73807000D03*
X34607500Y-76256200D03*
X34607500Y-73756200D03*
X36601400Y-73756200D03*
X36601400Y-76256200D03*
D15*
X1874200Y-61163200D03*
X4374200Y-61163200D03*
X4376740Y-59161680D03*
X1876740Y-59161680D03*
X4285300Y-36245800D03*
X1785300Y-36245800D03*
X6522400Y-36245800D03*
X9022400Y-36245800D03*
X18786160Y-28242260D03*
X16286160Y-28242260D03*
X37497700Y-58674000D03*
X39997700Y-58674000D03*
X39997700Y-60731400D03*
X37497700Y-60731400D03*
X40035800Y-36296600D03*
X37535800Y-36296600D03*
X42270360Y-36286440D03*
X44770360Y-36286440D03*
X50330420Y-28399740D03*
X47830420Y-28399740D03*
X16352200Y-58420000D03*
X18852200Y-58420000D03*
D10*
X24968200Y-58287600D03*
X24968200Y-60787600D03*
D15*
X18600100Y-36220400D03*
X21100100Y-36220400D03*
X16540800Y-38125400D03*
X14040800Y-38125400D03*
X21105500Y-38125400D03*
X18605500Y-38125400D03*
X23235600Y-28397200D03*
X25735600Y-28397200D03*
D16*
X21948640Y-16286480D03*
X25948640Y-16286480D03*
D15*
X25240300Y-9133840D03*
X22740300Y-9133840D03*
X22714900Y-11003280D03*
X25214900Y-11003280D03*
D17*
X25926800Y-13609320D03*
X21926800Y-13609320D03*
D15*
X14551340Y-9133840D03*
X17051340Y-9133840D03*
X52202400Y-57454800D03*
X49702400Y-57454800D03*
D10*
X58191400Y-59276300D03*
X58191400Y-56776300D03*
D15*
X53461600Y-36245800D03*
X55961600Y-36245800D03*
X51351500Y-38176200D03*
X48851500Y-38176200D03*
X55974300Y-38176200D03*
X53474300Y-38176200D03*
X57993600Y-27838400D03*
X55493600Y-27838400D03*
D16*
X57732680Y-16243300D03*
X53732680Y-16243300D03*
D15*
X53453980Y-8699500D03*
X55953980Y-8699500D03*
X53441280Y-10617200D03*
X55941280Y-10617200D03*
D17*
X53681880Y-13195300D03*
X57681880Y-13195300D03*
D15*
X40454900Y-8636000D03*
X37954900Y-8636000D03*
D10*
X32994600Y-37370700D03*
X32994600Y-39870700D03*
X30924500Y-59809700D03*
X30924500Y-57309700D03*
X29032200Y-57309700D03*
X29032200Y-59809700D03*
X32918400Y-83992400D03*
X32918400Y-86492400D03*
D15*
X4106860Y-88374220D03*
X6606860Y-88374220D03*
D10*
X47142400Y-82105058D03*
X47142400Y-84605058D03*
D18*
X21260800Y-32308800D03*
X24560800Y-32308800D03*
X58495200Y-31902400D03*
X55195200Y-31902400D03*
D19*
X2501900Y-30430200D03*
X2501900Y-33730200D03*
D20*
X2463800Y-23228300D03*
D21*
X2463800Y-10528300D03*
D18*
X5790200Y-7797800D03*
X2490200Y-7797800D03*
X33857200Y-29552900D03*
X30557200Y-29552900D03*
D21*
X30848360Y-10513060D03*
D20*
X30848360Y-23213060D03*
D18*
X27547300Y-7823200D03*
X30847300Y-7823200D03*
D22*
X11544300Y-95872300D03*
X11544300Y-93332300D03*
X11544300Y-90792300D03*
D23*
X11544300Y-88252300D03*
D22*
X48298100Y-93306900D03*
D23*
X48298100Y-95846900D03*
D24*
X43448400Y-30530800D03*
D25*
G36*
X42873400Y-29157097D02*
X44023400Y-29923763D01*
X44023400Y-31137837D01*
X42873400Y-31904503D01*
X42873400Y-29157097D01*
X42873400Y-29157097D01*
G37*
D26*
X41098400Y-30530800D03*
D27*
X45058400Y-29030800D03*
X45058400Y-30530800D03*
X45058400Y-32030800D03*
X13450640Y-32091760D03*
X13450640Y-30591760D03*
X13450640Y-29091760D03*
D26*
X9490640Y-30591760D03*
D24*
X11840640Y-30591760D03*
D25*
G36*
X11265640Y-29218057D02*
X12415640Y-29984723D01*
X12415640Y-31198797D01*
X11265640Y-31965463D01*
X11265640Y-29218057D01*
X11265640Y-29218057D01*
G37*
D28*
X16767300Y-65189100D03*
X18767300Y-64239100D03*
X18767300Y-66139100D03*
X52054000Y-64932600D03*
X52054000Y-63032600D03*
X50054000Y-63982600D03*
D29*
X16272520Y-30198060D03*
X18972520Y-30198060D03*
X18957280Y-32204660D03*
X16257280Y-32204660D03*
X50532020Y-30292040D03*
X47832020Y-30292040D03*
X50532020Y-32184340D03*
X47832020Y-32184340D03*
D11*
X13804900Y-60874900D03*
X13804900Y-58174900D03*
X23012400Y-60773300D03*
X23012400Y-58073300D03*
D29*
X18914100Y-60490100D03*
X16214100Y-60490100D03*
D11*
X21005800Y-58073300D03*
X21005800Y-60773300D03*
X2501900Y-28540700D03*
X2501900Y-25840700D03*
D30*
X7569200Y-21246000D03*
X7569200Y-16346000D03*
X10820400Y-16366320D03*
X10820400Y-21266320D03*
X14122400Y-16346000D03*
X14122400Y-21246000D03*
X17424400Y-21246000D03*
X17424400Y-16346000D03*
D29*
X17059900Y-11008360D03*
X14359900Y-11008360D03*
D11*
X53873400Y-64944000D03*
X53873400Y-67644000D03*
X47434500Y-57019200D03*
X47434500Y-59719200D03*
X56261000Y-56562000D03*
X56261000Y-59262000D03*
D29*
X49551600Y-59385200D03*
X52251600Y-59385200D03*
D11*
X54330600Y-56562000D03*
X54330600Y-59262000D03*
D29*
X30857200Y-27381200D03*
X33557200Y-27381200D03*
D30*
X39032180Y-16295200D03*
X39032180Y-21195200D03*
X42384980Y-21182500D03*
X42384980Y-16282500D03*
X49115980Y-16282500D03*
X49115980Y-21182500D03*
X45750480Y-21195200D03*
X45750480Y-16295200D03*
D29*
X37829500Y-10541000D03*
X40529500Y-10541000D03*
D11*
X33561020Y-17903180D03*
X33561020Y-15203180D03*
X34988500Y-37181800D03*
X34988500Y-39881800D03*
X33561020Y-20130780D03*
X33561020Y-22830780D03*
X31013400Y-38014900D03*
X31013400Y-35314900D03*
X28295600Y-35276800D03*
X28295600Y-37976800D03*
X47141202Y-86754858D03*
X47141202Y-89454858D03*
D29*
X53158400Y-88950800D03*
X55858400Y-88950800D03*
D31*
X21899880Y-18864600D03*
X23169880Y-18864600D03*
X24439880Y-18864600D03*
X25709880Y-18864600D03*
X25709880Y-24264600D03*
X24439880Y-24264600D03*
X23169880Y-24264600D03*
X21899880Y-24264600D03*
X53608286Y-18862886D03*
X54878286Y-18862886D03*
X56148286Y-18862886D03*
X57418286Y-18862886D03*
X57418286Y-24262886D03*
X56148286Y-24262886D03*
X54878286Y-24262886D03*
X53608286Y-24262886D03*
D15*
X30904500Y-39992300D03*
X28404500Y-39992300D03*
X4106860Y-86354920D03*
X6606860Y-86354920D03*
D32*
X35560000Y-33258000D03*
X34610000Y-31258000D03*
X36510000Y-31258000D03*
D33*
X15106020Y-24582120D03*
X10106020Y-24582120D03*
X41548680Y-24434800D03*
X46548680Y-24434800D03*
D11*
X57556400Y-78190100D03*
X57556400Y-80890100D03*
X50977800Y-83814900D03*
X50977800Y-81114900D03*
D19*
X2969260Y-71471520D03*
X2969260Y-74771520D03*
X5445760Y-74771520D03*
X5445760Y-71471520D03*
D11*
X17348200Y-84039700D03*
X17348200Y-81339700D03*
X12750800Y-77085200D03*
X12750800Y-79785200D03*
X36360100Y-86363800D03*
X36360100Y-83663800D03*
D32*
X57680900Y-74336400D03*
X55780900Y-74336400D03*
X56730900Y-76336400D03*
X50192900Y-79050900D03*
X49242900Y-77050900D03*
X51142900Y-77050900D03*
X19111000Y-77409800D03*
X17211000Y-77409800D03*
X18161000Y-79409800D03*
X12954000Y-75333100D03*
X12004000Y-73333100D03*
X13904000Y-73333100D03*
D11*
X57569100Y-72406500D03*
X57569100Y-69706500D03*
X57518300Y-85754200D03*
X57518300Y-83054200D03*
X50977800Y-88827600D03*
X50977800Y-86127600D03*
D29*
X50956200Y-75298300D03*
X48256200Y-75298300D03*
D11*
X51054000Y-70544700D03*
X51054000Y-73244700D03*
X17386300Y-75378300D03*
X17386300Y-72678300D03*
D29*
X20069800Y-86423500D03*
X17369800Y-86423500D03*
D11*
X12750800Y-81949300D03*
X12750800Y-84649300D03*
D29*
X11489700Y-71602600D03*
X14189700Y-71602600D03*
X14189700Y-69646800D03*
X11489700Y-69646800D03*
D34*
X21018500Y-52427400D03*
X19748500Y-52427400D03*
X18478500Y-52427400D03*
X17208500Y-52427400D03*
X15938500Y-52427400D03*
X14668500Y-52427400D03*
X13398500Y-52427400D03*
X12128500Y-52427400D03*
X12128500Y-43127400D03*
X13398500Y-43127400D03*
X14668500Y-43127400D03*
X15938500Y-43127400D03*
X17208500Y-43127400D03*
X18478500Y-43127400D03*
X19748500Y-43127400D03*
X21018500Y-43127400D03*
X56756300Y-43013100D03*
X55486300Y-43013100D03*
X54216300Y-43013100D03*
X52946300Y-43013100D03*
X51676300Y-43013100D03*
X50406300Y-43013100D03*
X49136300Y-43013100D03*
X47866300Y-43013100D03*
X47866300Y-52313100D03*
X49136300Y-52313100D03*
X50406300Y-52313100D03*
X51676300Y-52313100D03*
X52946300Y-52313100D03*
X54216300Y-52313100D03*
X55486300Y-52313100D03*
X56756300Y-52313100D03*
D35*
X7744440Y-84267040D03*
X7744440Y-82997040D03*
X7744440Y-81727040D03*
X7744440Y-80457040D03*
X7744440Y-79187040D03*
X7744440Y-77917040D03*
X7744440Y-76647040D03*
X2344440Y-76647040D03*
X2344440Y-77917040D03*
X2344440Y-79187040D03*
X2344440Y-80457040D03*
X2344440Y-81727040D03*
X2344440Y-82997040D03*
X2344440Y-84267040D03*
D29*
X13813800Y-36207700D03*
X16513800Y-36207700D03*
X51311800Y-36283900D03*
X48611800Y-36283900D03*
D36*
X30000000Y-69604200D03*
D37*
X32280000Y-75904200D03*
X30000000Y-75904200D03*
X27720000Y-75904200D03*
D38*
X22500000Y-5830000D03*
X22500000Y-2170000D03*
X8500000Y-5830000D03*
X8500000Y-2170000D03*
X16500000Y-5830000D03*
X16500000Y-2170000D03*
X43500000Y-5830000D03*
X43500000Y-2170000D03*
X37500000Y-2170000D03*
X37500000Y-5830000D03*
D39*
X31902400Y-42302900D03*
X30632400Y-42302900D03*
X29362400Y-42302900D03*
X28092400Y-42302900D03*
X28092400Y-52997900D03*
X29362400Y-52997900D03*
X30632400Y-52997900D03*
X31902400Y-52997900D03*
D40*
X38887400Y-91478100D03*
X38887400Y-94018100D03*
X36347400Y-91478100D03*
X36347400Y-94018100D03*
X33807400Y-91478100D03*
X33807400Y-94018100D03*
X31267400Y-91478100D03*
X31267400Y-94018100D03*
X28727400Y-91478100D03*
X28727400Y-94018100D03*
X26187400Y-91478100D03*
X26187400Y-94018100D03*
X23647400Y-91478100D03*
X23647400Y-94018100D03*
X21107400Y-91478100D03*
D41*
X21107400Y-94018100D03*
D42*
X2149600Y-68364200D03*
X4149600Y-68364200D03*
X4149600Y-63614200D03*
X2149600Y-63614200D03*
X37862000Y-63157000D03*
X39862000Y-63157000D03*
X39862000Y-67907000D03*
X37862000Y-67907000D03*
D43*
X3098800Y-39725600D03*
X3098800Y-42265600D03*
X3098800Y-44805600D03*
X3098800Y-52425600D03*
D44*
X3098800Y-54965600D03*
X38785800Y-55003700D03*
D43*
X38785800Y-52463700D03*
X38785800Y-44843700D03*
X38785800Y-42303700D03*
X38785800Y-39763700D03*
M02*
