G04 #@! TF.GenerationSoftware,KiCad,Pcbnew,no-vcs-found-9413793~61~ubuntu17.10.1*
G04 #@! TF.CreationDate,2017-12-18T18:39:30-05:00*
G04 #@! TF.ProjectId,ENNOID Dual Gate Driver,454E4E4F4944204475616C2047617465,rev?*
G04 #@! TF.SameCoordinates,Original*
G04 #@! TF.FileFunction,Soldermask,Bot*
G04 #@! TF.FilePolarity,Negative*
%FSLAX46Y46*%
G04 Gerber Fmt 4.6, Leading zero omitted, Abs format (unit mm)*
G04 Created by KiCad (PCBNEW no-vcs-found-9413793~61~ubuntu17.10.1) date Mon Dec 18 18:39:30 2017*
%MOMM*%
%LPD*%
G01*
G04 APERTURE LIST*
%ADD10C,1.100000*%
%ADD11C,4.800000*%
%ADD12O,2.600000X2.600000*%
%ADD13R,2.600000X2.600000*%
%ADD14O,3.000000X2.400000*%
%ADD15R,3.000000X2.400000*%
%ADD16C,3.400000*%
%ADD17C,2.100000*%
%ADD18R,2.100000X2.100000*%
%ADD19O,1.900000X1.900000*%
%ADD20R,1.900000X1.900000*%
G04 APERTURE END LIST*
D10*
X31166726Y-2833274D03*
X30000000Y-2350000D03*
X28833274Y-2833274D03*
X28350000Y-4000000D03*
X28833274Y-5166726D03*
X30000000Y-5650000D03*
X31166726Y-5166726D03*
X31650000Y-4000000D03*
D11*
X30000000Y-4000000D03*
D10*
X6166726Y-91833274D03*
X5000000Y-91350000D03*
X3833274Y-91833274D03*
X3350000Y-93000000D03*
X3833274Y-94166726D03*
X5000000Y-94650000D03*
X6166726Y-94166726D03*
X6650000Y-93000000D03*
D11*
X5000000Y-93000000D03*
X55000000Y-93000000D03*
D10*
X56650000Y-93000000D03*
X56166726Y-94166726D03*
X55000000Y-94650000D03*
X53833274Y-94166726D03*
X53350000Y-93000000D03*
X53833274Y-91833274D03*
X55000000Y-91350000D03*
X56166726Y-91833274D03*
D12*
X2463800Y-23228300D03*
D13*
X2463800Y-10528300D03*
X30848360Y-10513060D03*
D12*
X30848360Y-23213060D03*
D14*
X11544300Y-95872300D03*
X11544300Y-93332300D03*
X11544300Y-90792300D03*
D15*
X11544300Y-88252300D03*
D14*
X48298100Y-93306900D03*
D15*
X48298100Y-95846900D03*
D16*
X22500000Y-5830000D03*
X22500000Y-2170000D03*
X8500000Y-5830000D03*
X8500000Y-2170000D03*
X16500000Y-5830000D03*
X16500000Y-2170000D03*
X43500000Y-5830000D03*
X43500000Y-2170000D03*
X37500000Y-2170000D03*
X37500000Y-5830000D03*
D17*
X38887400Y-91478100D03*
X38887400Y-94018100D03*
X36347400Y-91478100D03*
X36347400Y-94018100D03*
X33807400Y-91478100D03*
X33807400Y-94018100D03*
X31267400Y-91478100D03*
X31267400Y-94018100D03*
X28727400Y-91478100D03*
X28727400Y-94018100D03*
X26187400Y-91478100D03*
X26187400Y-94018100D03*
X23647400Y-91478100D03*
X23647400Y-94018100D03*
X21107400Y-91478100D03*
D18*
X21107400Y-94018100D03*
D19*
X3098800Y-39725600D03*
X3098800Y-42265600D03*
X3098800Y-44805600D03*
X3098800Y-52425600D03*
D20*
X3098800Y-54965600D03*
X38785800Y-55003700D03*
D19*
X38785800Y-52463700D03*
X38785800Y-44843700D03*
X38785800Y-42303700D03*
X38785800Y-39763700D03*
M02*
