G04 #@! TF.GenerationSoftware,KiCad,Pcbnew,no-vcs-found-9413793~61~ubuntu17.10.1*
G04 #@! TF.CreationDate,2017-12-18T18:39:30-05:00*
G04 #@! TF.ProjectId,ENNOID Dual Gate Driver,454E4E4F4944204475616C2047617465,rev?*
G04 #@! TF.SameCoordinates,Original*
G04 #@! TF.FileFunction,Copper,L2,Bot,Signal*
G04 #@! TF.FilePolarity,Positive*
%FSLAX46Y46*%
G04 Gerber Fmt 4.6, Leading zero omitted, Abs format (unit mm)*
G04 Created by KiCad (PCBNEW no-vcs-found-9413793~61~ubuntu17.10.1) date Mon Dec 18 18:39:30 2017*
%MOMM*%
%LPD*%
G01*
G04 APERTURE LIST*
%ADD10C,0.700000*%
%ADD11C,4.400000*%
%ADD12O,2.200000X2.200000*%
%ADD13R,2.200000X2.200000*%
%ADD14O,2.600000X2.000000*%
%ADD15R,2.600000X2.000000*%
%ADD16C,3.000000*%
%ADD17C,1.700000*%
%ADD18R,1.700000X1.700000*%
%ADD19O,1.500000X1.500000*%
%ADD20R,1.500000X1.500000*%
%ADD21C,0.800000*%
%ADD22C,0.250000*%
%ADD23C,1.000000*%
%ADD24C,2.000000*%
%ADD25C,3.000000*%
%ADD26C,0.254000*%
G04 APERTURE END LIST*
D10*
X31166726Y-2833274D03*
X30000000Y-2350000D03*
X28833274Y-2833274D03*
X28350000Y-4000000D03*
X28833274Y-5166726D03*
X30000000Y-5650000D03*
X31166726Y-5166726D03*
X31650000Y-4000000D03*
D11*
X30000000Y-4000000D03*
D10*
X6166726Y-91833274D03*
X5000000Y-91350000D03*
X3833274Y-91833274D03*
X3350000Y-93000000D03*
X3833274Y-94166726D03*
X5000000Y-94650000D03*
X6166726Y-94166726D03*
X6650000Y-93000000D03*
D11*
X5000000Y-93000000D03*
X55000000Y-93000000D03*
D10*
X56650000Y-93000000D03*
X56166726Y-94166726D03*
X55000000Y-94650000D03*
X53833274Y-94166726D03*
X53350000Y-93000000D03*
X53833274Y-91833274D03*
X55000000Y-91350000D03*
X56166726Y-91833274D03*
D12*
X2463800Y-23228300D03*
D13*
X2463800Y-10528300D03*
X30848360Y-10513060D03*
D12*
X30848360Y-23213060D03*
D14*
X11544300Y-95872300D03*
X11544300Y-93332300D03*
X11544300Y-90792300D03*
D15*
X11544300Y-88252300D03*
D14*
X48298100Y-93306900D03*
D15*
X48298100Y-95846900D03*
D16*
X22500000Y-5830000D03*
X22500000Y-2170000D03*
X8500000Y-5830000D03*
X8500000Y-2170000D03*
X16500000Y-5830000D03*
X16500000Y-2170000D03*
X43500000Y-5830000D03*
X43500000Y-2170000D03*
X37500000Y-2170000D03*
X37500000Y-5830000D03*
D17*
X38887400Y-91478100D03*
X38887400Y-94018100D03*
X36347400Y-91478100D03*
X36347400Y-94018100D03*
X33807400Y-91478100D03*
X33807400Y-94018100D03*
X31267400Y-91478100D03*
X31267400Y-94018100D03*
X28727400Y-91478100D03*
X28727400Y-94018100D03*
X26187400Y-91478100D03*
X26187400Y-94018100D03*
X23647400Y-91478100D03*
X23647400Y-94018100D03*
X21107400Y-91478100D03*
D18*
X21107400Y-94018100D03*
D19*
X3098800Y-39725600D03*
X3098800Y-42265600D03*
X3098800Y-44805600D03*
X3098800Y-52425600D03*
D20*
X3098800Y-54965600D03*
X38785800Y-55003700D03*
D19*
X38785800Y-52463700D03*
X38785800Y-44843700D03*
X38785800Y-42303700D03*
X38785800Y-39763700D03*
D21*
X32918400Y-88138000D03*
X48564800Y-71424800D03*
X44145200Y-71424800D03*
X7823200Y-40589202D03*
X41757600Y-38150800D03*
X16713200Y-14427200D03*
X14884400Y-14427200D03*
X15798800Y-14427200D03*
X12141200Y-14427200D03*
X13970000Y-14427200D03*
X13055600Y-14427200D03*
X10312400Y-14427200D03*
X11226800Y-14427200D03*
X9398000Y-14427200D03*
X8483600Y-14427200D03*
X7569200Y-14427200D03*
X42976800Y-80670400D03*
X33121600Y-78486000D03*
X32258000Y-78943200D03*
X36588700Y-77889100D03*
X32258002Y-77927200D03*
X34594800Y-77914500D03*
X47548800Y-14325600D03*
X46634400Y-14325600D03*
X45720000Y-14325600D03*
X44805600Y-14325600D03*
X43891200Y-14325600D03*
X42976800Y-14325600D03*
X42062400Y-14325600D03*
X41148000Y-14325600D03*
X40182800Y-14325600D03*
X39268400Y-14325600D03*
X38354000Y-14325600D03*
X36017200Y-11430000D03*
X36017200Y-10515600D03*
X36017200Y-9550400D03*
X36017200Y-8636000D03*
X42976800Y-81635600D03*
X42976800Y-82600800D03*
X42976800Y-84531200D03*
X42976800Y-83566000D03*
X33020000Y-35814000D03*
X19405600Y-13817600D03*
X19405600Y-12954000D03*
X18643600Y-14274800D03*
X18643600Y-13411200D03*
X18643600Y-12547600D03*
X16459200Y-39522400D03*
X20523200Y-19608800D03*
X20523200Y-17881600D03*
X50800000Y-13868400D03*
X50800000Y-12954000D03*
X49987200Y-14224000D03*
X49987200Y-13360400D03*
X49987200Y-12496800D03*
X51663600Y-19558000D03*
X51663596Y-17830800D03*
X51663600Y-25146000D03*
X51663600Y-23317200D03*
X38049200Y-34798000D03*
X38049200Y-33832800D03*
X38811200Y-33375600D03*
X38811200Y-34340800D03*
X38049200Y-32867600D03*
X42976800Y-28651200D03*
X42113200Y-28651200D03*
X41249600Y-28651200D03*
X40386000Y-28651200D03*
X39522400Y-28651200D03*
X20523200Y-23368000D03*
X10414000Y-28702000D03*
X20523200Y-25247600D03*
X5029200Y-33629600D03*
X4267200Y-34086800D03*
X4267200Y-32359600D03*
X5029200Y-32766000D03*
X4267200Y-33223200D03*
X11277600Y-28702000D03*
X9550400Y-28702000D03*
X8686800Y-28702000D03*
X20523200Y-24282400D03*
X20523200Y-18745200D03*
X7823200Y-28702000D03*
X10871200Y-38100000D03*
X14579600Y-27432000D03*
X32969200Y-44653200D03*
X43332400Y-40233600D03*
X50139600Y-34747200D03*
X51358800Y-39624000D03*
X51663596Y-18694400D03*
X51663600Y-24231600D03*
X46278800Y-27127200D03*
X46278800Y-38150800D03*
X4318000Y-30429200D03*
X19761200Y-41503600D03*
X31445200Y-83972400D03*
X38862000Y-85090000D03*
X34848800Y-85090000D03*
X45364400Y-86207600D03*
X35306000Y-29514800D03*
X55524400Y-41249600D03*
X34340800Y-33324800D03*
X35001200Y-41554400D03*
X14427696Y-83818114D03*
X15748000Y-72796400D03*
X40690800Y-75387200D03*
X49177940Y-67588157D03*
X26162000Y-82042002D03*
X27533600Y-81737200D03*
X23622000Y-81737200D03*
X24841200Y-81737200D03*
X863600Y-77927200D03*
X17221200Y-54000400D03*
X47879000Y-53822600D03*
X56730900Y-53822600D03*
X50431700Y-53822600D03*
X12065000Y-54063900D03*
X14681200Y-54114700D03*
X23977600Y-62280800D03*
X21894800Y-62230000D03*
X30886402Y-61518800D03*
X29006800Y-61518800D03*
X21805900Y-54978302D03*
X55683113Y-54330326D03*
X13919200Y-62839600D03*
X48340601Y-62064900D03*
X5384800Y-73101200D03*
X25666700Y-68834000D03*
X26403300Y-56718200D03*
X26390600Y-60452000D03*
X54216301Y-54368701D03*
X19306718Y-53950298D03*
X29387800Y-54940200D03*
X30607000Y-54927500D03*
X15240000Y-62788802D03*
X15786100Y-71170800D03*
X17983200Y-55212411D03*
X53104620Y-54833790D03*
X6096000Y-84277200D03*
X6096000Y-79209900D03*
X53296711Y-56308610D03*
X57594500Y-68021200D03*
X29870402Y-37998400D03*
X33528000Y-24587200D03*
X49728540Y-68422940D03*
X9283700Y-82994500D03*
X9499600Y-76403202D03*
X9906000Y-73761600D03*
X12496800Y-39116000D03*
X23164800Y-25908000D03*
X13411200Y-34798000D03*
X17576800Y-40284400D03*
X17221200Y-34798000D03*
X52984402Y-34696400D03*
X52984400Y-39979600D03*
X56286400Y-25908000D03*
X47752000Y-39420800D03*
X48158400Y-34747200D03*
X14173200Y-84785200D03*
X20091400Y-84861400D03*
X48971200Y-86258400D03*
X4318000Y-70154800D03*
X2489200Y-70154800D03*
X1574800Y-70154800D03*
X3403600Y-70154800D03*
X20574000Y-75234800D03*
X20574000Y-76149200D03*
X20574000Y-77063600D03*
X20574000Y-77978000D03*
X59309000Y-60807600D03*
X9118600Y-88442800D03*
X31851600Y-55410100D03*
X57277000Y-60769500D03*
X55346600Y-60794900D03*
X2667000Y-89687400D03*
X4140200Y-84251800D03*
X863600Y-84264500D03*
X55867300Y-87388700D03*
D22*
X32918400Y-88138000D02*
X32918400Y-89814298D01*
X32918400Y-89814298D02*
X32924801Y-89820699D01*
D23*
X14935200Y-41046400D02*
X8280398Y-41046400D01*
X16459200Y-39522400D02*
X14935200Y-41046400D01*
X8280398Y-41046400D02*
X7823200Y-40589202D01*
X46278800Y-38150800D02*
X41757600Y-38150800D01*
X6470791Y-32016306D02*
X4883685Y-30429200D01*
X4883685Y-30429200D02*
X4318000Y-30429200D01*
X6470791Y-41238661D02*
X6470791Y-32016306D01*
X18764391Y-42500409D02*
X7732539Y-42500409D01*
X19761200Y-41503600D02*
X18764391Y-42500409D01*
X7732539Y-42500409D02*
X6470791Y-41238661D01*
D24*
X16611600Y-17830800D02*
X16713200Y-17729200D01*
X14935200Y-17830800D02*
X16611600Y-17830800D01*
X16713200Y-17729200D02*
X16713200Y-14427200D01*
X10769600Y-17830800D02*
X12090400Y-17830800D01*
X9448800Y-17830800D02*
X10769600Y-17830800D01*
X11226800Y-14427200D02*
X11226800Y-17373600D01*
X11226800Y-17373600D02*
X10769600Y-17830800D01*
X13868400Y-17830800D02*
X14935200Y-17830800D01*
X12090400Y-17830800D02*
X13868400Y-17830800D01*
X13970000Y-14427200D02*
X13970000Y-17729200D01*
X13970000Y-17729200D02*
X13868400Y-17830800D01*
X14884400Y-17780000D02*
X14935200Y-17830800D01*
X14884400Y-14427200D02*
X14884400Y-17780000D01*
X12141200Y-17780000D02*
X12090400Y-17830800D01*
X12141200Y-14427200D02*
X12141200Y-17780000D01*
X7569200Y-17830800D02*
X9448800Y-17830800D01*
X9398000Y-14427200D02*
X9398000Y-17780000D01*
X9398000Y-17780000D02*
X9448800Y-17830800D01*
X16713200Y-14427200D02*
X7569200Y-14427200D01*
X7569200Y-14427200D02*
X7569200Y-17830800D01*
X42976800Y-81635600D02*
X42976800Y-80670400D01*
D23*
X46837600Y-37592000D02*
X46837600Y-27686000D01*
X46837600Y-27686000D02*
X46278800Y-27127200D01*
X46278800Y-38150800D02*
X46837600Y-37592000D01*
X35871685Y-29514800D02*
X35306000Y-29514800D01*
X38303200Y-29514800D02*
X35871685Y-29514800D01*
X40557591Y-39409862D02*
X40557591Y-31769191D01*
X40557591Y-31769191D02*
X38303200Y-29514800D01*
X55524400Y-41249600D02*
X54933989Y-41840011D01*
X54933989Y-41840011D02*
X42987740Y-41840011D01*
X42987740Y-41840011D02*
X40557591Y-39409862D01*
D24*
X47599600Y-17830800D02*
X38455600Y-17830800D01*
X47599600Y-16814800D02*
X47599600Y-17830800D01*
X38455600Y-17830800D02*
X38354000Y-17729200D01*
X38354000Y-17729200D02*
X38354000Y-14325600D01*
X38354000Y-16205200D02*
X38963600Y-16814800D01*
X38354000Y-14325600D02*
X38354000Y-16205200D01*
X38963600Y-16814800D02*
X40081200Y-16814800D01*
X38354000Y-14325600D02*
X38354000Y-16103600D01*
X38354000Y-16103600D02*
X38404800Y-16154400D01*
X39268400Y-14325600D02*
X39268400Y-16002000D01*
X39268400Y-16002000D02*
X40081200Y-16814800D01*
X40081200Y-16814800D02*
X41148000Y-16814800D01*
X40182800Y-14325600D02*
X40182800Y-16713200D01*
X40182800Y-16713200D02*
X40081200Y-16814800D01*
X42519600Y-16814800D02*
X43789600Y-16814800D01*
X41148000Y-16814800D02*
X42519600Y-16814800D01*
X42976800Y-16357600D02*
X42519600Y-16814800D01*
X42976800Y-14325600D02*
X42976800Y-16357600D01*
X41148000Y-14325600D02*
X41148000Y-16814800D01*
X43789600Y-16814800D02*
X45720000Y-16814800D01*
X43891200Y-16713200D02*
X43789600Y-16814800D01*
X43891200Y-14325600D02*
X43891200Y-16713200D01*
X45720000Y-16814800D02*
X47599600Y-16814800D01*
X45720000Y-14325600D02*
X45720000Y-16814800D01*
X47599600Y-16814800D02*
X47599600Y-14376400D01*
X47599600Y-14376400D02*
X47548800Y-14325600D01*
X38354000Y-14325600D02*
X43891200Y-14325600D01*
X44805600Y-14325600D02*
X43891200Y-14325600D01*
X45720000Y-14325600D02*
X44805600Y-14325600D01*
X46634400Y-14325600D02*
X45720000Y-14325600D01*
X47548800Y-14325600D02*
X46634400Y-14325600D01*
X43500000Y-7823200D02*
X43500000Y-5830000D01*
X41772800Y-9550400D02*
X43500000Y-7823200D01*
X43500000Y-9006800D02*
X43500000Y-7823200D01*
X36017200Y-9550400D02*
X41772800Y-9550400D01*
X36017200Y-11430000D02*
X36017200Y-8636000D01*
X41097200Y-11430000D02*
X43510200Y-9017000D01*
X36017200Y-11430000D02*
X41097200Y-11430000D01*
X43510200Y-9017000D02*
X43500000Y-9006800D01*
X36017200Y-8636000D02*
X40694000Y-8636000D01*
X40694000Y-8636000D02*
X43500000Y-5830000D01*
D22*
X32924801Y-89820699D02*
X32817401Y-89928099D01*
X42316400Y-85191600D02*
X42976800Y-84531200D01*
D24*
X42976800Y-84531200D02*
X42976800Y-88760300D01*
X42976800Y-88760300D02*
X45694600Y-91478100D01*
X42976800Y-81635600D02*
X42976800Y-84531200D01*
X45770800Y-91401900D02*
X45694600Y-91478100D01*
D25*
X22500000Y-2170000D02*
X22500000Y-5830000D01*
X37500000Y-2170000D02*
X37500000Y-5830000D01*
D23*
X20523200Y-23368000D02*
X20523200Y-25247600D01*
X20523200Y-19608800D02*
X20523200Y-17881600D01*
X20269200Y-17881600D02*
X18897600Y-19253200D01*
X20523200Y-17881600D02*
X20269200Y-17881600D01*
X18897600Y-19253200D02*
X18897600Y-24282400D01*
X18897600Y-24282400D02*
X14833600Y-24282400D01*
X20523200Y-24282400D02*
X18897600Y-24282400D01*
X19710400Y-23368000D02*
X14884400Y-23368000D01*
X20523200Y-23368000D02*
X19710400Y-23368000D01*
X20523200Y-18745200D02*
X19710400Y-19558000D01*
X19710400Y-19558000D02*
X19710400Y-23368000D01*
X20523200Y-19608800D02*
X20523200Y-23368000D01*
X19761200Y-23520400D02*
X20523200Y-24282400D01*
X51663600Y-25146000D02*
X51663600Y-23317200D01*
X51663600Y-19558000D02*
X51663600Y-17830804D01*
X51663600Y-17830804D02*
X51663596Y-17830800D01*
X50495200Y-18999196D02*
X50495200Y-23977600D01*
X50495200Y-23977600D02*
X51663600Y-25146000D01*
X51663596Y-17830800D02*
X50495200Y-18999196D01*
X50850800Y-19507196D02*
X50850800Y-23418800D01*
X50850800Y-23418800D02*
X51663600Y-24231600D01*
X51663596Y-18694400D02*
X50850800Y-19507196D01*
X51663600Y-19558000D02*
X51663600Y-23317200D01*
X39522400Y-28651200D02*
X42976800Y-28651200D01*
X51663600Y-23317200D02*
X44856400Y-23317200D01*
X44856400Y-23317200D02*
X39522400Y-28651200D01*
X51663600Y-23317200D02*
X45720000Y-23317200D01*
X45720000Y-23317200D02*
X40386000Y-28651200D01*
X46482000Y-25146000D02*
X51097915Y-25146000D01*
X51097915Y-25146000D02*
X51663600Y-25146000D01*
X42976800Y-28651200D02*
X46482000Y-25146000D01*
X51663600Y-23317200D02*
X46583600Y-23317200D01*
X46583600Y-23317200D02*
X41249600Y-28651200D01*
X51663600Y-24231600D02*
X46532800Y-24231600D01*
X46532800Y-24231600D02*
X42113200Y-28651200D01*
D24*
X38811200Y-34340800D02*
X38811200Y-39738300D01*
X38811200Y-39738300D02*
X38785800Y-39763700D01*
X38049200Y-32867600D02*
X38303200Y-32867600D01*
X38303200Y-32867600D02*
X38811200Y-33375600D01*
X38811200Y-34340800D02*
X38811200Y-33375600D01*
X38049200Y-34798000D02*
X38354000Y-34798000D01*
X38354000Y-34798000D02*
X38811200Y-34340800D01*
X38049200Y-33832800D02*
X38049200Y-34798000D01*
X38049200Y-32867600D02*
X38049200Y-33832800D01*
X38785800Y-39763700D02*
X38785800Y-35534600D01*
X38785800Y-35534600D02*
X38049200Y-34798000D01*
D23*
X7823200Y-28702000D02*
X9550400Y-28702000D01*
X20523200Y-24282400D02*
X13106400Y-24282400D01*
X13106400Y-24282400D02*
X8686800Y-28702000D01*
X20523200Y-23368000D02*
X13157200Y-23368000D01*
X13157200Y-23368000D02*
X7823200Y-28702000D01*
X9550400Y-28702000D02*
X11277600Y-28702000D01*
X14884400Y-23368000D02*
X9550400Y-28702000D01*
X14833600Y-24282400D02*
X10414000Y-28702000D01*
X20523200Y-25247600D02*
X14732000Y-25247600D01*
X14732000Y-25247600D02*
X11277600Y-28702000D01*
D24*
X3098800Y-39674800D02*
X3098800Y-35255200D01*
X3098800Y-35255200D02*
X4267200Y-34086800D01*
D23*
X5029200Y-33629600D02*
X5029200Y-37744400D01*
X5029200Y-37744400D02*
X3098800Y-39674800D01*
X4267200Y-34086800D02*
X4267200Y-38506400D01*
X4267200Y-38506400D02*
X3098800Y-39674800D01*
X5029200Y-33629600D02*
X4724400Y-33629600D01*
X4724400Y-33629600D02*
X4267200Y-34086800D01*
X4267200Y-33223200D02*
X4267200Y-34086800D01*
X4267200Y-32359600D02*
X4267200Y-33223200D01*
X5029200Y-32766000D02*
X5029200Y-33629600D01*
X4267200Y-32359600D02*
X4622800Y-32359600D01*
X4622800Y-32359600D02*
X5029200Y-32766000D01*
X10871200Y-37534315D02*
X10871200Y-38100000D01*
X10871200Y-31140400D02*
X10871200Y-37534315D01*
X14579600Y-27432000D02*
X10871200Y-31140400D01*
X33020000Y-44602400D02*
X32969200Y-44653200D01*
X33020000Y-35814000D02*
X33020000Y-44602400D01*
X51358800Y-39624000D02*
X50349201Y-40633599D01*
X50349201Y-40633599D02*
X43732399Y-40633599D01*
X43732399Y-40633599D02*
X43332400Y-40233600D01*
X51358800Y-35966400D02*
X50139600Y-34747200D01*
X51358800Y-39624000D02*
X51358800Y-35966400D01*
D22*
X31445200Y-83972400D02*
X30879515Y-83972400D01*
X30879515Y-83972400D02*
X30714415Y-83807300D01*
X30714415Y-83807300D02*
X14438510Y-83807300D01*
X14438510Y-83807300D02*
X14427696Y-83818114D01*
X34848800Y-85090000D02*
X38862000Y-85090000D01*
X45364400Y-86207600D02*
X48920400Y-86207600D01*
D25*
X16500000Y-2170000D02*
X16500000Y-5830000D01*
X43500000Y-2170000D02*
X43500000Y-5830000D01*
D23*
X35001200Y-41554400D02*
X34340800Y-40894000D01*
X34340800Y-40894000D02*
X34340800Y-33324800D01*
D22*
X13919200Y-62839600D02*
X13919200Y-70967600D01*
X15348001Y-72396401D02*
X15748000Y-72796400D01*
X13919200Y-70967600D02*
X15348001Y-72396401D01*
X48340601Y-68346999D02*
X41300400Y-75387200D01*
X41300400Y-75387200D02*
X41046400Y-75387200D01*
X48340601Y-62064900D02*
X48340601Y-68346999D01*
X41046400Y-75387200D02*
X40690800Y-75387200D01*
D25*
X8500000Y-2170000D02*
X8500000Y-5830000D01*
D22*
X26612797Y-82492799D02*
X34925588Y-82492799D01*
X34925588Y-82492799D02*
X48797330Y-68621057D01*
X26162000Y-82042002D02*
X26612797Y-82492799D01*
X48797330Y-68621057D02*
X48797330Y-67968767D01*
X48797330Y-67968767D02*
X49177940Y-67588157D01*
X26162000Y-69329300D02*
X26066699Y-69233999D01*
X26162000Y-82042002D02*
X26162000Y-69329300D01*
X26066699Y-69233999D02*
X25666700Y-68834000D01*
X5384800Y-73666885D02*
X14210714Y-82492799D01*
X25711203Y-82492799D02*
X25762001Y-82442001D01*
X25762001Y-82442001D02*
X26162000Y-82042002D01*
X14210714Y-82492799D02*
X25711203Y-82492799D01*
X5384800Y-73101200D02*
X5384800Y-73666885D01*
X35458400Y-56896000D02*
X31292800Y-52730400D01*
X31292800Y-52730400D02*
X27571700Y-52730400D01*
X49987200Y-56896000D02*
X35458400Y-56896000D01*
X51442606Y-55440594D02*
X49987200Y-56896000D01*
X51442606Y-55422800D02*
X51442606Y-55440594D01*
X26390600Y-60452000D02*
X27533600Y-61595000D01*
X27533600Y-81171515D02*
X27533600Y-81737200D01*
X27533600Y-61595000D02*
X27533600Y-81171515D01*
X23222001Y-81337201D02*
X23622000Y-81737200D01*
X23222001Y-61105999D02*
X23222001Y-81337201D01*
X29387800Y-54940200D02*
X23222001Y-61105999D01*
X24841200Y-60693300D02*
X24841200Y-81171515D01*
X24841200Y-81171515D02*
X24841200Y-81737200D01*
X30607000Y-54927500D02*
X24841200Y-60693300D01*
X463601Y-77527201D02*
X463601Y-61461599D01*
X863600Y-77927200D02*
X463601Y-77527201D01*
X463601Y-61461599D02*
X9042400Y-52882800D01*
X9042400Y-52882800D02*
X16103600Y-52882800D01*
X16103600Y-52882800D02*
X16821201Y-53600401D01*
X16821201Y-53600401D02*
X17221200Y-54000400D01*
D24*
X45720000Y-91503500D02*
X46494700Y-91503500D01*
X46494700Y-91503500D02*
X48298100Y-93306900D01*
X38887400Y-91478100D02*
X45694600Y-91478100D01*
X45694600Y-91478100D02*
X45720000Y-91503500D01*
D23*
X50431700Y-53822600D02*
X47879000Y-53822600D01*
D22*
X50831699Y-53422601D02*
X56330901Y-53422601D01*
X50431700Y-53822600D02*
X50831699Y-53422601D01*
X56330901Y-53422601D02*
X56730900Y-53822600D01*
D24*
X36347400Y-91478100D02*
X38887400Y-91478100D01*
D23*
X31267400Y-91478100D02*
X32817401Y-89928099D01*
X34797399Y-89928099D02*
X35497401Y-90628101D01*
X32817401Y-89928099D02*
X34797399Y-89928099D01*
X35497401Y-90628101D02*
X36347400Y-91478100D01*
X14681200Y-54114700D02*
X12115800Y-54114700D01*
X12115800Y-54114700D02*
X12065000Y-54063900D01*
D22*
X52896704Y-53968702D02*
X53816302Y-53968702D01*
X26390600Y-53911500D02*
X27571700Y-52730400D01*
X51442606Y-55422800D02*
X52896704Y-53968702D01*
X53816302Y-53968702D02*
X54216301Y-54368701D01*
X25260300Y-52781200D02*
X20475816Y-52781200D01*
X26390600Y-53911500D02*
X25260300Y-52781200D01*
X20475816Y-52781200D02*
X19306718Y-53950298D01*
X26403300Y-56718200D02*
X26403300Y-53924200D01*
X26403300Y-53924200D02*
X26390600Y-53911500D01*
X15786100Y-71170800D02*
X15240000Y-70624700D01*
X15240000Y-70624700D02*
X15240000Y-63354487D01*
X15240000Y-63354487D02*
X15240000Y-62788802D01*
X17983200Y-55212411D02*
X15240000Y-57955611D01*
X15240000Y-62223117D02*
X15240000Y-62788802D01*
X15240000Y-57955611D02*
X15240000Y-62223117D01*
X49746791Y-69430009D02*
X51829801Y-67346999D01*
X6096000Y-84277200D02*
X6661685Y-84277200D01*
X33234799Y-85586401D02*
X49391191Y-69430009D01*
X49391191Y-69430009D02*
X49746791Y-69430009D01*
X7970886Y-85586401D02*
X33234799Y-85586401D01*
X6661685Y-84277200D02*
X7970886Y-85586401D01*
X51829801Y-67346999D02*
X51829801Y-66202589D01*
X51829801Y-66202589D02*
X51866800Y-66165590D01*
X51866800Y-66165590D02*
X51866800Y-56071610D01*
X51866800Y-56071610D02*
X53104620Y-54833790D01*
X6096000Y-79209900D02*
X6096000Y-84277200D01*
X53296711Y-56874295D02*
X53296711Y-56308610D01*
X57594500Y-68021200D02*
X53296711Y-63723411D01*
X53296711Y-63723411D02*
X53296711Y-56874295D01*
D23*
X29870402Y-28244798D02*
X29870402Y-37432715D01*
X29870402Y-37432715D02*
X29870402Y-37998400D01*
X33528000Y-24587200D02*
X29870402Y-28244798D01*
D22*
X9283700Y-82994500D02*
X35156980Y-82994500D01*
X49328541Y-68822939D02*
X49728540Y-68422940D01*
X35156980Y-82994500D02*
X49328541Y-68822939D01*
X9499600Y-74168000D02*
X9499600Y-75837517D01*
X9499600Y-75837517D02*
X9499600Y-76403202D01*
X9906000Y-73761600D02*
X9499600Y-74168000D01*
D23*
X22301200Y-25908000D02*
X23164800Y-25908000D01*
X13411200Y-34798000D02*
X22301200Y-25908000D01*
X13411200Y-34798000D02*
X13411200Y-38201600D01*
X12896799Y-38716001D02*
X12496800Y-39116000D01*
X13411200Y-38201600D02*
X12896799Y-38716001D01*
X17976799Y-39884401D02*
X17576800Y-40284400D01*
X17221200Y-34798000D02*
X17976799Y-35553599D01*
X17976799Y-35553599D02*
X17976799Y-39884401D01*
X52984400Y-34696402D02*
X52984402Y-34696400D01*
X52984400Y-39979600D02*
X52984400Y-34696402D01*
X48158400Y-34036000D02*
X55886401Y-26307999D01*
X48158400Y-34747200D02*
X48158400Y-34036000D01*
X55886401Y-26307999D02*
X56286400Y-25908000D01*
X48158400Y-39014400D02*
X47752000Y-39420800D01*
X48158400Y-34747200D02*
X48158400Y-39014400D01*
D22*
X20091400Y-84861400D02*
X14249400Y-84861400D01*
X14249400Y-84861400D02*
X14173200Y-84785200D01*
X48920400Y-86207600D02*
X48971200Y-86258400D01*
D23*
X20574000Y-77063600D02*
X15036800Y-77063600D01*
X15036800Y-77063600D02*
X9956800Y-71983600D01*
X9956800Y-71983600D02*
X9398000Y-71424800D01*
X2997200Y-71577200D02*
X9550400Y-71577200D01*
X9550400Y-71577200D02*
X9956800Y-71983600D01*
X1574800Y-70154800D02*
X2997200Y-71577200D01*
X8839200Y-71424800D02*
X4673600Y-71424800D01*
X9398000Y-71424800D02*
X8839200Y-71424800D01*
X2489200Y-70154800D02*
X3759200Y-71424800D01*
X3759200Y-71424800D02*
X8839200Y-71424800D01*
X4673600Y-71424800D02*
X3403600Y-70154800D01*
X4318000Y-70720485D02*
X4565115Y-70967600D01*
X15240000Y-76149200D02*
X20574000Y-76149200D01*
X4318000Y-70154800D02*
X4318000Y-70720485D01*
X4565115Y-70967600D02*
X10058400Y-70967600D01*
X10058400Y-70967600D02*
X15240000Y-76149200D01*
X2489200Y-70154800D02*
X4318000Y-70154800D01*
X2489200Y-70154800D02*
X1574800Y-70154800D01*
X15494000Y-75234800D02*
X10414000Y-70154800D01*
X10414000Y-70154800D02*
X4318000Y-70154800D01*
X20574000Y-75234800D02*
X15494000Y-75234800D01*
X20574000Y-77978000D02*
X20574000Y-75234800D01*
D26*
G36*
X59265000Y-92927610D02*
X58927043Y-94626634D01*
X58005629Y-96005629D01*
X56626634Y-96927043D01*
X54927610Y-97265000D01*
X50082442Y-97265000D01*
X50196257Y-97094665D01*
X50245540Y-96846900D01*
X50245540Y-94846900D01*
X50196257Y-94599135D01*
X50055909Y-94389091D01*
X49907698Y-94290059D01*
X50146552Y-93932587D01*
X50220377Y-93561442D01*
X52164509Y-93561442D01*
X52595202Y-94603801D01*
X53392005Y-95401995D01*
X54433610Y-95834507D01*
X55561442Y-95835491D01*
X56603801Y-95404798D01*
X57401995Y-94607995D01*
X57834507Y-93566390D01*
X57835491Y-92438558D01*
X57404798Y-91396199D01*
X56607995Y-90598005D01*
X55566390Y-90165493D01*
X54438558Y-90164509D01*
X53396199Y-90595202D01*
X52598005Y-91392005D01*
X52165493Y-92433610D01*
X52164509Y-93561442D01*
X50220377Y-93561442D01*
X50271009Y-93306900D01*
X50146552Y-92681213D01*
X49792129Y-92150780D01*
X49261696Y-91796357D01*
X49059596Y-91756157D01*
X47650820Y-90347380D01*
X47120388Y-89992957D01*
X46494700Y-89868499D01*
X46494695Y-89868500D01*
X46397239Y-89868500D01*
X44611800Y-88083060D01*
X44611800Y-86918676D01*
X44777354Y-87084519D01*
X45157623Y-87242420D01*
X45569371Y-87242779D01*
X45949915Y-87085542D01*
X46068063Y-86967600D01*
X48216727Y-86967600D01*
X48384154Y-87135319D01*
X48764423Y-87293220D01*
X49176171Y-87293579D01*
X49556715Y-87136342D01*
X49848119Y-86845446D01*
X50006020Y-86465177D01*
X50006379Y-86053429D01*
X49849142Y-85672885D01*
X49558246Y-85381481D01*
X49177977Y-85223580D01*
X48766229Y-85223221D01*
X48385685Y-85380458D01*
X48318426Y-85447600D01*
X46068161Y-85447600D01*
X45951446Y-85330681D01*
X45571177Y-85172780D01*
X45159429Y-85172421D01*
X44778885Y-85329658D01*
X44611800Y-85496452D01*
X44611800Y-80670400D01*
X44487343Y-80044713D01*
X44132920Y-79514280D01*
X43602487Y-79159857D01*
X42976800Y-79035400D01*
X42351113Y-79159857D01*
X41820680Y-79514280D01*
X41466257Y-80044713D01*
X41341800Y-80670400D01*
X41341800Y-88760295D01*
X41341799Y-88760300D01*
X41466257Y-89385988D01*
X41771689Y-89843100D01*
X36347400Y-89843100D01*
X36322487Y-89848055D01*
X35599965Y-89125533D01*
X35493354Y-89054298D01*
X35231745Y-88879496D01*
X34797399Y-88793099D01*
X33727147Y-88793099D01*
X33795319Y-88725046D01*
X33953220Y-88344777D01*
X33953579Y-87933029D01*
X33796342Y-87552485D01*
X33505446Y-87261081D01*
X33125177Y-87103180D01*
X32713429Y-87102821D01*
X32332885Y-87260058D01*
X32041481Y-87550954D01*
X31883580Y-87931223D01*
X31883221Y-88342971D01*
X32040458Y-88723515D01*
X32158400Y-88841663D01*
X32158400Y-89029605D01*
X32014834Y-89125533D01*
X31147373Y-89992995D01*
X30973311Y-89992843D01*
X30427314Y-90218444D01*
X30009212Y-90635817D01*
X29997652Y-90663657D01*
X29987056Y-90638014D01*
X29569683Y-90219912D01*
X29024081Y-89993358D01*
X28433311Y-89992843D01*
X27887314Y-90218444D01*
X27469212Y-90635817D01*
X27457652Y-90663657D01*
X27447056Y-90638014D01*
X27029683Y-90219912D01*
X26484081Y-89993358D01*
X25893311Y-89992843D01*
X25347314Y-90218444D01*
X24929212Y-90635817D01*
X24917652Y-90663657D01*
X24907056Y-90638014D01*
X24489683Y-90219912D01*
X23944081Y-89993358D01*
X23353311Y-89992843D01*
X22807314Y-90218444D01*
X22389212Y-90635817D01*
X22377652Y-90663657D01*
X22367056Y-90638014D01*
X21949683Y-90219912D01*
X21404081Y-89993358D01*
X20813311Y-89992843D01*
X20267314Y-90218444D01*
X19849212Y-90635817D01*
X19622658Y-91181419D01*
X19622143Y-91772189D01*
X19847744Y-92318186D01*
X20084247Y-92555102D01*
X20009635Y-92569943D01*
X19799591Y-92710291D01*
X19659243Y-92920335D01*
X19609960Y-93168100D01*
X19609960Y-94868100D01*
X19659243Y-95115865D01*
X19799591Y-95325909D01*
X20009635Y-95466257D01*
X20257400Y-95515540D01*
X21957400Y-95515540D01*
X22205165Y-95466257D01*
X22415209Y-95325909D01*
X22555557Y-95115865D01*
X22570414Y-95041175D01*
X22805117Y-95276288D01*
X23350719Y-95502842D01*
X23941489Y-95503357D01*
X24487486Y-95277756D01*
X24905588Y-94860383D01*
X24917148Y-94832543D01*
X24927744Y-94858186D01*
X25345117Y-95276288D01*
X25890719Y-95502842D01*
X26481489Y-95503357D01*
X27027486Y-95277756D01*
X27445588Y-94860383D01*
X27457148Y-94832543D01*
X27467744Y-94858186D01*
X27885117Y-95276288D01*
X28430719Y-95502842D01*
X29021489Y-95503357D01*
X29567486Y-95277756D01*
X29985588Y-94860383D01*
X29997148Y-94832543D01*
X30007744Y-94858186D01*
X30425117Y-95276288D01*
X30970719Y-95502842D01*
X31561489Y-95503357D01*
X32107486Y-95277756D01*
X32525588Y-94860383D01*
X32537148Y-94832543D01*
X32547744Y-94858186D01*
X32965117Y-95276288D01*
X33510719Y-95502842D01*
X34101489Y-95503357D01*
X34647486Y-95277756D01*
X35065588Y-94860383D01*
X35077148Y-94832543D01*
X35087744Y-94858186D01*
X35505117Y-95276288D01*
X36050719Y-95502842D01*
X36641489Y-95503357D01*
X37187486Y-95277756D01*
X37605588Y-94860383D01*
X37617148Y-94832543D01*
X37627744Y-94858186D01*
X38045117Y-95276288D01*
X38590719Y-95502842D01*
X39181489Y-95503357D01*
X39727486Y-95277756D01*
X40145588Y-94860383D01*
X40372142Y-94314781D01*
X40372657Y-93724011D01*
X40147056Y-93178014D01*
X40082255Y-93113100D01*
X45592301Y-93113100D01*
X45720000Y-93138501D01*
X45720005Y-93138500D01*
X45817460Y-93138500D01*
X46409448Y-93730487D01*
X46449648Y-93932587D01*
X46688502Y-94290059D01*
X46540291Y-94389091D01*
X46399943Y-94599135D01*
X46350660Y-94846900D01*
X46350660Y-96846900D01*
X46399943Y-97094665D01*
X46513758Y-97265000D01*
X12684261Y-97265000D01*
X13038329Y-97028420D01*
X13392752Y-96497987D01*
X13517209Y-95872300D01*
X13392752Y-95246613D01*
X13038329Y-94716180D01*
X12867895Y-94602300D01*
X13038329Y-94488420D01*
X13392752Y-93957987D01*
X13517209Y-93332300D01*
X13392752Y-92706613D01*
X13038329Y-92176180D01*
X12867895Y-92062300D01*
X13038329Y-91948420D01*
X13392752Y-91417987D01*
X13517209Y-90792300D01*
X13392752Y-90166613D01*
X13038329Y-89636180D01*
X12507896Y-89281757D01*
X11882209Y-89157300D01*
X11206391Y-89157300D01*
X10580704Y-89281757D01*
X10050271Y-89636180D01*
X9695848Y-90166613D01*
X9571391Y-90792300D01*
X9695848Y-91417987D01*
X10050271Y-91948420D01*
X10220705Y-92062300D01*
X10050271Y-92176180D01*
X9695848Y-92706613D01*
X9571391Y-93332300D01*
X9695848Y-93957987D01*
X10050271Y-94488420D01*
X10220705Y-94602300D01*
X10050271Y-94716180D01*
X9695848Y-95246613D01*
X9571391Y-95872300D01*
X9695848Y-96497987D01*
X10050271Y-97028420D01*
X10404339Y-97265000D01*
X5072390Y-97265000D01*
X3373366Y-96927043D01*
X1994371Y-96005629D01*
X1072957Y-94626634D01*
X861078Y-93561442D01*
X2164509Y-93561442D01*
X2595202Y-94603801D01*
X3392005Y-95401995D01*
X4433610Y-95834507D01*
X5561442Y-95835491D01*
X6603801Y-95404798D01*
X7401995Y-94607995D01*
X7834507Y-93566390D01*
X7835491Y-92438558D01*
X7404798Y-91396199D01*
X6607995Y-90598005D01*
X5566390Y-90165493D01*
X4438558Y-90164509D01*
X3396199Y-90595202D01*
X2598005Y-91392005D01*
X2165493Y-92433610D01*
X2164509Y-93561442D01*
X861078Y-93561442D01*
X735000Y-92927610D01*
X735000Y-78962088D01*
X1068571Y-78962379D01*
X1449115Y-78805142D01*
X1740519Y-78514246D01*
X1898420Y-78133977D01*
X1898779Y-77722229D01*
X1741542Y-77341685D01*
X1450646Y-77050281D01*
X1223601Y-76956004D01*
X1223601Y-71408733D01*
X2194634Y-72379766D01*
X2562854Y-72625803D01*
X2997200Y-72712200D01*
X4425645Y-72712200D01*
X4349980Y-72894423D01*
X4349621Y-73306171D01*
X4506858Y-73686715D01*
X4659076Y-73839198D01*
X4682652Y-73957724D01*
X4847399Y-74204286D01*
X12877613Y-82234500D01*
X9987461Y-82234500D01*
X9870746Y-82117581D01*
X9490477Y-81959680D01*
X9078729Y-81959321D01*
X8698185Y-82116558D01*
X8406781Y-82407454D01*
X8248880Y-82787723D01*
X8248521Y-83199471D01*
X8405758Y-83580015D01*
X8696654Y-83871419D01*
X9076923Y-84029320D01*
X9488671Y-84029679D01*
X9869215Y-83872442D01*
X9987363Y-83754500D01*
X13392751Y-83754500D01*
X13392517Y-84023085D01*
X13415627Y-84079016D01*
X13296281Y-84198154D01*
X13138380Y-84578423D01*
X13138164Y-84826401D01*
X8285688Y-84826401D01*
X7199086Y-83739799D01*
X6952524Y-83575052D01*
X6856000Y-83555852D01*
X6856000Y-79913661D01*
X6972919Y-79796946D01*
X7130820Y-79416677D01*
X7131179Y-79004929D01*
X6973942Y-78624385D01*
X6683046Y-78332981D01*
X6302777Y-78175080D01*
X5891029Y-78174721D01*
X5510485Y-78331958D01*
X5219081Y-78622854D01*
X5061180Y-79003123D01*
X5060821Y-79414871D01*
X5218058Y-79795415D01*
X5336000Y-79913563D01*
X5336000Y-83573439D01*
X5219081Y-83690154D01*
X5061180Y-84070423D01*
X5060821Y-84482171D01*
X5218058Y-84862715D01*
X5508954Y-85154119D01*
X5889223Y-85312020D01*
X6300971Y-85312379D01*
X6528181Y-85218498D01*
X7433485Y-86123802D01*
X7680047Y-86288549D01*
X7970886Y-86346401D01*
X33234799Y-86346401D01*
X33525638Y-86288549D01*
X33772200Y-86123802D01*
X34095564Y-85800438D01*
X34261754Y-85966919D01*
X34642023Y-86124820D01*
X35053771Y-86125179D01*
X35434315Y-85967942D01*
X35552463Y-85850000D01*
X38158239Y-85850000D01*
X38274954Y-85966919D01*
X38655223Y-86124820D01*
X39066971Y-86125179D01*
X39447515Y-85967942D01*
X39738919Y-85677046D01*
X39896820Y-85296777D01*
X39897179Y-84885029D01*
X39739942Y-84504485D01*
X39449046Y-84213081D01*
X39068777Y-84055180D01*
X38657029Y-84054821D01*
X38276485Y-84212058D01*
X38158337Y-84330000D01*
X35566002Y-84330000D01*
X49705993Y-70190009D01*
X49746791Y-70190009D01*
X50037630Y-70132157D01*
X50284192Y-69967410D01*
X52367202Y-67884400D01*
X52531949Y-67637838D01*
X52589801Y-67346999D01*
X52589801Y-66351595D01*
X52626800Y-66165590D01*
X52626800Y-64062496D01*
X52759310Y-64260812D01*
X56559465Y-68060968D01*
X56559321Y-68226171D01*
X56716558Y-68606715D01*
X57007454Y-68898119D01*
X57387723Y-69056020D01*
X57799471Y-69056379D01*
X58180015Y-68899142D01*
X58471419Y-68608246D01*
X58629320Y-68227977D01*
X58629679Y-67816229D01*
X58472442Y-67435685D01*
X58181546Y-67144281D01*
X57801277Y-66986380D01*
X57634337Y-66986234D01*
X54056711Y-63408609D01*
X54056711Y-57012371D01*
X54173630Y-56895656D01*
X54331531Y-56515387D01*
X54331890Y-56103639D01*
X54174653Y-55723095D01*
X53927135Y-55475145D01*
X53981539Y-55420836D01*
X53991787Y-55396156D01*
X54009524Y-55403521D01*
X54421272Y-55403880D01*
X54801816Y-55246643D01*
X55093220Y-54955747D01*
X55251121Y-54575478D01*
X55251464Y-54182601D01*
X55759778Y-54182601D01*
X55852958Y-54408115D01*
X56143854Y-54699519D01*
X56524123Y-54857420D01*
X56935871Y-54857779D01*
X57316415Y-54700542D01*
X57607819Y-54409646D01*
X57765720Y-54029377D01*
X57766079Y-53617629D01*
X57608842Y-53237085D01*
X57317946Y-52945681D01*
X56937677Y-52787780D01*
X56722221Y-52787592D01*
X56621740Y-52720453D01*
X56330901Y-52662601D01*
X50831699Y-52662601D01*
X50568861Y-52714883D01*
X50431700Y-52687600D01*
X47879000Y-52687600D01*
X47444654Y-52773997D01*
X47076434Y-53020034D01*
X46830397Y-53388254D01*
X46744000Y-53822600D01*
X46830397Y-54256946D01*
X47076434Y-54625166D01*
X47444654Y-54871203D01*
X47879000Y-54957600D01*
X50431700Y-54957600D01*
X50866046Y-54871203D01*
X51026841Y-54763763D01*
X50905205Y-54885399D01*
X50869374Y-54939024D01*
X49672398Y-56136000D01*
X40044063Y-56136000D01*
X40133957Y-56001465D01*
X40183240Y-55753700D01*
X40183240Y-54253700D01*
X40133957Y-54005935D01*
X39993609Y-53795891D01*
X39783565Y-53655543D01*
X39545206Y-53608131D01*
X39792277Y-53443043D01*
X40092507Y-52993717D01*
X40197934Y-52463700D01*
X40092507Y-51933683D01*
X39792277Y-51484357D01*
X39342951Y-51184127D01*
X39071842Y-51130200D01*
X59265000Y-51130200D01*
X59265000Y-92927610D01*
X59265000Y-92927610D01*
G37*
X59265000Y-92927610D02*
X58927043Y-94626634D01*
X58005629Y-96005629D01*
X56626634Y-96927043D01*
X54927610Y-97265000D01*
X50082442Y-97265000D01*
X50196257Y-97094665D01*
X50245540Y-96846900D01*
X50245540Y-94846900D01*
X50196257Y-94599135D01*
X50055909Y-94389091D01*
X49907698Y-94290059D01*
X50146552Y-93932587D01*
X50220377Y-93561442D01*
X52164509Y-93561442D01*
X52595202Y-94603801D01*
X53392005Y-95401995D01*
X54433610Y-95834507D01*
X55561442Y-95835491D01*
X56603801Y-95404798D01*
X57401995Y-94607995D01*
X57834507Y-93566390D01*
X57835491Y-92438558D01*
X57404798Y-91396199D01*
X56607995Y-90598005D01*
X55566390Y-90165493D01*
X54438558Y-90164509D01*
X53396199Y-90595202D01*
X52598005Y-91392005D01*
X52165493Y-92433610D01*
X52164509Y-93561442D01*
X50220377Y-93561442D01*
X50271009Y-93306900D01*
X50146552Y-92681213D01*
X49792129Y-92150780D01*
X49261696Y-91796357D01*
X49059596Y-91756157D01*
X47650820Y-90347380D01*
X47120388Y-89992957D01*
X46494700Y-89868499D01*
X46494695Y-89868500D01*
X46397239Y-89868500D01*
X44611800Y-88083060D01*
X44611800Y-86918676D01*
X44777354Y-87084519D01*
X45157623Y-87242420D01*
X45569371Y-87242779D01*
X45949915Y-87085542D01*
X46068063Y-86967600D01*
X48216727Y-86967600D01*
X48384154Y-87135319D01*
X48764423Y-87293220D01*
X49176171Y-87293579D01*
X49556715Y-87136342D01*
X49848119Y-86845446D01*
X50006020Y-86465177D01*
X50006379Y-86053429D01*
X49849142Y-85672885D01*
X49558246Y-85381481D01*
X49177977Y-85223580D01*
X48766229Y-85223221D01*
X48385685Y-85380458D01*
X48318426Y-85447600D01*
X46068161Y-85447600D01*
X45951446Y-85330681D01*
X45571177Y-85172780D01*
X45159429Y-85172421D01*
X44778885Y-85329658D01*
X44611800Y-85496452D01*
X44611800Y-80670400D01*
X44487343Y-80044713D01*
X44132920Y-79514280D01*
X43602487Y-79159857D01*
X42976800Y-79035400D01*
X42351113Y-79159857D01*
X41820680Y-79514280D01*
X41466257Y-80044713D01*
X41341800Y-80670400D01*
X41341800Y-88760295D01*
X41341799Y-88760300D01*
X41466257Y-89385988D01*
X41771689Y-89843100D01*
X36347400Y-89843100D01*
X36322487Y-89848055D01*
X35599965Y-89125533D01*
X35493354Y-89054298D01*
X35231745Y-88879496D01*
X34797399Y-88793099D01*
X33727147Y-88793099D01*
X33795319Y-88725046D01*
X33953220Y-88344777D01*
X33953579Y-87933029D01*
X33796342Y-87552485D01*
X33505446Y-87261081D01*
X33125177Y-87103180D01*
X32713429Y-87102821D01*
X32332885Y-87260058D01*
X32041481Y-87550954D01*
X31883580Y-87931223D01*
X31883221Y-88342971D01*
X32040458Y-88723515D01*
X32158400Y-88841663D01*
X32158400Y-89029605D01*
X32014834Y-89125533D01*
X31147373Y-89992995D01*
X30973311Y-89992843D01*
X30427314Y-90218444D01*
X30009212Y-90635817D01*
X29997652Y-90663657D01*
X29987056Y-90638014D01*
X29569683Y-90219912D01*
X29024081Y-89993358D01*
X28433311Y-89992843D01*
X27887314Y-90218444D01*
X27469212Y-90635817D01*
X27457652Y-90663657D01*
X27447056Y-90638014D01*
X27029683Y-90219912D01*
X26484081Y-89993358D01*
X25893311Y-89992843D01*
X25347314Y-90218444D01*
X24929212Y-90635817D01*
X24917652Y-90663657D01*
X24907056Y-90638014D01*
X24489683Y-90219912D01*
X23944081Y-89993358D01*
X23353311Y-89992843D01*
X22807314Y-90218444D01*
X22389212Y-90635817D01*
X22377652Y-90663657D01*
X22367056Y-90638014D01*
X21949683Y-90219912D01*
X21404081Y-89993358D01*
X20813311Y-89992843D01*
X20267314Y-90218444D01*
X19849212Y-90635817D01*
X19622658Y-91181419D01*
X19622143Y-91772189D01*
X19847744Y-92318186D01*
X20084247Y-92555102D01*
X20009635Y-92569943D01*
X19799591Y-92710291D01*
X19659243Y-92920335D01*
X19609960Y-93168100D01*
X19609960Y-94868100D01*
X19659243Y-95115865D01*
X19799591Y-95325909D01*
X20009635Y-95466257D01*
X20257400Y-95515540D01*
X21957400Y-95515540D01*
X22205165Y-95466257D01*
X22415209Y-95325909D01*
X22555557Y-95115865D01*
X22570414Y-95041175D01*
X22805117Y-95276288D01*
X23350719Y-95502842D01*
X23941489Y-95503357D01*
X24487486Y-95277756D01*
X24905588Y-94860383D01*
X24917148Y-94832543D01*
X24927744Y-94858186D01*
X25345117Y-95276288D01*
X25890719Y-95502842D01*
X26481489Y-95503357D01*
X27027486Y-95277756D01*
X27445588Y-94860383D01*
X27457148Y-94832543D01*
X27467744Y-94858186D01*
X27885117Y-95276288D01*
X28430719Y-95502842D01*
X29021489Y-95503357D01*
X29567486Y-95277756D01*
X29985588Y-94860383D01*
X29997148Y-94832543D01*
X30007744Y-94858186D01*
X30425117Y-95276288D01*
X30970719Y-95502842D01*
X31561489Y-95503357D01*
X32107486Y-95277756D01*
X32525588Y-94860383D01*
X32537148Y-94832543D01*
X32547744Y-94858186D01*
X32965117Y-95276288D01*
X33510719Y-95502842D01*
X34101489Y-95503357D01*
X34647486Y-95277756D01*
X35065588Y-94860383D01*
X35077148Y-94832543D01*
X35087744Y-94858186D01*
X35505117Y-95276288D01*
X36050719Y-95502842D01*
X36641489Y-95503357D01*
X37187486Y-95277756D01*
X37605588Y-94860383D01*
X37617148Y-94832543D01*
X37627744Y-94858186D01*
X38045117Y-95276288D01*
X38590719Y-95502842D01*
X39181489Y-95503357D01*
X39727486Y-95277756D01*
X40145588Y-94860383D01*
X40372142Y-94314781D01*
X40372657Y-93724011D01*
X40147056Y-93178014D01*
X40082255Y-93113100D01*
X45592301Y-93113100D01*
X45720000Y-93138501D01*
X45720005Y-93138500D01*
X45817460Y-93138500D01*
X46409448Y-93730487D01*
X46449648Y-93932587D01*
X46688502Y-94290059D01*
X46540291Y-94389091D01*
X46399943Y-94599135D01*
X46350660Y-94846900D01*
X46350660Y-96846900D01*
X46399943Y-97094665D01*
X46513758Y-97265000D01*
X12684261Y-97265000D01*
X13038329Y-97028420D01*
X13392752Y-96497987D01*
X13517209Y-95872300D01*
X13392752Y-95246613D01*
X13038329Y-94716180D01*
X12867895Y-94602300D01*
X13038329Y-94488420D01*
X13392752Y-93957987D01*
X13517209Y-93332300D01*
X13392752Y-92706613D01*
X13038329Y-92176180D01*
X12867895Y-92062300D01*
X13038329Y-91948420D01*
X13392752Y-91417987D01*
X13517209Y-90792300D01*
X13392752Y-90166613D01*
X13038329Y-89636180D01*
X12507896Y-89281757D01*
X11882209Y-89157300D01*
X11206391Y-89157300D01*
X10580704Y-89281757D01*
X10050271Y-89636180D01*
X9695848Y-90166613D01*
X9571391Y-90792300D01*
X9695848Y-91417987D01*
X10050271Y-91948420D01*
X10220705Y-92062300D01*
X10050271Y-92176180D01*
X9695848Y-92706613D01*
X9571391Y-93332300D01*
X9695848Y-93957987D01*
X10050271Y-94488420D01*
X10220705Y-94602300D01*
X10050271Y-94716180D01*
X9695848Y-95246613D01*
X9571391Y-95872300D01*
X9695848Y-96497987D01*
X10050271Y-97028420D01*
X10404339Y-97265000D01*
X5072390Y-97265000D01*
X3373366Y-96927043D01*
X1994371Y-96005629D01*
X1072957Y-94626634D01*
X861078Y-93561442D01*
X2164509Y-93561442D01*
X2595202Y-94603801D01*
X3392005Y-95401995D01*
X4433610Y-95834507D01*
X5561442Y-95835491D01*
X6603801Y-95404798D01*
X7401995Y-94607995D01*
X7834507Y-93566390D01*
X7835491Y-92438558D01*
X7404798Y-91396199D01*
X6607995Y-90598005D01*
X5566390Y-90165493D01*
X4438558Y-90164509D01*
X3396199Y-90595202D01*
X2598005Y-91392005D01*
X2165493Y-92433610D01*
X2164509Y-93561442D01*
X861078Y-93561442D01*
X735000Y-92927610D01*
X735000Y-78962088D01*
X1068571Y-78962379D01*
X1449115Y-78805142D01*
X1740519Y-78514246D01*
X1898420Y-78133977D01*
X1898779Y-77722229D01*
X1741542Y-77341685D01*
X1450646Y-77050281D01*
X1223601Y-76956004D01*
X1223601Y-71408733D01*
X2194634Y-72379766D01*
X2562854Y-72625803D01*
X2997200Y-72712200D01*
X4425645Y-72712200D01*
X4349980Y-72894423D01*
X4349621Y-73306171D01*
X4506858Y-73686715D01*
X4659076Y-73839198D01*
X4682652Y-73957724D01*
X4847399Y-74204286D01*
X12877613Y-82234500D01*
X9987461Y-82234500D01*
X9870746Y-82117581D01*
X9490477Y-81959680D01*
X9078729Y-81959321D01*
X8698185Y-82116558D01*
X8406781Y-82407454D01*
X8248880Y-82787723D01*
X8248521Y-83199471D01*
X8405758Y-83580015D01*
X8696654Y-83871419D01*
X9076923Y-84029320D01*
X9488671Y-84029679D01*
X9869215Y-83872442D01*
X9987363Y-83754500D01*
X13392751Y-83754500D01*
X13392517Y-84023085D01*
X13415627Y-84079016D01*
X13296281Y-84198154D01*
X13138380Y-84578423D01*
X13138164Y-84826401D01*
X8285688Y-84826401D01*
X7199086Y-83739799D01*
X6952524Y-83575052D01*
X6856000Y-83555852D01*
X6856000Y-79913661D01*
X6972919Y-79796946D01*
X7130820Y-79416677D01*
X7131179Y-79004929D01*
X6973942Y-78624385D01*
X6683046Y-78332981D01*
X6302777Y-78175080D01*
X5891029Y-78174721D01*
X5510485Y-78331958D01*
X5219081Y-78622854D01*
X5061180Y-79003123D01*
X5060821Y-79414871D01*
X5218058Y-79795415D01*
X5336000Y-79913563D01*
X5336000Y-83573439D01*
X5219081Y-83690154D01*
X5061180Y-84070423D01*
X5060821Y-84482171D01*
X5218058Y-84862715D01*
X5508954Y-85154119D01*
X5889223Y-85312020D01*
X6300971Y-85312379D01*
X6528181Y-85218498D01*
X7433485Y-86123802D01*
X7680047Y-86288549D01*
X7970886Y-86346401D01*
X33234799Y-86346401D01*
X33525638Y-86288549D01*
X33772200Y-86123802D01*
X34095564Y-85800438D01*
X34261754Y-85966919D01*
X34642023Y-86124820D01*
X35053771Y-86125179D01*
X35434315Y-85967942D01*
X35552463Y-85850000D01*
X38158239Y-85850000D01*
X38274954Y-85966919D01*
X38655223Y-86124820D01*
X39066971Y-86125179D01*
X39447515Y-85967942D01*
X39738919Y-85677046D01*
X39896820Y-85296777D01*
X39897179Y-84885029D01*
X39739942Y-84504485D01*
X39449046Y-84213081D01*
X39068777Y-84055180D01*
X38657029Y-84054821D01*
X38276485Y-84212058D01*
X38158337Y-84330000D01*
X35566002Y-84330000D01*
X49705993Y-70190009D01*
X49746791Y-70190009D01*
X50037630Y-70132157D01*
X50284192Y-69967410D01*
X52367202Y-67884400D01*
X52531949Y-67637838D01*
X52589801Y-67346999D01*
X52589801Y-66351595D01*
X52626800Y-66165590D01*
X52626800Y-64062496D01*
X52759310Y-64260812D01*
X56559465Y-68060968D01*
X56559321Y-68226171D01*
X56716558Y-68606715D01*
X57007454Y-68898119D01*
X57387723Y-69056020D01*
X57799471Y-69056379D01*
X58180015Y-68899142D01*
X58471419Y-68608246D01*
X58629320Y-68227977D01*
X58629679Y-67816229D01*
X58472442Y-67435685D01*
X58181546Y-67144281D01*
X57801277Y-66986380D01*
X57634337Y-66986234D01*
X54056711Y-63408609D01*
X54056711Y-57012371D01*
X54173630Y-56895656D01*
X54331531Y-56515387D01*
X54331890Y-56103639D01*
X54174653Y-55723095D01*
X53927135Y-55475145D01*
X53981539Y-55420836D01*
X53991787Y-55396156D01*
X54009524Y-55403521D01*
X54421272Y-55403880D01*
X54801816Y-55246643D01*
X55093220Y-54955747D01*
X55251121Y-54575478D01*
X55251464Y-54182601D01*
X55759778Y-54182601D01*
X55852958Y-54408115D01*
X56143854Y-54699519D01*
X56524123Y-54857420D01*
X56935871Y-54857779D01*
X57316415Y-54700542D01*
X57607819Y-54409646D01*
X57765720Y-54029377D01*
X57766079Y-53617629D01*
X57608842Y-53237085D01*
X57317946Y-52945681D01*
X56937677Y-52787780D01*
X56722221Y-52787592D01*
X56621740Y-52720453D01*
X56330901Y-52662601D01*
X50831699Y-52662601D01*
X50568861Y-52714883D01*
X50431700Y-52687600D01*
X47879000Y-52687600D01*
X47444654Y-52773997D01*
X47076434Y-53020034D01*
X46830397Y-53388254D01*
X46744000Y-53822600D01*
X46830397Y-54256946D01*
X47076434Y-54625166D01*
X47444654Y-54871203D01*
X47879000Y-54957600D01*
X50431700Y-54957600D01*
X50866046Y-54871203D01*
X51026841Y-54763763D01*
X50905205Y-54885399D01*
X50869374Y-54939024D01*
X49672398Y-56136000D01*
X40044063Y-56136000D01*
X40133957Y-56001465D01*
X40183240Y-55753700D01*
X40183240Y-54253700D01*
X40133957Y-54005935D01*
X39993609Y-53795891D01*
X39783565Y-53655543D01*
X39545206Y-53608131D01*
X39792277Y-53443043D01*
X40092507Y-52993717D01*
X40197934Y-52463700D01*
X40092507Y-51933683D01*
X39792277Y-51484357D01*
X39342951Y-51184127D01*
X39071842Y-51130200D01*
X59265000Y-51130200D01*
X59265000Y-92927610D01*
G36*
X34920999Y-57433401D02*
X35167561Y-57598148D01*
X35458400Y-57656000D01*
X49987200Y-57656000D01*
X50278039Y-57598148D01*
X50524601Y-57433401D01*
X51106800Y-56851202D01*
X51106800Y-66016584D01*
X51069801Y-66202589D01*
X51069801Y-67032197D01*
X50435677Y-67666321D01*
X50315586Y-67546021D01*
X50213014Y-67503430D01*
X50213119Y-67383186D01*
X50055882Y-67002642D01*
X49764986Y-66711238D01*
X49384717Y-66553337D01*
X49100601Y-66553089D01*
X49100601Y-62768661D01*
X49217520Y-62651946D01*
X49375421Y-62271677D01*
X49375780Y-61859929D01*
X49218543Y-61479385D01*
X48927647Y-61187981D01*
X48547378Y-61030080D01*
X48135630Y-61029721D01*
X47755086Y-61186958D01*
X47463682Y-61477854D01*
X47305781Y-61858123D01*
X47305422Y-62269871D01*
X47462659Y-62650415D01*
X47580601Y-62768563D01*
X47580601Y-68032197D01*
X41153959Y-74458839D01*
X40897577Y-74352380D01*
X40485829Y-74352021D01*
X40105285Y-74509258D01*
X39813881Y-74800154D01*
X39655980Y-75180423D01*
X39655621Y-75592171D01*
X39812858Y-75972715D01*
X40091621Y-76251964D01*
X34610786Y-81732799D01*
X28568604Y-81732799D01*
X28568779Y-81532229D01*
X28411542Y-81151685D01*
X28293600Y-81033537D01*
X28293600Y-61595000D01*
X28235748Y-61304161D01*
X28071001Y-61057599D01*
X27425635Y-60412233D01*
X27425779Y-60247029D01*
X27268542Y-59866485D01*
X27005909Y-59603393D01*
X30646767Y-55962535D01*
X30811971Y-55962679D01*
X31192515Y-55805442D01*
X31483919Y-55514546D01*
X31641820Y-55134277D01*
X31642179Y-54722529D01*
X31484942Y-54341985D01*
X31194046Y-54050581D01*
X30813777Y-53892680D01*
X30402029Y-53892321D01*
X30021485Y-54049558D01*
X29991263Y-54079727D01*
X29974846Y-54063281D01*
X29594577Y-53905380D01*
X29182829Y-53905021D01*
X28802285Y-54062258D01*
X28510881Y-54353154D01*
X28352980Y-54733423D01*
X28352834Y-54900364D01*
X27200948Y-56052250D01*
X27163300Y-56014537D01*
X27163300Y-54213602D01*
X27886502Y-53490400D01*
X30977998Y-53490400D01*
X34920999Y-57433401D01*
X34920999Y-57433401D01*
G37*
X34920999Y-57433401D02*
X35167561Y-57598148D01*
X35458400Y-57656000D01*
X49987200Y-57656000D01*
X50278039Y-57598148D01*
X50524601Y-57433401D01*
X51106800Y-56851202D01*
X51106800Y-66016584D01*
X51069801Y-66202589D01*
X51069801Y-67032197D01*
X50435677Y-67666321D01*
X50315586Y-67546021D01*
X50213014Y-67503430D01*
X50213119Y-67383186D01*
X50055882Y-67002642D01*
X49764986Y-66711238D01*
X49384717Y-66553337D01*
X49100601Y-66553089D01*
X49100601Y-62768661D01*
X49217520Y-62651946D01*
X49375421Y-62271677D01*
X49375780Y-61859929D01*
X49218543Y-61479385D01*
X48927647Y-61187981D01*
X48547378Y-61030080D01*
X48135630Y-61029721D01*
X47755086Y-61186958D01*
X47463682Y-61477854D01*
X47305781Y-61858123D01*
X47305422Y-62269871D01*
X47462659Y-62650415D01*
X47580601Y-62768563D01*
X47580601Y-68032197D01*
X41153959Y-74458839D01*
X40897577Y-74352380D01*
X40485829Y-74352021D01*
X40105285Y-74509258D01*
X39813881Y-74800154D01*
X39655980Y-75180423D01*
X39655621Y-75592171D01*
X39812858Y-75972715D01*
X40091621Y-76251964D01*
X34610786Y-81732799D01*
X28568604Y-81732799D01*
X28568779Y-81532229D01*
X28411542Y-81151685D01*
X28293600Y-81033537D01*
X28293600Y-61595000D01*
X28235748Y-61304161D01*
X28071001Y-61057599D01*
X27425635Y-60412233D01*
X27425779Y-60247029D01*
X27268542Y-59866485D01*
X27005909Y-59603393D01*
X30646767Y-55962535D01*
X30811971Y-55962679D01*
X31192515Y-55805442D01*
X31483919Y-55514546D01*
X31641820Y-55134277D01*
X31642179Y-54722529D01*
X31484942Y-54341985D01*
X31194046Y-54050581D01*
X30813777Y-53892680D01*
X30402029Y-53892321D01*
X30021485Y-54049558D01*
X29991263Y-54079727D01*
X29974846Y-54063281D01*
X29594577Y-53905380D01*
X29182829Y-53905021D01*
X28802285Y-54062258D01*
X28510881Y-54353154D01*
X28352980Y-54733423D01*
X28352834Y-54900364D01*
X27200948Y-56052250D01*
X27163300Y-56014537D01*
X27163300Y-54213602D01*
X27886502Y-53490400D01*
X30977998Y-53490400D01*
X34920999Y-57433401D01*
G36*
X25643300Y-54239002D02*
X25643300Y-56014439D01*
X25526381Y-56131154D01*
X25368480Y-56511423D01*
X25368121Y-56923171D01*
X25525358Y-57303715D01*
X25737235Y-57515963D01*
X22684600Y-60568598D01*
X22519853Y-60815160D01*
X22462001Y-61105999D01*
X22462001Y-81337201D01*
X22519853Y-81628040D01*
X22587007Y-81728544D01*
X22587004Y-81732799D01*
X14525516Y-81732799D01*
X10077151Y-77284434D01*
X10085115Y-77281144D01*
X10376519Y-76990248D01*
X10534420Y-76609979D01*
X10534779Y-76198231D01*
X10377542Y-75817687D01*
X10259600Y-75699539D01*
X10259600Y-74735367D01*
X10491515Y-74639542D01*
X10749788Y-74381720D01*
X14234234Y-77866166D01*
X14602454Y-78112203D01*
X15036800Y-78198600D01*
X19482880Y-78198600D01*
X19525397Y-78412346D01*
X19771434Y-78780566D01*
X20139654Y-79026603D01*
X20574000Y-79113000D01*
X21008346Y-79026603D01*
X21376566Y-78780566D01*
X21622603Y-78412346D01*
X21709000Y-77978000D01*
X21709000Y-75234800D01*
X21622603Y-74800454D01*
X21376566Y-74432234D01*
X21008346Y-74186197D01*
X20574000Y-74099800D01*
X15964132Y-74099800D01*
X15695687Y-73831355D01*
X15952971Y-73831579D01*
X16333515Y-73674342D01*
X16624919Y-73383446D01*
X16782820Y-73003177D01*
X16783179Y-72591429D01*
X16625942Y-72210885D01*
X16417929Y-72002509D01*
X16663019Y-71757846D01*
X16820920Y-71377577D01*
X16821279Y-70965829D01*
X16664042Y-70585285D01*
X16373146Y-70293881D01*
X16000000Y-70138938D01*
X16000000Y-63492563D01*
X16116919Y-63375848D01*
X16274820Y-62995579D01*
X16275179Y-62583831D01*
X16117942Y-62203287D01*
X16000000Y-62085139D01*
X16000000Y-58270413D01*
X18022967Y-56247446D01*
X18188171Y-56247590D01*
X18568715Y-56090353D01*
X18860119Y-55799457D01*
X19018020Y-55419188D01*
X19018379Y-55007440D01*
X18990354Y-54939614D01*
X19099941Y-54985118D01*
X19511689Y-54985477D01*
X19892233Y-54828240D01*
X20183637Y-54537344D01*
X20341538Y-54157075D01*
X20341684Y-53990134D01*
X20790618Y-53541200D01*
X24945498Y-53541200D01*
X25643300Y-54239002D01*
X25643300Y-54239002D01*
G37*
X25643300Y-54239002D02*
X25643300Y-56014439D01*
X25526381Y-56131154D01*
X25368480Y-56511423D01*
X25368121Y-56923171D01*
X25525358Y-57303715D01*
X25737235Y-57515963D01*
X22684600Y-60568598D01*
X22519853Y-60815160D01*
X22462001Y-61105999D01*
X22462001Y-81337201D01*
X22519853Y-81628040D01*
X22587007Y-81728544D01*
X22587004Y-81732799D01*
X14525516Y-81732799D01*
X10077151Y-77284434D01*
X10085115Y-77281144D01*
X10376519Y-76990248D01*
X10534420Y-76609979D01*
X10534779Y-76198231D01*
X10377542Y-75817687D01*
X10259600Y-75699539D01*
X10259600Y-74735367D01*
X10491515Y-74639542D01*
X10749788Y-74381720D01*
X14234234Y-77866166D01*
X14602454Y-78112203D01*
X15036800Y-78198600D01*
X19482880Y-78198600D01*
X19525397Y-78412346D01*
X19771434Y-78780566D01*
X20139654Y-79026603D01*
X20574000Y-79113000D01*
X21008346Y-79026603D01*
X21376566Y-78780566D01*
X21622603Y-78412346D01*
X21709000Y-77978000D01*
X21709000Y-75234800D01*
X21622603Y-74800454D01*
X21376566Y-74432234D01*
X21008346Y-74186197D01*
X20574000Y-74099800D01*
X15964132Y-74099800D01*
X15695687Y-73831355D01*
X15952971Y-73831579D01*
X16333515Y-73674342D01*
X16624919Y-73383446D01*
X16782820Y-73003177D01*
X16783179Y-72591429D01*
X16625942Y-72210885D01*
X16417929Y-72002509D01*
X16663019Y-71757846D01*
X16820920Y-71377577D01*
X16821279Y-70965829D01*
X16664042Y-70585285D01*
X16373146Y-70293881D01*
X16000000Y-70138938D01*
X16000000Y-63492563D01*
X16116919Y-63375848D01*
X16274820Y-62995579D01*
X16275179Y-62583831D01*
X16117942Y-62203287D01*
X16000000Y-62085139D01*
X16000000Y-58270413D01*
X18022967Y-56247446D01*
X18188171Y-56247590D01*
X18568715Y-56090353D01*
X18860119Y-55799457D01*
X19018020Y-55419188D01*
X19018379Y-55007440D01*
X18990354Y-54939614D01*
X19099941Y-54985118D01*
X19511689Y-54985477D01*
X19892233Y-54828240D01*
X20183637Y-54537344D01*
X20341538Y-54157075D01*
X20341684Y-53990134D01*
X20790618Y-53541200D01*
X24945498Y-53541200D01*
X25643300Y-54239002D01*
G36*
X26644651Y-31069891D02*
X21954211Y-45948170D01*
X3984921Y-45865362D01*
X4105277Y-45784943D01*
X4405507Y-45335617D01*
X4510934Y-44805600D01*
X4405507Y-44275583D01*
X4105277Y-43826257D01*
X3655951Y-43526027D01*
X3125934Y-43420600D01*
X3071666Y-43420600D01*
X2541649Y-43526027D01*
X2092323Y-43826257D01*
X1792093Y-44275583D01*
X1686666Y-44805600D01*
X1792093Y-45335617D01*
X2092323Y-45784943D01*
X2200371Y-45857139D01*
X735000Y-45850386D01*
X735000Y-35255200D01*
X1463799Y-35255200D01*
X1463800Y-35255205D01*
X1463800Y-39674800D01*
X1588257Y-40300487D01*
X1942680Y-40830920D01*
X2473113Y-41185343D01*
X3098800Y-41309800D01*
X3724487Y-41185343D01*
X4254920Y-40830920D01*
X4609343Y-40300487D01*
X4733800Y-39674800D01*
X4733800Y-39644932D01*
X5335791Y-39042941D01*
X5335791Y-41238661D01*
X5422188Y-41673007D01*
X5447158Y-41710377D01*
X5668225Y-42041227D01*
X6929973Y-43302975D01*
X7298193Y-43549012D01*
X7732539Y-43635409D01*
X18764391Y-43635409D01*
X19198737Y-43549012D01*
X19566957Y-43302975D01*
X20563766Y-42306166D01*
X20809803Y-41937945D01*
X20896200Y-41503600D01*
X20809803Y-41069255D01*
X20563766Y-40701034D01*
X20195545Y-40454997D01*
X19761200Y-40368600D01*
X19326855Y-40454997D01*
X18958634Y-40701034D01*
X18294259Y-41365409D01*
X17848230Y-41365409D01*
X18011145Y-41333003D01*
X18379366Y-41086966D01*
X18779365Y-40686967D01*
X18820330Y-40625658D01*
X19025402Y-40318747D01*
X19111799Y-39884401D01*
X19111799Y-35553599D01*
X19025402Y-35119253D01*
X18779365Y-34751033D01*
X18023766Y-33995434D01*
X17655545Y-33749397D01*
X17221200Y-33663000D01*
X16786855Y-33749397D01*
X16418634Y-33995434D01*
X16172597Y-34363655D01*
X16086200Y-34798000D01*
X16172597Y-35232345D01*
X16418634Y-35600566D01*
X16841799Y-36023731D01*
X16841799Y-39414269D01*
X16774234Y-39481834D01*
X16528197Y-39850055D01*
X16441800Y-40284400D01*
X16528197Y-40718745D01*
X16774234Y-41086966D01*
X17142455Y-41333003D01*
X17305370Y-41365409D01*
X8202671Y-41365409D01*
X7605791Y-40768529D01*
X7605791Y-32016306D01*
X7519394Y-31581960D01*
X7273357Y-31213740D01*
X5686251Y-29626634D01*
X5318031Y-29380597D01*
X4883685Y-29294200D01*
X4318000Y-29294200D01*
X3883654Y-29380597D01*
X3515434Y-29626634D01*
X3269397Y-29994854D01*
X3183000Y-30429200D01*
X3269397Y-30863546D01*
X3515434Y-31231766D01*
X3733433Y-31377428D01*
X3464634Y-31557034D01*
X3218597Y-31925254D01*
X3132200Y-32359600D01*
X3132200Y-32916569D01*
X3111080Y-32930681D01*
X1942680Y-34099080D01*
X1588257Y-34629512D01*
X1463799Y-35255200D01*
X735000Y-35255200D01*
X735000Y-25171400D01*
X5994400Y-25171400D01*
X6043001Y-25161733D01*
X6084203Y-25134203D01*
X6111733Y-25093001D01*
X6121399Y-25044892D01*
X6146426Y-18587844D01*
X6413080Y-18986920D01*
X6943513Y-19341343D01*
X7569200Y-19465800D01*
X9448795Y-19465800D01*
X9448800Y-19465801D01*
X9448805Y-19465800D01*
X10769595Y-19465800D01*
X10769600Y-19465801D01*
X10769605Y-19465800D01*
X12090395Y-19465800D01*
X12090400Y-19465801D01*
X12090405Y-19465800D01*
X13868395Y-19465800D01*
X13868400Y-19465801D01*
X13868405Y-19465800D01*
X14935195Y-19465800D01*
X14935200Y-19465801D01*
X14935205Y-19465800D01*
X16611595Y-19465800D01*
X16611600Y-19465801D01*
X17237288Y-19341343D01*
X17767720Y-18986920D01*
X17827447Y-18927193D01*
X17762600Y-19253200D01*
X17762600Y-22233000D01*
X13157200Y-22233000D01*
X12722854Y-22319397D01*
X12354634Y-22565434D01*
X7020634Y-27899434D01*
X6774597Y-28267654D01*
X6688200Y-28702000D01*
X6774597Y-29136346D01*
X7020634Y-29504566D01*
X7388854Y-29750603D01*
X7823200Y-29837000D01*
X10569468Y-29837000D01*
X10068634Y-30337834D01*
X9822597Y-30706054D01*
X9736200Y-31140400D01*
X9736200Y-38100000D01*
X9822597Y-38534346D01*
X10068634Y-38902566D01*
X10436854Y-39148603D01*
X10871200Y-39235000D01*
X11305546Y-39148603D01*
X11362944Y-39110251D01*
X11361800Y-39116000D01*
X11448197Y-39550345D01*
X11694234Y-39918566D01*
X12062455Y-40164603D01*
X12496800Y-40251000D01*
X12931145Y-40164603D01*
X13299366Y-39918566D01*
X14213766Y-39004166D01*
X14256142Y-38940746D01*
X14459803Y-38635946D01*
X14546200Y-38201600D01*
X14546200Y-35268132D01*
X22771333Y-27043000D01*
X23164800Y-27043000D01*
X23599146Y-26956603D01*
X23967366Y-26710566D01*
X24213403Y-26342346D01*
X24299800Y-25908000D01*
X24213403Y-25473654D01*
X23967366Y-25105434D01*
X23599146Y-24859397D01*
X23164800Y-24773000D01*
X22301200Y-24773000D01*
X21866855Y-24859396D01*
X21658200Y-24998815D01*
X21658200Y-17881600D01*
X21571803Y-17447254D01*
X21325766Y-17079034D01*
X20957546Y-16832997D01*
X20523200Y-16746600D01*
X20269200Y-16746600D01*
X19834854Y-16832997D01*
X19466634Y-17079034D01*
X18231928Y-18313740D01*
X18348201Y-17729200D01*
X18348200Y-17729195D01*
X18348200Y-14427200D01*
X18223743Y-13801513D01*
X17869320Y-13271080D01*
X17338887Y-12916657D01*
X16713200Y-12792200D01*
X7569200Y-12792200D01*
X6943513Y-12916657D01*
X6413080Y-13271080D01*
X6165599Y-13641463D01*
X6171709Y-12065000D01*
X26695062Y-12065000D01*
X26644651Y-31069891D01*
X26644651Y-31069891D01*
G37*
X26644651Y-31069891D02*
X21954211Y-45948170D01*
X3984921Y-45865362D01*
X4105277Y-45784943D01*
X4405507Y-45335617D01*
X4510934Y-44805600D01*
X4405507Y-44275583D01*
X4105277Y-43826257D01*
X3655951Y-43526027D01*
X3125934Y-43420600D01*
X3071666Y-43420600D01*
X2541649Y-43526027D01*
X2092323Y-43826257D01*
X1792093Y-44275583D01*
X1686666Y-44805600D01*
X1792093Y-45335617D01*
X2092323Y-45784943D01*
X2200371Y-45857139D01*
X735000Y-45850386D01*
X735000Y-35255200D01*
X1463799Y-35255200D01*
X1463800Y-35255205D01*
X1463800Y-39674800D01*
X1588257Y-40300487D01*
X1942680Y-40830920D01*
X2473113Y-41185343D01*
X3098800Y-41309800D01*
X3724487Y-41185343D01*
X4254920Y-40830920D01*
X4609343Y-40300487D01*
X4733800Y-39674800D01*
X4733800Y-39644932D01*
X5335791Y-39042941D01*
X5335791Y-41238661D01*
X5422188Y-41673007D01*
X5447158Y-41710377D01*
X5668225Y-42041227D01*
X6929973Y-43302975D01*
X7298193Y-43549012D01*
X7732539Y-43635409D01*
X18764391Y-43635409D01*
X19198737Y-43549012D01*
X19566957Y-43302975D01*
X20563766Y-42306166D01*
X20809803Y-41937945D01*
X20896200Y-41503600D01*
X20809803Y-41069255D01*
X20563766Y-40701034D01*
X20195545Y-40454997D01*
X19761200Y-40368600D01*
X19326855Y-40454997D01*
X18958634Y-40701034D01*
X18294259Y-41365409D01*
X17848230Y-41365409D01*
X18011145Y-41333003D01*
X18379366Y-41086966D01*
X18779365Y-40686967D01*
X18820330Y-40625658D01*
X19025402Y-40318747D01*
X19111799Y-39884401D01*
X19111799Y-35553599D01*
X19025402Y-35119253D01*
X18779365Y-34751033D01*
X18023766Y-33995434D01*
X17655545Y-33749397D01*
X17221200Y-33663000D01*
X16786855Y-33749397D01*
X16418634Y-33995434D01*
X16172597Y-34363655D01*
X16086200Y-34798000D01*
X16172597Y-35232345D01*
X16418634Y-35600566D01*
X16841799Y-36023731D01*
X16841799Y-39414269D01*
X16774234Y-39481834D01*
X16528197Y-39850055D01*
X16441800Y-40284400D01*
X16528197Y-40718745D01*
X16774234Y-41086966D01*
X17142455Y-41333003D01*
X17305370Y-41365409D01*
X8202671Y-41365409D01*
X7605791Y-40768529D01*
X7605791Y-32016306D01*
X7519394Y-31581960D01*
X7273357Y-31213740D01*
X5686251Y-29626634D01*
X5318031Y-29380597D01*
X4883685Y-29294200D01*
X4318000Y-29294200D01*
X3883654Y-29380597D01*
X3515434Y-29626634D01*
X3269397Y-29994854D01*
X3183000Y-30429200D01*
X3269397Y-30863546D01*
X3515434Y-31231766D01*
X3733433Y-31377428D01*
X3464634Y-31557034D01*
X3218597Y-31925254D01*
X3132200Y-32359600D01*
X3132200Y-32916569D01*
X3111080Y-32930681D01*
X1942680Y-34099080D01*
X1588257Y-34629512D01*
X1463799Y-35255200D01*
X735000Y-35255200D01*
X735000Y-25171400D01*
X5994400Y-25171400D01*
X6043001Y-25161733D01*
X6084203Y-25134203D01*
X6111733Y-25093001D01*
X6121399Y-25044892D01*
X6146426Y-18587844D01*
X6413080Y-18986920D01*
X6943513Y-19341343D01*
X7569200Y-19465800D01*
X9448795Y-19465800D01*
X9448800Y-19465801D01*
X9448805Y-19465800D01*
X10769595Y-19465800D01*
X10769600Y-19465801D01*
X10769605Y-19465800D01*
X12090395Y-19465800D01*
X12090400Y-19465801D01*
X12090405Y-19465800D01*
X13868395Y-19465800D01*
X13868400Y-19465801D01*
X13868405Y-19465800D01*
X14935195Y-19465800D01*
X14935200Y-19465801D01*
X14935205Y-19465800D01*
X16611595Y-19465800D01*
X16611600Y-19465801D01*
X17237288Y-19341343D01*
X17767720Y-18986920D01*
X17827447Y-18927193D01*
X17762600Y-19253200D01*
X17762600Y-22233000D01*
X13157200Y-22233000D01*
X12722854Y-22319397D01*
X12354634Y-22565434D01*
X7020634Y-27899434D01*
X6774597Y-28267654D01*
X6688200Y-28702000D01*
X6774597Y-29136346D01*
X7020634Y-29504566D01*
X7388854Y-29750603D01*
X7823200Y-29837000D01*
X10569468Y-29837000D01*
X10068634Y-30337834D01*
X9822597Y-30706054D01*
X9736200Y-31140400D01*
X9736200Y-38100000D01*
X9822597Y-38534346D01*
X10068634Y-38902566D01*
X10436854Y-39148603D01*
X10871200Y-39235000D01*
X11305546Y-39148603D01*
X11362944Y-39110251D01*
X11361800Y-39116000D01*
X11448197Y-39550345D01*
X11694234Y-39918566D01*
X12062455Y-40164603D01*
X12496800Y-40251000D01*
X12931145Y-40164603D01*
X13299366Y-39918566D01*
X14213766Y-39004166D01*
X14256142Y-38940746D01*
X14459803Y-38635946D01*
X14546200Y-38201600D01*
X14546200Y-35268132D01*
X22771333Y-27043000D01*
X23164800Y-27043000D01*
X23599146Y-26956603D01*
X23967366Y-26710566D01*
X24213403Y-26342346D01*
X24299800Y-25908000D01*
X24213403Y-25473654D01*
X23967366Y-25105434D01*
X23599146Y-24859397D01*
X23164800Y-24773000D01*
X22301200Y-24773000D01*
X21866855Y-24859396D01*
X21658200Y-24998815D01*
X21658200Y-17881600D01*
X21571803Y-17447254D01*
X21325766Y-17079034D01*
X20957546Y-16832997D01*
X20523200Y-16746600D01*
X20269200Y-16746600D01*
X19834854Y-16832997D01*
X19466634Y-17079034D01*
X18231928Y-18313740D01*
X18348201Y-17729200D01*
X18348200Y-17729195D01*
X18348200Y-14427200D01*
X18223743Y-13801513D01*
X17869320Y-13271080D01*
X17338887Y-12916657D01*
X16713200Y-12792200D01*
X7569200Y-12792200D01*
X6943513Y-12916657D01*
X6413080Y-13271080D01*
X6165599Y-13641463D01*
X6171709Y-12065000D01*
X26695062Y-12065000D01*
X26644651Y-31069891D01*
G36*
X59265000Y-45897800D02*
X39680395Y-45897800D01*
X39792277Y-45823043D01*
X40092507Y-45373717D01*
X40197934Y-44843700D01*
X40092507Y-44313683D01*
X39792277Y-43864357D01*
X39342951Y-43564127D01*
X38812934Y-43458700D01*
X38758666Y-43458700D01*
X38228649Y-43564127D01*
X37779323Y-43864357D01*
X37479093Y-44313683D01*
X37373666Y-44843700D01*
X37479093Y-45373717D01*
X37779323Y-45823043D01*
X37891205Y-45897800D01*
X36144390Y-45897800D01*
X36167182Y-30649800D01*
X37833068Y-30649800D01*
X38443843Y-31260575D01*
X38303200Y-31232599D01*
X38303195Y-31232600D01*
X38049200Y-31232600D01*
X37423513Y-31357057D01*
X36893080Y-31711480D01*
X36538657Y-32241913D01*
X36414200Y-32867600D01*
X36414200Y-34797995D01*
X36414199Y-34798000D01*
X36538657Y-35423688D01*
X36893080Y-35954120D01*
X37150800Y-36211840D01*
X37150800Y-39763695D01*
X37150799Y-39763700D01*
X37275257Y-40389388D01*
X37629680Y-40919820D01*
X38160112Y-41274243D01*
X38785800Y-41398701D01*
X39411488Y-41274243D01*
X39941920Y-40919820D01*
X39967320Y-40894420D01*
X40155454Y-40612857D01*
X42185174Y-42642577D01*
X42553395Y-42888615D01*
X42987740Y-42975011D01*
X54933989Y-42975011D01*
X55368335Y-42888614D01*
X55736555Y-42642577D01*
X56326966Y-42052166D01*
X56573003Y-41683945D01*
X56659400Y-41249600D01*
X56573003Y-40815255D01*
X56326966Y-40447034D01*
X55958745Y-40200997D01*
X55524400Y-40114600D01*
X55090055Y-40200997D01*
X54721834Y-40447034D01*
X54463857Y-40705011D01*
X53838519Y-40705011D01*
X54033003Y-40413946D01*
X54119400Y-39979600D01*
X54119400Y-34696410D01*
X54119402Y-34696400D01*
X54033005Y-34262055D01*
X53786968Y-33893834D01*
X53418747Y-33647797D01*
X52984402Y-33561400D01*
X52550057Y-33647797D01*
X52181836Y-33893834D01*
X52181834Y-33893836D01*
X51935797Y-34262056D01*
X51849400Y-34696402D01*
X51849400Y-39979600D01*
X51935797Y-40413946D01*
X52130281Y-40705011D01*
X43457872Y-40705011D01*
X42038661Y-39285800D01*
X46278800Y-39285800D01*
X46658892Y-39210195D01*
X46617000Y-39420800D01*
X46703397Y-39855145D01*
X46949434Y-40223366D01*
X47317655Y-40469403D01*
X47752000Y-40555800D01*
X48186345Y-40469403D01*
X48554566Y-40223366D01*
X48960966Y-39816966D01*
X49207003Y-39448746D01*
X49212562Y-39420800D01*
X49293400Y-39014400D01*
X49293400Y-34506132D01*
X57088966Y-26710566D01*
X57335003Y-26342345D01*
X57421400Y-25908000D01*
X57335003Y-25473655D01*
X57088966Y-25105434D01*
X56720745Y-24859397D01*
X56286400Y-24773000D01*
X55852055Y-24859397D01*
X55483834Y-25105434D01*
X47972600Y-32616668D01*
X47972600Y-27686000D01*
X47956010Y-27602597D01*
X47886204Y-27251655D01*
X47640167Y-26883434D01*
X47081366Y-26324634D01*
X47016063Y-26281000D01*
X51663600Y-26281000D01*
X52097946Y-26194603D01*
X52466166Y-25948566D01*
X52712203Y-25580346D01*
X52798600Y-25146000D01*
X52798600Y-17830804D01*
X52790364Y-17789401D01*
X52712204Y-17396459D01*
X52466166Y-17028238D01*
X52466162Y-17028234D01*
X52097941Y-16782197D01*
X51663596Y-16695800D01*
X51301313Y-16767863D01*
X51229250Y-16782197D01*
X50861029Y-17028234D01*
X49692634Y-18196630D01*
X49446597Y-18564850D01*
X49360200Y-18999196D01*
X49360200Y-22182200D01*
X44856400Y-22182200D01*
X44422054Y-22268597D01*
X44166642Y-22439258D01*
X44053834Y-22514634D01*
X38719834Y-27848634D01*
X38473797Y-28216854D01*
X38436126Y-28406241D01*
X38303200Y-28379800D01*
X36170575Y-28379800D01*
X36193467Y-13065000D01*
X37354246Y-13065000D01*
X37197880Y-13169480D01*
X36843457Y-13699913D01*
X36719000Y-14325600D01*
X36719000Y-16103595D01*
X36718999Y-16103600D01*
X36719000Y-16103605D01*
X36719000Y-16205195D01*
X36718999Y-16205200D01*
X36719000Y-16205205D01*
X36719000Y-17729195D01*
X36718999Y-17729200D01*
X36843457Y-18354888D01*
X37197880Y-18885320D01*
X37299480Y-18986920D01*
X37829912Y-19341343D01*
X38455600Y-19465801D01*
X38455605Y-19465800D01*
X47599600Y-19465800D01*
X48225287Y-19341343D01*
X48755720Y-18986920D01*
X49110143Y-18456487D01*
X49234600Y-17830800D01*
X49234600Y-14376405D01*
X49234601Y-14376400D01*
X49110143Y-13750712D01*
X48755720Y-13220280D01*
X48704920Y-13169480D01*
X48174488Y-12815057D01*
X47548800Y-12690599D01*
X47548795Y-12690600D01*
X42096954Y-12690600D01*
X42253320Y-12586120D01*
X42672840Y-12166600D01*
X59265000Y-12166600D01*
X59265000Y-45897800D01*
X59265000Y-45897800D01*
G37*
X59265000Y-45897800D02*
X39680395Y-45897800D01*
X39792277Y-45823043D01*
X40092507Y-45373717D01*
X40197934Y-44843700D01*
X40092507Y-44313683D01*
X39792277Y-43864357D01*
X39342951Y-43564127D01*
X38812934Y-43458700D01*
X38758666Y-43458700D01*
X38228649Y-43564127D01*
X37779323Y-43864357D01*
X37479093Y-44313683D01*
X37373666Y-44843700D01*
X37479093Y-45373717D01*
X37779323Y-45823043D01*
X37891205Y-45897800D01*
X36144390Y-45897800D01*
X36167182Y-30649800D01*
X37833068Y-30649800D01*
X38443843Y-31260575D01*
X38303200Y-31232599D01*
X38303195Y-31232600D01*
X38049200Y-31232600D01*
X37423513Y-31357057D01*
X36893080Y-31711480D01*
X36538657Y-32241913D01*
X36414200Y-32867600D01*
X36414200Y-34797995D01*
X36414199Y-34798000D01*
X36538657Y-35423688D01*
X36893080Y-35954120D01*
X37150800Y-36211840D01*
X37150800Y-39763695D01*
X37150799Y-39763700D01*
X37275257Y-40389388D01*
X37629680Y-40919820D01*
X38160112Y-41274243D01*
X38785800Y-41398701D01*
X39411488Y-41274243D01*
X39941920Y-40919820D01*
X39967320Y-40894420D01*
X40155454Y-40612857D01*
X42185174Y-42642577D01*
X42553395Y-42888615D01*
X42987740Y-42975011D01*
X54933989Y-42975011D01*
X55368335Y-42888614D01*
X55736555Y-42642577D01*
X56326966Y-42052166D01*
X56573003Y-41683945D01*
X56659400Y-41249600D01*
X56573003Y-40815255D01*
X56326966Y-40447034D01*
X55958745Y-40200997D01*
X55524400Y-40114600D01*
X55090055Y-40200997D01*
X54721834Y-40447034D01*
X54463857Y-40705011D01*
X53838519Y-40705011D01*
X54033003Y-40413946D01*
X54119400Y-39979600D01*
X54119400Y-34696410D01*
X54119402Y-34696400D01*
X54033005Y-34262055D01*
X53786968Y-33893834D01*
X53418747Y-33647797D01*
X52984402Y-33561400D01*
X52550057Y-33647797D01*
X52181836Y-33893834D01*
X52181834Y-33893836D01*
X51935797Y-34262056D01*
X51849400Y-34696402D01*
X51849400Y-39979600D01*
X51935797Y-40413946D01*
X52130281Y-40705011D01*
X43457872Y-40705011D01*
X42038661Y-39285800D01*
X46278800Y-39285800D01*
X46658892Y-39210195D01*
X46617000Y-39420800D01*
X46703397Y-39855145D01*
X46949434Y-40223366D01*
X47317655Y-40469403D01*
X47752000Y-40555800D01*
X48186345Y-40469403D01*
X48554566Y-40223366D01*
X48960966Y-39816966D01*
X49207003Y-39448746D01*
X49212562Y-39420800D01*
X49293400Y-39014400D01*
X49293400Y-34506132D01*
X57088966Y-26710566D01*
X57335003Y-26342345D01*
X57421400Y-25908000D01*
X57335003Y-25473655D01*
X57088966Y-25105434D01*
X56720745Y-24859397D01*
X56286400Y-24773000D01*
X55852055Y-24859397D01*
X55483834Y-25105434D01*
X47972600Y-32616668D01*
X47972600Y-27686000D01*
X47956010Y-27602597D01*
X47886204Y-27251655D01*
X47640167Y-26883434D01*
X47081366Y-26324634D01*
X47016063Y-26281000D01*
X51663600Y-26281000D01*
X52097946Y-26194603D01*
X52466166Y-25948566D01*
X52712203Y-25580346D01*
X52798600Y-25146000D01*
X52798600Y-17830804D01*
X52790364Y-17789401D01*
X52712204Y-17396459D01*
X52466166Y-17028238D01*
X52466162Y-17028234D01*
X52097941Y-16782197D01*
X51663596Y-16695800D01*
X51301313Y-16767863D01*
X51229250Y-16782197D01*
X50861029Y-17028234D01*
X49692634Y-18196630D01*
X49446597Y-18564850D01*
X49360200Y-18999196D01*
X49360200Y-22182200D01*
X44856400Y-22182200D01*
X44422054Y-22268597D01*
X44166642Y-22439258D01*
X44053834Y-22514634D01*
X38719834Y-27848634D01*
X38473797Y-28216854D01*
X38436126Y-28406241D01*
X38303200Y-28379800D01*
X36170575Y-28379800D01*
X36193467Y-13065000D01*
X37354246Y-13065000D01*
X37197880Y-13169480D01*
X36843457Y-13699913D01*
X36719000Y-14325600D01*
X36719000Y-16103595D01*
X36718999Y-16103600D01*
X36719000Y-16103605D01*
X36719000Y-16205195D01*
X36718999Y-16205200D01*
X36719000Y-16205205D01*
X36719000Y-17729195D01*
X36718999Y-17729200D01*
X36843457Y-18354888D01*
X37197880Y-18885320D01*
X37299480Y-18986920D01*
X37829912Y-19341343D01*
X38455600Y-19465801D01*
X38455605Y-19465800D01*
X47599600Y-19465800D01*
X48225287Y-19341343D01*
X48755720Y-18986920D01*
X49110143Y-18456487D01*
X49234600Y-17830800D01*
X49234600Y-14376405D01*
X49234601Y-14376400D01*
X49110143Y-13750712D01*
X48755720Y-13220280D01*
X48704920Y-13169480D01*
X48174488Y-12815057D01*
X47548800Y-12690599D01*
X47548795Y-12690600D01*
X42096954Y-12690600D01*
X42253320Y-12586120D01*
X42672840Y-12166600D01*
X59265000Y-12166600D01*
X59265000Y-45897800D01*
M02*
