M48
;DRILL file {KiCad no-vcs-found-9413793~61~ubuntu17.10.1} date Mon Dec 18 18:42:30 2017
;FORMAT={2:4/ absolute / inch / suppress leading zeros}
FMAT,2
INCH,TZ
T1C0.016
T2C0.028
T3C0.039
T4C0.043
T5C0.047
T6C0.065
T7C0.087
%
G90
G05
M72
T1
X340Y-30680
X340Y-33175
X620Y-27620
X980Y-27620
X1050Y-35310
X1340Y-27620
X1630Y-33170
X1680Y-12740
X1680Y-13080
X1680Y-13420
X1700Y-11980
X1700Y-27620
X1980Y-12900
X1980Y-13240
X2120Y-28780
X2400Y-31185
X2400Y-33180
X2980Y-5680
X3080Y-11300
X3080Y-15980
X3340Y-5680
X3420Y-11300
X3590Y-34820
X3655Y-32675
X3700Y-5680
X3740Y-30080
X3760Y-11300
X3900Y-29040
X4060Y-5680
X4100Y-11300
X4280Y-15000
X4420Y-5680
X4440Y-11300
X4750Y-21285
X4780Y-5680
X4920Y-15400
X5140Y-5680
X5280Y-13700
X5480Y-24740
X5500Y-5680
X5580Y-33380
X5680Y-32999
X5740Y-10800
X5780Y-21305
X5860Y-5680
X6000Y-24720
X6200Y-28660
X6215Y-28020
X6220Y-5680
X6480Y-15560
X6580Y-5680
X6780Y-13700
X6780Y-21260
X6920Y-15860
X7080Y-21737
X7340Y-4940
X7340Y-5280
X7340Y-5620
X7601Y-21240
X7640Y-5100
X7640Y-5440
X7780Y-16340
X7910Y-33410
X8080Y-7040
X8080Y-7380
X8080Y-7720
X8080Y-9200
X8080Y-9560
X8080Y-9940
X8100Y-29620
X8100Y-29980
X8100Y-30340
X8100Y-30700
X8585Y-21645
X8620Y-24500
X9120Y-10200
X9300Y-32180
X9440Y-24520
X9780Y-32180
X10105Y-27100
X10300Y-32300
X10390Y-23800
X10395Y-22330
X10840Y-32180
X11420Y-24220
X11570Y-21630
X11760Y-14960
X12050Y-21625
X12160Y-24220
X12380Y-33060
X12540Y-21815
X12700Y-31080
X12700Y-30680
X12960Y-34700
X12980Y-17580
X13000Y-14100
X13040Y-30900
X13200Y-9680
X13520Y-13120
X13620Y-30675
X13720Y-33500
X13780Y-16360
X13900Y-11620
X14180Y-3400
X14180Y-3760
X14180Y-4140
X14180Y-4500
X14405Y-30665
X14980Y-12940
X14980Y-13320
X14980Y-13700
X15100Y-5640
X15280Y-13140
X15280Y-13520
X15300Y-33500
X15460Y-5640
X15560Y-11280
X15820Y-5640
X15900Y-11280
X16020Y-29680
X16200Y-5640
X16240Y-11280
X16440Y-15020
X16560Y-5640
X16580Y-11280
X16920Y-5640
X16920Y-11280
X16920Y-31760
X16920Y-32140
X16920Y-32520
X16920Y-32900
X16920Y-33280
X17060Y-15840
X17280Y-5640
X17380Y-28120
X17640Y-5640
X17860Y-33940
X18000Y-5640
X18220Y-10680
X18220Y-15020
X18360Y-5640
X18720Y-5640
X18800Y-15520
X18850Y-21190
X18960Y-13680
X19032Y-24435
X19120Y-28120
X19280Y-33960
X19361Y-26610
X19578Y-26938
X19680Y-4920
X19680Y-5260
X19680Y-5600
X19740Y-13680
X19855Y-21190
X20000Y-5100
X20000Y-5460
X20220Y-15600
X20340Y-7020
X20340Y-7360
X20340Y-7700
X20340Y-9180
X20340Y-9540
X20340Y-9900
X20860Y-15740
X20860Y-13660
X20907Y-21588
X20983Y-22169
X21345Y-21405
X21790Y-23935
X21860Y-16240
X21922Y-21390
X21995Y-34405
X22160Y-10200
X22335Y-21190
X22550Y-23925
X22675Y-26780
X23350Y-23940
X11161Y-1575
X11352Y-1115
X11352Y-2034
X11811Y-925
X11811Y-2224
X12270Y-1115
X12270Y-2034
X12461Y-1575
X1319Y-36614
X1509Y-36155
X1509Y-37074
X1969Y-35965
X1969Y-37264
X2428Y-36155
X2428Y-37074
X2618Y-36614
X21004Y-36614
X21194Y-36155
X21194Y-37074
X21654Y-35965
X21654Y-37264
X22113Y-36155
X22113Y-37074
X22303Y-36614
T2
X1220Y-15640
X1220Y-16640
X1220Y-17640
X1220Y-20640
X1220Y-21640
X15270Y-15655
X15270Y-16655
X15270Y-17655
X15270Y-20655
X15270Y-21655
T3
X8310Y-36015
X8310Y-37015
X9310Y-36015
X9310Y-37015
X10310Y-36015
X10310Y-37015
X11310Y-36015
X11310Y-37015
X12310Y-36015
X12310Y-37015
X13310Y-36015
X13310Y-37015
X14310Y-36015
X14310Y-37015
X15310Y-36015
X15310Y-37015
T4
X12145Y-4139
X12145Y-9139
X970Y-4145
X970Y-9145
T5
X4545Y-34745
X4545Y-35745
X4545Y-36745
X4545Y-37745
X19015Y-36735
X19015Y-37735
T6
X14764Y-854
X14764Y-2295
X8858Y-854
X8858Y-2295
X17126Y-854
X17126Y-2295
X6496Y-854
X6496Y-2295
X3346Y-854
X3346Y-2295
T7
X11811Y-1575
X1969Y-36614
X21654Y-36614
T0
M30
