G04 #@! TF.GenerationSoftware,KiCad,Pcbnew,no-vcs-found-c6d0075~61~ubuntu17.10.1*
G04 #@! TF.CreationDate,2018-02-01T11:14:40-05:00*
G04 #@! TF.ProjectId,VBUS-Sense,564255532D53656E73652E6B69636164,rev?*
G04 #@! TF.SameCoordinates,Original*
G04 #@! TF.FileFunction,Copper,L2,Bot,Signal*
G04 #@! TF.FilePolarity,Positive*
%FSLAX46Y46*%
G04 Gerber Fmt 4.6, Leading zero omitted, Abs format (unit mm)*
G04 Created by KiCad (PCBNEW no-vcs-found-c6d0075~61~ubuntu17.10.1) date Thu Feb  1 11:14:40 2018*
%MOMM*%
%LPD*%
G01*
G04 APERTURE LIST*
%ADD10O,2.000000X2.600000*%
%ADD11R,2.000000X2.600000*%
%ADD12R,1.500000X1.500000*%
%ADD13O,1.500000X1.500000*%
%ADD14C,8.600000*%
%ADD15C,0.900000*%
%ADD16R,1.700000X1.700000*%
%ADD17R,1.520000X1.520000*%
%ADD18C,1.520000*%
%ADD19C,1.600000*%
%ADD20R,1.600000X1.600000*%
%ADD21C,0.800000*%
%ADD22C,1.000000*%
%ADD23C,0.254000*%
G04 APERTURE END LIST*
D10*
X25273000Y-8382000D03*
X22733000Y-8382000D03*
X20193000Y-8382000D03*
D11*
X17653000Y-8382000D03*
D12*
X37846000Y-12954000D03*
D13*
X37846000Y-15494000D03*
X37846000Y-23114000D03*
X37846000Y-25654000D03*
X37846000Y-28194000D03*
D10*
X4064000Y-5842000D03*
D11*
X6604000Y-5842000D03*
D14*
X10000000Y-74000000D03*
D15*
X13225000Y-74000000D03*
X12280419Y-76280419D03*
X10000000Y-77225000D03*
X7719581Y-76280419D03*
X6775000Y-74000000D03*
X7719581Y-71719581D03*
X10000000Y-70775000D03*
X12280419Y-71719581D03*
X32280419Y-47719581D03*
X30000000Y-46775000D03*
X27719581Y-47719581D03*
X26775000Y-50000000D03*
X27719581Y-52280419D03*
X30000000Y-53225000D03*
X32280419Y-52280419D03*
X33225000Y-50000000D03*
D14*
X30000000Y-50000000D03*
D16*
X12750800Y-52070000D03*
X55854600Y-74066400D03*
D17*
X12382500Y-13525500D03*
D18*
X12382500Y-8445500D03*
X12382500Y-10985500D03*
D19*
X53365400Y-13083400D03*
D20*
X53365400Y-19583400D03*
D17*
X11366500Y-44386500D03*
D18*
X6286500Y-44386500D03*
X8826500Y-44386500D03*
D21*
X38719000Y-2540000D03*
X37719000Y-2540000D03*
X20336000Y-50165000D03*
X21336000Y-50165000D03*
X20336000Y-53657500D03*
X21336000Y-53657500D03*
X48260000Y-4841500D03*
X48260000Y-3841500D03*
X48260000Y-2841500D03*
X48260000Y-1841500D03*
X44767500Y-27066500D03*
X44767500Y-26066500D03*
X44767500Y-25066500D03*
X44767500Y-24066500D03*
X21875500Y-28892500D03*
X20875500Y-28892500D03*
X19875500Y-28892500D03*
X27765000Y-25209500D03*
X26765000Y-25209500D03*
X25765000Y-25209500D03*
X24765000Y-25209500D03*
X14732000Y-33115000D03*
X14732000Y-32115000D03*
X14732000Y-31115000D03*
X58403500Y-61070500D03*
X53403500Y-61070500D03*
X58403500Y-60070500D03*
X53403500Y-60070500D03*
X58403500Y-59070500D03*
X53403500Y-59070500D03*
X58403500Y-58070500D03*
X53403500Y-58070500D03*
X58403500Y-57070500D03*
X53403500Y-57070500D03*
X58403500Y-56070500D03*
X53403500Y-56070500D03*
X58340000Y-49005500D03*
X53340000Y-49005500D03*
X58340000Y-48005500D03*
X53340000Y-48005500D03*
X58340000Y-47005500D03*
X53340000Y-47005500D03*
X58340000Y-46005500D03*
X53340000Y-46005500D03*
X58340000Y-45005500D03*
X53340000Y-45005500D03*
X58340000Y-44005500D03*
X53340000Y-44005500D03*
X58340000Y-37258000D03*
X53340000Y-37258000D03*
X58340000Y-36258000D03*
X53340000Y-36258000D03*
X58340000Y-35258000D03*
X53340000Y-35258000D03*
X58340000Y-34258000D03*
X53340000Y-34258000D03*
X58340000Y-33258000D03*
X53340000Y-33258000D03*
X58340000Y-32258000D03*
X53340000Y-32258000D03*
X23511000Y-53594000D03*
X24511000Y-53594000D03*
X23511000Y-50165000D03*
X24511000Y-50165000D03*
X9652000Y-34575500D03*
X9652000Y-33575500D03*
X9652000Y-32575500D03*
X53467000Y-70056000D03*
X53467000Y-69056000D03*
X53467000Y-68056000D03*
X53467000Y-67056000D03*
X58229500Y-70056000D03*
X58229500Y-69056000D03*
X58229500Y-68056000D03*
X58229500Y-67056000D03*
X58356500Y-26812500D03*
X58356500Y-25812500D03*
X58356500Y-24812500D03*
X53403500Y-26812500D03*
X53403500Y-25812500D03*
X53403500Y-24812500D03*
X53403500Y-23812500D03*
X58356500Y-23812500D03*
D22*
X20336000Y-53657500D02*
X21336000Y-53657500D01*
X20336000Y-50165000D02*
X20336000Y-53657500D01*
X21336000Y-50165000D02*
X21336000Y-53657500D01*
X20336000Y-50165000D02*
X21336000Y-50165000D01*
X44767500Y-24066500D02*
X44767500Y-27066500D01*
X48260000Y-4841500D02*
X48260000Y-20574000D01*
X48260000Y-20574000D02*
X44767500Y-24066500D01*
X21875500Y-26257500D02*
X22923500Y-25209500D01*
X21875500Y-28892500D02*
X21875500Y-26257500D01*
X22923500Y-25209500D02*
X24765000Y-25209500D01*
X24765000Y-25209500D02*
X27765000Y-25209500D01*
X14732000Y-33115000D02*
X14732000Y-31115000D01*
X35750500Y-30289500D02*
X15557500Y-30289500D01*
X37846000Y-28194000D02*
X35750500Y-30289500D01*
X15557500Y-30289500D02*
X14732000Y-31115000D01*
X53403500Y-57070500D02*
X58403500Y-57070500D01*
X53403500Y-58070500D02*
X58403500Y-58070500D01*
X53403500Y-59070500D02*
X58403500Y-59070500D01*
X53403500Y-60070500D02*
X58403500Y-60070500D01*
X53403500Y-61070500D02*
X58403500Y-61070500D01*
X53403500Y-56070500D02*
X53403500Y-61070500D01*
X58403500Y-56070500D02*
X58403500Y-61070500D01*
X53403500Y-56070500D02*
X58403500Y-56070500D01*
X53340000Y-45005500D02*
X58340000Y-45005500D01*
X58340000Y-46005500D02*
X53340000Y-46005500D01*
X53340000Y-47005500D02*
X58340000Y-47005500D01*
X58340000Y-48005500D02*
X53340000Y-48005500D01*
X58340000Y-44005500D02*
X58340000Y-49005500D01*
X53340000Y-44005500D02*
X58340000Y-44005500D01*
X58340000Y-49005500D02*
X53340000Y-49005500D01*
X53340000Y-44005500D02*
X53340000Y-49005500D01*
X58340000Y-36258000D02*
X53340000Y-36258000D01*
X53340000Y-35258000D02*
X58340000Y-35258000D01*
X58340000Y-34258000D02*
X53340000Y-34258000D01*
X53340000Y-33258000D02*
X58340000Y-33258000D01*
X53340000Y-37258000D02*
X53340000Y-32258000D01*
X58340000Y-37258000D02*
X53340000Y-37258000D01*
X58340000Y-32258000D02*
X58340000Y-37258000D01*
X53340000Y-32258000D02*
X58340000Y-32258000D01*
X23511000Y-50165000D02*
X24511000Y-50165000D01*
X23511000Y-53594000D02*
X24511000Y-53594000D01*
X24511000Y-50165000D02*
X24511000Y-53594000D01*
X23511000Y-50165000D02*
X23511000Y-53594000D01*
X28849999Y-46222999D02*
X28849999Y-47327001D01*
X11430000Y-44450000D02*
X27686000Y-44450000D01*
X28869582Y-46203416D02*
X28849999Y-46222999D01*
X28869582Y-48869582D02*
X30000000Y-50000000D01*
X28849999Y-47327001D02*
X28869582Y-47346584D01*
X27686000Y-44450000D02*
X28869582Y-45633582D01*
X28869582Y-45633582D02*
X28869582Y-46203416D01*
X28869582Y-47346584D02*
X28869582Y-48869582D01*
X9652000Y-34575500D02*
X6350000Y-37877500D01*
X6350000Y-37877500D02*
X6350000Y-44450000D01*
X58229500Y-69056000D02*
X53467000Y-69056000D01*
X53467000Y-68056000D02*
X58229500Y-68056000D01*
X53467000Y-70056000D02*
X53467000Y-67056000D01*
X58229500Y-70056000D02*
X53467000Y-70056000D01*
X58229500Y-67056000D02*
X58229500Y-70056000D01*
X53467000Y-67056000D02*
X58229500Y-67056000D01*
X53403500Y-26812500D02*
X53403500Y-23812500D01*
X58356500Y-23812500D02*
X58356500Y-26812500D01*
X53403500Y-26812500D02*
X58356500Y-26812500D01*
X58356500Y-25812500D02*
X53403500Y-25812500D01*
X53403500Y-24812500D02*
X58356500Y-24812500D01*
X53403500Y-23812500D02*
X58356500Y-23812500D01*
D23*
G36*
X45645515Y-16907054D02*
X710000Y-16882131D01*
X710000Y-15494000D01*
X36433867Y-15494000D01*
X36541359Y-16034400D01*
X36847471Y-16492529D01*
X37305600Y-16798641D01*
X37709593Y-16879000D01*
X37982407Y-16879000D01*
X38386400Y-16798641D01*
X38844529Y-16492529D01*
X39150641Y-16034400D01*
X39258133Y-15494000D01*
X39150641Y-14953600D01*
X38844529Y-14495471D01*
X38621408Y-14346386D01*
X38843765Y-14302157D01*
X39053809Y-14161809D01*
X39194157Y-13951765D01*
X39243440Y-13704000D01*
X39243440Y-12204000D01*
X39194157Y-11956235D01*
X39053809Y-11746191D01*
X38843765Y-11605843D01*
X38596000Y-11556560D01*
X37096000Y-11556560D01*
X36848235Y-11605843D01*
X36638191Y-11746191D01*
X36497843Y-11956235D01*
X36448560Y-12204000D01*
X36448560Y-13704000D01*
X36497843Y-13951765D01*
X36638191Y-14161809D01*
X36848235Y-14302157D01*
X37070592Y-14346386D01*
X36847471Y-14495471D01*
X36541359Y-14953600D01*
X36433867Y-15494000D01*
X710000Y-15494000D01*
X710000Y-12765500D01*
X10975060Y-12765500D01*
X10975060Y-14285500D01*
X11024343Y-14533265D01*
X11164691Y-14743309D01*
X11374735Y-14883657D01*
X11622500Y-14932940D01*
X13142500Y-14932940D01*
X13390265Y-14883657D01*
X13600309Y-14743309D01*
X13740657Y-14533265D01*
X13789940Y-14285500D01*
X13789940Y-12765500D01*
X13740657Y-12517735D01*
X13600309Y-12307691D01*
X13390265Y-12167343D01*
X13209451Y-12131377D01*
X13565124Y-11775704D01*
X13777500Y-11262983D01*
X13777500Y-10708017D01*
X13565124Y-10195296D01*
X13172704Y-9802876D01*
X12977641Y-9722078D01*
X13112441Y-9666242D01*
X13181659Y-9424264D01*
X12382500Y-8625105D01*
X11583341Y-9424264D01*
X11652559Y-9666242D01*
X11797431Y-9717906D01*
X11592296Y-9802876D01*
X11199876Y-10195296D01*
X10987500Y-10708017D01*
X10987500Y-11262983D01*
X11199876Y-11775704D01*
X11555549Y-12131377D01*
X11374735Y-12167343D01*
X11164691Y-12307691D01*
X11024343Y-12517735D01*
X10975060Y-12765500D01*
X710000Y-12765500D01*
X710000Y-8238280D01*
X10975345Y-8238280D01*
X11003159Y-8792549D01*
X11161758Y-9175441D01*
X11403736Y-9244659D01*
X12202895Y-8445500D01*
X12562105Y-8445500D01*
X13361264Y-9244659D01*
X13603242Y-9175441D01*
X13784294Y-8667750D01*
X16018000Y-8667750D01*
X16018000Y-9808310D01*
X16114673Y-10041699D01*
X16293302Y-10220327D01*
X16526691Y-10317000D01*
X17367250Y-10317000D01*
X17526000Y-10158250D01*
X17526000Y-8509000D01*
X16176750Y-8509000D01*
X16018000Y-8667750D01*
X13784294Y-8667750D01*
X13789655Y-8652720D01*
X13761841Y-8098451D01*
X13603242Y-7715559D01*
X13361264Y-7646341D01*
X12562105Y-8445500D01*
X12202895Y-8445500D01*
X11403736Y-7646341D01*
X11161758Y-7715559D01*
X10975345Y-8238280D01*
X710000Y-8238280D01*
X710000Y-5380969D01*
X2429000Y-5380969D01*
X2429000Y-6303030D01*
X2523864Y-6779944D01*
X2885231Y-7320769D01*
X3426055Y-7682136D01*
X4064000Y-7809031D01*
X4701944Y-7682136D01*
X5047100Y-7451510D01*
X5146191Y-7599809D01*
X5356235Y-7740157D01*
X5604000Y-7789440D01*
X7604000Y-7789440D01*
X7851765Y-7740157D01*
X8061809Y-7599809D01*
X8150726Y-7466736D01*
X11583341Y-7466736D01*
X12382500Y-8265895D01*
X13181659Y-7466736D01*
X13112441Y-7224758D01*
X12589720Y-7038345D01*
X12035451Y-7066159D01*
X11652559Y-7224758D01*
X11583341Y-7466736D01*
X8150726Y-7466736D01*
X8202157Y-7389765D01*
X8251440Y-7142000D01*
X8251440Y-6955690D01*
X16018000Y-6955690D01*
X16018000Y-8096250D01*
X16176750Y-8255000D01*
X17526000Y-8255000D01*
X17526000Y-6605750D01*
X17780000Y-6605750D01*
X17780000Y-8255000D01*
X17800000Y-8255000D01*
X17800000Y-8509000D01*
X17780000Y-8509000D01*
X17780000Y-10158250D01*
X17938750Y-10317000D01*
X18779309Y-10317000D01*
X19012698Y-10220327D01*
X19191327Y-10041699D01*
X19211635Y-9992670D01*
X19555056Y-10222136D01*
X20193000Y-10349031D01*
X20830945Y-10222136D01*
X21371769Y-9860769D01*
X21463000Y-9724232D01*
X21554231Y-9860769D01*
X22095056Y-10222136D01*
X22733000Y-10349031D01*
X23370945Y-10222136D01*
X23911769Y-9860769D01*
X24003000Y-9724232D01*
X24094231Y-9860769D01*
X24635056Y-10222136D01*
X25273000Y-10349031D01*
X25910945Y-10222136D01*
X26451769Y-9860769D01*
X26813136Y-9319945D01*
X26908000Y-8843030D01*
X26908000Y-7920969D01*
X26813136Y-7444055D01*
X26451769Y-6903231D01*
X25910944Y-6541864D01*
X25273000Y-6414969D01*
X24635055Y-6541864D01*
X24094231Y-6903231D01*
X24003000Y-7039768D01*
X23911769Y-6903231D01*
X23370944Y-6541864D01*
X22733000Y-6414969D01*
X22095055Y-6541864D01*
X21554231Y-6903231D01*
X21463000Y-7039768D01*
X21371769Y-6903231D01*
X20830944Y-6541864D01*
X20193000Y-6414969D01*
X19555055Y-6541864D01*
X19211635Y-6771330D01*
X19191327Y-6722301D01*
X19012698Y-6543673D01*
X18779309Y-6447000D01*
X17938750Y-6447000D01*
X17780000Y-6605750D01*
X17526000Y-6605750D01*
X17367250Y-6447000D01*
X16526691Y-6447000D01*
X16293302Y-6543673D01*
X16114673Y-6722301D01*
X16018000Y-6955690D01*
X8251440Y-6955690D01*
X8251440Y-4542000D01*
X8202157Y-4294235D01*
X8061809Y-4084191D01*
X7851765Y-3943843D01*
X7604000Y-3894560D01*
X5604000Y-3894560D01*
X5356235Y-3943843D01*
X5146191Y-4084191D01*
X5047100Y-4232489D01*
X4701945Y-4001864D01*
X4064000Y-3874969D01*
X3426056Y-4001864D01*
X2885231Y-4363231D01*
X2523864Y-4904055D01*
X2429000Y-5380969D01*
X710000Y-5380969D01*
X710000Y-5069931D01*
X1049408Y-3363610D01*
X1976349Y-1976346D01*
X3363610Y-1049408D01*
X5069931Y-710000D01*
X45621412Y-710000D01*
X45645515Y-16907054D01*
X45645515Y-16907054D01*
G37*
X45645515Y-16907054D02*
X710000Y-16882131D01*
X710000Y-15494000D01*
X36433867Y-15494000D01*
X36541359Y-16034400D01*
X36847471Y-16492529D01*
X37305600Y-16798641D01*
X37709593Y-16879000D01*
X37982407Y-16879000D01*
X38386400Y-16798641D01*
X38844529Y-16492529D01*
X39150641Y-16034400D01*
X39258133Y-15494000D01*
X39150641Y-14953600D01*
X38844529Y-14495471D01*
X38621408Y-14346386D01*
X38843765Y-14302157D01*
X39053809Y-14161809D01*
X39194157Y-13951765D01*
X39243440Y-13704000D01*
X39243440Y-12204000D01*
X39194157Y-11956235D01*
X39053809Y-11746191D01*
X38843765Y-11605843D01*
X38596000Y-11556560D01*
X37096000Y-11556560D01*
X36848235Y-11605843D01*
X36638191Y-11746191D01*
X36497843Y-11956235D01*
X36448560Y-12204000D01*
X36448560Y-13704000D01*
X36497843Y-13951765D01*
X36638191Y-14161809D01*
X36848235Y-14302157D01*
X37070592Y-14346386D01*
X36847471Y-14495471D01*
X36541359Y-14953600D01*
X36433867Y-15494000D01*
X710000Y-15494000D01*
X710000Y-12765500D01*
X10975060Y-12765500D01*
X10975060Y-14285500D01*
X11024343Y-14533265D01*
X11164691Y-14743309D01*
X11374735Y-14883657D01*
X11622500Y-14932940D01*
X13142500Y-14932940D01*
X13390265Y-14883657D01*
X13600309Y-14743309D01*
X13740657Y-14533265D01*
X13789940Y-14285500D01*
X13789940Y-12765500D01*
X13740657Y-12517735D01*
X13600309Y-12307691D01*
X13390265Y-12167343D01*
X13209451Y-12131377D01*
X13565124Y-11775704D01*
X13777500Y-11262983D01*
X13777500Y-10708017D01*
X13565124Y-10195296D01*
X13172704Y-9802876D01*
X12977641Y-9722078D01*
X13112441Y-9666242D01*
X13181659Y-9424264D01*
X12382500Y-8625105D01*
X11583341Y-9424264D01*
X11652559Y-9666242D01*
X11797431Y-9717906D01*
X11592296Y-9802876D01*
X11199876Y-10195296D01*
X10987500Y-10708017D01*
X10987500Y-11262983D01*
X11199876Y-11775704D01*
X11555549Y-12131377D01*
X11374735Y-12167343D01*
X11164691Y-12307691D01*
X11024343Y-12517735D01*
X10975060Y-12765500D01*
X710000Y-12765500D01*
X710000Y-8238280D01*
X10975345Y-8238280D01*
X11003159Y-8792549D01*
X11161758Y-9175441D01*
X11403736Y-9244659D01*
X12202895Y-8445500D01*
X12562105Y-8445500D01*
X13361264Y-9244659D01*
X13603242Y-9175441D01*
X13784294Y-8667750D01*
X16018000Y-8667750D01*
X16018000Y-9808310D01*
X16114673Y-10041699D01*
X16293302Y-10220327D01*
X16526691Y-10317000D01*
X17367250Y-10317000D01*
X17526000Y-10158250D01*
X17526000Y-8509000D01*
X16176750Y-8509000D01*
X16018000Y-8667750D01*
X13784294Y-8667750D01*
X13789655Y-8652720D01*
X13761841Y-8098451D01*
X13603242Y-7715559D01*
X13361264Y-7646341D01*
X12562105Y-8445500D01*
X12202895Y-8445500D01*
X11403736Y-7646341D01*
X11161758Y-7715559D01*
X10975345Y-8238280D01*
X710000Y-8238280D01*
X710000Y-5380969D01*
X2429000Y-5380969D01*
X2429000Y-6303030D01*
X2523864Y-6779944D01*
X2885231Y-7320769D01*
X3426055Y-7682136D01*
X4064000Y-7809031D01*
X4701944Y-7682136D01*
X5047100Y-7451510D01*
X5146191Y-7599809D01*
X5356235Y-7740157D01*
X5604000Y-7789440D01*
X7604000Y-7789440D01*
X7851765Y-7740157D01*
X8061809Y-7599809D01*
X8150726Y-7466736D01*
X11583341Y-7466736D01*
X12382500Y-8265895D01*
X13181659Y-7466736D01*
X13112441Y-7224758D01*
X12589720Y-7038345D01*
X12035451Y-7066159D01*
X11652559Y-7224758D01*
X11583341Y-7466736D01*
X8150726Y-7466736D01*
X8202157Y-7389765D01*
X8251440Y-7142000D01*
X8251440Y-6955690D01*
X16018000Y-6955690D01*
X16018000Y-8096250D01*
X16176750Y-8255000D01*
X17526000Y-8255000D01*
X17526000Y-6605750D01*
X17780000Y-6605750D01*
X17780000Y-8255000D01*
X17800000Y-8255000D01*
X17800000Y-8509000D01*
X17780000Y-8509000D01*
X17780000Y-10158250D01*
X17938750Y-10317000D01*
X18779309Y-10317000D01*
X19012698Y-10220327D01*
X19191327Y-10041699D01*
X19211635Y-9992670D01*
X19555056Y-10222136D01*
X20193000Y-10349031D01*
X20830945Y-10222136D01*
X21371769Y-9860769D01*
X21463000Y-9724232D01*
X21554231Y-9860769D01*
X22095056Y-10222136D01*
X22733000Y-10349031D01*
X23370945Y-10222136D01*
X23911769Y-9860769D01*
X24003000Y-9724232D01*
X24094231Y-9860769D01*
X24635056Y-10222136D01*
X25273000Y-10349031D01*
X25910945Y-10222136D01*
X26451769Y-9860769D01*
X26813136Y-9319945D01*
X26908000Y-8843030D01*
X26908000Y-7920969D01*
X26813136Y-7444055D01*
X26451769Y-6903231D01*
X25910944Y-6541864D01*
X25273000Y-6414969D01*
X24635055Y-6541864D01*
X24094231Y-6903231D01*
X24003000Y-7039768D01*
X23911769Y-6903231D01*
X23370944Y-6541864D01*
X22733000Y-6414969D01*
X22095055Y-6541864D01*
X21554231Y-6903231D01*
X21463000Y-7039768D01*
X21371769Y-6903231D01*
X20830944Y-6541864D01*
X20193000Y-6414969D01*
X19555055Y-6541864D01*
X19211635Y-6771330D01*
X19191327Y-6722301D01*
X19012698Y-6543673D01*
X18779309Y-6447000D01*
X17938750Y-6447000D01*
X17780000Y-6605750D01*
X17526000Y-6605750D01*
X17367250Y-6447000D01*
X16526691Y-6447000D01*
X16293302Y-6543673D01*
X16114673Y-6722301D01*
X16018000Y-6955690D01*
X8251440Y-6955690D01*
X8251440Y-4542000D01*
X8202157Y-4294235D01*
X8061809Y-4084191D01*
X7851765Y-3943843D01*
X7604000Y-3894560D01*
X5604000Y-3894560D01*
X5356235Y-3943843D01*
X5146191Y-4084191D01*
X5047100Y-4232489D01*
X4701945Y-4001864D01*
X4064000Y-3874969D01*
X3426056Y-4001864D01*
X2885231Y-4363231D01*
X2523864Y-4904055D01*
X2429000Y-5380969D01*
X710000Y-5380969D01*
X710000Y-5069931D01*
X1049408Y-3363610D01*
X1976349Y-1976346D01*
X3363610Y-1049408D01*
X5069931Y-710000D01*
X45621412Y-710000D01*
X45645515Y-16907054D01*
M02*
