G04 #@! TF.GenerationSoftware,KiCad,Pcbnew,no-vcs-found-dc66b73~61~ubuntu17.10.1*
G04 #@! TF.CreationDate,2018-02-04T10:14:16-05:00*
G04 #@! TF.ProjectId,VBUS-Sense,564255532D53656E73652E6B69636164,rev?*
G04 #@! TF.SameCoordinates,Original*
G04 #@! TF.FileFunction,Legend,Bot*
G04 #@! TF.FilePolarity,Positive*
%FSLAX46Y46*%
G04 Gerber Fmt 4.6, Leading zero omitted, Abs format (unit mm)*
G04 Created by KiCad (PCBNEW no-vcs-found-dc66b73~61~ubuntu17.10.1) date Sun Feb  4 10:14:16 2018*
%MOMM*%
%LPD*%
G01*
G04 APERTURE LIST*
%ADD10C,0.200000*%
%ADD11C,0.010000*%
G04 APERTURE END LIST*
D10*
X49812761Y-66102380D02*
X49479428Y-67102380D01*
X49146095Y-66102380D01*
X48479428Y-66578571D02*
X48336571Y-66626190D01*
X48288952Y-66673809D01*
X48241333Y-66769047D01*
X48241333Y-66911904D01*
X48288952Y-67007142D01*
X48336571Y-67054761D01*
X48431809Y-67102380D01*
X48812761Y-67102380D01*
X48812761Y-66102380D01*
X48479428Y-66102380D01*
X48384190Y-66150000D01*
X48336571Y-66197619D01*
X48288952Y-66292857D01*
X48288952Y-66388095D01*
X48336571Y-66483333D01*
X48384190Y-66530952D01*
X48479428Y-66578571D01*
X48812761Y-66578571D01*
X47812761Y-66102380D02*
X47812761Y-66911904D01*
X47765142Y-67007142D01*
X47717523Y-67054761D01*
X47622285Y-67102380D01*
X47431809Y-67102380D01*
X47336571Y-67054761D01*
X47288952Y-67007142D01*
X47241333Y-66911904D01*
X47241333Y-66102380D01*
X46812761Y-67054761D02*
X46669904Y-67102380D01*
X46431809Y-67102380D01*
X46336571Y-67054761D01*
X46288952Y-67007142D01*
X46241333Y-66911904D01*
X46241333Y-66816666D01*
X46288952Y-66721428D01*
X46336571Y-66673809D01*
X46431809Y-66626190D01*
X46622285Y-66578571D01*
X46717523Y-66530952D01*
X46765142Y-66483333D01*
X46812761Y-66388095D01*
X46812761Y-66292857D01*
X46765142Y-66197619D01*
X46717523Y-66150000D01*
X46622285Y-66102380D01*
X46384190Y-66102380D01*
X46241333Y-66150000D01*
X45812761Y-66721428D02*
X45050857Y-66721428D01*
X44622285Y-67054761D02*
X44479428Y-67102380D01*
X44241333Y-67102380D01*
X44146095Y-67054761D01*
X44098476Y-67007142D01*
X44050857Y-66911904D01*
X44050857Y-66816666D01*
X44098476Y-66721428D01*
X44146095Y-66673809D01*
X44241333Y-66626190D01*
X44431809Y-66578571D01*
X44527047Y-66530952D01*
X44574666Y-66483333D01*
X44622285Y-66388095D01*
X44622285Y-66292857D01*
X44574666Y-66197619D01*
X44527047Y-66150000D01*
X44431809Y-66102380D01*
X44193714Y-66102380D01*
X44050857Y-66150000D01*
X43241333Y-67054761D02*
X43336571Y-67102380D01*
X43527047Y-67102380D01*
X43622285Y-67054761D01*
X43669904Y-66959523D01*
X43669904Y-66578571D01*
X43622285Y-66483333D01*
X43527047Y-66435714D01*
X43336571Y-66435714D01*
X43241333Y-66483333D01*
X43193714Y-66578571D01*
X43193714Y-66673809D01*
X43669904Y-66769047D01*
X42765142Y-66435714D02*
X42765142Y-67102380D01*
X42765142Y-66530952D02*
X42717523Y-66483333D01*
X42622285Y-66435714D01*
X42479428Y-66435714D01*
X42384190Y-66483333D01*
X42336571Y-66578571D01*
X42336571Y-67102380D01*
X41908000Y-67054761D02*
X41812761Y-67102380D01*
X41622285Y-67102380D01*
X41527047Y-67054761D01*
X41479428Y-66959523D01*
X41479428Y-66911904D01*
X41527047Y-66816666D01*
X41622285Y-66769047D01*
X41765142Y-66769047D01*
X41860380Y-66721428D01*
X41908000Y-66626190D01*
X41908000Y-66578571D01*
X41860380Y-66483333D01*
X41765142Y-66435714D01*
X41622285Y-66435714D01*
X41527047Y-66483333D01*
X40669904Y-67054761D02*
X40765142Y-67102380D01*
X40955619Y-67102380D01*
X41050857Y-67054761D01*
X41098476Y-66959523D01*
X41098476Y-66578571D01*
X41050857Y-66483333D01*
X40955619Y-66435714D01*
X40765142Y-66435714D01*
X40669904Y-66483333D01*
X40622285Y-66578571D01*
X40622285Y-66673809D01*
X41098476Y-66769047D01*
X38050857Y-66102380D02*
X37717523Y-67102380D01*
X37384190Y-66102380D01*
X36860380Y-66102380D02*
X36765142Y-66102380D01*
X36669904Y-66150000D01*
X36622285Y-66197619D01*
X36574666Y-66292857D01*
X36527047Y-66483333D01*
X36527047Y-66721428D01*
X36574666Y-66911904D01*
X36622285Y-67007142D01*
X36669904Y-67054761D01*
X36765142Y-67102380D01*
X36860380Y-67102380D01*
X36955619Y-67054761D01*
X37003238Y-67007142D01*
X37050857Y-66911904D01*
X37098476Y-66721428D01*
X37098476Y-66483333D01*
X37050857Y-66292857D01*
X37003238Y-66197619D01*
X36955619Y-66150000D01*
X36860380Y-66102380D01*
X36098476Y-67007142D02*
X36050857Y-67054761D01*
X36098476Y-67102380D01*
X36146095Y-67054761D01*
X36098476Y-67007142D01*
X36098476Y-67102380D01*
X35098476Y-67102380D02*
X35669904Y-67102380D01*
X35384190Y-67102380D02*
X35384190Y-66102380D01*
X35479428Y-66245238D01*
X35574666Y-66340476D01*
X35669904Y-66388095D01*
X49479428Y-67802380D02*
X49384190Y-67802380D01*
X49288952Y-67850000D01*
X49241333Y-67897619D01*
X49193714Y-67992857D01*
X49146095Y-68183333D01*
X49146095Y-68421428D01*
X49193714Y-68611904D01*
X49241333Y-68707142D01*
X49288952Y-68754761D01*
X49384190Y-68802380D01*
X49479428Y-68802380D01*
X49574666Y-68754761D01*
X49622285Y-68707142D01*
X49669904Y-68611904D01*
X49717523Y-68421428D01*
X49717523Y-68183333D01*
X49669904Y-67992857D01*
X49622285Y-67897619D01*
X49574666Y-67850000D01*
X49479428Y-67802380D01*
X48193714Y-68802380D02*
X48765142Y-68802380D01*
X48479428Y-68802380D02*
X48479428Y-67802380D01*
X48574666Y-67945238D01*
X48669904Y-68040476D01*
X48765142Y-68088095D01*
X47050857Y-67754761D02*
X47908000Y-69040476D01*
X46765142Y-67897619D02*
X46717523Y-67850000D01*
X46622285Y-67802380D01*
X46384190Y-67802380D01*
X46288952Y-67850000D01*
X46241333Y-67897619D01*
X46193714Y-67992857D01*
X46193714Y-68088095D01*
X46241333Y-68230952D01*
X46812761Y-68802380D01*
X46193714Y-68802380D01*
X45574666Y-67802380D02*
X45479428Y-67802380D01*
X45384190Y-67850000D01*
X45336571Y-67897619D01*
X45288952Y-67992857D01*
X45241333Y-68183333D01*
X45241333Y-68421428D01*
X45288952Y-68611904D01*
X45336571Y-68707142D01*
X45384190Y-68754761D01*
X45479428Y-68802380D01*
X45574666Y-68802380D01*
X45669904Y-68754761D01*
X45717523Y-68707142D01*
X45765142Y-68611904D01*
X45812761Y-68421428D01*
X45812761Y-68183333D01*
X45765142Y-67992857D01*
X45717523Y-67897619D01*
X45669904Y-67850000D01*
X45574666Y-67802380D01*
X44288952Y-68802380D02*
X44860380Y-68802380D01*
X44574666Y-68802380D02*
X44574666Y-67802380D01*
X44669904Y-67945238D01*
X44765142Y-68040476D01*
X44860380Y-68088095D01*
X43717523Y-68230952D02*
X43812761Y-68183333D01*
X43860380Y-68135714D01*
X43908000Y-68040476D01*
X43908000Y-67992857D01*
X43860380Y-67897619D01*
X43812761Y-67850000D01*
X43717523Y-67802380D01*
X43527047Y-67802380D01*
X43431809Y-67850000D01*
X43384190Y-67897619D01*
X43336571Y-67992857D01*
X43336571Y-68040476D01*
X43384190Y-68135714D01*
X43431809Y-68183333D01*
X43527047Y-68230952D01*
X43717523Y-68230952D01*
X43812761Y-68278571D01*
X43860380Y-68326190D01*
X43908000Y-68421428D01*
X43908000Y-68611904D01*
X43860380Y-68707142D01*
X43812761Y-68754761D01*
X43717523Y-68802380D01*
X43527047Y-68802380D01*
X43431809Y-68754761D01*
X43384190Y-68707142D01*
X43336571Y-68611904D01*
X43336571Y-68421428D01*
X43384190Y-68326190D01*
X43431809Y-68278571D01*
X43527047Y-68230952D01*
X41384190Y-68802380D02*
X41384190Y-67802380D01*
X40955619Y-68802380D02*
X40955619Y-68278571D01*
X41003238Y-68183333D01*
X41098476Y-68135714D01*
X41241333Y-68135714D01*
X41336571Y-68183333D01*
X41384190Y-68230952D01*
X40622285Y-68135714D02*
X40241333Y-68135714D01*
X40479428Y-67802380D02*
X40479428Y-68659523D01*
X40431809Y-68754761D01*
X40336571Y-68802380D01*
X40241333Y-68802380D01*
X40050857Y-68135714D02*
X39669904Y-68135714D01*
X39908000Y-67802380D02*
X39908000Y-68659523D01*
X39860380Y-68754761D01*
X39765142Y-68802380D01*
X39669904Y-68802380D01*
X39336571Y-68135714D02*
X39336571Y-69135714D01*
X39336571Y-68183333D02*
X39241333Y-68135714D01*
X39050857Y-68135714D01*
X38955619Y-68183333D01*
X38908000Y-68230952D01*
X38860380Y-68326190D01*
X38860380Y-68611904D01*
X38908000Y-68707142D01*
X38955619Y-68754761D01*
X39050857Y-68802380D01*
X39241333Y-68802380D01*
X39336571Y-68754761D01*
X38479428Y-68754761D02*
X38384190Y-68802380D01*
X38193714Y-68802380D01*
X38098476Y-68754761D01*
X38050857Y-68659523D01*
X38050857Y-68611904D01*
X38098476Y-68516666D01*
X38193714Y-68469047D01*
X38336571Y-68469047D01*
X38431809Y-68421428D01*
X38479428Y-68326190D01*
X38479428Y-68278571D01*
X38431809Y-68183333D01*
X38336571Y-68135714D01*
X38193714Y-68135714D01*
X38098476Y-68183333D01*
X37622285Y-68707142D02*
X37574666Y-68754761D01*
X37622285Y-68802380D01*
X37669904Y-68754761D01*
X37622285Y-68707142D01*
X37622285Y-68802380D01*
X37622285Y-68183333D02*
X37574666Y-68230952D01*
X37622285Y-68278571D01*
X37669904Y-68230952D01*
X37622285Y-68183333D01*
X37622285Y-68278571D01*
X36431809Y-67754761D02*
X37288952Y-69040476D01*
X35384190Y-67754761D02*
X36241333Y-69040476D01*
X34622285Y-68135714D02*
X34622285Y-68945238D01*
X34669904Y-69040476D01*
X34717523Y-69088095D01*
X34812761Y-69135714D01*
X34955619Y-69135714D01*
X35050857Y-69088095D01*
X34622285Y-68754761D02*
X34717523Y-68802380D01*
X34908000Y-68802380D01*
X35003238Y-68754761D01*
X35050857Y-68707142D01*
X35098476Y-68611904D01*
X35098476Y-68326190D01*
X35050857Y-68230952D01*
X35003238Y-68183333D01*
X34908000Y-68135714D01*
X34717523Y-68135714D01*
X34622285Y-68183333D01*
X34146095Y-68802380D02*
X34146095Y-68135714D01*
X34146095Y-67802380D02*
X34193714Y-67850000D01*
X34146095Y-67897619D01*
X34098476Y-67850000D01*
X34146095Y-67802380D01*
X34146095Y-67897619D01*
X33812761Y-68135714D02*
X33431809Y-68135714D01*
X33669904Y-67802380D02*
X33669904Y-68659523D01*
X33622285Y-68754761D01*
X33527047Y-68802380D01*
X33431809Y-68802380D01*
X33098476Y-68802380D02*
X33098476Y-67802380D01*
X32669904Y-68802380D02*
X32669904Y-68278571D01*
X32717523Y-68183333D01*
X32812761Y-68135714D01*
X32955619Y-68135714D01*
X33050857Y-68183333D01*
X33098476Y-68230952D01*
X31765142Y-68135714D02*
X31765142Y-68802380D01*
X32193714Y-68135714D02*
X32193714Y-68659523D01*
X32146095Y-68754761D01*
X32050857Y-68802380D01*
X31908000Y-68802380D01*
X31812761Y-68754761D01*
X31765142Y-68707142D01*
X31288952Y-68802380D02*
X31288952Y-67802380D01*
X31288952Y-68183333D02*
X31193714Y-68135714D01*
X31003238Y-68135714D01*
X30908000Y-68183333D01*
X30860380Y-68230952D01*
X30812761Y-68326190D01*
X30812761Y-68611904D01*
X30860380Y-68707142D01*
X30908000Y-68754761D01*
X31003238Y-68802380D01*
X31193714Y-68802380D01*
X31288952Y-68754761D01*
X30384190Y-68707142D02*
X30336571Y-68754761D01*
X30384190Y-68802380D01*
X30431809Y-68754761D01*
X30384190Y-68707142D01*
X30384190Y-68802380D01*
X29479428Y-68754761D02*
X29574666Y-68802380D01*
X29765142Y-68802380D01*
X29860380Y-68754761D01*
X29908000Y-68707142D01*
X29955619Y-68611904D01*
X29955619Y-68326190D01*
X29908000Y-68230952D01*
X29860380Y-68183333D01*
X29765142Y-68135714D01*
X29574666Y-68135714D01*
X29479428Y-68183333D01*
X28908000Y-68802380D02*
X29003238Y-68754761D01*
X29050857Y-68707142D01*
X29098476Y-68611904D01*
X29098476Y-68326190D01*
X29050857Y-68230952D01*
X29003238Y-68183333D01*
X28908000Y-68135714D01*
X28765142Y-68135714D01*
X28669904Y-68183333D01*
X28622285Y-68230952D01*
X28574666Y-68326190D01*
X28574666Y-68611904D01*
X28622285Y-68707142D01*
X28669904Y-68754761D01*
X28765142Y-68802380D01*
X28908000Y-68802380D01*
X28146095Y-68802380D02*
X28146095Y-68135714D01*
X28146095Y-68230952D02*
X28098476Y-68183333D01*
X28003238Y-68135714D01*
X27860380Y-68135714D01*
X27765142Y-68183333D01*
X27717523Y-68278571D01*
X27717523Y-68802380D01*
X27717523Y-68278571D02*
X27669904Y-68183333D01*
X27574666Y-68135714D01*
X27431809Y-68135714D01*
X27336571Y-68183333D01*
X27288952Y-68278571D01*
X27288952Y-68802380D01*
X26098476Y-67754761D02*
X26955619Y-69040476D01*
X25765142Y-68278571D02*
X25431809Y-68278571D01*
X25288952Y-68802380D02*
X25765142Y-68802380D01*
X25765142Y-67802380D01*
X25288952Y-67802380D01*
X24860380Y-68135714D02*
X24860380Y-68802380D01*
X24860380Y-68230952D02*
X24812761Y-68183333D01*
X24717523Y-68135714D01*
X24574666Y-68135714D01*
X24479428Y-68183333D01*
X24431809Y-68278571D01*
X24431809Y-68802380D01*
X23955619Y-68135714D02*
X23955619Y-68802380D01*
X23955619Y-68230952D02*
X23908000Y-68183333D01*
X23812761Y-68135714D01*
X23669904Y-68135714D01*
X23574666Y-68183333D01*
X23527047Y-68278571D01*
X23527047Y-68802380D01*
X22908000Y-68802380D02*
X23003238Y-68754761D01*
X23050857Y-68707142D01*
X23098476Y-68611904D01*
X23098476Y-68326190D01*
X23050857Y-68230952D01*
X23003238Y-68183333D01*
X22908000Y-68135714D01*
X22765142Y-68135714D01*
X22669904Y-68183333D01*
X22622285Y-68230952D01*
X22574666Y-68326190D01*
X22574666Y-68611904D01*
X22622285Y-68707142D01*
X22669904Y-68754761D01*
X22765142Y-68802380D01*
X22908000Y-68802380D01*
X22146095Y-68802380D02*
X22146095Y-68135714D01*
X22146095Y-67802380D02*
X22193714Y-67850000D01*
X22146095Y-67897619D01*
X22098476Y-67850000D01*
X22146095Y-67802380D01*
X22146095Y-67897619D01*
X21241333Y-68802380D02*
X21241333Y-67802380D01*
X21241333Y-68754761D02*
X21336571Y-68802380D01*
X21527047Y-68802380D01*
X21622285Y-68754761D01*
X21669904Y-68707142D01*
X21717523Y-68611904D01*
X21717523Y-68326190D01*
X21669904Y-68230952D01*
X21622285Y-68183333D01*
X21527047Y-68135714D01*
X21336571Y-68135714D01*
X21241333Y-68183333D01*
X20765142Y-68802380D02*
X20765142Y-67802380D01*
X20431809Y-68516666D01*
X20098476Y-67802380D01*
X20098476Y-68802380D01*
X19241333Y-68754761D02*
X19336571Y-68802380D01*
X19527047Y-68802380D01*
X19622285Y-68754761D01*
X19669904Y-68659523D01*
X19669904Y-68278571D01*
X19622285Y-68183333D01*
X19527047Y-68135714D01*
X19336571Y-68135714D01*
X19241333Y-68183333D01*
X19193714Y-68278571D01*
X19193714Y-68373809D01*
X19669904Y-68469047D01*
D11*
G36*
X18264724Y-65460250D02*
X19612695Y-65460250D01*
X19612695Y-58112487D01*
X18264724Y-58112487D01*
X18264724Y-65460250D01*
X18264724Y-65460250D01*
G37*
X18264724Y-65460250D02*
X19612695Y-65460250D01*
X19612695Y-58112487D01*
X18264724Y-58112487D01*
X18264724Y-65460250D01*
G36*
X34395727Y-58343757D02*
X34176629Y-58591875D01*
X33943506Y-58867007D01*
X33693749Y-59172411D01*
X33424754Y-59511346D01*
X33133913Y-59887068D01*
X32818620Y-60302837D01*
X32673500Y-60496586D01*
X32548160Y-60665994D01*
X32408227Y-60857727D01*
X32257712Y-61066079D01*
X32100621Y-61285349D01*
X31940966Y-61509831D01*
X31782754Y-61733824D01*
X31629994Y-61951622D01*
X31486696Y-62157523D01*
X31356868Y-62345822D01*
X31244519Y-62510817D01*
X31153659Y-62646804D01*
X31088295Y-62748079D01*
X31070001Y-62777903D01*
X30991155Y-62909678D01*
X30984407Y-60511083D01*
X30977660Y-58112487D01*
X29629968Y-58112487D01*
X29629968Y-65460250D01*
X30780762Y-65460250D01*
X30897420Y-65268627D01*
X31078810Y-64974217D01*
X31284148Y-64647089D01*
X31506714Y-64297579D01*
X31739788Y-63936025D01*
X31976651Y-63572765D01*
X32210581Y-63218136D01*
X32434859Y-62882475D01*
X32642766Y-62576120D01*
X32731571Y-62447139D01*
X32837378Y-62296464D01*
X32965060Y-62118178D01*
X33109342Y-61919359D01*
X33264947Y-61707087D01*
X33426602Y-61488439D01*
X33589030Y-61270495D01*
X33746957Y-61060335D01*
X33895107Y-60865037D01*
X34028205Y-60691679D01*
X34140975Y-60547342D01*
X34226314Y-60441318D01*
X34387513Y-60246007D01*
X34387513Y-65460250D01*
X35735483Y-65460250D01*
X35735483Y-58112487D01*
X34604679Y-58112487D01*
X34395727Y-58343757D01*
X34395727Y-58343757D01*
G37*
X34395727Y-58343757D02*
X34176629Y-58591875D01*
X33943506Y-58867007D01*
X33693749Y-59172411D01*
X33424754Y-59511346D01*
X33133913Y-59887068D01*
X32818620Y-60302837D01*
X32673500Y-60496586D01*
X32548160Y-60665994D01*
X32408227Y-60857727D01*
X32257712Y-61066079D01*
X32100621Y-61285349D01*
X31940966Y-61509831D01*
X31782754Y-61733824D01*
X31629994Y-61951622D01*
X31486696Y-62157523D01*
X31356868Y-62345822D01*
X31244519Y-62510817D01*
X31153659Y-62646804D01*
X31088295Y-62748079D01*
X31070001Y-62777903D01*
X30991155Y-62909678D01*
X30984407Y-60511083D01*
X30977660Y-58112487D01*
X29629968Y-58112487D01*
X29629968Y-65460250D01*
X30780762Y-65460250D01*
X30897420Y-65268627D01*
X31078810Y-64974217D01*
X31284148Y-64647089D01*
X31506714Y-64297579D01*
X31739788Y-63936025D01*
X31976651Y-63572765D01*
X32210581Y-63218136D01*
X32434859Y-62882475D01*
X32642766Y-62576120D01*
X32731571Y-62447139D01*
X32837378Y-62296464D01*
X32965060Y-62118178D01*
X33109342Y-61919359D01*
X33264947Y-61707087D01*
X33426602Y-61488439D01*
X33589030Y-61270495D01*
X33746957Y-61060335D01*
X33895107Y-60865037D01*
X34028205Y-60691679D01*
X34140975Y-60547342D01*
X34226314Y-60441318D01*
X34387513Y-60246007D01*
X34387513Y-65460250D01*
X35735483Y-65460250D01*
X35735483Y-58112487D01*
X34604679Y-58112487D01*
X34395727Y-58343757D01*
G36*
X42125581Y-58462695D02*
X41839541Y-58796309D01*
X41531926Y-59170216D01*
X41207089Y-59578642D01*
X40869383Y-60015813D01*
X40523160Y-60475956D01*
X40172775Y-60953298D01*
X39822579Y-61442064D01*
X39476926Y-61936482D01*
X39192710Y-62352769D01*
X38801456Y-62932385D01*
X38801456Y-58112487D01*
X37453486Y-58112487D01*
X37453486Y-65460250D01*
X38617742Y-65460250D01*
X38689776Y-65339003D01*
X38762488Y-65218907D01*
X38859678Y-65061833D01*
X38976758Y-64874957D01*
X39109143Y-64665454D01*
X39252244Y-64440501D01*
X39401476Y-64207275D01*
X39552252Y-63972950D01*
X39699984Y-63744704D01*
X39840086Y-63529711D01*
X39967971Y-63335149D01*
X40039601Y-63227196D01*
X40439813Y-62636100D01*
X40836269Y-62068931D01*
X41224551Y-61531797D01*
X41600246Y-61030810D01*
X41957340Y-60574070D01*
X42197814Y-60273633D01*
X42204552Y-62866942D01*
X42211289Y-65460250D01*
X43559001Y-65460250D01*
X43559001Y-58112487D01*
X42433364Y-58112487D01*
X42125581Y-58462695D01*
X42125581Y-58462695D01*
G37*
X42125581Y-58462695D02*
X41839541Y-58796309D01*
X41531926Y-59170216D01*
X41207089Y-59578642D01*
X40869383Y-60015813D01*
X40523160Y-60475956D01*
X40172775Y-60953298D01*
X39822579Y-61442064D01*
X39476926Y-61936482D01*
X39192710Y-62352769D01*
X38801456Y-62932385D01*
X38801456Y-58112487D01*
X37453486Y-58112487D01*
X37453486Y-65460250D01*
X38617742Y-65460250D01*
X38689776Y-65339003D01*
X38762488Y-65218907D01*
X38859678Y-65061833D01*
X38976758Y-64874957D01*
X39109143Y-64665454D01*
X39252244Y-64440501D01*
X39401476Y-64207275D01*
X39552252Y-63972950D01*
X39699984Y-63744704D01*
X39840086Y-63529711D01*
X39967971Y-63335149D01*
X40039601Y-63227196D01*
X40439813Y-62636100D01*
X40836269Y-62068931D01*
X41224551Y-61531797D01*
X41600246Y-61030810D01*
X41957340Y-60574070D01*
X42197814Y-60273633D01*
X42204552Y-62866942D01*
X42211289Y-65460250D01*
X43559001Y-65460250D01*
X43559001Y-58112487D01*
X42433364Y-58112487D01*
X42125581Y-58462695D01*
G36*
X45012695Y-59275443D02*
X48395837Y-59275443D01*
X48395837Y-61046306D01*
X45382726Y-61046306D01*
X45382726Y-62182831D01*
X48395837Y-62182831D01*
X48395837Y-64297295D01*
X44774817Y-64297295D01*
X44774817Y-65460250D01*
X49770239Y-65460250D01*
X49770239Y-58112487D01*
X45012695Y-58112487D01*
X45012695Y-59275443D01*
X45012695Y-59275443D01*
G37*
X45012695Y-59275443D02*
X48395837Y-59275443D01*
X48395837Y-61046306D01*
X45382726Y-61046306D01*
X45382726Y-62182831D01*
X48395837Y-62182831D01*
X48395837Y-64297295D01*
X44774817Y-64297295D01*
X44774817Y-65460250D01*
X49770239Y-65460250D01*
X49770239Y-58112487D01*
X45012695Y-58112487D01*
X45012695Y-59275443D01*
G36*
X14221357Y-58047397D02*
X13961424Y-58055122D01*
X13728997Y-58069084D01*
X13532104Y-58089589D01*
X13498794Y-58094337D01*
X13049686Y-58176317D01*
X12644252Y-58281796D01*
X12277796Y-58412944D01*
X11945622Y-58571935D01*
X11643035Y-58760942D01*
X11365337Y-58982137D01*
X11168641Y-59172485D01*
X10921696Y-59466569D01*
X10715450Y-59789892D01*
X10549282Y-60144034D01*
X10422569Y-60530576D01*
X10334689Y-60951098D01*
X10285021Y-61407181D01*
X10284208Y-61419950D01*
X10273317Y-61920754D01*
X10304867Y-62392778D01*
X10378488Y-62835273D01*
X10493808Y-63247488D01*
X10650458Y-63628674D01*
X10848066Y-63978082D01*
X11086261Y-64294961D01*
X11364674Y-64578563D01*
X11682932Y-64828137D01*
X12040666Y-65042934D01*
X12088100Y-65067281D01*
X12406769Y-65211032D01*
X12739764Y-65326856D01*
X13093371Y-65415952D01*
X13473878Y-65479521D01*
X13887574Y-65518765D01*
X14340744Y-65534884D01*
X14537819Y-65535099D01*
X14712989Y-65533380D01*
X14876520Y-65531125D01*
X15018772Y-65528518D01*
X15130103Y-65525742D01*
X15200872Y-65522981D01*
X15211966Y-65522247D01*
X15539298Y-65494359D01*
X15824684Y-65466177D01*
X16065787Y-65437990D01*
X16260267Y-65410090D01*
X16405784Y-65382769D01*
X16474037Y-65365143D01*
X16480610Y-65361089D01*
X16486531Y-65351414D01*
X16491834Y-65333493D01*
X16496553Y-65304699D01*
X16500721Y-65262408D01*
X16504373Y-65203994D01*
X16507542Y-65126832D01*
X16510263Y-65028295D01*
X16512569Y-64905760D01*
X16514495Y-64756600D01*
X16516073Y-64578190D01*
X16517339Y-64367905D01*
X16518326Y-64123119D01*
X16519068Y-63841206D01*
X16519599Y-63519542D01*
X16519953Y-63155500D01*
X16520163Y-62746456D01*
X16520265Y-62289784D01*
X16520291Y-61786369D01*
X16520264Y-61279786D01*
X16520163Y-60823439D01*
X16519951Y-60414704D01*
X16519596Y-60050955D01*
X16519064Y-59729566D01*
X16518321Y-59447914D01*
X16517543Y-59255177D01*
X15145889Y-59255177D01*
X15145889Y-64350156D01*
X14557804Y-64350001D01*
X14293563Y-64347467D01*
X14062074Y-64340213D01*
X13869901Y-64328536D01*
X13723610Y-64312733D01*
X13718516Y-64311976D01*
X13348529Y-64234701D01*
X13015795Y-64120003D01*
X12720257Y-63967819D01*
X12461858Y-63778084D01*
X12240542Y-63550732D01*
X12056254Y-63285700D01*
X11908937Y-62982923D01*
X11798535Y-62642335D01*
X11724992Y-62263873D01*
X11695989Y-61984600D01*
X11690486Y-61693150D01*
X11712202Y-61388597D01*
X11758688Y-61084847D01*
X11827494Y-60795807D01*
X11916169Y-60535386D01*
X11974028Y-60406361D01*
X12138686Y-60128068D01*
X12336867Y-59888172D01*
X12569828Y-59685858D01*
X12838829Y-59520307D01*
X13145129Y-59390702D01*
X13489984Y-59296226D01*
X13753577Y-59250750D01*
X13839417Y-59242591D01*
X13961549Y-59235735D01*
X14110265Y-59230265D01*
X14275858Y-59226266D01*
X14448621Y-59223820D01*
X14618846Y-59223013D01*
X14776827Y-59223927D01*
X14912855Y-59226647D01*
X15017223Y-59231257D01*
X15080224Y-59237840D01*
X15086420Y-59239240D01*
X15145889Y-59255177D01*
X16517543Y-59255177D01*
X16517333Y-59203372D01*
X16516065Y-58993315D01*
X16514485Y-58815119D01*
X16512557Y-58666157D01*
X16510249Y-58543806D01*
X16507525Y-58445439D01*
X16504353Y-58368432D01*
X16500699Y-58310159D01*
X16496527Y-58267995D01*
X16491806Y-58239316D01*
X16486499Y-58221495D01*
X16480574Y-58211908D01*
X16474037Y-58207941D01*
X16327775Y-58173330D01*
X16136773Y-58142197D01*
X15909060Y-58114849D01*
X15652662Y-58091591D01*
X15375606Y-58072731D01*
X15085921Y-58058575D01*
X14791633Y-58049430D01*
X14500769Y-58045601D01*
X14221357Y-58047397D01*
X14221357Y-58047397D01*
G37*
X14221357Y-58047397D02*
X13961424Y-58055122D01*
X13728997Y-58069084D01*
X13532104Y-58089589D01*
X13498794Y-58094337D01*
X13049686Y-58176317D01*
X12644252Y-58281796D01*
X12277796Y-58412944D01*
X11945622Y-58571935D01*
X11643035Y-58760942D01*
X11365337Y-58982137D01*
X11168641Y-59172485D01*
X10921696Y-59466569D01*
X10715450Y-59789892D01*
X10549282Y-60144034D01*
X10422569Y-60530576D01*
X10334689Y-60951098D01*
X10285021Y-61407181D01*
X10284208Y-61419950D01*
X10273317Y-61920754D01*
X10304867Y-62392778D01*
X10378488Y-62835273D01*
X10493808Y-63247488D01*
X10650458Y-63628674D01*
X10848066Y-63978082D01*
X11086261Y-64294961D01*
X11364674Y-64578563D01*
X11682932Y-64828137D01*
X12040666Y-65042934D01*
X12088100Y-65067281D01*
X12406769Y-65211032D01*
X12739764Y-65326856D01*
X13093371Y-65415952D01*
X13473878Y-65479521D01*
X13887574Y-65518765D01*
X14340744Y-65534884D01*
X14537819Y-65535099D01*
X14712989Y-65533380D01*
X14876520Y-65531125D01*
X15018772Y-65528518D01*
X15130103Y-65525742D01*
X15200872Y-65522981D01*
X15211966Y-65522247D01*
X15539298Y-65494359D01*
X15824684Y-65466177D01*
X16065787Y-65437990D01*
X16260267Y-65410090D01*
X16405784Y-65382769D01*
X16474037Y-65365143D01*
X16480610Y-65361089D01*
X16486531Y-65351414D01*
X16491834Y-65333493D01*
X16496553Y-65304699D01*
X16500721Y-65262408D01*
X16504373Y-65203994D01*
X16507542Y-65126832D01*
X16510263Y-65028295D01*
X16512569Y-64905760D01*
X16514495Y-64756600D01*
X16516073Y-64578190D01*
X16517339Y-64367905D01*
X16518326Y-64123119D01*
X16519068Y-63841206D01*
X16519599Y-63519542D01*
X16519953Y-63155500D01*
X16520163Y-62746456D01*
X16520265Y-62289784D01*
X16520291Y-61786369D01*
X16520264Y-61279786D01*
X16520163Y-60823439D01*
X16519951Y-60414704D01*
X16519596Y-60050955D01*
X16519064Y-59729566D01*
X16518321Y-59447914D01*
X16517543Y-59255177D01*
X15145889Y-59255177D01*
X15145889Y-64350156D01*
X14557804Y-64350001D01*
X14293563Y-64347467D01*
X14062074Y-64340213D01*
X13869901Y-64328536D01*
X13723610Y-64312733D01*
X13718516Y-64311976D01*
X13348529Y-64234701D01*
X13015795Y-64120003D01*
X12720257Y-63967819D01*
X12461858Y-63778084D01*
X12240542Y-63550732D01*
X12056254Y-63285700D01*
X11908937Y-62982923D01*
X11798535Y-62642335D01*
X11724992Y-62263873D01*
X11695989Y-61984600D01*
X11690486Y-61693150D01*
X11712202Y-61388597D01*
X11758688Y-61084847D01*
X11827494Y-60795807D01*
X11916169Y-60535386D01*
X11974028Y-60406361D01*
X12138686Y-60128068D01*
X12336867Y-59888172D01*
X12569828Y-59685858D01*
X12838829Y-59520307D01*
X13145129Y-59390702D01*
X13489984Y-59296226D01*
X13753577Y-59250750D01*
X13839417Y-59242591D01*
X13961549Y-59235735D01*
X14110265Y-59230265D01*
X14275858Y-59226266D01*
X14448621Y-59223820D01*
X14618846Y-59223013D01*
X14776827Y-59223927D01*
X14912855Y-59226647D01*
X15017223Y-59231257D01*
X15080224Y-59237840D01*
X15086420Y-59239240D01*
X15145889Y-59255177D01*
X16517543Y-59255177D01*
X16517333Y-59203372D01*
X16516065Y-58993315D01*
X16514485Y-58815119D01*
X16512557Y-58666157D01*
X16510249Y-58543806D01*
X16507525Y-58445439D01*
X16504353Y-58368432D01*
X16500699Y-58310159D01*
X16496527Y-58267995D01*
X16491806Y-58239316D01*
X16486499Y-58221495D01*
X16480574Y-58211908D01*
X16474037Y-58207941D01*
X16327775Y-58173330D01*
X16136773Y-58142197D01*
X15909060Y-58114849D01*
X15652662Y-58091591D01*
X15375606Y-58072731D01*
X15085921Y-58058575D01*
X14791633Y-58049430D01*
X14500769Y-58045601D01*
X14221357Y-58047397D01*
G36*
X24218936Y-57966088D02*
X24000145Y-57987429D01*
X23787832Y-58023842D01*
X23566853Y-58077025D01*
X23471876Y-58103596D01*
X23094970Y-58239536D01*
X22741507Y-58421450D01*
X22414083Y-58646735D01*
X22115295Y-58912788D01*
X21847738Y-59217005D01*
X21614011Y-59556783D01*
X21416708Y-59929518D01*
X21263235Y-60318145D01*
X21161518Y-60689055D01*
X21092149Y-61089618D01*
X21055064Y-61508717D01*
X21050197Y-61935236D01*
X21077484Y-62358059D01*
X21136860Y-62766067D01*
X21228261Y-63148145D01*
X21280685Y-63311119D01*
X21450301Y-63723264D01*
X21655813Y-64096879D01*
X21896623Y-64431433D01*
X22172130Y-64726389D01*
X22481735Y-64981216D01*
X22824839Y-65195378D01*
X23200842Y-65368342D01*
X23609146Y-65499574D01*
X23783502Y-65540715D01*
X23925487Y-65564006D01*
X24105437Y-65583152D01*
X24309296Y-65597622D01*
X24523006Y-65606883D01*
X24732510Y-65610405D01*
X24923752Y-65607655D01*
X25082676Y-65598103D01*
X25136732Y-65591889D01*
X25579745Y-65507415D01*
X25989832Y-65381655D01*
X26366894Y-65214682D01*
X26710830Y-65006566D01*
X27021542Y-64757378D01*
X27298930Y-64467188D01*
X27542895Y-64136067D01*
X27753337Y-63764086D01*
X27777838Y-63713549D01*
X27901964Y-63431468D01*
X27998917Y-63159188D01*
X28071462Y-62884295D01*
X28122365Y-62594376D01*
X28154392Y-62277016D01*
X28169406Y-61956087D01*
X28169417Y-61945027D01*
X26769006Y-61945027D01*
X26735881Y-62316901D01*
X26668228Y-62676741D01*
X26566774Y-63017409D01*
X26432249Y-63331767D01*
X26265380Y-63612674D01*
X26215019Y-63681669D01*
X26064719Y-63846764D01*
X25875919Y-64004761D01*
X25662925Y-64146086D01*
X25440042Y-64261166D01*
X25237358Y-64335976D01*
X24949018Y-64395780D01*
X24641992Y-64417234D01*
X24334227Y-64400095D01*
X24072053Y-64351632D01*
X23773565Y-64248581D01*
X23498417Y-64099276D01*
X23249775Y-63906325D01*
X23030804Y-63672334D01*
X22844672Y-63399912D01*
X22786308Y-63292924D01*
X22662834Y-63002182D01*
X22569922Y-62677876D01*
X22507716Y-62329681D01*
X22476362Y-61967268D01*
X22476007Y-61600311D01*
X22506796Y-61238481D01*
X22568874Y-60891451D01*
X22662388Y-60568894D01*
X22742293Y-60372173D01*
X22908795Y-60068156D01*
X23107613Y-59804808D01*
X23336669Y-59583490D01*
X23593883Y-59405562D01*
X23877176Y-59272383D01*
X24184467Y-59185314D01*
X24513679Y-59145714D01*
X24621332Y-59143289D01*
X24956692Y-59167806D01*
X25271276Y-59240154D01*
X25562493Y-59358531D01*
X25827751Y-59521131D01*
X26064458Y-59726150D01*
X26270023Y-59971785D01*
X26441854Y-60256232D01*
X26541653Y-60479982D01*
X26653925Y-60828598D01*
X26728756Y-61193737D01*
X26766874Y-61568260D01*
X26769006Y-61945027D01*
X28169417Y-61945027D01*
X28169828Y-61540284D01*
X28146379Y-61163097D01*
X28097189Y-60815072D01*
X28020384Y-60486759D01*
X27914094Y-60168706D01*
X27776446Y-59851460D01*
X27736562Y-59770466D01*
X27542090Y-59438231D01*
X27306433Y-59127574D01*
X27036319Y-58845053D01*
X26738475Y-58597224D01*
X26419627Y-58390646D01*
X26213501Y-58285775D01*
X25965036Y-58180100D01*
X25731962Y-58099079D01*
X25500283Y-58039644D01*
X25256005Y-57998725D01*
X24985133Y-57973252D01*
X24736532Y-57961832D01*
X24459351Y-57958121D01*
X24218936Y-57966088D01*
X24218936Y-57966088D01*
G37*
X24218936Y-57966088D02*
X24000145Y-57987429D01*
X23787832Y-58023842D01*
X23566853Y-58077025D01*
X23471876Y-58103596D01*
X23094970Y-58239536D01*
X22741507Y-58421450D01*
X22414083Y-58646735D01*
X22115295Y-58912788D01*
X21847738Y-59217005D01*
X21614011Y-59556783D01*
X21416708Y-59929518D01*
X21263235Y-60318145D01*
X21161518Y-60689055D01*
X21092149Y-61089618D01*
X21055064Y-61508717D01*
X21050197Y-61935236D01*
X21077484Y-62358059D01*
X21136860Y-62766067D01*
X21228261Y-63148145D01*
X21280685Y-63311119D01*
X21450301Y-63723264D01*
X21655813Y-64096879D01*
X21896623Y-64431433D01*
X22172130Y-64726389D01*
X22481735Y-64981216D01*
X22824839Y-65195378D01*
X23200842Y-65368342D01*
X23609146Y-65499574D01*
X23783502Y-65540715D01*
X23925487Y-65564006D01*
X24105437Y-65583152D01*
X24309296Y-65597622D01*
X24523006Y-65606883D01*
X24732510Y-65610405D01*
X24923752Y-65607655D01*
X25082676Y-65598103D01*
X25136732Y-65591889D01*
X25579745Y-65507415D01*
X25989832Y-65381655D01*
X26366894Y-65214682D01*
X26710830Y-65006566D01*
X27021542Y-64757378D01*
X27298930Y-64467188D01*
X27542895Y-64136067D01*
X27753337Y-63764086D01*
X27777838Y-63713549D01*
X27901964Y-63431468D01*
X27998917Y-63159188D01*
X28071462Y-62884295D01*
X28122365Y-62594376D01*
X28154392Y-62277016D01*
X28169406Y-61956087D01*
X28169417Y-61945027D01*
X26769006Y-61945027D01*
X26735881Y-62316901D01*
X26668228Y-62676741D01*
X26566774Y-63017409D01*
X26432249Y-63331767D01*
X26265380Y-63612674D01*
X26215019Y-63681669D01*
X26064719Y-63846764D01*
X25875919Y-64004761D01*
X25662925Y-64146086D01*
X25440042Y-64261166D01*
X25237358Y-64335976D01*
X24949018Y-64395780D01*
X24641992Y-64417234D01*
X24334227Y-64400095D01*
X24072053Y-64351632D01*
X23773565Y-64248581D01*
X23498417Y-64099276D01*
X23249775Y-63906325D01*
X23030804Y-63672334D01*
X22844672Y-63399912D01*
X22786308Y-63292924D01*
X22662834Y-63002182D01*
X22569922Y-62677876D01*
X22507716Y-62329681D01*
X22476362Y-61967268D01*
X22476007Y-61600311D01*
X22506796Y-61238481D01*
X22568874Y-60891451D01*
X22662388Y-60568894D01*
X22742293Y-60372173D01*
X22908795Y-60068156D01*
X23107613Y-59804808D01*
X23336669Y-59583490D01*
X23593883Y-59405562D01*
X23877176Y-59272383D01*
X24184467Y-59185314D01*
X24513679Y-59145714D01*
X24621332Y-59143289D01*
X24956692Y-59167806D01*
X25271276Y-59240154D01*
X25562493Y-59358531D01*
X25827751Y-59521131D01*
X26064458Y-59726150D01*
X26270023Y-59971785D01*
X26441854Y-60256232D01*
X26541653Y-60479982D01*
X26653925Y-60828598D01*
X26728756Y-61193737D01*
X26766874Y-61568260D01*
X26769006Y-61945027D01*
X28169417Y-61945027D01*
X28169828Y-61540284D01*
X28146379Y-61163097D01*
X28097189Y-60815072D01*
X28020384Y-60486759D01*
X27914094Y-60168706D01*
X27776446Y-59851460D01*
X27736562Y-59770466D01*
X27542090Y-59438231D01*
X27306433Y-59127574D01*
X27036319Y-58845053D01*
X26738475Y-58597224D01*
X26419627Y-58390646D01*
X26213501Y-58285775D01*
X25965036Y-58180100D01*
X25731962Y-58099079D01*
X25500283Y-58039644D01*
X25256005Y-57998725D01*
X24985133Y-57973252D01*
X24736532Y-57961832D01*
X24459351Y-57958121D01*
X24218936Y-57966088D01*
M02*
