G04 #@! TF.GenerationSoftware,KiCad,Pcbnew,no-vcs-found-dc66b73~61~ubuntu17.10.1*
G04 #@! TF.CreationDate,2018-02-04T10:14:16-05:00*
G04 #@! TF.ProjectId,VBUS-Sense,564255532D53656E73652E6B69636164,rev?*
G04 #@! TF.SameCoordinates,Original*
G04 #@! TF.FileFunction,Legend,Top*
G04 #@! TF.FilePolarity,Positive*
%FSLAX46Y46*%
G04 Gerber Fmt 4.6, Leading zero omitted, Abs format (unit mm)*
G04 Created by KiCad (PCBNEW no-vcs-found-dc66b73~61~ubuntu17.10.1) date Sun Feb  4 10:14:16 2018*
%MOMM*%
%LPD*%
G01*
G04 APERTURE LIST*
%ADD10C,0.120000*%
%ADD11C,0.100000*%
%ADD12C,0.150000*%
G04 APERTURE END LIST*
D10*
X50689400Y-2625800D02*
X50689400Y-3825800D01*
X48929400Y-3825800D02*
X48929400Y-2625800D01*
X19185000Y-31203000D02*
X20185000Y-31203000D01*
X20185000Y-29503000D02*
X19185000Y-29503000D01*
X23029800Y-31484200D02*
X22029800Y-31484200D01*
X22029800Y-33184200D02*
X23029800Y-33184200D01*
X24397600Y-27744800D02*
X24397600Y-28744800D01*
X26097600Y-28744800D02*
X26097600Y-27744800D01*
X20429600Y-2653400D02*
X21429600Y-2653400D01*
X21429600Y-953400D02*
X20429600Y-953400D01*
X21455000Y-2883800D02*
X20455000Y-2883800D01*
X20455000Y-4583800D02*
X21455000Y-4583800D01*
X19788600Y-34767400D02*
X21248600Y-34767400D01*
X19788600Y-37927400D02*
X21948600Y-37927400D01*
X19788600Y-37927400D02*
X19788600Y-36997400D01*
X19788600Y-34767400D02*
X19788600Y-35697400D01*
X26073000Y-5982000D02*
X26073000Y-5362000D01*
X24473000Y-5982000D02*
X26073000Y-5982000D01*
X24473000Y-5362000D02*
X24473000Y-5982000D01*
X23533000Y-5982000D02*
X23533000Y-5362000D01*
X21933000Y-5982000D02*
X23533000Y-5982000D01*
X21933000Y-5362000D02*
X21933000Y-5982000D01*
X20993000Y-5982000D02*
X20993000Y-5362000D01*
X19393000Y-5982000D02*
X20993000Y-5982000D01*
X19393000Y-5362000D02*
X19393000Y-5982000D01*
X18453000Y-5982000D02*
X18453000Y-5362000D01*
X16853000Y-5982000D02*
X18453000Y-5982000D01*
X16853000Y-5362000D02*
X16853000Y-5982000D01*
X25023000Y-11362000D02*
X25023000Y-10362000D01*
X17903000Y-11362000D02*
X17903000Y-10362000D01*
X25023000Y-9932000D02*
X25273000Y-10362000D01*
X17903000Y-9932000D02*
X25023000Y-9932000D01*
X17653000Y-10362000D02*
X17903000Y-9932000D01*
X25273000Y-10362000D02*
X25273000Y-11362000D01*
X17653000Y-10362000D02*
X25273000Y-10362000D01*
X17653000Y-11362000D02*
X17653000Y-10362000D01*
X26643000Y-5362000D02*
X16283000Y-5362000D01*
X26643000Y-11362000D02*
X26643000Y-5362000D01*
X16283000Y-11362000D02*
X26643000Y-11362000D01*
X16283000Y-5362000D02*
X16283000Y-11362000D01*
X18430800Y-33265000D02*
X17230800Y-33265000D01*
X17230800Y-31505000D02*
X18430800Y-31505000D01*
X26247200Y-28870200D02*
X26247200Y-27670200D01*
X28007200Y-27670200D02*
X28007200Y-28870200D01*
X42607600Y-23487000D02*
X42607600Y-22487000D01*
X40907600Y-22487000D02*
X40907600Y-23487000D01*
X18403400Y-23590600D02*
X18403400Y-26290600D01*
X17753400Y-23590600D02*
X18403400Y-23590600D01*
X17753400Y-16540600D02*
X17753400Y-23590600D01*
X18503400Y-16540600D02*
X17753400Y-16540600D01*
X23953400Y-16540600D02*
X23203400Y-16540600D01*
X23953400Y-23590600D02*
X23953400Y-16540600D01*
X23253400Y-23590600D02*
X23953400Y-23590600D01*
X47450400Y-47031400D02*
X47450400Y-49031400D01*
X45310400Y-49031400D02*
X45310400Y-47031400D01*
X45310400Y-44027600D02*
X45310400Y-42027600D01*
X47450400Y-42027600D02*
X47450400Y-44027600D01*
X45046000Y-14749400D02*
X45046000Y-13749400D01*
X43346000Y-13749400D02*
X43346000Y-14749400D01*
X41161600Y-13749400D02*
X41161600Y-14749400D01*
X42861600Y-14749400D02*
X42861600Y-13749400D01*
X42607600Y-28694000D02*
X42607600Y-27694000D01*
X40907600Y-27694000D02*
X40907600Y-28694000D01*
X39660200Y-10332600D02*
X39660200Y-3332600D01*
X34660200Y-10332600D02*
X39660200Y-10332600D01*
X34660200Y-3332600D02*
X34660200Y-10332600D01*
X39660200Y-3332600D02*
X34660200Y-3332600D01*
D11*
X39860200Y-10532600D02*
X37660200Y-10532600D01*
X39860200Y-8532600D02*
X39860200Y-10532600D01*
D10*
X57674600Y-61662000D02*
X57674600Y-66862000D01*
X54034600Y-66862000D02*
X54034600Y-61662000D01*
X54034600Y-55076400D02*
X54034600Y-49876400D01*
X57674600Y-49876400D02*
X57674600Y-55076400D01*
X57674600Y-37989200D02*
X57674600Y-43189200D01*
X54034600Y-43189200D02*
X54034600Y-37989200D01*
X54034600Y-31606800D02*
X54034600Y-26406800D01*
X57674600Y-26406800D02*
X57674600Y-31606800D01*
D11*
X40646000Y-10424000D02*
X38346000Y-10424000D01*
X40646000Y-10424000D02*
X40646000Y-12454000D01*
D10*
X30346000Y-10804000D02*
X30346000Y-30544000D01*
X30346000Y-30544000D02*
X40346000Y-30544000D01*
X40346000Y-30544000D02*
X40346000Y-10804000D01*
X40346000Y-10804000D02*
X30346000Y-10804000D01*
X29450400Y-62958600D02*
X29450400Y-61958600D01*
X27750400Y-61958600D02*
X27750400Y-62958600D01*
X3264000Y-8242000D02*
X3264000Y-8862000D01*
X4864000Y-8242000D02*
X3264000Y-8242000D01*
X4864000Y-8862000D02*
X4864000Y-8242000D01*
X5804000Y-8242000D02*
X5804000Y-8862000D01*
X7404000Y-8242000D02*
X5804000Y-8242000D01*
X7404000Y-8862000D02*
X7404000Y-8242000D01*
X4314000Y-2862000D02*
X4314000Y-3862000D01*
X6354000Y-2862000D02*
X6354000Y-3862000D01*
X4314000Y-4292000D02*
X4064000Y-3862000D01*
X6354000Y-4292000D02*
X4314000Y-4292000D01*
X6604000Y-3862000D02*
X6354000Y-4292000D01*
X4064000Y-3862000D02*
X4064000Y-2862000D01*
X6604000Y-3862000D02*
X4064000Y-3862000D01*
X6604000Y-2862000D02*
X6604000Y-3862000D01*
X2694000Y-8862000D02*
X7974000Y-8862000D01*
X2694000Y-2862000D02*
X2694000Y-8862000D01*
X7974000Y-2862000D02*
X2694000Y-2862000D01*
X7974000Y-8862000D02*
X7974000Y-2862000D01*
X50403200Y-7349600D02*
X51603200Y-7349600D01*
X51603200Y-9109600D02*
X50403200Y-9109600D01*
X10099600Y-37456000D02*
X8899600Y-37456000D01*
X8899600Y-35696000D02*
X10099600Y-35696000D01*
X25307400Y-62982400D02*
X25307400Y-61782400D01*
X27067400Y-61782400D02*
X27067400Y-62982400D01*
X17789000Y-53749500D02*
X17789000Y-52549500D01*
X19549000Y-52549500D02*
X19549000Y-53749500D01*
X57109000Y-6104200D02*
X57109000Y-3954200D01*
X53889000Y-6529200D02*
X53889000Y-3954200D01*
X56199000Y-3954200D02*
X57109000Y-3954200D01*
X53889000Y-3954200D02*
X54799000Y-3954200D01*
X11420800Y-50740000D02*
X12750800Y-50740000D01*
X11420800Y-52070000D02*
X11420800Y-50740000D01*
X11420800Y-53340000D02*
X14080800Y-53340000D01*
X14080800Y-53340000D02*
X14080800Y-53400000D01*
X11420800Y-53340000D02*
X11420800Y-53400000D01*
X11420800Y-53400000D02*
X14080800Y-53400000D01*
X54524600Y-75396400D02*
X57184600Y-75396400D01*
X54524600Y-75336400D02*
X54524600Y-75396400D01*
X57184600Y-75336400D02*
X57184600Y-75396400D01*
X54524600Y-75336400D02*
X57184600Y-75336400D01*
X54524600Y-74066400D02*
X54524600Y-72736400D01*
X54524600Y-72736400D02*
X55854600Y-72736400D01*
X6702500Y-12137500D02*
X7902500Y-12137500D01*
X7902500Y-13897500D02*
X6702500Y-13897500D01*
X10105500Y-5362500D02*
X10105500Y-4162500D01*
X11865500Y-4162500D02*
X11865500Y-5362500D01*
X9005000Y-39915200D02*
X10005000Y-39915200D01*
X10005000Y-38215200D02*
X9005000Y-38215200D01*
X21337000Y-65579200D02*
X24637000Y-65579200D01*
X24637000Y-65579200D02*
X24637000Y-60179200D01*
X21337000Y-65579200D02*
X21337000Y-60179200D01*
X10412800Y-56160000D02*
X10412800Y-64560000D01*
X3912800Y-56160000D02*
X3912800Y-64560000D01*
X3912800Y-56160000D02*
X10412800Y-56160000D01*
X13505295Y-8661316D02*
G75*
G02X14232500Y-9185500I-1122795J-2324184D01*
G01*
X11283693Y-8629100D02*
G75*
G03X9782500Y-10985500I1098807J-2356400D01*
G01*
X11283693Y-13341900D02*
G75*
G02X9782500Y-10985500I1098807J2356400D01*
G01*
X13505295Y-13309684D02*
G75*
G03X14232500Y-12785500I-1122795J2324184D01*
G01*
X14232500Y-12785500D02*
X14232500Y-9185500D01*
X10331200Y-21348400D02*
X10031200Y-21348400D01*
X10331200Y-16548400D02*
X10331200Y-21348400D01*
X10031200Y-16548400D02*
X10331200Y-16548400D01*
X6331200Y-16548400D02*
X6631200Y-16548400D01*
X6331200Y-21348400D02*
X6331200Y-16548400D01*
X6631200Y-21348400D02*
X6331200Y-21348400D01*
X10031200Y-16548400D02*
X10031200Y-14848400D01*
X45170600Y-65154200D02*
X43170600Y-65154200D01*
X43170600Y-63014200D02*
X45170600Y-63014200D01*
X50149000Y-65154200D02*
X48149000Y-65154200D01*
X48149000Y-63014200D02*
X50149000Y-63014200D01*
X38370000Y-63014200D02*
X40370000Y-63014200D01*
X40370000Y-65154200D02*
X38370000Y-65154200D01*
X33597000Y-63014200D02*
X35597000Y-63014200D01*
X35597000Y-65154200D02*
X33597000Y-65154200D01*
X52818400Y-3700400D02*
X52818400Y-2700400D01*
X51118400Y-2700400D02*
X51118400Y-3700400D01*
X59465400Y-16333400D02*
G75*
G03X59465400Y-16333400I-6100000J0D01*
G01*
X7866000Y-10262500D02*
X6866000Y-10262500D01*
X6866000Y-11962500D02*
X7866000Y-11962500D01*
X6502316Y-43263705D02*
G75*
G02X7026500Y-42536500I2324184J-1122795D01*
G01*
X6470100Y-45485307D02*
G75*
G03X8826500Y-46986500I2356400J1098807D01*
G01*
X11182900Y-45485307D02*
G75*
G02X8826500Y-46986500I-2356400J1098807D01*
G01*
X11150684Y-43263705D02*
G75*
G03X10626500Y-42536500I-2324184J-1122795D01*
G01*
X10626500Y-42536500D02*
X7026500Y-42536500D01*
X12354000Y-14931500D02*
X13554000Y-14931500D01*
X13554000Y-16691500D02*
X12354000Y-16691500D01*
X8772000Y-30191000D02*
X8772000Y-28991000D01*
X10532000Y-28991000D02*
X10532000Y-30191000D01*
X23288500Y-52886000D02*
X21288500Y-52886000D01*
X21288500Y-50746000D02*
X23288500Y-50746000D01*
X14335500Y-59160000D02*
X14335500Y-62760000D01*
X17795500Y-62760000D02*
X17795500Y-59160000D01*
D12*
X49668133Y-6675380D02*
X49334800Y-6199190D01*
X49096704Y-6675380D02*
X49096704Y-5675380D01*
X49477657Y-5675380D01*
X49572895Y-5723000D01*
X49620514Y-5770619D01*
X49668133Y-5865857D01*
X49668133Y-6008714D01*
X49620514Y-6103952D01*
X49572895Y-6151571D01*
X49477657Y-6199190D01*
X49096704Y-6199190D01*
X50572895Y-5675380D02*
X50096704Y-5675380D01*
X50049085Y-6151571D01*
X50096704Y-6103952D01*
X50191942Y-6056333D01*
X50430038Y-6056333D01*
X50525276Y-6103952D01*
X50572895Y-6151571D01*
X50620514Y-6246809D01*
X50620514Y-6484904D01*
X50572895Y-6580142D01*
X50525276Y-6627761D01*
X50430038Y-6675380D01*
X50191942Y-6675380D01*
X50096704Y-6627761D01*
X50049085Y-6580142D01*
X19569133Y-29084542D02*
X19521514Y-29132161D01*
X19378657Y-29179780D01*
X19283419Y-29179780D01*
X19140561Y-29132161D01*
X19045323Y-29036923D01*
X18997704Y-28941685D01*
X18950085Y-28751209D01*
X18950085Y-28608352D01*
X18997704Y-28417876D01*
X19045323Y-28322638D01*
X19140561Y-28227400D01*
X19283419Y-28179780D01*
X19378657Y-28179780D01*
X19521514Y-28227400D01*
X19569133Y-28275019D01*
X20045323Y-29179780D02*
X20235800Y-29179780D01*
X20331038Y-29132161D01*
X20378657Y-29084542D01*
X20473895Y-28941685D01*
X20521514Y-28751209D01*
X20521514Y-28370257D01*
X20473895Y-28275019D01*
X20426276Y-28227400D01*
X20331038Y-28179780D01*
X20140561Y-28179780D01*
X20045323Y-28227400D01*
X19997704Y-28275019D01*
X19950085Y-28370257D01*
X19950085Y-28608352D01*
X19997704Y-28703590D01*
X20045323Y-28751209D01*
X20140561Y-28798828D01*
X20331038Y-28798828D01*
X20426276Y-28751209D01*
X20473895Y-28703590D01*
X20521514Y-28608352D01*
X22013942Y-34367742D02*
X21966323Y-34415361D01*
X21823466Y-34462980D01*
X21728228Y-34462980D01*
X21585371Y-34415361D01*
X21490133Y-34320123D01*
X21442514Y-34224885D01*
X21394895Y-34034409D01*
X21394895Y-33891552D01*
X21442514Y-33701076D01*
X21490133Y-33605838D01*
X21585371Y-33510600D01*
X21728228Y-33462980D01*
X21823466Y-33462980D01*
X21966323Y-33510600D01*
X22013942Y-33558219D01*
X22347276Y-33462980D02*
X22966323Y-33462980D01*
X22632990Y-33843933D01*
X22775847Y-33843933D01*
X22871085Y-33891552D01*
X22918704Y-33939171D01*
X22966323Y-34034409D01*
X22966323Y-34272504D01*
X22918704Y-34367742D01*
X22871085Y-34415361D01*
X22775847Y-34462980D01*
X22490133Y-34462980D01*
X22394895Y-34415361D01*
X22347276Y-34367742D01*
X23299657Y-33462980D02*
X23966323Y-33462980D01*
X23537752Y-34462980D01*
X23979142Y-28938457D02*
X24026761Y-28986076D01*
X24074380Y-29128933D01*
X24074380Y-29224171D01*
X24026761Y-29367028D01*
X23931523Y-29462266D01*
X23836285Y-29509885D01*
X23645809Y-29557504D01*
X23502952Y-29557504D01*
X23312476Y-29509885D01*
X23217238Y-29462266D01*
X23122000Y-29367028D01*
X23074380Y-29224171D01*
X23074380Y-29128933D01*
X23122000Y-28986076D01*
X23169619Y-28938457D01*
X23074380Y-28605123D02*
X23074380Y-27986076D01*
X23455333Y-28319409D01*
X23455333Y-28176552D01*
X23502952Y-28081314D01*
X23550571Y-28033695D01*
X23645809Y-27986076D01*
X23883904Y-27986076D01*
X23979142Y-28033695D01*
X24026761Y-28081314D01*
X24074380Y-28176552D01*
X24074380Y-28462266D01*
X24026761Y-28557504D01*
X23979142Y-28605123D01*
X23502952Y-27414647D02*
X23455333Y-27509885D01*
X23407714Y-27557504D01*
X23312476Y-27605123D01*
X23264857Y-27605123D01*
X23169619Y-27557504D01*
X23122000Y-27509885D01*
X23074380Y-27414647D01*
X23074380Y-27224171D01*
X23122000Y-27128933D01*
X23169619Y-27081314D01*
X23264857Y-27033695D01*
X23312476Y-27033695D01*
X23407714Y-27081314D01*
X23455333Y-27128933D01*
X23502952Y-27224171D01*
X23502952Y-27414647D01*
X23550571Y-27509885D01*
X23598190Y-27557504D01*
X23693428Y-27605123D01*
X23883904Y-27605123D01*
X23979142Y-27557504D01*
X24026761Y-27509885D01*
X24074380Y-27414647D01*
X24074380Y-27224171D01*
X24026761Y-27128933D01*
X23979142Y-27081314D01*
X23883904Y-27033695D01*
X23693428Y-27033695D01*
X23598190Y-27081314D01*
X23550571Y-27128933D01*
X23502952Y-27224171D01*
X16527542Y-2058942D02*
X16479923Y-2106561D01*
X16337066Y-2154180D01*
X16241828Y-2154180D01*
X16098971Y-2106561D01*
X16003733Y-2011323D01*
X15956114Y-1916085D01*
X15908495Y-1725609D01*
X15908495Y-1582752D01*
X15956114Y-1392276D01*
X16003733Y-1297038D01*
X16098971Y-1201800D01*
X16241828Y-1154180D01*
X16337066Y-1154180D01*
X16479923Y-1201800D01*
X16527542Y-1249419D01*
X16860876Y-1154180D02*
X17479923Y-1154180D01*
X17146590Y-1535133D01*
X17289447Y-1535133D01*
X17384685Y-1582752D01*
X17432304Y-1630371D01*
X17479923Y-1725609D01*
X17479923Y-1963704D01*
X17432304Y-2058942D01*
X17384685Y-2106561D01*
X17289447Y-2154180D01*
X17003733Y-2154180D01*
X16908495Y-2106561D01*
X16860876Y-2058942D01*
X17956114Y-2154180D02*
X18146590Y-2154180D01*
X18241828Y-2106561D01*
X18289447Y-2058942D01*
X18384685Y-1916085D01*
X18432304Y-1725609D01*
X18432304Y-1344657D01*
X18384685Y-1249419D01*
X18337066Y-1201800D01*
X18241828Y-1154180D01*
X18051352Y-1154180D01*
X17956114Y-1201800D01*
X17908495Y-1249419D01*
X17860876Y-1344657D01*
X17860876Y-1582752D01*
X17908495Y-1677990D01*
X17956114Y-1725609D01*
X18051352Y-1773228D01*
X18241828Y-1773228D01*
X18337066Y-1725609D01*
X18384685Y-1677990D01*
X18432304Y-1582752D01*
X16476742Y-4090942D02*
X16429123Y-4138561D01*
X16286266Y-4186180D01*
X16191028Y-4186180D01*
X16048171Y-4138561D01*
X15952933Y-4043323D01*
X15905314Y-3948085D01*
X15857695Y-3757609D01*
X15857695Y-3614752D01*
X15905314Y-3424276D01*
X15952933Y-3329038D01*
X16048171Y-3233800D01*
X16191028Y-3186180D01*
X16286266Y-3186180D01*
X16429123Y-3233800D01*
X16476742Y-3281419D01*
X17333885Y-3519514D02*
X17333885Y-4186180D01*
X17095790Y-3138561D02*
X16857695Y-3852847D01*
X17476742Y-3852847D01*
X18048171Y-3186180D02*
X18143409Y-3186180D01*
X18238647Y-3233800D01*
X18286266Y-3281419D01*
X18333885Y-3376657D01*
X18381504Y-3567133D01*
X18381504Y-3805228D01*
X18333885Y-3995704D01*
X18286266Y-4090942D01*
X18238647Y-4138561D01*
X18143409Y-4186180D01*
X18048171Y-4186180D01*
X17952933Y-4138561D01*
X17905314Y-4090942D01*
X17857695Y-3995704D01*
X17810076Y-3805228D01*
X17810076Y-3567133D01*
X17857695Y-3376657D01*
X17905314Y-3281419D01*
X17952933Y-3233800D01*
X18048171Y-3186180D01*
X19810504Y-39299780D02*
X19810504Y-38299780D01*
X20048600Y-38299780D01*
X20191457Y-38347400D01*
X20286695Y-38442638D01*
X20334314Y-38537876D01*
X20381933Y-38728352D01*
X20381933Y-38871209D01*
X20334314Y-39061685D01*
X20286695Y-39156923D01*
X20191457Y-39252161D01*
X20048600Y-39299780D01*
X19810504Y-39299780D01*
X20858123Y-39299780D02*
X21048600Y-39299780D01*
X21143838Y-39252161D01*
X21191457Y-39204542D01*
X21286695Y-39061685D01*
X21334314Y-38871209D01*
X21334314Y-38490257D01*
X21286695Y-38395019D01*
X21239076Y-38347400D01*
X21143838Y-38299780D01*
X20953361Y-38299780D01*
X20858123Y-38347400D01*
X20810504Y-38395019D01*
X20762885Y-38490257D01*
X20762885Y-38728352D01*
X20810504Y-38823590D01*
X20858123Y-38871209D01*
X20953361Y-38918828D01*
X21143838Y-38918828D01*
X21239076Y-38871209D01*
X21286695Y-38823590D01*
X21334314Y-38728352D01*
X21078866Y-12101580D02*
X21078866Y-12815866D01*
X21031247Y-12958723D01*
X20936009Y-13053961D01*
X20793152Y-13101580D01*
X20697914Y-13101580D01*
X21459819Y-12101580D02*
X22078866Y-12101580D01*
X21745533Y-12482533D01*
X21888390Y-12482533D01*
X21983628Y-12530152D01*
X22031247Y-12577771D01*
X22078866Y-12673009D01*
X22078866Y-12911104D01*
X22031247Y-13006342D01*
X21983628Y-13053961D01*
X21888390Y-13101580D01*
X21602676Y-13101580D01*
X21507438Y-13053961D01*
X21459819Y-13006342D01*
X17162542Y-34589980D02*
X16829209Y-34113790D01*
X16591114Y-34589980D02*
X16591114Y-33589980D01*
X16972066Y-33589980D01*
X17067304Y-33637600D01*
X17114923Y-33685219D01*
X17162542Y-33780457D01*
X17162542Y-33923314D01*
X17114923Y-34018552D01*
X17067304Y-34066171D01*
X16972066Y-34113790D01*
X16591114Y-34113790D01*
X17543495Y-33685219D02*
X17591114Y-33637600D01*
X17686352Y-33589980D01*
X17924447Y-33589980D01*
X18019685Y-33637600D01*
X18067304Y-33685219D01*
X18114923Y-33780457D01*
X18114923Y-33875695D01*
X18067304Y-34018552D01*
X17495876Y-34589980D01*
X18114923Y-34589980D01*
X18686352Y-34018552D02*
X18591114Y-33970933D01*
X18543495Y-33923314D01*
X18495876Y-33828076D01*
X18495876Y-33780457D01*
X18543495Y-33685219D01*
X18591114Y-33637600D01*
X18686352Y-33589980D01*
X18876828Y-33589980D01*
X18972066Y-33637600D01*
X19019685Y-33685219D01*
X19067304Y-33780457D01*
X19067304Y-33828076D01*
X19019685Y-33923314D01*
X18972066Y-33970933D01*
X18876828Y-34018552D01*
X18686352Y-34018552D01*
X18591114Y-34066171D01*
X18543495Y-34113790D01*
X18495876Y-34209028D01*
X18495876Y-34399504D01*
X18543495Y-34494742D01*
X18591114Y-34542361D01*
X18686352Y-34589980D01*
X18876828Y-34589980D01*
X18972066Y-34542361D01*
X19019685Y-34494742D01*
X19067304Y-34399504D01*
X19067304Y-34209028D01*
X19019685Y-34113790D01*
X18972066Y-34066171D01*
X18876828Y-34018552D01*
X29281380Y-28938457D02*
X28805190Y-29271790D01*
X29281380Y-29509885D02*
X28281380Y-29509885D01*
X28281380Y-29128933D01*
X28329000Y-29033695D01*
X28376619Y-28986076D01*
X28471857Y-28938457D01*
X28614714Y-28938457D01*
X28709952Y-28986076D01*
X28757571Y-29033695D01*
X28805190Y-29128933D01*
X28805190Y-29509885D01*
X28281380Y-28605123D02*
X28281380Y-27986076D01*
X28662333Y-28319409D01*
X28662333Y-28176552D01*
X28709952Y-28081314D01*
X28757571Y-28033695D01*
X28852809Y-27986076D01*
X29090904Y-27986076D01*
X29186142Y-28033695D01*
X29233761Y-28081314D01*
X29281380Y-28176552D01*
X29281380Y-28462266D01*
X29233761Y-28557504D01*
X29186142Y-28605123D01*
X28281380Y-27367028D02*
X28281380Y-27271790D01*
X28329000Y-27176552D01*
X28376619Y-27128933D01*
X28471857Y-27081314D01*
X28662333Y-27033695D01*
X28900428Y-27033695D01*
X29090904Y-27081314D01*
X29186142Y-27128933D01*
X29233761Y-27176552D01*
X29281380Y-27271790D01*
X29281380Y-27367028D01*
X29233761Y-27462266D01*
X29186142Y-27509885D01*
X29090904Y-27557504D01*
X28900428Y-27605123D01*
X28662333Y-27605123D01*
X28471857Y-27557504D01*
X28376619Y-27509885D01*
X28329000Y-27462266D01*
X28281380Y-27367028D01*
X43841942Y-23179066D02*
X43889561Y-23226685D01*
X43937180Y-23369542D01*
X43937180Y-23464780D01*
X43889561Y-23607638D01*
X43794323Y-23702876D01*
X43699085Y-23750495D01*
X43508609Y-23798114D01*
X43365752Y-23798114D01*
X43175276Y-23750495D01*
X43080038Y-23702876D01*
X42984800Y-23607638D01*
X42937180Y-23464780D01*
X42937180Y-23369542D01*
X42984800Y-23226685D01*
X43032419Y-23179066D01*
X43937180Y-22226685D02*
X43937180Y-22798114D01*
X43937180Y-22512400D02*
X42937180Y-22512400D01*
X43080038Y-22607638D01*
X43175276Y-22702876D01*
X43222895Y-22798114D01*
X24471380Y-20751704D02*
X25280904Y-20751704D01*
X25376142Y-20704085D01*
X25423761Y-20656466D01*
X25471380Y-20561228D01*
X25471380Y-20370752D01*
X25423761Y-20275514D01*
X25376142Y-20227895D01*
X25280904Y-20180276D01*
X24471380Y-20180276D01*
X25471380Y-19180276D02*
X25471380Y-19751704D01*
X25471380Y-19465990D02*
X24471380Y-19465990D01*
X24614238Y-19561228D01*
X24709476Y-19656466D01*
X24757095Y-19751704D01*
X48682780Y-48674257D02*
X48206590Y-49007590D01*
X48682780Y-49245685D02*
X47682780Y-49245685D01*
X47682780Y-48864733D01*
X47730400Y-48769495D01*
X47778019Y-48721876D01*
X47873257Y-48674257D01*
X48016114Y-48674257D01*
X48111352Y-48721876D01*
X48158971Y-48769495D01*
X48206590Y-48864733D01*
X48206590Y-49245685D01*
X47778019Y-48293304D02*
X47730400Y-48245685D01*
X47682780Y-48150447D01*
X47682780Y-47912352D01*
X47730400Y-47817114D01*
X47778019Y-47769495D01*
X47873257Y-47721876D01*
X47968495Y-47721876D01*
X48111352Y-47769495D01*
X48682780Y-48340923D01*
X48682780Y-47721876D01*
X47682780Y-47388542D02*
X47682780Y-46721876D01*
X48682780Y-47150447D01*
X48682780Y-43670457D02*
X48206590Y-44003790D01*
X48682780Y-44241885D02*
X47682780Y-44241885D01*
X47682780Y-43860933D01*
X47730400Y-43765695D01*
X47778019Y-43718076D01*
X47873257Y-43670457D01*
X48016114Y-43670457D01*
X48111352Y-43718076D01*
X48158971Y-43765695D01*
X48206590Y-43860933D01*
X48206590Y-44241885D01*
X47778019Y-43289504D02*
X47730400Y-43241885D01*
X47682780Y-43146647D01*
X47682780Y-42908552D01*
X47730400Y-42813314D01*
X47778019Y-42765695D01*
X47873257Y-42718076D01*
X47968495Y-42718076D01*
X48111352Y-42765695D01*
X48682780Y-43337123D01*
X48682780Y-42718076D01*
X48682780Y-42241885D02*
X48682780Y-42051409D01*
X48635161Y-41956171D01*
X48587542Y-41908552D01*
X48444685Y-41813314D01*
X48254209Y-41765695D01*
X47873257Y-41765695D01*
X47778019Y-41813314D01*
X47730400Y-41860933D01*
X47682780Y-41956171D01*
X47682780Y-42146647D01*
X47730400Y-42241885D01*
X47778019Y-42289504D01*
X47873257Y-42337123D01*
X48111352Y-42337123D01*
X48206590Y-42289504D01*
X48254209Y-42241885D01*
X48301828Y-42146647D01*
X48301828Y-41956171D01*
X48254209Y-41860933D01*
X48206590Y-41813314D01*
X48111352Y-41765695D01*
X44553142Y-11153057D02*
X44600761Y-11200676D01*
X44648380Y-11343533D01*
X44648380Y-11438771D01*
X44600761Y-11581628D01*
X44505523Y-11676866D01*
X44410285Y-11724485D01*
X44219809Y-11772104D01*
X44076952Y-11772104D01*
X43886476Y-11724485D01*
X43791238Y-11676866D01*
X43696000Y-11581628D01*
X43648380Y-11438771D01*
X43648380Y-11343533D01*
X43696000Y-11200676D01*
X43743619Y-11153057D01*
X44648380Y-10200676D02*
X44648380Y-10772104D01*
X44648380Y-10486390D02*
X43648380Y-10486390D01*
X43791238Y-10581628D01*
X43886476Y-10676866D01*
X43934095Y-10772104D01*
X43648380Y-9581628D02*
X43648380Y-9486390D01*
X43696000Y-9391152D01*
X43743619Y-9343533D01*
X43838857Y-9295914D01*
X44029333Y-9248295D01*
X44267428Y-9248295D01*
X44457904Y-9295914D01*
X44553142Y-9343533D01*
X44600761Y-9391152D01*
X44648380Y-9486390D01*
X44648380Y-9581628D01*
X44600761Y-9676866D01*
X44553142Y-9724485D01*
X44457904Y-9772104D01*
X44267428Y-9819723D01*
X44029333Y-9819723D01*
X43838857Y-9772104D01*
X43743619Y-9724485D01*
X43696000Y-9676866D01*
X43648380Y-9581628D01*
X42368742Y-11183857D02*
X42416361Y-11231476D01*
X42463980Y-11374333D01*
X42463980Y-11469571D01*
X42416361Y-11612428D01*
X42321123Y-11707666D01*
X42225885Y-11755285D01*
X42035409Y-11802904D01*
X41892552Y-11802904D01*
X41702076Y-11755285D01*
X41606838Y-11707666D01*
X41511600Y-11612428D01*
X41463980Y-11469571D01*
X41463980Y-11374333D01*
X41511600Y-11231476D01*
X41559219Y-11183857D01*
X42463980Y-10231476D02*
X42463980Y-10802904D01*
X42463980Y-10517190D02*
X41463980Y-10517190D01*
X41606838Y-10612428D01*
X41702076Y-10707666D01*
X41749695Y-10802904D01*
X42463980Y-9279095D02*
X42463980Y-9850523D01*
X42463980Y-9564809D02*
X41463980Y-9564809D01*
X41606838Y-9660047D01*
X41702076Y-9755285D01*
X41749695Y-9850523D01*
X43765742Y-28836857D02*
X43813361Y-28884476D01*
X43860980Y-29027333D01*
X43860980Y-29122571D01*
X43813361Y-29265428D01*
X43718123Y-29360666D01*
X43622885Y-29408285D01*
X43432409Y-29455904D01*
X43289552Y-29455904D01*
X43099076Y-29408285D01*
X43003838Y-29360666D01*
X42908600Y-29265428D01*
X42860980Y-29122571D01*
X42860980Y-29027333D01*
X42908600Y-28884476D01*
X42956219Y-28836857D01*
X43860980Y-27884476D02*
X43860980Y-28455904D01*
X43860980Y-28170190D02*
X42860980Y-28170190D01*
X43003838Y-28265428D01*
X43099076Y-28360666D01*
X43146695Y-28455904D01*
X42956219Y-27503523D02*
X42908600Y-27455904D01*
X42860980Y-27360666D01*
X42860980Y-27122571D01*
X42908600Y-27027333D01*
X42956219Y-26979714D01*
X43051457Y-26932095D01*
X43146695Y-26932095D01*
X43289552Y-26979714D01*
X43860980Y-27551142D01*
X43860980Y-26932095D01*
X35139404Y-2341571D02*
X34806071Y-2341571D01*
X34806071Y-2865380D02*
X34806071Y-1865380D01*
X35282261Y-1865380D01*
X36139404Y-2865380D02*
X35663214Y-2865380D01*
X35663214Y-1865380D01*
X36425119Y-1960619D02*
X36472738Y-1913000D01*
X36567976Y-1865380D01*
X36806071Y-1865380D01*
X36901309Y-1913000D01*
X36948928Y-1960619D01*
X36996547Y-2055857D01*
X36996547Y-2151095D01*
X36948928Y-2293952D01*
X36377500Y-2865380D01*
X36996547Y-2865380D01*
X58906980Y-64428666D02*
X58430790Y-64762000D01*
X58906980Y-65000095D02*
X57906980Y-65000095D01*
X57906980Y-64619142D01*
X57954600Y-64523904D01*
X58002219Y-64476285D01*
X58097457Y-64428666D01*
X58240314Y-64428666D01*
X58335552Y-64476285D01*
X58383171Y-64523904D01*
X58430790Y-64619142D01*
X58430790Y-65000095D01*
X58906980Y-63476285D02*
X58906980Y-64047714D01*
X58906980Y-63762000D02*
X57906980Y-63762000D01*
X58049838Y-63857238D01*
X58145076Y-63952476D01*
X58192695Y-64047714D01*
X58906980Y-52643066D02*
X58430790Y-52976400D01*
X58906980Y-53214495D02*
X57906980Y-53214495D01*
X57906980Y-52833542D01*
X57954600Y-52738304D01*
X58002219Y-52690685D01*
X58097457Y-52643066D01*
X58240314Y-52643066D01*
X58335552Y-52690685D01*
X58383171Y-52738304D01*
X58430790Y-52833542D01*
X58430790Y-53214495D01*
X58002219Y-52262114D02*
X57954600Y-52214495D01*
X57906980Y-52119257D01*
X57906980Y-51881161D01*
X57954600Y-51785923D01*
X58002219Y-51738304D01*
X58097457Y-51690685D01*
X58192695Y-51690685D01*
X58335552Y-51738304D01*
X58906980Y-52309733D01*
X58906980Y-51690685D01*
X58906980Y-40755866D02*
X58430790Y-41089200D01*
X58906980Y-41327295D02*
X57906980Y-41327295D01*
X57906980Y-40946342D01*
X57954600Y-40851104D01*
X58002219Y-40803485D01*
X58097457Y-40755866D01*
X58240314Y-40755866D01*
X58335552Y-40803485D01*
X58383171Y-40851104D01*
X58430790Y-40946342D01*
X58430790Y-41327295D01*
X57906980Y-40422533D02*
X57906980Y-39803485D01*
X58287933Y-40136819D01*
X58287933Y-39993961D01*
X58335552Y-39898723D01*
X58383171Y-39851104D01*
X58478409Y-39803485D01*
X58716504Y-39803485D01*
X58811742Y-39851104D01*
X58859361Y-39898723D01*
X58906980Y-39993961D01*
X58906980Y-40279676D01*
X58859361Y-40374914D01*
X58811742Y-40422533D01*
X58906980Y-29173466D02*
X58430790Y-29506800D01*
X58906980Y-29744895D02*
X57906980Y-29744895D01*
X57906980Y-29363942D01*
X57954600Y-29268704D01*
X58002219Y-29221085D01*
X58097457Y-29173466D01*
X58240314Y-29173466D01*
X58335552Y-29221085D01*
X58383171Y-29268704D01*
X58430790Y-29363942D01*
X58430790Y-29744895D01*
X58240314Y-28316323D02*
X58906980Y-28316323D01*
X57859361Y-28554419D02*
X58573647Y-28792514D01*
X58573647Y-28173466D01*
X30759495Y-9282180D02*
X30759495Y-10091704D01*
X30807114Y-10186942D01*
X30854733Y-10234561D01*
X30949971Y-10282180D01*
X31140447Y-10282180D01*
X31235685Y-10234561D01*
X31283304Y-10186942D01*
X31330923Y-10091704D01*
X31330923Y-9282180D01*
X31759495Y-9377419D02*
X31807114Y-9329800D01*
X31902352Y-9282180D01*
X32140447Y-9282180D01*
X32235685Y-9329800D01*
X32283304Y-9377419D01*
X32330923Y-9472657D01*
X32330923Y-9567895D01*
X32283304Y-9710752D01*
X31711876Y-10282180D01*
X32330923Y-10282180D01*
X28982942Y-66054266D02*
X29030561Y-66101885D01*
X29078180Y-66244742D01*
X29078180Y-66339980D01*
X29030561Y-66482838D01*
X28935323Y-66578076D01*
X28840085Y-66625695D01*
X28649609Y-66673314D01*
X28506752Y-66673314D01*
X28316276Y-66625695D01*
X28221038Y-66578076D01*
X28125800Y-66482838D01*
X28078180Y-66339980D01*
X28078180Y-66244742D01*
X28125800Y-66101885D01*
X28173419Y-66054266D01*
X28173419Y-65673314D02*
X28125800Y-65625695D01*
X28078180Y-65530457D01*
X28078180Y-65292361D01*
X28125800Y-65197123D01*
X28173419Y-65149504D01*
X28268657Y-65101885D01*
X28363895Y-65101885D01*
X28506752Y-65149504D01*
X29078180Y-65720933D01*
X29078180Y-65101885D01*
X4873666Y-976380D02*
X4873666Y-1690666D01*
X4826047Y-1833523D01*
X4730809Y-1928761D01*
X4587952Y-1976380D01*
X4492714Y-1976380D01*
X5873666Y-1976380D02*
X5302238Y-1976380D01*
X5587952Y-1976380D02*
X5587952Y-976380D01*
X5492714Y-1119238D01*
X5397476Y-1214476D01*
X5302238Y-1262095D01*
X47458333Y-8656580D02*
X47125000Y-8180390D01*
X46886904Y-8656580D02*
X46886904Y-7656580D01*
X47267857Y-7656580D01*
X47363095Y-7704200D01*
X47410714Y-7751819D01*
X47458333Y-7847057D01*
X47458333Y-7989914D01*
X47410714Y-8085152D01*
X47363095Y-8132771D01*
X47267857Y-8180390D01*
X46886904Y-8180390D01*
X48315476Y-7656580D02*
X48125000Y-7656580D01*
X48029761Y-7704200D01*
X47982142Y-7751819D01*
X47886904Y-7894676D01*
X47839285Y-8085152D01*
X47839285Y-8466104D01*
X47886904Y-8561342D01*
X47934523Y-8608961D01*
X48029761Y-8656580D01*
X48220238Y-8656580D01*
X48315476Y-8608961D01*
X48363095Y-8561342D01*
X48410714Y-8466104D01*
X48410714Y-8228009D01*
X48363095Y-8132771D01*
X48315476Y-8085152D01*
X48220238Y-8037533D01*
X48029761Y-8037533D01*
X47934523Y-8085152D01*
X47886904Y-8132771D01*
X47839285Y-8228009D01*
X5929333Y-37231580D02*
X5596000Y-36755390D01*
X5357904Y-37231580D02*
X5357904Y-36231580D01*
X5738857Y-36231580D01*
X5834095Y-36279200D01*
X5881714Y-36326819D01*
X5929333Y-36422057D01*
X5929333Y-36564914D01*
X5881714Y-36660152D01*
X5834095Y-36707771D01*
X5738857Y-36755390D01*
X5357904Y-36755390D01*
X6405523Y-37231580D02*
X6596000Y-37231580D01*
X6691238Y-37183961D01*
X6738857Y-37136342D01*
X6834095Y-36993485D01*
X6881714Y-36803009D01*
X6881714Y-36422057D01*
X6834095Y-36326819D01*
X6786476Y-36279200D01*
X6691238Y-36231580D01*
X6500761Y-36231580D01*
X6405523Y-36279200D01*
X6357904Y-36326819D01*
X6310285Y-36422057D01*
X6310285Y-36660152D01*
X6357904Y-36755390D01*
X6405523Y-36803009D01*
X6500761Y-36850628D01*
X6691238Y-36850628D01*
X6786476Y-36803009D01*
X6834095Y-36755390D01*
X6881714Y-36660152D01*
X26639780Y-66911457D02*
X26163590Y-67244790D01*
X26639780Y-67482885D02*
X25639780Y-67482885D01*
X25639780Y-67101933D01*
X25687400Y-67006695D01*
X25735019Y-66959076D01*
X25830257Y-66911457D01*
X25973114Y-66911457D01*
X26068352Y-66959076D01*
X26115971Y-67006695D01*
X26163590Y-67101933D01*
X26163590Y-67482885D01*
X26639780Y-65959076D02*
X26639780Y-66530504D01*
X26639780Y-66244790D02*
X25639780Y-66244790D01*
X25782638Y-66340028D01*
X25877876Y-66435266D01*
X25925495Y-66530504D01*
X26639780Y-65006695D02*
X26639780Y-65578123D01*
X26639780Y-65292409D02*
X25639780Y-65292409D01*
X25782638Y-65387647D01*
X25877876Y-65482885D01*
X25925495Y-65578123D01*
X17406880Y-53855857D02*
X16930690Y-54189190D01*
X17406880Y-54427285D02*
X16406880Y-54427285D01*
X16406880Y-54046333D01*
X16454500Y-53951095D01*
X16502119Y-53903476D01*
X16597357Y-53855857D01*
X16740214Y-53855857D01*
X16835452Y-53903476D01*
X16883071Y-53951095D01*
X16930690Y-54046333D01*
X16930690Y-54427285D01*
X17406880Y-52903476D02*
X17406880Y-53474904D01*
X17406880Y-53189190D02*
X16406880Y-53189190D01*
X16549738Y-53284428D01*
X16644976Y-53379666D01*
X16692595Y-53474904D01*
X16502119Y-52522523D02*
X16454500Y-52474904D01*
X16406880Y-52379666D01*
X16406880Y-52141571D01*
X16454500Y-52046333D01*
X16502119Y-51998714D01*
X16597357Y-51951095D01*
X16692595Y-51951095D01*
X16835452Y-51998714D01*
X17406880Y-52570142D01*
X17406880Y-51951095D01*
X55352961Y-2605019D02*
X55257723Y-2557400D01*
X55162485Y-2462161D01*
X55019628Y-2319304D01*
X54924390Y-2271685D01*
X54829152Y-2271685D01*
X54876771Y-2509780D02*
X54781533Y-2462161D01*
X54686295Y-2366923D01*
X54638676Y-2176447D01*
X54638676Y-1843114D01*
X54686295Y-1652638D01*
X54781533Y-1557400D01*
X54876771Y-1509780D01*
X55067247Y-1509780D01*
X55162485Y-1557400D01*
X55257723Y-1652638D01*
X55305342Y-1843114D01*
X55305342Y-2176447D01*
X55257723Y-2366923D01*
X55162485Y-2462161D01*
X55067247Y-2509780D01*
X54876771Y-2509780D01*
X56257723Y-2509780D02*
X55686295Y-2509780D01*
X55972009Y-2509780D02*
X55972009Y-1509780D01*
X55876771Y-1652638D01*
X55781533Y-1747876D01*
X55686295Y-1795495D01*
X9153638Y-67622800D02*
X9058400Y-67575180D01*
X8915542Y-67575180D01*
X8772685Y-67622800D01*
X8677447Y-67718038D01*
X8629828Y-67813276D01*
X8582209Y-68003752D01*
X8582209Y-68146609D01*
X8629828Y-68337085D01*
X8677447Y-68432323D01*
X8772685Y-68527561D01*
X8915542Y-68575180D01*
X9010780Y-68575180D01*
X9153638Y-68527561D01*
X9201257Y-68479942D01*
X9201257Y-68146609D01*
X9010780Y-68146609D01*
X10058400Y-68575180D02*
X10058400Y-68051371D01*
X10010780Y-67956133D01*
X9915542Y-67908514D01*
X9725066Y-67908514D01*
X9629828Y-67956133D01*
X10058400Y-68527561D02*
X9963161Y-68575180D01*
X9725066Y-68575180D01*
X9629828Y-68527561D01*
X9582209Y-68432323D01*
X9582209Y-68337085D01*
X9629828Y-68241847D01*
X9725066Y-68194228D01*
X9963161Y-68194228D01*
X10058400Y-68146609D01*
X10391733Y-67908514D02*
X10772685Y-67908514D01*
X10534590Y-67575180D02*
X10534590Y-68432323D01*
X10582209Y-68527561D01*
X10677447Y-68575180D01*
X10772685Y-68575180D01*
X11486971Y-68527561D02*
X11391733Y-68575180D01*
X11201257Y-68575180D01*
X11106019Y-68527561D01*
X11058400Y-68432323D01*
X11058400Y-68051371D01*
X11106019Y-67956133D01*
X11201257Y-67908514D01*
X11391733Y-67908514D01*
X11486971Y-67956133D01*
X11534590Y-68051371D01*
X11534590Y-68146609D01*
X11058400Y-68241847D01*
X27837095Y-43572180D02*
X28170428Y-44572180D01*
X28503761Y-43572180D01*
X29170428Y-44048371D02*
X29313285Y-44095990D01*
X29360904Y-44143609D01*
X29408523Y-44238847D01*
X29408523Y-44381704D01*
X29360904Y-44476942D01*
X29313285Y-44524561D01*
X29218047Y-44572180D01*
X28837095Y-44572180D01*
X28837095Y-43572180D01*
X29170428Y-43572180D01*
X29265666Y-43619800D01*
X29313285Y-43667419D01*
X29360904Y-43762657D01*
X29360904Y-43857895D01*
X29313285Y-43953133D01*
X29265666Y-44000752D01*
X29170428Y-44048371D01*
X28837095Y-44048371D01*
X29789476Y-44286466D02*
X30265666Y-44286466D01*
X29694238Y-44572180D02*
X30027571Y-43572180D01*
X30360904Y-44572180D01*
X30551380Y-43572180D02*
X31122809Y-43572180D01*
X30837095Y-44572180D02*
X30837095Y-43572180D01*
X31456142Y-44191228D02*
X32218047Y-44191228D01*
X10654019Y-48855380D02*
X10987352Y-49855380D01*
X11320685Y-48855380D01*
X11987352Y-49331571D02*
X12130209Y-49379190D01*
X12177828Y-49426809D01*
X12225447Y-49522047D01*
X12225447Y-49664904D01*
X12177828Y-49760142D01*
X12130209Y-49807761D01*
X12034971Y-49855380D01*
X11654019Y-49855380D01*
X11654019Y-48855380D01*
X11987352Y-48855380D01*
X12082590Y-48903000D01*
X12130209Y-48950619D01*
X12177828Y-49045857D01*
X12177828Y-49141095D01*
X12130209Y-49236333D01*
X12082590Y-49283952D01*
X11987352Y-49331571D01*
X11654019Y-49331571D01*
X12654019Y-48855380D02*
X12654019Y-49664904D01*
X12701638Y-49760142D01*
X12749257Y-49807761D01*
X12844495Y-49855380D01*
X13034971Y-49855380D01*
X13130209Y-49807761D01*
X13177828Y-49760142D01*
X13225447Y-49664904D01*
X13225447Y-48855380D01*
X13654019Y-49807761D02*
X13796876Y-49855380D01*
X14034971Y-49855380D01*
X14130209Y-49807761D01*
X14177828Y-49760142D01*
X14225447Y-49664904D01*
X14225447Y-49569666D01*
X14177828Y-49474428D01*
X14130209Y-49426809D01*
X14034971Y-49379190D01*
X13844495Y-49331571D01*
X13749257Y-49283952D01*
X13701638Y-49236333D01*
X13654019Y-49141095D01*
X13654019Y-49045857D01*
X13701638Y-48950619D01*
X13749257Y-48903000D01*
X13844495Y-48855380D01*
X14082590Y-48855380D01*
X14225447Y-48903000D01*
X14654019Y-49474428D02*
X15415923Y-49474428D01*
X53732419Y-70826380D02*
X54065752Y-71826380D01*
X54399085Y-70826380D01*
X55065752Y-71302571D02*
X55208609Y-71350190D01*
X55256228Y-71397809D01*
X55303847Y-71493047D01*
X55303847Y-71635904D01*
X55256228Y-71731142D01*
X55208609Y-71778761D01*
X55113371Y-71826380D01*
X54732419Y-71826380D01*
X54732419Y-70826380D01*
X55065752Y-70826380D01*
X55160990Y-70874000D01*
X55208609Y-70921619D01*
X55256228Y-71016857D01*
X55256228Y-71112095D01*
X55208609Y-71207333D01*
X55160990Y-71254952D01*
X55065752Y-71302571D01*
X54732419Y-71302571D01*
X55732419Y-70826380D02*
X55732419Y-71635904D01*
X55780038Y-71731142D01*
X55827657Y-71778761D01*
X55922895Y-71826380D01*
X56113371Y-71826380D01*
X56208609Y-71778761D01*
X56256228Y-71731142D01*
X56303847Y-71635904D01*
X56303847Y-70826380D01*
X56732419Y-71778761D02*
X56875276Y-71826380D01*
X57113371Y-71826380D01*
X57208609Y-71778761D01*
X57256228Y-71731142D01*
X57303847Y-71635904D01*
X57303847Y-71540666D01*
X57256228Y-71445428D01*
X57208609Y-71397809D01*
X57113371Y-71350190D01*
X56922895Y-71302571D01*
X56827657Y-71254952D01*
X56780038Y-71207333D01*
X56732419Y-71112095D01*
X56732419Y-71016857D01*
X56780038Y-70921619D01*
X56827657Y-70874000D01*
X56922895Y-70826380D01*
X57160990Y-70826380D01*
X57303847Y-70874000D01*
X57732419Y-71445428D02*
X58494323Y-71445428D01*
X58113371Y-71826380D02*
X58113371Y-71064476D01*
X3706833Y-13596880D02*
X3373500Y-13120690D01*
X3135404Y-13596880D02*
X3135404Y-12596880D01*
X3516357Y-12596880D01*
X3611595Y-12644500D01*
X3659214Y-12692119D01*
X3706833Y-12787357D01*
X3706833Y-12930214D01*
X3659214Y-13025452D01*
X3611595Y-13073071D01*
X3516357Y-13120690D01*
X3135404Y-13120690D01*
X4040166Y-12596880D02*
X4706833Y-12596880D01*
X4278261Y-13596880D01*
X13088880Y-4929166D02*
X12612690Y-5262500D01*
X13088880Y-5500595D02*
X12088880Y-5500595D01*
X12088880Y-5119642D01*
X12136500Y-5024404D01*
X12184119Y-4976785D01*
X12279357Y-4929166D01*
X12422214Y-4929166D01*
X12517452Y-4976785D01*
X12565071Y-5024404D01*
X12612690Y-5119642D01*
X12612690Y-5500595D01*
X12517452Y-4357738D02*
X12469833Y-4452976D01*
X12422214Y-4500595D01*
X12326976Y-4548214D01*
X12279357Y-4548214D01*
X12184119Y-4500595D01*
X12136500Y-4452976D01*
X12088880Y-4357738D01*
X12088880Y-4167261D01*
X12136500Y-4072023D01*
X12184119Y-4024404D01*
X12279357Y-3976785D01*
X12326976Y-3976785D01*
X12422214Y-4024404D01*
X12469833Y-4072023D01*
X12517452Y-4167261D01*
X12517452Y-4357738D01*
X12565071Y-4452976D01*
X12612690Y-4500595D01*
X12707928Y-4548214D01*
X12898404Y-4548214D01*
X12993642Y-4500595D01*
X13041261Y-4452976D01*
X13088880Y-4357738D01*
X13088880Y-4167261D01*
X13041261Y-4072023D01*
X12993642Y-4024404D01*
X12898404Y-3976785D01*
X12707928Y-3976785D01*
X12612690Y-4024404D01*
X12565071Y-4072023D01*
X12517452Y-4167261D01*
X6081733Y-39473142D02*
X6034114Y-39520761D01*
X5891257Y-39568380D01*
X5796019Y-39568380D01*
X5653161Y-39520761D01*
X5557923Y-39425523D01*
X5510304Y-39330285D01*
X5462685Y-39139809D01*
X5462685Y-38996952D01*
X5510304Y-38806476D01*
X5557923Y-38711238D01*
X5653161Y-38616000D01*
X5796019Y-38568380D01*
X5891257Y-38568380D01*
X6034114Y-38616000D01*
X6081733Y-38663619D01*
X6938876Y-38901714D02*
X6938876Y-39568380D01*
X6700780Y-38520761D02*
X6462685Y-39235047D01*
X7081733Y-39235047D01*
X22198104Y-66847980D02*
X22198104Y-65847980D01*
X22436200Y-65847980D01*
X22579057Y-65895600D01*
X22674295Y-65990838D01*
X22721914Y-66086076D01*
X22769533Y-66276552D01*
X22769533Y-66419409D01*
X22721914Y-66609885D01*
X22674295Y-66705123D01*
X22579057Y-66800361D01*
X22436200Y-66847980D01*
X22198104Y-66847980D01*
X23150485Y-65943219D02*
X23198104Y-65895600D01*
X23293342Y-65847980D01*
X23531438Y-65847980D01*
X23626676Y-65895600D01*
X23674295Y-65943219D01*
X23721914Y-66038457D01*
X23721914Y-66133695D01*
X23674295Y-66276552D01*
X23102866Y-66847980D01*
X23721914Y-66847980D01*
X11715180Y-61698095D02*
X10715180Y-61698095D01*
X10715180Y-61460000D01*
X10762800Y-61317142D01*
X10858038Y-61221904D01*
X10953276Y-61174285D01*
X11143752Y-61126666D01*
X11286609Y-61126666D01*
X11477085Y-61174285D01*
X11572323Y-61221904D01*
X11667561Y-61317142D01*
X11715180Y-61460000D01*
X11715180Y-61698095D01*
X10715180Y-60793333D02*
X10715180Y-60174285D01*
X11096133Y-60507619D01*
X11096133Y-60364761D01*
X11143752Y-60269523D01*
X11191371Y-60221904D01*
X11286609Y-60174285D01*
X11524704Y-60174285D01*
X11619942Y-60221904D01*
X11667561Y-60269523D01*
X11715180Y-60364761D01*
X11715180Y-60650476D01*
X11667561Y-60745714D01*
X11619942Y-60793333D01*
X13061961Y-7253219D02*
X12966723Y-7205600D01*
X12871485Y-7110361D01*
X12728628Y-6967504D01*
X12633390Y-6919885D01*
X12538152Y-6919885D01*
X12585771Y-7157980D02*
X12490533Y-7110361D01*
X12395295Y-7015123D01*
X12347676Y-6824647D01*
X12347676Y-6491314D01*
X12395295Y-6300838D01*
X12490533Y-6205600D01*
X12585771Y-6157980D01*
X12776247Y-6157980D01*
X12871485Y-6205600D01*
X12966723Y-6300838D01*
X13014342Y-6491314D01*
X13014342Y-6824647D01*
X12966723Y-7015123D01*
X12871485Y-7110361D01*
X12776247Y-7157980D01*
X12585771Y-7157980D01*
X13395295Y-6253219D02*
X13442914Y-6205600D01*
X13538152Y-6157980D01*
X13776247Y-6157980D01*
X13871485Y-6205600D01*
X13919104Y-6253219D01*
X13966723Y-6348457D01*
X13966723Y-6443695D01*
X13919104Y-6586552D01*
X13347676Y-7157980D01*
X13966723Y-7157980D01*
X5040380Y-19811904D02*
X5849904Y-19811904D01*
X5945142Y-19764285D01*
X5992761Y-19716666D01*
X6040380Y-19621428D01*
X6040380Y-19430952D01*
X5992761Y-19335714D01*
X5945142Y-19288095D01*
X5849904Y-19240476D01*
X5040380Y-19240476D01*
X5040380Y-18859523D02*
X5040380Y-18240476D01*
X5421333Y-18573809D01*
X5421333Y-18430952D01*
X5468952Y-18335714D01*
X5516571Y-18288095D01*
X5611809Y-18240476D01*
X5849904Y-18240476D01*
X5945142Y-18288095D01*
X5992761Y-18335714D01*
X6040380Y-18430952D01*
X6040380Y-18716666D01*
X5992761Y-18811904D01*
X5945142Y-18859523D01*
X43527742Y-62686580D02*
X43194409Y-62210390D01*
X42956314Y-62686580D02*
X42956314Y-61686580D01*
X43337266Y-61686580D01*
X43432504Y-61734200D01*
X43480123Y-61781819D01*
X43527742Y-61877057D01*
X43527742Y-62019914D01*
X43480123Y-62115152D01*
X43432504Y-62162771D01*
X43337266Y-62210390D01*
X42956314Y-62210390D01*
X44480123Y-62686580D02*
X43908695Y-62686580D01*
X44194409Y-62686580D02*
X44194409Y-61686580D01*
X44099171Y-61829438D01*
X44003933Y-61924676D01*
X43908695Y-61972295D01*
X45099171Y-61686580D02*
X45194409Y-61686580D01*
X45289647Y-61734200D01*
X45337266Y-61781819D01*
X45384885Y-61877057D01*
X45432504Y-62067533D01*
X45432504Y-62305628D01*
X45384885Y-62496104D01*
X45337266Y-62591342D01*
X45289647Y-62638961D01*
X45194409Y-62686580D01*
X45099171Y-62686580D01*
X45003933Y-62638961D01*
X44956314Y-62591342D01*
X44908695Y-62496104D01*
X44861076Y-62305628D01*
X44861076Y-62067533D01*
X44908695Y-61877057D01*
X44956314Y-61781819D01*
X45003933Y-61734200D01*
X45099171Y-61686580D01*
X48506142Y-62686580D02*
X48172809Y-62210390D01*
X47934714Y-62686580D02*
X47934714Y-61686580D01*
X48315666Y-61686580D01*
X48410904Y-61734200D01*
X48458523Y-61781819D01*
X48506142Y-61877057D01*
X48506142Y-62019914D01*
X48458523Y-62115152D01*
X48410904Y-62162771D01*
X48315666Y-62210390D01*
X47934714Y-62210390D01*
X49458523Y-62686580D02*
X48887095Y-62686580D01*
X49172809Y-62686580D02*
X49172809Y-61686580D01*
X49077571Y-61829438D01*
X48982333Y-61924676D01*
X48887095Y-61972295D01*
X49791857Y-61686580D02*
X50410904Y-61686580D01*
X50077571Y-62067533D01*
X50220428Y-62067533D01*
X50315666Y-62115152D01*
X50363285Y-62162771D01*
X50410904Y-62258009D01*
X50410904Y-62496104D01*
X50363285Y-62591342D01*
X50315666Y-62638961D01*
X50220428Y-62686580D01*
X49934714Y-62686580D01*
X49839476Y-62638961D01*
X49791857Y-62591342D01*
X38727142Y-62686580D02*
X38393809Y-62210390D01*
X38155714Y-62686580D02*
X38155714Y-61686580D01*
X38536666Y-61686580D01*
X38631904Y-61734200D01*
X38679523Y-61781819D01*
X38727142Y-61877057D01*
X38727142Y-62019914D01*
X38679523Y-62115152D01*
X38631904Y-62162771D01*
X38536666Y-62210390D01*
X38155714Y-62210390D01*
X39679523Y-62686580D02*
X39108095Y-62686580D01*
X39393809Y-62686580D02*
X39393809Y-61686580D01*
X39298571Y-61829438D01*
X39203333Y-61924676D01*
X39108095Y-61972295D01*
X40536666Y-62019914D02*
X40536666Y-62686580D01*
X40298571Y-61638961D02*
X40060476Y-62353247D01*
X40679523Y-62353247D01*
X33954142Y-62686580D02*
X33620809Y-62210390D01*
X33382714Y-62686580D02*
X33382714Y-61686580D01*
X33763666Y-61686580D01*
X33858904Y-61734200D01*
X33906523Y-61781819D01*
X33954142Y-61877057D01*
X33954142Y-62019914D01*
X33906523Y-62115152D01*
X33858904Y-62162771D01*
X33763666Y-62210390D01*
X33382714Y-62210390D01*
X34906523Y-62686580D02*
X34335095Y-62686580D01*
X34620809Y-62686580D02*
X34620809Y-61686580D01*
X34525571Y-61829438D01*
X34430333Y-61924676D01*
X34335095Y-61972295D01*
X35811285Y-61686580D02*
X35335095Y-61686580D01*
X35287476Y-62162771D01*
X35335095Y-62115152D01*
X35430333Y-62067533D01*
X35668428Y-62067533D01*
X35763666Y-62115152D01*
X35811285Y-62162771D01*
X35858904Y-62258009D01*
X35858904Y-62496104D01*
X35811285Y-62591342D01*
X35763666Y-62638961D01*
X35668428Y-62686580D01*
X35430333Y-62686580D01*
X35335095Y-62638961D01*
X35287476Y-62591342D01*
X51827133Y-6478542D02*
X51779514Y-6526161D01*
X51636657Y-6573780D01*
X51541419Y-6573780D01*
X51398561Y-6526161D01*
X51303323Y-6430923D01*
X51255704Y-6335685D01*
X51208085Y-6145209D01*
X51208085Y-6002352D01*
X51255704Y-5811876D01*
X51303323Y-5716638D01*
X51398561Y-5621400D01*
X51541419Y-5573780D01*
X51636657Y-5573780D01*
X51779514Y-5621400D01*
X51827133Y-5669019D01*
X52731895Y-5573780D02*
X52255704Y-5573780D01*
X52208085Y-6049971D01*
X52255704Y-6002352D01*
X52350942Y-5954733D01*
X52589038Y-5954733D01*
X52684276Y-6002352D01*
X52731895Y-6049971D01*
X52779514Y-6145209D01*
X52779514Y-6383304D01*
X52731895Y-6478542D01*
X52684276Y-6526161D01*
X52589038Y-6573780D01*
X52350942Y-6573780D01*
X52255704Y-6526161D01*
X52208085Y-6478542D01*
X46293971Y-17214352D02*
X46341590Y-17071495D01*
X46389209Y-17023876D01*
X46484447Y-16976257D01*
X46627304Y-16976257D01*
X46722542Y-17023876D01*
X46770161Y-17071495D01*
X46817780Y-17166733D01*
X46817780Y-17547685D01*
X45817780Y-17547685D01*
X45817780Y-17214352D01*
X45865400Y-17119114D01*
X45913019Y-17071495D01*
X46008257Y-17023876D01*
X46103495Y-17023876D01*
X46198733Y-17071495D01*
X46246352Y-17119114D01*
X46293971Y-17214352D01*
X46293971Y-17547685D01*
X45817780Y-16642923D02*
X45817780Y-15976257D01*
X46817780Y-16642923D01*
X46817780Y-15976257D01*
X46817780Y-15071495D02*
X46817780Y-15642923D01*
X46817780Y-15357209D02*
X45817780Y-15357209D01*
X45960638Y-15452447D01*
X46055876Y-15547685D01*
X46103495Y-15642923D01*
X51636828Y-19964352D02*
X51636828Y-19202447D01*
X52017780Y-19583400D02*
X51255876Y-19583400D01*
X3833833Y-11660142D02*
X3786214Y-11707761D01*
X3643357Y-11755380D01*
X3548119Y-11755380D01*
X3405261Y-11707761D01*
X3310023Y-11612523D01*
X3262404Y-11517285D01*
X3214785Y-11326809D01*
X3214785Y-11183952D01*
X3262404Y-10993476D01*
X3310023Y-10898238D01*
X3405261Y-10803000D01*
X3548119Y-10755380D01*
X3643357Y-10755380D01*
X3786214Y-10803000D01*
X3833833Y-10850619D01*
X4167166Y-10755380D02*
X4833833Y-10755380D01*
X4405261Y-11755380D01*
X8731261Y-48494119D02*
X8636023Y-48446500D01*
X8540785Y-48351261D01*
X8397928Y-48208404D01*
X8302690Y-48160785D01*
X8207452Y-48160785D01*
X8255071Y-48398880D02*
X8159833Y-48351261D01*
X8064595Y-48256023D01*
X8016976Y-48065547D01*
X8016976Y-47732214D01*
X8064595Y-47541738D01*
X8159833Y-47446500D01*
X8255071Y-47398880D01*
X8445547Y-47398880D01*
X8540785Y-47446500D01*
X8636023Y-47541738D01*
X8683642Y-47732214D01*
X8683642Y-48065547D01*
X8636023Y-48256023D01*
X8540785Y-48351261D01*
X8445547Y-48398880D01*
X8255071Y-48398880D01*
X9540785Y-47732214D02*
X9540785Y-48398880D01*
X9302690Y-47351261D02*
X9064595Y-48065547D01*
X9683642Y-48065547D01*
X12311142Y-18168880D02*
X11977809Y-17692690D01*
X11739714Y-18168880D02*
X11739714Y-17168880D01*
X12120666Y-17168880D01*
X12215904Y-17216500D01*
X12263523Y-17264119D01*
X12311142Y-17359357D01*
X12311142Y-17502214D01*
X12263523Y-17597452D01*
X12215904Y-17645071D01*
X12120666Y-17692690D01*
X11739714Y-17692690D01*
X13263523Y-18168880D02*
X12692095Y-18168880D01*
X12977809Y-18168880D02*
X12977809Y-17168880D01*
X12882571Y-17311738D01*
X12787333Y-17406976D01*
X12692095Y-17454595D01*
X14120666Y-17168880D02*
X13930190Y-17168880D01*
X13834952Y-17216500D01*
X13787333Y-17264119D01*
X13692095Y-17406976D01*
X13644476Y-17597452D01*
X13644476Y-17978404D01*
X13692095Y-18073642D01*
X13739714Y-18121261D01*
X13834952Y-18168880D01*
X14025428Y-18168880D01*
X14120666Y-18121261D01*
X14168285Y-18073642D01*
X14215904Y-17978404D01*
X14215904Y-17740309D01*
X14168285Y-17645071D01*
X14120666Y-17597452D01*
X14025428Y-17549833D01*
X13834952Y-17549833D01*
X13739714Y-17597452D01*
X13692095Y-17645071D01*
X13644476Y-17740309D01*
X11804380Y-30233857D02*
X11328190Y-30567190D01*
X11804380Y-30805285D02*
X10804380Y-30805285D01*
X10804380Y-30424333D01*
X10852000Y-30329095D01*
X10899619Y-30281476D01*
X10994857Y-30233857D01*
X11137714Y-30233857D01*
X11232952Y-30281476D01*
X11280571Y-30329095D01*
X11328190Y-30424333D01*
X11328190Y-30805285D01*
X11804380Y-29281476D02*
X11804380Y-29852904D01*
X11804380Y-29567190D02*
X10804380Y-29567190D01*
X10947238Y-29662428D01*
X11042476Y-29757666D01*
X11090095Y-29852904D01*
X10804380Y-28948142D02*
X10804380Y-28281476D01*
X11804380Y-28710047D01*
X21645642Y-54118380D02*
X21312309Y-53642190D01*
X21074214Y-54118380D02*
X21074214Y-53118380D01*
X21455166Y-53118380D01*
X21550404Y-53166000D01*
X21598023Y-53213619D01*
X21645642Y-53308857D01*
X21645642Y-53451714D01*
X21598023Y-53546952D01*
X21550404Y-53594571D01*
X21455166Y-53642190D01*
X21074214Y-53642190D01*
X22598023Y-54118380D02*
X22026595Y-54118380D01*
X22312309Y-54118380D02*
X22312309Y-53118380D01*
X22217071Y-53261238D01*
X22121833Y-53356476D01*
X22026595Y-53404095D01*
X23169452Y-53546952D02*
X23074214Y-53499333D01*
X23026595Y-53451714D01*
X22978976Y-53356476D01*
X22978976Y-53308857D01*
X23026595Y-53213619D01*
X23074214Y-53166000D01*
X23169452Y-53118380D01*
X23359928Y-53118380D01*
X23455166Y-53166000D01*
X23502785Y-53213619D01*
X23550404Y-53308857D01*
X23550404Y-53356476D01*
X23502785Y-53451714D01*
X23455166Y-53499333D01*
X23359928Y-53546952D01*
X23169452Y-53546952D01*
X23074214Y-53594571D01*
X23026595Y-53642190D01*
X22978976Y-53737428D01*
X22978976Y-53927904D01*
X23026595Y-54023142D01*
X23074214Y-54070761D01*
X23169452Y-54118380D01*
X23359928Y-54118380D01*
X23455166Y-54070761D01*
X23502785Y-54023142D01*
X23550404Y-53927904D01*
X23550404Y-53737428D01*
X23502785Y-53642190D01*
X23455166Y-53594571D01*
X23359928Y-53546952D01*
X19172642Y-61126666D02*
X19220261Y-61174285D01*
X19267880Y-61317142D01*
X19267880Y-61412380D01*
X19220261Y-61555238D01*
X19125023Y-61650476D01*
X19029785Y-61698095D01*
X18839309Y-61745714D01*
X18696452Y-61745714D01*
X18505976Y-61698095D01*
X18410738Y-61650476D01*
X18315500Y-61555238D01*
X18267880Y-61412380D01*
X18267880Y-61317142D01*
X18315500Y-61174285D01*
X18363119Y-61126666D01*
X18267880Y-60793333D02*
X18267880Y-60174285D01*
X18648833Y-60507619D01*
X18648833Y-60364761D01*
X18696452Y-60269523D01*
X18744071Y-60221904D01*
X18839309Y-60174285D01*
X19077404Y-60174285D01*
X19172642Y-60221904D01*
X19220261Y-60269523D01*
X19267880Y-60364761D01*
X19267880Y-60650476D01*
X19220261Y-60745714D01*
X19172642Y-60793333D01*
M02*
