M48
;DRILL file {KiCad no-vcs-found-c6d0075~61~ubuntu17.10.1} date Thu Feb  1 11:14:42 2018
;FORMAT={-:-/ absolute / inch / decimal}
FMAT,2
INCH,TZ
T1C0.0157
T2C0.0236
T3C0.0276
T4C0.0315
T5C0.0394
T6C0.0472
T7C0.1693
%
G90
G05
M72
T1
X0.38Y-1.2825
X0.38Y-1.3219
X0.38Y-1.3612
X0.58Y-1.225
X0.58Y-1.2644
X0.58Y-1.3037
X0.7825Y-1.1375
X0.8006Y-1.975
X0.8006Y-2.1125
X0.8219Y-1.1375
X0.84Y-1.975
X0.84Y-2.1125
X0.8612Y-1.1375
X0.9256Y-1.975
X0.9256Y-2.11
X0.965Y-1.975
X0.965Y-2.11
X0.975Y-0.9925
X1.0144Y-0.9925
X1.0537Y-0.9925
X1.0931Y-0.9925
X1.485Y-0.1
X1.5244Y-0.1
X1.7625Y-0.9475
X1.7625Y-0.9869
X1.7625Y-1.0262
X1.7625Y-1.0656
X1.9Y-0.0725
X1.9Y-0.1119
X1.9Y-0.1512
X1.9Y-0.1906
X2.1Y-1.27
X2.1Y-1.3094
X2.1Y-1.3487
X2.1Y-1.3881
X2.1Y-1.4275
X2.1Y-1.4669
X2.1Y-1.7325
X2.1Y-1.7719
X2.1Y-1.8112
X2.1Y-1.8506
X2.1Y-1.89
X2.1Y-1.9294
X2.1025Y-0.9375
X2.1025Y-0.9769
X2.1025Y-1.0162
X2.1025Y-1.0556
X2.1025Y-2.2075
X2.1025Y-2.2469
X2.1025Y-2.2862
X2.1025Y-2.3256
X2.1025Y-2.365
X2.1025Y-2.4044
X2.105Y-2.64
X2.105Y-2.6794
X2.105Y-2.7187
X2.105Y-2.7581
X2.2925Y-2.64
X2.2925Y-2.6794
X2.2925Y-2.7187
X2.2925Y-2.7581
X2.2969Y-1.27
X2.2969Y-1.3094
X2.2969Y-1.3487
X2.2969Y-1.3881
X2.2969Y-1.4275
X2.2969Y-1.4669
X2.2969Y-1.7325
X2.2969Y-1.7719
X2.2969Y-1.8112
X2.2969Y-1.8506
X2.2969Y-1.89
X2.2969Y-1.9294
X2.2975Y-0.9375
X2.2975Y-0.9769
X2.2975Y-1.0162
X2.2975Y-1.0556
X2.2994Y-2.2075
X2.2994Y-2.2469
X2.2994Y-2.2862
X2.2994Y-2.3256
X2.2994Y-2.365
X2.2994Y-2.4044
T2
X0.2667Y-2.9134
X0.3039Y-2.8236
X0.3039Y-3.0032
X0.3937Y-2.7864
X0.3937Y-3.0404
X0.4835Y-2.8236
X0.4835Y-3.0032
X0.5207Y-2.9134
X1.0541Y-1.9685
X1.0913Y-1.8787
X1.0913Y-2.0583
X1.1811Y-1.8415
X1.1811Y-2.0955
X1.2709Y-1.8787
X1.2709Y-2.0583
X1.3081Y-1.9685
T3
X1.49Y-0.51
X1.49Y-0.61
X1.49Y-0.91
X1.49Y-1.01
X1.49Y-1.11
T4
X0.2475Y-1.7475
X0.3475Y-1.7475
X0.4475Y-1.7475
X0.4875Y-0.3325
X0.4875Y-0.4325
X0.4875Y-0.5325
T5
X0.502Y-2.05
X2.101Y-0.5151
X2.101Y-0.771
X2.199Y-2.916
T6
X0.16Y-0.23
X0.26Y-0.23
X0.695Y-0.33
X0.795Y-0.33
X0.895Y-0.33
X0.995Y-0.33
T7
X0.3937Y-2.9134
X1.1811Y-1.9685
T0
M30
