M48
;DRILL file {KiCad no-vcs-found-dc66b73~61~ubuntu17.10.1} date Sun Feb  4 10:14:18 2018
;FORMAT={2:4/ absolute / inch / suppress leading zeros}
FMAT,2
INCH,TZ
T1C0.0157
T2C0.0236
T3C0.0276
T4C0.0315
T5C0.0394
T6C0.0472
T7C0.1693
%
G90
G05
M72
T1
X3800Y-12825
X3800Y-13219
X3800Y-13612
X5800Y-12250
X5800Y-12644
X5800Y-13037
X7825Y-11375
X8006Y-19750
X8006Y-21125
X8219Y-11375
X8400Y-19750
X8400Y-21125
X8612Y-11375
X9256Y-19750
X9256Y-21100
X9650Y-19750
X9650Y-21100
X9750Y-9925
X10144Y-9925
X10537Y-9925
X10931Y-9925
X14850Y-1000
X15244Y-1000
X17625Y-9475
X17625Y-9869
X17625Y-10262
X17625Y-10656
X19000Y-725
X19000Y-1119
X19000Y-1512
X19000Y-1906
X21000Y-12700
X21000Y-13094
X21000Y-13487
X21000Y-13881
X21000Y-14275
X21000Y-14669
X21000Y-17325
X21000Y-17719
X21000Y-18112
X21000Y-18506
X21000Y-18900
X21000Y-19294
X21025Y-9375
X21025Y-9769
X21025Y-10162
X21025Y-10556
X21025Y-22075
X21025Y-22469
X21025Y-22862
X21025Y-23256
X21025Y-23650
X21025Y-24044
X21050Y-26400
X21050Y-26794
X21050Y-27187
X21050Y-27581
X22925Y-26400
X22925Y-26794
X22925Y-27187
X22925Y-27581
X22969Y-12700
X22969Y-13094
X22969Y-13487
X22969Y-13881
X22969Y-14275
X22969Y-14669
X22969Y-17325
X22969Y-17719
X22969Y-18112
X22969Y-18506
X22969Y-18900
X22969Y-19294
X22975Y-9375
X22975Y-9769
X22975Y-10162
X22975Y-10556
X22994Y-22075
X22994Y-22469
X22994Y-22862
X22994Y-23256
X22994Y-23650
X22994Y-24044
T2
X10541Y-19685
X10913Y-18787
X10913Y-20583
X11811Y-18415
X11811Y-20955
X12709Y-18787
X12709Y-20583
X13081Y-19685
X2667Y-29134
X3039Y-28236
X3039Y-30032
X3937Y-27864
X3937Y-30404
X4835Y-28236
X4835Y-30032
X5207Y-29134
T3
X14900Y-5100
X14900Y-6100
X14900Y-9100
X14900Y-10100
X14900Y-11100
T4
X4875Y-3325
X4875Y-4325
X4875Y-5325
X2475Y-17475
X3475Y-17475
X4475Y-17475
T5
X5020Y-20500
X21990Y-29160
X21010Y-5151
X21010Y-7710
T6
X1600Y-2300
X2600Y-2300
X6950Y-3300
X7950Y-3300
X8950Y-3300
X9950Y-3300
T7
X11811Y-19685
X3937Y-29134
T0
M30
