G04 #@! TF.GenerationSoftware,KiCad,Pcbnew,no-vcs-found-b05a40e~61~ubuntu17.10.1*
G04 #@! TF.CreationDate,2017-12-27T10:39:54-05:00*
G04 #@! TF.ProjectId,ENNOID Dual Gate Driver,454E4E4F4944204475616C2047617465,rev?*
G04 #@! TF.SameCoordinates,Original*
G04 #@! TF.FileFunction,Legend,Top*
G04 #@! TF.FilePolarity,Positive*
%FSLAX46Y46*%
G04 Gerber Fmt 4.6, Leading zero omitted, Abs format (unit mm)*
G04 Created by KiCad (PCBNEW no-vcs-found-b05a40e~61~ubuntu17.10.1) date Wed Dec 27 10:39:54 2017*
%MOMM*%
%LPD*%
G01*
G04 APERTURE LIST*
%ADD10C,0.200000*%
%ADD11C,0.120000*%
%ADD12C,0.150000*%
%ADD13C,0.100000*%
G04 APERTURE END LIST*
D10*
X11679180Y-74842619D02*
X11202990Y-75175952D01*
X11679180Y-75414047D02*
X10679180Y-75414047D01*
X10679180Y-75033095D01*
X10726800Y-74937857D01*
X10774419Y-74890238D01*
X10869657Y-74842619D01*
X11012514Y-74842619D01*
X11107752Y-74890238D01*
X11155371Y-74937857D01*
X11202990Y-75033095D01*
X11202990Y-75414047D01*
X11631561Y-74461666D02*
X11679180Y-74318809D01*
X11679180Y-74080714D01*
X11631561Y-73985476D01*
X11583942Y-73937857D01*
X11488704Y-73890238D01*
X11393466Y-73890238D01*
X11298228Y-73937857D01*
X11250609Y-73985476D01*
X11202990Y-74080714D01*
X11155371Y-74271190D01*
X11107752Y-74366428D01*
X11060133Y-74414047D01*
X10964895Y-74461666D01*
X10869657Y-74461666D01*
X10774419Y-74414047D01*
X10726800Y-74366428D01*
X10679180Y-74271190D01*
X10679180Y-74033095D01*
X10726800Y-73890238D01*
X10679180Y-73604523D02*
X10679180Y-73033095D01*
X11679180Y-73318809D02*
X10679180Y-73318809D01*
X6837371Y-75014057D02*
X6837371Y-75347390D01*
X7361180Y-75347390D02*
X6361180Y-75347390D01*
X6361180Y-74871200D01*
X7361180Y-74014057D02*
X7361180Y-74490247D01*
X6361180Y-74490247D01*
X6361180Y-73823580D02*
X6361180Y-73252152D01*
X7361180Y-73537866D02*
X6361180Y-73537866D01*
X3093980Y-74990247D02*
X2617790Y-75323580D01*
X3093980Y-75561676D02*
X2093980Y-75561676D01*
X2093980Y-75180723D01*
X2141600Y-75085485D01*
X2189219Y-75037866D01*
X2284457Y-74990247D01*
X2427314Y-74990247D01*
X2522552Y-75037866D01*
X2570171Y-75085485D01*
X2617790Y-75180723D01*
X2617790Y-75561676D01*
X3093980Y-74561676D02*
X2093980Y-74561676D01*
X2093980Y-74323580D01*
X2141600Y-74180723D01*
X2236838Y-74085485D01*
X2332076Y-74037866D01*
X2522552Y-73990247D01*
X2665409Y-73990247D01*
X2855885Y-74037866D01*
X2951123Y-74085485D01*
X3046361Y-74180723D01*
X3093980Y-74323580D01*
X3093980Y-74561676D01*
X2617790Y-73371200D02*
X3093980Y-73371200D01*
X2093980Y-73704533D02*
X2617790Y-73371200D01*
X2093980Y-73037866D01*
D11*
X37483600Y-23402800D02*
X37483600Y-21402800D01*
X40443600Y-21402800D02*
X40443600Y-23402800D01*
X12620000Y-80100000D02*
X12620000Y-78900000D01*
X14380000Y-78900000D02*
X14380000Y-80100000D01*
X49279300Y-69475800D02*
X51279300Y-69475800D01*
X51279300Y-66515800D02*
X49279300Y-66515800D01*
X49776000Y-69711200D02*
X48776000Y-69711200D01*
X48776000Y-71411200D02*
X49776000Y-71411200D01*
X49826800Y-78918700D02*
X48826800Y-78918700D01*
X48826800Y-80618700D02*
X49826800Y-80618700D01*
X48826800Y-82612600D02*
X49826800Y-82612600D01*
X49826800Y-80912600D02*
X48826800Y-80912600D01*
X13448400Y-40000000D02*
X13448400Y-39000000D01*
X11748400Y-39000000D02*
X11748400Y-40000000D01*
X17500000Y-40850000D02*
X18500000Y-40850000D01*
X18500000Y-39150000D02*
X17500000Y-39150000D01*
X22500000Y-40850000D02*
X23500000Y-40850000D01*
X23500000Y-39150000D02*
X22500000Y-39150000D01*
X20413600Y-7826640D02*
X19413600Y-7826640D01*
X19413600Y-9526640D02*
X20413600Y-9526640D01*
X47433600Y-40000000D02*
X47433600Y-39000000D01*
X45733600Y-39000000D02*
X45733600Y-40000000D01*
X51500000Y-40850000D02*
X52500000Y-40850000D01*
X52500000Y-39150000D02*
X51500000Y-39150000D01*
X56500000Y-40850000D02*
X57500000Y-40850000D01*
X57500000Y-39150000D02*
X56500000Y-39150000D01*
X42302800Y-23918800D02*
X42302800Y-22918800D01*
X40602800Y-22918800D02*
X40602800Y-23918800D01*
X44182400Y-23918800D02*
X44182400Y-22918800D01*
X42482400Y-22918800D02*
X42482400Y-23918800D01*
X41203500Y-10021200D02*
X40203500Y-10021200D01*
X40203500Y-11721200D02*
X41203500Y-11721200D01*
X34962200Y-38500000D02*
X34962200Y-37500000D01*
X33262200Y-37500000D02*
X33262200Y-38500000D01*
X46486180Y-81193260D02*
X46486180Y-80193260D01*
X44786180Y-80193260D02*
X44786180Y-81193260D01*
X48023400Y-85484600D02*
X47023400Y-85484600D01*
X47023400Y-87184600D02*
X48023400Y-87184600D01*
X13242800Y-31227200D02*
X11242800Y-31227200D01*
X11242800Y-31227200D02*
X11242800Y-35127200D01*
X13242800Y-31227200D02*
X13242800Y-35127200D01*
X47177200Y-31074800D02*
X47177200Y-34974800D01*
X45177200Y-31074800D02*
X45177200Y-34974800D01*
X47177200Y-31074800D02*
X45177200Y-31074800D01*
X25250000Y-38500000D02*
X25250000Y-36500000D01*
X25250000Y-36500000D02*
X21350000Y-36500000D01*
X25250000Y-38500000D02*
X21350000Y-38500000D01*
X3910000Y-15030000D02*
X1090000Y-15030000D01*
X2500000Y-21920000D02*
X2500000Y-19510000D01*
X2500000Y-11780000D02*
X2500000Y-14190000D01*
X3910000Y-19510000D02*
X3910000Y-14190000D01*
X1090000Y-19510000D02*
X3910000Y-19510000D01*
X1090000Y-14190000D02*
X1090000Y-19510000D01*
X3910000Y-14190000D02*
X1090000Y-14190000D01*
X1540000Y-8549200D02*
X1540000Y-4649200D01*
X3540000Y-8549200D02*
X3540000Y-4649200D01*
X1540000Y-8549200D02*
X3540000Y-8549200D01*
X59250000Y-38500000D02*
X59250000Y-36500000D01*
X59250000Y-36500000D02*
X55350000Y-36500000D01*
X59250000Y-38500000D02*
X55350000Y-38500000D01*
X31410000Y-14190000D02*
X28590000Y-14190000D01*
X28590000Y-14190000D02*
X28590000Y-19510000D01*
X28590000Y-19510000D02*
X31410000Y-19510000D01*
X31410000Y-19510000D02*
X31410000Y-14190000D01*
X30000000Y-11780000D02*
X30000000Y-14190000D01*
X30000000Y-21920000D02*
X30000000Y-19510000D01*
X31410000Y-15030000D02*
X28590000Y-15030000D01*
X28869200Y-8924800D02*
X24969200Y-8924800D01*
X28869200Y-6924800D02*
X24969200Y-6924800D01*
X28869200Y-8924800D02*
X28869200Y-6924800D01*
X13944300Y-96672300D02*
X14564300Y-96672300D01*
X13944300Y-95072300D02*
X13944300Y-96672300D01*
X14564300Y-95072300D02*
X13944300Y-95072300D01*
X13944300Y-94132300D02*
X14564300Y-94132300D01*
X13944300Y-92532300D02*
X13944300Y-94132300D01*
X14564300Y-92532300D02*
X13944300Y-92532300D01*
X13944300Y-91592300D02*
X14564300Y-91592300D01*
X13944300Y-89992300D02*
X13944300Y-91592300D01*
X14564300Y-89992300D02*
X13944300Y-89992300D01*
X13944300Y-89052300D02*
X14564300Y-89052300D01*
X13944300Y-87452300D02*
X13944300Y-89052300D01*
X14564300Y-87452300D02*
X13944300Y-87452300D01*
X8564300Y-95622300D02*
X9564300Y-95622300D01*
X8564300Y-88502300D02*
X9564300Y-88502300D01*
X9994300Y-95622300D02*
X9564300Y-95872300D01*
X9994300Y-88502300D02*
X9994300Y-95622300D01*
X9564300Y-88252300D02*
X9994300Y-88502300D01*
X9564300Y-95872300D02*
X8564300Y-95872300D01*
X9564300Y-88252300D02*
X9564300Y-95872300D01*
X8564300Y-88252300D02*
X9564300Y-88252300D01*
X14564300Y-97242300D02*
X14564300Y-86882300D01*
X8564300Y-97242300D02*
X14564300Y-97242300D01*
X8564300Y-86882300D02*
X8564300Y-97242300D01*
X14564300Y-86882300D02*
X8564300Y-86882300D01*
X50888600Y-96558000D02*
X51508600Y-96558000D01*
X50888600Y-94958000D02*
X50888600Y-96558000D01*
X51508600Y-94958000D02*
X50888600Y-94958000D01*
X50888600Y-94018000D02*
X51508600Y-94018000D01*
X50888600Y-92418000D02*
X50888600Y-94018000D01*
X51508600Y-92418000D02*
X50888600Y-92418000D01*
X45508600Y-95508000D02*
X46508600Y-95508000D01*
X45508600Y-93468000D02*
X46508600Y-93468000D01*
X46938600Y-95508000D02*
X46508600Y-95758000D01*
X46938600Y-93468000D02*
X46938600Y-95508000D01*
X46508600Y-93218000D02*
X46938600Y-93468000D01*
X46508600Y-95758000D02*
X45508600Y-95758000D01*
X46508600Y-93218000D02*
X46508600Y-95758000D01*
X45508600Y-93218000D02*
X46508600Y-93218000D01*
X51508600Y-97128000D02*
X51508600Y-91848000D01*
X45508600Y-97128000D02*
X51508600Y-97128000D01*
X45508600Y-91848000D02*
X45508600Y-97128000D01*
X51508600Y-91848000D02*
X45508600Y-91848000D01*
X15891400Y-57134200D02*
X15891400Y-58334200D01*
X14131400Y-58334200D02*
X14131400Y-57134200D01*
X19701400Y-57108800D02*
X19701400Y-58308800D01*
X17941400Y-58308800D02*
X17941400Y-57108800D01*
X16036400Y-58308800D02*
X16036400Y-57108800D01*
X17796400Y-57108800D02*
X17796400Y-58308800D01*
X3264600Y-24799400D02*
X4464600Y-24799400D01*
X4464600Y-26559400D02*
X3264600Y-26559400D01*
X13983600Y-14349600D02*
X13983600Y-16749600D01*
X11583600Y-14349600D02*
X11583600Y-16749600D01*
X15083600Y-14349600D02*
X15083600Y-16749600D01*
X17483600Y-14349600D02*
X17483600Y-16749600D01*
X19313600Y-9686400D02*
X20513600Y-9686400D01*
X20513600Y-11446400D02*
X19313600Y-11446400D01*
X9880000Y-78900000D02*
X9880000Y-80100000D01*
X8120000Y-80100000D02*
X8120000Y-78900000D01*
X48700800Y-58461200D02*
X48700800Y-57261200D01*
X50460800Y-57261200D02*
X50460800Y-58461200D01*
X52637800Y-58435800D02*
X52637800Y-57235800D01*
X54397800Y-57235800D02*
X54397800Y-58435800D01*
X50707400Y-58435800D02*
X50707400Y-57235800D01*
X52467400Y-57235800D02*
X52467400Y-58435800D01*
X29120000Y-27600000D02*
X29120000Y-26400000D01*
X30880000Y-26400000D02*
X30880000Y-27600000D01*
X55475200Y-14451200D02*
X55475200Y-16851200D01*
X53075200Y-14451200D02*
X53075200Y-16851200D01*
X49575200Y-14451200D02*
X49575200Y-16851200D01*
X51975200Y-14451200D02*
X51975200Y-16851200D01*
X40128900Y-8086200D02*
X41328900Y-8086200D01*
X41328900Y-9846200D02*
X40128900Y-9846200D01*
X32997600Y-37400000D02*
X32997600Y-38600000D01*
X31237600Y-38600000D02*
X31237600Y-37400000D01*
X29237600Y-38600000D02*
X29237600Y-37400000D01*
X30997600Y-37400000D02*
X30997600Y-38600000D01*
X46923400Y-89264600D02*
X48123400Y-89264600D01*
X48123400Y-91024600D02*
X46923400Y-91024600D01*
X46923400Y-87359600D02*
X48123400Y-87359600D01*
X48123400Y-89119600D02*
X46923400Y-89119600D01*
X10895600Y-14751600D02*
X7595600Y-14751600D01*
X7595600Y-14751600D02*
X7595600Y-21651600D01*
X10895600Y-14751600D02*
X10895600Y-21651600D01*
X59562000Y-14853200D02*
X59562000Y-21753200D01*
X56262000Y-14853200D02*
X56262000Y-21753200D01*
X59562000Y-14853200D02*
X56262000Y-14853200D01*
X12750000Y-75500000D02*
X12750000Y-72300000D01*
X14250000Y-72300000D02*
X14250000Y-75500000D01*
X14250000Y-72300000D02*
X12750000Y-72300000D01*
X9750000Y-72300000D02*
X8250000Y-72300000D01*
X9750000Y-72300000D02*
X9750000Y-75500000D01*
X8250000Y-75500000D02*
X8250000Y-72300000D01*
X42383600Y-84490000D02*
X42383600Y-85690000D01*
X40623600Y-85690000D02*
X40623600Y-84490000D01*
X3620000Y-80100000D02*
X3620000Y-78900000D01*
X5380000Y-78900000D02*
X5380000Y-80100000D01*
D12*
X22050000Y-44125000D02*
X22050000Y-42600000D01*
X11675000Y-44125000D02*
X11675000Y-51875000D01*
X22325000Y-44125000D02*
X22325000Y-51875000D01*
X11675000Y-44125000D02*
X12030000Y-44125000D01*
X11675000Y-51875000D02*
X12030000Y-51875000D01*
X22325000Y-51875000D02*
X21970000Y-51875000D01*
X22325000Y-44125000D02*
X22050000Y-44125000D01*
X56325000Y-44125000D02*
X56050000Y-44125000D01*
X56325000Y-51875000D02*
X55970000Y-51875000D01*
X45675000Y-51875000D02*
X46030000Y-51875000D01*
X45675000Y-44125000D02*
X46030000Y-44125000D01*
X56325000Y-44125000D02*
X56325000Y-51875000D01*
X45675000Y-44125000D02*
X45675000Y-51875000D01*
X56050000Y-44125000D02*
X56050000Y-42600000D01*
D11*
X50158800Y-78341200D02*
X49058800Y-78341200D01*
X50158800Y-78611200D02*
X50158800Y-78341200D01*
X51658800Y-78611200D02*
X50158800Y-78611200D01*
X50158800Y-71981200D02*
X47328800Y-71981200D01*
X50158800Y-71711200D02*
X50158800Y-71981200D01*
X51658800Y-71711200D02*
X50158800Y-71711200D01*
X28384800Y-44450000D02*
X27684800Y-44450000D01*
X27684800Y-44450000D02*
X27684800Y-51500000D01*
X27684800Y-51500000D02*
X28434800Y-51500000D01*
X33134800Y-51500000D02*
X33884800Y-51500000D01*
X33884800Y-51500000D02*
X33884800Y-44450000D01*
X33884800Y-44450000D02*
X33234800Y-44450000D01*
X33234800Y-44450000D02*
X33234800Y-41750000D01*
D12*
X19507400Y-94018100D02*
X18907400Y-94618100D01*
X18907400Y-93418100D02*
X19507400Y-94018100D01*
X18907400Y-94618100D02*
X18907400Y-93418100D01*
X18457400Y-88178100D02*
X18957400Y-88178100D01*
X18957400Y-88078100D02*
X18957400Y-88278100D01*
X18457400Y-88078100D02*
X18957400Y-88078100D01*
X18457400Y-88278100D02*
X18457400Y-88078100D01*
X41037400Y-88178100D02*
X41537400Y-88178100D01*
X41537400Y-88078100D02*
X41537400Y-88278100D01*
X41037400Y-88078100D02*
X41537400Y-88078100D01*
X41037400Y-88278100D02*
X41037400Y-88078100D01*
X29747400Y-88178100D02*
X30247400Y-88178100D01*
X30247400Y-88078100D02*
X30247400Y-88278100D01*
X29747400Y-88078100D02*
X30247400Y-88078100D01*
X29747400Y-88278100D02*
X29747400Y-88078100D01*
X32222400Y-95918100D02*
X32222400Y-97218100D01*
X42757400Y-95918100D02*
X32222400Y-95918100D01*
X42757400Y-89578100D02*
X42757400Y-95918100D01*
X17237400Y-89578100D02*
X42757400Y-89578100D01*
X17237400Y-95918100D02*
X17237400Y-89578100D01*
X27772400Y-95918100D02*
X17237400Y-95918100D01*
X27772400Y-97218100D02*
X27772400Y-95918100D01*
X43957400Y-97218100D02*
X16037400Y-97218100D01*
X43957400Y-88278100D02*
X43957400Y-97218100D01*
X16037400Y-88278100D02*
X43957400Y-88278100D01*
X16037400Y-97218100D02*
X16037400Y-88278100D01*
D13*
X3700800Y-60657000D02*
X3700800Y-58657000D01*
X3700800Y-58657000D02*
X5900800Y-58657000D01*
D11*
X3900800Y-65857000D02*
X8900800Y-65857000D01*
X8900800Y-65857000D02*
X8900800Y-58857000D01*
X8900800Y-58857000D02*
X3900800Y-58857000D01*
X3900800Y-58857000D02*
X3900800Y-65857000D01*
X38063800Y-58933200D02*
X38063800Y-65933200D01*
X43063800Y-58933200D02*
X38063800Y-58933200D01*
X43063800Y-65933200D02*
X43063800Y-58933200D01*
X38063800Y-65933200D02*
X43063800Y-65933200D01*
D13*
X37863800Y-58733200D02*
X40063800Y-58733200D01*
X37863800Y-60733200D02*
X37863800Y-58733200D01*
D11*
X500000Y-57150000D02*
X10500000Y-57150000D01*
X500000Y-37410000D02*
X500000Y-57150000D01*
X10500000Y-37410000D02*
X500000Y-37410000D01*
X10500000Y-57150000D02*
X10500000Y-37410000D01*
D13*
X200000Y-57530000D02*
X200000Y-55500000D01*
X200000Y-57530000D02*
X2500000Y-57530000D01*
D11*
X34500000Y-57150000D02*
X44500000Y-57150000D01*
X34500000Y-37410000D02*
X34500000Y-57150000D01*
X44500000Y-37410000D02*
X34500000Y-37410000D01*
X44500000Y-57150000D02*
X44500000Y-37410000D01*
D13*
X34200000Y-57530000D02*
X34200000Y-55500000D01*
X34200000Y-57530000D02*
X36500000Y-57530000D01*
D12*
X14315400Y-28858600D02*
X14365400Y-28858600D01*
X14315400Y-24708600D02*
X14460400Y-24708600D01*
X19465400Y-24708600D02*
X19320400Y-24708600D01*
X19465400Y-28858600D02*
X19320400Y-28858600D01*
X14315400Y-28858600D02*
X14315400Y-24708600D01*
X19465400Y-28858600D02*
X19465400Y-24708600D01*
X14365400Y-28858600D02*
X14365400Y-30258600D01*
X48925000Y-28553800D02*
X48975000Y-28553800D01*
X48925000Y-24403800D02*
X49070000Y-24403800D01*
X54075000Y-24403800D02*
X53930000Y-24403800D01*
X54075000Y-28553800D02*
X53930000Y-28553800D01*
X48925000Y-28553800D02*
X48925000Y-24403800D01*
X54075000Y-28553800D02*
X54075000Y-24403800D01*
X48975000Y-28553800D02*
X48975000Y-29953800D01*
D11*
X5250000Y-72300000D02*
X3750000Y-72300000D01*
X5250000Y-72300000D02*
X5250000Y-75500000D01*
X3750000Y-75500000D02*
X3750000Y-72300000D01*
D12*
X38170882Y-18782302D02*
X38123263Y-18829921D01*
X37980406Y-18877540D01*
X37885168Y-18877540D01*
X37742311Y-18829921D01*
X37647073Y-18734683D01*
X37599454Y-18639445D01*
X37551835Y-18448969D01*
X37551835Y-18306112D01*
X37599454Y-18115636D01*
X37647073Y-18020398D01*
X37742311Y-17925160D01*
X37885168Y-17877540D01*
X37980406Y-17877540D01*
X38123263Y-17925160D01*
X38170882Y-17972779D01*
X38504216Y-17877540D02*
X39123263Y-17877540D01*
X38789930Y-18258493D01*
X38932787Y-18258493D01*
X39028025Y-18306112D01*
X39075644Y-18353731D01*
X39123263Y-18448969D01*
X39123263Y-18687064D01*
X39075644Y-18782302D01*
X39028025Y-18829921D01*
X38932787Y-18877540D01*
X38647073Y-18877540D01*
X38551835Y-18829921D01*
X38504216Y-18782302D01*
X40028025Y-17877540D02*
X39551835Y-17877540D01*
X39504216Y-18353731D01*
X39551835Y-18306112D01*
X39647073Y-18258493D01*
X39885168Y-18258493D01*
X39980406Y-18306112D01*
X40028025Y-18353731D01*
X40075644Y-18448969D01*
X40075644Y-18687064D01*
X40028025Y-18782302D01*
X39980406Y-18829921D01*
X39885168Y-18877540D01*
X39647073Y-18877540D01*
X39551835Y-18829921D01*
X39504216Y-18782302D01*
X12275980Y-79615866D02*
X11799790Y-79949200D01*
X12275980Y-80187295D02*
X11275980Y-80187295D01*
X11275980Y-79806342D01*
X11323600Y-79711104D01*
X11371219Y-79663485D01*
X11466457Y-79615866D01*
X11609314Y-79615866D01*
X11704552Y-79663485D01*
X11752171Y-79711104D01*
X11799790Y-79806342D01*
X11799790Y-80187295D01*
X11275980Y-78711104D02*
X11275980Y-79187295D01*
X11752171Y-79234914D01*
X11704552Y-79187295D01*
X11656933Y-79092057D01*
X11656933Y-78853961D01*
X11704552Y-78758723D01*
X11752171Y-78711104D01*
X11847409Y-78663485D01*
X12085504Y-78663485D01*
X12180742Y-78711104D01*
X12228361Y-78758723D01*
X12275980Y-78853961D01*
X12275980Y-79092057D01*
X12228361Y-79187295D01*
X12180742Y-79234914D01*
X54583033Y-68441842D02*
X54535414Y-68489461D01*
X54392557Y-68537080D01*
X54297319Y-68537080D01*
X54154461Y-68489461D01*
X54059223Y-68394223D01*
X54011604Y-68298985D01*
X53963985Y-68108509D01*
X53963985Y-67965652D01*
X54011604Y-67775176D01*
X54059223Y-67679938D01*
X54154461Y-67584700D01*
X54297319Y-67537080D01*
X54392557Y-67537080D01*
X54535414Y-67584700D01*
X54583033Y-67632319D01*
X55535414Y-68537080D02*
X54963985Y-68537080D01*
X55249700Y-68537080D02*
X55249700Y-67537080D01*
X55154461Y-67679938D01*
X55059223Y-67775176D01*
X54963985Y-67822795D01*
X52614533Y-70880242D02*
X52566914Y-70927861D01*
X52424057Y-70975480D01*
X52328819Y-70975480D01*
X52185961Y-70927861D01*
X52090723Y-70832623D01*
X52043104Y-70737385D01*
X51995485Y-70546909D01*
X51995485Y-70404052D01*
X52043104Y-70213576D01*
X52090723Y-70118338D01*
X52185961Y-70023100D01*
X52328819Y-69975480D01*
X52424057Y-69975480D01*
X52566914Y-70023100D01*
X52614533Y-70070719D01*
X52995485Y-70070719D02*
X53043104Y-70023100D01*
X53138342Y-69975480D01*
X53376438Y-69975480D01*
X53471676Y-70023100D01*
X53519295Y-70070719D01*
X53566914Y-70165957D01*
X53566914Y-70261195D01*
X53519295Y-70404052D01*
X52947866Y-70975480D01*
X53566914Y-70975480D01*
X52500233Y-80125842D02*
X52452614Y-80173461D01*
X52309757Y-80221080D01*
X52214519Y-80221080D01*
X52071661Y-80173461D01*
X51976423Y-80078223D01*
X51928804Y-79982985D01*
X51881185Y-79792509D01*
X51881185Y-79649652D01*
X51928804Y-79459176D01*
X51976423Y-79363938D01*
X52071661Y-79268700D01*
X52214519Y-79221080D01*
X52309757Y-79221080D01*
X52452614Y-79268700D01*
X52500233Y-79316319D01*
X52833566Y-79221080D02*
X53452614Y-79221080D01*
X53119280Y-79602033D01*
X53262138Y-79602033D01*
X53357376Y-79649652D01*
X53404995Y-79697271D01*
X53452614Y-79792509D01*
X53452614Y-80030604D01*
X53404995Y-80125842D01*
X53357376Y-80173461D01*
X53262138Y-80221080D01*
X52976423Y-80221080D01*
X52881185Y-80173461D01*
X52833566Y-80125842D01*
X52462133Y-82005442D02*
X52414514Y-82053061D01*
X52271657Y-82100680D01*
X52176419Y-82100680D01*
X52033561Y-82053061D01*
X51938323Y-81957823D01*
X51890704Y-81862585D01*
X51843085Y-81672109D01*
X51843085Y-81529252D01*
X51890704Y-81338776D01*
X51938323Y-81243538D01*
X52033561Y-81148300D01*
X52176419Y-81100680D01*
X52271657Y-81100680D01*
X52414514Y-81148300D01*
X52462133Y-81195919D01*
X53319276Y-81434014D02*
X53319276Y-82100680D01*
X53081180Y-81053061D02*
X52843085Y-81767347D01*
X53462133Y-81767347D01*
X14530342Y-40165257D02*
X14577961Y-40212876D01*
X14625580Y-40355733D01*
X14625580Y-40450971D01*
X14577961Y-40593828D01*
X14482723Y-40689066D01*
X14387485Y-40736685D01*
X14197009Y-40784304D01*
X14054152Y-40784304D01*
X13863676Y-40736685D01*
X13768438Y-40689066D01*
X13673200Y-40593828D01*
X13625580Y-40450971D01*
X13625580Y-40355733D01*
X13673200Y-40212876D01*
X13720819Y-40165257D01*
X14625580Y-39212876D02*
X14625580Y-39784304D01*
X14625580Y-39498590D02*
X13625580Y-39498590D01*
X13768438Y-39593828D01*
X13863676Y-39689066D01*
X13911295Y-39784304D01*
X13625580Y-38879542D02*
X13625580Y-38212876D01*
X14625580Y-38641447D01*
X17357142Y-38727142D02*
X17309523Y-38774761D01*
X17166666Y-38822380D01*
X17071428Y-38822380D01*
X16928571Y-38774761D01*
X16833333Y-38679523D01*
X16785714Y-38584285D01*
X16738095Y-38393809D01*
X16738095Y-38250952D01*
X16785714Y-38060476D01*
X16833333Y-37965238D01*
X16928571Y-37870000D01*
X17071428Y-37822380D01*
X17166666Y-37822380D01*
X17309523Y-37870000D01*
X17357142Y-37917619D01*
X18309523Y-38822380D02*
X17738095Y-38822380D01*
X18023809Y-38822380D02*
X18023809Y-37822380D01*
X17928571Y-37965238D01*
X17833333Y-38060476D01*
X17738095Y-38108095D01*
X18880952Y-38250952D02*
X18785714Y-38203333D01*
X18738095Y-38155714D01*
X18690476Y-38060476D01*
X18690476Y-38012857D01*
X18738095Y-37917619D01*
X18785714Y-37870000D01*
X18880952Y-37822380D01*
X19071428Y-37822380D01*
X19166666Y-37870000D01*
X19214285Y-37917619D01*
X19261904Y-38012857D01*
X19261904Y-38060476D01*
X19214285Y-38155714D01*
X19166666Y-38203333D01*
X19071428Y-38250952D01*
X18880952Y-38250952D01*
X18785714Y-38298571D01*
X18738095Y-38346190D01*
X18690476Y-38441428D01*
X18690476Y-38631904D01*
X18738095Y-38727142D01*
X18785714Y-38774761D01*
X18880952Y-38822380D01*
X19071428Y-38822380D01*
X19166666Y-38774761D01*
X19214285Y-38727142D01*
X19261904Y-38631904D01*
X19261904Y-38441428D01*
X19214285Y-38346190D01*
X19166666Y-38298571D01*
X19071428Y-38250952D01*
X22369542Y-41962342D02*
X22321923Y-42009961D01*
X22179066Y-42057580D01*
X22083828Y-42057580D01*
X21940971Y-42009961D01*
X21845733Y-41914723D01*
X21798114Y-41819485D01*
X21750495Y-41629009D01*
X21750495Y-41486152D01*
X21798114Y-41295676D01*
X21845733Y-41200438D01*
X21940971Y-41105200D01*
X22083828Y-41057580D01*
X22179066Y-41057580D01*
X22321923Y-41105200D01*
X22369542Y-41152819D01*
X23321923Y-42057580D02*
X22750495Y-42057580D01*
X23036209Y-42057580D02*
X23036209Y-41057580D01*
X22940971Y-41200438D01*
X22845733Y-41295676D01*
X22750495Y-41343295D01*
X23798114Y-42057580D02*
X23988590Y-42057580D01*
X24083828Y-42009961D01*
X24131447Y-41962342D01*
X24226685Y-41819485D01*
X24274304Y-41629009D01*
X24274304Y-41248057D01*
X24226685Y-41152819D01*
X24179066Y-41105200D01*
X24083828Y-41057580D01*
X23893352Y-41057580D01*
X23798114Y-41105200D01*
X23750495Y-41152819D01*
X23702876Y-41248057D01*
X23702876Y-41486152D01*
X23750495Y-41581390D01*
X23798114Y-41629009D01*
X23893352Y-41676628D01*
X24083828Y-41676628D01*
X24179066Y-41629009D01*
X24226685Y-41581390D01*
X24274304Y-41486152D01*
X15582662Y-8980442D02*
X15535043Y-9028061D01*
X15392186Y-9075680D01*
X15296948Y-9075680D01*
X15154091Y-9028061D01*
X15058853Y-8932823D01*
X15011234Y-8837585D01*
X14963615Y-8647109D01*
X14963615Y-8504252D01*
X15011234Y-8313776D01*
X15058853Y-8218538D01*
X15154091Y-8123300D01*
X15296948Y-8075680D01*
X15392186Y-8075680D01*
X15535043Y-8123300D01*
X15582662Y-8170919D01*
X15963615Y-8170919D02*
X16011234Y-8123300D01*
X16106472Y-8075680D01*
X16344567Y-8075680D01*
X16439805Y-8123300D01*
X16487424Y-8170919D01*
X16535043Y-8266157D01*
X16535043Y-8361395D01*
X16487424Y-8504252D01*
X15915996Y-9075680D01*
X16535043Y-9075680D01*
X17439805Y-8075680D02*
X16963615Y-8075680D01*
X16915996Y-8551871D01*
X16963615Y-8504252D01*
X17058853Y-8456633D01*
X17296948Y-8456633D01*
X17392186Y-8504252D01*
X17439805Y-8551871D01*
X17487424Y-8647109D01*
X17487424Y-8885204D01*
X17439805Y-8980442D01*
X17392186Y-9028061D01*
X17296948Y-9075680D01*
X17058853Y-9075680D01*
X16963615Y-9028061D01*
X16915996Y-8980442D01*
X48629842Y-40092057D02*
X48677461Y-40139676D01*
X48725080Y-40282533D01*
X48725080Y-40377771D01*
X48677461Y-40520628D01*
X48582223Y-40615866D01*
X48486985Y-40663485D01*
X48296509Y-40711104D01*
X48153652Y-40711104D01*
X47963176Y-40663485D01*
X47867938Y-40615866D01*
X47772700Y-40520628D01*
X47725080Y-40377771D01*
X47725080Y-40282533D01*
X47772700Y-40139676D01*
X47820319Y-40092057D01*
X47820319Y-39711104D02*
X47772700Y-39663485D01*
X47725080Y-39568247D01*
X47725080Y-39330152D01*
X47772700Y-39234914D01*
X47820319Y-39187295D01*
X47915557Y-39139676D01*
X48010795Y-39139676D01*
X48153652Y-39187295D01*
X48725080Y-39758723D01*
X48725080Y-39139676D01*
X48153652Y-38568247D02*
X48106033Y-38663485D01*
X48058414Y-38711104D01*
X47963176Y-38758723D01*
X47915557Y-38758723D01*
X47820319Y-38711104D01*
X47772700Y-38663485D01*
X47725080Y-38568247D01*
X47725080Y-38377771D01*
X47772700Y-38282533D01*
X47820319Y-38234914D01*
X47915557Y-38187295D01*
X47963176Y-38187295D01*
X48058414Y-38234914D01*
X48106033Y-38282533D01*
X48153652Y-38377771D01*
X48153652Y-38568247D01*
X48201271Y-38663485D01*
X48248890Y-38711104D01*
X48344128Y-38758723D01*
X48534604Y-38758723D01*
X48629842Y-38711104D01*
X48677461Y-38663485D01*
X48725080Y-38568247D01*
X48725080Y-38377771D01*
X48677461Y-38282533D01*
X48629842Y-38234914D01*
X48534604Y-38187295D01*
X48344128Y-38187295D01*
X48248890Y-38234914D01*
X48201271Y-38282533D01*
X48153652Y-38377771D01*
X51357142Y-38660342D02*
X51309523Y-38707961D01*
X51166666Y-38755580D01*
X51071428Y-38755580D01*
X50928571Y-38707961D01*
X50833333Y-38612723D01*
X50785714Y-38517485D01*
X50738095Y-38327009D01*
X50738095Y-38184152D01*
X50785714Y-37993676D01*
X50833333Y-37898438D01*
X50928571Y-37803200D01*
X51071428Y-37755580D01*
X51166666Y-37755580D01*
X51309523Y-37803200D01*
X51357142Y-37850819D01*
X51738095Y-37850819D02*
X51785714Y-37803200D01*
X51880952Y-37755580D01*
X52119047Y-37755580D01*
X52214285Y-37803200D01*
X52261904Y-37850819D01*
X52309523Y-37946057D01*
X52309523Y-38041295D01*
X52261904Y-38184152D01*
X51690476Y-38755580D01*
X52309523Y-38755580D01*
X52785714Y-38755580D02*
X52976190Y-38755580D01*
X53071428Y-38707961D01*
X53119047Y-38660342D01*
X53214285Y-38517485D01*
X53261904Y-38327009D01*
X53261904Y-37946057D01*
X53214285Y-37850819D01*
X53166666Y-37803200D01*
X53071428Y-37755580D01*
X52880952Y-37755580D01*
X52785714Y-37803200D01*
X52738095Y-37850819D01*
X52690476Y-37946057D01*
X52690476Y-38184152D01*
X52738095Y-38279390D01*
X52785714Y-38327009D01*
X52880952Y-38374628D01*
X53071428Y-38374628D01*
X53166666Y-38327009D01*
X53214285Y-38279390D01*
X53261904Y-38184152D01*
X56405542Y-42013142D02*
X56357923Y-42060761D01*
X56215066Y-42108380D01*
X56119828Y-42108380D01*
X55976971Y-42060761D01*
X55881733Y-41965523D01*
X55834114Y-41870285D01*
X55786495Y-41679809D01*
X55786495Y-41536952D01*
X55834114Y-41346476D01*
X55881733Y-41251238D01*
X55976971Y-41156000D01*
X56119828Y-41108380D01*
X56215066Y-41108380D01*
X56357923Y-41156000D01*
X56405542Y-41203619D01*
X56738876Y-41108380D02*
X57357923Y-41108380D01*
X57024590Y-41489333D01*
X57167447Y-41489333D01*
X57262685Y-41536952D01*
X57310304Y-41584571D01*
X57357923Y-41679809D01*
X57357923Y-41917904D01*
X57310304Y-42013142D01*
X57262685Y-42060761D01*
X57167447Y-42108380D01*
X56881733Y-42108380D01*
X56786495Y-42060761D01*
X56738876Y-42013142D01*
X57976971Y-41108380D02*
X58072209Y-41108380D01*
X58167447Y-41156000D01*
X58215066Y-41203619D01*
X58262685Y-41298857D01*
X58310304Y-41489333D01*
X58310304Y-41727428D01*
X58262685Y-41917904D01*
X58215066Y-42013142D01*
X58167447Y-42060761D01*
X58072209Y-42108380D01*
X57976971Y-42108380D01*
X57881733Y-42060761D01*
X57834114Y-42013142D01*
X57786495Y-41917904D01*
X57738876Y-41727428D01*
X57738876Y-41489333D01*
X57786495Y-41298857D01*
X57834114Y-41203619D01*
X57881733Y-41156000D01*
X57976971Y-41108380D01*
X41782002Y-20157677D02*
X41829621Y-20205296D01*
X41877240Y-20348153D01*
X41877240Y-20443391D01*
X41829621Y-20586248D01*
X41734383Y-20681486D01*
X41639145Y-20729105D01*
X41448669Y-20776724D01*
X41305812Y-20776724D01*
X41115336Y-20729105D01*
X41020098Y-20681486D01*
X40924860Y-20586248D01*
X40877240Y-20443391D01*
X40877240Y-20348153D01*
X40924860Y-20205296D01*
X40972479Y-20157677D01*
X40877240Y-19824343D02*
X40877240Y-19205296D01*
X41258193Y-19538629D01*
X41258193Y-19395772D01*
X41305812Y-19300534D01*
X41353431Y-19252915D01*
X41448669Y-19205296D01*
X41686764Y-19205296D01*
X41782002Y-19252915D01*
X41829621Y-19300534D01*
X41877240Y-19395772D01*
X41877240Y-19681486D01*
X41829621Y-19776724D01*
X41782002Y-19824343D01*
X40877240Y-18871962D02*
X40877240Y-18252915D01*
X41258193Y-18586248D01*
X41258193Y-18443391D01*
X41305812Y-18348153D01*
X41353431Y-18300534D01*
X41448669Y-18252915D01*
X41686764Y-18252915D01*
X41782002Y-18300534D01*
X41829621Y-18348153D01*
X41877240Y-18443391D01*
X41877240Y-18729105D01*
X41829621Y-18824343D01*
X41782002Y-18871962D01*
X43618422Y-20119577D02*
X43666041Y-20167196D01*
X43713660Y-20310053D01*
X43713660Y-20405291D01*
X43666041Y-20548148D01*
X43570803Y-20643386D01*
X43475565Y-20691005D01*
X43285089Y-20738624D01*
X43142232Y-20738624D01*
X42951756Y-20691005D01*
X42856518Y-20643386D01*
X42761280Y-20548148D01*
X42713660Y-20405291D01*
X42713660Y-20310053D01*
X42761280Y-20167196D01*
X42808899Y-20119577D01*
X42713660Y-19786243D02*
X42713660Y-19167196D01*
X43094613Y-19500529D01*
X43094613Y-19357672D01*
X43142232Y-19262434D01*
X43189851Y-19214815D01*
X43285089Y-19167196D01*
X43523184Y-19167196D01*
X43618422Y-19214815D01*
X43666041Y-19262434D01*
X43713660Y-19357672D01*
X43713660Y-19643386D01*
X43666041Y-19738624D01*
X43618422Y-19786243D01*
X43046994Y-18310053D02*
X43713660Y-18310053D01*
X42666041Y-18548148D02*
X43380327Y-18786243D01*
X43380327Y-18167196D01*
X36212542Y-11215642D02*
X36164923Y-11263261D01*
X36022066Y-11310880D01*
X35926828Y-11310880D01*
X35783971Y-11263261D01*
X35688733Y-11168023D01*
X35641114Y-11072785D01*
X35593495Y-10882309D01*
X35593495Y-10739452D01*
X35641114Y-10548976D01*
X35688733Y-10453738D01*
X35783971Y-10358500D01*
X35926828Y-10310880D01*
X36022066Y-10310880D01*
X36164923Y-10358500D01*
X36212542Y-10406119D01*
X36545876Y-10310880D02*
X37164923Y-10310880D01*
X36831590Y-10691833D01*
X36974447Y-10691833D01*
X37069685Y-10739452D01*
X37117304Y-10787071D01*
X37164923Y-10882309D01*
X37164923Y-11120404D01*
X37117304Y-11215642D01*
X37069685Y-11263261D01*
X36974447Y-11310880D01*
X36688733Y-11310880D01*
X36593495Y-11263261D01*
X36545876Y-11215642D01*
X38022066Y-10310880D02*
X37831590Y-10310880D01*
X37736352Y-10358500D01*
X37688733Y-10406119D01*
X37593495Y-10548976D01*
X37545876Y-10739452D01*
X37545876Y-11120404D01*
X37593495Y-11215642D01*
X37641114Y-11263261D01*
X37736352Y-11310880D01*
X37926828Y-11310880D01*
X38022066Y-11263261D01*
X38069685Y-11215642D01*
X38117304Y-11120404D01*
X38117304Y-10882309D01*
X38069685Y-10787071D01*
X38022066Y-10739452D01*
X37926828Y-10691833D01*
X37736352Y-10691833D01*
X37641114Y-10739452D01*
X37593495Y-10787071D01*
X37545876Y-10882309D01*
X34418542Y-34780457D02*
X34466161Y-34828076D01*
X34513780Y-34970933D01*
X34513780Y-35066171D01*
X34466161Y-35209028D01*
X34370923Y-35304266D01*
X34275685Y-35351885D01*
X34085209Y-35399504D01*
X33942352Y-35399504D01*
X33751876Y-35351885D01*
X33656638Y-35304266D01*
X33561400Y-35209028D01*
X33513780Y-35066171D01*
X33513780Y-34970933D01*
X33561400Y-34828076D01*
X33609019Y-34780457D01*
X33513780Y-34447123D02*
X33513780Y-33828076D01*
X33894733Y-34161409D01*
X33894733Y-34018552D01*
X33942352Y-33923314D01*
X33989971Y-33875695D01*
X34085209Y-33828076D01*
X34323304Y-33828076D01*
X34418542Y-33875695D01*
X34466161Y-33923314D01*
X34513780Y-34018552D01*
X34513780Y-34304266D01*
X34466161Y-34399504D01*
X34418542Y-34447123D01*
X33513780Y-33494742D02*
X33513780Y-32828076D01*
X34513780Y-33256647D01*
X44527742Y-81338657D02*
X44575361Y-81386276D01*
X44622980Y-81529133D01*
X44622980Y-81624371D01*
X44575361Y-81767228D01*
X44480123Y-81862466D01*
X44384885Y-81910085D01*
X44194409Y-81957704D01*
X44051552Y-81957704D01*
X43861076Y-81910085D01*
X43765838Y-81862466D01*
X43670600Y-81767228D01*
X43622980Y-81624371D01*
X43622980Y-81529133D01*
X43670600Y-81386276D01*
X43718219Y-81338657D01*
X43956314Y-80481514D02*
X44622980Y-80481514D01*
X43575361Y-80719609D02*
X44289647Y-80957704D01*
X44289647Y-80338657D01*
X43622980Y-80052942D02*
X43622980Y-79433895D01*
X44003933Y-79767228D01*
X44003933Y-79624371D01*
X44051552Y-79529133D01*
X44099171Y-79481514D01*
X44194409Y-79433895D01*
X44432504Y-79433895D01*
X44527742Y-79481514D01*
X44575361Y-79529133D01*
X44622980Y-79624371D01*
X44622980Y-79910085D01*
X44575361Y-80005323D01*
X44527742Y-80052942D01*
X42994342Y-86742542D02*
X42946723Y-86790161D01*
X42803866Y-86837780D01*
X42708628Y-86837780D01*
X42565771Y-86790161D01*
X42470533Y-86694923D01*
X42422914Y-86599685D01*
X42375295Y-86409209D01*
X42375295Y-86266352D01*
X42422914Y-86075876D01*
X42470533Y-85980638D01*
X42565771Y-85885400D01*
X42708628Y-85837780D01*
X42803866Y-85837780D01*
X42946723Y-85885400D01*
X42994342Y-85933019D01*
X43851485Y-86171114D02*
X43851485Y-86837780D01*
X43613390Y-85790161D02*
X43375295Y-86504447D01*
X43994342Y-86504447D01*
X44803866Y-86171114D02*
X44803866Y-86837780D01*
X44565771Y-85790161D02*
X44327676Y-86504447D01*
X44946723Y-86504447D01*
X10866380Y-33961295D02*
X9866380Y-33961295D01*
X9866380Y-33723200D01*
X9914000Y-33580342D01*
X10009238Y-33485104D01*
X10104476Y-33437485D01*
X10294952Y-33389866D01*
X10437809Y-33389866D01*
X10628285Y-33437485D01*
X10723523Y-33485104D01*
X10818761Y-33580342D01*
X10866380Y-33723200D01*
X10866380Y-33961295D01*
X10866380Y-32437485D02*
X10866380Y-33008914D01*
X10866380Y-32723200D02*
X9866380Y-32723200D01*
X10009238Y-32818438D01*
X10104476Y-32913676D01*
X10152095Y-33008914D01*
X44800780Y-34062895D02*
X43800780Y-34062895D01*
X43800780Y-33824800D01*
X43848400Y-33681942D01*
X43943638Y-33586704D01*
X44038876Y-33539085D01*
X44229352Y-33491466D01*
X44372209Y-33491466D01*
X44562685Y-33539085D01*
X44657923Y-33586704D01*
X44753161Y-33681942D01*
X44800780Y-33824800D01*
X44800780Y-34062895D01*
X43896019Y-33110514D02*
X43848400Y-33062895D01*
X43800780Y-32967657D01*
X43800780Y-32729561D01*
X43848400Y-32634323D01*
X43896019Y-32586704D01*
X43991257Y-32539085D01*
X44086495Y-32539085D01*
X44229352Y-32586704D01*
X44800780Y-33158133D01*
X44800780Y-32539085D01*
X22274304Y-36113980D02*
X22274304Y-35113980D01*
X22512400Y-35113980D01*
X22655257Y-35161600D01*
X22750495Y-35256838D01*
X22798114Y-35352076D01*
X22845733Y-35542552D01*
X22845733Y-35685409D01*
X22798114Y-35875885D01*
X22750495Y-35971123D01*
X22655257Y-36066361D01*
X22512400Y-36113980D01*
X22274304Y-36113980D01*
X23179066Y-35113980D02*
X23798114Y-35113980D01*
X23464780Y-35494933D01*
X23607638Y-35494933D01*
X23702876Y-35542552D01*
X23750495Y-35590171D01*
X23798114Y-35685409D01*
X23798114Y-35923504D01*
X23750495Y-36018742D01*
X23702876Y-36066361D01*
X23607638Y-36113980D01*
X23321923Y-36113980D01*
X23226685Y-36066361D01*
X23179066Y-36018742D01*
X5522860Y-17839555D02*
X4522860Y-17839555D01*
X4522860Y-17601460D01*
X4570480Y-17458602D01*
X4665718Y-17363364D01*
X4760956Y-17315745D01*
X4951432Y-17268126D01*
X5094289Y-17268126D01*
X5284765Y-17315745D01*
X5380003Y-17363364D01*
X5475241Y-17458602D01*
X5522860Y-17601460D01*
X5522860Y-17839555D01*
X4856194Y-16410983D02*
X5522860Y-16410983D01*
X4475241Y-16649079D02*
X5189527Y-16887174D01*
X5189527Y-16268126D01*
X5075180Y-7138895D02*
X4075180Y-7138895D01*
X4075180Y-6900800D01*
X4122800Y-6757942D01*
X4218038Y-6662704D01*
X4313276Y-6615085D01*
X4503752Y-6567466D01*
X4646609Y-6567466D01*
X4837085Y-6615085D01*
X4932323Y-6662704D01*
X5027561Y-6757942D01*
X5075180Y-6900800D01*
X5075180Y-7138895D01*
X4075180Y-5662704D02*
X4075180Y-6138895D01*
X4551371Y-6186514D01*
X4503752Y-6138895D01*
X4456133Y-6043657D01*
X4456133Y-5805561D01*
X4503752Y-5710323D01*
X4551371Y-5662704D01*
X4646609Y-5615085D01*
X4884704Y-5615085D01*
X4979942Y-5662704D01*
X5027561Y-5710323D01*
X5075180Y-5805561D01*
X5075180Y-6043657D01*
X5027561Y-6138895D01*
X4979942Y-6186514D01*
X56259504Y-36164780D02*
X56259504Y-35164780D01*
X56497600Y-35164780D01*
X56640457Y-35212400D01*
X56735695Y-35307638D01*
X56783314Y-35402876D01*
X56830933Y-35593352D01*
X56830933Y-35736209D01*
X56783314Y-35926685D01*
X56735695Y-36021923D01*
X56640457Y-36117161D01*
X56497600Y-36164780D01*
X56259504Y-36164780D01*
X57688076Y-35164780D02*
X57497600Y-35164780D01*
X57402361Y-35212400D01*
X57354742Y-35260019D01*
X57259504Y-35402876D01*
X57211885Y-35593352D01*
X57211885Y-35974304D01*
X57259504Y-36069542D01*
X57307123Y-36117161D01*
X57402361Y-36164780D01*
X57592838Y-36164780D01*
X57688076Y-36117161D01*
X57735695Y-36069542D01*
X57783314Y-35974304D01*
X57783314Y-35736209D01*
X57735695Y-35640971D01*
X57688076Y-35593352D01*
X57592838Y-35545733D01*
X57402361Y-35545733D01*
X57307123Y-35593352D01*
X57259504Y-35640971D01*
X57211885Y-35736209D01*
X32913580Y-17732875D02*
X31913580Y-17732875D01*
X31913580Y-17494780D01*
X31961200Y-17351922D01*
X32056438Y-17256684D01*
X32151676Y-17209065D01*
X32342152Y-17161446D01*
X32485009Y-17161446D01*
X32675485Y-17209065D01*
X32770723Y-17256684D01*
X32865961Y-17351922D01*
X32913580Y-17494780D01*
X32913580Y-17732875D01*
X31913580Y-16828113D02*
X31913580Y-16161446D01*
X32913580Y-16590018D01*
X25933504Y-6411580D02*
X25933504Y-5411580D01*
X26171600Y-5411580D01*
X26314457Y-5459200D01*
X26409695Y-5554438D01*
X26457314Y-5649676D01*
X26504933Y-5840152D01*
X26504933Y-5983009D01*
X26457314Y-6173485D01*
X26409695Y-6268723D01*
X26314457Y-6363961D01*
X26171600Y-6411580D01*
X25933504Y-6411580D01*
X27076361Y-5840152D02*
X26981123Y-5792533D01*
X26933504Y-5744914D01*
X26885885Y-5649676D01*
X26885885Y-5602057D01*
X26933504Y-5506819D01*
X26981123Y-5459200D01*
X27076361Y-5411580D01*
X27266838Y-5411580D01*
X27362076Y-5459200D01*
X27409695Y-5506819D01*
X27457314Y-5602057D01*
X27457314Y-5649676D01*
X27409695Y-5744914D01*
X27362076Y-5792533D01*
X27266838Y-5840152D01*
X27076361Y-5840152D01*
X26981123Y-5887771D01*
X26933504Y-5935390D01*
X26885885Y-6030628D01*
X26885885Y-6221104D01*
X26933504Y-6316342D01*
X26981123Y-6363961D01*
X27076361Y-6411580D01*
X27266838Y-6411580D01*
X27362076Y-6363961D01*
X27409695Y-6316342D01*
X27457314Y-6221104D01*
X27457314Y-6030628D01*
X27409695Y-5935390D01*
X27362076Y-5887771D01*
X27266838Y-5840152D01*
X13875426Y-85070700D02*
X13875426Y-85784986D01*
X13827807Y-85927843D01*
X13732569Y-86023081D01*
X13589712Y-86070700D01*
X13494474Y-86070700D01*
X14303998Y-85165939D02*
X14351617Y-85118320D01*
X14446855Y-85070700D01*
X14684950Y-85070700D01*
X14780188Y-85118320D01*
X14827807Y-85165939D01*
X14875426Y-85261177D01*
X14875426Y-85356415D01*
X14827807Y-85499272D01*
X14256379Y-86070700D01*
X14875426Y-86070700D01*
X48180666Y-90003380D02*
X48180666Y-90717666D01*
X48133047Y-90860523D01*
X48037809Y-90955761D01*
X47894952Y-91003380D01*
X47799714Y-91003380D01*
X48561619Y-90003380D02*
X49180666Y-90003380D01*
X48847333Y-90384333D01*
X48990190Y-90384333D01*
X49085428Y-90431952D01*
X49133047Y-90479571D01*
X49180666Y-90574809D01*
X49180666Y-90812904D01*
X49133047Y-90908142D01*
X49085428Y-90955761D01*
X48990190Y-91003380D01*
X48704476Y-91003380D01*
X48609238Y-90955761D01*
X48561619Y-90908142D01*
X13647680Y-57900866D02*
X13171490Y-58234200D01*
X13647680Y-58472295D02*
X12647680Y-58472295D01*
X12647680Y-58091342D01*
X12695300Y-57996104D01*
X12742919Y-57948485D01*
X12838157Y-57900866D01*
X12981014Y-57900866D01*
X13076252Y-57948485D01*
X13123871Y-57996104D01*
X13171490Y-58091342D01*
X13171490Y-58472295D01*
X12647680Y-57043723D02*
X12647680Y-57234200D01*
X12695300Y-57329438D01*
X12742919Y-57377057D01*
X12885776Y-57472295D01*
X13076252Y-57519914D01*
X13457204Y-57519914D01*
X13552442Y-57472295D01*
X13600061Y-57424676D01*
X13647680Y-57329438D01*
X13647680Y-57138961D01*
X13600061Y-57043723D01*
X13552442Y-56996104D01*
X13457204Y-56948485D01*
X13219109Y-56948485D01*
X13123871Y-56996104D01*
X13076252Y-57043723D01*
X13028633Y-57138961D01*
X13028633Y-57329438D01*
X13076252Y-57424676D01*
X13123871Y-57472295D01*
X13219109Y-57519914D01*
X19273780Y-61317166D02*
X18797590Y-61650500D01*
X19273780Y-61888595D02*
X18273780Y-61888595D01*
X18273780Y-61507642D01*
X18321400Y-61412404D01*
X18369019Y-61364785D01*
X18464257Y-61317166D01*
X18607114Y-61317166D01*
X18702352Y-61364785D01*
X18749971Y-61412404D01*
X18797590Y-61507642D01*
X18797590Y-61888595D01*
X18273780Y-60983833D02*
X18273780Y-60317166D01*
X19273780Y-60745738D01*
X17368780Y-61393366D02*
X16892590Y-61726700D01*
X17368780Y-61964795D02*
X16368780Y-61964795D01*
X16368780Y-61583842D01*
X16416400Y-61488604D01*
X16464019Y-61440985D01*
X16559257Y-61393366D01*
X16702114Y-61393366D01*
X16797352Y-61440985D01*
X16844971Y-61488604D01*
X16892590Y-61583842D01*
X16892590Y-61964795D01*
X17368780Y-60917176D02*
X17368780Y-60726700D01*
X17321161Y-60631461D01*
X17273542Y-60583842D01*
X17130685Y-60488604D01*
X16940209Y-60440985D01*
X16559257Y-60440985D01*
X16464019Y-60488604D01*
X16416400Y-60536223D01*
X16368780Y-60631461D01*
X16368780Y-60821938D01*
X16416400Y-60917176D01*
X16464019Y-60964795D01*
X16559257Y-61012414D01*
X16797352Y-61012414D01*
X16892590Y-60964795D01*
X16940209Y-60917176D01*
X16987828Y-60821938D01*
X16987828Y-60631461D01*
X16940209Y-60536223D01*
X16892590Y-60488604D01*
X16797352Y-60440985D01*
X3221742Y-24431780D02*
X2888409Y-23955590D01*
X2650314Y-24431780D02*
X2650314Y-23431780D01*
X3031266Y-23431780D01*
X3126504Y-23479400D01*
X3174123Y-23527019D01*
X3221742Y-23622257D01*
X3221742Y-23765114D01*
X3174123Y-23860352D01*
X3126504Y-23907971D01*
X3031266Y-23955590D01*
X2650314Y-23955590D01*
X4174123Y-24431780D02*
X3602695Y-24431780D01*
X3888409Y-24431780D02*
X3888409Y-23431780D01*
X3793171Y-23574638D01*
X3697933Y-23669876D01*
X3602695Y-23717495D01*
X4793171Y-23431780D02*
X4888409Y-23431780D01*
X4983647Y-23479400D01*
X5031266Y-23527019D01*
X5078885Y-23622257D01*
X5126504Y-23812733D01*
X5126504Y-24050828D01*
X5078885Y-24241304D01*
X5031266Y-24336542D01*
X4983647Y-24384161D01*
X4888409Y-24431780D01*
X4793171Y-24431780D01*
X4697933Y-24384161D01*
X4650314Y-24336542D01*
X4602695Y-24241304D01*
X4555076Y-24050828D01*
X4555076Y-23812733D01*
X4602695Y-23622257D01*
X4650314Y-23527019D01*
X4697933Y-23479400D01*
X4793171Y-23431780D01*
X12339580Y-11006057D02*
X11863390Y-11339390D01*
X12339580Y-11577485D02*
X11339580Y-11577485D01*
X11339580Y-11196533D01*
X11387200Y-11101295D01*
X11434819Y-11053676D01*
X11530057Y-11006057D01*
X11672914Y-11006057D01*
X11768152Y-11053676D01*
X11815771Y-11101295D01*
X11863390Y-11196533D01*
X11863390Y-11577485D01*
X12339580Y-10053676D02*
X12339580Y-10625104D01*
X12339580Y-10339390D02*
X11339580Y-10339390D01*
X11482438Y-10434628D01*
X11577676Y-10529866D01*
X11625295Y-10625104D01*
X11339580Y-9720342D02*
X11339580Y-9101295D01*
X11720533Y-9434628D01*
X11720533Y-9291771D01*
X11768152Y-9196533D01*
X11815771Y-9148914D01*
X11911009Y-9101295D01*
X12149104Y-9101295D01*
X12244342Y-9148914D01*
X12291961Y-9196533D01*
X12339580Y-9291771D01*
X12339580Y-9577485D01*
X12291961Y-9672723D01*
X12244342Y-9720342D01*
X19095980Y-16289257D02*
X18619790Y-16622590D01*
X19095980Y-16860685D02*
X18095980Y-16860685D01*
X18095980Y-16479733D01*
X18143600Y-16384495D01*
X18191219Y-16336876D01*
X18286457Y-16289257D01*
X18429314Y-16289257D01*
X18524552Y-16336876D01*
X18572171Y-16384495D01*
X18619790Y-16479733D01*
X18619790Y-16860685D01*
X19095980Y-15336876D02*
X19095980Y-15908304D01*
X19095980Y-15622590D02*
X18095980Y-15622590D01*
X18238838Y-15717828D01*
X18334076Y-15813066D01*
X18381695Y-15908304D01*
X18429314Y-14479733D02*
X19095980Y-14479733D01*
X18048361Y-14717828D02*
X18762647Y-14955923D01*
X18762647Y-14336876D01*
X15343902Y-11008620D02*
X15010569Y-10532430D01*
X14772474Y-11008620D02*
X14772474Y-10008620D01*
X15153426Y-10008620D01*
X15248664Y-10056240D01*
X15296283Y-10103859D01*
X15343902Y-10199097D01*
X15343902Y-10341954D01*
X15296283Y-10437192D01*
X15248664Y-10484811D01*
X15153426Y-10532430D01*
X14772474Y-10532430D01*
X16296283Y-11008620D02*
X15724855Y-11008620D01*
X16010569Y-11008620D02*
X16010569Y-10008620D01*
X15915331Y-10151478D01*
X15820093Y-10246716D01*
X15724855Y-10294335D01*
X17201045Y-10008620D02*
X16724855Y-10008620D01*
X16677236Y-10484811D01*
X16724855Y-10437192D01*
X16820093Y-10389573D01*
X17058188Y-10389573D01*
X17153426Y-10437192D01*
X17201045Y-10484811D01*
X17248664Y-10580049D01*
X17248664Y-10818144D01*
X17201045Y-10913382D01*
X17153426Y-10961001D01*
X17058188Y-11008620D01*
X16820093Y-11008620D01*
X16724855Y-10961001D01*
X16677236Y-10913382D01*
X7752380Y-80142857D02*
X7276190Y-80476190D01*
X7752380Y-80714285D02*
X6752380Y-80714285D01*
X6752380Y-80333333D01*
X6800000Y-80238095D01*
X6847619Y-80190476D01*
X6942857Y-80142857D01*
X7085714Y-80142857D01*
X7180952Y-80190476D01*
X7228571Y-80238095D01*
X7276190Y-80333333D01*
X7276190Y-80714285D01*
X7752380Y-79190476D02*
X7752380Y-79761904D01*
X7752380Y-79476190D02*
X6752380Y-79476190D01*
X6895238Y-79571428D01*
X6990476Y-79666666D01*
X7038095Y-79761904D01*
X6752380Y-78333333D02*
X6752380Y-78523809D01*
X6800000Y-78619047D01*
X6847619Y-78666666D01*
X6990476Y-78761904D01*
X7180952Y-78809523D01*
X7561904Y-78809523D01*
X7657142Y-78761904D01*
X7704761Y-78714285D01*
X7752380Y-78619047D01*
X7752380Y-78428571D01*
X7704761Y-78333333D01*
X7657142Y-78285714D01*
X7561904Y-78238095D01*
X7323809Y-78238095D01*
X7228571Y-78285714D01*
X7180952Y-78333333D01*
X7133333Y-78428571D01*
X7133333Y-78619047D01*
X7180952Y-78714285D01*
X7228571Y-78761904D01*
X7323809Y-78809523D01*
X50033180Y-62470257D02*
X49556990Y-62803590D01*
X50033180Y-63041685D02*
X49033180Y-63041685D01*
X49033180Y-62660733D01*
X49080800Y-62565495D01*
X49128419Y-62517876D01*
X49223657Y-62470257D01*
X49366514Y-62470257D01*
X49461752Y-62517876D01*
X49509371Y-62565495D01*
X49556990Y-62660733D01*
X49556990Y-63041685D01*
X50033180Y-61517876D02*
X50033180Y-62089304D01*
X50033180Y-61803590D02*
X49033180Y-61803590D01*
X49176038Y-61898828D01*
X49271276Y-61994066D01*
X49318895Y-62089304D01*
X49033180Y-61184542D02*
X49033180Y-60517876D01*
X50033180Y-60946447D01*
X54084480Y-62441057D02*
X53608290Y-62774390D01*
X54084480Y-63012485D02*
X53084480Y-63012485D01*
X53084480Y-62631533D01*
X53132100Y-62536295D01*
X53179719Y-62488676D01*
X53274957Y-62441057D01*
X53417814Y-62441057D01*
X53513052Y-62488676D01*
X53560671Y-62536295D01*
X53608290Y-62631533D01*
X53608290Y-63012485D01*
X54084480Y-61488676D02*
X54084480Y-62060104D01*
X54084480Y-61774390D02*
X53084480Y-61774390D01*
X53227338Y-61869628D01*
X53322576Y-61964866D01*
X53370195Y-62060104D01*
X53513052Y-60917247D02*
X53465433Y-61012485D01*
X53417814Y-61060104D01*
X53322576Y-61107723D01*
X53274957Y-61107723D01*
X53179719Y-61060104D01*
X53132100Y-61012485D01*
X53084480Y-60917247D01*
X53084480Y-60726771D01*
X53132100Y-60631533D01*
X53179719Y-60583914D01*
X53274957Y-60536295D01*
X53322576Y-60536295D01*
X53417814Y-60583914D01*
X53465433Y-60631533D01*
X53513052Y-60726771D01*
X53513052Y-60917247D01*
X53560671Y-61012485D01*
X53608290Y-61060104D01*
X53703528Y-61107723D01*
X53894004Y-61107723D01*
X53989242Y-61060104D01*
X54036861Y-61012485D01*
X54084480Y-60917247D01*
X54084480Y-60726771D01*
X54036861Y-60631533D01*
X53989242Y-60583914D01*
X53894004Y-60536295D01*
X53703528Y-60536295D01*
X53608290Y-60583914D01*
X53560671Y-60631533D01*
X53513052Y-60726771D01*
X52115980Y-62402957D02*
X51639790Y-62736290D01*
X52115980Y-62974385D02*
X51115980Y-62974385D01*
X51115980Y-62593433D01*
X51163600Y-62498195D01*
X51211219Y-62450576D01*
X51306457Y-62402957D01*
X51449314Y-62402957D01*
X51544552Y-62450576D01*
X51592171Y-62498195D01*
X51639790Y-62593433D01*
X51639790Y-62974385D01*
X51211219Y-62022004D02*
X51163600Y-61974385D01*
X51115980Y-61879147D01*
X51115980Y-61641052D01*
X51163600Y-61545814D01*
X51211219Y-61498195D01*
X51306457Y-61450576D01*
X51401695Y-61450576D01*
X51544552Y-61498195D01*
X52115980Y-62069623D01*
X52115980Y-61450576D01*
X51115980Y-60831528D02*
X51115980Y-60736290D01*
X51163600Y-60641052D01*
X51211219Y-60593433D01*
X51306457Y-60545814D01*
X51496933Y-60498195D01*
X51735028Y-60498195D01*
X51925504Y-60545814D01*
X52020742Y-60593433D01*
X52068361Y-60641052D01*
X52115980Y-60736290D01*
X52115980Y-60831528D01*
X52068361Y-60926766D01*
X52020742Y-60974385D01*
X51925504Y-61022004D01*
X51735028Y-61069623D01*
X51496933Y-61069623D01*
X51306457Y-61022004D01*
X51211219Y-60974385D01*
X51163600Y-60926766D01*
X51115980Y-60831528D01*
X32152380Y-27642857D02*
X31676190Y-27976190D01*
X32152380Y-28214285D02*
X31152380Y-28214285D01*
X31152380Y-27833333D01*
X31200000Y-27738095D01*
X31247619Y-27690476D01*
X31342857Y-27642857D01*
X31485714Y-27642857D01*
X31580952Y-27690476D01*
X31628571Y-27738095D01*
X31676190Y-27833333D01*
X31676190Y-28214285D01*
X31247619Y-27261904D02*
X31200000Y-27214285D01*
X31152380Y-27119047D01*
X31152380Y-26880952D01*
X31200000Y-26785714D01*
X31247619Y-26738095D01*
X31342857Y-26690476D01*
X31438095Y-26690476D01*
X31580952Y-26738095D01*
X32152380Y-27309523D01*
X32152380Y-26690476D01*
X32152380Y-25738095D02*
X32152380Y-26309523D01*
X32152380Y-26023809D02*
X31152380Y-26023809D01*
X31295238Y-26119047D01*
X31390476Y-26214285D01*
X31438095Y-26309523D01*
X54752980Y-11009757D02*
X54276790Y-11343090D01*
X54752980Y-11581185D02*
X53752980Y-11581185D01*
X53752980Y-11200233D01*
X53800600Y-11104995D01*
X53848219Y-11057376D01*
X53943457Y-11009757D01*
X54086314Y-11009757D01*
X54181552Y-11057376D01*
X54229171Y-11104995D01*
X54276790Y-11200233D01*
X54276790Y-11581185D01*
X53848219Y-10628804D02*
X53800600Y-10581185D01*
X53752980Y-10485947D01*
X53752980Y-10247852D01*
X53800600Y-10152614D01*
X53848219Y-10104995D01*
X53943457Y-10057376D01*
X54038695Y-10057376D01*
X54181552Y-10104995D01*
X54752980Y-10676423D01*
X54752980Y-10057376D01*
X54086314Y-9200233D02*
X54752980Y-9200233D01*
X53705361Y-9438328D02*
X54419647Y-9676423D01*
X54419647Y-9057376D01*
X51303780Y-11036257D02*
X50827590Y-11369590D01*
X51303780Y-11607685D02*
X50303780Y-11607685D01*
X50303780Y-11226733D01*
X50351400Y-11131495D01*
X50399019Y-11083876D01*
X50494257Y-11036257D01*
X50637114Y-11036257D01*
X50732352Y-11083876D01*
X50779971Y-11131495D01*
X50827590Y-11226733D01*
X50827590Y-11607685D01*
X50399019Y-10655304D02*
X50351400Y-10607685D01*
X50303780Y-10512447D01*
X50303780Y-10274352D01*
X50351400Y-10179114D01*
X50399019Y-10131495D01*
X50494257Y-10083876D01*
X50589495Y-10083876D01*
X50732352Y-10131495D01*
X51303780Y-10702923D01*
X51303780Y-10083876D01*
X50303780Y-9179114D02*
X50303780Y-9655304D01*
X50779971Y-9702923D01*
X50732352Y-9655304D01*
X50684733Y-9560066D01*
X50684733Y-9321971D01*
X50732352Y-9226733D01*
X50779971Y-9179114D01*
X50875209Y-9131495D01*
X51113304Y-9131495D01*
X51208542Y-9179114D01*
X51256161Y-9226733D01*
X51303780Y-9321971D01*
X51303780Y-9560066D01*
X51256161Y-9655304D01*
X51208542Y-9702923D01*
X36174442Y-9507480D02*
X35841109Y-9031290D01*
X35603014Y-9507480D02*
X35603014Y-8507480D01*
X35983966Y-8507480D01*
X36079204Y-8555100D01*
X36126823Y-8602719D01*
X36174442Y-8697957D01*
X36174442Y-8840814D01*
X36126823Y-8936052D01*
X36079204Y-8983671D01*
X35983966Y-9031290D01*
X35603014Y-9031290D01*
X36555395Y-8602719D02*
X36603014Y-8555100D01*
X36698252Y-8507480D01*
X36936347Y-8507480D01*
X37031585Y-8555100D01*
X37079204Y-8602719D01*
X37126823Y-8697957D01*
X37126823Y-8793195D01*
X37079204Y-8936052D01*
X36507776Y-9507480D01*
X37126823Y-9507480D01*
X37983966Y-8507480D02*
X37793490Y-8507480D01*
X37698252Y-8555100D01*
X37650633Y-8602719D01*
X37555395Y-8745576D01*
X37507776Y-8936052D01*
X37507776Y-9317004D01*
X37555395Y-9412242D01*
X37603014Y-9459861D01*
X37698252Y-9507480D01*
X37888728Y-9507480D01*
X37983966Y-9459861D01*
X38031585Y-9412242D01*
X38079204Y-9317004D01*
X38079204Y-9078909D01*
X38031585Y-8983671D01*
X37983966Y-8936052D01*
X37888728Y-8888433D01*
X37698252Y-8888433D01*
X37603014Y-8936052D01*
X37555395Y-8983671D01*
X37507776Y-9078909D01*
X32722380Y-34769357D02*
X32246190Y-35102690D01*
X32722380Y-35340785D02*
X31722380Y-35340785D01*
X31722380Y-34959833D01*
X31770000Y-34864595D01*
X31817619Y-34816976D01*
X31912857Y-34769357D01*
X32055714Y-34769357D01*
X32150952Y-34816976D01*
X32198571Y-34864595D01*
X32246190Y-34959833D01*
X32246190Y-35340785D01*
X31722380Y-34436023D02*
X31722380Y-33816976D01*
X32103333Y-34150309D01*
X32103333Y-34007452D01*
X32150952Y-33912214D01*
X32198571Y-33864595D01*
X32293809Y-33816976D01*
X32531904Y-33816976D01*
X32627142Y-33864595D01*
X32674761Y-33912214D01*
X32722380Y-34007452D01*
X32722380Y-34293166D01*
X32674761Y-34388404D01*
X32627142Y-34436023D01*
X31722380Y-33197928D02*
X31722380Y-33102690D01*
X31770000Y-33007452D01*
X31817619Y-32959833D01*
X31912857Y-32912214D01*
X32103333Y-32864595D01*
X32341428Y-32864595D01*
X32531904Y-32912214D01*
X32627142Y-32959833D01*
X32674761Y-33007452D01*
X32722380Y-33102690D01*
X32722380Y-33197928D01*
X32674761Y-33293166D01*
X32627142Y-33340785D01*
X32531904Y-33388404D01*
X32341428Y-33436023D01*
X32103333Y-33436023D01*
X31912857Y-33388404D01*
X31817619Y-33340785D01*
X31770000Y-33293166D01*
X31722380Y-33197928D01*
X30582680Y-34667757D02*
X30106490Y-35001090D01*
X30582680Y-35239185D02*
X29582680Y-35239185D01*
X29582680Y-34858233D01*
X29630300Y-34762995D01*
X29677919Y-34715376D01*
X29773157Y-34667757D01*
X29916014Y-34667757D01*
X30011252Y-34715376D01*
X30058871Y-34762995D01*
X30106490Y-34858233D01*
X30106490Y-35239185D01*
X29582680Y-34334423D02*
X29582680Y-33715376D01*
X29963633Y-34048709D01*
X29963633Y-33905852D01*
X30011252Y-33810614D01*
X30058871Y-33762995D01*
X30154109Y-33715376D01*
X30392204Y-33715376D01*
X30487442Y-33762995D01*
X30535061Y-33810614D01*
X30582680Y-33905852D01*
X30582680Y-34191566D01*
X30535061Y-34286804D01*
X30487442Y-34334423D01*
X30582680Y-32762995D02*
X30582680Y-33334423D01*
X30582680Y-33048709D02*
X29582680Y-33048709D01*
X29725538Y-33143947D01*
X29820776Y-33239185D01*
X29868395Y-33334423D01*
X43095942Y-90596980D02*
X42762609Y-90120790D01*
X42524514Y-90596980D02*
X42524514Y-89596980D01*
X42905466Y-89596980D01*
X43000704Y-89644600D01*
X43048323Y-89692219D01*
X43095942Y-89787457D01*
X43095942Y-89930314D01*
X43048323Y-90025552D01*
X43000704Y-90073171D01*
X42905466Y-90120790D01*
X42524514Y-90120790D01*
X43429276Y-89596980D02*
X44048323Y-89596980D01*
X43714990Y-89977933D01*
X43857847Y-89977933D01*
X43953085Y-90025552D01*
X44000704Y-90073171D01*
X44048323Y-90168409D01*
X44048323Y-90406504D01*
X44000704Y-90501742D01*
X43953085Y-90549361D01*
X43857847Y-90596980D01*
X43572133Y-90596980D01*
X43476895Y-90549361D01*
X43429276Y-90501742D01*
X44429276Y-89692219D02*
X44476895Y-89644600D01*
X44572133Y-89596980D01*
X44810228Y-89596980D01*
X44905466Y-89644600D01*
X44953085Y-89692219D01*
X45000704Y-89787457D01*
X45000704Y-89882695D01*
X44953085Y-90025552D01*
X44381657Y-90596980D01*
X45000704Y-90596980D01*
X42981642Y-88691980D02*
X42648309Y-88215790D01*
X42410214Y-88691980D02*
X42410214Y-87691980D01*
X42791166Y-87691980D01*
X42886404Y-87739600D01*
X42934023Y-87787219D01*
X42981642Y-87882457D01*
X42981642Y-88025314D01*
X42934023Y-88120552D01*
X42886404Y-88168171D01*
X42791166Y-88215790D01*
X42410214Y-88215790D01*
X43314976Y-87691980D02*
X43934023Y-87691980D01*
X43600690Y-88072933D01*
X43743547Y-88072933D01*
X43838785Y-88120552D01*
X43886404Y-88168171D01*
X43934023Y-88263409D01*
X43934023Y-88501504D01*
X43886404Y-88596742D01*
X43838785Y-88644361D01*
X43743547Y-88691980D01*
X43457833Y-88691980D01*
X43362595Y-88644361D01*
X43314976Y-88596742D01*
X44267357Y-87691980D02*
X44886404Y-87691980D01*
X44553071Y-88072933D01*
X44695928Y-88072933D01*
X44791166Y-88120552D01*
X44838785Y-88168171D01*
X44886404Y-88263409D01*
X44886404Y-88501504D01*
X44838785Y-88596742D01*
X44791166Y-88644361D01*
X44695928Y-88691980D01*
X44410214Y-88691980D01*
X44314976Y-88644361D01*
X44267357Y-88596742D01*
X7259580Y-20365885D02*
X6259580Y-20365885D01*
X6259580Y-20127790D01*
X6307200Y-19984933D01*
X6402438Y-19889695D01*
X6497676Y-19842076D01*
X6688152Y-19794457D01*
X6831009Y-19794457D01*
X7021485Y-19842076D01*
X7116723Y-19889695D01*
X7211961Y-19984933D01*
X7259580Y-20127790D01*
X7259580Y-20365885D01*
X7259580Y-18842076D02*
X7259580Y-19413504D01*
X7259580Y-19127790D02*
X6259580Y-19127790D01*
X6402438Y-19223028D01*
X6497676Y-19318266D01*
X6545295Y-19413504D01*
X6259580Y-18223028D02*
X6259580Y-18127790D01*
X6307200Y-18032552D01*
X6354819Y-17984933D01*
X6450057Y-17937314D01*
X6640533Y-17889695D01*
X6878628Y-17889695D01*
X7069104Y-17937314D01*
X7164342Y-17984933D01*
X7211961Y-18032552D01*
X7259580Y-18127790D01*
X7259580Y-18223028D01*
X7211961Y-18318266D01*
X7164342Y-18365885D01*
X7069104Y-18413504D01*
X6878628Y-18461123D01*
X6640533Y-18461123D01*
X6450057Y-18413504D01*
X6354819Y-18365885D01*
X6307200Y-18318266D01*
X6259580Y-18223028D01*
X56646914Y-14473180D02*
X56646914Y-13473180D01*
X56885009Y-13473180D01*
X57027866Y-13520800D01*
X57123104Y-13616038D01*
X57170723Y-13711276D01*
X57218342Y-13901752D01*
X57218342Y-14044609D01*
X57170723Y-14235085D01*
X57123104Y-14330323D01*
X57027866Y-14425561D01*
X56885009Y-14473180D01*
X56646914Y-14473180D01*
X58170723Y-14473180D02*
X57599295Y-14473180D01*
X57885009Y-14473180D02*
X57885009Y-13473180D01*
X57789771Y-13616038D01*
X57694533Y-13711276D01*
X57599295Y-13758895D01*
X59123104Y-14473180D02*
X58551676Y-14473180D01*
X58837390Y-14473180D02*
X58837390Y-13473180D01*
X58742152Y-13616038D01*
X58646914Y-13711276D01*
X58551676Y-13758895D01*
X13952380Y-71824285D02*
X12952380Y-71824285D01*
X12952380Y-71586190D01*
X13000000Y-71443333D01*
X13095238Y-71348095D01*
X13190476Y-71300476D01*
X13380952Y-71252857D01*
X13523809Y-71252857D01*
X13714285Y-71300476D01*
X13809523Y-71348095D01*
X13904761Y-71443333D01*
X13952380Y-71586190D01*
X13952380Y-71824285D01*
X13952380Y-70300476D02*
X13952380Y-70871904D01*
X13952380Y-70586190D02*
X12952380Y-70586190D01*
X13095238Y-70681428D01*
X13190476Y-70776666D01*
X13238095Y-70871904D01*
X13047619Y-69919523D02*
X13000000Y-69871904D01*
X12952380Y-69776666D01*
X12952380Y-69538571D01*
X13000000Y-69443333D01*
X13047619Y-69395714D01*
X13142857Y-69348095D01*
X13238095Y-69348095D01*
X13380952Y-69395714D01*
X13952380Y-69967142D01*
X13952380Y-69348095D01*
X9325380Y-71828085D02*
X8325380Y-71828085D01*
X8325380Y-71589990D01*
X8373000Y-71447133D01*
X8468238Y-71351895D01*
X8563476Y-71304276D01*
X8753952Y-71256657D01*
X8896809Y-71256657D01*
X9087285Y-71304276D01*
X9182523Y-71351895D01*
X9277761Y-71447133D01*
X9325380Y-71589990D01*
X9325380Y-71828085D01*
X9325380Y-70304276D02*
X9325380Y-70875704D01*
X9325380Y-70589990D02*
X8325380Y-70589990D01*
X8468238Y-70685228D01*
X8563476Y-70780466D01*
X8611095Y-70875704D01*
X8325380Y-69970942D02*
X8325380Y-69351895D01*
X8706333Y-69685228D01*
X8706333Y-69542371D01*
X8753952Y-69447133D01*
X8801571Y-69399514D01*
X8896809Y-69351895D01*
X9134904Y-69351895D01*
X9230142Y-69399514D01*
X9277761Y-69447133D01*
X9325380Y-69542371D01*
X9325380Y-69828085D01*
X9277761Y-69923323D01*
X9230142Y-69970942D01*
X41368671Y-81905433D02*
X41368671Y-82238766D01*
X41892480Y-82238766D02*
X40892480Y-82238766D01*
X40892480Y-81762576D01*
X41892480Y-80857814D02*
X41892480Y-81429242D01*
X41892480Y-81143528D02*
X40892480Y-81143528D01*
X41035338Y-81238766D01*
X41130576Y-81334004D01*
X41178195Y-81429242D01*
X3275980Y-80142857D02*
X2799790Y-80476190D01*
X3275980Y-80714285D02*
X2275980Y-80714285D01*
X2275980Y-80333333D01*
X2323600Y-80238095D01*
X2371219Y-80190476D01*
X2466457Y-80142857D01*
X2609314Y-80142857D01*
X2704552Y-80190476D01*
X2752171Y-80238095D01*
X2799790Y-80333333D01*
X2799790Y-80714285D01*
X2275980Y-79809523D02*
X2275980Y-79190476D01*
X2656933Y-79523809D01*
X2656933Y-79380952D01*
X2704552Y-79285714D01*
X2752171Y-79238095D01*
X2847409Y-79190476D01*
X3085504Y-79190476D01*
X3180742Y-79238095D01*
X3228361Y-79285714D01*
X3275980Y-79380952D01*
X3275980Y-79666666D01*
X3228361Y-79761904D01*
X3180742Y-79809523D01*
X2609314Y-78333333D02*
X3275980Y-78333333D01*
X2228361Y-78571428D02*
X2942647Y-78809523D01*
X2942647Y-78190476D01*
X22702380Y-48761904D02*
X23511904Y-48761904D01*
X23607142Y-48714285D01*
X23654761Y-48666666D01*
X23702380Y-48571428D01*
X23702380Y-48380952D01*
X23654761Y-48285714D01*
X23607142Y-48238095D01*
X23511904Y-48190476D01*
X22702380Y-48190476D01*
X23035714Y-47285714D02*
X23702380Y-47285714D01*
X22654761Y-47523809D02*
X23369047Y-47761904D01*
X23369047Y-47142857D01*
X56702380Y-48761904D02*
X57511904Y-48761904D01*
X57607142Y-48714285D01*
X57654761Y-48666666D01*
X57702380Y-48571428D01*
X57702380Y-48380952D01*
X57654761Y-48285714D01*
X57607142Y-48238095D01*
X57511904Y-48190476D01*
X56702380Y-48190476D01*
X56702380Y-47285714D02*
X56702380Y-47476190D01*
X56750000Y-47571428D01*
X56797619Y-47619047D01*
X56940476Y-47714285D01*
X57130952Y-47761904D01*
X57511904Y-47761904D01*
X57607142Y-47714285D01*
X57654761Y-47666666D01*
X57702380Y-47571428D01*
X57702380Y-47380952D01*
X57654761Y-47285714D01*
X57607142Y-47238095D01*
X57511904Y-47190476D01*
X57273809Y-47190476D01*
X57178571Y-47238095D01*
X57130952Y-47285714D01*
X57083333Y-47380952D01*
X57083333Y-47571428D01*
X57130952Y-47666666D01*
X57178571Y-47714285D01*
X57273809Y-47761904D01*
X58253380Y-73507504D02*
X59062904Y-73507504D01*
X59158142Y-73459885D01*
X59205761Y-73412266D01*
X59253380Y-73317028D01*
X59253380Y-73126552D01*
X59205761Y-73031314D01*
X59158142Y-72983695D01*
X59062904Y-72936076D01*
X58253380Y-72936076D01*
X59253380Y-71936076D02*
X59253380Y-72507504D01*
X59253380Y-72221790D02*
X58253380Y-72221790D01*
X58396238Y-72317028D01*
X58491476Y-72412266D01*
X58539095Y-72507504D01*
X5751580Y-4473533D02*
X6465866Y-4473533D01*
X6608723Y-4521152D01*
X6703961Y-4616390D01*
X6751580Y-4759247D01*
X6751580Y-4854485D01*
X5751580Y-3521152D02*
X5751580Y-3997342D01*
X6227771Y-4044961D01*
X6180152Y-3997342D01*
X6132533Y-3902104D01*
X6132533Y-3664009D01*
X6180152Y-3568771D01*
X6227771Y-3521152D01*
X6323009Y-3473533D01*
X6561104Y-3473533D01*
X6656342Y-3521152D01*
X6703961Y-3568771D01*
X6751580Y-3664009D01*
X6751580Y-3902104D01*
X6703961Y-3997342D01*
X6656342Y-4044961D01*
X26195980Y-48818704D02*
X27005504Y-48818704D01*
X27100742Y-48771085D01*
X27148361Y-48723466D01*
X27195980Y-48628228D01*
X27195980Y-48437752D01*
X27148361Y-48342514D01*
X27100742Y-48294895D01*
X27005504Y-48247276D01*
X26195980Y-48247276D01*
X26624552Y-47628228D02*
X26576933Y-47723466D01*
X26529314Y-47771085D01*
X26434076Y-47818704D01*
X26386457Y-47818704D01*
X26291219Y-47771085D01*
X26243600Y-47723466D01*
X26195980Y-47628228D01*
X26195980Y-47437752D01*
X26243600Y-47342514D01*
X26291219Y-47294895D01*
X26386457Y-47247276D01*
X26434076Y-47247276D01*
X26529314Y-47294895D01*
X26576933Y-47342514D01*
X26624552Y-47437752D01*
X26624552Y-47628228D01*
X26672171Y-47723466D01*
X26719790Y-47771085D01*
X26815028Y-47818704D01*
X27005504Y-47818704D01*
X27100742Y-47771085D01*
X27148361Y-47723466D01*
X27195980Y-47628228D01*
X27195980Y-47437752D01*
X27148361Y-47342514D01*
X27100742Y-47294895D01*
X27005504Y-47247276D01*
X26815028Y-47247276D01*
X26719790Y-47294895D01*
X26672171Y-47342514D01*
X26624552Y-47437752D01*
X27860666Y-86523580D02*
X27860666Y-87237866D01*
X27813047Y-87380723D01*
X27717809Y-87475961D01*
X27574952Y-87523580D01*
X27479714Y-87523580D01*
X28860666Y-87523580D02*
X28289238Y-87523580D01*
X28574952Y-87523580D02*
X28574952Y-86523580D01*
X28479714Y-86666438D01*
X28384476Y-86761676D01*
X28289238Y-86809295D01*
X2849571Y-63069695D02*
X2849571Y-63403028D01*
X3373380Y-63403028D02*
X2373380Y-63403028D01*
X2373380Y-62926838D01*
X3373380Y-62069695D02*
X3373380Y-62545885D01*
X2373380Y-62545885D01*
X3373380Y-61212552D02*
X3373380Y-61783980D01*
X3373380Y-61498266D02*
X2373380Y-61498266D01*
X2516238Y-61593504D01*
X2611476Y-61688742D01*
X2659095Y-61783980D01*
X36682371Y-63171295D02*
X36682371Y-63504628D01*
X37206180Y-63504628D02*
X36206180Y-63504628D01*
X36206180Y-63028438D01*
X37206180Y-62171295D02*
X37206180Y-62647485D01*
X36206180Y-62647485D01*
X36301419Y-61885580D02*
X36253800Y-61837961D01*
X36206180Y-61742723D01*
X36206180Y-61504628D01*
X36253800Y-61409390D01*
X36301419Y-61361771D01*
X36396657Y-61314152D01*
X36491895Y-61314152D01*
X36634752Y-61361771D01*
X37206180Y-61933200D01*
X37206180Y-61314152D01*
X5238095Y-57452380D02*
X5238095Y-58261904D01*
X5285714Y-58357142D01*
X5333333Y-58404761D01*
X5428571Y-58452380D01*
X5619047Y-58452380D01*
X5714285Y-58404761D01*
X5761904Y-58357142D01*
X5809523Y-58261904D01*
X5809523Y-57452380D01*
X6238095Y-57547619D02*
X6285714Y-57500000D01*
X6380952Y-57452380D01*
X6619047Y-57452380D01*
X6714285Y-57500000D01*
X6761904Y-57547619D01*
X6809523Y-57642857D01*
X6809523Y-57738095D01*
X6761904Y-57880952D01*
X6190476Y-58452380D01*
X6809523Y-58452380D01*
X39238095Y-57452380D02*
X39238095Y-58261904D01*
X39285714Y-58357142D01*
X39333333Y-58404761D01*
X39428571Y-58452380D01*
X39619047Y-58452380D01*
X39714285Y-58404761D01*
X39761904Y-58357142D01*
X39809523Y-58261904D01*
X39809523Y-57452380D01*
X40190476Y-57452380D02*
X40809523Y-57452380D01*
X40476190Y-57833333D01*
X40619047Y-57833333D01*
X40714285Y-57880952D01*
X40761904Y-57928571D01*
X40809523Y-58023809D01*
X40809523Y-58261904D01*
X40761904Y-58357142D01*
X40714285Y-58404761D01*
X40619047Y-58452380D01*
X40333333Y-58452380D01*
X40238095Y-58404761D01*
X40190476Y-58357142D01*
X12965180Y-25552304D02*
X13774704Y-25552304D01*
X13869942Y-25504685D01*
X13917561Y-25457066D01*
X13965180Y-25361828D01*
X13965180Y-25171352D01*
X13917561Y-25076114D01*
X13869942Y-25028495D01*
X13774704Y-24980876D01*
X12965180Y-24980876D01*
X12965180Y-24028495D02*
X12965180Y-24504685D01*
X13441371Y-24552304D01*
X13393752Y-24504685D01*
X13346133Y-24409447D01*
X13346133Y-24171352D01*
X13393752Y-24076114D01*
X13441371Y-24028495D01*
X13536609Y-23980876D01*
X13774704Y-23980876D01*
X13869942Y-24028495D01*
X13917561Y-24076114D01*
X13965180Y-24171352D01*
X13965180Y-24409447D01*
X13917561Y-24504685D01*
X13869942Y-24552304D01*
X47509180Y-24485504D02*
X48318704Y-24485504D01*
X48413942Y-24437885D01*
X48461561Y-24390266D01*
X48509180Y-24295028D01*
X48509180Y-24104552D01*
X48461561Y-24009314D01*
X48413942Y-23961695D01*
X48318704Y-23914076D01*
X47509180Y-23914076D01*
X47509180Y-23533123D02*
X47509180Y-22866457D01*
X48509180Y-23295028D01*
X5003180Y-71751885D02*
X4003180Y-71751885D01*
X4003180Y-71513790D01*
X4050800Y-71370933D01*
X4146038Y-71275695D01*
X4241276Y-71228076D01*
X4431752Y-71180457D01*
X4574609Y-71180457D01*
X4765085Y-71228076D01*
X4860323Y-71275695D01*
X4955561Y-71370933D01*
X5003180Y-71513790D01*
X5003180Y-71751885D01*
X5003180Y-70228076D02*
X5003180Y-70799504D01*
X5003180Y-70513790D02*
X4003180Y-70513790D01*
X4146038Y-70609028D01*
X4241276Y-70704266D01*
X4288895Y-70799504D01*
X4336514Y-69370933D02*
X5003180Y-69370933D01*
X3955561Y-69609028D02*
X4669847Y-69847123D01*
X4669847Y-69228076D01*
M02*
