M48
;DRILL file {KiCad no-vcs-found-b05a40e~61~ubuntu17.10.1} date Wed Dec 27 10:39:59 2017
;FORMAT={2:4/ absolute / inch / suppress leading zeros}
FMAT,2
INCH,TZ
T1C0.0157
T2C0.0276
T3C0.0394
T4C0.0433
T5C0.0472
T6C0.0650
T7C0.0866
%
G90
G05
M72
T1
X1780Y-32580
X2130Y-26460
X2460Y-14180
X2880Y-11590
X3530Y-32580
X4340Y-14380
X4340Y-31130
X4440Y-21050
X4540Y-17060
X4660Y-33650
X4680Y-8160
X5020Y-8160
X5180Y-9320
X5180Y-9700
X5300Y-32580
X5370Y-22810
X5490Y-11410
X5490Y-11800
X5580Y-21410
X5910Y-27520
X5920Y-24160
X5920Y-32580
X5940Y-15740
X5950Y-12390
X5950Y-12730
X5950Y-13080
X6330Y-26680
X6500Y-21380
X6580Y-14940
X6800Y-12380
X6800Y-12730
X6800Y-13080
X6940Y-16440
X6960Y-21380
X6960Y-26680
X7280Y-20040
X7430Y-26660
X7430Y-21360
X7520Y-7050
X7780Y-11410
X7780Y-11800
X7820Y-9280
X7820Y-9680
X7860Y-7050
X7880Y-15120
X7895Y-23250
X7940Y-21350
X8200Y-7050
X8450Y-21350
X8540Y-7040
X8780Y-6470
X8820Y-17060
X9120Y-6470
X9310Y-30930
X9460Y-6470
X9760Y-5180
X9800Y-6470
X9810Y-30930
X11370Y-22150
X11700Y-16080
X11860Y-13800
X11880Y-23280
X12360Y-16100
X12370Y-23290
X12520Y-32470
X12870Y-22150
X13180Y-16100
X13260Y-32460
X14860Y-10300
X15220Y-10300
X15580Y-10300
X15590Y-26480
X15750Y-32380
X15940Y-10300
X15940Y-14220
X16140Y-32380
X16300Y-10280
X16460Y-11320
X16530Y-32380
X16660Y-10280
X16910Y-32380
X17020Y-10280
X17380Y-10280
X17590Y-34740
X17740Y-14440
X17920Y-17080
X17990Y-30590
X18000Y-30210
X18050Y-27830
X18050Y-28250
X18050Y-28680
X18070Y-21460
X18360Y-30220
X18360Y-30590
X18780Y-9220
X18780Y-9580
X18829Y-21330
X18980Y-11320
X18980Y-11680
X19330Y-21460
X19340Y-15780
X19520Y-24920
X19830Y-21470
X19980Y-14960
X20310Y-21470
X20340Y-16420
X21260Y-15140
X21398Y-21318
X21440Y-8320
X21540Y-11340
X21540Y-11700
X21650Y-23300
X21680Y-21770
X21760Y-9180
X21760Y-9540
X21800Y-8320
X22240Y-17080
T2
X1181Y-15654
X1181Y-16654
X1181Y-17654
X1181Y-20654
X1181Y-21654
X14567Y-15654
X14567Y-16654
X14567Y-17654
X14567Y-20654
X14567Y-21654
T3
X8310Y-36015
X8310Y-37015
X9310Y-36015
X9310Y-37015
X10310Y-36015
X10310Y-37015
X11310Y-36015
X11310Y-37015
X12310Y-36015
X12310Y-37015
X13310Y-36015
X13310Y-37015
X14310Y-36015
X14310Y-37015
X15310Y-36015
X15310Y-37015
T4
X984Y-4134
X984Y-9134
X11811Y-4134
X11811Y-9134
T5
X4545Y-34745
X4545Y-35745
X4545Y-36745
X4545Y-37745
X19090Y-36700
X19090Y-37700
T6
X17126Y-854
X17126Y-2295
X14764Y-854
X14764Y-2295
X6496Y-854
X6496Y-2295
X8858Y-854
X8858Y-2295
X3346Y-854
X3346Y-2295
T7
X21654Y-36614
X11811Y-1181
X1969Y-36614
T0
M30
