G04 #@! TF.GenerationSoftware,KiCad,Pcbnew,no-vcs-found-b05a40e~61~ubuntu17.10.1*
G04 #@! TF.CreationDate,2017-12-27T10:39:54-05:00*
G04 #@! TF.ProjectId,ENNOID Dual Gate Driver,454E4E4F4944204475616C2047617465,rev?*
G04 #@! TF.SameCoordinates,Original*
G04 #@! TF.FileFunction,Soldermask,Top*
G04 #@! TF.FilePolarity,Negative*
%FSLAX46Y46*%
G04 Gerber Fmt 4.6, Leading zero omitted, Abs format (unit mm)*
G04 Created by KiCad (PCBNEW no-vcs-found-b05a40e~61~ubuntu17.10.1) date Wed Dec 27 10:39:54 2017*
%MOMM*%
%LPD*%
G01*
G04 APERTURE LIST*
%ADD10C,4.200000*%
%ADD11R,2.900000X2.400000*%
%ADD12R,1.700000X1.900000*%
%ADD13R,2.400000X2.900000*%
%ADD14R,1.900000X1.650000*%
%ADD15R,1.650000X1.900000*%
%ADD16R,1.600000X1.300000*%
%ADD17R,1.300000X1.600000*%
%ADD18O,2.600000X2.600000*%
%ADD19R,2.600000X2.600000*%
%ADD20O,3.000000X2.400000*%
%ADD21R,3.000000X2.400000*%
%ADD22R,1.900000X1.700000*%
%ADD23R,3.000000X2.500000*%
%ADD24R,2.200000X3.900000*%
%ADD25R,1.000000X1.900000*%
%ADD26R,6.800000X6.200000*%
%ADD27R,2.600000X1.600000*%
%ADD28C,3.400000*%
%ADD29R,1.040000X2.305000*%
%ADD30C,2.100000*%
%ADD31R,2.100000X2.100000*%
%ADD32R,1.350000X1.650000*%
%ADD33O,1.900000X1.900000*%
%ADD34R,1.900000X1.900000*%
%ADD35R,1.000000X1.950000*%
%ADD36R,1.575000X1.575000*%
G04 APERTURE END LIST*
D10*
X30000000Y-3000000D03*
X5000000Y-93000000D03*
D11*
X38963600Y-20402800D03*
X38963600Y-24402800D03*
D12*
X13500000Y-78150000D03*
X13500000Y-80850000D03*
D13*
X52279300Y-67995800D03*
X48279300Y-67995800D03*
D14*
X48026000Y-70561200D03*
X50526000Y-70561200D03*
X48076800Y-79768700D03*
X50576800Y-79768700D03*
X50576800Y-81762600D03*
X48076800Y-81762600D03*
D15*
X12598400Y-38250000D03*
X12598400Y-40750000D03*
D14*
X19250000Y-40000000D03*
X16750000Y-40000000D03*
X24250000Y-40000000D03*
X21750000Y-40000000D03*
X18663600Y-8676640D03*
X21163600Y-8676640D03*
D15*
X46583600Y-38250000D03*
X46583600Y-40750000D03*
D14*
X53250000Y-40000000D03*
X50750000Y-40000000D03*
X58250000Y-40000000D03*
X55750000Y-40000000D03*
D15*
X41452800Y-22168800D03*
X41452800Y-24668800D03*
X43332400Y-22168800D03*
X43332400Y-24668800D03*
D14*
X39453500Y-10871200D03*
X41953500Y-10871200D03*
D15*
X34112200Y-36750000D03*
X34112200Y-39250000D03*
X45636180Y-79443260D03*
X45636180Y-81943260D03*
D14*
X46273400Y-86334600D03*
X48773400Y-86334600D03*
D16*
X12242800Y-31827200D03*
X12242800Y-35127200D03*
X46177200Y-34974800D03*
X46177200Y-31674800D03*
D17*
X24650000Y-37500000D03*
X21350000Y-37500000D03*
D18*
X2500000Y-23200000D03*
D19*
X2500000Y-10500000D03*
D16*
X2540000Y-4649200D03*
X2540000Y-7949200D03*
D17*
X58650000Y-37500000D03*
X55350000Y-37500000D03*
D19*
X30000000Y-10500000D03*
D18*
X30000000Y-23200000D03*
D17*
X24969200Y-7924800D03*
X28269200Y-7924800D03*
D20*
X11544300Y-95872300D03*
X11544300Y-93332300D03*
X11544300Y-90792300D03*
D21*
X11544300Y-88252300D03*
D20*
X48488600Y-95758000D03*
D21*
X48488600Y-93218000D03*
D12*
X15011400Y-59084200D03*
X15011400Y-56384200D03*
X18821400Y-59058800D03*
X18821400Y-56358800D03*
X16916400Y-56358800D03*
X16916400Y-59058800D03*
D22*
X5214600Y-25679400D03*
X2514600Y-25679400D03*
D23*
X12783600Y-13099600D03*
X12783600Y-17999600D03*
X16283600Y-17999600D03*
X16283600Y-13099600D03*
D22*
X21263600Y-10566400D03*
X18563600Y-10566400D03*
D12*
X9000000Y-80850000D03*
X9000000Y-78150000D03*
X49580800Y-56511200D03*
X49580800Y-59211200D03*
X53517800Y-56485800D03*
X53517800Y-59185800D03*
X51587400Y-56485800D03*
X51587400Y-59185800D03*
X30000000Y-25650000D03*
X30000000Y-28350000D03*
D23*
X54275200Y-13201200D03*
X54275200Y-18101200D03*
X50775200Y-18101200D03*
X50775200Y-13201200D03*
D22*
X42078900Y-8966200D03*
X39378900Y-8966200D03*
D12*
X32117600Y-39350000D03*
X32117600Y-36650000D03*
X30117600Y-36650000D03*
X30117600Y-39350000D03*
D22*
X48873400Y-90144600D03*
X46173400Y-90144600D03*
X48873400Y-88239600D03*
X46173400Y-88239600D03*
D24*
X9245600Y-16651600D03*
X9245600Y-21651600D03*
X57912000Y-21753200D03*
X57912000Y-16753200D03*
D12*
X13500000Y-73150000D03*
X13500000Y-75850000D03*
X9000000Y-75850000D03*
X9000000Y-73150000D03*
X41503600Y-86440000D03*
X41503600Y-83740000D03*
X4500000Y-78150000D03*
X4500000Y-80850000D03*
D25*
X21445000Y-52650000D03*
X20175000Y-52650000D03*
X18905000Y-52650000D03*
X17635000Y-52650000D03*
X16365000Y-52650000D03*
X15095000Y-52650000D03*
X13825000Y-52650000D03*
X12555000Y-52650000D03*
X12555000Y-43350000D03*
X13825000Y-43350000D03*
X15095000Y-43350000D03*
X16365000Y-43350000D03*
X17635000Y-43350000D03*
X18905000Y-43350000D03*
X20175000Y-43350000D03*
X21445000Y-43350000D03*
X55445000Y-43350000D03*
X54175000Y-43350000D03*
X52905000Y-43350000D03*
X51635000Y-43350000D03*
X50365000Y-43350000D03*
X49095000Y-43350000D03*
X47825000Y-43350000D03*
X46555000Y-43350000D03*
X46555000Y-52650000D03*
X47825000Y-52650000D03*
X49095000Y-52650000D03*
X50365000Y-52650000D03*
X51635000Y-52650000D03*
X52905000Y-52650000D03*
X54175000Y-52650000D03*
X55445000Y-52650000D03*
D26*
X54728800Y-75161200D03*
D27*
X48428800Y-77441200D03*
X48428800Y-75161200D03*
X48428800Y-72881200D03*
D28*
X22500000Y-5830000D03*
X22500000Y-2170000D03*
X8500000Y-5830000D03*
X8500000Y-2170000D03*
X16500000Y-5830000D03*
X16500000Y-2170000D03*
X43500000Y-5830000D03*
X43500000Y-2170000D03*
X37500000Y-2170000D03*
X37500000Y-5830000D03*
D29*
X32689800Y-42652500D03*
X31419800Y-42652500D03*
X30149800Y-42652500D03*
X28879800Y-42652500D03*
X28879800Y-53347500D03*
X30149800Y-53347500D03*
X31419800Y-53347500D03*
X32689800Y-53347500D03*
D30*
X38887400Y-91478100D03*
X38887400Y-94018100D03*
X36347400Y-91478100D03*
X36347400Y-94018100D03*
X33807400Y-91478100D03*
X33807400Y-94018100D03*
X31267400Y-91478100D03*
X31267400Y-94018100D03*
X28727400Y-91478100D03*
X28727400Y-94018100D03*
X26187400Y-91478100D03*
X26187400Y-94018100D03*
X23647400Y-91478100D03*
X23647400Y-94018100D03*
X21107400Y-91478100D03*
D31*
X21107400Y-94018100D03*
D32*
X5400800Y-64732000D03*
X7400800Y-64732000D03*
X7400800Y-59982000D03*
X5400800Y-59982000D03*
X39563800Y-60058200D03*
X41563800Y-60058200D03*
X41563800Y-64808200D03*
X39563800Y-64808200D03*
D33*
X3000000Y-39760000D03*
X3000000Y-42300000D03*
X3000000Y-44840000D03*
X3000000Y-52460000D03*
D34*
X3000000Y-55000000D03*
D33*
X37000000Y-39760000D03*
X37000000Y-42300000D03*
X37000000Y-44840000D03*
X37000000Y-52460000D03*
D34*
X37000000Y-55000000D03*
D35*
X14985400Y-29483600D03*
X16255400Y-29483600D03*
X17525400Y-29483600D03*
X18795400Y-29483600D03*
X18795400Y-24083600D03*
X17525400Y-24083600D03*
X16255400Y-24083600D03*
X14985400Y-24083600D03*
D36*
X17477900Y-26196100D03*
X16302900Y-26196100D03*
X17477900Y-27371100D03*
X16302900Y-27371100D03*
D35*
X49595000Y-29178800D03*
X50865000Y-29178800D03*
X52135000Y-29178800D03*
X53405000Y-29178800D03*
X53405000Y-23778800D03*
X52135000Y-23778800D03*
X50865000Y-23778800D03*
X49595000Y-23778800D03*
D36*
X52087500Y-25891300D03*
X50912500Y-25891300D03*
X52087500Y-27066300D03*
X50912500Y-27066300D03*
D12*
X4500000Y-75850000D03*
X4500000Y-73150000D03*
D10*
X55000000Y-93000000D03*
M02*
