G04 #@! TF.GenerationSoftware,KiCad,Pcbnew,no-vcs-found-b05a40e~61~ubuntu17.10.1*
G04 #@! TF.CreationDate,2017-12-27T10:39:54-05:00*
G04 #@! TF.ProjectId,ENNOID Dual Gate Driver,454E4E4F4944204475616C2047617465,rev?*
G04 #@! TF.SameCoordinates,Original*
G04 #@! TF.FileFunction,Legend,Bot*
G04 #@! TF.FilePolarity,Positive*
%FSLAX46Y46*%
G04 Gerber Fmt 4.6, Leading zero omitted, Abs format (unit mm)*
G04 Created by KiCad (PCBNEW no-vcs-found-b05a40e~61~ubuntu17.10.1) date Wed Dec 27 10:39:54 2017*
%MOMM*%
%LPD*%
G01*
G04 APERTURE LIST*
%ADD10C,0.300000*%
%ADD11C,0.120000*%
%ADD12C,0.150000*%
G04 APERTURE END LIST*
D10*
X23540114Y-8833657D02*
X23040114Y-8833657D01*
X22825828Y-9619371D02*
X23540114Y-9619371D01*
X23540114Y-8119371D01*
X22825828Y-8119371D01*
X21397257Y-9619371D02*
X22254400Y-9619371D01*
X21825828Y-9619371D02*
X21825828Y-8119371D01*
X21968685Y-8333657D01*
X22111542Y-8476514D01*
X22254400Y-8547942D01*
X16780628Y-8190800D02*
X16923485Y-8119371D01*
X17137771Y-8119371D01*
X17352057Y-8190800D01*
X17494914Y-8333657D01*
X17566342Y-8476514D01*
X17637771Y-8762228D01*
X17637771Y-8976514D01*
X17566342Y-9262228D01*
X17494914Y-9405085D01*
X17352057Y-9547942D01*
X17137771Y-9619371D01*
X16994914Y-9619371D01*
X16780628Y-9547942D01*
X16709200Y-9476514D01*
X16709200Y-8976514D01*
X16994914Y-8976514D01*
X15280628Y-9619371D02*
X16137771Y-9619371D01*
X15709200Y-9619371D02*
X15709200Y-8119371D01*
X15852057Y-8333657D01*
X15994914Y-8476514D01*
X16137771Y-8547942D01*
X43806228Y-8190800D02*
X43949085Y-8119371D01*
X44163371Y-8119371D01*
X44377657Y-8190800D01*
X44520514Y-8333657D01*
X44591942Y-8476514D01*
X44663371Y-8762228D01*
X44663371Y-8976514D01*
X44591942Y-9262228D01*
X44520514Y-9405085D01*
X44377657Y-9547942D01*
X44163371Y-9619371D01*
X44020514Y-9619371D01*
X43806228Y-9547942D01*
X43734800Y-9476514D01*
X43734800Y-8976514D01*
X44020514Y-8976514D01*
X43163371Y-8262228D02*
X43091942Y-8190800D01*
X42949085Y-8119371D01*
X42591942Y-8119371D01*
X42449085Y-8190800D01*
X42377657Y-8262228D01*
X42306228Y-8405085D01*
X42306228Y-8547942D01*
X42377657Y-8762228D01*
X43234800Y-9619371D01*
X42306228Y-9619371D01*
X38627714Y-8986057D02*
X38127714Y-8986057D01*
X37913428Y-9771771D02*
X38627714Y-9771771D01*
X38627714Y-8271771D01*
X37913428Y-8271771D01*
X37342000Y-8414628D02*
X37270571Y-8343200D01*
X37127714Y-8271771D01*
X36770571Y-8271771D01*
X36627714Y-8343200D01*
X36556285Y-8414628D01*
X36484857Y-8557485D01*
X36484857Y-8700342D01*
X36556285Y-8914628D01*
X37413428Y-9771771D01*
X36484857Y-9771771D01*
D11*
X32855800Y-85691600D02*
X32855800Y-84691600D01*
X34555800Y-84691600D02*
X34555800Y-85691600D01*
X5930000Y-53221000D02*
X5930000Y-54221000D01*
X4230000Y-54221000D02*
X4230000Y-53221000D01*
X6160400Y-54221000D02*
X6160400Y-53221000D01*
X7860400Y-53221000D02*
X7860400Y-54221000D01*
X6006200Y-38349300D02*
X6006200Y-39349300D01*
X4306200Y-39349300D02*
X4306200Y-38349300D01*
X4306200Y-44086400D02*
X4306200Y-43086400D01*
X6006200Y-43086400D02*
X6006200Y-44086400D01*
X10500000Y-34150000D02*
X11500000Y-34150000D01*
X11500000Y-35850000D02*
X10500000Y-35850000D01*
X39940600Y-53246400D02*
X39940600Y-54246400D01*
X38240600Y-54246400D02*
X38240600Y-53246400D01*
X40120200Y-54246400D02*
X40120200Y-53246400D01*
X41820200Y-53246400D02*
X41820200Y-54246400D01*
X40016800Y-38050800D02*
X40016800Y-39050800D01*
X38316800Y-39050800D02*
X38316800Y-38050800D01*
X38316800Y-44050800D02*
X38316800Y-43050800D01*
X40016800Y-43050800D02*
X40016800Y-44050800D01*
X44500000Y-34150000D02*
X45500000Y-34150000D01*
X45500000Y-35850000D02*
X44500000Y-35850000D01*
X12327000Y-51194600D02*
X13327000Y-51194600D01*
X13327000Y-52894600D02*
X12327000Y-52894600D01*
X20861400Y-51880400D02*
X21861400Y-51880400D01*
X21861400Y-53580400D02*
X20861400Y-53580400D01*
X16390400Y-28433600D02*
X17390400Y-28433600D01*
X17390400Y-30133600D02*
X16390400Y-30133600D01*
X15890400Y-23263600D02*
X17890400Y-23263600D01*
X17890400Y-25303600D02*
X15890400Y-25303600D01*
X22132200Y-20213000D02*
X22132200Y-21213000D01*
X20432200Y-21213000D02*
X20432200Y-20213000D01*
X18432200Y-21213000D02*
X18432200Y-20213000D01*
X20132200Y-20213000D02*
X20132200Y-21213000D01*
X22269000Y-19218400D02*
X22269000Y-21218400D01*
X25229000Y-21218400D02*
X25229000Y-19218400D01*
X47642400Y-53580400D02*
X46642400Y-53580400D01*
X46642400Y-51880400D02*
X47642400Y-51880400D01*
X54262400Y-51931200D02*
X55262400Y-51931200D01*
X55262400Y-53631200D02*
X54262400Y-53631200D01*
X51000000Y-28128800D02*
X52000000Y-28128800D01*
X52000000Y-29828800D02*
X51000000Y-29828800D01*
X50500000Y-22958800D02*
X52500000Y-22958800D01*
X52500000Y-24998800D02*
X50500000Y-24998800D01*
X30259400Y-51931200D02*
X31259400Y-51931200D01*
X31259400Y-53631200D02*
X30259400Y-53631200D01*
X31183200Y-55460000D02*
X30183200Y-55460000D01*
X30183200Y-53760000D02*
X31183200Y-53760000D01*
X32676200Y-84691600D02*
X32676200Y-85691600D01*
X30976200Y-85691600D02*
X30976200Y-84691600D01*
X37220000Y-30600000D02*
X37220000Y-31800000D01*
X41220000Y-30600000D02*
X37220000Y-30600000D01*
X37220000Y-35400000D02*
X39920000Y-35400000D01*
X37220000Y-34200000D02*
X37220000Y-35400000D01*
X3220000Y-30600000D02*
X3220000Y-31800000D01*
X7220000Y-30600000D02*
X3220000Y-30600000D01*
X3220000Y-35400000D02*
X5920000Y-35400000D01*
X3220000Y-34200000D02*
X3220000Y-35400000D01*
X4994200Y-28558600D02*
X3794200Y-28558600D01*
X3794200Y-30318600D02*
X4994200Y-30318600D01*
X10937800Y-28558600D02*
X9737800Y-28558600D01*
X9737800Y-30318600D02*
X10937800Y-30318600D01*
X38058800Y-30394800D02*
X39258800Y-30394800D01*
X39258800Y-28634800D02*
X38058800Y-28634800D01*
X45507200Y-28634800D02*
X44307200Y-28634800D01*
X44307200Y-30394800D02*
X45507200Y-30394800D01*
X14189000Y-55482600D02*
X12989000Y-55482600D01*
X12989000Y-57242600D02*
X14189000Y-57242600D01*
X13994000Y-14349600D02*
X13994000Y-16749600D01*
X11594000Y-14349600D02*
X11594000Y-16749600D01*
X15094000Y-14349600D02*
X15094000Y-16749600D01*
X17494000Y-14349600D02*
X17494000Y-16749600D01*
X47634600Y-57268000D02*
X48834600Y-57268000D01*
X48834600Y-55508000D02*
X47634600Y-55508000D01*
X49585600Y-14502000D02*
X49585600Y-16902000D01*
X51985600Y-14502000D02*
X51985600Y-16902000D01*
X55485600Y-14502000D02*
X55485600Y-16902000D01*
X53085600Y-14502000D02*
X53085600Y-16902000D01*
X29041200Y-13928800D02*
X29041200Y-15128800D01*
X30801200Y-15128800D02*
X30801200Y-13928800D01*
X34997600Y-38600000D02*
X34997600Y-37400000D01*
X33237600Y-37400000D02*
X33237600Y-38600000D01*
X30801200Y-19904000D02*
X30801200Y-18704000D01*
X29041200Y-18704000D02*
X29041200Y-19904000D01*
X30284800Y-41771200D02*
X31284800Y-41771200D01*
X31284800Y-43471200D02*
X30284800Y-43471200D01*
X32697600Y-38760000D02*
X32697600Y-37300000D01*
X29537600Y-38760000D02*
X29537600Y-36600000D01*
X29537600Y-38760000D02*
X30467600Y-38760000D01*
X32697600Y-38760000D02*
X31767600Y-38760000D01*
X18600000Y-39120000D02*
X17400000Y-39120000D01*
X17400000Y-40880000D02*
X18600000Y-40880000D01*
X51400000Y-40880000D02*
X52600000Y-40880000D01*
X52600000Y-39120000D02*
X51400000Y-39120000D01*
D12*
X35713942Y-84523342D02*
X35761561Y-84475723D01*
X35809180Y-84332866D01*
X35809180Y-84237628D01*
X35761561Y-84094771D01*
X35666323Y-83999533D01*
X35571085Y-83951914D01*
X35380609Y-83904295D01*
X35237752Y-83904295D01*
X35047276Y-83951914D01*
X34952038Y-83999533D01*
X34856800Y-84094771D01*
X34809180Y-84237628D01*
X34809180Y-84332866D01*
X34856800Y-84475723D01*
X34904419Y-84523342D01*
X35142514Y-85380485D02*
X35809180Y-85380485D01*
X34761561Y-85142390D02*
X35475847Y-84904295D01*
X35475847Y-85523342D01*
X34904419Y-85856676D02*
X34856800Y-85904295D01*
X34809180Y-85999533D01*
X34809180Y-86237628D01*
X34856800Y-86332866D01*
X34904419Y-86380485D01*
X34999657Y-86428104D01*
X35094895Y-86428104D01*
X35237752Y-86380485D01*
X35809180Y-85809057D01*
X35809180Y-86428104D01*
X5437142Y-56754733D02*
X5484761Y-56707114D01*
X5532380Y-56564257D01*
X5532380Y-56469019D01*
X5484761Y-56326161D01*
X5389523Y-56230923D01*
X5294285Y-56183304D01*
X5103809Y-56135685D01*
X4960952Y-56135685D01*
X4770476Y-56183304D01*
X4675238Y-56230923D01*
X4580000Y-56326161D01*
X4532380Y-56469019D01*
X4532380Y-56564257D01*
X4580000Y-56707114D01*
X4627619Y-56754733D01*
X4532380Y-57659495D02*
X4532380Y-57183304D01*
X5008571Y-57135685D01*
X4960952Y-57183304D01*
X4913333Y-57278542D01*
X4913333Y-57516638D01*
X4960952Y-57611876D01*
X5008571Y-57659495D01*
X5103809Y-57707114D01*
X5341904Y-57707114D01*
X5437142Y-57659495D01*
X5484761Y-57611876D01*
X5532380Y-57516638D01*
X5532380Y-57278542D01*
X5484761Y-57183304D01*
X5437142Y-57135685D01*
X7367542Y-56729333D02*
X7415161Y-56681714D01*
X7462780Y-56538857D01*
X7462780Y-56443619D01*
X7415161Y-56300761D01*
X7319923Y-56205523D01*
X7224685Y-56157904D01*
X7034209Y-56110285D01*
X6891352Y-56110285D01*
X6700876Y-56157904D01*
X6605638Y-56205523D01*
X6510400Y-56300761D01*
X6462780Y-56443619D01*
X6462780Y-56538857D01*
X6510400Y-56681714D01*
X6558019Y-56729333D01*
X6462780Y-57586476D02*
X6462780Y-57396000D01*
X6510400Y-57300761D01*
X6558019Y-57253142D01*
X6700876Y-57157904D01*
X6891352Y-57110285D01*
X7272304Y-57110285D01*
X7367542Y-57157904D01*
X7415161Y-57205523D01*
X7462780Y-57300761D01*
X7462780Y-57491238D01*
X7415161Y-57586476D01*
X7367542Y-57634095D01*
X7272304Y-57681714D01*
X7034209Y-57681714D01*
X6938971Y-57634095D01*
X6891352Y-57586476D01*
X6843733Y-57491238D01*
X6843733Y-57300761D01*
X6891352Y-57205523D01*
X6938971Y-57157904D01*
X7034209Y-57110285D01*
X7215142Y-38695333D02*
X7262761Y-38647714D01*
X7310380Y-38504857D01*
X7310380Y-38409619D01*
X7262761Y-38266761D01*
X7167523Y-38171523D01*
X7072285Y-38123904D01*
X6881809Y-38076285D01*
X6738952Y-38076285D01*
X6548476Y-38123904D01*
X6453238Y-38171523D01*
X6358000Y-38266761D01*
X6310380Y-38409619D01*
X6310380Y-38504857D01*
X6358000Y-38647714D01*
X6405619Y-38695333D01*
X6310380Y-39028666D02*
X6310380Y-39695333D01*
X7310380Y-39266761D01*
X7215142Y-43419733D02*
X7262761Y-43372114D01*
X7310380Y-43229257D01*
X7310380Y-43134019D01*
X7262761Y-42991161D01*
X7167523Y-42895923D01*
X7072285Y-42848304D01*
X6881809Y-42800685D01*
X6738952Y-42800685D01*
X6548476Y-42848304D01*
X6453238Y-42895923D01*
X6358000Y-42991161D01*
X6310380Y-43134019D01*
X6310380Y-43229257D01*
X6358000Y-43372114D01*
X6405619Y-43419733D01*
X6738952Y-43991161D02*
X6691333Y-43895923D01*
X6643714Y-43848304D01*
X6548476Y-43800685D01*
X6500857Y-43800685D01*
X6405619Y-43848304D01*
X6358000Y-43895923D01*
X6310380Y-43991161D01*
X6310380Y-44181638D01*
X6358000Y-44276876D01*
X6405619Y-44324495D01*
X6500857Y-44372114D01*
X6548476Y-44372114D01*
X6643714Y-44324495D01*
X6691333Y-44276876D01*
X6738952Y-44181638D01*
X6738952Y-43991161D01*
X6786571Y-43895923D01*
X6834190Y-43848304D01*
X6929428Y-43800685D01*
X7119904Y-43800685D01*
X7215142Y-43848304D01*
X7262761Y-43895923D01*
X7310380Y-43991161D01*
X7310380Y-44181638D01*
X7262761Y-44276876D01*
X7215142Y-44324495D01*
X7119904Y-44372114D01*
X6929428Y-44372114D01*
X6834190Y-44324495D01*
X6786571Y-44276876D01*
X6738952Y-44181638D01*
X11359706Y-37084342D02*
X11407325Y-37131961D01*
X11550182Y-37179580D01*
X11645420Y-37179580D01*
X11788278Y-37131961D01*
X11883516Y-37036723D01*
X11931135Y-36941485D01*
X11978754Y-36751009D01*
X11978754Y-36608152D01*
X11931135Y-36417676D01*
X11883516Y-36322438D01*
X11788278Y-36227200D01*
X11645420Y-36179580D01*
X11550182Y-36179580D01*
X11407325Y-36227200D01*
X11359706Y-36274819D01*
X10883516Y-37179580D02*
X10693040Y-37179580D01*
X10597801Y-37131961D01*
X10550182Y-37084342D01*
X10454944Y-36941485D01*
X10407325Y-36751009D01*
X10407325Y-36370057D01*
X10454944Y-36274819D01*
X10502563Y-36227200D01*
X10597801Y-36179580D01*
X10788278Y-36179580D01*
X10883516Y-36227200D01*
X10931135Y-36274819D01*
X10978754Y-36370057D01*
X10978754Y-36608152D01*
X10931135Y-36703390D01*
X10883516Y-36751009D01*
X10788278Y-36798628D01*
X10597801Y-36798628D01*
X10502563Y-36751009D01*
X10454944Y-36703390D01*
X10407325Y-36608152D01*
X37771342Y-53065442D02*
X37818961Y-53017823D01*
X37866580Y-52874966D01*
X37866580Y-52779728D01*
X37818961Y-52636871D01*
X37723723Y-52541633D01*
X37628485Y-52494014D01*
X37438009Y-52446395D01*
X37295152Y-52446395D01*
X37104676Y-52494014D01*
X37009438Y-52541633D01*
X36914200Y-52636871D01*
X36866580Y-52779728D01*
X36866580Y-52874966D01*
X36914200Y-53017823D01*
X36961819Y-53065442D01*
X37866580Y-54017823D02*
X37866580Y-53446395D01*
X37866580Y-53732109D02*
X36866580Y-53732109D01*
X37009438Y-53636871D01*
X37104676Y-53541633D01*
X37152295Y-53446395D01*
X36866580Y-54636871D02*
X36866580Y-54732109D01*
X36914200Y-54827347D01*
X36961819Y-54874966D01*
X37057057Y-54922585D01*
X37247533Y-54970204D01*
X37485628Y-54970204D01*
X37676104Y-54922585D01*
X37771342Y-54874966D01*
X37818961Y-54827347D01*
X37866580Y-54732109D01*
X37866580Y-54636871D01*
X37818961Y-54541633D01*
X37771342Y-54494014D01*
X37676104Y-54446395D01*
X37485628Y-54398776D01*
X37247533Y-54398776D01*
X37057057Y-54446395D01*
X36961819Y-54494014D01*
X36914200Y-54541633D01*
X36866580Y-54636871D01*
X43029142Y-53065442D02*
X43076761Y-53017823D01*
X43124380Y-52874966D01*
X43124380Y-52779728D01*
X43076761Y-52636871D01*
X42981523Y-52541633D01*
X42886285Y-52494014D01*
X42695809Y-52446395D01*
X42552952Y-52446395D01*
X42362476Y-52494014D01*
X42267238Y-52541633D01*
X42172000Y-52636871D01*
X42124380Y-52779728D01*
X42124380Y-52874966D01*
X42172000Y-53017823D01*
X42219619Y-53065442D01*
X43124380Y-54017823D02*
X43124380Y-53446395D01*
X43124380Y-53732109D02*
X42124380Y-53732109D01*
X42267238Y-53636871D01*
X42362476Y-53541633D01*
X42410095Y-53446395D01*
X43124380Y-54970204D02*
X43124380Y-54398776D01*
X43124380Y-54684490D02*
X42124380Y-54684490D01*
X42267238Y-54589252D01*
X42362476Y-54494014D01*
X42410095Y-54398776D01*
X41200342Y-37958742D02*
X41247961Y-37911123D01*
X41295580Y-37768266D01*
X41295580Y-37673028D01*
X41247961Y-37530171D01*
X41152723Y-37434933D01*
X41057485Y-37387314D01*
X40867009Y-37339695D01*
X40724152Y-37339695D01*
X40533676Y-37387314D01*
X40438438Y-37434933D01*
X40343200Y-37530171D01*
X40295580Y-37673028D01*
X40295580Y-37768266D01*
X40343200Y-37911123D01*
X40390819Y-37958742D01*
X41295580Y-38911123D02*
X41295580Y-38339695D01*
X41295580Y-38625409D02*
X40295580Y-38625409D01*
X40438438Y-38530171D01*
X40533676Y-38434933D01*
X40581295Y-38339695D01*
X40390819Y-39292076D02*
X40343200Y-39339695D01*
X40295580Y-39434933D01*
X40295580Y-39673028D01*
X40343200Y-39768266D01*
X40390819Y-39815885D01*
X40486057Y-39863504D01*
X40581295Y-39863504D01*
X40724152Y-39815885D01*
X41295580Y-39244457D01*
X41295580Y-39863504D01*
X41200342Y-42907942D02*
X41247961Y-42860323D01*
X41295580Y-42717466D01*
X41295580Y-42622228D01*
X41247961Y-42479371D01*
X41152723Y-42384133D01*
X41057485Y-42336514D01*
X40867009Y-42288895D01*
X40724152Y-42288895D01*
X40533676Y-42336514D01*
X40438438Y-42384133D01*
X40343200Y-42479371D01*
X40295580Y-42622228D01*
X40295580Y-42717466D01*
X40343200Y-42860323D01*
X40390819Y-42907942D01*
X41295580Y-43860323D02*
X41295580Y-43288895D01*
X41295580Y-43574609D02*
X40295580Y-43574609D01*
X40438438Y-43479371D01*
X40533676Y-43384133D01*
X40581295Y-43288895D01*
X40295580Y-44193657D02*
X40295580Y-44812704D01*
X40676533Y-44479371D01*
X40676533Y-44622228D01*
X40724152Y-44717466D01*
X40771771Y-44765085D01*
X40867009Y-44812704D01*
X41105104Y-44812704D01*
X41200342Y-44765085D01*
X41247961Y-44717466D01*
X41295580Y-44622228D01*
X41295580Y-44336514D01*
X41247961Y-44241276D01*
X41200342Y-44193657D01*
X45651657Y-36985282D02*
X45699276Y-37032901D01*
X45842133Y-37080520D01*
X45937371Y-37080520D01*
X46080228Y-37032901D01*
X46175466Y-36937663D01*
X46223085Y-36842425D01*
X46270704Y-36651949D01*
X46270704Y-36509092D01*
X46223085Y-36318616D01*
X46175466Y-36223378D01*
X46080228Y-36128140D01*
X45937371Y-36080520D01*
X45842133Y-36080520D01*
X45699276Y-36128140D01*
X45651657Y-36175759D01*
X44699276Y-37080520D02*
X45270704Y-37080520D01*
X44984990Y-37080520D02*
X44984990Y-36080520D01*
X45080228Y-36223378D01*
X45175466Y-36318616D01*
X45270704Y-36366235D01*
X43842133Y-36413854D02*
X43842133Y-37080520D01*
X44080228Y-36032901D02*
X44318323Y-36747187D01*
X43699276Y-36747187D01*
X13469857Y-50651742D02*
X13517476Y-50699361D01*
X13660333Y-50746980D01*
X13755571Y-50746980D01*
X13898428Y-50699361D01*
X13993666Y-50604123D01*
X14041285Y-50508885D01*
X14088904Y-50318409D01*
X14088904Y-50175552D01*
X14041285Y-49985076D01*
X13993666Y-49889838D01*
X13898428Y-49794600D01*
X13755571Y-49746980D01*
X13660333Y-49746980D01*
X13517476Y-49794600D01*
X13469857Y-49842219D01*
X12517476Y-50746980D02*
X13088904Y-50746980D01*
X12803190Y-50746980D02*
X12803190Y-49746980D01*
X12898428Y-49889838D01*
X12993666Y-49985076D01*
X13088904Y-50032695D01*
X11612714Y-49746980D02*
X12088904Y-49746980D01*
X12136523Y-50223171D01*
X12088904Y-50175552D01*
X11993666Y-50127933D01*
X11755571Y-50127933D01*
X11660333Y-50175552D01*
X11612714Y-50223171D01*
X11565095Y-50318409D01*
X11565095Y-50556504D01*
X11612714Y-50651742D01*
X11660333Y-50699361D01*
X11755571Y-50746980D01*
X11993666Y-50746980D01*
X12088904Y-50699361D01*
X12136523Y-50651742D01*
X22004257Y-51563542D02*
X22051876Y-51611161D01*
X22194733Y-51658780D01*
X22289971Y-51658780D01*
X22432828Y-51611161D01*
X22528066Y-51515923D01*
X22575685Y-51420685D01*
X22623304Y-51230209D01*
X22623304Y-51087352D01*
X22575685Y-50896876D01*
X22528066Y-50801638D01*
X22432828Y-50706400D01*
X22289971Y-50658780D01*
X22194733Y-50658780D01*
X22051876Y-50706400D01*
X22004257Y-50754019D01*
X21051876Y-51658780D02*
X21623304Y-51658780D01*
X21337590Y-51658780D02*
X21337590Y-50658780D01*
X21432828Y-50801638D01*
X21528066Y-50896876D01*
X21623304Y-50944495D01*
X20194733Y-50658780D02*
X20385209Y-50658780D01*
X20480447Y-50706400D01*
X20528066Y-50754019D01*
X20623304Y-50896876D01*
X20670923Y-51087352D01*
X20670923Y-51468304D01*
X20623304Y-51563542D01*
X20575685Y-51611161D01*
X20480447Y-51658780D01*
X20289971Y-51658780D01*
X20194733Y-51611161D01*
X20147114Y-51563542D01*
X20099495Y-51468304D01*
X20099495Y-51230209D01*
X20147114Y-51134971D01*
X20194733Y-51087352D01*
X20289971Y-51039733D01*
X20480447Y-51039733D01*
X20575685Y-51087352D01*
X20623304Y-51134971D01*
X20670923Y-51230209D01*
X17584057Y-31266342D02*
X17631676Y-31313961D01*
X17774533Y-31361580D01*
X17869771Y-31361580D01*
X18012628Y-31313961D01*
X18107866Y-31218723D01*
X18155485Y-31123485D01*
X18203104Y-30933009D01*
X18203104Y-30790152D01*
X18155485Y-30599676D01*
X18107866Y-30504438D01*
X18012628Y-30409200D01*
X17869771Y-30361580D01*
X17774533Y-30361580D01*
X17631676Y-30409200D01*
X17584057Y-30456819D01*
X17203104Y-30456819D02*
X17155485Y-30409200D01*
X17060247Y-30361580D01*
X16822152Y-30361580D01*
X16726914Y-30409200D01*
X16679295Y-30456819D01*
X16631676Y-30552057D01*
X16631676Y-30647295D01*
X16679295Y-30790152D01*
X17250723Y-31361580D01*
X16631676Y-31361580D01*
X16012628Y-30361580D02*
X15917390Y-30361580D01*
X15822152Y-30409200D01*
X15774533Y-30456819D01*
X15726914Y-30552057D01*
X15679295Y-30742533D01*
X15679295Y-30980628D01*
X15726914Y-31171104D01*
X15774533Y-31266342D01*
X15822152Y-31313961D01*
X15917390Y-31361580D01*
X16012628Y-31361580D01*
X16107866Y-31313961D01*
X16155485Y-31266342D01*
X16203104Y-31171104D01*
X16250723Y-30980628D01*
X16250723Y-30742533D01*
X16203104Y-30552057D01*
X16155485Y-30456819D01*
X16107866Y-30409200D01*
X16012628Y-30361580D01*
X12589657Y-24890897D02*
X12542038Y-24938516D01*
X12494419Y-25081373D01*
X12494419Y-25176611D01*
X12542038Y-25319468D01*
X12637276Y-25414706D01*
X12732514Y-25462325D01*
X12922990Y-25509944D01*
X13065847Y-25509944D01*
X13256323Y-25462325D01*
X13351561Y-25414706D01*
X13446800Y-25319468D01*
X13494419Y-25176611D01*
X13494419Y-25081373D01*
X13446800Y-24938516D01*
X13399180Y-24890897D01*
X13399180Y-24509944D02*
X13446800Y-24462325D01*
X13494419Y-24367087D01*
X13494419Y-24128992D01*
X13446800Y-24033754D01*
X13399180Y-23986135D01*
X13303942Y-23938516D01*
X13208704Y-23938516D01*
X13065847Y-23986135D01*
X12494419Y-24557563D01*
X12494419Y-23938516D01*
X12494419Y-22986135D02*
X12494419Y-23557563D01*
X12494419Y-23271849D02*
X13494419Y-23271849D01*
X13351561Y-23367087D01*
X13256323Y-23462325D01*
X13208704Y-23557563D01*
X21624102Y-16171242D02*
X21671721Y-16123623D01*
X21719340Y-15980766D01*
X21719340Y-15885528D01*
X21671721Y-15742671D01*
X21576483Y-15647433D01*
X21481245Y-15599814D01*
X21290769Y-15552195D01*
X21147912Y-15552195D01*
X20957436Y-15599814D01*
X20862198Y-15647433D01*
X20766960Y-15742671D01*
X20719340Y-15885528D01*
X20719340Y-15980766D01*
X20766960Y-16123623D01*
X20814579Y-16171242D01*
X20814579Y-16552195D02*
X20766960Y-16599814D01*
X20719340Y-16695052D01*
X20719340Y-16933147D01*
X20766960Y-17028385D01*
X20814579Y-17076004D01*
X20909817Y-17123623D01*
X21005055Y-17123623D01*
X21147912Y-17076004D01*
X21719340Y-16504576D01*
X21719340Y-17123623D01*
X20814579Y-17504576D02*
X20766960Y-17552195D01*
X20719340Y-17647433D01*
X20719340Y-17885528D01*
X20766960Y-17980766D01*
X20814579Y-18028385D01*
X20909817Y-18076004D01*
X21005055Y-18076004D01*
X21147912Y-18028385D01*
X21719340Y-17456957D01*
X21719340Y-18076004D01*
X19646962Y-16234742D02*
X19694581Y-16187123D01*
X19742200Y-16044266D01*
X19742200Y-15949028D01*
X19694581Y-15806171D01*
X19599343Y-15710933D01*
X19504105Y-15663314D01*
X19313629Y-15615695D01*
X19170772Y-15615695D01*
X18980296Y-15663314D01*
X18885058Y-15710933D01*
X18789820Y-15806171D01*
X18742200Y-15949028D01*
X18742200Y-16044266D01*
X18789820Y-16187123D01*
X18837439Y-16234742D01*
X18837439Y-16615695D02*
X18789820Y-16663314D01*
X18742200Y-16758552D01*
X18742200Y-16996647D01*
X18789820Y-17091885D01*
X18837439Y-17139504D01*
X18932677Y-17187123D01*
X19027915Y-17187123D01*
X19170772Y-17139504D01*
X19742200Y-16568076D01*
X19742200Y-17187123D01*
X18742200Y-17520457D02*
X18742200Y-18139504D01*
X19123153Y-17806171D01*
X19123153Y-17949028D01*
X19170772Y-18044266D01*
X19218391Y-18091885D01*
X19313629Y-18139504D01*
X19551724Y-18139504D01*
X19646962Y-18091885D01*
X19694581Y-18044266D01*
X19742200Y-17949028D01*
X19742200Y-17663314D01*
X19694581Y-17568076D01*
X19646962Y-17520457D01*
X24366457Y-16653782D02*
X24414076Y-16701401D01*
X24556933Y-16749020D01*
X24652171Y-16749020D01*
X24795028Y-16701401D01*
X24890266Y-16606163D01*
X24937885Y-16510925D01*
X24985504Y-16320449D01*
X24985504Y-16177592D01*
X24937885Y-15987116D01*
X24890266Y-15891878D01*
X24795028Y-15796640D01*
X24652171Y-15749020D01*
X24556933Y-15749020D01*
X24414076Y-15796640D01*
X24366457Y-15844259D01*
X23985504Y-15844259D02*
X23937885Y-15796640D01*
X23842647Y-15749020D01*
X23604552Y-15749020D01*
X23509314Y-15796640D01*
X23461695Y-15844259D01*
X23414076Y-15939497D01*
X23414076Y-16034735D01*
X23461695Y-16177592D01*
X24033123Y-16749020D01*
X23414076Y-16749020D01*
X22556933Y-16082354D02*
X22556933Y-16749020D01*
X22795028Y-15701401D02*
X23033123Y-16415687D01*
X22414076Y-16415687D01*
X47785257Y-51500042D02*
X47832876Y-51547661D01*
X47975733Y-51595280D01*
X48070971Y-51595280D01*
X48213828Y-51547661D01*
X48309066Y-51452423D01*
X48356685Y-51357185D01*
X48404304Y-51166709D01*
X48404304Y-51023852D01*
X48356685Y-50833376D01*
X48309066Y-50738138D01*
X48213828Y-50642900D01*
X48070971Y-50595280D01*
X47975733Y-50595280D01*
X47832876Y-50642900D01*
X47785257Y-50690519D01*
X47404304Y-50690519D02*
X47356685Y-50642900D01*
X47261447Y-50595280D01*
X47023352Y-50595280D01*
X46928114Y-50642900D01*
X46880495Y-50690519D01*
X46832876Y-50785757D01*
X46832876Y-50880995D01*
X46880495Y-51023852D01*
X47451923Y-51595280D01*
X46832876Y-51595280D01*
X45975733Y-50595280D02*
X46166209Y-50595280D01*
X46261447Y-50642900D01*
X46309066Y-50690519D01*
X46404304Y-50833376D01*
X46451923Y-51023852D01*
X46451923Y-51404804D01*
X46404304Y-51500042D01*
X46356685Y-51547661D01*
X46261447Y-51595280D01*
X46070971Y-51595280D01*
X45975733Y-51547661D01*
X45928114Y-51500042D01*
X45880495Y-51404804D01*
X45880495Y-51166709D01*
X45928114Y-51071471D01*
X45975733Y-51023852D01*
X46070971Y-50976233D01*
X46261447Y-50976233D01*
X46356685Y-51023852D01*
X46404304Y-51071471D01*
X46451923Y-51166709D01*
X55379857Y-51563542D02*
X55427476Y-51611161D01*
X55570333Y-51658780D01*
X55665571Y-51658780D01*
X55808428Y-51611161D01*
X55903666Y-51515923D01*
X55951285Y-51420685D01*
X55998904Y-51230209D01*
X55998904Y-51087352D01*
X55951285Y-50896876D01*
X55903666Y-50801638D01*
X55808428Y-50706400D01*
X55665571Y-50658780D01*
X55570333Y-50658780D01*
X55427476Y-50706400D01*
X55379857Y-50754019D01*
X54998904Y-50754019D02*
X54951285Y-50706400D01*
X54856047Y-50658780D01*
X54617952Y-50658780D01*
X54522714Y-50706400D01*
X54475095Y-50754019D01*
X54427476Y-50849257D01*
X54427476Y-50944495D01*
X54475095Y-51087352D01*
X55046523Y-51658780D01*
X54427476Y-51658780D01*
X54094142Y-50658780D02*
X53427476Y-50658780D01*
X53856047Y-51658780D01*
X52142857Y-30910742D02*
X52190476Y-30958361D01*
X52333333Y-31005980D01*
X52428571Y-31005980D01*
X52571428Y-30958361D01*
X52666666Y-30863123D01*
X52714285Y-30767885D01*
X52761904Y-30577409D01*
X52761904Y-30434552D01*
X52714285Y-30244076D01*
X52666666Y-30148838D01*
X52571428Y-30053600D01*
X52428571Y-30005980D01*
X52333333Y-30005980D01*
X52190476Y-30053600D01*
X52142857Y-30101219D01*
X51809523Y-30005980D02*
X51190476Y-30005980D01*
X51523809Y-30386933D01*
X51380952Y-30386933D01*
X51285714Y-30434552D01*
X51238095Y-30482171D01*
X51190476Y-30577409D01*
X51190476Y-30815504D01*
X51238095Y-30910742D01*
X51285714Y-30958361D01*
X51380952Y-31005980D01*
X51666666Y-31005980D01*
X51761904Y-30958361D01*
X51809523Y-30910742D01*
X50238095Y-31005980D02*
X50809523Y-31005980D01*
X50523809Y-31005980D02*
X50523809Y-30005980D01*
X50619047Y-30148838D01*
X50714285Y-30244076D01*
X50809523Y-30291695D01*
X47165217Y-24278757D02*
X47117598Y-24326376D01*
X47069979Y-24469233D01*
X47069979Y-24564471D01*
X47117598Y-24707328D01*
X47212836Y-24802566D01*
X47308074Y-24850185D01*
X47498550Y-24897804D01*
X47641407Y-24897804D01*
X47831883Y-24850185D01*
X47927121Y-24802566D01*
X48022360Y-24707328D01*
X48069979Y-24564471D01*
X48069979Y-24469233D01*
X48022360Y-24326376D01*
X47974740Y-24278757D01*
X48069979Y-23945423D02*
X48069979Y-23326376D01*
X47689026Y-23659709D01*
X47689026Y-23516852D01*
X47641407Y-23421614D01*
X47593788Y-23373995D01*
X47498550Y-23326376D01*
X47260455Y-23326376D01*
X47165217Y-23373995D01*
X47117598Y-23421614D01*
X47069979Y-23516852D01*
X47069979Y-23802566D01*
X47117598Y-23897804D01*
X47165217Y-23945423D01*
X47974740Y-22945423D02*
X48022360Y-22897804D01*
X48069979Y-22802566D01*
X48069979Y-22564471D01*
X48022360Y-22469233D01*
X47974740Y-22421614D01*
X47879502Y-22373995D01*
X47784264Y-22373995D01*
X47641407Y-22421614D01*
X47069979Y-22993042D01*
X47069979Y-22373995D01*
X31427657Y-51563542D02*
X31475276Y-51611161D01*
X31618133Y-51658780D01*
X31713371Y-51658780D01*
X31856228Y-51611161D01*
X31951466Y-51515923D01*
X31999085Y-51420685D01*
X32046704Y-51230209D01*
X32046704Y-51087352D01*
X31999085Y-50896876D01*
X31951466Y-50801638D01*
X31856228Y-50706400D01*
X31713371Y-50658780D01*
X31618133Y-50658780D01*
X31475276Y-50706400D01*
X31427657Y-50754019D01*
X31094323Y-50658780D02*
X30475276Y-50658780D01*
X30808609Y-51039733D01*
X30665752Y-51039733D01*
X30570514Y-51087352D01*
X30522895Y-51134971D01*
X30475276Y-51230209D01*
X30475276Y-51468304D01*
X30522895Y-51563542D01*
X30570514Y-51611161D01*
X30665752Y-51658780D01*
X30951466Y-51658780D01*
X31046704Y-51611161D01*
X31094323Y-51563542D01*
X29999085Y-51658780D02*
X29808609Y-51658780D01*
X29713371Y-51611161D01*
X29665752Y-51563542D01*
X29570514Y-51420685D01*
X29522895Y-51230209D01*
X29522895Y-50849257D01*
X29570514Y-50754019D01*
X29618133Y-50706400D01*
X29713371Y-50658780D01*
X29903847Y-50658780D01*
X29999085Y-50706400D01*
X30046704Y-50754019D01*
X30094323Y-50849257D01*
X30094323Y-51087352D01*
X30046704Y-51182590D01*
X29999085Y-51230209D01*
X29903847Y-51277828D01*
X29713371Y-51277828D01*
X29618133Y-51230209D01*
X29570514Y-51182590D01*
X29522895Y-51087352D01*
X31376857Y-56719742D02*
X31424476Y-56767361D01*
X31567333Y-56814980D01*
X31662571Y-56814980D01*
X31805428Y-56767361D01*
X31900666Y-56672123D01*
X31948285Y-56576885D01*
X31995904Y-56386409D01*
X31995904Y-56243552D01*
X31948285Y-56053076D01*
X31900666Y-55957838D01*
X31805428Y-55862600D01*
X31662571Y-55814980D01*
X31567333Y-55814980D01*
X31424476Y-55862600D01*
X31376857Y-55910219D01*
X30519714Y-56148314D02*
X30519714Y-56814980D01*
X30757809Y-55767361D02*
X30995904Y-56481647D01*
X30376857Y-56481647D01*
X29805428Y-55814980D02*
X29710190Y-55814980D01*
X29614952Y-55862600D01*
X29567333Y-55910219D01*
X29519714Y-56005457D01*
X29472095Y-56195933D01*
X29472095Y-56434028D01*
X29519714Y-56624504D01*
X29567333Y-56719742D01*
X29614952Y-56767361D01*
X29710190Y-56814980D01*
X29805428Y-56814980D01*
X29900666Y-56767361D01*
X29948285Y-56719742D01*
X29995904Y-56624504D01*
X30043523Y-56434028D01*
X30043523Y-56195933D01*
X29995904Y-56005457D01*
X29948285Y-55910219D01*
X29900666Y-55862600D01*
X29805428Y-55814980D01*
X30557742Y-85361542D02*
X30605361Y-85313923D01*
X30652980Y-85171066D01*
X30652980Y-85075828D01*
X30605361Y-84932971D01*
X30510123Y-84837733D01*
X30414885Y-84790114D01*
X30224409Y-84742495D01*
X30081552Y-84742495D01*
X29891076Y-84790114D01*
X29795838Y-84837733D01*
X29700600Y-84932971D01*
X29652980Y-85075828D01*
X29652980Y-85171066D01*
X29700600Y-85313923D01*
X29748219Y-85361542D01*
X29986314Y-86218685D02*
X30652980Y-86218685D01*
X29605361Y-85980590D02*
X30319647Y-85742495D01*
X30319647Y-86361542D01*
X30652980Y-87266304D02*
X30652980Y-86694876D01*
X30652980Y-86980590D02*
X29652980Y-86980590D01*
X29795838Y-86885352D01*
X29891076Y-86790114D01*
X29938695Y-86694876D01*
X39109638Y-36931219D02*
X39204876Y-36883600D01*
X39300114Y-36788361D01*
X39442971Y-36645504D01*
X39538209Y-36597885D01*
X39633447Y-36597885D01*
X39585828Y-36835980D02*
X39681066Y-36788361D01*
X39776304Y-36693123D01*
X39823923Y-36502647D01*
X39823923Y-36169314D01*
X39776304Y-35978838D01*
X39681066Y-35883600D01*
X39585828Y-35835980D01*
X39395352Y-35835980D01*
X39300114Y-35883600D01*
X39204876Y-35978838D01*
X39157257Y-36169314D01*
X39157257Y-36502647D01*
X39204876Y-36693123D01*
X39300114Y-36788361D01*
X39395352Y-36835980D01*
X39585828Y-36835980D01*
X38204876Y-36835980D02*
X38776304Y-36835980D01*
X38490590Y-36835980D02*
X38490590Y-35835980D01*
X38585828Y-35978838D01*
X38681066Y-36074076D01*
X38776304Y-36121695D01*
X5124438Y-36829619D02*
X5219676Y-36782000D01*
X5314914Y-36686761D01*
X5457771Y-36543904D01*
X5553009Y-36496285D01*
X5648247Y-36496285D01*
X5600628Y-36734380D02*
X5695866Y-36686761D01*
X5791104Y-36591523D01*
X5838723Y-36401047D01*
X5838723Y-36067714D01*
X5791104Y-35877238D01*
X5695866Y-35782000D01*
X5600628Y-35734380D01*
X5410152Y-35734380D01*
X5314914Y-35782000D01*
X5219676Y-35877238D01*
X5172057Y-36067714D01*
X5172057Y-36401047D01*
X5219676Y-36591523D01*
X5314914Y-36686761D01*
X5410152Y-36734380D01*
X5600628Y-36734380D01*
X4791104Y-35829619D02*
X4743485Y-35782000D01*
X4648247Y-35734380D01*
X4410152Y-35734380D01*
X4314914Y-35782000D01*
X4267295Y-35829619D01*
X4219676Y-35924857D01*
X4219676Y-36020095D01*
X4267295Y-36162952D01*
X4838723Y-36734380D01*
X4219676Y-36734380D01*
X7899660Y-29345593D02*
X7423470Y-29012260D01*
X7899660Y-28774164D02*
X6899660Y-28774164D01*
X6899660Y-29155117D01*
X6947280Y-29250355D01*
X6994899Y-29297974D01*
X7090137Y-29345593D01*
X7232994Y-29345593D01*
X7328232Y-29297974D01*
X7375851Y-29250355D01*
X7423470Y-29155117D01*
X7423470Y-28774164D01*
X7899660Y-30297974D02*
X7899660Y-29726545D01*
X7899660Y-30012260D02*
X6899660Y-30012260D01*
X7042518Y-29917021D01*
X7137756Y-29821783D01*
X7185375Y-29726545D01*
X10534946Y-31468320D02*
X10868280Y-30992130D01*
X11106375Y-31468320D02*
X11106375Y-30468320D01*
X10725422Y-30468320D01*
X10630184Y-30515940D01*
X10582565Y-30563559D01*
X10534946Y-30658797D01*
X10534946Y-30801654D01*
X10582565Y-30896892D01*
X10630184Y-30944511D01*
X10725422Y-30992130D01*
X11106375Y-30992130D01*
X10153994Y-30563559D02*
X10106375Y-30515940D01*
X10011137Y-30468320D01*
X9773041Y-30468320D01*
X9677803Y-30515940D01*
X9630184Y-30563559D01*
X9582565Y-30658797D01*
X9582565Y-30754035D01*
X9630184Y-30896892D01*
X10201613Y-31468320D01*
X9582565Y-31468320D01*
X42151560Y-29414173D02*
X41675370Y-29080840D01*
X42151560Y-28842744D02*
X41151560Y-28842744D01*
X41151560Y-29223697D01*
X41199180Y-29318935D01*
X41246799Y-29366554D01*
X41342037Y-29414173D01*
X41484894Y-29414173D01*
X41580132Y-29366554D01*
X41627751Y-29318935D01*
X41675370Y-29223697D01*
X41675370Y-28842744D01*
X41151560Y-29747506D02*
X41151560Y-30366554D01*
X41532513Y-30033220D01*
X41532513Y-30176078D01*
X41580132Y-30271316D01*
X41627751Y-30318935D01*
X41722989Y-30366554D01*
X41961084Y-30366554D01*
X42056322Y-30318935D01*
X42103941Y-30271316D01*
X42151560Y-30176078D01*
X42151560Y-29890363D01*
X42103941Y-29795125D01*
X42056322Y-29747506D01*
X44268686Y-31818840D02*
X44602020Y-31342650D01*
X44840115Y-31818840D02*
X44840115Y-30818840D01*
X44459162Y-30818840D01*
X44363924Y-30866460D01*
X44316305Y-30914079D01*
X44268686Y-31009317D01*
X44268686Y-31152174D01*
X44316305Y-31247412D01*
X44363924Y-31295031D01*
X44459162Y-31342650D01*
X44840115Y-31342650D01*
X43411543Y-31152174D02*
X43411543Y-31818840D01*
X43649639Y-30771221D02*
X43887734Y-31485507D01*
X43268686Y-31485507D01*
X13755666Y-58514980D02*
X14089000Y-58038790D01*
X14327095Y-58514980D02*
X14327095Y-57514980D01*
X13946142Y-57514980D01*
X13850904Y-57562600D01*
X13803285Y-57610219D01*
X13755666Y-57705457D01*
X13755666Y-57848314D01*
X13803285Y-57943552D01*
X13850904Y-57991171D01*
X13946142Y-58038790D01*
X14327095Y-58038790D01*
X13184238Y-57943552D02*
X13279476Y-57895933D01*
X13327095Y-57848314D01*
X13374714Y-57753076D01*
X13374714Y-57705457D01*
X13327095Y-57610219D01*
X13279476Y-57562600D01*
X13184238Y-57514980D01*
X12993761Y-57514980D01*
X12898523Y-57562600D01*
X12850904Y-57610219D01*
X12803285Y-57705457D01*
X12803285Y-57753076D01*
X12850904Y-57848314D01*
X12898523Y-57895933D01*
X12993761Y-57943552D01*
X13184238Y-57943552D01*
X13279476Y-57991171D01*
X13327095Y-58038790D01*
X13374714Y-58134028D01*
X13374714Y-58324504D01*
X13327095Y-58419742D01*
X13279476Y-58467361D01*
X13184238Y-58514980D01*
X12993761Y-58514980D01*
X12898523Y-58467361D01*
X12850904Y-58419742D01*
X12803285Y-58324504D01*
X12803285Y-58134028D01*
X12850904Y-58038790D01*
X12898523Y-57991171D01*
X12993761Y-57943552D01*
X14153180Y-9720342D02*
X13676990Y-9387009D01*
X14153180Y-9148914D02*
X13153180Y-9148914D01*
X13153180Y-9529866D01*
X13200800Y-9625104D01*
X13248419Y-9672723D01*
X13343657Y-9720342D01*
X13486514Y-9720342D01*
X13581752Y-9672723D01*
X13629371Y-9625104D01*
X13676990Y-9529866D01*
X13676990Y-9148914D01*
X14153180Y-10672723D02*
X14153180Y-10101295D01*
X14153180Y-10387009D02*
X13153180Y-10387009D01*
X13296038Y-10291771D01*
X13391276Y-10196533D01*
X13438895Y-10101295D01*
X14153180Y-11625104D02*
X14153180Y-11053676D01*
X14153180Y-11339390D02*
X13153180Y-11339390D01*
X13296038Y-11244152D01*
X13391276Y-11148914D01*
X13438895Y-11053676D01*
X17698780Y-9669542D02*
X17222590Y-9336209D01*
X17698780Y-9098114D02*
X16698780Y-9098114D01*
X16698780Y-9479066D01*
X16746400Y-9574304D01*
X16794019Y-9621923D01*
X16889257Y-9669542D01*
X17032114Y-9669542D01*
X17127352Y-9621923D01*
X17174971Y-9574304D01*
X17222590Y-9479066D01*
X17222590Y-9098114D01*
X17698780Y-10621923D02*
X17698780Y-10050495D01*
X17698780Y-10336209D02*
X16698780Y-10336209D01*
X16841638Y-10240971D01*
X16936876Y-10145733D01*
X16984495Y-10050495D01*
X16794019Y-11002876D02*
X16746400Y-11050495D01*
X16698780Y-11145733D01*
X16698780Y-11383828D01*
X16746400Y-11479066D01*
X16794019Y-11526685D01*
X16889257Y-11574304D01*
X16984495Y-11574304D01*
X17127352Y-11526685D01*
X17698780Y-10955257D01*
X17698780Y-11574304D01*
X48877457Y-58540380D02*
X49210790Y-58064190D01*
X49448885Y-58540380D02*
X49448885Y-57540380D01*
X49067933Y-57540380D01*
X48972695Y-57588000D01*
X48925076Y-57635619D01*
X48877457Y-57730857D01*
X48877457Y-57873714D01*
X48925076Y-57968952D01*
X48972695Y-58016571D01*
X49067933Y-58064190D01*
X49448885Y-58064190D01*
X47925076Y-58540380D02*
X48496504Y-58540380D01*
X48210790Y-58540380D02*
X48210790Y-57540380D01*
X48306028Y-57683238D01*
X48401266Y-57778476D01*
X48496504Y-57826095D01*
X47448885Y-58540380D02*
X47258409Y-58540380D01*
X47163171Y-58492761D01*
X47115552Y-58445142D01*
X47020314Y-58302285D01*
X46972695Y-58111809D01*
X46972695Y-57730857D01*
X47020314Y-57635619D01*
X47067933Y-57588000D01*
X47163171Y-57540380D01*
X47353647Y-57540380D01*
X47448885Y-57588000D01*
X47496504Y-57635619D01*
X47544123Y-57730857D01*
X47544123Y-57968952D01*
X47496504Y-58064190D01*
X47448885Y-58111809D01*
X47353647Y-58159428D01*
X47163171Y-58159428D01*
X47067933Y-58111809D01*
X47020314Y-58064190D01*
X46972695Y-57968952D01*
X51149080Y-9801342D02*
X50672890Y-9468009D01*
X51149080Y-9229914D02*
X50149080Y-9229914D01*
X50149080Y-9610866D01*
X50196700Y-9706104D01*
X50244319Y-9753723D01*
X50339557Y-9801342D01*
X50482414Y-9801342D01*
X50577652Y-9753723D01*
X50625271Y-9706104D01*
X50672890Y-9610866D01*
X50672890Y-9229914D01*
X50244319Y-10182295D02*
X50196700Y-10229914D01*
X50149080Y-10325152D01*
X50149080Y-10563247D01*
X50196700Y-10658485D01*
X50244319Y-10706104D01*
X50339557Y-10753723D01*
X50434795Y-10753723D01*
X50577652Y-10706104D01*
X51149080Y-10134676D01*
X51149080Y-10753723D01*
X50244319Y-11134676D02*
X50196700Y-11182295D01*
X50149080Y-11277533D01*
X50149080Y-11515628D01*
X50196700Y-11610866D01*
X50244319Y-11658485D01*
X50339557Y-11706104D01*
X50434795Y-11706104D01*
X50577652Y-11658485D01*
X51149080Y-11087057D01*
X51149080Y-11706104D01*
X54750680Y-9801342D02*
X54274490Y-9468009D01*
X54750680Y-9229914D02*
X53750680Y-9229914D01*
X53750680Y-9610866D01*
X53798300Y-9706104D01*
X53845919Y-9753723D01*
X53941157Y-9801342D01*
X54084014Y-9801342D01*
X54179252Y-9753723D01*
X54226871Y-9706104D01*
X54274490Y-9610866D01*
X54274490Y-9229914D01*
X53845919Y-10182295D02*
X53798300Y-10229914D01*
X53750680Y-10325152D01*
X53750680Y-10563247D01*
X53798300Y-10658485D01*
X53845919Y-10706104D01*
X53941157Y-10753723D01*
X54036395Y-10753723D01*
X54179252Y-10706104D01*
X54750680Y-10134676D01*
X54750680Y-10753723D01*
X53750680Y-11087057D02*
X53750680Y-11706104D01*
X54131633Y-11372771D01*
X54131633Y-11515628D01*
X54179252Y-11610866D01*
X54226871Y-11658485D01*
X54322109Y-11706104D01*
X54560204Y-11706104D01*
X54655442Y-11658485D01*
X54703061Y-11610866D01*
X54750680Y-11515628D01*
X54750680Y-11229914D01*
X54703061Y-11134676D01*
X54655442Y-11087057D01*
X32083180Y-13944362D02*
X31606990Y-13611029D01*
X32083180Y-13372934D02*
X31083180Y-13372934D01*
X31083180Y-13753886D01*
X31130800Y-13849124D01*
X31178419Y-13896743D01*
X31273657Y-13944362D01*
X31416514Y-13944362D01*
X31511752Y-13896743D01*
X31559371Y-13849124D01*
X31606990Y-13753886D01*
X31606990Y-13372934D01*
X31178419Y-14325315D02*
X31130800Y-14372934D01*
X31083180Y-14468172D01*
X31083180Y-14706267D01*
X31130800Y-14801505D01*
X31178419Y-14849124D01*
X31273657Y-14896743D01*
X31368895Y-14896743D01*
X31511752Y-14849124D01*
X32083180Y-14277696D01*
X32083180Y-14896743D01*
X31083180Y-15230077D02*
X31083180Y-15896743D01*
X32083180Y-15468172D01*
X34582680Y-33494742D02*
X34106490Y-33161409D01*
X34582680Y-32923314D02*
X33582680Y-32923314D01*
X33582680Y-33304266D01*
X33630300Y-33399504D01*
X33677919Y-33447123D01*
X33773157Y-33494742D01*
X33916014Y-33494742D01*
X34011252Y-33447123D01*
X34058871Y-33399504D01*
X34106490Y-33304266D01*
X34106490Y-32923314D01*
X33677919Y-33875695D02*
X33630300Y-33923314D01*
X33582680Y-34018552D01*
X33582680Y-34256647D01*
X33630300Y-34351885D01*
X33677919Y-34399504D01*
X33773157Y-34447123D01*
X33868395Y-34447123D01*
X34011252Y-34399504D01*
X34582680Y-33828076D01*
X34582680Y-34447123D01*
X34011252Y-35018552D02*
X33963633Y-34923314D01*
X33916014Y-34875695D01*
X33820776Y-34828076D01*
X33773157Y-34828076D01*
X33677919Y-34875695D01*
X33630300Y-34923314D01*
X33582680Y-35018552D01*
X33582680Y-35209028D01*
X33630300Y-35304266D01*
X33677919Y-35351885D01*
X33773157Y-35399504D01*
X33820776Y-35399504D01*
X33916014Y-35351885D01*
X33963633Y-35304266D01*
X34011252Y-35209028D01*
X34011252Y-35018552D01*
X34058871Y-34923314D01*
X34106490Y-34875695D01*
X34201728Y-34828076D01*
X34392204Y-34828076D01*
X34487442Y-34875695D01*
X34535061Y-34923314D01*
X34582680Y-35018552D01*
X34582680Y-35209028D01*
X34535061Y-35304266D01*
X34487442Y-35351885D01*
X34392204Y-35399504D01*
X34201728Y-35399504D01*
X34106490Y-35351885D01*
X34058871Y-35304266D01*
X34011252Y-35209028D01*
X31981580Y-18735142D02*
X31505390Y-18401809D01*
X31981580Y-18163714D02*
X30981580Y-18163714D01*
X30981580Y-18544666D01*
X31029200Y-18639904D01*
X31076819Y-18687523D01*
X31172057Y-18735142D01*
X31314914Y-18735142D01*
X31410152Y-18687523D01*
X31457771Y-18639904D01*
X31505390Y-18544666D01*
X31505390Y-18163714D01*
X31076819Y-19116095D02*
X31029200Y-19163714D01*
X30981580Y-19258952D01*
X30981580Y-19497047D01*
X31029200Y-19592285D01*
X31076819Y-19639904D01*
X31172057Y-19687523D01*
X31267295Y-19687523D01*
X31410152Y-19639904D01*
X31981580Y-19068476D01*
X31981580Y-19687523D01*
X31981580Y-20163714D02*
X31981580Y-20354190D01*
X31933961Y-20449428D01*
X31886342Y-20497047D01*
X31743485Y-20592285D01*
X31553009Y-20639904D01*
X31172057Y-20639904D01*
X31076819Y-20592285D01*
X31029200Y-20544666D01*
X30981580Y-20449428D01*
X30981580Y-20258952D01*
X31029200Y-20163714D01*
X31076819Y-20116095D01*
X31172057Y-20068476D01*
X31410152Y-20068476D01*
X31505390Y-20116095D01*
X31553009Y-20163714D01*
X31600628Y-20258952D01*
X31600628Y-20449428D01*
X31553009Y-20544666D01*
X31505390Y-20592285D01*
X31410152Y-20639904D01*
X27566857Y-42978342D02*
X27614476Y-43025961D01*
X27757333Y-43073580D01*
X27852571Y-43073580D01*
X27995428Y-43025961D01*
X28090666Y-42930723D01*
X28138285Y-42835485D01*
X28185904Y-42645009D01*
X28185904Y-42502152D01*
X28138285Y-42311676D01*
X28090666Y-42216438D01*
X27995428Y-42121200D01*
X27852571Y-42073580D01*
X27757333Y-42073580D01*
X27614476Y-42121200D01*
X27566857Y-42168819D01*
X27233523Y-42073580D02*
X26614476Y-42073580D01*
X26947809Y-42454533D01*
X26804952Y-42454533D01*
X26709714Y-42502152D01*
X26662095Y-42549771D01*
X26614476Y-42645009D01*
X26614476Y-42883104D01*
X26662095Y-42978342D01*
X26709714Y-43025961D01*
X26804952Y-43073580D01*
X27090666Y-43073580D01*
X27185904Y-43025961D01*
X27233523Y-42978342D01*
X26043047Y-42502152D02*
X26138285Y-42454533D01*
X26185904Y-42406914D01*
X26233523Y-42311676D01*
X26233523Y-42264057D01*
X26185904Y-42168819D01*
X26138285Y-42121200D01*
X26043047Y-42073580D01*
X25852571Y-42073580D01*
X25757333Y-42121200D01*
X25709714Y-42168819D01*
X25662095Y-42264057D01*
X25662095Y-42311676D01*
X25709714Y-42406914D01*
X25757333Y-42454533D01*
X25852571Y-42502152D01*
X26043047Y-42502152D01*
X26138285Y-42549771D01*
X26185904Y-42597390D01*
X26233523Y-42692628D01*
X26233523Y-42883104D01*
X26185904Y-42978342D01*
X26138285Y-43025961D01*
X26043047Y-43073580D01*
X25852571Y-43073580D01*
X25757333Y-43025961D01*
X25709714Y-42978342D01*
X25662095Y-42883104D01*
X25662095Y-42692628D01*
X25709714Y-42597390D01*
X25757333Y-42549771D01*
X25852571Y-42502152D01*
X31842995Y-40839980D02*
X31842995Y-39839980D01*
X31604900Y-39839980D01*
X31462042Y-39887600D01*
X31366804Y-39982838D01*
X31319185Y-40078076D01*
X31271566Y-40268552D01*
X31271566Y-40411409D01*
X31319185Y-40601885D01*
X31366804Y-40697123D01*
X31462042Y-40792361D01*
X31604900Y-40839980D01*
X31842995Y-40839980D01*
X30795376Y-40839980D02*
X30604900Y-40839980D01*
X30509661Y-40792361D01*
X30462042Y-40744742D01*
X30366804Y-40601885D01*
X30319185Y-40411409D01*
X30319185Y-40030457D01*
X30366804Y-39935219D01*
X30414423Y-39887600D01*
X30509661Y-39839980D01*
X30700138Y-39839980D01*
X30795376Y-39887600D01*
X30842995Y-39935219D01*
X30890614Y-40030457D01*
X30890614Y-40268552D01*
X30842995Y-40363790D01*
X30795376Y-40411409D01*
X30700138Y-40459028D01*
X30509661Y-40459028D01*
X30414423Y-40411409D01*
X30366804Y-40363790D01*
X30319185Y-40268552D01*
X18642857Y-42052580D02*
X18976190Y-41576390D01*
X19214285Y-42052580D02*
X19214285Y-41052580D01*
X18833333Y-41052580D01*
X18738095Y-41100200D01*
X18690476Y-41147819D01*
X18642857Y-41243057D01*
X18642857Y-41385914D01*
X18690476Y-41481152D01*
X18738095Y-41528771D01*
X18833333Y-41576390D01*
X19214285Y-41576390D01*
X17785714Y-41385914D02*
X17785714Y-42052580D01*
X18023809Y-41004961D02*
X18261904Y-41719247D01*
X17642857Y-41719247D01*
X16833333Y-41385914D02*
X16833333Y-42052580D01*
X17071428Y-41004961D02*
X17309523Y-41719247D01*
X16690476Y-41719247D01*
X52630157Y-42090680D02*
X52963490Y-41614490D01*
X53201585Y-42090680D02*
X53201585Y-41090680D01*
X52820633Y-41090680D01*
X52725395Y-41138300D01*
X52677776Y-41185919D01*
X52630157Y-41281157D01*
X52630157Y-41424014D01*
X52677776Y-41519252D01*
X52725395Y-41566871D01*
X52820633Y-41614490D01*
X53201585Y-41614490D01*
X51773014Y-41424014D02*
X51773014Y-42090680D01*
X52011109Y-41043061D02*
X52249204Y-41757347D01*
X51630157Y-41757347D01*
X50773014Y-41090680D02*
X51249204Y-41090680D01*
X51296823Y-41566871D01*
X51249204Y-41519252D01*
X51153966Y-41471633D01*
X50915871Y-41471633D01*
X50820633Y-41519252D01*
X50773014Y-41566871D01*
X50725395Y-41662109D01*
X50725395Y-41900204D01*
X50773014Y-41995442D01*
X50820633Y-42043061D01*
X50915871Y-42090680D01*
X51153966Y-42090680D01*
X51249204Y-42043061D01*
X51296823Y-41995442D01*
X19975580Y-3526466D02*
X20689866Y-3526466D01*
X20832723Y-3478847D01*
X20927961Y-3383609D01*
X20975580Y-3240752D01*
X20975580Y-3145514D01*
X20308914Y-4431228D02*
X20975580Y-4431228D01*
X19927961Y-4193133D02*
X20642247Y-3955038D01*
X20642247Y-4574085D01*
X13727180Y-3691566D02*
X14441466Y-3691566D01*
X14584323Y-3643947D01*
X14679561Y-3548709D01*
X14727180Y-3405852D01*
X14727180Y-3310614D01*
X13727180Y-4596328D02*
X13727180Y-4405852D01*
X13774800Y-4310614D01*
X13822419Y-4262995D01*
X13965276Y-4167757D01*
X14155752Y-4120138D01*
X14536704Y-4120138D01*
X14631942Y-4167757D01*
X14679561Y-4215376D01*
X14727180Y-4310614D01*
X14727180Y-4501090D01*
X14679561Y-4596328D01*
X14631942Y-4643947D01*
X14536704Y-4691566D01*
X14298609Y-4691566D01*
X14203371Y-4643947D01*
X14155752Y-4596328D01*
X14108133Y-4501090D01*
X14108133Y-4310614D01*
X14155752Y-4215376D01*
X14203371Y-4167757D01*
X14298609Y-4120138D01*
X40910780Y-3704266D02*
X41625066Y-3704266D01*
X41767923Y-3656647D01*
X41863161Y-3561409D01*
X41910780Y-3418552D01*
X41910780Y-3323314D01*
X40910780Y-4085219D02*
X40910780Y-4751885D01*
X41910780Y-4323314D01*
X35057580Y-3551866D02*
X35771866Y-3551866D01*
X35914723Y-3504247D01*
X36009961Y-3409009D01*
X36057580Y-3266152D01*
X36057580Y-3170914D01*
X35486152Y-4170914D02*
X35438533Y-4075676D01*
X35390914Y-4028057D01*
X35295676Y-3980438D01*
X35248057Y-3980438D01*
X35152819Y-4028057D01*
X35105200Y-4075676D01*
X35057580Y-4170914D01*
X35057580Y-4361390D01*
X35105200Y-4456628D01*
X35152819Y-4504247D01*
X35248057Y-4551866D01*
X35295676Y-4551866D01*
X35390914Y-4504247D01*
X35438533Y-4456628D01*
X35486152Y-4361390D01*
X35486152Y-4170914D01*
X35533771Y-4075676D01*
X35581390Y-4028057D01*
X35676628Y-3980438D01*
X35867104Y-3980438D01*
X35962342Y-4028057D01*
X36009961Y-4075676D01*
X36057580Y-4170914D01*
X36057580Y-4361390D01*
X36009961Y-4456628D01*
X35962342Y-4504247D01*
X35867104Y-4551866D01*
X35676628Y-4551866D01*
X35581390Y-4504247D01*
X35533771Y-4456628D01*
X35486152Y-4361390D01*
M02*
