G04 #@! TF.GenerationSoftware,KiCad,Pcbnew,no-vcs-found-b05a40e~61~ubuntu17.10.1*
G04 #@! TF.CreationDate,2017-12-27T10:39:54-05:00*
G04 #@! TF.ProjectId,ENNOID Dual Gate Driver,454E4E4F4944204475616C2047617465,rev?*
G04 #@! TF.SameCoordinates,Original*
G04 #@! TF.FileFunction,Copper,L1,Top,Signal*
G04 #@! TF.FilePolarity,Positive*
%FSLAX46Y46*%
G04 Gerber Fmt 4.6, Leading zero omitted, Abs format (unit mm)*
G04 Created by KiCad (PCBNEW no-vcs-found-b05a40e~61~ubuntu17.10.1) date Wed Dec 27 10:39:54 2017*
%MOMM*%
%LPD*%
G01*
G04 APERTURE LIST*
%ADD10C,3.800000*%
%ADD11R,2.500000X2.000000*%
%ADD12R,1.300000X1.500000*%
%ADD13R,2.000000X2.500000*%
%ADD14R,1.500000X1.250000*%
%ADD15R,1.250000X1.500000*%
%ADD16R,1.200000X0.900000*%
%ADD17R,0.900000X1.200000*%
%ADD18O,2.200000X2.200000*%
%ADD19R,2.200000X2.200000*%
%ADD20O,2.600000X2.000000*%
%ADD21R,2.600000X2.000000*%
%ADD22R,1.500000X1.300000*%
%ADD23R,2.600000X2.100000*%
%ADD24R,1.800000X3.500000*%
%ADD25R,0.600000X1.500000*%
%ADD26R,3.050000X2.750000*%
%ADD27R,6.400000X5.800000*%
%ADD28R,2.200000X1.200000*%
%ADD29C,3.000000*%
%ADD30R,0.640000X1.905000*%
%ADD31C,1.700000*%
%ADD32R,1.700000X1.700000*%
%ADD33R,0.950000X1.250000*%
%ADD34O,1.500000X1.500000*%
%ADD35R,1.500000X1.500000*%
%ADD36R,0.600000X1.550000*%
%ADD37R,1.175000X1.175000*%
%ADD38C,0.800000*%
%ADD39C,0.250000*%
%ADD40C,1.000000*%
%ADD41C,2.000000*%
%ADD42C,3.000000*%
%ADD43C,0.254000*%
G04 APERTURE END LIST*
D10*
X30000000Y-3000000D03*
X5000000Y-93000000D03*
D11*
X38963600Y-20402800D03*
X38963600Y-24402800D03*
D12*
X13500000Y-78150000D03*
X13500000Y-80850000D03*
D13*
X52279300Y-67995800D03*
X48279300Y-67995800D03*
D14*
X48026000Y-70561200D03*
X50526000Y-70561200D03*
X48076800Y-79768700D03*
X50576800Y-79768700D03*
X50576800Y-81762600D03*
X48076800Y-81762600D03*
D15*
X12598400Y-38250000D03*
X12598400Y-40750000D03*
D14*
X19250000Y-40000000D03*
X16750000Y-40000000D03*
X24250000Y-40000000D03*
X21750000Y-40000000D03*
X18663600Y-8676640D03*
X21163600Y-8676640D03*
D15*
X46583600Y-38250000D03*
X46583600Y-40750000D03*
D14*
X53250000Y-40000000D03*
X50750000Y-40000000D03*
X58250000Y-40000000D03*
X55750000Y-40000000D03*
D15*
X41452800Y-22168800D03*
X41452800Y-24668800D03*
X43332400Y-22168800D03*
X43332400Y-24668800D03*
D14*
X39453500Y-10871200D03*
X41953500Y-10871200D03*
D15*
X34112200Y-36750000D03*
X34112200Y-39250000D03*
X45636180Y-79443260D03*
X45636180Y-81943260D03*
D14*
X46273400Y-86334600D03*
X48773400Y-86334600D03*
D16*
X12242800Y-31827200D03*
X12242800Y-35127200D03*
X46177200Y-34974800D03*
X46177200Y-31674800D03*
D17*
X24650000Y-37500000D03*
X21350000Y-37500000D03*
D18*
X2500000Y-23200000D03*
D19*
X2500000Y-10500000D03*
D16*
X2540000Y-4649200D03*
X2540000Y-7949200D03*
D17*
X58650000Y-37500000D03*
X55350000Y-37500000D03*
D19*
X30000000Y-10500000D03*
D18*
X30000000Y-23200000D03*
D17*
X24969200Y-7924800D03*
X28269200Y-7924800D03*
D20*
X11544300Y-95872300D03*
X11544300Y-93332300D03*
X11544300Y-90792300D03*
D21*
X11544300Y-88252300D03*
D20*
X48488600Y-95758000D03*
D21*
X48488600Y-93218000D03*
D12*
X15011400Y-59084200D03*
X15011400Y-56384200D03*
X18821400Y-59058800D03*
X18821400Y-56358800D03*
X16916400Y-56358800D03*
X16916400Y-59058800D03*
D22*
X5214600Y-25679400D03*
X2514600Y-25679400D03*
D23*
X12783600Y-13099600D03*
X12783600Y-17999600D03*
X16283600Y-17999600D03*
X16283600Y-13099600D03*
D22*
X21263600Y-10566400D03*
X18563600Y-10566400D03*
D12*
X9000000Y-80850000D03*
X9000000Y-78150000D03*
X49580800Y-56511200D03*
X49580800Y-59211200D03*
X53517800Y-56485800D03*
X53517800Y-59185800D03*
X51587400Y-56485800D03*
X51587400Y-59185800D03*
X30000000Y-25650000D03*
X30000000Y-28350000D03*
D23*
X54275200Y-13201200D03*
X54275200Y-18101200D03*
X50775200Y-18101200D03*
X50775200Y-13201200D03*
D22*
X42078900Y-8966200D03*
X39378900Y-8966200D03*
D12*
X32117600Y-39350000D03*
X32117600Y-36650000D03*
X30117600Y-36650000D03*
X30117600Y-39350000D03*
D22*
X48873400Y-90144600D03*
X46173400Y-90144600D03*
X48873400Y-88239600D03*
X46173400Y-88239600D03*
D24*
X9245600Y-16651600D03*
X9245600Y-21651600D03*
X57912000Y-21753200D03*
X57912000Y-16753200D03*
D12*
X13500000Y-73150000D03*
X13500000Y-75850000D03*
X9000000Y-75850000D03*
X9000000Y-73150000D03*
X41503600Y-86440000D03*
X41503600Y-83740000D03*
X4500000Y-78150000D03*
X4500000Y-80850000D03*
D25*
X21445000Y-52650000D03*
X20175000Y-52650000D03*
X18905000Y-52650000D03*
X17635000Y-52650000D03*
X16365000Y-52650000D03*
X15095000Y-52650000D03*
X13825000Y-52650000D03*
X12555000Y-52650000D03*
X12555000Y-43350000D03*
X13825000Y-43350000D03*
X15095000Y-43350000D03*
X16365000Y-43350000D03*
X17635000Y-43350000D03*
X18905000Y-43350000D03*
X20175000Y-43350000D03*
X21445000Y-43350000D03*
X55445000Y-43350000D03*
X54175000Y-43350000D03*
X52905000Y-43350000D03*
X51635000Y-43350000D03*
X50365000Y-43350000D03*
X49095000Y-43350000D03*
X47825000Y-43350000D03*
X46555000Y-43350000D03*
X46555000Y-52650000D03*
X47825000Y-52650000D03*
X49095000Y-52650000D03*
X50365000Y-52650000D03*
X51635000Y-52650000D03*
X52905000Y-52650000D03*
X54175000Y-52650000D03*
X55445000Y-52650000D03*
D26*
X53053800Y-76686200D03*
X56403800Y-73636200D03*
X53053800Y-73636200D03*
X56403800Y-76686200D03*
D27*
X54728800Y-75161200D03*
D28*
X48428800Y-77441200D03*
X48428800Y-75161200D03*
X48428800Y-72881200D03*
D29*
X22500000Y-5830000D03*
X22500000Y-2170000D03*
X8500000Y-5830000D03*
X8500000Y-2170000D03*
X16500000Y-5830000D03*
X16500000Y-2170000D03*
X43500000Y-5830000D03*
X43500000Y-2170000D03*
X37500000Y-2170000D03*
X37500000Y-5830000D03*
D30*
X32689800Y-42652500D03*
X31419800Y-42652500D03*
X30149800Y-42652500D03*
X28879800Y-42652500D03*
X28879800Y-53347500D03*
X30149800Y-53347500D03*
X31419800Y-53347500D03*
X32689800Y-53347500D03*
D31*
X38887400Y-91478100D03*
X38887400Y-94018100D03*
X36347400Y-91478100D03*
X36347400Y-94018100D03*
X33807400Y-91478100D03*
X33807400Y-94018100D03*
X31267400Y-91478100D03*
X31267400Y-94018100D03*
X28727400Y-91478100D03*
X28727400Y-94018100D03*
X26187400Y-91478100D03*
X26187400Y-94018100D03*
X23647400Y-91478100D03*
X23647400Y-94018100D03*
X21107400Y-91478100D03*
D32*
X21107400Y-94018100D03*
D33*
X5400800Y-64732000D03*
X7400800Y-64732000D03*
X7400800Y-59982000D03*
X5400800Y-59982000D03*
X39563800Y-60058200D03*
X41563800Y-60058200D03*
X41563800Y-64808200D03*
X39563800Y-64808200D03*
D34*
X3000000Y-39760000D03*
X3000000Y-42300000D03*
X3000000Y-44840000D03*
X3000000Y-52460000D03*
D35*
X3000000Y-55000000D03*
D34*
X37000000Y-39760000D03*
X37000000Y-42300000D03*
X37000000Y-44840000D03*
X37000000Y-52460000D03*
D35*
X37000000Y-55000000D03*
D36*
X14985400Y-29483600D03*
X16255400Y-29483600D03*
X17525400Y-29483600D03*
X18795400Y-29483600D03*
X18795400Y-24083600D03*
X17525400Y-24083600D03*
X16255400Y-24083600D03*
X14985400Y-24083600D03*
D37*
X17477900Y-26196100D03*
X16302900Y-26196100D03*
X17477900Y-27371100D03*
X16302900Y-27371100D03*
D36*
X49595000Y-29178800D03*
X50865000Y-29178800D03*
X52135000Y-29178800D03*
X53405000Y-29178800D03*
X53405000Y-23778800D03*
X52135000Y-23778800D03*
X50865000Y-23778800D03*
X49595000Y-23778800D03*
D37*
X52087500Y-25891300D03*
X50912500Y-25891300D03*
X52087500Y-27066300D03*
X50912500Y-27066300D03*
D12*
X4500000Y-75850000D03*
X4500000Y-73150000D03*
D10*
X55000000Y-93000000D03*
D38*
X49098200Y-54508400D03*
X55067200Y-55295800D03*
X54350582Y-54147982D03*
X47825000Y-54178200D03*
X15011400Y-69900800D03*
X11023600Y-79070200D03*
X18491200Y-50901600D03*
X50368200Y-54533800D03*
X45897800Y-54508400D03*
X28879800Y-56261000D03*
X11277600Y-53467000D03*
X21463000Y-54229000D03*
X54991000Y-59182000D03*
X32689800Y-56261000D03*
X45720000Y-76733400D03*
X46634400Y-76758800D03*
X46634400Y-77698600D03*
X13462000Y-82753200D03*
X8966200Y-82753200D03*
X4521200Y-82753200D03*
X20052190Y-59055000D03*
X20167600Y-54229000D03*
X45694600Y-77698600D03*
X44678600Y-88239600D03*
X14173200Y-54381400D03*
X13639800Y-57937400D03*
X15036800Y-61366400D03*
X15036800Y-82753200D03*
X49580800Y-63296800D03*
X11836400Y-85471000D03*
X18872198Y-67716400D03*
X18872200Y-54254400D03*
X30175200Y-59131200D03*
X23647400Y-78562200D03*
X31419800Y-59156600D03*
X24917400Y-78562200D03*
X45847000Y-70688200D03*
X45847000Y-71755000D03*
X45847000Y-72847200D03*
X51587400Y-54533800D03*
X17678400Y-67767198D03*
X17678400Y-54305200D03*
X16078200Y-67767200D03*
X16510000Y-54305200D03*
X39598600Y-67259200D03*
X5410200Y-67208400D03*
X42951400Y-82245200D03*
X41986200Y-82245200D03*
X40995600Y-82245200D03*
X40005000Y-82245200D03*
X31800800Y-82473800D03*
X33680400Y-82448400D03*
X15113000Y-31470600D03*
X15113000Y-32334200D03*
X15113000Y-33223200D03*
X17272000Y-33223200D03*
X17272000Y-32334200D03*
X17272000Y-31445200D03*
X24892000Y-16433800D03*
X24028400Y-16433800D03*
X23164800Y-16433800D03*
X22301200Y-16433800D03*
X19100800Y-17907000D03*
X19964400Y-17907000D03*
X20828000Y-17907000D03*
X21691600Y-17881600D03*
X13944600Y-29972000D03*
X13944600Y-28981400D03*
X19761200Y-29972000D03*
X19761200Y-28981400D03*
X7315200Y-29438600D03*
X12750800Y-20726400D03*
X11887200Y-20726400D03*
X55372000Y-21132800D03*
X54457600Y-21132800D03*
X13157200Y-23672806D03*
X13157200Y-24638000D03*
X19862800Y-24587200D03*
X19862800Y-23571200D03*
X11023600Y-36525200D03*
X24790400Y-13157200D03*
X22402800Y-43332400D03*
X11531600Y-43332400D03*
X16713200Y-37947600D03*
X44145200Y-26111200D03*
X43230800Y-26111200D03*
X42316400Y-26111200D03*
X41402000Y-26111200D03*
X40487600Y-26162000D03*
X39573200Y-26162000D03*
X38658800Y-26162000D03*
X37744400Y-26162000D03*
X30124400Y-35052000D03*
X48209200Y-28752800D03*
X48209200Y-29667200D03*
X47701200Y-24333200D03*
X47701200Y-23418800D03*
X54711600Y-29718000D03*
X55270400Y-24231600D03*
X55270400Y-23317200D03*
X54711600Y-28803600D03*
X45059600Y-36677600D03*
X56489600Y-43383200D03*
X45516800Y-43383200D03*
X50749200Y-37998400D03*
X6248400Y-36017200D03*
X20015200Y-38404800D03*
X40487600Y-36118800D03*
X54000400Y-38455600D03*
X33477200Y-40893996D03*
X41808400Y-28752800D03*
X31394398Y-40894000D03*
X29718000Y-40843200D03*
X15087600Y-39979600D03*
X17627600Y-41757600D03*
X51663600Y-41706800D03*
X49123600Y-40081200D03*
D39*
X49098200Y-54508400D02*
X49098200Y-52653200D01*
X49098200Y-52653200D02*
X49095000Y-52650000D01*
X54175000Y-53972400D02*
X54350582Y-54147982D01*
X54175000Y-52650000D02*
X54175000Y-53972400D01*
X32689800Y-53347500D02*
X32689800Y-56261000D01*
X47825000Y-54178200D02*
X47825000Y-55655400D01*
X47825000Y-52650000D02*
X47825000Y-54178200D01*
X15036800Y-73279000D02*
X15036800Y-69926200D01*
X15036800Y-82753200D02*
X15036800Y-73279000D01*
X15036800Y-69926200D02*
X15011400Y-69900800D01*
X8500000Y-5830000D02*
X8500000Y-2170000D01*
X18472199Y-68116399D02*
X18872198Y-67716400D01*
X17412800Y-69175798D02*
X18472199Y-68116399D01*
X13500000Y-73150000D02*
X13500000Y-70339196D01*
X13500000Y-70339196D02*
X14663398Y-69175798D01*
X14663398Y-69175798D02*
X17412800Y-69175798D01*
X11023600Y-74273600D02*
X11023600Y-78504515D01*
X11023600Y-78504515D02*
X11023600Y-79070200D01*
X9900000Y-73150000D02*
X11023600Y-74273600D01*
X14324213Y-68725787D02*
X16719811Y-68725787D01*
X17278401Y-68167197D02*
X17678400Y-67767198D01*
X16719811Y-68725787D02*
X17278401Y-68167197D01*
X9900000Y-73150000D02*
X14324213Y-68725787D01*
X17663400Y-50901600D02*
X16365000Y-52200000D01*
X16365000Y-52200000D02*
X16365000Y-52650000D01*
X18491200Y-50901600D02*
X17663400Y-50901600D01*
X54987200Y-59185800D02*
X54991000Y-59182000D01*
X53517800Y-59185800D02*
X54987200Y-59185800D01*
X51587400Y-59185800D02*
X53517800Y-59185800D01*
D40*
X48076800Y-79768700D02*
X47764700Y-79768700D01*
X47764700Y-79768700D02*
X45694600Y-77698600D01*
X48076800Y-79768700D02*
X48076800Y-79141000D01*
X48076800Y-79141000D02*
X46634400Y-77698600D01*
X48428800Y-77441200D02*
X47638240Y-77441200D01*
X47638240Y-77441200D02*
X45636180Y-79443260D01*
X45636180Y-79443260D02*
X47751360Y-79443260D01*
X47751360Y-79443260D02*
X48076800Y-79768700D01*
X48076800Y-81762600D02*
X48076800Y-79768700D01*
X46634400Y-77698600D02*
X46634400Y-78445040D01*
X46634400Y-78445040D02*
X45636180Y-79443260D01*
X45636180Y-79443260D02*
X45636180Y-77757020D01*
X48076800Y-79768700D02*
X48076800Y-77793200D01*
X48076800Y-77793200D02*
X48428800Y-77441200D01*
X45720000Y-76733400D02*
X46609000Y-76733400D01*
X46609000Y-76733400D02*
X46634400Y-76758800D01*
X46634400Y-76758800D02*
X46634400Y-77698600D01*
X45694600Y-77698600D02*
X46634400Y-77698600D01*
X45720000Y-76733400D02*
X45720000Y-77673200D01*
X45720000Y-77673200D02*
X45694600Y-77698600D01*
X46634400Y-76758800D02*
X47746400Y-76758800D01*
X47746400Y-76758800D02*
X48428800Y-77441200D01*
D39*
X18821400Y-59058800D02*
X16916400Y-59058800D01*
X13500000Y-82715200D02*
X13462000Y-82753200D01*
X13500000Y-80850000D02*
X13500000Y-82715200D01*
X9000000Y-82719400D02*
X8966200Y-82753200D01*
X9000000Y-80850000D02*
X9000000Y-82719400D01*
X4500000Y-82732000D02*
X4521200Y-82753200D01*
X4500000Y-80850000D02*
X4500000Y-82732000D01*
X18821400Y-59058800D02*
X20048390Y-59058800D01*
X20048390Y-59058800D02*
X20052190Y-59055000D01*
X20175000Y-54221600D02*
X20167600Y-54229000D01*
X20175000Y-52650000D02*
X20175000Y-54221600D01*
X45636180Y-77757020D02*
X45694600Y-77698600D01*
X46173400Y-88239600D02*
X44678600Y-88239600D01*
D41*
X3000000Y-55000000D02*
X3000000Y-57581200D01*
X3000000Y-57581200D02*
X5400800Y-59982000D01*
X4060660Y-52460000D02*
X7600808Y-56000148D01*
X3000000Y-52460000D02*
X4060660Y-52460000D01*
X7600808Y-56000148D02*
X7600808Y-59982000D01*
X37000000Y-55000000D02*
X37000000Y-57494400D01*
X37000000Y-57494400D02*
X39563800Y-60058200D01*
X38060660Y-52460000D02*
X41763808Y-56163148D01*
X37000000Y-52460000D02*
X38060660Y-52460000D01*
X41763808Y-56163148D02*
X41763808Y-60058200D01*
D39*
X15011400Y-56384200D02*
X15011400Y-55219600D01*
X15011400Y-55219600D02*
X14173200Y-54381400D01*
X14173200Y-54381400D02*
X14173200Y-52998200D01*
X14173200Y-52998200D02*
X13825000Y-52650000D01*
X13639800Y-57937400D02*
X13639800Y-57755800D01*
X13639800Y-57755800D02*
X15011400Y-56384200D01*
X47825000Y-55655400D02*
X48680800Y-56511200D01*
X48680800Y-56511200D02*
X49580800Y-56511200D01*
X15036800Y-61366400D02*
X15036800Y-59109600D01*
X15036800Y-59109600D02*
X15011400Y-59084200D01*
X49580800Y-59211200D02*
X49580800Y-63296800D01*
X48873400Y-90144600D02*
X48873400Y-92833200D01*
X48873400Y-92833200D02*
X48488600Y-93218000D01*
X48873400Y-90144600D02*
X48873400Y-88239600D01*
X48773400Y-86334600D02*
X48773400Y-88139600D01*
X48773400Y-88139600D02*
X48873400Y-88239600D01*
X40926600Y-96291400D02*
X33540700Y-96291400D01*
X33540700Y-96291400D02*
X31267400Y-94018100D01*
X46173400Y-90144600D02*
X46173400Y-91044600D01*
X46173400Y-91044600D02*
X40926600Y-96291400D01*
X18905000Y-51650000D02*
X19420010Y-51134990D01*
X52481190Y-51134990D02*
X52905000Y-51558800D01*
X18905000Y-52650000D02*
X18905000Y-51650000D01*
X19420010Y-51134990D02*
X52481190Y-51134990D01*
X52905000Y-51558800D02*
X52905000Y-52650000D01*
X11836400Y-73913600D02*
X12600000Y-73150000D01*
X11836400Y-85471000D02*
X11836400Y-73913600D01*
X12600000Y-73150000D02*
X13500000Y-73150000D01*
X18872200Y-54254400D02*
X18872200Y-52682800D01*
X18872200Y-52682800D02*
X18905000Y-52650000D01*
X30175200Y-59131200D02*
X30175200Y-53372900D01*
X30175200Y-53372900D02*
X30149800Y-53347500D01*
X23647400Y-91478100D02*
X23647400Y-78562200D01*
X31419800Y-53347500D02*
X31419800Y-59156600D01*
X24917400Y-92748100D02*
X24917400Y-79127885D01*
X24917400Y-79127885D02*
X24917400Y-78562200D01*
X23647400Y-94018100D02*
X24917400Y-92748100D01*
X31292800Y-53474500D02*
X31419800Y-53347500D01*
X13500000Y-75850000D02*
X13500000Y-78150000D01*
X9000000Y-75850000D02*
X9000000Y-78150000D01*
X4500000Y-75850000D02*
X4500000Y-78150000D01*
D41*
X48428800Y-72881200D02*
X48428800Y-68145300D01*
X48428800Y-68145300D02*
X48279300Y-67995800D01*
X45847000Y-72847200D02*
X45847000Y-72740200D01*
X45847000Y-72740200D02*
X48026000Y-70561200D01*
X45847000Y-72847200D02*
X48394800Y-72847200D01*
X48394800Y-72847200D02*
X48428800Y-72881200D01*
X45847000Y-72847200D02*
X45847000Y-70428100D01*
X45847000Y-70428100D02*
X48279300Y-67995800D01*
D39*
X51635000Y-54175000D02*
X52945800Y-55485800D01*
X52945800Y-55485800D02*
X53225200Y-55485800D01*
X51635000Y-52650000D02*
X51635000Y-54175000D01*
X53225200Y-55485800D02*
X53517800Y-55778400D01*
X53517800Y-55778400D02*
X53517800Y-56485800D01*
X51587400Y-54533800D02*
X51587400Y-52697600D01*
X51587400Y-52697600D02*
X51635000Y-52650000D01*
X9000000Y-73150000D02*
X9900000Y-73150000D01*
X17635000Y-54084000D02*
X18643600Y-55092600D01*
X17635000Y-52650000D02*
X17635000Y-54084000D01*
X18643600Y-55092600D02*
X18643600Y-56081000D01*
X18643600Y-56081000D02*
X18821400Y-56258800D01*
X18821400Y-56258800D02*
X18821400Y-56358800D01*
X50365000Y-54606800D02*
X51130200Y-55372000D01*
X50365000Y-52650000D02*
X50365000Y-54606800D01*
X51130200Y-55372000D02*
X51130200Y-55928600D01*
X51130200Y-55928600D02*
X51587400Y-56385800D01*
X51587400Y-56385800D02*
X51587400Y-56485800D01*
X5400000Y-73150000D02*
X10427200Y-68122800D01*
X4500000Y-73150000D02*
X5400000Y-73150000D01*
X15722600Y-68122800D02*
X16078200Y-67767200D01*
X10427200Y-68122800D02*
X15722600Y-68122800D01*
X16510000Y-52795000D02*
X16510000Y-54559200D01*
X16365000Y-52650000D02*
X16510000Y-52795000D01*
X16510000Y-54559200D02*
X17043400Y-55092600D01*
X17043400Y-55092600D02*
X17043400Y-56231800D01*
X17043400Y-56231800D02*
X16916400Y-56358800D01*
D41*
X39573200Y-67233800D02*
X39573200Y-64817600D01*
X39598600Y-67259200D02*
X39573200Y-67233800D01*
X39573200Y-64817600D02*
X39563800Y-64808200D01*
X5410200Y-67208400D02*
X5410200Y-64741400D01*
X5410200Y-64741400D02*
X5400800Y-64732000D01*
X40005000Y-82245200D02*
X42951400Y-82245200D01*
X41503600Y-83740000D02*
X41503600Y-83693000D01*
X41503600Y-83693000D02*
X42951400Y-82245200D01*
X41503600Y-83740000D02*
X41499800Y-83740000D01*
X41499800Y-83740000D02*
X40005000Y-82245200D01*
D40*
X13944600Y-29972000D02*
X13944600Y-28981400D01*
X13944600Y-29972000D02*
X14497000Y-29972000D01*
X14497000Y-29972000D02*
X14985400Y-29483600D01*
X13944600Y-28981400D02*
X14483200Y-28981400D01*
X14483200Y-28981400D02*
X14985400Y-29483600D01*
X19761200Y-29972000D02*
X19283800Y-29972000D01*
X19283800Y-29972000D02*
X18795400Y-29483600D01*
X19761200Y-28981400D02*
X19297600Y-28981400D01*
X19297600Y-28981400D02*
X18795400Y-29483600D01*
D39*
X5214600Y-25679400D02*
X5214600Y-34983400D01*
X5214600Y-34983400D02*
X6248400Y-36017200D01*
D40*
X12242800Y-31827200D02*
X9703800Y-31827200D01*
X9703800Y-31827200D02*
X7315200Y-29438600D01*
D39*
X2514600Y-25679400D02*
X2514600Y-23214600D01*
X2514600Y-23214600D02*
X2500000Y-23200000D01*
D41*
X40089481Y-94018100D02*
X41503600Y-92603981D01*
X38887400Y-94018100D02*
X40089481Y-94018100D01*
X41503600Y-92603981D02*
X41503600Y-89190000D01*
X41503600Y-89190000D02*
X41503600Y-86440000D01*
X36347400Y-94018100D02*
X38887400Y-94018100D01*
X11887200Y-20726400D02*
X10170800Y-20726400D01*
X10170800Y-20726400D02*
X9245600Y-21651600D01*
X12750800Y-20726400D02*
X11887200Y-20726400D01*
D40*
X20658900Y-26196100D02*
X20658900Y-27296300D01*
X20658900Y-27296300D02*
X20584100Y-27371100D01*
D41*
X54457600Y-21132800D02*
X55372000Y-21132800D01*
X55372000Y-21132800D02*
X57291600Y-21132800D01*
X57291600Y-21132800D02*
X57912000Y-21753200D01*
D40*
X18237200Y-27371100D02*
X18948400Y-27371100D01*
X17477900Y-27371100D02*
X18237200Y-27371100D01*
X17477900Y-26196100D02*
X18237200Y-26196100D01*
X18237200Y-26196100D02*
X18999200Y-26196100D01*
X18237200Y-27371100D02*
X18237200Y-26196100D01*
X19913600Y-27371100D02*
X20584100Y-27371100D01*
X18999200Y-26196100D02*
X19812000Y-26196100D01*
X18948400Y-27371100D02*
X19913600Y-27371100D01*
X19812000Y-26196100D02*
X20658900Y-26196100D01*
X19913600Y-26297700D02*
X19812000Y-26196100D01*
X19913600Y-27371100D02*
X19913600Y-26297700D01*
X18948400Y-27371100D02*
X18948400Y-26246900D01*
X18948400Y-26246900D02*
X18999200Y-26196100D01*
X16302900Y-27371100D02*
X15890400Y-27371100D01*
X15890400Y-27371100D02*
X14715400Y-26196100D01*
X13167300Y-26771600D02*
X13167300Y-26202700D01*
X16302900Y-26196100D02*
X14715400Y-26196100D01*
X13167300Y-27371100D02*
X13167300Y-26771600D01*
X14715400Y-26196100D02*
X14139900Y-26771600D01*
X14139900Y-26771600D02*
X13167300Y-26771600D01*
X13167300Y-26202700D02*
X13173900Y-26196100D01*
X16302900Y-27371100D02*
X13167300Y-27371100D01*
X16302900Y-26196100D02*
X13173900Y-26196100D01*
X52087500Y-27066300D02*
X56144100Y-27066300D01*
X56144100Y-27066300D02*
X56184800Y-27025600D01*
X56201500Y-26466800D02*
X56201500Y-25891300D01*
X56201500Y-27042300D02*
X56201500Y-26466800D01*
X50912500Y-25891300D02*
X52500000Y-25891300D01*
X52500000Y-25891300D02*
X53075500Y-26466800D01*
X53075500Y-26466800D02*
X56201500Y-26466800D01*
X52087500Y-25891300D02*
X56201500Y-25891300D01*
X47057500Y-26416000D02*
X47057500Y-27059700D01*
X50500000Y-25891300D02*
X49975300Y-26416000D01*
X49975300Y-26416000D02*
X47057500Y-26416000D01*
X47057500Y-25891300D02*
X47057500Y-26416000D01*
X52087500Y-25891300D02*
X50500000Y-25891300D01*
X47057500Y-27059700D02*
X47050900Y-27066300D01*
X50912500Y-27066300D02*
X47050900Y-27066300D01*
X50912500Y-25891300D02*
X47057500Y-25891300D01*
X14787200Y-24083600D02*
X14376400Y-23672800D01*
X14985400Y-24083600D02*
X14787200Y-24083600D01*
X14376400Y-23672800D02*
X13157206Y-23672800D01*
X13157206Y-23672800D02*
X13157200Y-23672806D01*
X13157200Y-24638000D02*
X13157200Y-23672806D01*
X13157200Y-24638000D02*
X14431000Y-24638000D01*
X14431000Y-24638000D02*
X14985400Y-24083600D01*
X19862800Y-23571200D02*
X19862800Y-24587200D01*
X19862800Y-24587200D02*
X19299000Y-24587200D01*
X19299000Y-24587200D02*
X18795400Y-24083600D01*
X19862800Y-23571200D02*
X19307800Y-23571200D01*
X19307800Y-23571200D02*
X18795400Y-24083600D01*
X11023600Y-39776400D02*
X11997200Y-40750000D01*
X11023600Y-36525200D02*
X11023600Y-39776400D01*
X11997200Y-40750000D02*
X12598400Y-40750000D01*
D39*
X22512000Y-5842000D02*
X23520400Y-5842000D01*
X22500000Y-5830000D02*
X22512000Y-5842000D01*
X23305200Y-5830000D02*
X22500000Y-5830000D01*
D40*
X12555000Y-43350000D02*
X12555000Y-40793400D01*
X12555000Y-40793400D02*
X12598400Y-40750000D01*
X22385200Y-43350000D02*
X22402800Y-43332400D01*
X21445000Y-43350000D02*
X22385200Y-43350000D01*
X11549200Y-43350000D02*
X11531600Y-43332400D01*
X12555000Y-43350000D02*
X11549200Y-43350000D01*
X16750000Y-40000000D02*
X16750000Y-37984400D01*
X16750000Y-37984400D02*
X16713200Y-37947600D01*
X16365000Y-43350000D02*
X16365000Y-40385000D01*
X16365000Y-40385000D02*
X16750000Y-40000000D01*
X38963600Y-24402800D02*
X39693600Y-24402800D01*
X39693600Y-24402800D02*
X41402000Y-26111200D01*
X40487600Y-26162000D02*
X40487600Y-25634000D01*
X40487600Y-25634000D02*
X41452800Y-24668800D01*
X38658800Y-26162000D02*
X38658800Y-24707600D01*
X38658800Y-24707600D02*
X38963600Y-24402800D01*
X39573200Y-26162000D02*
X39573200Y-25012400D01*
X39573200Y-25012400D02*
X38963600Y-24402800D01*
X40487600Y-26162000D02*
X40487600Y-25926800D01*
X40487600Y-25926800D02*
X38963600Y-24402800D01*
X42316400Y-26111200D02*
X42316400Y-25684800D01*
X42316400Y-25684800D02*
X43332400Y-24668800D01*
X42316400Y-26111200D02*
X42316400Y-25532400D01*
X42316400Y-25532400D02*
X41452800Y-24668800D01*
X44145200Y-26111200D02*
X44145200Y-25481600D01*
X44145200Y-25481600D02*
X43332400Y-24668800D01*
X37744400Y-26162000D02*
X37744400Y-25622000D01*
X37744400Y-25622000D02*
X38963600Y-24402800D01*
X43230800Y-26111200D02*
X43230800Y-24770400D01*
X43230800Y-24770400D02*
X43332400Y-24668800D01*
X41402000Y-26111200D02*
X41402000Y-24719600D01*
X41402000Y-24719600D02*
X41452800Y-24668800D01*
X37744400Y-26162000D02*
X44094400Y-26162000D01*
X44094400Y-26162000D02*
X44145200Y-26111200D01*
X46177200Y-34974800D02*
X46177200Y-35560000D01*
X46177200Y-35560000D02*
X45059600Y-36677600D01*
X43586400Y-24922800D02*
X43332400Y-24668800D01*
X43180000Y-22016400D02*
X43332400Y-22168800D01*
D39*
X30117600Y-36650000D02*
X29217600Y-36650000D01*
X29217600Y-36650000D02*
X28549609Y-37317991D01*
X28549609Y-37317991D02*
X28549609Y-41205829D01*
X28549609Y-41205829D02*
X28879800Y-41536020D01*
X28879800Y-41536020D02*
X28879800Y-42652500D01*
X30117600Y-36650000D02*
X30117600Y-35058800D01*
X30117600Y-35058800D02*
X30124400Y-35052000D01*
D40*
X48209200Y-28752800D02*
X48209200Y-29667200D01*
X48209200Y-29667200D02*
X49106600Y-29667200D01*
X49106600Y-29667200D02*
X49595000Y-29178800D01*
X48209200Y-28752800D02*
X49169000Y-28752800D01*
X49169000Y-28752800D02*
X49595000Y-29178800D01*
X47701200Y-24333200D02*
X47701200Y-23418800D01*
X47701200Y-24333200D02*
X49040600Y-24333200D01*
X49040600Y-24333200D02*
X49595000Y-23778800D01*
X47701200Y-23418800D02*
X49235000Y-23418800D01*
X49235000Y-23418800D02*
X49595000Y-23778800D01*
X55270400Y-23317200D02*
X55270400Y-24231600D01*
X55270400Y-24231600D02*
X53857800Y-24231600D01*
X53857800Y-24231600D02*
X53405000Y-23778800D01*
X55270400Y-23317200D02*
X53866600Y-23317200D01*
X53866600Y-23317200D02*
X53405000Y-23778800D01*
X54711600Y-29718000D02*
X54711600Y-28803600D01*
X54711600Y-29718000D02*
X53944200Y-29718000D01*
X53944200Y-29718000D02*
X53405000Y-29178800D01*
X54711600Y-28803600D02*
X53780200Y-28803600D01*
X53780200Y-28803600D02*
X53405000Y-29178800D01*
X46388800Y-40750000D02*
X45059600Y-39420800D01*
X46583600Y-40750000D02*
X46388800Y-40750000D01*
X45059600Y-39420800D02*
X45059600Y-36677600D01*
X56456400Y-43350000D02*
X56489600Y-43383200D01*
X55445000Y-43350000D02*
X56456400Y-43350000D01*
X45550000Y-43350000D02*
X45516800Y-43383200D01*
X46555000Y-43350000D02*
X45550000Y-43350000D01*
X46555000Y-43350000D02*
X46555000Y-40778600D01*
X46555000Y-40778600D02*
X46583600Y-40750000D01*
X50750000Y-40000000D02*
X50750000Y-37999200D01*
X50750000Y-37999200D02*
X50749200Y-37998400D01*
X50365000Y-43350000D02*
X50365000Y-40385000D01*
X50365000Y-40385000D02*
X50750000Y-40000000D01*
D39*
X24250000Y-38760400D02*
X24250000Y-37900000D01*
X24250000Y-40000000D02*
X24250000Y-38760400D01*
X24250000Y-38760400D02*
X20370800Y-38760400D01*
X20370800Y-38760400D02*
X20015200Y-38404800D01*
X24250000Y-37900000D02*
X24650000Y-37500000D01*
X22469000Y-41656000D02*
X24125000Y-40000000D01*
X20869000Y-41656000D02*
X22469000Y-41656000D01*
X24125000Y-40000000D02*
X24250000Y-40000000D01*
X20175000Y-43350000D02*
X20175000Y-42350000D01*
X20175000Y-42350000D02*
X20869000Y-41656000D01*
X30000000Y-28350000D02*
X32718800Y-28350000D01*
X40087601Y-35718801D02*
X40487600Y-36118800D01*
X32718800Y-28350000D02*
X40087601Y-35718801D01*
X58250000Y-38811200D02*
X58250000Y-37900000D01*
X58250000Y-40000000D02*
X58250000Y-38811200D01*
X58250000Y-38811200D02*
X54356000Y-38811200D01*
X54356000Y-38811200D02*
X54000400Y-38455600D01*
X58250000Y-37900000D02*
X58650000Y-37500000D01*
X54175000Y-42294200D02*
X54864000Y-41605200D01*
X54175000Y-43350000D02*
X54175000Y-42294200D01*
X54864000Y-41605200D02*
X56519800Y-41605200D01*
X56519800Y-41605200D02*
X58125000Y-40000000D01*
X58125000Y-40000000D02*
X58250000Y-40000000D01*
X32689800Y-42020000D02*
X33477200Y-41232600D01*
X33477200Y-41232600D02*
X33477200Y-40893996D01*
X34112200Y-39250000D02*
X34112200Y-40258996D01*
X34112200Y-40258996D02*
X33877199Y-40493997D01*
X33877199Y-40493997D02*
X33477200Y-40893996D01*
X32689800Y-42652500D02*
X32689800Y-42020000D01*
X34112200Y-39125000D02*
X34112200Y-39250000D01*
X32918400Y-42209100D02*
X32475000Y-42652500D01*
D40*
X44730400Y-31674800D02*
X41808400Y-28752800D01*
X46177200Y-31674800D02*
X44730400Y-31674800D01*
D39*
X2501900Y-23266400D02*
X2463800Y-23228300D01*
X2540000Y-7949200D02*
X2540000Y-10460000D01*
X2540000Y-10460000D02*
X2500000Y-10500000D01*
X4319200Y-2170000D02*
X2540000Y-3949200D01*
X8500000Y-2170000D02*
X4319200Y-2170000D01*
X2540000Y-3949200D02*
X2540000Y-4649200D01*
X28969200Y-7924800D02*
X30000000Y-8955600D01*
X28269200Y-7924800D02*
X28969200Y-7924800D01*
X30000000Y-8955600D02*
X30000000Y-9150000D01*
X30000000Y-9150000D02*
X30000000Y-10500000D01*
X29989200Y-10489200D02*
X30000000Y-10500000D01*
X30000000Y-23200000D02*
X30000000Y-25650000D01*
X31573600Y-40894000D02*
X31394398Y-40894000D01*
X32117600Y-40350000D02*
X31573600Y-40894000D01*
X31419800Y-42652500D02*
X31419800Y-40919402D01*
X31419800Y-40919402D02*
X31394398Y-40894000D01*
X32117600Y-39350000D02*
X32117600Y-40350000D01*
X30117600Y-40350000D02*
X29718000Y-40749600D01*
X29718000Y-40749600D02*
X29718000Y-40843200D01*
X30117600Y-39350000D02*
X30117600Y-40350000D01*
X29718000Y-41018200D02*
X29718000Y-40843200D01*
X30149800Y-41450000D02*
X29718000Y-41018200D01*
X30149800Y-42652500D02*
X30149800Y-41450000D01*
X15087600Y-35890200D02*
X16255400Y-34722400D01*
X16255400Y-31368400D02*
X16255400Y-29483600D01*
X15087600Y-39979600D02*
X15087600Y-35890200D01*
X16255400Y-34722400D02*
X16255400Y-31368400D01*
D40*
X15087600Y-39979600D02*
X15087600Y-43342600D01*
X15087600Y-43342600D02*
X15095000Y-43350000D01*
X17635000Y-41765000D02*
X17627600Y-41757600D01*
X17635000Y-43350000D02*
X17635000Y-41765000D01*
X51635000Y-41735400D02*
X51663600Y-41706800D01*
X51635000Y-43350000D02*
X51635000Y-41735400D01*
D39*
X49123600Y-34137600D02*
X50865000Y-32396200D01*
X49123600Y-40081200D02*
X49123600Y-34137600D01*
X50865000Y-32396200D02*
X50865000Y-29178800D01*
D40*
X49095000Y-40109800D02*
X49123600Y-40081200D01*
X49095000Y-43350000D02*
X49095000Y-40109800D01*
D42*
X16865600Y-22352000D02*
X16865600Y-19856000D01*
X16865600Y-19856000D02*
X15646400Y-18636800D01*
X15646400Y-18636800D02*
X16283600Y-17999600D01*
X12783600Y-17999600D02*
X16283600Y-17999600D01*
D41*
X12783600Y-17999600D02*
X10593600Y-17999600D01*
X10593600Y-17999600D02*
X9245600Y-16651600D01*
D40*
X17525400Y-24083600D02*
X17525400Y-23011800D01*
X17525400Y-23011800D02*
X16865600Y-22352000D01*
X16255400Y-24083600D02*
X16255400Y-22962200D01*
X16255400Y-22962200D02*
X16865600Y-22352000D01*
X16255400Y-24083600D02*
X17525400Y-24083600D01*
D41*
X54275200Y-18101200D02*
X56564000Y-18101200D01*
X56564000Y-18101200D02*
X57912000Y-16753200D01*
D40*
X51511200Y-21945600D02*
X52135000Y-21945600D01*
D42*
X51511200Y-18837200D02*
X50775200Y-18101200D01*
D40*
X50923200Y-21945600D02*
X51511200Y-21945600D01*
D42*
X51511200Y-21945600D02*
X51511200Y-18837200D01*
D40*
X51511200Y-21537598D02*
X51169800Y-22860000D01*
X52135000Y-22860000D02*
X51511200Y-21537598D01*
D42*
X50775200Y-18101200D02*
X54275200Y-18101200D01*
D40*
X50865000Y-22555200D02*
X50865000Y-22003800D01*
X50865000Y-23778800D02*
X50865000Y-22555200D01*
X51169800Y-22860000D02*
X50865000Y-22555200D01*
X52135000Y-23778800D02*
X52135000Y-22860000D01*
X52135000Y-22003800D02*
X52135000Y-22860000D01*
X50865000Y-22003800D02*
X50923200Y-21945600D01*
X50865000Y-23778800D02*
X50865000Y-22809200D01*
X52135000Y-23778800D02*
X51834600Y-23778800D01*
X51834600Y-23778800D02*
X50865000Y-22809200D01*
X50865000Y-23778800D02*
X52135000Y-23778800D01*
D43*
G36*
X1843880Y-51303880D02*
X1489457Y-51834313D01*
X1365000Y-52460000D01*
X1489457Y-53085687D01*
X1843880Y-53616120D01*
X1949789Y-53686886D01*
X1792191Y-53792191D01*
X1651843Y-54002235D01*
X1615293Y-54185985D01*
X1489457Y-54374313D01*
X1365000Y-55000000D01*
X1365000Y-57581195D01*
X1364999Y-57581200D01*
X1489457Y-58206888D01*
X1843880Y-58737320D01*
X4244680Y-61138120D01*
X4775112Y-61492543D01*
X5400800Y-61617001D01*
X6026488Y-61492543D01*
X6500804Y-61175615D01*
X6975121Y-61492543D01*
X7600808Y-61617000D01*
X8226495Y-61492543D01*
X8756928Y-61138120D01*
X9111351Y-60607687D01*
X9235808Y-59982000D01*
X9235808Y-56000148D01*
X9111351Y-55374461D01*
X8756928Y-54844028D01*
X8756925Y-54844026D01*
X5216780Y-51303880D01*
X4956849Y-51130200D01*
X16359998Y-51130200D01*
X16237638Y-51252560D01*
X16065000Y-51252560D01*
X15817235Y-51301843D01*
X15607191Y-51442191D01*
X15466843Y-51652235D01*
X15417560Y-51900000D01*
X15417560Y-53400000D01*
X15466843Y-53647765D01*
X15587394Y-53828181D01*
X15475180Y-54098423D01*
X15474821Y-54510171D01*
X15543859Y-54677257D01*
X15208235Y-54341633D01*
X15208379Y-54176429D01*
X15051142Y-53795885D01*
X14933200Y-53677737D01*
X14933200Y-52998200D01*
X14875348Y-52707361D01*
X14772440Y-52553348D01*
X14772440Y-51900000D01*
X14723157Y-51652235D01*
X14582809Y-51442191D01*
X14372765Y-51301843D01*
X14125000Y-51252560D01*
X13525000Y-51252560D01*
X13277235Y-51301843D01*
X13067191Y-51442191D01*
X12926843Y-51652235D01*
X12877560Y-51900000D01*
X12877560Y-53400000D01*
X12926843Y-53647765D01*
X13067191Y-53857809D01*
X13225898Y-53963855D01*
X13138380Y-54174623D01*
X13138021Y-54586371D01*
X13295258Y-54966915D01*
X13586154Y-55258319D01*
X13791793Y-55343707D01*
X13763243Y-55386435D01*
X13713960Y-55634200D01*
X13713960Y-56606838D01*
X13407133Y-56913665D01*
X13054285Y-57059458D01*
X12762881Y-57350354D01*
X12604980Y-57730623D01*
X12604621Y-58142371D01*
X12761858Y-58522915D01*
X13052754Y-58814319D01*
X13433023Y-58972220D01*
X13713960Y-58972465D01*
X13713960Y-59834200D01*
X13763243Y-60081965D01*
X13903591Y-60292009D01*
X14113635Y-60432357D01*
X14276800Y-60464812D01*
X14276800Y-60662639D01*
X14159881Y-60779354D01*
X14001980Y-61159623D01*
X14001621Y-61571371D01*
X14158858Y-61951915D01*
X14449754Y-62243319D01*
X14830023Y-62401220D01*
X15241771Y-62401579D01*
X15622315Y-62244342D01*
X15913719Y-61953446D01*
X16071620Y-61573177D01*
X16071979Y-61161429D01*
X15914742Y-60780885D01*
X15796800Y-60662737D01*
X15796800Y-60454708D01*
X15909165Y-60432357D01*
X15982907Y-60383084D01*
X16018635Y-60406957D01*
X16266400Y-60456240D01*
X17566400Y-60456240D01*
X17814165Y-60406957D01*
X17868900Y-60370384D01*
X17923635Y-60406957D01*
X18171400Y-60456240D01*
X19471400Y-60456240D01*
X19719165Y-60406957D01*
X19929209Y-60266609D01*
X20047219Y-60089996D01*
X20257161Y-60090179D01*
X20637705Y-59932942D01*
X20929109Y-59642046D01*
X21087010Y-59261777D01*
X21087369Y-58850029D01*
X20930132Y-58469485D01*
X20639236Y-58178081D01*
X20258967Y-58020180D01*
X20042132Y-58019991D01*
X19929209Y-57850991D01*
X19719165Y-57710643D01*
X19709900Y-57708800D01*
X19719165Y-57706957D01*
X19929209Y-57566609D01*
X20069557Y-57356565D01*
X20118840Y-57108800D01*
X20118840Y-55608800D01*
X20069557Y-55361035D01*
X20004625Y-55263858D01*
X20372571Y-55264179D01*
X20753115Y-55106942D01*
X21044519Y-54816046D01*
X21202420Y-54435777D01*
X21202779Y-54024029D01*
X21057186Y-53671667D01*
X21073157Y-53647765D01*
X21122440Y-53400000D01*
X21122440Y-51900000D01*
X21121443Y-51894990D01*
X29435149Y-51894990D01*
X29371991Y-51937191D01*
X29231643Y-52147235D01*
X29182360Y-52395000D01*
X29182360Y-54300000D01*
X29231643Y-54547765D01*
X29371991Y-54757809D01*
X29415200Y-54786681D01*
X29415200Y-58427439D01*
X29298281Y-58544154D01*
X29140380Y-58924423D01*
X29140021Y-59336171D01*
X29297258Y-59716715D01*
X29588154Y-60008119D01*
X29968423Y-60166020D01*
X30380171Y-60166379D01*
X30760715Y-60009142D01*
X30784609Y-59985290D01*
X30832754Y-60033519D01*
X31213023Y-60191420D01*
X31624771Y-60191779D01*
X32005315Y-60034542D01*
X32296719Y-59743646D01*
X32454620Y-59363377D01*
X32454979Y-58951629D01*
X32297742Y-58571085D01*
X32179800Y-58452937D01*
X32179800Y-57169911D01*
X32483023Y-57295820D01*
X32894771Y-57296179D01*
X33275315Y-57138942D01*
X33566719Y-56848046D01*
X33724620Y-56467777D01*
X33724979Y-56056029D01*
X33567742Y-55675485D01*
X33449800Y-55557337D01*
X33449800Y-54769709D01*
X33467609Y-54757809D01*
X33607957Y-54547765D01*
X33657240Y-54300000D01*
X33657240Y-52395000D01*
X33607957Y-52147235D01*
X33467609Y-51937191D01*
X33404451Y-51894990D01*
X35477388Y-51894990D01*
X35365000Y-52460000D01*
X35489457Y-53085687D01*
X35843880Y-53616120D01*
X35949789Y-53686886D01*
X35792191Y-53792191D01*
X35651843Y-54002235D01*
X35615293Y-54185985D01*
X35489457Y-54374313D01*
X35365000Y-55000000D01*
X35365000Y-57494395D01*
X35364999Y-57494400D01*
X35489457Y-58120088D01*
X35843880Y-58650520D01*
X38407681Y-61214320D01*
X38938113Y-61568743D01*
X39563800Y-61693201D01*
X40189488Y-61568743D01*
X40663804Y-61251815D01*
X41138121Y-61568743D01*
X41763808Y-61693200D01*
X42389495Y-61568743D01*
X42919928Y-61214320D01*
X43274351Y-60683887D01*
X43398808Y-60058200D01*
X43398808Y-56163148D01*
X43385245Y-56094960D01*
X43274351Y-55537460D01*
X43066120Y-55225821D01*
X42919928Y-55007028D01*
X42919925Y-55007026D01*
X39807890Y-51894990D01*
X46878557Y-51894990D01*
X46877560Y-51900000D01*
X46877560Y-53400000D01*
X46926108Y-53644071D01*
X46790180Y-53971423D01*
X46789821Y-54383171D01*
X46947058Y-54763715D01*
X47065000Y-54881863D01*
X47065000Y-55655400D01*
X47122852Y-55946239D01*
X47287599Y-56192801D01*
X48143399Y-57048601D01*
X48283360Y-57142120D01*
X48283360Y-57261200D01*
X48332643Y-57508965D01*
X48472991Y-57719009D01*
X48683035Y-57859357D01*
X48692300Y-57861200D01*
X48683035Y-57863043D01*
X48472991Y-58003391D01*
X48332643Y-58213435D01*
X48283360Y-58461200D01*
X48283360Y-59961200D01*
X48332643Y-60208965D01*
X48472991Y-60419009D01*
X48683035Y-60559357D01*
X48820800Y-60586760D01*
X48820800Y-62593039D01*
X48703881Y-62709754D01*
X48545980Y-63090023D01*
X48545621Y-63501771D01*
X48702858Y-63882315D01*
X48993754Y-64173719D01*
X49374023Y-64331620D01*
X49785771Y-64331979D01*
X50166315Y-64174742D01*
X50457719Y-63883846D01*
X50615620Y-63503577D01*
X50615979Y-63091829D01*
X50458742Y-62711285D01*
X50340800Y-62593137D01*
X50340800Y-60586760D01*
X50478565Y-60559357D01*
X50603107Y-60476140D01*
X50689635Y-60533957D01*
X50937400Y-60583240D01*
X52237400Y-60583240D01*
X52485165Y-60533957D01*
X52552600Y-60488898D01*
X52620035Y-60533957D01*
X52867800Y-60583240D01*
X54167800Y-60583240D01*
X54415565Y-60533957D01*
X54625609Y-60393609D01*
X54752530Y-60203660D01*
X54784223Y-60216820D01*
X55195971Y-60217179D01*
X55576515Y-60059942D01*
X55867919Y-59769046D01*
X56025820Y-59388777D01*
X56026179Y-58977029D01*
X55868942Y-58596485D01*
X55578046Y-58305081D01*
X55197777Y-58147180D01*
X54786029Y-58146821D01*
X54748719Y-58162237D01*
X54625609Y-57977991D01*
X54415565Y-57837643D01*
X54406300Y-57835800D01*
X54415565Y-57833957D01*
X54625609Y-57693609D01*
X54765957Y-57483565D01*
X54815240Y-57235800D01*
X54815240Y-55735800D01*
X54765957Y-55488035D01*
X54625609Y-55277991D01*
X54483593Y-55183098D01*
X54555553Y-55183161D01*
X54936097Y-55025924D01*
X55227501Y-54735028D01*
X55385402Y-54354759D01*
X55385761Y-53943011D01*
X55228524Y-53562467D01*
X55113119Y-53446860D01*
X55122440Y-53400000D01*
X55122440Y-51900000D01*
X55073157Y-51652235D01*
X54932809Y-51442191D01*
X54722765Y-51301843D01*
X54475000Y-51252560D01*
X53875000Y-51252560D01*
X53627235Y-51301843D01*
X53615454Y-51309715D01*
X53607148Y-51267961D01*
X53515099Y-51130200D01*
X59265000Y-51130200D01*
X59265000Y-92927610D01*
X58927043Y-94626634D01*
X58005629Y-96005629D01*
X56626634Y-96927043D01*
X54927610Y-97265000D01*
X5072390Y-97265000D01*
X3373366Y-96927043D01*
X1994371Y-96005629D01*
X1072957Y-94626634D01*
X849260Y-93502031D01*
X2464561Y-93502031D01*
X2849678Y-94434086D01*
X3562163Y-95147816D01*
X4493545Y-95534559D01*
X5502031Y-95535439D01*
X6434086Y-95150322D01*
X7147816Y-94437837D01*
X7534559Y-93506455D01*
X7535439Y-92497969D01*
X7150322Y-91565914D01*
X6437837Y-90852184D01*
X6293621Y-90792300D01*
X9571391Y-90792300D01*
X9695848Y-91417987D01*
X10050271Y-91948420D01*
X10220705Y-92062300D01*
X10050271Y-92176180D01*
X9695848Y-92706613D01*
X9571391Y-93332300D01*
X9695848Y-93957987D01*
X10050271Y-94488420D01*
X10580704Y-94842843D01*
X11206391Y-94967300D01*
X11882209Y-94967300D01*
X12507896Y-94842843D01*
X13038329Y-94488420D01*
X13392752Y-93957987D01*
X13517209Y-93332300D01*
X13484548Y-93168100D01*
X19609960Y-93168100D01*
X19609960Y-94868100D01*
X19659243Y-95115865D01*
X19799591Y-95325909D01*
X20009635Y-95466257D01*
X20257400Y-95515540D01*
X21957400Y-95515540D01*
X22205165Y-95466257D01*
X22415209Y-95325909D01*
X22555557Y-95115865D01*
X22570414Y-95041175D01*
X22805117Y-95276288D01*
X23350719Y-95502842D01*
X23941489Y-95503357D01*
X24487486Y-95277756D01*
X24905588Y-94860383D01*
X24917148Y-94832543D01*
X24927744Y-94858186D01*
X25345117Y-95276288D01*
X25890719Y-95502842D01*
X26481489Y-95503357D01*
X27027486Y-95277756D01*
X27445588Y-94860383D01*
X27457148Y-94832543D01*
X27467744Y-94858186D01*
X27885117Y-95276288D01*
X28430719Y-95502842D01*
X29021489Y-95503357D01*
X29567486Y-95277756D01*
X29985588Y-94860383D01*
X29997148Y-94832543D01*
X30007744Y-94858186D01*
X30425117Y-95276288D01*
X30970719Y-95502842D01*
X31561489Y-95503357D01*
X31643832Y-95469334D01*
X33003299Y-96828801D01*
X33249861Y-96993548D01*
X33540700Y-97051400D01*
X40926600Y-97051400D01*
X41217439Y-96993548D01*
X41464001Y-96828801D01*
X46710801Y-91582001D01*
X46804320Y-91442040D01*
X46923400Y-91442040D01*
X47171165Y-91392757D01*
X47381209Y-91252409D01*
X47521557Y-91042365D01*
X47523400Y-91033100D01*
X47525243Y-91042365D01*
X47665591Y-91252409D01*
X47875635Y-91392757D01*
X48113400Y-91440051D01*
X48113400Y-91570560D01*
X47188600Y-91570560D01*
X46940835Y-91619843D01*
X46730791Y-91760191D01*
X46590443Y-91970235D01*
X46541160Y-92218000D01*
X46541160Y-94218000D01*
X46590443Y-94465765D01*
X46730791Y-94675809D01*
X46940835Y-94816157D01*
X47188600Y-94865440D01*
X49788600Y-94865440D01*
X50036365Y-94816157D01*
X50246409Y-94675809D01*
X50386757Y-94465765D01*
X50436040Y-94218000D01*
X50436040Y-93502031D01*
X52464561Y-93502031D01*
X52849678Y-94434086D01*
X53562163Y-95147816D01*
X54493545Y-95534559D01*
X55502031Y-95535439D01*
X56434086Y-95150322D01*
X57147816Y-94437837D01*
X57534559Y-93506455D01*
X57535439Y-92497969D01*
X57150322Y-91565914D01*
X56437837Y-90852184D01*
X55506455Y-90465441D01*
X54497969Y-90464561D01*
X53565914Y-90849678D01*
X52852184Y-91562163D01*
X52465441Y-92493545D01*
X52464561Y-93502031D01*
X50436040Y-93502031D01*
X50436040Y-92218000D01*
X50386757Y-91970235D01*
X50246409Y-91760191D01*
X50036365Y-91619843D01*
X49788600Y-91570560D01*
X49633400Y-91570560D01*
X49633400Y-91440051D01*
X49871165Y-91392757D01*
X50081209Y-91252409D01*
X50221557Y-91042365D01*
X50270840Y-90794600D01*
X50270840Y-89494600D01*
X50221557Y-89246835D01*
X50184984Y-89192100D01*
X50221557Y-89137365D01*
X50270840Y-88889600D01*
X50270840Y-87589600D01*
X50221557Y-87341835D01*
X50123885Y-87195660D01*
X50170840Y-86959600D01*
X50170840Y-85709600D01*
X50121557Y-85461835D01*
X49981209Y-85251791D01*
X49771165Y-85111443D01*
X49523400Y-85062160D01*
X48023400Y-85062160D01*
X47775635Y-85111443D01*
X47565591Y-85251791D01*
X47425243Y-85461835D01*
X47375960Y-85709600D01*
X47375960Y-86959600D01*
X47422503Y-87193592D01*
X47381209Y-87131791D01*
X47171165Y-86991443D01*
X46923400Y-86942160D01*
X45423400Y-86942160D01*
X45175635Y-86991443D01*
X44965591Y-87131791D01*
X44909992Y-87215001D01*
X44885377Y-87204780D01*
X44473629Y-87204421D01*
X44093085Y-87361658D01*
X43801681Y-87652554D01*
X43643780Y-88032823D01*
X43643421Y-88444571D01*
X43800658Y-88825115D01*
X44091554Y-89116519D01*
X44471823Y-89274420D01*
X44819696Y-89274723D01*
X44775960Y-89494600D01*
X44775960Y-90794600D01*
X44825243Y-91042365D01*
X44935629Y-91207569D01*
X43039126Y-93104072D01*
X43138600Y-92603981D01*
X43138600Y-86440000D01*
X43014143Y-85814313D01*
X42659720Y-85283880D01*
X42634838Y-85267254D01*
X42611409Y-85232191D01*
X42401365Y-85091843D01*
X42392100Y-85090000D01*
X42401365Y-85088157D01*
X42611409Y-84947809D01*
X42634838Y-84912746D01*
X42659720Y-84896120D01*
X42754362Y-84754478D01*
X44107517Y-83401322D01*
X44107520Y-83401320D01*
X44461943Y-82870887D01*
X44586400Y-82245200D01*
X44461943Y-81619513D01*
X44107520Y-81089080D01*
X43577087Y-80734657D01*
X42951400Y-80610200D01*
X40005005Y-80610200D01*
X40005000Y-80610199D01*
X39379312Y-80734657D01*
X38848880Y-81089080D01*
X38494457Y-81619512D01*
X38369999Y-82245200D01*
X38494457Y-82870888D01*
X38848880Y-83401320D01*
X40343678Y-84896117D01*
X40343680Y-84896120D01*
X40375427Y-84917333D01*
X40395791Y-84947809D01*
X40605835Y-85088157D01*
X40615100Y-85090000D01*
X40605835Y-85091843D01*
X40395791Y-85232191D01*
X40372362Y-85267254D01*
X40347480Y-85283880D01*
X39993057Y-85814313D01*
X39868600Y-86440000D01*
X39868600Y-91926742D01*
X39412241Y-92383100D01*
X36347400Y-92383100D01*
X35721713Y-92507557D01*
X35191280Y-92861980D01*
X35014974Y-93125841D01*
X34649683Y-92759912D01*
X34621843Y-92748352D01*
X34647486Y-92737756D01*
X35065588Y-92320383D01*
X35292142Y-91774781D01*
X35292657Y-91184011D01*
X35067056Y-90638014D01*
X34649683Y-90219912D01*
X34104081Y-89993358D01*
X33513311Y-89992843D01*
X32967314Y-90218444D01*
X32549212Y-90635817D01*
X32322658Y-91181419D01*
X32322143Y-91772189D01*
X32547744Y-92318186D01*
X32965117Y-92736288D01*
X32992957Y-92747848D01*
X32967314Y-92758444D01*
X32549212Y-93175817D01*
X32537652Y-93203657D01*
X32527056Y-93178014D01*
X32109683Y-92759912D01*
X31564081Y-92533358D01*
X30973311Y-92532843D01*
X30427314Y-92758444D01*
X30009212Y-93175817D01*
X29997652Y-93203657D01*
X29987056Y-93178014D01*
X29569683Y-92759912D01*
X29541843Y-92748352D01*
X29567486Y-92737756D01*
X29985588Y-92320383D01*
X30212142Y-91774781D01*
X30212657Y-91184011D01*
X29987056Y-90638014D01*
X29569683Y-90219912D01*
X29024081Y-89993358D01*
X28433311Y-89992843D01*
X27887314Y-90218444D01*
X27469212Y-90635817D01*
X27457652Y-90663657D01*
X27447056Y-90638014D01*
X27029683Y-90219912D01*
X26484081Y-89993358D01*
X25893311Y-89992843D01*
X25677400Y-90082055D01*
X25677400Y-79265961D01*
X25794319Y-79149246D01*
X25952220Y-78768977D01*
X25952286Y-78693260D01*
X44363740Y-78693260D01*
X44363740Y-80193260D01*
X44413023Y-80441025D01*
X44553371Y-80651069D01*
X44763415Y-80791417D01*
X45011180Y-80840700D01*
X46261180Y-80840700D01*
X46508945Y-80791417D01*
X46718989Y-80651069D01*
X46727900Y-80637732D01*
X46728643Y-80641465D01*
X46811621Y-80765650D01*
X46728643Y-80889835D01*
X46679360Y-81137600D01*
X46679360Y-82387600D01*
X46728643Y-82635365D01*
X46868991Y-82845409D01*
X47079035Y-82985757D01*
X47326800Y-83035040D01*
X48826800Y-83035040D01*
X49074565Y-82985757D01*
X49284609Y-82845409D01*
X49424957Y-82635365D01*
X49474240Y-82387600D01*
X49474240Y-81137600D01*
X49424957Y-80889835D01*
X49341979Y-80765650D01*
X49424957Y-80641465D01*
X49474240Y-80393700D01*
X49474240Y-79143700D01*
X49424957Y-78895935D01*
X49286446Y-78688640D01*
X49528800Y-78688640D01*
X49776565Y-78639357D01*
X49986609Y-78499009D01*
X50126957Y-78288965D01*
X50176240Y-78041200D01*
X50176240Y-76841200D01*
X50126957Y-76593435D01*
X49986609Y-76383391D01*
X49776565Y-76243043D01*
X49528800Y-76193760D01*
X48786492Y-76193760D01*
X48548966Y-75956234D01*
X48398144Y-75855458D01*
X48180746Y-75710197D01*
X47746400Y-75623800D01*
X46736694Y-75623800D01*
X46609000Y-75598400D01*
X45720000Y-75598400D01*
X45285654Y-75684797D01*
X44917434Y-75930834D01*
X44671397Y-76299054D01*
X44585000Y-76733400D01*
X44585000Y-77335629D01*
X44501180Y-77757020D01*
X44501180Y-78313560D01*
X44413023Y-78445495D01*
X44363740Y-78693260D01*
X25952286Y-78693260D01*
X25952579Y-78357229D01*
X25795342Y-77976685D01*
X25504446Y-77685281D01*
X25124177Y-77527380D01*
X24712429Y-77527021D01*
X24331885Y-77684258D01*
X24282569Y-77733488D01*
X24234446Y-77685281D01*
X23854177Y-77527380D01*
X23442429Y-77527021D01*
X23061885Y-77684258D01*
X22770481Y-77975154D01*
X22612580Y-78355423D01*
X22612221Y-78767171D01*
X22769458Y-79147715D01*
X22887400Y-79265863D01*
X22887400Y-90185353D01*
X22807314Y-90218444D01*
X22389212Y-90635817D01*
X22377652Y-90663657D01*
X22367056Y-90638014D01*
X21949683Y-90219912D01*
X21404081Y-89993358D01*
X20813311Y-89992843D01*
X20267314Y-90218444D01*
X19849212Y-90635817D01*
X19622658Y-91181419D01*
X19622143Y-91772189D01*
X19847744Y-92318186D01*
X20084247Y-92555102D01*
X20009635Y-92569943D01*
X19799591Y-92710291D01*
X19659243Y-92920335D01*
X19609960Y-93168100D01*
X13484548Y-93168100D01*
X13392752Y-92706613D01*
X13038329Y-92176180D01*
X12867895Y-92062300D01*
X13038329Y-91948420D01*
X13392752Y-91417987D01*
X13517209Y-90792300D01*
X13392752Y-90166613D01*
X13153898Y-89809141D01*
X13302109Y-89710109D01*
X13442457Y-89500065D01*
X13491740Y-89252300D01*
X13491740Y-87252300D01*
X13442457Y-87004535D01*
X13302109Y-86794491D01*
X13092065Y-86654143D01*
X12844300Y-86604860D01*
X10244300Y-86604860D01*
X9996535Y-86654143D01*
X9786491Y-86794491D01*
X9646143Y-87004535D01*
X9596860Y-87252300D01*
X9596860Y-89252300D01*
X9646143Y-89500065D01*
X9786491Y-89710109D01*
X9934702Y-89809141D01*
X9695848Y-90166613D01*
X9571391Y-90792300D01*
X6293621Y-90792300D01*
X5506455Y-90465441D01*
X4497969Y-90464561D01*
X3565914Y-90849678D01*
X2852184Y-91562163D01*
X2465441Y-92493545D01*
X2464561Y-93502031D01*
X849260Y-93502031D01*
X735000Y-92927610D01*
X735000Y-72400000D01*
X3202560Y-72400000D01*
X3202560Y-73900000D01*
X3251843Y-74147765D01*
X3392191Y-74357809D01*
X3602235Y-74498157D01*
X3611500Y-74500000D01*
X3602235Y-74501843D01*
X3392191Y-74642191D01*
X3251843Y-74852235D01*
X3202560Y-75100000D01*
X3202560Y-76600000D01*
X3251843Y-76847765D01*
X3353564Y-77000000D01*
X3251843Y-77152235D01*
X3202560Y-77400000D01*
X3202560Y-78900000D01*
X3251843Y-79147765D01*
X3392191Y-79357809D01*
X3602235Y-79498157D01*
X3611500Y-79500000D01*
X3602235Y-79501843D01*
X3392191Y-79642191D01*
X3251843Y-79852235D01*
X3202560Y-80100000D01*
X3202560Y-81600000D01*
X3251843Y-81847765D01*
X3392191Y-82057809D01*
X3602235Y-82198157D01*
X3628798Y-82203441D01*
X3486380Y-82546423D01*
X3486021Y-82958171D01*
X3643258Y-83338715D01*
X3934154Y-83630119D01*
X4314423Y-83788020D01*
X4726171Y-83788379D01*
X5106715Y-83631142D01*
X5398119Y-83340246D01*
X5556020Y-82959977D01*
X5556379Y-82548229D01*
X5408711Y-82190843D01*
X5607809Y-82057809D01*
X5748157Y-81847765D01*
X5797440Y-81600000D01*
X5797440Y-80100000D01*
X5748157Y-79852235D01*
X5607809Y-79642191D01*
X5397765Y-79501843D01*
X5388500Y-79500000D01*
X5397765Y-79498157D01*
X5607809Y-79357809D01*
X5748157Y-79147765D01*
X5797440Y-78900000D01*
X5797440Y-77400000D01*
X5748157Y-77152235D01*
X5646436Y-77000000D01*
X5748157Y-76847765D01*
X5797440Y-76600000D01*
X5797440Y-75100000D01*
X5748157Y-74852235D01*
X5607809Y-74642191D01*
X5397765Y-74501843D01*
X5388500Y-74500000D01*
X5397765Y-74498157D01*
X5607809Y-74357809D01*
X5748157Y-74147765D01*
X5797440Y-73900000D01*
X5797440Y-73780920D01*
X5937401Y-73687401D01*
X10742002Y-68882800D01*
X13092398Y-68882800D01*
X10062969Y-71912229D01*
X9897765Y-71801843D01*
X9650000Y-71752560D01*
X8350000Y-71752560D01*
X8102235Y-71801843D01*
X7892191Y-71942191D01*
X7751843Y-72152235D01*
X7702560Y-72400000D01*
X7702560Y-73900000D01*
X7751843Y-74147765D01*
X7892191Y-74357809D01*
X8102235Y-74498157D01*
X8111500Y-74500000D01*
X8102235Y-74501843D01*
X7892191Y-74642191D01*
X7751843Y-74852235D01*
X7702560Y-75100000D01*
X7702560Y-76600000D01*
X7751843Y-76847765D01*
X7853564Y-77000000D01*
X7751843Y-77152235D01*
X7702560Y-77400000D01*
X7702560Y-78900000D01*
X7751843Y-79147765D01*
X7892191Y-79357809D01*
X8102235Y-79498157D01*
X8111500Y-79500000D01*
X8102235Y-79501843D01*
X7892191Y-79642191D01*
X7751843Y-79852235D01*
X7702560Y-80100000D01*
X7702560Y-81600000D01*
X7751843Y-81847765D01*
X7892191Y-82057809D01*
X8081692Y-82184430D01*
X7931380Y-82546423D01*
X7931021Y-82958171D01*
X8088258Y-83338715D01*
X8379154Y-83630119D01*
X8759423Y-83788020D01*
X9171171Y-83788379D01*
X9551715Y-83631142D01*
X9843119Y-83340246D01*
X10001020Y-82959977D01*
X10001379Y-82548229D01*
X9859849Y-82205699D01*
X9897765Y-82198157D01*
X10107809Y-82057809D01*
X10248157Y-81847765D01*
X10297440Y-81600000D01*
X10297440Y-80100000D01*
X10248157Y-79852235D01*
X10107809Y-79642191D01*
X9897765Y-79501843D01*
X9888500Y-79500000D01*
X9897765Y-79498157D01*
X10041009Y-79402444D01*
X10145658Y-79655715D01*
X10436554Y-79947119D01*
X10816823Y-80105020D01*
X11076400Y-80105246D01*
X11076400Y-84767239D01*
X10959481Y-84883954D01*
X10801580Y-85264223D01*
X10801221Y-85675971D01*
X10958458Y-86056515D01*
X11249354Y-86347919D01*
X11629623Y-86505820D01*
X12041371Y-86506179D01*
X12421915Y-86348942D01*
X12713319Y-86058046D01*
X12871220Y-85677777D01*
X12871579Y-85266029D01*
X12714342Y-84885485D01*
X12596400Y-84767337D01*
X12596400Y-83351079D01*
X12874954Y-83630119D01*
X13255223Y-83788020D01*
X13666971Y-83788379D01*
X14047515Y-83631142D01*
X14249497Y-83429512D01*
X14449754Y-83630119D01*
X14830023Y-83788020D01*
X15241771Y-83788379D01*
X15622315Y-83631142D01*
X15913719Y-83340246D01*
X16071620Y-82959977D01*
X16071979Y-82548229D01*
X15914742Y-82167685D01*
X15796800Y-82049537D01*
X15796800Y-70579205D01*
X15888319Y-70487846D01*
X15913127Y-70428100D01*
X44211999Y-70428100D01*
X44212000Y-70428105D01*
X44212000Y-72740195D01*
X44211999Y-72740200D01*
X44212000Y-72740205D01*
X44212000Y-72847200D01*
X44336457Y-73472887D01*
X44690880Y-74003320D01*
X45221313Y-74357743D01*
X45847000Y-74482200D01*
X48257870Y-74482200D01*
X48428800Y-74516200D01*
X49054487Y-74391743D01*
X49105273Y-74357809D01*
X49448250Y-74128640D01*
X49528800Y-74128640D01*
X49776565Y-74079357D01*
X49986609Y-73939009D01*
X50126957Y-73728965D01*
X50176240Y-73481200D01*
X50176240Y-72281200D01*
X50126957Y-72033435D01*
X50063800Y-71938915D01*
X50063800Y-68145305D01*
X50063801Y-68145300D01*
X49939343Y-67519612D01*
X49926740Y-67500750D01*
X49926740Y-66745800D01*
X49877457Y-66498035D01*
X49737109Y-66287991D01*
X49527065Y-66147643D01*
X49279300Y-66098360D01*
X47279300Y-66098360D01*
X47031535Y-66147643D01*
X46821491Y-66287991D01*
X46681143Y-66498035D01*
X46631860Y-66745800D01*
X46631860Y-67331001D01*
X44690880Y-69271980D01*
X44336457Y-69802412D01*
X44211999Y-70428100D01*
X15913127Y-70428100D01*
X16046220Y-70107577D01*
X16046370Y-69935798D01*
X17412800Y-69935798D01*
X17703639Y-69877946D01*
X17950201Y-69713199D01*
X18911965Y-68751435D01*
X19077169Y-68751579D01*
X19457713Y-68594342D01*
X19749117Y-68303446D01*
X19907018Y-67923177D01*
X19907377Y-67511429D01*
X19750140Y-67130885D01*
X19459244Y-66839481D01*
X19078975Y-66681580D01*
X18667227Y-66681221D01*
X18286683Y-66838458D01*
X18243783Y-66881284D01*
X17885177Y-66732378D01*
X17473429Y-66732019D01*
X17092885Y-66889256D01*
X16878180Y-67103587D01*
X16665246Y-66890281D01*
X16284977Y-66732380D01*
X15873229Y-66732021D01*
X15492685Y-66889258D01*
X15201281Y-67180154D01*
X15125440Y-67362800D01*
X10427200Y-67362800D01*
X10184614Y-67411054D01*
X10136360Y-67420652D01*
X9889799Y-67585399D01*
X5562969Y-71912229D01*
X5397765Y-71801843D01*
X5150000Y-71752560D01*
X3850000Y-71752560D01*
X3602235Y-71801843D01*
X3392191Y-71942191D01*
X3251843Y-72152235D01*
X3202560Y-72400000D01*
X735000Y-72400000D01*
X735000Y-64732000D01*
X3765799Y-64732000D01*
X3775200Y-64779262D01*
X3775200Y-67208400D01*
X3899657Y-67834087D01*
X4254080Y-68364520D01*
X4784513Y-68718943D01*
X5410200Y-68843400D01*
X6035887Y-68718943D01*
X6566320Y-68364520D01*
X6920743Y-67834087D01*
X7045200Y-67208400D01*
X7045200Y-64808200D01*
X37928799Y-64808200D01*
X37938200Y-64855462D01*
X37938200Y-67233795D01*
X37938199Y-67233800D01*
X38062657Y-67859488D01*
X38417080Y-68389920D01*
X38442480Y-68415320D01*
X38972912Y-68769743D01*
X39598600Y-68894201D01*
X40224288Y-68769743D01*
X40754720Y-68415320D01*
X41109143Y-67884888D01*
X41233601Y-67259200D01*
X41208200Y-67131501D01*
X41208200Y-64817605D01*
X41208201Y-64817600D01*
X41083743Y-64191913D01*
X41026546Y-64106312D01*
X40729320Y-63661480D01*
X40729317Y-63661478D01*
X40719920Y-63652080D01*
X40189488Y-63297657D01*
X39563800Y-63173199D01*
X38938112Y-63297657D01*
X38407680Y-63652080D01*
X38053257Y-64182512D01*
X37928799Y-64808200D01*
X7045200Y-64808200D01*
X7045200Y-64741405D01*
X7045201Y-64741400D01*
X6920743Y-64115713D01*
X6732643Y-63834201D01*
X6566320Y-63585280D01*
X6566317Y-63585278D01*
X6556920Y-63575880D01*
X6026488Y-63221457D01*
X5400800Y-63096999D01*
X4775112Y-63221457D01*
X4244680Y-63575880D01*
X3890257Y-64106312D01*
X3765799Y-64732000D01*
X735000Y-64732000D01*
X735000Y-51130200D01*
X2103811Y-51130200D01*
X1843880Y-51303880D01*
X1843880Y-51303880D01*
G37*
X1843880Y-51303880D02*
X1489457Y-51834313D01*
X1365000Y-52460000D01*
X1489457Y-53085687D01*
X1843880Y-53616120D01*
X1949789Y-53686886D01*
X1792191Y-53792191D01*
X1651843Y-54002235D01*
X1615293Y-54185985D01*
X1489457Y-54374313D01*
X1365000Y-55000000D01*
X1365000Y-57581195D01*
X1364999Y-57581200D01*
X1489457Y-58206888D01*
X1843880Y-58737320D01*
X4244680Y-61138120D01*
X4775112Y-61492543D01*
X5400800Y-61617001D01*
X6026488Y-61492543D01*
X6500804Y-61175615D01*
X6975121Y-61492543D01*
X7600808Y-61617000D01*
X8226495Y-61492543D01*
X8756928Y-61138120D01*
X9111351Y-60607687D01*
X9235808Y-59982000D01*
X9235808Y-56000148D01*
X9111351Y-55374461D01*
X8756928Y-54844028D01*
X8756925Y-54844026D01*
X5216780Y-51303880D01*
X4956849Y-51130200D01*
X16359998Y-51130200D01*
X16237638Y-51252560D01*
X16065000Y-51252560D01*
X15817235Y-51301843D01*
X15607191Y-51442191D01*
X15466843Y-51652235D01*
X15417560Y-51900000D01*
X15417560Y-53400000D01*
X15466843Y-53647765D01*
X15587394Y-53828181D01*
X15475180Y-54098423D01*
X15474821Y-54510171D01*
X15543859Y-54677257D01*
X15208235Y-54341633D01*
X15208379Y-54176429D01*
X15051142Y-53795885D01*
X14933200Y-53677737D01*
X14933200Y-52998200D01*
X14875348Y-52707361D01*
X14772440Y-52553348D01*
X14772440Y-51900000D01*
X14723157Y-51652235D01*
X14582809Y-51442191D01*
X14372765Y-51301843D01*
X14125000Y-51252560D01*
X13525000Y-51252560D01*
X13277235Y-51301843D01*
X13067191Y-51442191D01*
X12926843Y-51652235D01*
X12877560Y-51900000D01*
X12877560Y-53400000D01*
X12926843Y-53647765D01*
X13067191Y-53857809D01*
X13225898Y-53963855D01*
X13138380Y-54174623D01*
X13138021Y-54586371D01*
X13295258Y-54966915D01*
X13586154Y-55258319D01*
X13791793Y-55343707D01*
X13763243Y-55386435D01*
X13713960Y-55634200D01*
X13713960Y-56606838D01*
X13407133Y-56913665D01*
X13054285Y-57059458D01*
X12762881Y-57350354D01*
X12604980Y-57730623D01*
X12604621Y-58142371D01*
X12761858Y-58522915D01*
X13052754Y-58814319D01*
X13433023Y-58972220D01*
X13713960Y-58972465D01*
X13713960Y-59834200D01*
X13763243Y-60081965D01*
X13903591Y-60292009D01*
X14113635Y-60432357D01*
X14276800Y-60464812D01*
X14276800Y-60662639D01*
X14159881Y-60779354D01*
X14001980Y-61159623D01*
X14001621Y-61571371D01*
X14158858Y-61951915D01*
X14449754Y-62243319D01*
X14830023Y-62401220D01*
X15241771Y-62401579D01*
X15622315Y-62244342D01*
X15913719Y-61953446D01*
X16071620Y-61573177D01*
X16071979Y-61161429D01*
X15914742Y-60780885D01*
X15796800Y-60662737D01*
X15796800Y-60454708D01*
X15909165Y-60432357D01*
X15982907Y-60383084D01*
X16018635Y-60406957D01*
X16266400Y-60456240D01*
X17566400Y-60456240D01*
X17814165Y-60406957D01*
X17868900Y-60370384D01*
X17923635Y-60406957D01*
X18171400Y-60456240D01*
X19471400Y-60456240D01*
X19719165Y-60406957D01*
X19929209Y-60266609D01*
X20047219Y-60089996D01*
X20257161Y-60090179D01*
X20637705Y-59932942D01*
X20929109Y-59642046D01*
X21087010Y-59261777D01*
X21087369Y-58850029D01*
X20930132Y-58469485D01*
X20639236Y-58178081D01*
X20258967Y-58020180D01*
X20042132Y-58019991D01*
X19929209Y-57850991D01*
X19719165Y-57710643D01*
X19709900Y-57708800D01*
X19719165Y-57706957D01*
X19929209Y-57566609D01*
X20069557Y-57356565D01*
X20118840Y-57108800D01*
X20118840Y-55608800D01*
X20069557Y-55361035D01*
X20004625Y-55263858D01*
X20372571Y-55264179D01*
X20753115Y-55106942D01*
X21044519Y-54816046D01*
X21202420Y-54435777D01*
X21202779Y-54024029D01*
X21057186Y-53671667D01*
X21073157Y-53647765D01*
X21122440Y-53400000D01*
X21122440Y-51900000D01*
X21121443Y-51894990D01*
X29435149Y-51894990D01*
X29371991Y-51937191D01*
X29231643Y-52147235D01*
X29182360Y-52395000D01*
X29182360Y-54300000D01*
X29231643Y-54547765D01*
X29371991Y-54757809D01*
X29415200Y-54786681D01*
X29415200Y-58427439D01*
X29298281Y-58544154D01*
X29140380Y-58924423D01*
X29140021Y-59336171D01*
X29297258Y-59716715D01*
X29588154Y-60008119D01*
X29968423Y-60166020D01*
X30380171Y-60166379D01*
X30760715Y-60009142D01*
X30784609Y-59985290D01*
X30832754Y-60033519D01*
X31213023Y-60191420D01*
X31624771Y-60191779D01*
X32005315Y-60034542D01*
X32296719Y-59743646D01*
X32454620Y-59363377D01*
X32454979Y-58951629D01*
X32297742Y-58571085D01*
X32179800Y-58452937D01*
X32179800Y-57169911D01*
X32483023Y-57295820D01*
X32894771Y-57296179D01*
X33275315Y-57138942D01*
X33566719Y-56848046D01*
X33724620Y-56467777D01*
X33724979Y-56056029D01*
X33567742Y-55675485D01*
X33449800Y-55557337D01*
X33449800Y-54769709D01*
X33467609Y-54757809D01*
X33607957Y-54547765D01*
X33657240Y-54300000D01*
X33657240Y-52395000D01*
X33607957Y-52147235D01*
X33467609Y-51937191D01*
X33404451Y-51894990D01*
X35477388Y-51894990D01*
X35365000Y-52460000D01*
X35489457Y-53085687D01*
X35843880Y-53616120D01*
X35949789Y-53686886D01*
X35792191Y-53792191D01*
X35651843Y-54002235D01*
X35615293Y-54185985D01*
X35489457Y-54374313D01*
X35365000Y-55000000D01*
X35365000Y-57494395D01*
X35364999Y-57494400D01*
X35489457Y-58120088D01*
X35843880Y-58650520D01*
X38407681Y-61214320D01*
X38938113Y-61568743D01*
X39563800Y-61693201D01*
X40189488Y-61568743D01*
X40663804Y-61251815D01*
X41138121Y-61568743D01*
X41763808Y-61693200D01*
X42389495Y-61568743D01*
X42919928Y-61214320D01*
X43274351Y-60683887D01*
X43398808Y-60058200D01*
X43398808Y-56163148D01*
X43385245Y-56094960D01*
X43274351Y-55537460D01*
X43066120Y-55225821D01*
X42919928Y-55007028D01*
X42919925Y-55007026D01*
X39807890Y-51894990D01*
X46878557Y-51894990D01*
X46877560Y-51900000D01*
X46877560Y-53400000D01*
X46926108Y-53644071D01*
X46790180Y-53971423D01*
X46789821Y-54383171D01*
X46947058Y-54763715D01*
X47065000Y-54881863D01*
X47065000Y-55655400D01*
X47122852Y-55946239D01*
X47287599Y-56192801D01*
X48143399Y-57048601D01*
X48283360Y-57142120D01*
X48283360Y-57261200D01*
X48332643Y-57508965D01*
X48472991Y-57719009D01*
X48683035Y-57859357D01*
X48692300Y-57861200D01*
X48683035Y-57863043D01*
X48472991Y-58003391D01*
X48332643Y-58213435D01*
X48283360Y-58461200D01*
X48283360Y-59961200D01*
X48332643Y-60208965D01*
X48472991Y-60419009D01*
X48683035Y-60559357D01*
X48820800Y-60586760D01*
X48820800Y-62593039D01*
X48703881Y-62709754D01*
X48545980Y-63090023D01*
X48545621Y-63501771D01*
X48702858Y-63882315D01*
X48993754Y-64173719D01*
X49374023Y-64331620D01*
X49785771Y-64331979D01*
X50166315Y-64174742D01*
X50457719Y-63883846D01*
X50615620Y-63503577D01*
X50615979Y-63091829D01*
X50458742Y-62711285D01*
X50340800Y-62593137D01*
X50340800Y-60586760D01*
X50478565Y-60559357D01*
X50603107Y-60476140D01*
X50689635Y-60533957D01*
X50937400Y-60583240D01*
X52237400Y-60583240D01*
X52485165Y-60533957D01*
X52552600Y-60488898D01*
X52620035Y-60533957D01*
X52867800Y-60583240D01*
X54167800Y-60583240D01*
X54415565Y-60533957D01*
X54625609Y-60393609D01*
X54752530Y-60203660D01*
X54784223Y-60216820D01*
X55195971Y-60217179D01*
X55576515Y-60059942D01*
X55867919Y-59769046D01*
X56025820Y-59388777D01*
X56026179Y-58977029D01*
X55868942Y-58596485D01*
X55578046Y-58305081D01*
X55197777Y-58147180D01*
X54786029Y-58146821D01*
X54748719Y-58162237D01*
X54625609Y-57977991D01*
X54415565Y-57837643D01*
X54406300Y-57835800D01*
X54415565Y-57833957D01*
X54625609Y-57693609D01*
X54765957Y-57483565D01*
X54815240Y-57235800D01*
X54815240Y-55735800D01*
X54765957Y-55488035D01*
X54625609Y-55277991D01*
X54483593Y-55183098D01*
X54555553Y-55183161D01*
X54936097Y-55025924D01*
X55227501Y-54735028D01*
X55385402Y-54354759D01*
X55385761Y-53943011D01*
X55228524Y-53562467D01*
X55113119Y-53446860D01*
X55122440Y-53400000D01*
X55122440Y-51900000D01*
X55073157Y-51652235D01*
X54932809Y-51442191D01*
X54722765Y-51301843D01*
X54475000Y-51252560D01*
X53875000Y-51252560D01*
X53627235Y-51301843D01*
X53615454Y-51309715D01*
X53607148Y-51267961D01*
X53515099Y-51130200D01*
X59265000Y-51130200D01*
X59265000Y-92927610D01*
X58927043Y-94626634D01*
X58005629Y-96005629D01*
X56626634Y-96927043D01*
X54927610Y-97265000D01*
X5072390Y-97265000D01*
X3373366Y-96927043D01*
X1994371Y-96005629D01*
X1072957Y-94626634D01*
X849260Y-93502031D01*
X2464561Y-93502031D01*
X2849678Y-94434086D01*
X3562163Y-95147816D01*
X4493545Y-95534559D01*
X5502031Y-95535439D01*
X6434086Y-95150322D01*
X7147816Y-94437837D01*
X7534559Y-93506455D01*
X7535439Y-92497969D01*
X7150322Y-91565914D01*
X6437837Y-90852184D01*
X6293621Y-90792300D01*
X9571391Y-90792300D01*
X9695848Y-91417987D01*
X10050271Y-91948420D01*
X10220705Y-92062300D01*
X10050271Y-92176180D01*
X9695848Y-92706613D01*
X9571391Y-93332300D01*
X9695848Y-93957987D01*
X10050271Y-94488420D01*
X10580704Y-94842843D01*
X11206391Y-94967300D01*
X11882209Y-94967300D01*
X12507896Y-94842843D01*
X13038329Y-94488420D01*
X13392752Y-93957987D01*
X13517209Y-93332300D01*
X13484548Y-93168100D01*
X19609960Y-93168100D01*
X19609960Y-94868100D01*
X19659243Y-95115865D01*
X19799591Y-95325909D01*
X20009635Y-95466257D01*
X20257400Y-95515540D01*
X21957400Y-95515540D01*
X22205165Y-95466257D01*
X22415209Y-95325909D01*
X22555557Y-95115865D01*
X22570414Y-95041175D01*
X22805117Y-95276288D01*
X23350719Y-95502842D01*
X23941489Y-95503357D01*
X24487486Y-95277756D01*
X24905588Y-94860383D01*
X24917148Y-94832543D01*
X24927744Y-94858186D01*
X25345117Y-95276288D01*
X25890719Y-95502842D01*
X26481489Y-95503357D01*
X27027486Y-95277756D01*
X27445588Y-94860383D01*
X27457148Y-94832543D01*
X27467744Y-94858186D01*
X27885117Y-95276288D01*
X28430719Y-95502842D01*
X29021489Y-95503357D01*
X29567486Y-95277756D01*
X29985588Y-94860383D01*
X29997148Y-94832543D01*
X30007744Y-94858186D01*
X30425117Y-95276288D01*
X30970719Y-95502842D01*
X31561489Y-95503357D01*
X31643832Y-95469334D01*
X33003299Y-96828801D01*
X33249861Y-96993548D01*
X33540700Y-97051400D01*
X40926600Y-97051400D01*
X41217439Y-96993548D01*
X41464001Y-96828801D01*
X46710801Y-91582001D01*
X46804320Y-91442040D01*
X46923400Y-91442040D01*
X47171165Y-91392757D01*
X47381209Y-91252409D01*
X47521557Y-91042365D01*
X47523400Y-91033100D01*
X47525243Y-91042365D01*
X47665591Y-91252409D01*
X47875635Y-91392757D01*
X48113400Y-91440051D01*
X48113400Y-91570560D01*
X47188600Y-91570560D01*
X46940835Y-91619843D01*
X46730791Y-91760191D01*
X46590443Y-91970235D01*
X46541160Y-92218000D01*
X46541160Y-94218000D01*
X46590443Y-94465765D01*
X46730791Y-94675809D01*
X46940835Y-94816157D01*
X47188600Y-94865440D01*
X49788600Y-94865440D01*
X50036365Y-94816157D01*
X50246409Y-94675809D01*
X50386757Y-94465765D01*
X50436040Y-94218000D01*
X50436040Y-93502031D01*
X52464561Y-93502031D01*
X52849678Y-94434086D01*
X53562163Y-95147816D01*
X54493545Y-95534559D01*
X55502031Y-95535439D01*
X56434086Y-95150322D01*
X57147816Y-94437837D01*
X57534559Y-93506455D01*
X57535439Y-92497969D01*
X57150322Y-91565914D01*
X56437837Y-90852184D01*
X55506455Y-90465441D01*
X54497969Y-90464561D01*
X53565914Y-90849678D01*
X52852184Y-91562163D01*
X52465441Y-92493545D01*
X52464561Y-93502031D01*
X50436040Y-93502031D01*
X50436040Y-92218000D01*
X50386757Y-91970235D01*
X50246409Y-91760191D01*
X50036365Y-91619843D01*
X49788600Y-91570560D01*
X49633400Y-91570560D01*
X49633400Y-91440051D01*
X49871165Y-91392757D01*
X50081209Y-91252409D01*
X50221557Y-91042365D01*
X50270840Y-90794600D01*
X50270840Y-89494600D01*
X50221557Y-89246835D01*
X50184984Y-89192100D01*
X50221557Y-89137365D01*
X50270840Y-88889600D01*
X50270840Y-87589600D01*
X50221557Y-87341835D01*
X50123885Y-87195660D01*
X50170840Y-86959600D01*
X50170840Y-85709600D01*
X50121557Y-85461835D01*
X49981209Y-85251791D01*
X49771165Y-85111443D01*
X49523400Y-85062160D01*
X48023400Y-85062160D01*
X47775635Y-85111443D01*
X47565591Y-85251791D01*
X47425243Y-85461835D01*
X47375960Y-85709600D01*
X47375960Y-86959600D01*
X47422503Y-87193592D01*
X47381209Y-87131791D01*
X47171165Y-86991443D01*
X46923400Y-86942160D01*
X45423400Y-86942160D01*
X45175635Y-86991443D01*
X44965591Y-87131791D01*
X44909992Y-87215001D01*
X44885377Y-87204780D01*
X44473629Y-87204421D01*
X44093085Y-87361658D01*
X43801681Y-87652554D01*
X43643780Y-88032823D01*
X43643421Y-88444571D01*
X43800658Y-88825115D01*
X44091554Y-89116519D01*
X44471823Y-89274420D01*
X44819696Y-89274723D01*
X44775960Y-89494600D01*
X44775960Y-90794600D01*
X44825243Y-91042365D01*
X44935629Y-91207569D01*
X43039126Y-93104072D01*
X43138600Y-92603981D01*
X43138600Y-86440000D01*
X43014143Y-85814313D01*
X42659720Y-85283880D01*
X42634838Y-85267254D01*
X42611409Y-85232191D01*
X42401365Y-85091843D01*
X42392100Y-85090000D01*
X42401365Y-85088157D01*
X42611409Y-84947809D01*
X42634838Y-84912746D01*
X42659720Y-84896120D01*
X42754362Y-84754478D01*
X44107517Y-83401322D01*
X44107520Y-83401320D01*
X44461943Y-82870887D01*
X44586400Y-82245200D01*
X44461943Y-81619513D01*
X44107520Y-81089080D01*
X43577087Y-80734657D01*
X42951400Y-80610200D01*
X40005005Y-80610200D01*
X40005000Y-80610199D01*
X39379312Y-80734657D01*
X38848880Y-81089080D01*
X38494457Y-81619512D01*
X38369999Y-82245200D01*
X38494457Y-82870888D01*
X38848880Y-83401320D01*
X40343678Y-84896117D01*
X40343680Y-84896120D01*
X40375427Y-84917333D01*
X40395791Y-84947809D01*
X40605835Y-85088157D01*
X40615100Y-85090000D01*
X40605835Y-85091843D01*
X40395791Y-85232191D01*
X40372362Y-85267254D01*
X40347480Y-85283880D01*
X39993057Y-85814313D01*
X39868600Y-86440000D01*
X39868600Y-91926742D01*
X39412241Y-92383100D01*
X36347400Y-92383100D01*
X35721713Y-92507557D01*
X35191280Y-92861980D01*
X35014974Y-93125841D01*
X34649683Y-92759912D01*
X34621843Y-92748352D01*
X34647486Y-92737756D01*
X35065588Y-92320383D01*
X35292142Y-91774781D01*
X35292657Y-91184011D01*
X35067056Y-90638014D01*
X34649683Y-90219912D01*
X34104081Y-89993358D01*
X33513311Y-89992843D01*
X32967314Y-90218444D01*
X32549212Y-90635817D01*
X32322658Y-91181419D01*
X32322143Y-91772189D01*
X32547744Y-92318186D01*
X32965117Y-92736288D01*
X32992957Y-92747848D01*
X32967314Y-92758444D01*
X32549212Y-93175817D01*
X32537652Y-93203657D01*
X32527056Y-93178014D01*
X32109683Y-92759912D01*
X31564081Y-92533358D01*
X30973311Y-92532843D01*
X30427314Y-92758444D01*
X30009212Y-93175817D01*
X29997652Y-93203657D01*
X29987056Y-93178014D01*
X29569683Y-92759912D01*
X29541843Y-92748352D01*
X29567486Y-92737756D01*
X29985588Y-92320383D01*
X30212142Y-91774781D01*
X30212657Y-91184011D01*
X29987056Y-90638014D01*
X29569683Y-90219912D01*
X29024081Y-89993358D01*
X28433311Y-89992843D01*
X27887314Y-90218444D01*
X27469212Y-90635817D01*
X27457652Y-90663657D01*
X27447056Y-90638014D01*
X27029683Y-90219912D01*
X26484081Y-89993358D01*
X25893311Y-89992843D01*
X25677400Y-90082055D01*
X25677400Y-79265961D01*
X25794319Y-79149246D01*
X25952220Y-78768977D01*
X25952286Y-78693260D01*
X44363740Y-78693260D01*
X44363740Y-80193260D01*
X44413023Y-80441025D01*
X44553371Y-80651069D01*
X44763415Y-80791417D01*
X45011180Y-80840700D01*
X46261180Y-80840700D01*
X46508945Y-80791417D01*
X46718989Y-80651069D01*
X46727900Y-80637732D01*
X46728643Y-80641465D01*
X46811621Y-80765650D01*
X46728643Y-80889835D01*
X46679360Y-81137600D01*
X46679360Y-82387600D01*
X46728643Y-82635365D01*
X46868991Y-82845409D01*
X47079035Y-82985757D01*
X47326800Y-83035040D01*
X48826800Y-83035040D01*
X49074565Y-82985757D01*
X49284609Y-82845409D01*
X49424957Y-82635365D01*
X49474240Y-82387600D01*
X49474240Y-81137600D01*
X49424957Y-80889835D01*
X49341979Y-80765650D01*
X49424957Y-80641465D01*
X49474240Y-80393700D01*
X49474240Y-79143700D01*
X49424957Y-78895935D01*
X49286446Y-78688640D01*
X49528800Y-78688640D01*
X49776565Y-78639357D01*
X49986609Y-78499009D01*
X50126957Y-78288965D01*
X50176240Y-78041200D01*
X50176240Y-76841200D01*
X50126957Y-76593435D01*
X49986609Y-76383391D01*
X49776565Y-76243043D01*
X49528800Y-76193760D01*
X48786492Y-76193760D01*
X48548966Y-75956234D01*
X48398144Y-75855458D01*
X48180746Y-75710197D01*
X47746400Y-75623800D01*
X46736694Y-75623800D01*
X46609000Y-75598400D01*
X45720000Y-75598400D01*
X45285654Y-75684797D01*
X44917434Y-75930834D01*
X44671397Y-76299054D01*
X44585000Y-76733400D01*
X44585000Y-77335629D01*
X44501180Y-77757020D01*
X44501180Y-78313560D01*
X44413023Y-78445495D01*
X44363740Y-78693260D01*
X25952286Y-78693260D01*
X25952579Y-78357229D01*
X25795342Y-77976685D01*
X25504446Y-77685281D01*
X25124177Y-77527380D01*
X24712429Y-77527021D01*
X24331885Y-77684258D01*
X24282569Y-77733488D01*
X24234446Y-77685281D01*
X23854177Y-77527380D01*
X23442429Y-77527021D01*
X23061885Y-77684258D01*
X22770481Y-77975154D01*
X22612580Y-78355423D01*
X22612221Y-78767171D01*
X22769458Y-79147715D01*
X22887400Y-79265863D01*
X22887400Y-90185353D01*
X22807314Y-90218444D01*
X22389212Y-90635817D01*
X22377652Y-90663657D01*
X22367056Y-90638014D01*
X21949683Y-90219912D01*
X21404081Y-89993358D01*
X20813311Y-89992843D01*
X20267314Y-90218444D01*
X19849212Y-90635817D01*
X19622658Y-91181419D01*
X19622143Y-91772189D01*
X19847744Y-92318186D01*
X20084247Y-92555102D01*
X20009635Y-92569943D01*
X19799591Y-92710291D01*
X19659243Y-92920335D01*
X19609960Y-93168100D01*
X13484548Y-93168100D01*
X13392752Y-92706613D01*
X13038329Y-92176180D01*
X12867895Y-92062300D01*
X13038329Y-91948420D01*
X13392752Y-91417987D01*
X13517209Y-90792300D01*
X13392752Y-90166613D01*
X13153898Y-89809141D01*
X13302109Y-89710109D01*
X13442457Y-89500065D01*
X13491740Y-89252300D01*
X13491740Y-87252300D01*
X13442457Y-87004535D01*
X13302109Y-86794491D01*
X13092065Y-86654143D01*
X12844300Y-86604860D01*
X10244300Y-86604860D01*
X9996535Y-86654143D01*
X9786491Y-86794491D01*
X9646143Y-87004535D01*
X9596860Y-87252300D01*
X9596860Y-89252300D01*
X9646143Y-89500065D01*
X9786491Y-89710109D01*
X9934702Y-89809141D01*
X9695848Y-90166613D01*
X9571391Y-90792300D01*
X6293621Y-90792300D01*
X5506455Y-90465441D01*
X4497969Y-90464561D01*
X3565914Y-90849678D01*
X2852184Y-91562163D01*
X2465441Y-92493545D01*
X2464561Y-93502031D01*
X849260Y-93502031D01*
X735000Y-92927610D01*
X735000Y-72400000D01*
X3202560Y-72400000D01*
X3202560Y-73900000D01*
X3251843Y-74147765D01*
X3392191Y-74357809D01*
X3602235Y-74498157D01*
X3611500Y-74500000D01*
X3602235Y-74501843D01*
X3392191Y-74642191D01*
X3251843Y-74852235D01*
X3202560Y-75100000D01*
X3202560Y-76600000D01*
X3251843Y-76847765D01*
X3353564Y-77000000D01*
X3251843Y-77152235D01*
X3202560Y-77400000D01*
X3202560Y-78900000D01*
X3251843Y-79147765D01*
X3392191Y-79357809D01*
X3602235Y-79498157D01*
X3611500Y-79500000D01*
X3602235Y-79501843D01*
X3392191Y-79642191D01*
X3251843Y-79852235D01*
X3202560Y-80100000D01*
X3202560Y-81600000D01*
X3251843Y-81847765D01*
X3392191Y-82057809D01*
X3602235Y-82198157D01*
X3628798Y-82203441D01*
X3486380Y-82546423D01*
X3486021Y-82958171D01*
X3643258Y-83338715D01*
X3934154Y-83630119D01*
X4314423Y-83788020D01*
X4726171Y-83788379D01*
X5106715Y-83631142D01*
X5398119Y-83340246D01*
X5556020Y-82959977D01*
X5556379Y-82548229D01*
X5408711Y-82190843D01*
X5607809Y-82057809D01*
X5748157Y-81847765D01*
X5797440Y-81600000D01*
X5797440Y-80100000D01*
X5748157Y-79852235D01*
X5607809Y-79642191D01*
X5397765Y-79501843D01*
X5388500Y-79500000D01*
X5397765Y-79498157D01*
X5607809Y-79357809D01*
X5748157Y-79147765D01*
X5797440Y-78900000D01*
X5797440Y-77400000D01*
X5748157Y-77152235D01*
X5646436Y-77000000D01*
X5748157Y-76847765D01*
X5797440Y-76600000D01*
X5797440Y-75100000D01*
X5748157Y-74852235D01*
X5607809Y-74642191D01*
X5397765Y-74501843D01*
X5388500Y-74500000D01*
X5397765Y-74498157D01*
X5607809Y-74357809D01*
X5748157Y-74147765D01*
X5797440Y-73900000D01*
X5797440Y-73780920D01*
X5937401Y-73687401D01*
X10742002Y-68882800D01*
X13092398Y-68882800D01*
X10062969Y-71912229D01*
X9897765Y-71801843D01*
X9650000Y-71752560D01*
X8350000Y-71752560D01*
X8102235Y-71801843D01*
X7892191Y-71942191D01*
X7751843Y-72152235D01*
X7702560Y-72400000D01*
X7702560Y-73900000D01*
X7751843Y-74147765D01*
X7892191Y-74357809D01*
X8102235Y-74498157D01*
X8111500Y-74500000D01*
X8102235Y-74501843D01*
X7892191Y-74642191D01*
X7751843Y-74852235D01*
X7702560Y-75100000D01*
X7702560Y-76600000D01*
X7751843Y-76847765D01*
X7853564Y-77000000D01*
X7751843Y-77152235D01*
X7702560Y-77400000D01*
X7702560Y-78900000D01*
X7751843Y-79147765D01*
X7892191Y-79357809D01*
X8102235Y-79498157D01*
X8111500Y-79500000D01*
X8102235Y-79501843D01*
X7892191Y-79642191D01*
X7751843Y-79852235D01*
X7702560Y-80100000D01*
X7702560Y-81600000D01*
X7751843Y-81847765D01*
X7892191Y-82057809D01*
X8081692Y-82184430D01*
X7931380Y-82546423D01*
X7931021Y-82958171D01*
X8088258Y-83338715D01*
X8379154Y-83630119D01*
X8759423Y-83788020D01*
X9171171Y-83788379D01*
X9551715Y-83631142D01*
X9843119Y-83340246D01*
X10001020Y-82959977D01*
X10001379Y-82548229D01*
X9859849Y-82205699D01*
X9897765Y-82198157D01*
X10107809Y-82057809D01*
X10248157Y-81847765D01*
X10297440Y-81600000D01*
X10297440Y-80100000D01*
X10248157Y-79852235D01*
X10107809Y-79642191D01*
X9897765Y-79501843D01*
X9888500Y-79500000D01*
X9897765Y-79498157D01*
X10041009Y-79402444D01*
X10145658Y-79655715D01*
X10436554Y-79947119D01*
X10816823Y-80105020D01*
X11076400Y-80105246D01*
X11076400Y-84767239D01*
X10959481Y-84883954D01*
X10801580Y-85264223D01*
X10801221Y-85675971D01*
X10958458Y-86056515D01*
X11249354Y-86347919D01*
X11629623Y-86505820D01*
X12041371Y-86506179D01*
X12421915Y-86348942D01*
X12713319Y-86058046D01*
X12871220Y-85677777D01*
X12871579Y-85266029D01*
X12714342Y-84885485D01*
X12596400Y-84767337D01*
X12596400Y-83351079D01*
X12874954Y-83630119D01*
X13255223Y-83788020D01*
X13666971Y-83788379D01*
X14047515Y-83631142D01*
X14249497Y-83429512D01*
X14449754Y-83630119D01*
X14830023Y-83788020D01*
X15241771Y-83788379D01*
X15622315Y-83631142D01*
X15913719Y-83340246D01*
X16071620Y-82959977D01*
X16071979Y-82548229D01*
X15914742Y-82167685D01*
X15796800Y-82049537D01*
X15796800Y-70579205D01*
X15888319Y-70487846D01*
X15913127Y-70428100D01*
X44211999Y-70428100D01*
X44212000Y-70428105D01*
X44212000Y-72740195D01*
X44211999Y-72740200D01*
X44212000Y-72740205D01*
X44212000Y-72847200D01*
X44336457Y-73472887D01*
X44690880Y-74003320D01*
X45221313Y-74357743D01*
X45847000Y-74482200D01*
X48257870Y-74482200D01*
X48428800Y-74516200D01*
X49054487Y-74391743D01*
X49105273Y-74357809D01*
X49448250Y-74128640D01*
X49528800Y-74128640D01*
X49776565Y-74079357D01*
X49986609Y-73939009D01*
X50126957Y-73728965D01*
X50176240Y-73481200D01*
X50176240Y-72281200D01*
X50126957Y-72033435D01*
X50063800Y-71938915D01*
X50063800Y-68145305D01*
X50063801Y-68145300D01*
X49939343Y-67519612D01*
X49926740Y-67500750D01*
X49926740Y-66745800D01*
X49877457Y-66498035D01*
X49737109Y-66287991D01*
X49527065Y-66147643D01*
X49279300Y-66098360D01*
X47279300Y-66098360D01*
X47031535Y-66147643D01*
X46821491Y-66287991D01*
X46681143Y-66498035D01*
X46631860Y-66745800D01*
X46631860Y-67331001D01*
X44690880Y-69271980D01*
X44336457Y-69802412D01*
X44211999Y-70428100D01*
X15913127Y-70428100D01*
X16046220Y-70107577D01*
X16046370Y-69935798D01*
X17412800Y-69935798D01*
X17703639Y-69877946D01*
X17950201Y-69713199D01*
X18911965Y-68751435D01*
X19077169Y-68751579D01*
X19457713Y-68594342D01*
X19749117Y-68303446D01*
X19907018Y-67923177D01*
X19907377Y-67511429D01*
X19750140Y-67130885D01*
X19459244Y-66839481D01*
X19078975Y-66681580D01*
X18667227Y-66681221D01*
X18286683Y-66838458D01*
X18243783Y-66881284D01*
X17885177Y-66732378D01*
X17473429Y-66732019D01*
X17092885Y-66889256D01*
X16878180Y-67103587D01*
X16665246Y-66890281D01*
X16284977Y-66732380D01*
X15873229Y-66732021D01*
X15492685Y-66889258D01*
X15201281Y-67180154D01*
X15125440Y-67362800D01*
X10427200Y-67362800D01*
X10184614Y-67411054D01*
X10136360Y-67420652D01*
X9889799Y-67585399D01*
X5562969Y-71912229D01*
X5397765Y-71801843D01*
X5150000Y-71752560D01*
X3850000Y-71752560D01*
X3602235Y-71801843D01*
X3392191Y-71942191D01*
X3251843Y-72152235D01*
X3202560Y-72400000D01*
X735000Y-72400000D01*
X735000Y-64732000D01*
X3765799Y-64732000D01*
X3775200Y-64779262D01*
X3775200Y-67208400D01*
X3899657Y-67834087D01*
X4254080Y-68364520D01*
X4784513Y-68718943D01*
X5410200Y-68843400D01*
X6035887Y-68718943D01*
X6566320Y-68364520D01*
X6920743Y-67834087D01*
X7045200Y-67208400D01*
X7045200Y-64808200D01*
X37928799Y-64808200D01*
X37938200Y-64855462D01*
X37938200Y-67233795D01*
X37938199Y-67233800D01*
X38062657Y-67859488D01*
X38417080Y-68389920D01*
X38442480Y-68415320D01*
X38972912Y-68769743D01*
X39598600Y-68894201D01*
X40224288Y-68769743D01*
X40754720Y-68415320D01*
X41109143Y-67884888D01*
X41233601Y-67259200D01*
X41208200Y-67131501D01*
X41208200Y-64817605D01*
X41208201Y-64817600D01*
X41083743Y-64191913D01*
X41026546Y-64106312D01*
X40729320Y-63661480D01*
X40729317Y-63661478D01*
X40719920Y-63652080D01*
X40189488Y-63297657D01*
X39563800Y-63173199D01*
X38938112Y-63297657D01*
X38407680Y-63652080D01*
X38053257Y-64182512D01*
X37928799Y-64808200D01*
X7045200Y-64808200D01*
X7045200Y-64741405D01*
X7045201Y-64741400D01*
X6920743Y-64115713D01*
X6732643Y-63834201D01*
X6566320Y-63585280D01*
X6566317Y-63585278D01*
X6556920Y-63575880D01*
X6026488Y-63221457D01*
X5400800Y-63096999D01*
X4775112Y-63221457D01*
X4244680Y-63575880D01*
X3890257Y-64106312D01*
X3765799Y-64732000D01*
X735000Y-64732000D01*
X735000Y-51130200D01*
X2103811Y-51130200D01*
X1843880Y-51303880D01*
G36*
X49417560Y-51900000D02*
X49417560Y-53400000D01*
X49466843Y-53647765D01*
X49596464Y-53841755D01*
X49491281Y-53946754D01*
X49333380Y-54327023D01*
X49333021Y-54738771D01*
X49487963Y-55113760D01*
X48930800Y-55113760D01*
X48683035Y-55163043D01*
X48585000Y-55228548D01*
X48585000Y-54881961D01*
X48701919Y-54765246D01*
X48859820Y-54384977D01*
X48860179Y-53973229D01*
X48723984Y-53643610D01*
X48772440Y-53400000D01*
X48772440Y-51900000D01*
X48771443Y-51894990D01*
X49418557Y-51894990D01*
X49417560Y-51900000D01*
X49417560Y-51900000D01*
G37*
X49417560Y-51900000D02*
X49417560Y-53400000D01*
X49466843Y-53647765D01*
X49596464Y-53841755D01*
X49491281Y-53946754D01*
X49333380Y-54327023D01*
X49333021Y-54738771D01*
X49487963Y-55113760D01*
X48930800Y-55113760D01*
X48683035Y-55163043D01*
X48585000Y-55228548D01*
X48585000Y-54881961D01*
X48701919Y-54765246D01*
X48859820Y-54384977D01*
X48860179Y-53973229D01*
X48723984Y-53643610D01*
X48772440Y-53400000D01*
X48772440Y-51900000D01*
X48771443Y-51894990D01*
X49418557Y-51894990D01*
X49417560Y-51900000D01*
G36*
X40115777Y-1320805D02*
X40259000Y-2045138D01*
X40259000Y-15536481D01*
X40261132Y-15559654D01*
X40394304Y-16277257D01*
X40410933Y-16320517D01*
X40792715Y-16942555D01*
X40823758Y-16976967D01*
X41403306Y-17420603D01*
X41423003Y-17432996D01*
X49376200Y-21471406D01*
X49376200Y-21945600D01*
X49452060Y-22326976D01*
X49235000Y-22283800D01*
X47701200Y-22283800D01*
X47266854Y-22370197D01*
X46898634Y-22616234D01*
X46652597Y-22984454D01*
X46566200Y-23418800D01*
X46566200Y-24333200D01*
X46652597Y-24767546D01*
X46693466Y-24828711D01*
X46623154Y-24842697D01*
X46254934Y-25088734D01*
X46008897Y-25456954D01*
X45922500Y-25891300D01*
X45922500Y-27033120D01*
X45915900Y-27066300D01*
X46002297Y-27500646D01*
X46248334Y-27868866D01*
X46616554Y-28114903D01*
X47050900Y-28201300D01*
X47238877Y-28201300D01*
X47160597Y-28318454D01*
X47074200Y-28752800D01*
X47074200Y-29667200D01*
X47160597Y-30101546D01*
X47406634Y-30469766D01*
X47774854Y-30715803D01*
X48209200Y-30802200D01*
X49106600Y-30802200D01*
X49540946Y-30715803D01*
X49712401Y-30601240D01*
X49895000Y-30601240D01*
X50105000Y-30559469D01*
X50105000Y-32081397D01*
X48586199Y-33600199D01*
X48421452Y-33846761D01*
X48363600Y-34137600D01*
X48363600Y-39250191D01*
X48321034Y-39278633D01*
X48292434Y-39307234D01*
X48046397Y-39675454D01*
X47960000Y-40109800D01*
X47960000Y-41952560D01*
X47690000Y-41952560D01*
X47690000Y-41922503D01*
X47806757Y-41747765D01*
X47856040Y-41500000D01*
X47856040Y-40000000D01*
X47806757Y-39752235D01*
X47666409Y-39542191D01*
X47456365Y-39401843D01*
X47208600Y-39352560D01*
X46596492Y-39352560D01*
X46194600Y-38950668D01*
X46194600Y-37147732D01*
X46979766Y-36362566D01*
X47142645Y-36118800D01*
X47225803Y-35994346D01*
X47253548Y-35854864D01*
X47375357Y-35672565D01*
X47424640Y-35424800D01*
X47424640Y-34524800D01*
X47375357Y-34277035D01*
X47235009Y-34066991D01*
X47024965Y-33926643D01*
X46777200Y-33877360D01*
X46366026Y-33877360D01*
X46177200Y-33839800D01*
X45988374Y-33877360D01*
X45577200Y-33877360D01*
X45329435Y-33926643D01*
X45119391Y-34066991D01*
X44979043Y-34277035D01*
X44929760Y-34524800D01*
X44929760Y-35202308D01*
X44257034Y-35875034D01*
X44010997Y-36243254D01*
X43924600Y-36677600D01*
X43924600Y-39420800D01*
X44010997Y-39855146D01*
X44214295Y-40159402D01*
X44257034Y-40223366D01*
X45311160Y-41277492D01*
X45311160Y-41500000D01*
X45360443Y-41747765D01*
X45420000Y-41836898D01*
X45420000Y-42240859D01*
X45115654Y-42301397D01*
X44818514Y-42499940D01*
X44747434Y-42547434D01*
X44714234Y-42580634D01*
X44468197Y-42948855D01*
X44381800Y-43383200D01*
X44468197Y-43817545D01*
X44714234Y-44185766D01*
X45082455Y-44431803D01*
X45516800Y-44518200D01*
X45683707Y-44485000D01*
X45748541Y-44485000D01*
X45797191Y-44557809D01*
X46007235Y-44698157D01*
X46255000Y-44747440D01*
X46855000Y-44747440D01*
X47102765Y-44698157D01*
X47190000Y-44639868D01*
X47277235Y-44698157D01*
X47525000Y-44747440D01*
X48125000Y-44747440D01*
X48372765Y-44698157D01*
X48460000Y-44639868D01*
X48547235Y-44698157D01*
X48795000Y-44747440D01*
X49395000Y-44747440D01*
X49642765Y-44698157D01*
X49730000Y-44639868D01*
X49817235Y-44698157D01*
X50065000Y-44747440D01*
X50665000Y-44747440D01*
X50912765Y-44698157D01*
X51000000Y-44639868D01*
X51087235Y-44698157D01*
X51335000Y-44747440D01*
X51935000Y-44747440D01*
X52182765Y-44698157D01*
X52392809Y-44557809D01*
X52533157Y-44347765D01*
X52582440Y-44100000D01*
X52582440Y-43935747D01*
X52683603Y-43784346D01*
X52770000Y-43350000D01*
X52770000Y-41850583D01*
X52798600Y-41706800D01*
X52712204Y-41272454D01*
X52466167Y-40904233D01*
X52135805Y-40683493D01*
X52147440Y-40625000D01*
X52147440Y-39375000D01*
X52098157Y-39127235D01*
X51957809Y-38917191D01*
X51885000Y-38868541D01*
X51885000Y-37999200D01*
X51798603Y-37564854D01*
X51552566Y-37196634D01*
X51551766Y-37195834D01*
X51183545Y-36949797D01*
X50749200Y-36863400D01*
X50314855Y-36949797D01*
X49946634Y-37195834D01*
X49883600Y-37290171D01*
X49883600Y-34452402D01*
X51402401Y-32933602D01*
X51567147Y-32687040D01*
X51567148Y-32687039D01*
X51625000Y-32396200D01*
X51625000Y-30559469D01*
X51835000Y-30601240D01*
X52435000Y-30601240D01*
X52682765Y-30551957D01*
X52770000Y-30493668D01*
X52857235Y-30551957D01*
X53105000Y-30601240D01*
X53262371Y-30601240D01*
X53509854Y-30766603D01*
X53944200Y-30853000D01*
X54711600Y-30853000D01*
X55145946Y-30766603D01*
X55514166Y-30520566D01*
X55760203Y-30152346D01*
X55846600Y-29718000D01*
X55846600Y-28803600D01*
X55760203Y-28369254D01*
X55647980Y-28201300D01*
X56144100Y-28201300D01*
X56578446Y-28114903D01*
X56605259Y-28096987D01*
X56635846Y-28090903D01*
X57004066Y-27844866D01*
X57250103Y-27476646D01*
X57336500Y-27042300D01*
X57336500Y-25891300D01*
X57250103Y-25456954D01*
X57004066Y-25088734D01*
X56635846Y-24842697D01*
X56251928Y-24766331D01*
X56319003Y-24665946D01*
X56405400Y-24231600D01*
X56405400Y-23708519D01*
X56413843Y-23750965D01*
X56554191Y-23961009D01*
X56764235Y-24101357D01*
X57012000Y-24150640D01*
X58812000Y-24150640D01*
X59059765Y-24101357D01*
X59265000Y-23964222D01*
X59265000Y-36285380D01*
X59100000Y-36252560D01*
X58200000Y-36252560D01*
X57952235Y-36301843D01*
X57742191Y-36442191D01*
X57601843Y-36652235D01*
X57552560Y-36900000D01*
X57552560Y-37602115D01*
X57547852Y-37609161D01*
X57490000Y-37900000D01*
X57490000Y-38051200D01*
X54953177Y-38051200D01*
X54878342Y-37870085D01*
X54587446Y-37578681D01*
X54207177Y-37420780D01*
X53795429Y-37420421D01*
X53414885Y-37577658D01*
X53123481Y-37868554D01*
X52965580Y-38248823D01*
X52965221Y-38660571D01*
X53122458Y-39041115D01*
X53413354Y-39332519D01*
X53793623Y-39490420D01*
X54031156Y-39490627D01*
X54065160Y-39513348D01*
X54356000Y-39571200D01*
X56852560Y-39571200D01*
X56852560Y-40197638D01*
X56204998Y-40845200D01*
X54864000Y-40845200D01*
X54573161Y-40903052D01*
X54326599Y-41067799D01*
X53637599Y-41756799D01*
X53472852Y-42003361D01*
X53449536Y-42120579D01*
X53417191Y-42142191D01*
X53276843Y-42352235D01*
X53227560Y-42600000D01*
X53227560Y-44100000D01*
X53276843Y-44347765D01*
X53417191Y-44557809D01*
X53627235Y-44698157D01*
X53875000Y-44747440D01*
X54475000Y-44747440D01*
X54722765Y-44698157D01*
X54810000Y-44639868D01*
X54897235Y-44698157D01*
X55145000Y-44747440D01*
X55745000Y-44747440D01*
X55992765Y-44698157D01*
X56202809Y-44557809D01*
X56251459Y-44485000D01*
X56322693Y-44485000D01*
X56489600Y-44518200D01*
X56923945Y-44431803D01*
X57292166Y-44185766D01*
X57538203Y-43817545D01*
X57624600Y-43383200D01*
X57538203Y-42948855D01*
X57292166Y-42580634D01*
X57258966Y-42547434D01*
X57187886Y-42499940D01*
X56890746Y-42301397D01*
X56835879Y-42290483D01*
X57057201Y-42142601D01*
X57927362Y-41272440D01*
X59000000Y-41272440D01*
X59247765Y-41223157D01*
X59265000Y-41211641D01*
X59265000Y-45331699D01*
X58710614Y-45702127D01*
X57982291Y-45847000D01*
X37965085Y-45847000D01*
X38006477Y-45819343D01*
X38306707Y-45370017D01*
X38412134Y-44840000D01*
X38306707Y-44309983D01*
X38006477Y-43860657D01*
X37557151Y-43560427D01*
X37027134Y-43455000D01*
X36972866Y-43455000D01*
X36442849Y-43560427D01*
X35993523Y-43860657D01*
X35693293Y-44309983D01*
X35587866Y-44840000D01*
X35693293Y-45370017D01*
X35993523Y-45819343D01*
X36034915Y-45847000D01*
X30358909Y-45847000D01*
X29630586Y-45702127D01*
X29023748Y-45296652D01*
X28618273Y-44689814D01*
X28473400Y-43961491D01*
X28473400Y-41048171D01*
X28682821Y-41048171D01*
X28840058Y-41428715D01*
X29130954Y-41720119D01*
X29182360Y-41741465D01*
X29182360Y-43605000D01*
X29231643Y-43852765D01*
X29371991Y-44062809D01*
X29582035Y-44203157D01*
X29829800Y-44252440D01*
X30469800Y-44252440D01*
X30717565Y-44203157D01*
X30784800Y-44158232D01*
X30852035Y-44203157D01*
X31099800Y-44252440D01*
X31739800Y-44252440D01*
X31987565Y-44203157D01*
X32054800Y-44158232D01*
X32122035Y-44203157D01*
X32369800Y-44252440D01*
X33009800Y-44252440D01*
X33257565Y-44203157D01*
X33467609Y-44062809D01*
X33607957Y-43852765D01*
X33657240Y-43605000D01*
X33657240Y-42315478D01*
X33678400Y-42209100D01*
X33661328Y-42123274D01*
X33977422Y-41807180D01*
X34062715Y-41771938D01*
X34354119Y-41481042D01*
X34512020Y-41100773D01*
X34512166Y-40933832D01*
X34649601Y-40796397D01*
X34750959Y-40644703D01*
X34984965Y-40598157D01*
X35195009Y-40457809D01*
X35335357Y-40247765D01*
X35384640Y-40000000D01*
X35384640Y-39760000D01*
X35587866Y-39760000D01*
X35693293Y-40290017D01*
X35993523Y-40739343D01*
X36442849Y-41039573D01*
X36972866Y-41145000D01*
X37027134Y-41145000D01*
X37557151Y-41039573D01*
X38006477Y-40739343D01*
X38306707Y-40290017D01*
X38412134Y-39760000D01*
X38306707Y-39229983D01*
X38006477Y-38780657D01*
X37557151Y-38480427D01*
X37027134Y-38375000D01*
X36972866Y-38375000D01*
X36442849Y-38480427D01*
X35993523Y-38780657D01*
X35693293Y-39229983D01*
X35587866Y-39760000D01*
X35384640Y-39760000D01*
X35384640Y-38500000D01*
X35335357Y-38252235D01*
X35195009Y-38042191D01*
X34984965Y-37901843D01*
X34737200Y-37852560D01*
X33487200Y-37852560D01*
X33239435Y-37901843D01*
X33052570Y-38026703D01*
X33015365Y-38001843D01*
X32767600Y-37952560D01*
X31467600Y-37952560D01*
X31219835Y-38001843D01*
X31117600Y-38070155D01*
X31015365Y-38001843D01*
X30767600Y-37952560D01*
X29467600Y-37952560D01*
X29219835Y-38001843D01*
X29009791Y-38142191D01*
X28869443Y-38352235D01*
X28820160Y-38600000D01*
X28820160Y-40100000D01*
X28849541Y-40247709D01*
X28841081Y-40256154D01*
X28683180Y-40636423D01*
X28682821Y-41048171D01*
X28473400Y-41048171D01*
X28473400Y-37572509D01*
X28618273Y-36844186D01*
X29023748Y-36237348D01*
X29630586Y-35831873D01*
X30358909Y-35687000D01*
X32798000Y-35687000D01*
X32822776Y-35684560D01*
X33588143Y-35532319D01*
X33633924Y-35513356D01*
X34282771Y-35079811D01*
X34317811Y-35044771D01*
X34751356Y-34395924D01*
X34770319Y-34350143D01*
X34922560Y-33584776D01*
X34925000Y-33560000D01*
X34925000Y-31631002D01*
X39452565Y-36158567D01*
X39452421Y-36323771D01*
X39609658Y-36704315D01*
X39900554Y-36995719D01*
X40280823Y-37153620D01*
X40692571Y-37153979D01*
X41073115Y-36996742D01*
X41364519Y-36705846D01*
X41522420Y-36325577D01*
X41522779Y-35913829D01*
X41365542Y-35533285D01*
X41074646Y-35241881D01*
X40694377Y-35083980D01*
X40527436Y-35083834D01*
X34925000Y-29481398D01*
X34925000Y-28752800D01*
X40673400Y-28752800D01*
X40759797Y-29187145D01*
X41005834Y-29555366D01*
X43927834Y-32477366D01*
X44296054Y-32723403D01*
X44730400Y-32809800D01*
X46177200Y-32809800D01*
X46366026Y-32772240D01*
X46777200Y-32772240D01*
X47024965Y-32722957D01*
X47235009Y-32582609D01*
X47375357Y-32372565D01*
X47424640Y-32124800D01*
X47424640Y-31224800D01*
X47375357Y-30977035D01*
X47235009Y-30766991D01*
X47024965Y-30626643D01*
X46777200Y-30577360D01*
X46366026Y-30577360D01*
X46177200Y-30539800D01*
X45200532Y-30539800D01*
X42610966Y-27950234D01*
X42242745Y-27704197D01*
X41808400Y-27617800D01*
X41374055Y-27704197D01*
X41005834Y-27950234D01*
X40759797Y-28318455D01*
X40673400Y-28752800D01*
X34925000Y-28752800D01*
X34925000Y-25622000D01*
X36609400Y-25622000D01*
X36609400Y-26162000D01*
X36695797Y-26596346D01*
X36941834Y-26964566D01*
X37310054Y-27210603D01*
X37744400Y-27297000D01*
X44094400Y-27297000D01*
X44528746Y-27210603D01*
X44896966Y-26964566D01*
X44947766Y-26913766D01*
X44990142Y-26850346D01*
X45193803Y-26545546D01*
X45280200Y-26111200D01*
X45280200Y-25481600D01*
X45193803Y-25047254D01*
X44947766Y-24679034D01*
X44604840Y-24336108D01*
X44604840Y-23918800D01*
X44555557Y-23671035D01*
X44415209Y-23460991D01*
X44205165Y-23320643D01*
X43957400Y-23271360D01*
X42707400Y-23271360D01*
X42459635Y-23320643D01*
X42392600Y-23365435D01*
X42325565Y-23320643D01*
X42077800Y-23271360D01*
X40834895Y-23271360D01*
X40811757Y-23155035D01*
X40671409Y-22944991D01*
X40461365Y-22804643D01*
X40213600Y-22755360D01*
X37713600Y-22755360D01*
X37465835Y-22804643D01*
X37255791Y-22944991D01*
X37115443Y-23155035D01*
X37066160Y-23402800D01*
X37066160Y-24695108D01*
X36941834Y-24819434D01*
X36695797Y-25187654D01*
X36609400Y-25622000D01*
X34925000Y-25622000D01*
X34925000Y-2028315D01*
X35019249Y-1436736D01*
X35288016Y-912786D01*
X35467425Y-735000D01*
X39727237Y-735000D01*
X40115777Y-1320805D01*
X40115777Y-1320805D01*
G37*
X40115777Y-1320805D02*
X40259000Y-2045138D01*
X40259000Y-15536481D01*
X40261132Y-15559654D01*
X40394304Y-16277257D01*
X40410933Y-16320517D01*
X40792715Y-16942555D01*
X40823758Y-16976967D01*
X41403306Y-17420603D01*
X41423003Y-17432996D01*
X49376200Y-21471406D01*
X49376200Y-21945600D01*
X49452060Y-22326976D01*
X49235000Y-22283800D01*
X47701200Y-22283800D01*
X47266854Y-22370197D01*
X46898634Y-22616234D01*
X46652597Y-22984454D01*
X46566200Y-23418800D01*
X46566200Y-24333200D01*
X46652597Y-24767546D01*
X46693466Y-24828711D01*
X46623154Y-24842697D01*
X46254934Y-25088734D01*
X46008897Y-25456954D01*
X45922500Y-25891300D01*
X45922500Y-27033120D01*
X45915900Y-27066300D01*
X46002297Y-27500646D01*
X46248334Y-27868866D01*
X46616554Y-28114903D01*
X47050900Y-28201300D01*
X47238877Y-28201300D01*
X47160597Y-28318454D01*
X47074200Y-28752800D01*
X47074200Y-29667200D01*
X47160597Y-30101546D01*
X47406634Y-30469766D01*
X47774854Y-30715803D01*
X48209200Y-30802200D01*
X49106600Y-30802200D01*
X49540946Y-30715803D01*
X49712401Y-30601240D01*
X49895000Y-30601240D01*
X50105000Y-30559469D01*
X50105000Y-32081397D01*
X48586199Y-33600199D01*
X48421452Y-33846761D01*
X48363600Y-34137600D01*
X48363600Y-39250191D01*
X48321034Y-39278633D01*
X48292434Y-39307234D01*
X48046397Y-39675454D01*
X47960000Y-40109800D01*
X47960000Y-41952560D01*
X47690000Y-41952560D01*
X47690000Y-41922503D01*
X47806757Y-41747765D01*
X47856040Y-41500000D01*
X47856040Y-40000000D01*
X47806757Y-39752235D01*
X47666409Y-39542191D01*
X47456365Y-39401843D01*
X47208600Y-39352560D01*
X46596492Y-39352560D01*
X46194600Y-38950668D01*
X46194600Y-37147732D01*
X46979766Y-36362566D01*
X47142645Y-36118800D01*
X47225803Y-35994346D01*
X47253548Y-35854864D01*
X47375357Y-35672565D01*
X47424640Y-35424800D01*
X47424640Y-34524800D01*
X47375357Y-34277035D01*
X47235009Y-34066991D01*
X47024965Y-33926643D01*
X46777200Y-33877360D01*
X46366026Y-33877360D01*
X46177200Y-33839800D01*
X45988374Y-33877360D01*
X45577200Y-33877360D01*
X45329435Y-33926643D01*
X45119391Y-34066991D01*
X44979043Y-34277035D01*
X44929760Y-34524800D01*
X44929760Y-35202308D01*
X44257034Y-35875034D01*
X44010997Y-36243254D01*
X43924600Y-36677600D01*
X43924600Y-39420800D01*
X44010997Y-39855146D01*
X44214295Y-40159402D01*
X44257034Y-40223366D01*
X45311160Y-41277492D01*
X45311160Y-41500000D01*
X45360443Y-41747765D01*
X45420000Y-41836898D01*
X45420000Y-42240859D01*
X45115654Y-42301397D01*
X44818514Y-42499940D01*
X44747434Y-42547434D01*
X44714234Y-42580634D01*
X44468197Y-42948855D01*
X44381800Y-43383200D01*
X44468197Y-43817545D01*
X44714234Y-44185766D01*
X45082455Y-44431803D01*
X45516800Y-44518200D01*
X45683707Y-44485000D01*
X45748541Y-44485000D01*
X45797191Y-44557809D01*
X46007235Y-44698157D01*
X46255000Y-44747440D01*
X46855000Y-44747440D01*
X47102765Y-44698157D01*
X47190000Y-44639868D01*
X47277235Y-44698157D01*
X47525000Y-44747440D01*
X48125000Y-44747440D01*
X48372765Y-44698157D01*
X48460000Y-44639868D01*
X48547235Y-44698157D01*
X48795000Y-44747440D01*
X49395000Y-44747440D01*
X49642765Y-44698157D01*
X49730000Y-44639868D01*
X49817235Y-44698157D01*
X50065000Y-44747440D01*
X50665000Y-44747440D01*
X50912765Y-44698157D01*
X51000000Y-44639868D01*
X51087235Y-44698157D01*
X51335000Y-44747440D01*
X51935000Y-44747440D01*
X52182765Y-44698157D01*
X52392809Y-44557809D01*
X52533157Y-44347765D01*
X52582440Y-44100000D01*
X52582440Y-43935747D01*
X52683603Y-43784346D01*
X52770000Y-43350000D01*
X52770000Y-41850583D01*
X52798600Y-41706800D01*
X52712204Y-41272454D01*
X52466167Y-40904233D01*
X52135805Y-40683493D01*
X52147440Y-40625000D01*
X52147440Y-39375000D01*
X52098157Y-39127235D01*
X51957809Y-38917191D01*
X51885000Y-38868541D01*
X51885000Y-37999200D01*
X51798603Y-37564854D01*
X51552566Y-37196634D01*
X51551766Y-37195834D01*
X51183545Y-36949797D01*
X50749200Y-36863400D01*
X50314855Y-36949797D01*
X49946634Y-37195834D01*
X49883600Y-37290171D01*
X49883600Y-34452402D01*
X51402401Y-32933602D01*
X51567147Y-32687040D01*
X51567148Y-32687039D01*
X51625000Y-32396200D01*
X51625000Y-30559469D01*
X51835000Y-30601240D01*
X52435000Y-30601240D01*
X52682765Y-30551957D01*
X52770000Y-30493668D01*
X52857235Y-30551957D01*
X53105000Y-30601240D01*
X53262371Y-30601240D01*
X53509854Y-30766603D01*
X53944200Y-30853000D01*
X54711600Y-30853000D01*
X55145946Y-30766603D01*
X55514166Y-30520566D01*
X55760203Y-30152346D01*
X55846600Y-29718000D01*
X55846600Y-28803600D01*
X55760203Y-28369254D01*
X55647980Y-28201300D01*
X56144100Y-28201300D01*
X56578446Y-28114903D01*
X56605259Y-28096987D01*
X56635846Y-28090903D01*
X57004066Y-27844866D01*
X57250103Y-27476646D01*
X57336500Y-27042300D01*
X57336500Y-25891300D01*
X57250103Y-25456954D01*
X57004066Y-25088734D01*
X56635846Y-24842697D01*
X56251928Y-24766331D01*
X56319003Y-24665946D01*
X56405400Y-24231600D01*
X56405400Y-23708519D01*
X56413843Y-23750965D01*
X56554191Y-23961009D01*
X56764235Y-24101357D01*
X57012000Y-24150640D01*
X58812000Y-24150640D01*
X59059765Y-24101357D01*
X59265000Y-23964222D01*
X59265000Y-36285380D01*
X59100000Y-36252560D01*
X58200000Y-36252560D01*
X57952235Y-36301843D01*
X57742191Y-36442191D01*
X57601843Y-36652235D01*
X57552560Y-36900000D01*
X57552560Y-37602115D01*
X57547852Y-37609161D01*
X57490000Y-37900000D01*
X57490000Y-38051200D01*
X54953177Y-38051200D01*
X54878342Y-37870085D01*
X54587446Y-37578681D01*
X54207177Y-37420780D01*
X53795429Y-37420421D01*
X53414885Y-37577658D01*
X53123481Y-37868554D01*
X52965580Y-38248823D01*
X52965221Y-38660571D01*
X53122458Y-39041115D01*
X53413354Y-39332519D01*
X53793623Y-39490420D01*
X54031156Y-39490627D01*
X54065160Y-39513348D01*
X54356000Y-39571200D01*
X56852560Y-39571200D01*
X56852560Y-40197638D01*
X56204998Y-40845200D01*
X54864000Y-40845200D01*
X54573161Y-40903052D01*
X54326599Y-41067799D01*
X53637599Y-41756799D01*
X53472852Y-42003361D01*
X53449536Y-42120579D01*
X53417191Y-42142191D01*
X53276843Y-42352235D01*
X53227560Y-42600000D01*
X53227560Y-44100000D01*
X53276843Y-44347765D01*
X53417191Y-44557809D01*
X53627235Y-44698157D01*
X53875000Y-44747440D01*
X54475000Y-44747440D01*
X54722765Y-44698157D01*
X54810000Y-44639868D01*
X54897235Y-44698157D01*
X55145000Y-44747440D01*
X55745000Y-44747440D01*
X55992765Y-44698157D01*
X56202809Y-44557809D01*
X56251459Y-44485000D01*
X56322693Y-44485000D01*
X56489600Y-44518200D01*
X56923945Y-44431803D01*
X57292166Y-44185766D01*
X57538203Y-43817545D01*
X57624600Y-43383200D01*
X57538203Y-42948855D01*
X57292166Y-42580634D01*
X57258966Y-42547434D01*
X57187886Y-42499940D01*
X56890746Y-42301397D01*
X56835879Y-42290483D01*
X57057201Y-42142601D01*
X57927362Y-41272440D01*
X59000000Y-41272440D01*
X59247765Y-41223157D01*
X59265000Y-41211641D01*
X59265000Y-45331699D01*
X58710614Y-45702127D01*
X57982291Y-45847000D01*
X37965085Y-45847000D01*
X38006477Y-45819343D01*
X38306707Y-45370017D01*
X38412134Y-44840000D01*
X38306707Y-44309983D01*
X38006477Y-43860657D01*
X37557151Y-43560427D01*
X37027134Y-43455000D01*
X36972866Y-43455000D01*
X36442849Y-43560427D01*
X35993523Y-43860657D01*
X35693293Y-44309983D01*
X35587866Y-44840000D01*
X35693293Y-45370017D01*
X35993523Y-45819343D01*
X36034915Y-45847000D01*
X30358909Y-45847000D01*
X29630586Y-45702127D01*
X29023748Y-45296652D01*
X28618273Y-44689814D01*
X28473400Y-43961491D01*
X28473400Y-41048171D01*
X28682821Y-41048171D01*
X28840058Y-41428715D01*
X29130954Y-41720119D01*
X29182360Y-41741465D01*
X29182360Y-43605000D01*
X29231643Y-43852765D01*
X29371991Y-44062809D01*
X29582035Y-44203157D01*
X29829800Y-44252440D01*
X30469800Y-44252440D01*
X30717565Y-44203157D01*
X30784800Y-44158232D01*
X30852035Y-44203157D01*
X31099800Y-44252440D01*
X31739800Y-44252440D01*
X31987565Y-44203157D01*
X32054800Y-44158232D01*
X32122035Y-44203157D01*
X32369800Y-44252440D01*
X33009800Y-44252440D01*
X33257565Y-44203157D01*
X33467609Y-44062809D01*
X33607957Y-43852765D01*
X33657240Y-43605000D01*
X33657240Y-42315478D01*
X33678400Y-42209100D01*
X33661328Y-42123274D01*
X33977422Y-41807180D01*
X34062715Y-41771938D01*
X34354119Y-41481042D01*
X34512020Y-41100773D01*
X34512166Y-40933832D01*
X34649601Y-40796397D01*
X34750959Y-40644703D01*
X34984965Y-40598157D01*
X35195009Y-40457809D01*
X35335357Y-40247765D01*
X35384640Y-40000000D01*
X35384640Y-39760000D01*
X35587866Y-39760000D01*
X35693293Y-40290017D01*
X35993523Y-40739343D01*
X36442849Y-41039573D01*
X36972866Y-41145000D01*
X37027134Y-41145000D01*
X37557151Y-41039573D01*
X38006477Y-40739343D01*
X38306707Y-40290017D01*
X38412134Y-39760000D01*
X38306707Y-39229983D01*
X38006477Y-38780657D01*
X37557151Y-38480427D01*
X37027134Y-38375000D01*
X36972866Y-38375000D01*
X36442849Y-38480427D01*
X35993523Y-38780657D01*
X35693293Y-39229983D01*
X35587866Y-39760000D01*
X35384640Y-39760000D01*
X35384640Y-38500000D01*
X35335357Y-38252235D01*
X35195009Y-38042191D01*
X34984965Y-37901843D01*
X34737200Y-37852560D01*
X33487200Y-37852560D01*
X33239435Y-37901843D01*
X33052570Y-38026703D01*
X33015365Y-38001843D01*
X32767600Y-37952560D01*
X31467600Y-37952560D01*
X31219835Y-38001843D01*
X31117600Y-38070155D01*
X31015365Y-38001843D01*
X30767600Y-37952560D01*
X29467600Y-37952560D01*
X29219835Y-38001843D01*
X29009791Y-38142191D01*
X28869443Y-38352235D01*
X28820160Y-38600000D01*
X28820160Y-40100000D01*
X28849541Y-40247709D01*
X28841081Y-40256154D01*
X28683180Y-40636423D01*
X28682821Y-41048171D01*
X28473400Y-41048171D01*
X28473400Y-37572509D01*
X28618273Y-36844186D01*
X29023748Y-36237348D01*
X29630586Y-35831873D01*
X30358909Y-35687000D01*
X32798000Y-35687000D01*
X32822776Y-35684560D01*
X33588143Y-35532319D01*
X33633924Y-35513356D01*
X34282771Y-35079811D01*
X34317811Y-35044771D01*
X34751356Y-34395924D01*
X34770319Y-34350143D01*
X34922560Y-33584776D01*
X34925000Y-33560000D01*
X34925000Y-31631002D01*
X39452565Y-36158567D01*
X39452421Y-36323771D01*
X39609658Y-36704315D01*
X39900554Y-36995719D01*
X40280823Y-37153620D01*
X40692571Y-37153979D01*
X41073115Y-36996742D01*
X41364519Y-36705846D01*
X41522420Y-36325577D01*
X41522779Y-35913829D01*
X41365542Y-35533285D01*
X41074646Y-35241881D01*
X40694377Y-35083980D01*
X40527436Y-35083834D01*
X34925000Y-29481398D01*
X34925000Y-28752800D01*
X40673400Y-28752800D01*
X40759797Y-29187145D01*
X41005834Y-29555366D01*
X43927834Y-32477366D01*
X44296054Y-32723403D01*
X44730400Y-32809800D01*
X46177200Y-32809800D01*
X46366026Y-32772240D01*
X46777200Y-32772240D01*
X47024965Y-32722957D01*
X47235009Y-32582609D01*
X47375357Y-32372565D01*
X47424640Y-32124800D01*
X47424640Y-31224800D01*
X47375357Y-30977035D01*
X47235009Y-30766991D01*
X47024965Y-30626643D01*
X46777200Y-30577360D01*
X46366026Y-30577360D01*
X46177200Y-30539800D01*
X45200532Y-30539800D01*
X42610966Y-27950234D01*
X42242745Y-27704197D01*
X41808400Y-27617800D01*
X41374055Y-27704197D01*
X41005834Y-27950234D01*
X40759797Y-28318455D01*
X40673400Y-28752800D01*
X34925000Y-28752800D01*
X34925000Y-25622000D01*
X36609400Y-25622000D01*
X36609400Y-26162000D01*
X36695797Y-26596346D01*
X36941834Y-26964566D01*
X37310054Y-27210603D01*
X37744400Y-27297000D01*
X44094400Y-27297000D01*
X44528746Y-27210603D01*
X44896966Y-26964566D01*
X44947766Y-26913766D01*
X44990142Y-26850346D01*
X45193803Y-26545546D01*
X45280200Y-26111200D01*
X45280200Y-25481600D01*
X45193803Y-25047254D01*
X44947766Y-24679034D01*
X44604840Y-24336108D01*
X44604840Y-23918800D01*
X44555557Y-23671035D01*
X44415209Y-23460991D01*
X44205165Y-23320643D01*
X43957400Y-23271360D01*
X42707400Y-23271360D01*
X42459635Y-23320643D01*
X42392600Y-23365435D01*
X42325565Y-23320643D01*
X42077800Y-23271360D01*
X40834895Y-23271360D01*
X40811757Y-23155035D01*
X40671409Y-22944991D01*
X40461365Y-22804643D01*
X40213600Y-22755360D01*
X37713600Y-22755360D01*
X37465835Y-22804643D01*
X37255791Y-22944991D01*
X37115443Y-23155035D01*
X37066160Y-23402800D01*
X37066160Y-24695108D01*
X36941834Y-24819434D01*
X36695797Y-25187654D01*
X36609400Y-25622000D01*
X34925000Y-25622000D01*
X34925000Y-2028315D01*
X35019249Y-1436736D01*
X35288016Y-912786D01*
X35467425Y-735000D01*
X39727237Y-735000D01*
X40115777Y-1320805D01*
G36*
X56626634Y-1072957D02*
X58005629Y-1994371D01*
X58927043Y-3373366D01*
X59265000Y-5072390D01*
X59265000Y-14501218D01*
X59234308Y-14521670D01*
X59059765Y-14405043D01*
X58812000Y-14355760D01*
X57012000Y-14355760D01*
X56764235Y-14405043D01*
X56554191Y-14545391D01*
X56413843Y-14755435D01*
X56364560Y-15003200D01*
X56364560Y-15011400D01*
X43008109Y-15011400D01*
X42279786Y-14866527D01*
X41672948Y-14461052D01*
X41267473Y-13854214D01*
X41122600Y-13125891D01*
X41122600Y-2148906D01*
X41266020Y-1424099D01*
X41667650Y-819095D01*
X41792155Y-735000D01*
X54927610Y-735000D01*
X56626634Y-1072957D01*
X56626634Y-1072957D01*
G37*
X56626634Y-1072957D02*
X58005629Y-1994371D01*
X58927043Y-3373366D01*
X59265000Y-5072390D01*
X59265000Y-14501218D01*
X59234308Y-14521670D01*
X59059765Y-14405043D01*
X58812000Y-14355760D01*
X57012000Y-14355760D01*
X56764235Y-14405043D01*
X56554191Y-14545391D01*
X56413843Y-14755435D01*
X56364560Y-15003200D01*
X56364560Y-15011400D01*
X43008109Y-15011400D01*
X42279786Y-14866527D01*
X41672948Y-14461052D01*
X41267473Y-13854214D01*
X41122600Y-13125891D01*
X41122600Y-2148906D01*
X41266020Y-1424099D01*
X41667650Y-819095D01*
X41792155Y-735000D01*
X54927610Y-735000D01*
X56626634Y-1072957D01*
G36*
X24914008Y-900009D02*
X25179824Y-1421702D01*
X25273000Y-2009992D01*
X25273000Y-36286971D01*
X25100000Y-36252560D01*
X24200000Y-36252560D01*
X23952235Y-36301843D01*
X23742191Y-36442191D01*
X23601843Y-36652235D01*
X23552560Y-36900000D01*
X23552560Y-37602115D01*
X23547852Y-37609161D01*
X23490000Y-37900000D01*
X23490000Y-38000400D01*
X20967977Y-38000400D01*
X20893142Y-37819285D01*
X20602246Y-37527881D01*
X20221977Y-37369980D01*
X19810229Y-37369621D01*
X19429685Y-37526858D01*
X19138281Y-37817754D01*
X18980380Y-38198023D01*
X18980021Y-38609771D01*
X19137258Y-38990315D01*
X19428154Y-39281719D01*
X19808423Y-39439620D01*
X20045956Y-39439827D01*
X20079960Y-39462548D01*
X20370800Y-39520400D01*
X22852560Y-39520400D01*
X22852560Y-40197638D01*
X22154198Y-40896000D01*
X20869000Y-40896000D01*
X20578160Y-40953852D01*
X20331599Y-41118599D01*
X19637599Y-41812599D01*
X19472852Y-42059161D01*
X19462336Y-42112026D01*
X19417191Y-42142191D01*
X19276843Y-42352235D01*
X19227560Y-42600000D01*
X19227560Y-44100000D01*
X19276843Y-44347765D01*
X19417191Y-44557809D01*
X19627235Y-44698157D01*
X19875000Y-44747440D01*
X20475000Y-44747440D01*
X20722765Y-44698157D01*
X20810000Y-44639868D01*
X20897235Y-44698157D01*
X21145000Y-44747440D01*
X21745000Y-44747440D01*
X21992765Y-44698157D01*
X22202809Y-44557809D01*
X22251459Y-44485000D01*
X22385200Y-44485000D01*
X22819546Y-44398603D01*
X23187766Y-44152566D01*
X23205366Y-44134966D01*
X23451403Y-43766745D01*
X23537800Y-43332400D01*
X23451403Y-42898055D01*
X23205366Y-42529834D01*
X22854129Y-42295145D01*
X23006401Y-42193401D01*
X23927362Y-41272440D01*
X25000000Y-41272440D01*
X25247765Y-41223157D01*
X25273000Y-41206295D01*
X25273000Y-43961491D01*
X25128127Y-44689814D01*
X24722652Y-45296652D01*
X24115814Y-45702127D01*
X23387491Y-45847000D01*
X3965085Y-45847000D01*
X4006477Y-45819343D01*
X4306707Y-45370017D01*
X4412134Y-44840000D01*
X4306707Y-44309983D01*
X4006477Y-43860657D01*
X3557151Y-43560427D01*
X3027134Y-43455000D01*
X2972866Y-43455000D01*
X2442849Y-43560427D01*
X1993523Y-43860657D01*
X1693293Y-44309983D01*
X1587866Y-44840000D01*
X1693293Y-45370017D01*
X1993523Y-45819343D01*
X2034915Y-45847000D01*
X2009992Y-45847000D01*
X1421702Y-45753824D01*
X900009Y-45488008D01*
X735000Y-45322999D01*
X735000Y-39760000D01*
X1587866Y-39760000D01*
X1693293Y-40290017D01*
X1993523Y-40739343D01*
X2442849Y-41039573D01*
X2972866Y-41145000D01*
X3027134Y-41145000D01*
X3557151Y-41039573D01*
X4006477Y-40739343D01*
X4306707Y-40290017D01*
X4412134Y-39760000D01*
X4306707Y-39229983D01*
X4006477Y-38780657D01*
X3557151Y-38480427D01*
X3027134Y-38375000D01*
X2972866Y-38375000D01*
X2442849Y-38480427D01*
X1993523Y-38780657D01*
X1693293Y-39229983D01*
X1587866Y-39760000D01*
X735000Y-39760000D01*
X735000Y-23815801D01*
X856551Y-23694250D01*
X897069Y-23897947D01*
X1273170Y-24460821D01*
X1372870Y-24527438D01*
X1306791Y-24571591D01*
X1166443Y-24781635D01*
X1117160Y-25029400D01*
X1117160Y-26329400D01*
X1166443Y-26577165D01*
X1306791Y-26787209D01*
X1516835Y-26927557D01*
X1764600Y-26976840D01*
X3264600Y-26976840D01*
X3512365Y-26927557D01*
X3722409Y-26787209D01*
X3862757Y-26577165D01*
X3864600Y-26567900D01*
X3866443Y-26577165D01*
X4006791Y-26787209D01*
X4216835Y-26927557D01*
X4454600Y-26974851D01*
X4454600Y-34983400D01*
X4512452Y-35274239D01*
X4677199Y-35520801D01*
X5213365Y-36056967D01*
X5213221Y-36222171D01*
X5370458Y-36602715D01*
X5661354Y-36894119D01*
X6041623Y-37052020D01*
X6453371Y-37052379D01*
X6833915Y-36895142D01*
X7125319Y-36604246D01*
X7283220Y-36223977D01*
X7283579Y-35812229D01*
X7126342Y-35431685D01*
X6835446Y-35140281D01*
X6455177Y-34982380D01*
X6288236Y-34982234D01*
X5974600Y-34668598D01*
X5974600Y-29438600D01*
X6180200Y-29438600D01*
X6266597Y-29872945D01*
X6512634Y-30241166D01*
X8901234Y-32629767D01*
X9269455Y-32875804D01*
X9703800Y-32962200D01*
X12242800Y-32962200D01*
X12431626Y-32924640D01*
X12842800Y-32924640D01*
X13090565Y-32875357D01*
X13300609Y-32735009D01*
X13440957Y-32524965D01*
X13490240Y-32277200D01*
X13490240Y-31377200D01*
X13440957Y-31129435D01*
X13300609Y-30919391D01*
X13090565Y-30779043D01*
X12842800Y-30729760D01*
X12431626Y-30729760D01*
X12242800Y-30692200D01*
X10173933Y-30692200D01*
X8117766Y-28636034D01*
X7749545Y-28389997D01*
X7315200Y-28303600D01*
X6880855Y-28389997D01*
X6512634Y-28636034D01*
X6266597Y-29004255D01*
X6180200Y-29438600D01*
X5974600Y-29438600D01*
X5974600Y-26974851D01*
X6212365Y-26927557D01*
X6422409Y-26787209D01*
X6562757Y-26577165D01*
X6612040Y-26329400D01*
X6612040Y-25029400D01*
X6562757Y-24781635D01*
X6422409Y-24571591D01*
X6212365Y-24431243D01*
X5964600Y-24381960D01*
X4464600Y-24381960D01*
X4216835Y-24431243D01*
X4006791Y-24571591D01*
X3866443Y-24781635D01*
X3864600Y-24790900D01*
X3862757Y-24781635D01*
X3722409Y-24571591D01*
X3641730Y-24517683D01*
X3726830Y-24460821D01*
X4102931Y-23897947D01*
X4223501Y-23291800D01*
X7698160Y-23291800D01*
X7698160Y-23401600D01*
X7747443Y-23649365D01*
X7887791Y-23859409D01*
X8097835Y-23999757D01*
X8345600Y-24049040D01*
X10145600Y-24049040D01*
X10393365Y-23999757D01*
X10603409Y-23859409D01*
X10743757Y-23649365D01*
X10793040Y-23401600D01*
X10793040Y-23291800D01*
X12097987Y-23291800D01*
X12022200Y-23672806D01*
X12022200Y-24638000D01*
X12108597Y-25072346D01*
X12346176Y-25427908D01*
X12118697Y-25768354D01*
X12032300Y-26202700D01*
X12032300Y-27371100D01*
X12118697Y-27805446D01*
X12364734Y-28173666D01*
X12732954Y-28419703D01*
X12951980Y-28463270D01*
X12895997Y-28547054D01*
X12809600Y-28981400D01*
X12809600Y-29972000D01*
X12895997Y-30406346D01*
X13142034Y-30774566D01*
X13510254Y-31020603D01*
X13944600Y-31107000D01*
X14497000Y-31107000D01*
X14931346Y-31020603D01*
X15102801Y-30906040D01*
X15285400Y-30906040D01*
X15495400Y-30864269D01*
X15495400Y-34407598D01*
X14550199Y-35352799D01*
X14385452Y-35599361D01*
X14327600Y-35890200D01*
X14327600Y-39148592D01*
X14285034Y-39177034D01*
X14038997Y-39545254D01*
X13952600Y-39979600D01*
X13952600Y-41952560D01*
X13690000Y-41952560D01*
X13690000Y-41944652D01*
X13821557Y-41747765D01*
X13870840Y-41500000D01*
X13870840Y-40000000D01*
X13821557Y-39752235D01*
X13681209Y-39542191D01*
X13471165Y-39401843D01*
X13223400Y-39352560D01*
X12204892Y-39352560D01*
X12158600Y-39306268D01*
X12158600Y-36525200D01*
X12098815Y-36224640D01*
X12842800Y-36224640D01*
X13090565Y-36175357D01*
X13300609Y-36035009D01*
X13440957Y-35824965D01*
X13490240Y-35577200D01*
X13490240Y-34677200D01*
X13440957Y-34429435D01*
X13300609Y-34219391D01*
X13090565Y-34079043D01*
X12842800Y-34029760D01*
X11642800Y-34029760D01*
X11395035Y-34079043D01*
X11184991Y-34219391D01*
X11044643Y-34429435D01*
X10995360Y-34677200D01*
X10995360Y-35395817D01*
X10589254Y-35476597D01*
X10221034Y-35722634D01*
X9974997Y-36090854D01*
X9888600Y-36525200D01*
X9888600Y-39776400D01*
X9974997Y-40210746D01*
X10074094Y-40359055D01*
X10221034Y-40578966D01*
X11194634Y-41552566D01*
X11358148Y-41661823D01*
X11375243Y-41747765D01*
X11420000Y-41814748D01*
X11420000Y-42219599D01*
X11097255Y-42283797D01*
X10729034Y-42529834D01*
X10482997Y-42898055D01*
X10396600Y-43332400D01*
X10482997Y-43766745D01*
X10729034Y-44134966D01*
X10746634Y-44152566D01*
X11114854Y-44398603D01*
X11549200Y-44485000D01*
X11748541Y-44485000D01*
X11797191Y-44557809D01*
X12007235Y-44698157D01*
X12255000Y-44747440D01*
X12855000Y-44747440D01*
X13102765Y-44698157D01*
X13190000Y-44639868D01*
X13277235Y-44698157D01*
X13525000Y-44747440D01*
X14125000Y-44747440D01*
X14372765Y-44698157D01*
X14460000Y-44639868D01*
X14547235Y-44698157D01*
X14795000Y-44747440D01*
X15395000Y-44747440D01*
X15642765Y-44698157D01*
X15730000Y-44639868D01*
X15817235Y-44698157D01*
X16065000Y-44747440D01*
X16665000Y-44747440D01*
X16912765Y-44698157D01*
X17000000Y-44639868D01*
X17087235Y-44698157D01*
X17335000Y-44747440D01*
X17935000Y-44747440D01*
X18182765Y-44698157D01*
X18392809Y-44557809D01*
X18533157Y-44347765D01*
X18582440Y-44100000D01*
X18582440Y-43935747D01*
X18683603Y-43784346D01*
X18770000Y-43350000D01*
X18770000Y-41765000D01*
X18683603Y-41330654D01*
X18437566Y-40962434D01*
X18430166Y-40955034D01*
X18122662Y-40749567D01*
X18147440Y-40625000D01*
X18147440Y-39375000D01*
X18098157Y-39127235D01*
X17957809Y-38917191D01*
X17885000Y-38868541D01*
X17885000Y-37984400D01*
X17798603Y-37550054D01*
X17552566Y-37181834D01*
X17515766Y-37145034D01*
X17147545Y-36898997D01*
X16713200Y-36812600D01*
X16278855Y-36898997D01*
X15910634Y-37145034D01*
X15847600Y-37239371D01*
X15847600Y-36205002D01*
X16792801Y-35259801D01*
X16957548Y-35013239D01*
X17015400Y-34722400D01*
X17015400Y-30864269D01*
X17225400Y-30906040D01*
X17825400Y-30906040D01*
X18073165Y-30856757D01*
X18160400Y-30798468D01*
X18247635Y-30856757D01*
X18495400Y-30906040D01*
X18677999Y-30906040D01*
X18849454Y-31020603D01*
X19283800Y-31107000D01*
X19761200Y-31107000D01*
X20195546Y-31020603D01*
X20563766Y-30774566D01*
X20809803Y-30406346D01*
X20896200Y-29972000D01*
X20809803Y-29537654D01*
X20769075Y-29476700D01*
X20809803Y-29415746D01*
X20896200Y-28981400D01*
X20809803Y-28547054D01*
X20759170Y-28471276D01*
X21018446Y-28419703D01*
X21386666Y-28173666D01*
X21461466Y-28098866D01*
X21589934Y-27906600D01*
X21707503Y-27730646D01*
X21793900Y-27296300D01*
X21793900Y-26196100D01*
X21707503Y-25761754D01*
X21461466Y-25393534D01*
X21093246Y-25147497D01*
X20858452Y-25100793D01*
X20911403Y-25021546D01*
X20997800Y-24587200D01*
X20997800Y-23571200D01*
X20911403Y-23136854D01*
X20665366Y-22768634D01*
X20297146Y-22522597D01*
X19862800Y-22436200D01*
X19307800Y-22436200D01*
X18970506Y-22503292D01*
X19000600Y-22352000D01*
X19000600Y-19856000D01*
X18897600Y-19338183D01*
X18897600Y-18084576D01*
X19033868Y-17377367D01*
X19423159Y-16771422D01*
X19859669Y-16313445D01*
X19874587Y-16294469D01*
X20283657Y-15657737D01*
X20301514Y-15613120D01*
X20444706Y-14869977D01*
X20447000Y-14845948D01*
X20447000Y-2009992D01*
X20540176Y-1421702D01*
X20805992Y-900009D01*
X20971001Y-735000D01*
X24748999Y-735000D01*
X24914008Y-900009D01*
X24914008Y-900009D01*
G37*
X24914008Y-900009D02*
X25179824Y-1421702D01*
X25273000Y-2009992D01*
X25273000Y-36286971D01*
X25100000Y-36252560D01*
X24200000Y-36252560D01*
X23952235Y-36301843D01*
X23742191Y-36442191D01*
X23601843Y-36652235D01*
X23552560Y-36900000D01*
X23552560Y-37602115D01*
X23547852Y-37609161D01*
X23490000Y-37900000D01*
X23490000Y-38000400D01*
X20967977Y-38000400D01*
X20893142Y-37819285D01*
X20602246Y-37527881D01*
X20221977Y-37369980D01*
X19810229Y-37369621D01*
X19429685Y-37526858D01*
X19138281Y-37817754D01*
X18980380Y-38198023D01*
X18980021Y-38609771D01*
X19137258Y-38990315D01*
X19428154Y-39281719D01*
X19808423Y-39439620D01*
X20045956Y-39439827D01*
X20079960Y-39462548D01*
X20370800Y-39520400D01*
X22852560Y-39520400D01*
X22852560Y-40197638D01*
X22154198Y-40896000D01*
X20869000Y-40896000D01*
X20578160Y-40953852D01*
X20331599Y-41118599D01*
X19637599Y-41812599D01*
X19472852Y-42059161D01*
X19462336Y-42112026D01*
X19417191Y-42142191D01*
X19276843Y-42352235D01*
X19227560Y-42600000D01*
X19227560Y-44100000D01*
X19276843Y-44347765D01*
X19417191Y-44557809D01*
X19627235Y-44698157D01*
X19875000Y-44747440D01*
X20475000Y-44747440D01*
X20722765Y-44698157D01*
X20810000Y-44639868D01*
X20897235Y-44698157D01*
X21145000Y-44747440D01*
X21745000Y-44747440D01*
X21992765Y-44698157D01*
X22202809Y-44557809D01*
X22251459Y-44485000D01*
X22385200Y-44485000D01*
X22819546Y-44398603D01*
X23187766Y-44152566D01*
X23205366Y-44134966D01*
X23451403Y-43766745D01*
X23537800Y-43332400D01*
X23451403Y-42898055D01*
X23205366Y-42529834D01*
X22854129Y-42295145D01*
X23006401Y-42193401D01*
X23927362Y-41272440D01*
X25000000Y-41272440D01*
X25247765Y-41223157D01*
X25273000Y-41206295D01*
X25273000Y-43961491D01*
X25128127Y-44689814D01*
X24722652Y-45296652D01*
X24115814Y-45702127D01*
X23387491Y-45847000D01*
X3965085Y-45847000D01*
X4006477Y-45819343D01*
X4306707Y-45370017D01*
X4412134Y-44840000D01*
X4306707Y-44309983D01*
X4006477Y-43860657D01*
X3557151Y-43560427D01*
X3027134Y-43455000D01*
X2972866Y-43455000D01*
X2442849Y-43560427D01*
X1993523Y-43860657D01*
X1693293Y-44309983D01*
X1587866Y-44840000D01*
X1693293Y-45370017D01*
X1993523Y-45819343D01*
X2034915Y-45847000D01*
X2009992Y-45847000D01*
X1421702Y-45753824D01*
X900009Y-45488008D01*
X735000Y-45322999D01*
X735000Y-39760000D01*
X1587866Y-39760000D01*
X1693293Y-40290017D01*
X1993523Y-40739343D01*
X2442849Y-41039573D01*
X2972866Y-41145000D01*
X3027134Y-41145000D01*
X3557151Y-41039573D01*
X4006477Y-40739343D01*
X4306707Y-40290017D01*
X4412134Y-39760000D01*
X4306707Y-39229983D01*
X4006477Y-38780657D01*
X3557151Y-38480427D01*
X3027134Y-38375000D01*
X2972866Y-38375000D01*
X2442849Y-38480427D01*
X1993523Y-38780657D01*
X1693293Y-39229983D01*
X1587866Y-39760000D01*
X735000Y-39760000D01*
X735000Y-23815801D01*
X856551Y-23694250D01*
X897069Y-23897947D01*
X1273170Y-24460821D01*
X1372870Y-24527438D01*
X1306791Y-24571591D01*
X1166443Y-24781635D01*
X1117160Y-25029400D01*
X1117160Y-26329400D01*
X1166443Y-26577165D01*
X1306791Y-26787209D01*
X1516835Y-26927557D01*
X1764600Y-26976840D01*
X3264600Y-26976840D01*
X3512365Y-26927557D01*
X3722409Y-26787209D01*
X3862757Y-26577165D01*
X3864600Y-26567900D01*
X3866443Y-26577165D01*
X4006791Y-26787209D01*
X4216835Y-26927557D01*
X4454600Y-26974851D01*
X4454600Y-34983400D01*
X4512452Y-35274239D01*
X4677199Y-35520801D01*
X5213365Y-36056967D01*
X5213221Y-36222171D01*
X5370458Y-36602715D01*
X5661354Y-36894119D01*
X6041623Y-37052020D01*
X6453371Y-37052379D01*
X6833915Y-36895142D01*
X7125319Y-36604246D01*
X7283220Y-36223977D01*
X7283579Y-35812229D01*
X7126342Y-35431685D01*
X6835446Y-35140281D01*
X6455177Y-34982380D01*
X6288236Y-34982234D01*
X5974600Y-34668598D01*
X5974600Y-29438600D01*
X6180200Y-29438600D01*
X6266597Y-29872945D01*
X6512634Y-30241166D01*
X8901234Y-32629767D01*
X9269455Y-32875804D01*
X9703800Y-32962200D01*
X12242800Y-32962200D01*
X12431626Y-32924640D01*
X12842800Y-32924640D01*
X13090565Y-32875357D01*
X13300609Y-32735009D01*
X13440957Y-32524965D01*
X13490240Y-32277200D01*
X13490240Y-31377200D01*
X13440957Y-31129435D01*
X13300609Y-30919391D01*
X13090565Y-30779043D01*
X12842800Y-30729760D01*
X12431626Y-30729760D01*
X12242800Y-30692200D01*
X10173933Y-30692200D01*
X8117766Y-28636034D01*
X7749545Y-28389997D01*
X7315200Y-28303600D01*
X6880855Y-28389997D01*
X6512634Y-28636034D01*
X6266597Y-29004255D01*
X6180200Y-29438600D01*
X5974600Y-29438600D01*
X5974600Y-26974851D01*
X6212365Y-26927557D01*
X6422409Y-26787209D01*
X6562757Y-26577165D01*
X6612040Y-26329400D01*
X6612040Y-25029400D01*
X6562757Y-24781635D01*
X6422409Y-24571591D01*
X6212365Y-24431243D01*
X5964600Y-24381960D01*
X4464600Y-24381960D01*
X4216835Y-24431243D01*
X4006791Y-24571591D01*
X3866443Y-24781635D01*
X3864600Y-24790900D01*
X3862757Y-24781635D01*
X3722409Y-24571591D01*
X3641730Y-24517683D01*
X3726830Y-24460821D01*
X4102931Y-23897947D01*
X4223501Y-23291800D01*
X7698160Y-23291800D01*
X7698160Y-23401600D01*
X7747443Y-23649365D01*
X7887791Y-23859409D01*
X8097835Y-23999757D01*
X8345600Y-24049040D01*
X10145600Y-24049040D01*
X10393365Y-23999757D01*
X10603409Y-23859409D01*
X10743757Y-23649365D01*
X10793040Y-23401600D01*
X10793040Y-23291800D01*
X12097987Y-23291800D01*
X12022200Y-23672806D01*
X12022200Y-24638000D01*
X12108597Y-25072346D01*
X12346176Y-25427908D01*
X12118697Y-25768354D01*
X12032300Y-26202700D01*
X12032300Y-27371100D01*
X12118697Y-27805446D01*
X12364734Y-28173666D01*
X12732954Y-28419703D01*
X12951980Y-28463270D01*
X12895997Y-28547054D01*
X12809600Y-28981400D01*
X12809600Y-29972000D01*
X12895997Y-30406346D01*
X13142034Y-30774566D01*
X13510254Y-31020603D01*
X13944600Y-31107000D01*
X14497000Y-31107000D01*
X14931346Y-31020603D01*
X15102801Y-30906040D01*
X15285400Y-30906040D01*
X15495400Y-30864269D01*
X15495400Y-34407598D01*
X14550199Y-35352799D01*
X14385452Y-35599361D01*
X14327600Y-35890200D01*
X14327600Y-39148592D01*
X14285034Y-39177034D01*
X14038997Y-39545254D01*
X13952600Y-39979600D01*
X13952600Y-41952560D01*
X13690000Y-41952560D01*
X13690000Y-41944652D01*
X13821557Y-41747765D01*
X13870840Y-41500000D01*
X13870840Y-40000000D01*
X13821557Y-39752235D01*
X13681209Y-39542191D01*
X13471165Y-39401843D01*
X13223400Y-39352560D01*
X12204892Y-39352560D01*
X12158600Y-39306268D01*
X12158600Y-36525200D01*
X12098815Y-36224640D01*
X12842800Y-36224640D01*
X13090565Y-36175357D01*
X13300609Y-36035009D01*
X13440957Y-35824965D01*
X13490240Y-35577200D01*
X13490240Y-34677200D01*
X13440957Y-34429435D01*
X13300609Y-34219391D01*
X13090565Y-34079043D01*
X12842800Y-34029760D01*
X11642800Y-34029760D01*
X11395035Y-34079043D01*
X11184991Y-34219391D01*
X11044643Y-34429435D01*
X10995360Y-34677200D01*
X10995360Y-35395817D01*
X10589254Y-35476597D01*
X10221034Y-35722634D01*
X9974997Y-36090854D01*
X9888600Y-36525200D01*
X9888600Y-39776400D01*
X9974997Y-40210746D01*
X10074094Y-40359055D01*
X10221034Y-40578966D01*
X11194634Y-41552566D01*
X11358148Y-41661823D01*
X11375243Y-41747765D01*
X11420000Y-41814748D01*
X11420000Y-42219599D01*
X11097255Y-42283797D01*
X10729034Y-42529834D01*
X10482997Y-42898055D01*
X10396600Y-43332400D01*
X10482997Y-43766745D01*
X10729034Y-44134966D01*
X10746634Y-44152566D01*
X11114854Y-44398603D01*
X11549200Y-44485000D01*
X11748541Y-44485000D01*
X11797191Y-44557809D01*
X12007235Y-44698157D01*
X12255000Y-44747440D01*
X12855000Y-44747440D01*
X13102765Y-44698157D01*
X13190000Y-44639868D01*
X13277235Y-44698157D01*
X13525000Y-44747440D01*
X14125000Y-44747440D01*
X14372765Y-44698157D01*
X14460000Y-44639868D01*
X14547235Y-44698157D01*
X14795000Y-44747440D01*
X15395000Y-44747440D01*
X15642765Y-44698157D01*
X15730000Y-44639868D01*
X15817235Y-44698157D01*
X16065000Y-44747440D01*
X16665000Y-44747440D01*
X16912765Y-44698157D01*
X17000000Y-44639868D01*
X17087235Y-44698157D01*
X17335000Y-44747440D01*
X17935000Y-44747440D01*
X18182765Y-44698157D01*
X18392809Y-44557809D01*
X18533157Y-44347765D01*
X18582440Y-44100000D01*
X18582440Y-43935747D01*
X18683603Y-43784346D01*
X18770000Y-43350000D01*
X18770000Y-41765000D01*
X18683603Y-41330654D01*
X18437566Y-40962434D01*
X18430166Y-40955034D01*
X18122662Y-40749567D01*
X18147440Y-40625000D01*
X18147440Y-39375000D01*
X18098157Y-39127235D01*
X17957809Y-38917191D01*
X17885000Y-38868541D01*
X17885000Y-37984400D01*
X17798603Y-37550054D01*
X17552566Y-37181834D01*
X17515766Y-37145034D01*
X17147545Y-36898997D01*
X16713200Y-36812600D01*
X16278855Y-36898997D01*
X15910634Y-37145034D01*
X15847600Y-37239371D01*
X15847600Y-36205002D01*
X16792801Y-35259801D01*
X16957548Y-35013239D01*
X17015400Y-34722400D01*
X17015400Y-30864269D01*
X17225400Y-30906040D01*
X17825400Y-30906040D01*
X18073165Y-30856757D01*
X18160400Y-30798468D01*
X18247635Y-30856757D01*
X18495400Y-30906040D01*
X18677999Y-30906040D01*
X18849454Y-31020603D01*
X19283800Y-31107000D01*
X19761200Y-31107000D01*
X20195546Y-31020603D01*
X20563766Y-30774566D01*
X20809803Y-30406346D01*
X20896200Y-29972000D01*
X20809803Y-29537654D01*
X20769075Y-29476700D01*
X20809803Y-29415746D01*
X20896200Y-28981400D01*
X20809803Y-28547054D01*
X20759170Y-28471276D01*
X21018446Y-28419703D01*
X21386666Y-28173666D01*
X21461466Y-28098866D01*
X21589934Y-27906600D01*
X21707503Y-27730646D01*
X21793900Y-27296300D01*
X21793900Y-26196100D01*
X21707503Y-25761754D01*
X21461466Y-25393534D01*
X21093246Y-25147497D01*
X20858452Y-25100793D01*
X20911403Y-25021546D01*
X20997800Y-24587200D01*
X20997800Y-23571200D01*
X20911403Y-23136854D01*
X20665366Y-22768634D01*
X20297146Y-22522597D01*
X19862800Y-22436200D01*
X19307800Y-22436200D01*
X18970506Y-22503292D01*
X19000600Y-22352000D01*
X19000600Y-19856000D01*
X18897600Y-19338183D01*
X18897600Y-18084576D01*
X19033868Y-17377367D01*
X19423159Y-16771422D01*
X19859669Y-16313445D01*
X19874587Y-16294469D01*
X20283657Y-15657737D01*
X20301514Y-15613120D01*
X20444706Y-14869977D01*
X20447000Y-14845948D01*
X20447000Y-2009992D01*
X20540176Y-1421702D01*
X20805992Y-900009D01*
X20971001Y-735000D01*
X24748999Y-735000D01*
X24914008Y-900009D01*
G36*
X19072008Y-900009D02*
X19337824Y-1421702D01*
X19431000Y-2009992D01*
X19431000Y-13134169D01*
X19286878Y-13860681D01*
X18883390Y-14466573D01*
X18279171Y-14872561D01*
X17553266Y-15019683D01*
X10793040Y-15047618D01*
X10793040Y-14901600D01*
X10743757Y-14653835D01*
X10603409Y-14443791D01*
X10393365Y-14303443D01*
X10145600Y-14254160D01*
X8345600Y-14254160D01*
X8097835Y-14303443D01*
X7903038Y-14433603D01*
X7752218Y-14283405D01*
X7485063Y-13760686D01*
X7391400Y-13170898D01*
X7391400Y-12610909D01*
X7527108Y-11928661D01*
X7906484Y-11360884D01*
X8474261Y-10981508D01*
X9156509Y-10845800D01*
X10147938Y-10845800D01*
X10165353Y-10844600D01*
X10708688Y-10769382D01*
X10742209Y-10759920D01*
X11244676Y-10539924D01*
X11274366Y-10521711D01*
X11698170Y-10173485D01*
X11710864Y-10161502D01*
X13024927Y-8737935D01*
X13039272Y-8719153D01*
X13432353Y-8090873D01*
X13449489Y-8047043D01*
X13586801Y-7318762D01*
X13589000Y-7295232D01*
X13589000Y-2009992D01*
X13682176Y-1421702D01*
X13947992Y-900009D01*
X14113001Y-735000D01*
X18906999Y-735000D01*
X19072008Y-900009D01*
X19072008Y-900009D01*
G37*
X19072008Y-900009D02*
X19337824Y-1421702D01*
X19431000Y-2009992D01*
X19431000Y-13134169D01*
X19286878Y-13860681D01*
X18883390Y-14466573D01*
X18279171Y-14872561D01*
X17553266Y-15019683D01*
X10793040Y-15047618D01*
X10793040Y-14901600D01*
X10743757Y-14653835D01*
X10603409Y-14443791D01*
X10393365Y-14303443D01*
X10145600Y-14254160D01*
X8345600Y-14254160D01*
X8097835Y-14303443D01*
X7903038Y-14433603D01*
X7752218Y-14283405D01*
X7485063Y-13760686D01*
X7391400Y-13170898D01*
X7391400Y-12610909D01*
X7527108Y-11928661D01*
X7906484Y-11360884D01*
X8474261Y-10981508D01*
X9156509Y-10845800D01*
X10147938Y-10845800D01*
X10165353Y-10844600D01*
X10708688Y-10769382D01*
X10742209Y-10759920D01*
X11244676Y-10539924D01*
X11274366Y-10521711D01*
X11698170Y-10173485D01*
X11710864Y-10161502D01*
X13024927Y-8737935D01*
X13039272Y-8719153D01*
X13432353Y-8090873D01*
X13449489Y-8047043D01*
X13586801Y-7318762D01*
X13589000Y-7295232D01*
X13589000Y-2009992D01*
X13682176Y-1421702D01*
X13947992Y-900009D01*
X14113001Y-735000D01*
X18906999Y-735000D01*
X19072008Y-900009D01*
M02*
