G04 #@! TF.GenerationSoftware,KiCad,Pcbnew,no-vcs-found-b05a40e~61~ubuntu17.10.1*
G04 #@! TF.CreationDate,2017-12-27T10:39:54-05:00*
G04 #@! TF.ProjectId,ENNOID Dual Gate Driver,454E4E4F4944204475616C2047617465,rev?*
G04 #@! TF.SameCoordinates,Original*
G04 #@! TF.FileFunction,Copper,L2,Bot,Signal*
G04 #@! TF.FilePolarity,Positive*
%FSLAX46Y46*%
G04 Gerber Fmt 4.6, Leading zero omitted, Abs format (unit mm)*
G04 Created by KiCad (PCBNEW no-vcs-found-b05a40e~61~ubuntu17.10.1) date Wed Dec 27 10:39:54 2017*
%MOMM*%
%LPD*%
G01*
G04 APERTURE LIST*
%ADD10C,3.800000*%
%ADD11R,1.250000X1.500000*%
%ADD12R,1.500000X1.250000*%
%ADD13R,2.000000X1.600000*%
%ADD14R,2.500000X2.000000*%
%ADD15O,2.200000X2.200000*%
%ADD16R,2.200000X2.200000*%
%ADD17O,2.600000X2.000000*%
%ADD18R,2.600000X2.000000*%
%ADD19C,0.750000*%
%ADD20C,0.100000*%
%ADD21R,4.000000X2.000000*%
%ADD22R,2.500000X1.000000*%
%ADD23R,1.500000X1.300000*%
%ADD24R,2.600000X2.100000*%
%ADD25R,1.300000X1.500000*%
%ADD26R,0.800000X0.900000*%
%ADD27C,3.000000*%
%ADD28C,1.700000*%
%ADD29R,1.700000X1.700000*%
%ADD30O,1.500000X1.500000*%
%ADD31R,1.500000X1.500000*%
%ADD32C,0.800000*%
%ADD33C,0.250000*%
%ADD34C,2.000000*%
%ADD35C,1.000000*%
%ADD36C,3.000000*%
%ADD37C,0.254000*%
G04 APERTURE END LIST*
D10*
X30000000Y-3000000D03*
X5000000Y-93000000D03*
D11*
X33705800Y-83941600D03*
X33705800Y-86441600D03*
X5080000Y-54971000D03*
X5080000Y-52471000D03*
X7010400Y-52471000D03*
X7010400Y-54971000D03*
X5156200Y-40099300D03*
X5156200Y-37599300D03*
X5156200Y-42336400D03*
X5156200Y-44836400D03*
D12*
X12250000Y-35000000D03*
X9750000Y-35000000D03*
D11*
X39090600Y-54996400D03*
X39090600Y-52496400D03*
X40970200Y-52496400D03*
X40970200Y-54996400D03*
X39166800Y-39800800D03*
X39166800Y-37300800D03*
X39166800Y-42300800D03*
X39166800Y-44800800D03*
D12*
X46250000Y-35000000D03*
X43750000Y-35000000D03*
X14077000Y-52044600D03*
X11577000Y-52044600D03*
X22611400Y-52730400D03*
X20111400Y-52730400D03*
X18140400Y-29283600D03*
X15640400Y-29283600D03*
D13*
X18890400Y-24283600D03*
X14890400Y-24283600D03*
D11*
X21282200Y-21963000D03*
X21282200Y-19463000D03*
X19282200Y-19463000D03*
X19282200Y-21963000D03*
D14*
X23749000Y-22218400D03*
X23749000Y-18218400D03*
D12*
X45892400Y-52730400D03*
X48392400Y-52730400D03*
X56012400Y-52781200D03*
X53512400Y-52781200D03*
X52750000Y-28978800D03*
X50250000Y-28978800D03*
D13*
X53500000Y-23978800D03*
X49500000Y-23978800D03*
D12*
X32009400Y-52781200D03*
X29509400Y-52781200D03*
X29433200Y-54610000D03*
X31933200Y-54610000D03*
D11*
X31826200Y-86441600D03*
X31826200Y-83941600D03*
D15*
X2500000Y-23200000D03*
D16*
X2500000Y-10500000D03*
X30000000Y-10500000D03*
D15*
X30000000Y-23200000D03*
D17*
X11544300Y-95872300D03*
X11544300Y-93332300D03*
X11544300Y-90792300D03*
D18*
X11544300Y-88252300D03*
D17*
X48488600Y-95758000D03*
D18*
X48488600Y-93218000D03*
D19*
X39370000Y-33000000D03*
D20*
G36*
X39745000Y-33500000D02*
X38995000Y-34000000D01*
X38995000Y-32000000D01*
X39745000Y-32500000D01*
X39745000Y-33500000D01*
X39745000Y-33500000D01*
G37*
D21*
X37020000Y-33000000D03*
D22*
X40980000Y-34500000D03*
X40980000Y-33000000D03*
X40980000Y-31500000D03*
D19*
X5370000Y-33000000D03*
D20*
G36*
X5745000Y-33500000D02*
X4995000Y-34000000D01*
X4995000Y-32000000D01*
X5745000Y-32500000D01*
X5745000Y-33500000D01*
X5745000Y-33500000D01*
G37*
D21*
X3020000Y-33000000D03*
D22*
X6980000Y-34500000D03*
X6980000Y-33000000D03*
X6980000Y-31500000D03*
D23*
X3044200Y-29438600D03*
X5744200Y-29438600D03*
X8987800Y-29438600D03*
X11687800Y-29438600D03*
X40008800Y-29514800D03*
X37308800Y-29514800D03*
X43557200Y-29514800D03*
X46257200Y-29514800D03*
X12239000Y-56362600D03*
X14939000Y-56362600D03*
D24*
X12794000Y-17999600D03*
X12794000Y-13099600D03*
X16294000Y-13099600D03*
X16294000Y-17999600D03*
D23*
X49584600Y-56388000D03*
X46884600Y-56388000D03*
D24*
X50785600Y-13252000D03*
X50785600Y-18152000D03*
X54285600Y-18152000D03*
X54285600Y-13252000D03*
D25*
X29921200Y-15878800D03*
X29921200Y-13178800D03*
X34117600Y-36650000D03*
X34117600Y-39350000D03*
X29921200Y-17954000D03*
X29921200Y-20654000D03*
D12*
X32034800Y-42621200D03*
X29534800Y-42621200D03*
D26*
X31117600Y-39000000D03*
X32067600Y-37000000D03*
X30167600Y-37000000D03*
D23*
X16650000Y-40000000D03*
X19350000Y-40000000D03*
X53350000Y-40000000D03*
X50650000Y-40000000D03*
D27*
X22500000Y-5830000D03*
X22500000Y-2170000D03*
X8500000Y-5830000D03*
X8500000Y-2170000D03*
X16500000Y-5830000D03*
X16500000Y-2170000D03*
X43500000Y-5830000D03*
X43500000Y-2170000D03*
X37500000Y-2170000D03*
X37500000Y-5830000D03*
D28*
X38887400Y-91478100D03*
X38887400Y-94018100D03*
X36347400Y-91478100D03*
X36347400Y-94018100D03*
X33807400Y-91478100D03*
X33807400Y-94018100D03*
X31267400Y-91478100D03*
X31267400Y-94018100D03*
X28727400Y-91478100D03*
X28727400Y-94018100D03*
X26187400Y-91478100D03*
X26187400Y-94018100D03*
X23647400Y-91478100D03*
X23647400Y-94018100D03*
X21107400Y-91478100D03*
D29*
X21107400Y-94018100D03*
D30*
X3000000Y-39760000D03*
X3000000Y-42300000D03*
X3000000Y-44840000D03*
X3000000Y-52460000D03*
D31*
X3000000Y-55000000D03*
D30*
X37000000Y-39760000D03*
X37000000Y-42300000D03*
X37000000Y-44840000D03*
X37000000Y-52460000D03*
D31*
X37000000Y-55000000D03*
D10*
X55000000Y-93000000D03*
D32*
X49098200Y-54508400D03*
X55067200Y-55295800D03*
X54350582Y-54147982D03*
X47825000Y-54178200D03*
X15011400Y-69900800D03*
X11023600Y-79070200D03*
X18491200Y-50901600D03*
X50368200Y-54533800D03*
X45897800Y-54508400D03*
X28879800Y-56261000D03*
X11277600Y-53467000D03*
X21463000Y-54229000D03*
X54991000Y-59182000D03*
X32689800Y-56261000D03*
X45720000Y-76733400D03*
X46634400Y-76758800D03*
X46634400Y-77698600D03*
X13462000Y-82753200D03*
X8966200Y-82753200D03*
X4521200Y-82753200D03*
X20052190Y-59055000D03*
X20167600Y-54229000D03*
X45694600Y-77698600D03*
X44678600Y-88239600D03*
X14173200Y-54381400D03*
X13639800Y-57937400D03*
X15036800Y-61366400D03*
X15036800Y-82753200D03*
X49580800Y-63296800D03*
X11836400Y-85471000D03*
X18872198Y-67716400D03*
X18872200Y-54254400D03*
X30175200Y-59131200D03*
X23647400Y-78562200D03*
X31419800Y-59156600D03*
X24917400Y-78562200D03*
X45847000Y-70688200D03*
X45847000Y-71755000D03*
X45847000Y-72847200D03*
X51587400Y-54533800D03*
X17678400Y-67767198D03*
X17678400Y-54305200D03*
X16078200Y-67767200D03*
X16510000Y-54305200D03*
X39598600Y-67259200D03*
X5410200Y-67208400D03*
X42951400Y-82245200D03*
X41986200Y-82245200D03*
X40995600Y-82245200D03*
X40005000Y-82245200D03*
X31800800Y-82473800D03*
X33680400Y-82448400D03*
X15113000Y-31470600D03*
X15113000Y-32334200D03*
X15113000Y-33223200D03*
X17272000Y-33223200D03*
X17272000Y-32334200D03*
X17272000Y-31445200D03*
X24892000Y-16433800D03*
X24028400Y-16433800D03*
X23164800Y-16433800D03*
X22301200Y-16433800D03*
X19100800Y-17907000D03*
X19964400Y-17907000D03*
X20828000Y-17907000D03*
X21691600Y-17881600D03*
X13944600Y-29972000D03*
X13944600Y-28981400D03*
X19761200Y-29972000D03*
X19761200Y-28981400D03*
X7315200Y-29438600D03*
X12750800Y-20726400D03*
X11887200Y-20726400D03*
X55372000Y-21132800D03*
X54457600Y-21132800D03*
X13157200Y-23672806D03*
X13157200Y-24638000D03*
X19862800Y-24587200D03*
X19862800Y-23571200D03*
X11023600Y-36525200D03*
X24790400Y-13157200D03*
X22402800Y-43332400D03*
X11531600Y-43332400D03*
X16713200Y-37947600D03*
X44145200Y-26111200D03*
X43230800Y-26111200D03*
X42316400Y-26111200D03*
X41402000Y-26111200D03*
X40487600Y-26162000D03*
X39573200Y-26162000D03*
X38658800Y-26162000D03*
X37744400Y-26162000D03*
X30124400Y-35052000D03*
X48209200Y-28752800D03*
X48209200Y-29667200D03*
X47701200Y-24333200D03*
X47701200Y-23418800D03*
X54711600Y-29718000D03*
X55270400Y-24231600D03*
X55270400Y-23317200D03*
X54711600Y-28803600D03*
X45059600Y-36677600D03*
X56489600Y-43383200D03*
X45516800Y-43383200D03*
X50749200Y-37998400D03*
X6248400Y-36017200D03*
X20015200Y-38404800D03*
X40487600Y-36118800D03*
X54000400Y-38455600D03*
X33477200Y-40893996D03*
X41808400Y-28752800D03*
X31394398Y-40894000D03*
X29718000Y-40843200D03*
X15087600Y-39979600D03*
X17627600Y-41757600D03*
X51663600Y-41706800D03*
X49123600Y-40081200D03*
D33*
X29433200Y-54610000D02*
X29433200Y-52857400D01*
X29433200Y-52857400D02*
X29509400Y-52781200D01*
X45897800Y-54508400D02*
X46297799Y-54908399D01*
X48698201Y-54908399D02*
X49098200Y-54508400D01*
X46297799Y-54908399D02*
X48698201Y-54908399D01*
X53512400Y-52781200D02*
X53512400Y-54357485D01*
X54450715Y-55295800D02*
X54501515Y-55295800D01*
X53512400Y-54357485D02*
X54450715Y-55295800D01*
X54501515Y-55295800D02*
X55067200Y-55295800D01*
X12239000Y-56362600D02*
X12239000Y-54428400D01*
X12239000Y-54428400D02*
X11277600Y-53467000D01*
X29433200Y-54610000D02*
X29433200Y-55707600D01*
X29433200Y-55707600D02*
X28879800Y-56261000D01*
X48392400Y-52730400D02*
X48392400Y-53610800D01*
X48392400Y-53610800D02*
X47825000Y-54178200D01*
X15036800Y-69875400D02*
X15011400Y-69900800D01*
X15036800Y-61366400D02*
X15036800Y-69875400D01*
X20721981Y-84810600D02*
X13030200Y-84810600D01*
X13030200Y-84810600D02*
X11023600Y-82804000D01*
X26187400Y-91478100D02*
X26187400Y-90276019D01*
X11023600Y-79635885D02*
X11023600Y-79070200D01*
X11023600Y-82804000D02*
X11023600Y-79635885D01*
X26187400Y-90276019D02*
X20721981Y-84810600D01*
X17678400Y-50641396D02*
X18143198Y-50176598D01*
X50303598Y-50176598D02*
X51587400Y-51460400D01*
X18143198Y-50176598D02*
X50303598Y-50176598D01*
X51587400Y-53968115D02*
X51587400Y-54533800D01*
X17678400Y-54305200D02*
X17678400Y-50641396D01*
X51587400Y-51460400D02*
X51587400Y-53968115D01*
X50368200Y-51511200D02*
X49758600Y-50901600D01*
X49758600Y-50901600D02*
X18491200Y-50901600D01*
X50368200Y-52746198D02*
X50368200Y-51511200D01*
X50368200Y-54533800D02*
X50368200Y-52746198D01*
X46884600Y-55488000D02*
X45892400Y-54495800D01*
X46884600Y-56388000D02*
X46884600Y-55488000D01*
X45892400Y-54495800D02*
X45892400Y-52730400D01*
X22611400Y-52730400D02*
X22611400Y-53080600D01*
X22611400Y-53080600D02*
X21463000Y-54229000D01*
X11577000Y-52044600D02*
X11577000Y-53167600D01*
X11577000Y-53167600D02*
X11277600Y-53467000D01*
D34*
X5080000Y-54971000D02*
X7010400Y-54971000D01*
X3000000Y-55000000D02*
X5051000Y-55000000D01*
X5051000Y-55000000D02*
X5080000Y-54971000D01*
X7010400Y-52471000D02*
X5080000Y-52471000D01*
X3000000Y-52460000D02*
X5069000Y-52460000D01*
X5069000Y-52460000D02*
X5080000Y-52471000D01*
X37000000Y-55000000D02*
X39087000Y-55000000D01*
X39087000Y-55000000D02*
X39090600Y-54996400D01*
X40970200Y-54996400D02*
X39090600Y-54996400D01*
X39090600Y-52496400D02*
X40970200Y-52496400D01*
X37000000Y-52460000D02*
X39054200Y-52460000D01*
X39054200Y-52460000D02*
X39090600Y-52496400D01*
D33*
X14077000Y-52044600D02*
X14077000Y-54285200D01*
X14077000Y-54285200D02*
X14173200Y-54381400D01*
X13649200Y-57946800D02*
X13639800Y-57937400D01*
X22989391Y-86441600D02*
X19300991Y-82753200D01*
X19300991Y-82753200D02*
X15602485Y-82753200D01*
X15602485Y-82753200D02*
X15036800Y-82753200D01*
X31826200Y-86441600D02*
X22989391Y-86441600D01*
X47518000Y-86441600D02*
X49580800Y-84378800D01*
X49580800Y-63862485D02*
X49580800Y-63296800D01*
X49580800Y-84378800D02*
X49580800Y-63862485D01*
X33705800Y-86441600D02*
X47518000Y-86441600D01*
X12141200Y-85775800D02*
X11836400Y-85471000D01*
X20040600Y-85775800D02*
X12141200Y-85775800D01*
X25012399Y-90747599D02*
X20040600Y-85775800D01*
X26187400Y-94018100D02*
X25012399Y-92843099D01*
X25012399Y-92843099D02*
X25012399Y-90747599D01*
X18872200Y-67716398D02*
X18872198Y-67716400D01*
X18872200Y-54254400D02*
X18872200Y-67716398D01*
X23647400Y-65659000D02*
X30175200Y-59131200D01*
X23647400Y-78562200D02*
X23647400Y-65659000D01*
X24917400Y-66497200D02*
X31419800Y-59994800D01*
X24917400Y-78562200D02*
X24917400Y-66497200D01*
X31419800Y-59994800D02*
X31419800Y-59156600D01*
X11544300Y-90792300D02*
X20421600Y-90792300D01*
X20421600Y-90792300D02*
X21107400Y-91478100D01*
X11544300Y-93332300D02*
X20421600Y-93332300D01*
X20421600Y-93332300D02*
X21107400Y-94018100D01*
D34*
X42951400Y-75742800D02*
X45847000Y-72847200D01*
X42951400Y-82245200D02*
X42951400Y-75742800D01*
D33*
X17678400Y-54305200D02*
X17678400Y-67767198D01*
X16510000Y-54305200D02*
X16510000Y-67335400D01*
X16478199Y-67367201D02*
X16078200Y-67767200D01*
X16510000Y-67335400D02*
X16478199Y-67367201D01*
D34*
X38074600Y-80314800D02*
X18542000Y-80314800D01*
X40005000Y-82245200D02*
X38074600Y-80314800D01*
X18542000Y-80314800D02*
X5435600Y-67208400D01*
X5435600Y-67208400D02*
X5410200Y-67208400D01*
X39573200Y-81813400D02*
X39573200Y-67284600D01*
X40005000Y-82245200D02*
X39573200Y-81813400D01*
X39573200Y-67284600D02*
X39598600Y-67259200D01*
X42951400Y-82245200D02*
X40005000Y-82245200D01*
D33*
X31826200Y-82499200D02*
X31800800Y-82473800D01*
X31826200Y-83941600D02*
X31826200Y-82499200D01*
X33705800Y-82473800D02*
X33680400Y-82448400D01*
X33705800Y-83941600D02*
X33705800Y-82473800D01*
D35*
X17272000Y-31445200D02*
X17272000Y-33223200D01*
X15113000Y-31470600D02*
X15113000Y-33223200D01*
X15113000Y-33223200D02*
X17272000Y-33223200D01*
X15113000Y-32334200D02*
X17272000Y-32334200D01*
X15113000Y-31470600D02*
X17246600Y-31470600D01*
X17246600Y-31470600D02*
X17272000Y-31445200D01*
X22301200Y-16433800D02*
X22301200Y-17272000D01*
X22301200Y-17272000D02*
X21691600Y-17881600D01*
X22301200Y-16433800D02*
X24892000Y-16433800D01*
X22301200Y-16433800D02*
X22301200Y-16770600D01*
X22301200Y-16770600D02*
X23749000Y-18218400D01*
X23164800Y-16433800D02*
X23164800Y-17634200D01*
X23164800Y-17634200D02*
X23749000Y-18218400D01*
X24028400Y-16433800D02*
X24028400Y-17939000D01*
X24028400Y-17939000D02*
X23749000Y-18218400D01*
X24892000Y-16433800D02*
X24892000Y-17075400D01*
X24892000Y-17075400D02*
X23749000Y-18218400D01*
X21691600Y-17881600D02*
X23412200Y-17881600D01*
X23412200Y-17881600D02*
X23749000Y-18218400D01*
X21282200Y-19463000D02*
X19282200Y-19463000D01*
X19964400Y-17907000D02*
X19964400Y-18780800D01*
X19964400Y-18780800D02*
X19282200Y-19463000D01*
X20828000Y-17907000D02*
X20828000Y-19008800D01*
X20828000Y-19008800D02*
X21282200Y-19463000D01*
X21691600Y-17881600D02*
X21691600Y-19053600D01*
X21691600Y-19053600D02*
X21282200Y-19463000D01*
X19100800Y-17907000D02*
X19100800Y-19281600D01*
X19100800Y-19281600D02*
X19282200Y-19463000D01*
X19100800Y-17907000D02*
X21666200Y-17907000D01*
X21666200Y-17907000D02*
X21691600Y-17881600D01*
X13157200Y-24638000D02*
X14536000Y-24638000D01*
X14536000Y-24638000D02*
X14890400Y-24283600D01*
X13157200Y-23672806D02*
X14279606Y-23672806D01*
X14279606Y-23672806D02*
X14890400Y-24283600D01*
X13944600Y-29972000D02*
X14952000Y-29972000D01*
X14952000Y-29972000D02*
X15640400Y-29283600D01*
X13944600Y-28981400D02*
X15338200Y-28981400D01*
X15338200Y-28981400D02*
X15640400Y-29283600D01*
X19194000Y-24587200D02*
X18890400Y-24283600D01*
X19761200Y-28981400D02*
X19761200Y-29972000D01*
X19761200Y-29972000D02*
X18828800Y-29972000D01*
X18828800Y-29972000D02*
X18140400Y-29283600D01*
X19761200Y-28981400D02*
X18442600Y-28981400D01*
X18442600Y-28981400D02*
X18140400Y-29283600D01*
D33*
X31826200Y-87441600D02*
X32537400Y-88152800D01*
X32537400Y-92748100D02*
X32957401Y-93168101D01*
X31826200Y-86441600D02*
X31826200Y-87441600D01*
X32957401Y-93168101D02*
X33807400Y-94018100D01*
X32537400Y-88152800D02*
X32537400Y-92748100D01*
X33705800Y-86441600D02*
X33705800Y-91376500D01*
X33705800Y-91376500D02*
X33807400Y-91478100D01*
D35*
X7315200Y-29438600D02*
X8987800Y-29438600D01*
X5744200Y-29438600D02*
X7315200Y-29438600D01*
D34*
X11887200Y-20726400D02*
X12750800Y-20726400D01*
X12794000Y-17999600D02*
X16294000Y-17999600D01*
X12750800Y-20726400D02*
X12750800Y-18042800D01*
X12750800Y-18042800D02*
X12794000Y-17999600D01*
X54457600Y-21132800D02*
X55372000Y-21132800D01*
X54457600Y-21132800D02*
X54457600Y-18324000D01*
X54457600Y-18324000D02*
X54285600Y-18152000D01*
D36*
X50785600Y-18152000D02*
X54285600Y-18152000D01*
D35*
X5156200Y-42336400D02*
X5156200Y-40099300D01*
X3000000Y-42300000D02*
X5119800Y-42300000D01*
X5119800Y-42300000D02*
X5156200Y-42336400D01*
X12250000Y-35298800D02*
X11023600Y-36525200D01*
X12250000Y-35000000D02*
X12250000Y-35298800D01*
D33*
X29921200Y-13178800D02*
X24812000Y-13178800D01*
X24812000Y-13178800D02*
X24790400Y-13157200D01*
D35*
X9750000Y-37182000D02*
X10515600Y-37947600D01*
X9750000Y-35000000D02*
X9750000Y-37182000D01*
X10515600Y-37947600D02*
X16147515Y-37947600D01*
X16147515Y-37947600D02*
X16713200Y-37947600D01*
X9750000Y-35000000D02*
X7480000Y-35000000D01*
X7480000Y-35000000D02*
X6980000Y-34500000D01*
D33*
X30124400Y-35052000D02*
X30124400Y-36956800D01*
X30124400Y-36956800D02*
X30167600Y-37000000D01*
X35017600Y-36650000D02*
X37000000Y-38632400D01*
X34117600Y-36650000D02*
X35017600Y-36650000D01*
X37000000Y-38632400D02*
X37000000Y-38699340D01*
X37000000Y-38699340D02*
X37000000Y-39760000D01*
X36590000Y-39350000D02*
X37000000Y-39760000D01*
D35*
X47701200Y-24333200D02*
X47701200Y-23418800D01*
X48209200Y-29667200D02*
X48209200Y-28752800D01*
X48209200Y-29667200D02*
X49561600Y-29667200D01*
X49561600Y-29667200D02*
X50250000Y-28978800D01*
X48209200Y-28752800D02*
X50024000Y-28752800D01*
X50024000Y-28752800D02*
X50250000Y-28978800D01*
X47701200Y-24333200D02*
X49145600Y-24333200D01*
X49145600Y-24333200D02*
X49500000Y-23978800D01*
X47701200Y-23418800D02*
X48940000Y-23418800D01*
X48940000Y-23418800D02*
X49500000Y-23978800D01*
X49295600Y-23774400D02*
X49500000Y-23978800D01*
X39166800Y-42300800D02*
X37000800Y-42300800D01*
X37000800Y-42300800D02*
X37000000Y-42300000D01*
X39166800Y-39800800D02*
X39166800Y-42300800D01*
X46250000Y-35000000D02*
X46250000Y-35487200D01*
X46250000Y-35487200D02*
X45059600Y-36677600D01*
X43750000Y-35000000D02*
X43750000Y-37298400D01*
X43750000Y-37298400D02*
X44450000Y-37998400D01*
X50183515Y-37998400D02*
X50749200Y-37998400D01*
X44450000Y-37998400D02*
X50183515Y-37998400D01*
X43750000Y-35000000D02*
X41480000Y-35000000D01*
X41480000Y-35000000D02*
X40980000Y-34500000D01*
D33*
X8991600Y-38760400D02*
X6248400Y-36017200D01*
X10161660Y-38760400D02*
X8991600Y-38760400D01*
X19449515Y-38404800D02*
X19081705Y-38772610D01*
X20015200Y-38404800D02*
X19449515Y-38404800D01*
X19081705Y-38772610D02*
X10173870Y-38772610D01*
X10173870Y-38772610D02*
X10161660Y-38760400D01*
X53600401Y-38855599D02*
X43224399Y-38855599D01*
X54000400Y-38455600D02*
X53600401Y-38855599D01*
X43224399Y-38855599D02*
X40887599Y-36518799D01*
X40887599Y-36518799D02*
X40487600Y-36118800D01*
X31117600Y-39000000D02*
X31117600Y-39050000D01*
X32961596Y-40893996D02*
X33477200Y-40893996D01*
X31117600Y-39050000D02*
X32961596Y-40893996D01*
D35*
X41808400Y-28752800D02*
X40770800Y-28752800D01*
X40770800Y-28752800D02*
X40008800Y-29514800D01*
X41808400Y-28752800D02*
X42795200Y-28752800D01*
X42795200Y-28752800D02*
X43557200Y-29514800D01*
D33*
X29921200Y-15878800D02*
X29921200Y-17954000D01*
X29921200Y-20754000D02*
X28448000Y-22227200D01*
X32034800Y-41534402D02*
X31794397Y-41293999D01*
X29921200Y-20654000D02*
X29921200Y-20754000D01*
X28448000Y-22227200D02*
X28448000Y-37947602D01*
X28448000Y-37947602D02*
X30994399Y-40494001D01*
X31794397Y-41293999D02*
X31394398Y-40894000D01*
X32034800Y-42621200D02*
X32034800Y-41534402D01*
X30994399Y-40494001D02*
X31394398Y-40894000D01*
X29534800Y-42621200D02*
X29534800Y-41026400D01*
X29534800Y-41026400D02*
X29718000Y-40843200D01*
D35*
X15108000Y-40000000D02*
X15087600Y-39979600D01*
X16650000Y-40000000D02*
X15108000Y-40000000D01*
X17627600Y-41757600D02*
X17627600Y-41722400D01*
X17627600Y-41722400D02*
X19350000Y-40000000D01*
X51663600Y-41706800D02*
X51663600Y-41686400D01*
X51663600Y-41686400D02*
X53350000Y-40000000D01*
X49123600Y-40081200D02*
X50568800Y-40081200D01*
X50568800Y-40081200D02*
X50650000Y-40000000D01*
X46257200Y-29514800D02*
X44272000Y-31500000D01*
X44272000Y-31500000D02*
X40980000Y-31500000D01*
X6980000Y-31500000D02*
X9626400Y-31500000D01*
X9626400Y-31500000D02*
X11687800Y-29438600D01*
D37*
G36*
X1843880Y-51303880D02*
X1489457Y-51834313D01*
X1365000Y-52460000D01*
X1489457Y-53085687D01*
X1843880Y-53616120D01*
X1949789Y-53686886D01*
X1792191Y-53792191D01*
X1651843Y-54002235D01*
X1615293Y-54185985D01*
X1489457Y-54374313D01*
X1365000Y-55000000D01*
X1489457Y-55625687D01*
X1615293Y-55814015D01*
X1651843Y-55997765D01*
X1792191Y-56207809D01*
X2002235Y-56348157D01*
X2185985Y-56384707D01*
X2374313Y-56510543D01*
X3000000Y-56635000D01*
X5050995Y-56635000D01*
X5051000Y-56635001D01*
X5196797Y-56606000D01*
X7010400Y-56606000D01*
X7636087Y-56481543D01*
X7877399Y-56320304D01*
X7883165Y-56319157D01*
X8093209Y-56178809D01*
X8096473Y-56173924D01*
X8166520Y-56127120D01*
X8520943Y-55596687D01*
X8645400Y-54971000D01*
X8520943Y-54345313D01*
X8166520Y-53814880D01*
X8096473Y-53768076D01*
X8093209Y-53763191D01*
X8030066Y-53721000D01*
X8093209Y-53678809D01*
X8096473Y-53673924D01*
X8166520Y-53627120D01*
X8520943Y-53096687D01*
X8645400Y-52471000D01*
X8520943Y-51845313D01*
X8166520Y-51314880D01*
X8096473Y-51268076D01*
X8093209Y-51263191D01*
X7894175Y-51130200D01*
X10256663Y-51130200D01*
X10228843Y-51171835D01*
X10179560Y-51419600D01*
X10179560Y-52669600D01*
X10228843Y-52917365D01*
X10325241Y-53061634D01*
X10242780Y-53260223D01*
X10242421Y-53671971D01*
X10399658Y-54052515D01*
X10690554Y-54343919D01*
X11070823Y-54501820D01*
X11237764Y-54501966D01*
X11479000Y-54743202D01*
X11479000Y-55067149D01*
X11241235Y-55114443D01*
X11031191Y-55254791D01*
X10890843Y-55464835D01*
X10841560Y-55712600D01*
X10841560Y-57012600D01*
X10890843Y-57260365D01*
X11031191Y-57470409D01*
X11241235Y-57610757D01*
X11489000Y-57660040D01*
X12634289Y-57660040D01*
X12604980Y-57730623D01*
X12604621Y-58142371D01*
X12761858Y-58522915D01*
X13052754Y-58814319D01*
X13433023Y-58972220D01*
X13844771Y-58972579D01*
X14225315Y-58815342D01*
X14516719Y-58524446D01*
X14674620Y-58144177D01*
X14674979Y-57732429D01*
X14645069Y-57660040D01*
X15689000Y-57660040D01*
X15750000Y-57647906D01*
X15750000Y-60615855D01*
X15623846Y-60489481D01*
X15243577Y-60331580D01*
X14831829Y-60331221D01*
X14451285Y-60488458D01*
X14159881Y-60779354D01*
X14001980Y-61159623D01*
X14001621Y-61571371D01*
X14158858Y-61951915D01*
X14276800Y-62070063D01*
X14276800Y-69171683D01*
X14134481Y-69313754D01*
X13976580Y-69694023D01*
X13976221Y-70105771D01*
X14133458Y-70486315D01*
X14424354Y-70777719D01*
X14804623Y-70935620D01*
X15216371Y-70935979D01*
X15596915Y-70778742D01*
X15888319Y-70487846D01*
X16046220Y-70107577D01*
X16046579Y-69695829D01*
X15889342Y-69315285D01*
X15796800Y-69222581D01*
X15796800Y-68771034D01*
X15871423Y-68802020D01*
X16283171Y-68802379D01*
X16663715Y-68645142D01*
X16878420Y-68430811D01*
X17091354Y-68644117D01*
X17471623Y-68802018D01*
X17883371Y-68802377D01*
X18263915Y-68645140D01*
X18306815Y-68602314D01*
X18665421Y-68751220D01*
X19077169Y-68751579D01*
X19457713Y-68594342D01*
X19749117Y-68303446D01*
X19907018Y-67923177D01*
X19907377Y-67511429D01*
X19750140Y-67130885D01*
X19632200Y-67012739D01*
X19632200Y-54958161D01*
X19749119Y-54841446D01*
X19907020Y-54461177D01*
X19907379Y-54049429D01*
X19866224Y-53949826D01*
X19984400Y-53831650D01*
X19984400Y-52857400D01*
X18885150Y-52857400D01*
X18726400Y-53016150D01*
X18726400Y-53219273D01*
X18667229Y-53219221D01*
X18438400Y-53313771D01*
X18438400Y-51936554D01*
X18696171Y-51936779D01*
X18753787Y-51912973D01*
X18726400Y-51979090D01*
X18726400Y-52444650D01*
X18885150Y-52603400D01*
X19984400Y-52603400D01*
X19984400Y-51661600D01*
X20238400Y-51661600D01*
X20238400Y-52603400D01*
X21213960Y-52603400D01*
X21213960Y-52857400D01*
X20238400Y-52857400D01*
X20238400Y-53831650D01*
X20397150Y-53990400D01*
X20441394Y-53990400D01*
X20428180Y-54022223D01*
X20427821Y-54433971D01*
X20585058Y-54814515D01*
X20875954Y-55105919D01*
X21256223Y-55263820D01*
X21667971Y-55264179D01*
X22048515Y-55106942D01*
X22339919Y-54816046D01*
X22497820Y-54435777D01*
X22497966Y-54268836D01*
X22763962Y-54002840D01*
X23361400Y-54002840D01*
X23609165Y-53953557D01*
X23819209Y-53813209D01*
X23959557Y-53603165D01*
X24008840Y-53355400D01*
X24008840Y-52105400D01*
X23959557Y-51857635D01*
X23828570Y-51661600D01*
X28356652Y-51661600D01*
X28301591Y-51698391D01*
X28161243Y-51908435D01*
X28111960Y-52156200D01*
X28111960Y-53406200D01*
X28156526Y-53630253D01*
X28085043Y-53737235D01*
X28035760Y-53985000D01*
X28035760Y-55235000D01*
X28085043Y-55482765D01*
X28128801Y-55548253D01*
X28002881Y-55673954D01*
X27844980Y-56054223D01*
X27844621Y-56465971D01*
X28001858Y-56846515D01*
X28292754Y-57137919D01*
X28673023Y-57295820D01*
X29084771Y-57296179D01*
X29465315Y-57138942D01*
X29756719Y-56848046D01*
X29914620Y-56467777D01*
X29914766Y-56300836D01*
X29970601Y-56245001D01*
X30135348Y-55998439D01*
X30158422Y-55882440D01*
X30183200Y-55882440D01*
X30430965Y-55833157D01*
X30641009Y-55692809D01*
X30681854Y-55631680D01*
X30823502Y-55773327D01*
X31056891Y-55870000D01*
X31647450Y-55870000D01*
X31806200Y-55711250D01*
X31806200Y-54737000D01*
X32060200Y-54737000D01*
X32060200Y-55711250D01*
X32218950Y-55870000D01*
X32809509Y-55870000D01*
X33042898Y-55773327D01*
X33221527Y-55594699D01*
X33318200Y-55361310D01*
X33318200Y-54895750D01*
X33159450Y-54737000D01*
X32060200Y-54737000D01*
X31806200Y-54737000D01*
X30830640Y-54737000D01*
X30830640Y-54483000D01*
X31806200Y-54483000D01*
X31806200Y-53958650D01*
X31882400Y-53882450D01*
X31882400Y-53508750D01*
X32060200Y-53508750D01*
X32060200Y-54483000D01*
X33159450Y-54483000D01*
X33318200Y-54324250D01*
X33318200Y-53858690D01*
X33285026Y-53778600D01*
X33297727Y-53765899D01*
X33394400Y-53532510D01*
X33394400Y-53066950D01*
X33235650Y-52908200D01*
X32136400Y-52908200D01*
X32136400Y-53432550D01*
X32060200Y-53508750D01*
X31882400Y-53508750D01*
X31882400Y-52908200D01*
X30906840Y-52908200D01*
X30906840Y-52654200D01*
X31882400Y-52654200D01*
X31882400Y-51679950D01*
X31864050Y-51661600D01*
X32154750Y-51661600D01*
X32136400Y-51679950D01*
X32136400Y-52654200D01*
X33235650Y-52654200D01*
X33394400Y-52495450D01*
X33394400Y-52029890D01*
X33297727Y-51796501D01*
X33162825Y-51661600D01*
X35604860Y-51661600D01*
X35489457Y-51834313D01*
X35365000Y-52460000D01*
X35489457Y-53085687D01*
X35843880Y-53616120D01*
X35949789Y-53686886D01*
X35792191Y-53792191D01*
X35651843Y-54002235D01*
X35615293Y-54185985D01*
X35489457Y-54374313D01*
X35365000Y-55000000D01*
X35489457Y-55625687D01*
X35615293Y-55814015D01*
X35651843Y-55997765D01*
X35792191Y-56207809D01*
X36002235Y-56348157D01*
X36185985Y-56384707D01*
X36374313Y-56510543D01*
X37000000Y-56635000D01*
X39086995Y-56635000D01*
X39087000Y-56635001D01*
X39105103Y-56631400D01*
X40970200Y-56631400D01*
X41595887Y-56506943D01*
X41837199Y-56345704D01*
X41842965Y-56344557D01*
X42053009Y-56204209D01*
X42056273Y-56199324D01*
X42126320Y-56152520D01*
X42480743Y-55622087D01*
X42605200Y-54996400D01*
X42480743Y-54370713D01*
X42126320Y-53840280D01*
X42056273Y-53793476D01*
X42053009Y-53788591D01*
X41989866Y-53746400D01*
X42053009Y-53704209D01*
X42056273Y-53699324D01*
X42126320Y-53652520D01*
X42480743Y-53122087D01*
X42605200Y-52496400D01*
X42480743Y-51870713D01*
X42341019Y-51661600D01*
X44675230Y-51661600D01*
X44544243Y-51857635D01*
X44494960Y-52105400D01*
X44494960Y-53355400D01*
X44544243Y-53603165D01*
X44684591Y-53813209D01*
X44894635Y-53953557D01*
X44998898Y-53974296D01*
X44862980Y-54301623D01*
X44862621Y-54713371D01*
X45019858Y-55093915D01*
X45310754Y-55385319D01*
X45542302Y-55481466D01*
X45536443Y-55490235D01*
X45487160Y-55738000D01*
X45487160Y-57038000D01*
X45536443Y-57285765D01*
X45676791Y-57495809D01*
X45886835Y-57636157D01*
X46134600Y-57685440D01*
X47634600Y-57685440D01*
X47882365Y-57636157D01*
X48092409Y-57495809D01*
X48232757Y-57285765D01*
X48234600Y-57276500D01*
X48236443Y-57285765D01*
X48376791Y-57495809D01*
X48586835Y-57636157D01*
X48834600Y-57685440D01*
X50334600Y-57685440D01*
X50582365Y-57636157D01*
X50792409Y-57495809D01*
X50932757Y-57285765D01*
X50982040Y-57038000D01*
X50982040Y-55738000D01*
X50932757Y-55490235D01*
X50896191Y-55435510D01*
X50953715Y-55411742D01*
X50977587Y-55387912D01*
X51000354Y-55410719D01*
X51380623Y-55568620D01*
X51792371Y-55568979D01*
X52172915Y-55411742D01*
X52464319Y-55120846D01*
X52622220Y-54740577D01*
X52622579Y-54328829D01*
X52478547Y-53980244D01*
X52514635Y-54004357D01*
X52752400Y-54051651D01*
X52752400Y-54357485D01*
X52810252Y-54648324D01*
X52974999Y-54894886D01*
X53913314Y-55833201D01*
X54159876Y-55997948D01*
X54341815Y-56034138D01*
X54480154Y-56172719D01*
X54860423Y-56330620D01*
X55272171Y-56330979D01*
X55652715Y-56173742D01*
X55944119Y-55882846D01*
X56102020Y-55502577D01*
X56102379Y-55090829D01*
X55945142Y-54710285D01*
X55654246Y-54418881D01*
X55273977Y-54260980D01*
X54862229Y-54260621D01*
X54599072Y-54369355D01*
X54279880Y-54050163D01*
X54510165Y-54004357D01*
X54720209Y-53864009D01*
X54761054Y-53802880D01*
X54902702Y-53944527D01*
X55136091Y-54041200D01*
X55726650Y-54041200D01*
X55885400Y-53882450D01*
X55885400Y-52908200D01*
X56139400Y-52908200D01*
X56139400Y-53882450D01*
X56298150Y-54041200D01*
X56888709Y-54041200D01*
X57122098Y-53944527D01*
X57300727Y-53765899D01*
X57397400Y-53532510D01*
X57397400Y-53066950D01*
X57238650Y-52908200D01*
X56139400Y-52908200D01*
X55885400Y-52908200D01*
X54909840Y-52908200D01*
X54909840Y-52654200D01*
X55885400Y-52654200D01*
X55885400Y-51679950D01*
X56139400Y-51679950D01*
X56139400Y-52654200D01*
X57238650Y-52654200D01*
X57397400Y-52495450D01*
X57397400Y-52029890D01*
X57300727Y-51796501D01*
X57122098Y-51617873D01*
X56888709Y-51521200D01*
X56298150Y-51521200D01*
X56139400Y-51679950D01*
X55885400Y-51679950D01*
X55726650Y-51521200D01*
X55136091Y-51521200D01*
X54902702Y-51617873D01*
X54761054Y-51759520D01*
X54720209Y-51698391D01*
X54510165Y-51558043D01*
X54262400Y-51508760D01*
X52762400Y-51508760D01*
X52514635Y-51558043D01*
X52347400Y-51669787D01*
X52347400Y-51460400D01*
X52324156Y-51343544D01*
X52289548Y-51169560D01*
X52263248Y-51130200D01*
X59265000Y-51130200D01*
X59265000Y-92927610D01*
X58927043Y-94626634D01*
X58005629Y-96005629D01*
X56626634Y-96927043D01*
X54927610Y-97265000D01*
X49457498Y-97265000D01*
X49982629Y-96914120D01*
X50337052Y-96383687D01*
X50461509Y-95758000D01*
X50337052Y-95132313D01*
X50098198Y-94774841D01*
X50246409Y-94675809D01*
X50386757Y-94465765D01*
X50436040Y-94218000D01*
X50436040Y-93502031D01*
X52464561Y-93502031D01*
X52849678Y-94434086D01*
X53562163Y-95147816D01*
X54493545Y-95534559D01*
X55502031Y-95535439D01*
X56434086Y-95150322D01*
X57147816Y-94437837D01*
X57534559Y-93506455D01*
X57535439Y-92497969D01*
X57150322Y-91565914D01*
X56437837Y-90852184D01*
X55506455Y-90465441D01*
X54497969Y-90464561D01*
X53565914Y-90849678D01*
X52852184Y-91562163D01*
X52465441Y-92493545D01*
X52464561Y-93502031D01*
X50436040Y-93502031D01*
X50436040Y-92218000D01*
X50386757Y-91970235D01*
X50246409Y-91760191D01*
X50036365Y-91619843D01*
X49788600Y-91570560D01*
X47188600Y-91570560D01*
X46940835Y-91619843D01*
X46730791Y-91760191D01*
X46590443Y-91970235D01*
X46541160Y-92218000D01*
X46541160Y-94218000D01*
X46590443Y-94465765D01*
X46730791Y-94675809D01*
X46879002Y-94774841D01*
X46640148Y-95132313D01*
X46515691Y-95758000D01*
X46640148Y-96383687D01*
X46994571Y-96914120D01*
X47519702Y-97265000D01*
X12684261Y-97265000D01*
X13038329Y-97028420D01*
X13392752Y-96497987D01*
X13517209Y-95872300D01*
X13392752Y-95246613D01*
X13038329Y-94716180D01*
X12867895Y-94602300D01*
X13038329Y-94488420D01*
X13303007Y-94092300D01*
X19609960Y-94092300D01*
X19609960Y-94868100D01*
X19659243Y-95115865D01*
X19799591Y-95325909D01*
X20009635Y-95466257D01*
X20257400Y-95515540D01*
X21957400Y-95515540D01*
X22205165Y-95466257D01*
X22415209Y-95325909D01*
X22555557Y-95115865D01*
X22570414Y-95041175D01*
X22805117Y-95276288D01*
X23350719Y-95502842D01*
X23941489Y-95503357D01*
X24487486Y-95277756D01*
X24905588Y-94860383D01*
X24917148Y-94832543D01*
X24927744Y-94858186D01*
X25345117Y-95276288D01*
X25890719Y-95502842D01*
X26481489Y-95503357D01*
X27027486Y-95277756D01*
X27445588Y-94860383D01*
X27457148Y-94832543D01*
X27467744Y-94858186D01*
X27885117Y-95276288D01*
X28430719Y-95502842D01*
X29021489Y-95503357D01*
X29567486Y-95277756D01*
X29985588Y-94860383D01*
X29997148Y-94832543D01*
X30007744Y-94858186D01*
X30425117Y-95276288D01*
X30970719Y-95502842D01*
X31561489Y-95503357D01*
X32107486Y-95277756D01*
X32525588Y-94860383D01*
X32537148Y-94832543D01*
X32547744Y-94858186D01*
X32965117Y-95276288D01*
X33510719Y-95502842D01*
X34101489Y-95503357D01*
X34647486Y-95277756D01*
X35065588Y-94860383D01*
X35077148Y-94832543D01*
X35087744Y-94858186D01*
X35505117Y-95276288D01*
X36050719Y-95502842D01*
X36641489Y-95503357D01*
X37187486Y-95277756D01*
X37605588Y-94860383D01*
X37617148Y-94832543D01*
X37627744Y-94858186D01*
X38045117Y-95276288D01*
X38590719Y-95502842D01*
X39181489Y-95503357D01*
X39727486Y-95277756D01*
X40145588Y-94860383D01*
X40372142Y-94314781D01*
X40372657Y-93724011D01*
X40147056Y-93178014D01*
X39729683Y-92759912D01*
X39701843Y-92748352D01*
X39727486Y-92737756D01*
X40145588Y-92320383D01*
X40372142Y-91774781D01*
X40372657Y-91184011D01*
X40147056Y-90638014D01*
X39729683Y-90219912D01*
X39184081Y-89993358D01*
X38593311Y-89992843D01*
X38047314Y-90218444D01*
X37629212Y-90635817D01*
X37617652Y-90663657D01*
X37607056Y-90638014D01*
X37189683Y-90219912D01*
X36644081Y-89993358D01*
X36053311Y-89992843D01*
X35507314Y-90218444D01*
X35089212Y-90635817D01*
X35077652Y-90663657D01*
X35067056Y-90638014D01*
X34649683Y-90219912D01*
X34465800Y-90143557D01*
X34465800Y-87812187D01*
X34578565Y-87789757D01*
X34788609Y-87649409D01*
X34928957Y-87439365D01*
X34976251Y-87201600D01*
X47518000Y-87201600D01*
X47808839Y-87143748D01*
X48055401Y-86979001D01*
X50118201Y-84916201D01*
X50282948Y-84669639D01*
X50340800Y-84378800D01*
X50340800Y-64000561D01*
X50457719Y-63883846D01*
X50615620Y-63503577D01*
X50615979Y-63091829D01*
X50458742Y-62711285D01*
X50167846Y-62419881D01*
X49787577Y-62261980D01*
X49375829Y-62261621D01*
X48995285Y-62418858D01*
X48703881Y-62709754D01*
X48545980Y-63090023D01*
X48545621Y-63501771D01*
X48702858Y-63882315D01*
X48820800Y-64000463D01*
X48820800Y-84063998D01*
X47203198Y-85681600D01*
X34976251Y-85681600D01*
X34928957Y-85443835D01*
X34788609Y-85233791D01*
X34725466Y-85191600D01*
X34788609Y-85149409D01*
X34928957Y-84939365D01*
X34978240Y-84691600D01*
X34978240Y-83191600D01*
X34928957Y-82943835D01*
X34788609Y-82733791D01*
X34705606Y-82678330D01*
X34715220Y-82655177D01*
X34715579Y-82243429D01*
X34594254Y-81949800D01*
X37397360Y-81949800D01*
X38417080Y-82969520D01*
X38639161Y-83191600D01*
X38848878Y-83401317D01*
X38848880Y-83401320D01*
X39010004Y-83508979D01*
X39379312Y-83755743D01*
X40005000Y-83880201D01*
X40005005Y-83880200D01*
X42951400Y-83880200D01*
X43577087Y-83755743D01*
X44107520Y-83401320D01*
X44461943Y-82870887D01*
X44586400Y-82245200D01*
X44586400Y-76420040D01*
X47003120Y-74003319D01*
X47357543Y-73472888D01*
X47482001Y-72847200D01*
X47357543Y-72221512D01*
X47003120Y-71691080D01*
X46882127Y-71610235D01*
X46882179Y-71550029D01*
X46746335Y-71221261D01*
X46881820Y-70894977D01*
X46882179Y-70483229D01*
X46724942Y-70102685D01*
X46434046Y-69811281D01*
X46053777Y-69653380D01*
X45642029Y-69653021D01*
X45261485Y-69810258D01*
X44970081Y-70101154D01*
X44812180Y-70481423D01*
X44811821Y-70893171D01*
X44947665Y-71221939D01*
X44812180Y-71548223D01*
X44812126Y-71610067D01*
X44690881Y-71691080D01*
X41795280Y-74586680D01*
X41440857Y-75117112D01*
X41316399Y-75742800D01*
X41316400Y-75742805D01*
X41316400Y-80610200D01*
X41208200Y-80610200D01*
X41208200Y-67386899D01*
X41233601Y-67259200D01*
X41109143Y-66633512D01*
X40754720Y-66103080D01*
X40224288Y-65748657D01*
X39598600Y-65624199D01*
X38972912Y-65748657D01*
X38442480Y-66103080D01*
X38417080Y-66128480D01*
X38062657Y-66658912D01*
X37938199Y-67284600D01*
X37938200Y-67284605D01*
X37938200Y-78679800D01*
X25952298Y-78679800D01*
X25952579Y-78357229D01*
X25795342Y-77976685D01*
X25677400Y-77858537D01*
X25677400Y-66812002D01*
X31957201Y-60532201D01*
X32121948Y-60285640D01*
X32179800Y-59994800D01*
X32179800Y-59860361D01*
X32296719Y-59743646D01*
X32454620Y-59363377D01*
X32454979Y-58951629D01*
X32297742Y-58571085D01*
X32006846Y-58279681D01*
X31626577Y-58121780D01*
X31214829Y-58121421D01*
X30834285Y-58278658D01*
X30810391Y-58302510D01*
X30762246Y-58254281D01*
X30381977Y-58096380D01*
X29970229Y-58096021D01*
X29589685Y-58253258D01*
X29298281Y-58544154D01*
X29140380Y-58924423D01*
X29140234Y-59091364D01*
X23109999Y-65121599D01*
X22945252Y-65368161D01*
X22887400Y-65659000D01*
X22887400Y-77858439D01*
X22770481Y-77975154D01*
X22612580Y-78355423D01*
X22612297Y-78679800D01*
X19219239Y-78679800D01*
X6591720Y-66052280D01*
X6061288Y-65697857D01*
X5435600Y-65573399D01*
X5435595Y-65573400D01*
X5410200Y-65573400D01*
X4784513Y-65697857D01*
X4254080Y-66052280D01*
X3899657Y-66582713D01*
X3775200Y-67208400D01*
X3899657Y-67834087D01*
X4254080Y-68364520D01*
X4330627Y-68415667D01*
X17385878Y-81470917D01*
X17385880Y-81470920D01*
X17668388Y-81659685D01*
X17916313Y-81825343D01*
X18542000Y-81949801D01*
X18542005Y-81949800D01*
X30897702Y-81949800D01*
X30765980Y-82267023D01*
X30765621Y-82678771D01*
X30778627Y-82710247D01*
X30743391Y-82733791D01*
X30603043Y-82943835D01*
X30553760Y-83191600D01*
X30553760Y-84691600D01*
X30603043Y-84939365D01*
X30743391Y-85149409D01*
X30806534Y-85191600D01*
X30743391Y-85233791D01*
X30603043Y-85443835D01*
X30555749Y-85681600D01*
X23304193Y-85681600D01*
X19838392Y-82215799D01*
X19591830Y-82051052D01*
X19300991Y-81993200D01*
X15740561Y-81993200D01*
X15623846Y-81876281D01*
X15243577Y-81718380D01*
X14831829Y-81718021D01*
X14451285Y-81875258D01*
X14159881Y-82166154D01*
X14001980Y-82546423D01*
X14001621Y-82958171D01*
X14158858Y-83338715D01*
X14449754Y-83630119D01*
X14830023Y-83788020D01*
X15241771Y-83788379D01*
X15622315Y-83631142D01*
X15740463Y-83513200D01*
X18986189Y-83513200D01*
X19523589Y-84050600D01*
X13345002Y-84050600D01*
X11783600Y-82489198D01*
X11783600Y-79773961D01*
X11900519Y-79657246D01*
X12058420Y-79276977D01*
X12058779Y-78865229D01*
X11901542Y-78484685D01*
X11610646Y-78193281D01*
X11230377Y-78035380D01*
X10818629Y-78035021D01*
X10438085Y-78192258D01*
X10146681Y-78483154D01*
X9988780Y-78863423D01*
X9988421Y-79275171D01*
X10145658Y-79655715D01*
X10263600Y-79773863D01*
X10263600Y-82804000D01*
X10321452Y-83094839D01*
X10486199Y-83341401D01*
X11595475Y-84450677D01*
X11250885Y-84593058D01*
X10959481Y-84883954D01*
X10801580Y-85264223D01*
X10801221Y-85675971D01*
X10958458Y-86056515D01*
X11249354Y-86347919D01*
X11629623Y-86505820D01*
X11992070Y-86506136D01*
X12141200Y-86535800D01*
X19725798Y-86535800D01*
X23232683Y-90042685D01*
X22807314Y-90218444D01*
X22389212Y-90635817D01*
X22377652Y-90663657D01*
X22367056Y-90638014D01*
X21949683Y-90219912D01*
X21404081Y-89993358D01*
X20813311Y-89992843D01*
X20621557Y-90072074D01*
X20421600Y-90032300D01*
X13303007Y-90032300D01*
X13155069Y-89810894D01*
X13203999Y-89790627D01*
X13382627Y-89611998D01*
X13479300Y-89378609D01*
X13479300Y-88538050D01*
X13320550Y-88379300D01*
X11671300Y-88379300D01*
X11671300Y-89157300D01*
X11417300Y-89157300D01*
X11417300Y-88379300D01*
X9768050Y-88379300D01*
X9609300Y-88538050D01*
X9609300Y-89378609D01*
X9705973Y-89611998D01*
X9884601Y-89790627D01*
X9933531Y-89810894D01*
X9695848Y-90166613D01*
X9571391Y-90792300D01*
X9695848Y-91417987D01*
X10050271Y-91948420D01*
X10220705Y-92062300D01*
X10050271Y-92176180D01*
X9695848Y-92706613D01*
X9571391Y-93332300D01*
X9695848Y-93957987D01*
X10050271Y-94488420D01*
X10220705Y-94602300D01*
X10050271Y-94716180D01*
X9695848Y-95246613D01*
X9571391Y-95872300D01*
X9695848Y-96497987D01*
X10050271Y-97028420D01*
X10404339Y-97265000D01*
X5072390Y-97265000D01*
X3373366Y-96927043D01*
X1994371Y-96005629D01*
X1072957Y-94626634D01*
X849260Y-93502031D01*
X2464561Y-93502031D01*
X2849678Y-94434086D01*
X3562163Y-95147816D01*
X4493545Y-95534559D01*
X5502031Y-95535439D01*
X6434086Y-95150322D01*
X7147816Y-94437837D01*
X7534559Y-93506455D01*
X7535439Y-92497969D01*
X7150322Y-91565914D01*
X6437837Y-90852184D01*
X5506455Y-90465441D01*
X4497969Y-90464561D01*
X3565914Y-90849678D01*
X2852184Y-91562163D01*
X2465441Y-92493545D01*
X2464561Y-93502031D01*
X849260Y-93502031D01*
X735000Y-92927610D01*
X735000Y-87125991D01*
X9609300Y-87125991D01*
X9609300Y-87966550D01*
X9768050Y-88125300D01*
X11417300Y-88125300D01*
X11417300Y-86776050D01*
X11671300Y-86776050D01*
X11671300Y-88125300D01*
X13320550Y-88125300D01*
X13479300Y-87966550D01*
X13479300Y-87125991D01*
X13382627Y-86892602D01*
X13203999Y-86713973D01*
X12970610Y-86617300D01*
X11830050Y-86617300D01*
X11671300Y-86776050D01*
X11417300Y-86776050D01*
X11258550Y-86617300D01*
X10117990Y-86617300D01*
X9884601Y-86713973D01*
X9705973Y-86892602D01*
X9609300Y-87125991D01*
X735000Y-87125991D01*
X735000Y-51130200D01*
X2103811Y-51130200D01*
X1843880Y-51303880D01*
X1843880Y-51303880D01*
G37*
X1843880Y-51303880D02*
X1489457Y-51834313D01*
X1365000Y-52460000D01*
X1489457Y-53085687D01*
X1843880Y-53616120D01*
X1949789Y-53686886D01*
X1792191Y-53792191D01*
X1651843Y-54002235D01*
X1615293Y-54185985D01*
X1489457Y-54374313D01*
X1365000Y-55000000D01*
X1489457Y-55625687D01*
X1615293Y-55814015D01*
X1651843Y-55997765D01*
X1792191Y-56207809D01*
X2002235Y-56348157D01*
X2185985Y-56384707D01*
X2374313Y-56510543D01*
X3000000Y-56635000D01*
X5050995Y-56635000D01*
X5051000Y-56635001D01*
X5196797Y-56606000D01*
X7010400Y-56606000D01*
X7636087Y-56481543D01*
X7877399Y-56320304D01*
X7883165Y-56319157D01*
X8093209Y-56178809D01*
X8096473Y-56173924D01*
X8166520Y-56127120D01*
X8520943Y-55596687D01*
X8645400Y-54971000D01*
X8520943Y-54345313D01*
X8166520Y-53814880D01*
X8096473Y-53768076D01*
X8093209Y-53763191D01*
X8030066Y-53721000D01*
X8093209Y-53678809D01*
X8096473Y-53673924D01*
X8166520Y-53627120D01*
X8520943Y-53096687D01*
X8645400Y-52471000D01*
X8520943Y-51845313D01*
X8166520Y-51314880D01*
X8096473Y-51268076D01*
X8093209Y-51263191D01*
X7894175Y-51130200D01*
X10256663Y-51130200D01*
X10228843Y-51171835D01*
X10179560Y-51419600D01*
X10179560Y-52669600D01*
X10228843Y-52917365D01*
X10325241Y-53061634D01*
X10242780Y-53260223D01*
X10242421Y-53671971D01*
X10399658Y-54052515D01*
X10690554Y-54343919D01*
X11070823Y-54501820D01*
X11237764Y-54501966D01*
X11479000Y-54743202D01*
X11479000Y-55067149D01*
X11241235Y-55114443D01*
X11031191Y-55254791D01*
X10890843Y-55464835D01*
X10841560Y-55712600D01*
X10841560Y-57012600D01*
X10890843Y-57260365D01*
X11031191Y-57470409D01*
X11241235Y-57610757D01*
X11489000Y-57660040D01*
X12634289Y-57660040D01*
X12604980Y-57730623D01*
X12604621Y-58142371D01*
X12761858Y-58522915D01*
X13052754Y-58814319D01*
X13433023Y-58972220D01*
X13844771Y-58972579D01*
X14225315Y-58815342D01*
X14516719Y-58524446D01*
X14674620Y-58144177D01*
X14674979Y-57732429D01*
X14645069Y-57660040D01*
X15689000Y-57660040D01*
X15750000Y-57647906D01*
X15750000Y-60615855D01*
X15623846Y-60489481D01*
X15243577Y-60331580D01*
X14831829Y-60331221D01*
X14451285Y-60488458D01*
X14159881Y-60779354D01*
X14001980Y-61159623D01*
X14001621Y-61571371D01*
X14158858Y-61951915D01*
X14276800Y-62070063D01*
X14276800Y-69171683D01*
X14134481Y-69313754D01*
X13976580Y-69694023D01*
X13976221Y-70105771D01*
X14133458Y-70486315D01*
X14424354Y-70777719D01*
X14804623Y-70935620D01*
X15216371Y-70935979D01*
X15596915Y-70778742D01*
X15888319Y-70487846D01*
X16046220Y-70107577D01*
X16046579Y-69695829D01*
X15889342Y-69315285D01*
X15796800Y-69222581D01*
X15796800Y-68771034D01*
X15871423Y-68802020D01*
X16283171Y-68802379D01*
X16663715Y-68645142D01*
X16878420Y-68430811D01*
X17091354Y-68644117D01*
X17471623Y-68802018D01*
X17883371Y-68802377D01*
X18263915Y-68645140D01*
X18306815Y-68602314D01*
X18665421Y-68751220D01*
X19077169Y-68751579D01*
X19457713Y-68594342D01*
X19749117Y-68303446D01*
X19907018Y-67923177D01*
X19907377Y-67511429D01*
X19750140Y-67130885D01*
X19632200Y-67012739D01*
X19632200Y-54958161D01*
X19749119Y-54841446D01*
X19907020Y-54461177D01*
X19907379Y-54049429D01*
X19866224Y-53949826D01*
X19984400Y-53831650D01*
X19984400Y-52857400D01*
X18885150Y-52857400D01*
X18726400Y-53016150D01*
X18726400Y-53219273D01*
X18667229Y-53219221D01*
X18438400Y-53313771D01*
X18438400Y-51936554D01*
X18696171Y-51936779D01*
X18753787Y-51912973D01*
X18726400Y-51979090D01*
X18726400Y-52444650D01*
X18885150Y-52603400D01*
X19984400Y-52603400D01*
X19984400Y-51661600D01*
X20238400Y-51661600D01*
X20238400Y-52603400D01*
X21213960Y-52603400D01*
X21213960Y-52857400D01*
X20238400Y-52857400D01*
X20238400Y-53831650D01*
X20397150Y-53990400D01*
X20441394Y-53990400D01*
X20428180Y-54022223D01*
X20427821Y-54433971D01*
X20585058Y-54814515D01*
X20875954Y-55105919D01*
X21256223Y-55263820D01*
X21667971Y-55264179D01*
X22048515Y-55106942D01*
X22339919Y-54816046D01*
X22497820Y-54435777D01*
X22497966Y-54268836D01*
X22763962Y-54002840D01*
X23361400Y-54002840D01*
X23609165Y-53953557D01*
X23819209Y-53813209D01*
X23959557Y-53603165D01*
X24008840Y-53355400D01*
X24008840Y-52105400D01*
X23959557Y-51857635D01*
X23828570Y-51661600D01*
X28356652Y-51661600D01*
X28301591Y-51698391D01*
X28161243Y-51908435D01*
X28111960Y-52156200D01*
X28111960Y-53406200D01*
X28156526Y-53630253D01*
X28085043Y-53737235D01*
X28035760Y-53985000D01*
X28035760Y-55235000D01*
X28085043Y-55482765D01*
X28128801Y-55548253D01*
X28002881Y-55673954D01*
X27844980Y-56054223D01*
X27844621Y-56465971D01*
X28001858Y-56846515D01*
X28292754Y-57137919D01*
X28673023Y-57295820D01*
X29084771Y-57296179D01*
X29465315Y-57138942D01*
X29756719Y-56848046D01*
X29914620Y-56467777D01*
X29914766Y-56300836D01*
X29970601Y-56245001D01*
X30135348Y-55998439D01*
X30158422Y-55882440D01*
X30183200Y-55882440D01*
X30430965Y-55833157D01*
X30641009Y-55692809D01*
X30681854Y-55631680D01*
X30823502Y-55773327D01*
X31056891Y-55870000D01*
X31647450Y-55870000D01*
X31806200Y-55711250D01*
X31806200Y-54737000D01*
X32060200Y-54737000D01*
X32060200Y-55711250D01*
X32218950Y-55870000D01*
X32809509Y-55870000D01*
X33042898Y-55773327D01*
X33221527Y-55594699D01*
X33318200Y-55361310D01*
X33318200Y-54895750D01*
X33159450Y-54737000D01*
X32060200Y-54737000D01*
X31806200Y-54737000D01*
X30830640Y-54737000D01*
X30830640Y-54483000D01*
X31806200Y-54483000D01*
X31806200Y-53958650D01*
X31882400Y-53882450D01*
X31882400Y-53508750D01*
X32060200Y-53508750D01*
X32060200Y-54483000D01*
X33159450Y-54483000D01*
X33318200Y-54324250D01*
X33318200Y-53858690D01*
X33285026Y-53778600D01*
X33297727Y-53765899D01*
X33394400Y-53532510D01*
X33394400Y-53066950D01*
X33235650Y-52908200D01*
X32136400Y-52908200D01*
X32136400Y-53432550D01*
X32060200Y-53508750D01*
X31882400Y-53508750D01*
X31882400Y-52908200D01*
X30906840Y-52908200D01*
X30906840Y-52654200D01*
X31882400Y-52654200D01*
X31882400Y-51679950D01*
X31864050Y-51661600D01*
X32154750Y-51661600D01*
X32136400Y-51679950D01*
X32136400Y-52654200D01*
X33235650Y-52654200D01*
X33394400Y-52495450D01*
X33394400Y-52029890D01*
X33297727Y-51796501D01*
X33162825Y-51661600D01*
X35604860Y-51661600D01*
X35489457Y-51834313D01*
X35365000Y-52460000D01*
X35489457Y-53085687D01*
X35843880Y-53616120D01*
X35949789Y-53686886D01*
X35792191Y-53792191D01*
X35651843Y-54002235D01*
X35615293Y-54185985D01*
X35489457Y-54374313D01*
X35365000Y-55000000D01*
X35489457Y-55625687D01*
X35615293Y-55814015D01*
X35651843Y-55997765D01*
X35792191Y-56207809D01*
X36002235Y-56348157D01*
X36185985Y-56384707D01*
X36374313Y-56510543D01*
X37000000Y-56635000D01*
X39086995Y-56635000D01*
X39087000Y-56635001D01*
X39105103Y-56631400D01*
X40970200Y-56631400D01*
X41595887Y-56506943D01*
X41837199Y-56345704D01*
X41842965Y-56344557D01*
X42053009Y-56204209D01*
X42056273Y-56199324D01*
X42126320Y-56152520D01*
X42480743Y-55622087D01*
X42605200Y-54996400D01*
X42480743Y-54370713D01*
X42126320Y-53840280D01*
X42056273Y-53793476D01*
X42053009Y-53788591D01*
X41989866Y-53746400D01*
X42053009Y-53704209D01*
X42056273Y-53699324D01*
X42126320Y-53652520D01*
X42480743Y-53122087D01*
X42605200Y-52496400D01*
X42480743Y-51870713D01*
X42341019Y-51661600D01*
X44675230Y-51661600D01*
X44544243Y-51857635D01*
X44494960Y-52105400D01*
X44494960Y-53355400D01*
X44544243Y-53603165D01*
X44684591Y-53813209D01*
X44894635Y-53953557D01*
X44998898Y-53974296D01*
X44862980Y-54301623D01*
X44862621Y-54713371D01*
X45019858Y-55093915D01*
X45310754Y-55385319D01*
X45542302Y-55481466D01*
X45536443Y-55490235D01*
X45487160Y-55738000D01*
X45487160Y-57038000D01*
X45536443Y-57285765D01*
X45676791Y-57495809D01*
X45886835Y-57636157D01*
X46134600Y-57685440D01*
X47634600Y-57685440D01*
X47882365Y-57636157D01*
X48092409Y-57495809D01*
X48232757Y-57285765D01*
X48234600Y-57276500D01*
X48236443Y-57285765D01*
X48376791Y-57495809D01*
X48586835Y-57636157D01*
X48834600Y-57685440D01*
X50334600Y-57685440D01*
X50582365Y-57636157D01*
X50792409Y-57495809D01*
X50932757Y-57285765D01*
X50982040Y-57038000D01*
X50982040Y-55738000D01*
X50932757Y-55490235D01*
X50896191Y-55435510D01*
X50953715Y-55411742D01*
X50977587Y-55387912D01*
X51000354Y-55410719D01*
X51380623Y-55568620D01*
X51792371Y-55568979D01*
X52172915Y-55411742D01*
X52464319Y-55120846D01*
X52622220Y-54740577D01*
X52622579Y-54328829D01*
X52478547Y-53980244D01*
X52514635Y-54004357D01*
X52752400Y-54051651D01*
X52752400Y-54357485D01*
X52810252Y-54648324D01*
X52974999Y-54894886D01*
X53913314Y-55833201D01*
X54159876Y-55997948D01*
X54341815Y-56034138D01*
X54480154Y-56172719D01*
X54860423Y-56330620D01*
X55272171Y-56330979D01*
X55652715Y-56173742D01*
X55944119Y-55882846D01*
X56102020Y-55502577D01*
X56102379Y-55090829D01*
X55945142Y-54710285D01*
X55654246Y-54418881D01*
X55273977Y-54260980D01*
X54862229Y-54260621D01*
X54599072Y-54369355D01*
X54279880Y-54050163D01*
X54510165Y-54004357D01*
X54720209Y-53864009D01*
X54761054Y-53802880D01*
X54902702Y-53944527D01*
X55136091Y-54041200D01*
X55726650Y-54041200D01*
X55885400Y-53882450D01*
X55885400Y-52908200D01*
X56139400Y-52908200D01*
X56139400Y-53882450D01*
X56298150Y-54041200D01*
X56888709Y-54041200D01*
X57122098Y-53944527D01*
X57300727Y-53765899D01*
X57397400Y-53532510D01*
X57397400Y-53066950D01*
X57238650Y-52908200D01*
X56139400Y-52908200D01*
X55885400Y-52908200D01*
X54909840Y-52908200D01*
X54909840Y-52654200D01*
X55885400Y-52654200D01*
X55885400Y-51679950D01*
X56139400Y-51679950D01*
X56139400Y-52654200D01*
X57238650Y-52654200D01*
X57397400Y-52495450D01*
X57397400Y-52029890D01*
X57300727Y-51796501D01*
X57122098Y-51617873D01*
X56888709Y-51521200D01*
X56298150Y-51521200D01*
X56139400Y-51679950D01*
X55885400Y-51679950D01*
X55726650Y-51521200D01*
X55136091Y-51521200D01*
X54902702Y-51617873D01*
X54761054Y-51759520D01*
X54720209Y-51698391D01*
X54510165Y-51558043D01*
X54262400Y-51508760D01*
X52762400Y-51508760D01*
X52514635Y-51558043D01*
X52347400Y-51669787D01*
X52347400Y-51460400D01*
X52324156Y-51343544D01*
X52289548Y-51169560D01*
X52263248Y-51130200D01*
X59265000Y-51130200D01*
X59265000Y-92927610D01*
X58927043Y-94626634D01*
X58005629Y-96005629D01*
X56626634Y-96927043D01*
X54927610Y-97265000D01*
X49457498Y-97265000D01*
X49982629Y-96914120D01*
X50337052Y-96383687D01*
X50461509Y-95758000D01*
X50337052Y-95132313D01*
X50098198Y-94774841D01*
X50246409Y-94675809D01*
X50386757Y-94465765D01*
X50436040Y-94218000D01*
X50436040Y-93502031D01*
X52464561Y-93502031D01*
X52849678Y-94434086D01*
X53562163Y-95147816D01*
X54493545Y-95534559D01*
X55502031Y-95535439D01*
X56434086Y-95150322D01*
X57147816Y-94437837D01*
X57534559Y-93506455D01*
X57535439Y-92497969D01*
X57150322Y-91565914D01*
X56437837Y-90852184D01*
X55506455Y-90465441D01*
X54497969Y-90464561D01*
X53565914Y-90849678D01*
X52852184Y-91562163D01*
X52465441Y-92493545D01*
X52464561Y-93502031D01*
X50436040Y-93502031D01*
X50436040Y-92218000D01*
X50386757Y-91970235D01*
X50246409Y-91760191D01*
X50036365Y-91619843D01*
X49788600Y-91570560D01*
X47188600Y-91570560D01*
X46940835Y-91619843D01*
X46730791Y-91760191D01*
X46590443Y-91970235D01*
X46541160Y-92218000D01*
X46541160Y-94218000D01*
X46590443Y-94465765D01*
X46730791Y-94675809D01*
X46879002Y-94774841D01*
X46640148Y-95132313D01*
X46515691Y-95758000D01*
X46640148Y-96383687D01*
X46994571Y-96914120D01*
X47519702Y-97265000D01*
X12684261Y-97265000D01*
X13038329Y-97028420D01*
X13392752Y-96497987D01*
X13517209Y-95872300D01*
X13392752Y-95246613D01*
X13038329Y-94716180D01*
X12867895Y-94602300D01*
X13038329Y-94488420D01*
X13303007Y-94092300D01*
X19609960Y-94092300D01*
X19609960Y-94868100D01*
X19659243Y-95115865D01*
X19799591Y-95325909D01*
X20009635Y-95466257D01*
X20257400Y-95515540D01*
X21957400Y-95515540D01*
X22205165Y-95466257D01*
X22415209Y-95325909D01*
X22555557Y-95115865D01*
X22570414Y-95041175D01*
X22805117Y-95276288D01*
X23350719Y-95502842D01*
X23941489Y-95503357D01*
X24487486Y-95277756D01*
X24905588Y-94860383D01*
X24917148Y-94832543D01*
X24927744Y-94858186D01*
X25345117Y-95276288D01*
X25890719Y-95502842D01*
X26481489Y-95503357D01*
X27027486Y-95277756D01*
X27445588Y-94860383D01*
X27457148Y-94832543D01*
X27467744Y-94858186D01*
X27885117Y-95276288D01*
X28430719Y-95502842D01*
X29021489Y-95503357D01*
X29567486Y-95277756D01*
X29985588Y-94860383D01*
X29997148Y-94832543D01*
X30007744Y-94858186D01*
X30425117Y-95276288D01*
X30970719Y-95502842D01*
X31561489Y-95503357D01*
X32107486Y-95277756D01*
X32525588Y-94860383D01*
X32537148Y-94832543D01*
X32547744Y-94858186D01*
X32965117Y-95276288D01*
X33510719Y-95502842D01*
X34101489Y-95503357D01*
X34647486Y-95277756D01*
X35065588Y-94860383D01*
X35077148Y-94832543D01*
X35087744Y-94858186D01*
X35505117Y-95276288D01*
X36050719Y-95502842D01*
X36641489Y-95503357D01*
X37187486Y-95277756D01*
X37605588Y-94860383D01*
X37617148Y-94832543D01*
X37627744Y-94858186D01*
X38045117Y-95276288D01*
X38590719Y-95502842D01*
X39181489Y-95503357D01*
X39727486Y-95277756D01*
X40145588Y-94860383D01*
X40372142Y-94314781D01*
X40372657Y-93724011D01*
X40147056Y-93178014D01*
X39729683Y-92759912D01*
X39701843Y-92748352D01*
X39727486Y-92737756D01*
X40145588Y-92320383D01*
X40372142Y-91774781D01*
X40372657Y-91184011D01*
X40147056Y-90638014D01*
X39729683Y-90219912D01*
X39184081Y-89993358D01*
X38593311Y-89992843D01*
X38047314Y-90218444D01*
X37629212Y-90635817D01*
X37617652Y-90663657D01*
X37607056Y-90638014D01*
X37189683Y-90219912D01*
X36644081Y-89993358D01*
X36053311Y-89992843D01*
X35507314Y-90218444D01*
X35089212Y-90635817D01*
X35077652Y-90663657D01*
X35067056Y-90638014D01*
X34649683Y-90219912D01*
X34465800Y-90143557D01*
X34465800Y-87812187D01*
X34578565Y-87789757D01*
X34788609Y-87649409D01*
X34928957Y-87439365D01*
X34976251Y-87201600D01*
X47518000Y-87201600D01*
X47808839Y-87143748D01*
X48055401Y-86979001D01*
X50118201Y-84916201D01*
X50282948Y-84669639D01*
X50340800Y-84378800D01*
X50340800Y-64000561D01*
X50457719Y-63883846D01*
X50615620Y-63503577D01*
X50615979Y-63091829D01*
X50458742Y-62711285D01*
X50167846Y-62419881D01*
X49787577Y-62261980D01*
X49375829Y-62261621D01*
X48995285Y-62418858D01*
X48703881Y-62709754D01*
X48545980Y-63090023D01*
X48545621Y-63501771D01*
X48702858Y-63882315D01*
X48820800Y-64000463D01*
X48820800Y-84063998D01*
X47203198Y-85681600D01*
X34976251Y-85681600D01*
X34928957Y-85443835D01*
X34788609Y-85233791D01*
X34725466Y-85191600D01*
X34788609Y-85149409D01*
X34928957Y-84939365D01*
X34978240Y-84691600D01*
X34978240Y-83191600D01*
X34928957Y-82943835D01*
X34788609Y-82733791D01*
X34705606Y-82678330D01*
X34715220Y-82655177D01*
X34715579Y-82243429D01*
X34594254Y-81949800D01*
X37397360Y-81949800D01*
X38417080Y-82969520D01*
X38639161Y-83191600D01*
X38848878Y-83401317D01*
X38848880Y-83401320D01*
X39010004Y-83508979D01*
X39379312Y-83755743D01*
X40005000Y-83880201D01*
X40005005Y-83880200D01*
X42951400Y-83880200D01*
X43577087Y-83755743D01*
X44107520Y-83401320D01*
X44461943Y-82870887D01*
X44586400Y-82245200D01*
X44586400Y-76420040D01*
X47003120Y-74003319D01*
X47357543Y-73472888D01*
X47482001Y-72847200D01*
X47357543Y-72221512D01*
X47003120Y-71691080D01*
X46882127Y-71610235D01*
X46882179Y-71550029D01*
X46746335Y-71221261D01*
X46881820Y-70894977D01*
X46882179Y-70483229D01*
X46724942Y-70102685D01*
X46434046Y-69811281D01*
X46053777Y-69653380D01*
X45642029Y-69653021D01*
X45261485Y-69810258D01*
X44970081Y-70101154D01*
X44812180Y-70481423D01*
X44811821Y-70893171D01*
X44947665Y-71221939D01*
X44812180Y-71548223D01*
X44812126Y-71610067D01*
X44690881Y-71691080D01*
X41795280Y-74586680D01*
X41440857Y-75117112D01*
X41316399Y-75742800D01*
X41316400Y-75742805D01*
X41316400Y-80610200D01*
X41208200Y-80610200D01*
X41208200Y-67386899D01*
X41233601Y-67259200D01*
X41109143Y-66633512D01*
X40754720Y-66103080D01*
X40224288Y-65748657D01*
X39598600Y-65624199D01*
X38972912Y-65748657D01*
X38442480Y-66103080D01*
X38417080Y-66128480D01*
X38062657Y-66658912D01*
X37938199Y-67284600D01*
X37938200Y-67284605D01*
X37938200Y-78679800D01*
X25952298Y-78679800D01*
X25952579Y-78357229D01*
X25795342Y-77976685D01*
X25677400Y-77858537D01*
X25677400Y-66812002D01*
X31957201Y-60532201D01*
X32121948Y-60285640D01*
X32179800Y-59994800D01*
X32179800Y-59860361D01*
X32296719Y-59743646D01*
X32454620Y-59363377D01*
X32454979Y-58951629D01*
X32297742Y-58571085D01*
X32006846Y-58279681D01*
X31626577Y-58121780D01*
X31214829Y-58121421D01*
X30834285Y-58278658D01*
X30810391Y-58302510D01*
X30762246Y-58254281D01*
X30381977Y-58096380D01*
X29970229Y-58096021D01*
X29589685Y-58253258D01*
X29298281Y-58544154D01*
X29140380Y-58924423D01*
X29140234Y-59091364D01*
X23109999Y-65121599D01*
X22945252Y-65368161D01*
X22887400Y-65659000D01*
X22887400Y-77858439D01*
X22770481Y-77975154D01*
X22612580Y-78355423D01*
X22612297Y-78679800D01*
X19219239Y-78679800D01*
X6591720Y-66052280D01*
X6061288Y-65697857D01*
X5435600Y-65573399D01*
X5435595Y-65573400D01*
X5410200Y-65573400D01*
X4784513Y-65697857D01*
X4254080Y-66052280D01*
X3899657Y-66582713D01*
X3775200Y-67208400D01*
X3899657Y-67834087D01*
X4254080Y-68364520D01*
X4330627Y-68415667D01*
X17385878Y-81470917D01*
X17385880Y-81470920D01*
X17668388Y-81659685D01*
X17916313Y-81825343D01*
X18542000Y-81949801D01*
X18542005Y-81949800D01*
X30897702Y-81949800D01*
X30765980Y-82267023D01*
X30765621Y-82678771D01*
X30778627Y-82710247D01*
X30743391Y-82733791D01*
X30603043Y-82943835D01*
X30553760Y-83191600D01*
X30553760Y-84691600D01*
X30603043Y-84939365D01*
X30743391Y-85149409D01*
X30806534Y-85191600D01*
X30743391Y-85233791D01*
X30603043Y-85443835D01*
X30555749Y-85681600D01*
X23304193Y-85681600D01*
X19838392Y-82215799D01*
X19591830Y-82051052D01*
X19300991Y-81993200D01*
X15740561Y-81993200D01*
X15623846Y-81876281D01*
X15243577Y-81718380D01*
X14831829Y-81718021D01*
X14451285Y-81875258D01*
X14159881Y-82166154D01*
X14001980Y-82546423D01*
X14001621Y-82958171D01*
X14158858Y-83338715D01*
X14449754Y-83630119D01*
X14830023Y-83788020D01*
X15241771Y-83788379D01*
X15622315Y-83631142D01*
X15740463Y-83513200D01*
X18986189Y-83513200D01*
X19523589Y-84050600D01*
X13345002Y-84050600D01*
X11783600Y-82489198D01*
X11783600Y-79773961D01*
X11900519Y-79657246D01*
X12058420Y-79276977D01*
X12058779Y-78865229D01*
X11901542Y-78484685D01*
X11610646Y-78193281D01*
X11230377Y-78035380D01*
X10818629Y-78035021D01*
X10438085Y-78192258D01*
X10146681Y-78483154D01*
X9988780Y-78863423D01*
X9988421Y-79275171D01*
X10145658Y-79655715D01*
X10263600Y-79773863D01*
X10263600Y-82804000D01*
X10321452Y-83094839D01*
X10486199Y-83341401D01*
X11595475Y-84450677D01*
X11250885Y-84593058D01*
X10959481Y-84883954D01*
X10801580Y-85264223D01*
X10801221Y-85675971D01*
X10958458Y-86056515D01*
X11249354Y-86347919D01*
X11629623Y-86505820D01*
X11992070Y-86506136D01*
X12141200Y-86535800D01*
X19725798Y-86535800D01*
X23232683Y-90042685D01*
X22807314Y-90218444D01*
X22389212Y-90635817D01*
X22377652Y-90663657D01*
X22367056Y-90638014D01*
X21949683Y-90219912D01*
X21404081Y-89993358D01*
X20813311Y-89992843D01*
X20621557Y-90072074D01*
X20421600Y-90032300D01*
X13303007Y-90032300D01*
X13155069Y-89810894D01*
X13203999Y-89790627D01*
X13382627Y-89611998D01*
X13479300Y-89378609D01*
X13479300Y-88538050D01*
X13320550Y-88379300D01*
X11671300Y-88379300D01*
X11671300Y-89157300D01*
X11417300Y-89157300D01*
X11417300Y-88379300D01*
X9768050Y-88379300D01*
X9609300Y-88538050D01*
X9609300Y-89378609D01*
X9705973Y-89611998D01*
X9884601Y-89790627D01*
X9933531Y-89810894D01*
X9695848Y-90166613D01*
X9571391Y-90792300D01*
X9695848Y-91417987D01*
X10050271Y-91948420D01*
X10220705Y-92062300D01*
X10050271Y-92176180D01*
X9695848Y-92706613D01*
X9571391Y-93332300D01*
X9695848Y-93957987D01*
X10050271Y-94488420D01*
X10220705Y-94602300D01*
X10050271Y-94716180D01*
X9695848Y-95246613D01*
X9571391Y-95872300D01*
X9695848Y-96497987D01*
X10050271Y-97028420D01*
X10404339Y-97265000D01*
X5072390Y-97265000D01*
X3373366Y-96927043D01*
X1994371Y-96005629D01*
X1072957Y-94626634D01*
X849260Y-93502031D01*
X2464561Y-93502031D01*
X2849678Y-94434086D01*
X3562163Y-95147816D01*
X4493545Y-95534559D01*
X5502031Y-95535439D01*
X6434086Y-95150322D01*
X7147816Y-94437837D01*
X7534559Y-93506455D01*
X7535439Y-92497969D01*
X7150322Y-91565914D01*
X6437837Y-90852184D01*
X5506455Y-90465441D01*
X4497969Y-90464561D01*
X3565914Y-90849678D01*
X2852184Y-91562163D01*
X2465441Y-92493545D01*
X2464561Y-93502031D01*
X849260Y-93502031D01*
X735000Y-92927610D01*
X735000Y-87125991D01*
X9609300Y-87125991D01*
X9609300Y-87966550D01*
X9768050Y-88125300D01*
X11417300Y-88125300D01*
X11417300Y-86776050D01*
X11671300Y-86776050D01*
X11671300Y-88125300D01*
X13320550Y-88125300D01*
X13479300Y-87966550D01*
X13479300Y-87125991D01*
X13382627Y-86892602D01*
X13203999Y-86713973D01*
X12970610Y-86617300D01*
X11830050Y-86617300D01*
X11671300Y-86776050D01*
X11417300Y-86776050D01*
X11258550Y-86617300D01*
X10117990Y-86617300D01*
X9884601Y-86713973D01*
X9705973Y-86892602D01*
X9609300Y-87125991D01*
X735000Y-87125991D01*
X735000Y-51130200D01*
X2103811Y-51130200D01*
X1843880Y-51303880D01*
G36*
X58615578Y-22013511D02*
X59221454Y-22416968D01*
X59265000Y-22481771D01*
X59265000Y-45309334D01*
X59088919Y-45486155D01*
X58566187Y-45753329D01*
X57976375Y-45847000D01*
X36810509Y-45847000D01*
X36082186Y-45702127D01*
X35475348Y-45296652D01*
X35069873Y-44689814D01*
X34925000Y-43961491D01*
X34925000Y-43312909D01*
X35069873Y-42584586D01*
X35475348Y-41977748D01*
X35679038Y-41841647D01*
X35587866Y-42300000D01*
X35693293Y-42830017D01*
X35993523Y-43279343D01*
X36442849Y-43579573D01*
X36972866Y-43685000D01*
X37027134Y-43685000D01*
X37557151Y-43579573D01*
X37772323Y-43435800D01*
X38035341Y-43435800D01*
X38083991Y-43508609D01*
X38294035Y-43648957D01*
X38541800Y-43698240D01*
X39791800Y-43698240D01*
X40039565Y-43648957D01*
X40249609Y-43508609D01*
X40389957Y-43298565D01*
X40439240Y-43050800D01*
X40439240Y-41550800D01*
X40414694Y-41427400D01*
X49511200Y-41427400D01*
X49535976Y-41424960D01*
X50177062Y-41297440D01*
X50605969Y-41297440D01*
X50528600Y-41686400D01*
X50528600Y-41706800D01*
X50614997Y-42141146D01*
X50861034Y-42509366D01*
X51229254Y-42755403D01*
X51663600Y-42841800D01*
X52097946Y-42755403D01*
X52466166Y-42509366D01*
X52507245Y-42447887D01*
X53657692Y-41297440D01*
X54100000Y-41297440D01*
X54347765Y-41248157D01*
X54557809Y-41107809D01*
X54698157Y-40897765D01*
X54747440Y-40650000D01*
X54747440Y-39350000D01*
X54717949Y-39201738D01*
X54877319Y-39042646D01*
X55035220Y-38662377D01*
X55035579Y-38250629D01*
X54878342Y-37870085D01*
X54587446Y-37578681D01*
X54207177Y-37420780D01*
X53795429Y-37420421D01*
X53414885Y-37577658D01*
X53123481Y-37868554D01*
X53029204Y-38095599D01*
X51864866Y-38095599D01*
X51884200Y-37998400D01*
X51797803Y-37564054D01*
X51638200Y-37325191D01*
X51638200Y-29990800D01*
X51635760Y-29966024D01*
X51605575Y-29814273D01*
X51647440Y-29603800D01*
X51647440Y-28353800D01*
X51598157Y-28106035D01*
X51457809Y-27895991D01*
X51247765Y-27755643D01*
X51000000Y-27706360D01*
X50461583Y-27706360D01*
X50458346Y-27704197D01*
X50024000Y-27617800D01*
X48209200Y-27617800D01*
X47774854Y-27704197D01*
X47535991Y-27863800D01*
X43468408Y-27863800D01*
X43229546Y-27704197D01*
X42795200Y-27617800D01*
X40770800Y-27617800D01*
X40336454Y-27704197D01*
X40097592Y-27863800D01*
X38595109Y-27863800D01*
X38078104Y-27760961D01*
X37650413Y-27475187D01*
X37364639Y-27047496D01*
X37264288Y-26543000D01*
X37364639Y-26038504D01*
X37650413Y-25610813D01*
X38078104Y-25325039D01*
X38595109Y-25222200D01*
X47027991Y-25222200D01*
X47266854Y-25381803D01*
X47701200Y-25468200D01*
X49145600Y-25468200D01*
X49356547Y-25426240D01*
X50500000Y-25426240D01*
X50747765Y-25376957D01*
X50957809Y-25236609D01*
X51098157Y-25026565D01*
X51147440Y-24778800D01*
X51147440Y-24615692D01*
X51269852Y-24491412D01*
X51293135Y-24458746D01*
X51524998Y-23991505D01*
X51536931Y-23953206D01*
X51683157Y-22940807D01*
X51896962Y-22509956D01*
X52234481Y-22167285D01*
X52662048Y-21946976D01*
X53033324Y-21887595D01*
X53301480Y-22288920D01*
X53831913Y-22643343D01*
X54457600Y-22767800D01*
X55372000Y-22767800D01*
X55997687Y-22643343D01*
X56528120Y-22288920D01*
X56808434Y-21869400D01*
X57889092Y-21869400D01*
X58615578Y-22013511D01*
X58615578Y-22013511D01*
G37*
X58615578Y-22013511D02*
X59221454Y-22416968D01*
X59265000Y-22481771D01*
X59265000Y-45309334D01*
X59088919Y-45486155D01*
X58566187Y-45753329D01*
X57976375Y-45847000D01*
X36810509Y-45847000D01*
X36082186Y-45702127D01*
X35475348Y-45296652D01*
X35069873Y-44689814D01*
X34925000Y-43961491D01*
X34925000Y-43312909D01*
X35069873Y-42584586D01*
X35475348Y-41977748D01*
X35679038Y-41841647D01*
X35587866Y-42300000D01*
X35693293Y-42830017D01*
X35993523Y-43279343D01*
X36442849Y-43579573D01*
X36972866Y-43685000D01*
X37027134Y-43685000D01*
X37557151Y-43579573D01*
X37772323Y-43435800D01*
X38035341Y-43435800D01*
X38083991Y-43508609D01*
X38294035Y-43648957D01*
X38541800Y-43698240D01*
X39791800Y-43698240D01*
X40039565Y-43648957D01*
X40249609Y-43508609D01*
X40389957Y-43298565D01*
X40439240Y-43050800D01*
X40439240Y-41550800D01*
X40414694Y-41427400D01*
X49511200Y-41427400D01*
X49535976Y-41424960D01*
X50177062Y-41297440D01*
X50605969Y-41297440D01*
X50528600Y-41686400D01*
X50528600Y-41706800D01*
X50614997Y-42141146D01*
X50861034Y-42509366D01*
X51229254Y-42755403D01*
X51663600Y-42841800D01*
X52097946Y-42755403D01*
X52466166Y-42509366D01*
X52507245Y-42447887D01*
X53657692Y-41297440D01*
X54100000Y-41297440D01*
X54347765Y-41248157D01*
X54557809Y-41107809D01*
X54698157Y-40897765D01*
X54747440Y-40650000D01*
X54747440Y-39350000D01*
X54717949Y-39201738D01*
X54877319Y-39042646D01*
X55035220Y-38662377D01*
X55035579Y-38250629D01*
X54878342Y-37870085D01*
X54587446Y-37578681D01*
X54207177Y-37420780D01*
X53795429Y-37420421D01*
X53414885Y-37577658D01*
X53123481Y-37868554D01*
X53029204Y-38095599D01*
X51864866Y-38095599D01*
X51884200Y-37998400D01*
X51797803Y-37564054D01*
X51638200Y-37325191D01*
X51638200Y-29990800D01*
X51635760Y-29966024D01*
X51605575Y-29814273D01*
X51647440Y-29603800D01*
X51647440Y-28353800D01*
X51598157Y-28106035D01*
X51457809Y-27895991D01*
X51247765Y-27755643D01*
X51000000Y-27706360D01*
X50461583Y-27706360D01*
X50458346Y-27704197D01*
X50024000Y-27617800D01*
X48209200Y-27617800D01*
X47774854Y-27704197D01*
X47535991Y-27863800D01*
X43468408Y-27863800D01*
X43229546Y-27704197D01*
X42795200Y-27617800D01*
X40770800Y-27617800D01*
X40336454Y-27704197D01*
X40097592Y-27863800D01*
X38595109Y-27863800D01*
X38078104Y-27760961D01*
X37650413Y-27475187D01*
X37364639Y-27047496D01*
X37264288Y-26543000D01*
X37364639Y-26038504D01*
X37650413Y-25610813D01*
X38078104Y-25325039D01*
X38595109Y-25222200D01*
X47027991Y-25222200D01*
X47266854Y-25381803D01*
X47701200Y-25468200D01*
X49145600Y-25468200D01*
X49356547Y-25426240D01*
X50500000Y-25426240D01*
X50747765Y-25376957D01*
X50957809Y-25236609D01*
X51098157Y-25026565D01*
X51147440Y-24778800D01*
X51147440Y-24615692D01*
X51269852Y-24491412D01*
X51293135Y-24458746D01*
X51524998Y-23991505D01*
X51536931Y-23953206D01*
X51683157Y-22940807D01*
X51896962Y-22509956D01*
X52234481Y-22167285D01*
X52662048Y-21946976D01*
X53033324Y-21887595D01*
X53301480Y-22288920D01*
X53831913Y-22643343D01*
X54457600Y-22767800D01*
X55372000Y-22767800D01*
X55997687Y-22643343D01*
X56528120Y-22288920D01*
X56808434Y-21869400D01*
X57889092Y-21869400D01*
X58615578Y-22013511D01*
G36*
X49871414Y-21912673D02*
X50478252Y-22318148D01*
X50883727Y-22924986D01*
X50902155Y-23017627D01*
X50797276Y-23743756D01*
X50655702Y-24029050D01*
X50432211Y-24255952D01*
X50149097Y-24401831D01*
X49784147Y-24460200D01*
X38582600Y-24460200D01*
X38458718Y-24472401D01*
X37904669Y-24582608D01*
X37675764Y-24677424D01*
X37206064Y-24991268D01*
X37030868Y-25166464D01*
X36717024Y-25636164D01*
X36622208Y-25865069D01*
X36512001Y-26419118D01*
X36512001Y-26666882D01*
X36622208Y-27220931D01*
X36717024Y-27449836D01*
X37030868Y-27919536D01*
X37206064Y-28094732D01*
X37675764Y-28408576D01*
X37904669Y-28503392D01*
X38458718Y-28613599D01*
X38582600Y-28625800D01*
X38658900Y-28625800D01*
X38611360Y-28864800D01*
X38611360Y-30164800D01*
X38660643Y-30412565D01*
X38800991Y-30622609D01*
X39011035Y-30762957D01*
X39125194Y-30785664D01*
X39082560Y-31000000D01*
X39082560Y-32000000D01*
X39131843Y-32247765D01*
X39272191Y-32457809D01*
X39482235Y-32598157D01*
X39730000Y-32647440D01*
X42230000Y-32647440D01*
X42292541Y-32635000D01*
X44272000Y-32635000D01*
X44706346Y-32548603D01*
X45074566Y-32302566D01*
X46564892Y-30812240D01*
X47007200Y-30812240D01*
X47254965Y-30762957D01*
X47465009Y-30622609D01*
X47605357Y-30412565D01*
X47654640Y-30164800D01*
X47654640Y-28864800D01*
X47607100Y-28625800D01*
X49448657Y-28625800D01*
X50028804Y-28741198D01*
X50467605Y-29034395D01*
X50760802Y-29473196D01*
X50876200Y-30053343D01*
X50876200Y-34591879D01*
X50478252Y-35187452D01*
X49871414Y-35592927D01*
X49143091Y-35737800D01*
X47625003Y-35737800D01*
X47647440Y-35625000D01*
X47647440Y-34375000D01*
X47598157Y-34127235D01*
X47457809Y-33917191D01*
X47247765Y-33776843D01*
X47000000Y-33727560D01*
X45500000Y-33727560D01*
X45252235Y-33776843D01*
X45042191Y-33917191D01*
X45000000Y-33980334D01*
X44957809Y-33917191D01*
X44747765Y-33776843D01*
X44500000Y-33727560D01*
X43000000Y-33727560D01*
X42829976Y-33761380D01*
X42828157Y-33752235D01*
X42687809Y-33542191D01*
X42477765Y-33401843D01*
X42230000Y-33352560D01*
X39730000Y-33352560D01*
X39482235Y-33401843D01*
X39272191Y-33542191D01*
X39131843Y-33752235D01*
X39082560Y-34000000D01*
X39082560Y-35000000D01*
X39131843Y-35247765D01*
X39272191Y-35457809D01*
X39482235Y-35598157D01*
X39575412Y-35616691D01*
X39452780Y-35912023D01*
X39452421Y-36323771D01*
X39609658Y-36704315D01*
X39900554Y-36995719D01*
X40107491Y-37081646D01*
X39956640Y-37840024D01*
X39954200Y-37864800D01*
X39954200Y-38435663D01*
X39791800Y-38403360D01*
X38541800Y-38403360D01*
X38294035Y-38452643D01*
X38083991Y-38592991D01*
X37943643Y-38803035D01*
X37894360Y-39050800D01*
X37894360Y-40550800D01*
X37917155Y-40665400D01*
X36798000Y-40665400D01*
X36731598Y-40671940D01*
X36069731Y-40534487D01*
X35468982Y-40127837D01*
X35415040Y-40046473D01*
X35415040Y-38600000D01*
X35365757Y-38352235D01*
X35225409Y-38142191D01*
X35015365Y-38001843D01*
X34925000Y-37983868D01*
X34925000Y-23653309D01*
X35069873Y-22924986D01*
X35475348Y-22318148D01*
X36082186Y-21912673D01*
X36810509Y-21767800D01*
X49143091Y-21767800D01*
X49871414Y-21912673D01*
X49871414Y-21912673D01*
G37*
X49871414Y-21912673D02*
X50478252Y-22318148D01*
X50883727Y-22924986D01*
X50902155Y-23017627D01*
X50797276Y-23743756D01*
X50655702Y-24029050D01*
X50432211Y-24255952D01*
X50149097Y-24401831D01*
X49784147Y-24460200D01*
X38582600Y-24460200D01*
X38458718Y-24472401D01*
X37904669Y-24582608D01*
X37675764Y-24677424D01*
X37206064Y-24991268D01*
X37030868Y-25166464D01*
X36717024Y-25636164D01*
X36622208Y-25865069D01*
X36512001Y-26419118D01*
X36512001Y-26666882D01*
X36622208Y-27220931D01*
X36717024Y-27449836D01*
X37030868Y-27919536D01*
X37206064Y-28094732D01*
X37675764Y-28408576D01*
X37904669Y-28503392D01*
X38458718Y-28613599D01*
X38582600Y-28625800D01*
X38658900Y-28625800D01*
X38611360Y-28864800D01*
X38611360Y-30164800D01*
X38660643Y-30412565D01*
X38800991Y-30622609D01*
X39011035Y-30762957D01*
X39125194Y-30785664D01*
X39082560Y-31000000D01*
X39082560Y-32000000D01*
X39131843Y-32247765D01*
X39272191Y-32457809D01*
X39482235Y-32598157D01*
X39730000Y-32647440D01*
X42230000Y-32647440D01*
X42292541Y-32635000D01*
X44272000Y-32635000D01*
X44706346Y-32548603D01*
X45074566Y-32302566D01*
X46564892Y-30812240D01*
X47007200Y-30812240D01*
X47254965Y-30762957D01*
X47465009Y-30622609D01*
X47605357Y-30412565D01*
X47654640Y-30164800D01*
X47654640Y-28864800D01*
X47607100Y-28625800D01*
X49448657Y-28625800D01*
X50028804Y-28741198D01*
X50467605Y-29034395D01*
X50760802Y-29473196D01*
X50876200Y-30053343D01*
X50876200Y-34591879D01*
X50478252Y-35187452D01*
X49871414Y-35592927D01*
X49143091Y-35737800D01*
X47625003Y-35737800D01*
X47647440Y-35625000D01*
X47647440Y-34375000D01*
X47598157Y-34127235D01*
X47457809Y-33917191D01*
X47247765Y-33776843D01*
X47000000Y-33727560D01*
X45500000Y-33727560D01*
X45252235Y-33776843D01*
X45042191Y-33917191D01*
X45000000Y-33980334D01*
X44957809Y-33917191D01*
X44747765Y-33776843D01*
X44500000Y-33727560D01*
X43000000Y-33727560D01*
X42829976Y-33761380D01*
X42828157Y-33752235D01*
X42687809Y-33542191D01*
X42477765Y-33401843D01*
X42230000Y-33352560D01*
X39730000Y-33352560D01*
X39482235Y-33401843D01*
X39272191Y-33542191D01*
X39131843Y-33752235D01*
X39082560Y-34000000D01*
X39082560Y-35000000D01*
X39131843Y-35247765D01*
X39272191Y-35457809D01*
X39482235Y-35598157D01*
X39575412Y-35616691D01*
X39452780Y-35912023D01*
X39452421Y-36323771D01*
X39609658Y-36704315D01*
X39900554Y-36995719D01*
X40107491Y-37081646D01*
X39956640Y-37840024D01*
X39954200Y-37864800D01*
X39954200Y-38435663D01*
X39791800Y-38403360D01*
X38541800Y-38403360D01*
X38294035Y-38452643D01*
X38083991Y-38592991D01*
X37943643Y-38803035D01*
X37894360Y-39050800D01*
X37894360Y-40550800D01*
X37917155Y-40665400D01*
X36798000Y-40665400D01*
X36731598Y-40671940D01*
X36069731Y-40534487D01*
X35468982Y-40127837D01*
X35415040Y-40046473D01*
X35415040Y-38600000D01*
X35365757Y-38352235D01*
X35225409Y-38142191D01*
X35015365Y-38001843D01*
X34925000Y-37983868D01*
X34925000Y-23653309D01*
X35069873Y-22924986D01*
X35475348Y-22318148D01*
X36082186Y-21912673D01*
X36810509Y-21767800D01*
X49143091Y-21767800D01*
X49871414Y-21912673D01*
G36*
X24092051Y-21912482D02*
X24698650Y-22317455D01*
X25104257Y-22923633D01*
X25249699Y-23651344D01*
X25270900Y-43962044D01*
X25178215Y-44550812D01*
X24912606Y-45073042D01*
X24498534Y-45487547D01*
X23976580Y-45753701D01*
X23387912Y-45847000D01*
X2031222Y-45847000D01*
X1439126Y-45752582D01*
X914821Y-45483347D01*
X735000Y-45301623D01*
X735000Y-41804577D01*
X1318581Y-41417963D01*
X2042281Y-41275000D01*
X2061854Y-41275000D01*
X1993523Y-41320657D01*
X1693293Y-41769983D01*
X1587866Y-42300000D01*
X1693293Y-42830017D01*
X1993523Y-43279343D01*
X2442849Y-43579573D01*
X2972866Y-43685000D01*
X3027134Y-43685000D01*
X3557151Y-43579573D01*
X3773520Y-43435000D01*
X4000419Y-43435000D01*
X4073391Y-43544209D01*
X4283435Y-43684557D01*
X4531200Y-43733840D01*
X5781200Y-43733840D01*
X6028965Y-43684557D01*
X6239009Y-43544209D01*
X6379357Y-43334165D01*
X6428640Y-43086400D01*
X6428640Y-41586400D01*
X6379357Y-41338635D01*
X6336837Y-41275000D01*
X15472594Y-41275000D01*
X15492478Y-41273434D01*
X15652178Y-41248119D01*
X15652235Y-41248157D01*
X15900000Y-41297440D01*
X16577130Y-41297440D01*
X16492600Y-41722400D01*
X16492600Y-41757600D01*
X16578997Y-42191946D01*
X16825034Y-42560166D01*
X17193254Y-42806203D01*
X17627600Y-42892600D01*
X18061946Y-42806203D01*
X18430166Y-42560166D01*
X18501047Y-42454085D01*
X19657693Y-41297440D01*
X20100000Y-41297440D01*
X20347765Y-41248157D01*
X20557809Y-41107809D01*
X20698157Y-40897765D01*
X20747440Y-40650000D01*
X20747440Y-39350000D01*
X20711970Y-39171681D01*
X20892119Y-38991846D01*
X21050020Y-38611577D01*
X21050379Y-38199829D01*
X20893142Y-37819285D01*
X20602246Y-37527881D01*
X20221977Y-37369980D01*
X19810229Y-37369621D01*
X19429685Y-37526858D01*
X19277202Y-37679076D01*
X19158676Y-37702652D01*
X18912114Y-37867399D01*
X18766903Y-38012610D01*
X17835269Y-38012610D01*
X17848200Y-37947600D01*
X17761803Y-37513254D01*
X17597146Y-37266828D01*
X17593276Y-34294294D01*
X17706346Y-34271803D01*
X18074566Y-34025766D01*
X18320603Y-33657546D01*
X18407000Y-33223200D01*
X18407000Y-31445200D01*
X18320603Y-31010854D01*
X18074566Y-30642634D01*
X17706346Y-30396597D01*
X17588170Y-30373090D01*
X17579421Y-23653244D01*
X17671984Y-23064354D01*
X17937541Y-22541994D01*
X18351628Y-22127367D01*
X18873643Y-21861130D01*
X19462411Y-21767800D01*
X23364187Y-21767800D01*
X24092051Y-21912482D01*
X24092051Y-21912482D01*
G37*
X24092051Y-21912482D02*
X24698650Y-22317455D01*
X25104257Y-22923633D01*
X25249699Y-23651344D01*
X25270900Y-43962044D01*
X25178215Y-44550812D01*
X24912606Y-45073042D01*
X24498534Y-45487547D01*
X23976580Y-45753701D01*
X23387912Y-45847000D01*
X2031222Y-45847000D01*
X1439126Y-45752582D01*
X914821Y-45483347D01*
X735000Y-45301623D01*
X735000Y-41804577D01*
X1318581Y-41417963D01*
X2042281Y-41275000D01*
X2061854Y-41275000D01*
X1993523Y-41320657D01*
X1693293Y-41769983D01*
X1587866Y-42300000D01*
X1693293Y-42830017D01*
X1993523Y-43279343D01*
X2442849Y-43579573D01*
X2972866Y-43685000D01*
X3027134Y-43685000D01*
X3557151Y-43579573D01*
X3773520Y-43435000D01*
X4000419Y-43435000D01*
X4073391Y-43544209D01*
X4283435Y-43684557D01*
X4531200Y-43733840D01*
X5781200Y-43733840D01*
X6028965Y-43684557D01*
X6239009Y-43544209D01*
X6379357Y-43334165D01*
X6428640Y-43086400D01*
X6428640Y-41586400D01*
X6379357Y-41338635D01*
X6336837Y-41275000D01*
X15472594Y-41275000D01*
X15492478Y-41273434D01*
X15652178Y-41248119D01*
X15652235Y-41248157D01*
X15900000Y-41297440D01*
X16577130Y-41297440D01*
X16492600Y-41722400D01*
X16492600Y-41757600D01*
X16578997Y-42191946D01*
X16825034Y-42560166D01*
X17193254Y-42806203D01*
X17627600Y-42892600D01*
X18061946Y-42806203D01*
X18430166Y-42560166D01*
X18501047Y-42454085D01*
X19657693Y-41297440D01*
X20100000Y-41297440D01*
X20347765Y-41248157D01*
X20557809Y-41107809D01*
X20698157Y-40897765D01*
X20747440Y-40650000D01*
X20747440Y-39350000D01*
X20711970Y-39171681D01*
X20892119Y-38991846D01*
X21050020Y-38611577D01*
X21050379Y-38199829D01*
X20893142Y-37819285D01*
X20602246Y-37527881D01*
X20221977Y-37369980D01*
X19810229Y-37369621D01*
X19429685Y-37526858D01*
X19277202Y-37679076D01*
X19158676Y-37702652D01*
X18912114Y-37867399D01*
X18766903Y-38012610D01*
X17835269Y-38012610D01*
X17848200Y-37947600D01*
X17761803Y-37513254D01*
X17597146Y-37266828D01*
X17593276Y-34294294D01*
X17706346Y-34271803D01*
X18074566Y-34025766D01*
X18320603Y-33657546D01*
X18407000Y-33223200D01*
X18407000Y-31445200D01*
X18320603Y-31010854D01*
X18074566Y-30642634D01*
X17706346Y-30396597D01*
X17588170Y-30373090D01*
X17579421Y-23653244D01*
X17671984Y-23064354D01*
X17937541Y-22541994D01*
X18351628Y-22127367D01*
X18873643Y-21861130D01*
X19462411Y-21767800D01*
X23364187Y-21767800D01*
X24092051Y-21912482D01*
G36*
X10731080Y-21882520D02*
X11261513Y-22236943D01*
X11887200Y-22361400D01*
X12750800Y-22361400D01*
X13376487Y-22236943D01*
X13906920Y-21882520D01*
X13983573Y-21767800D01*
X14700691Y-21767800D01*
X15429014Y-21912673D01*
X16035852Y-22318148D01*
X16441327Y-22924986D01*
X16586200Y-23653309D01*
X16586200Y-30335600D01*
X15113000Y-30335600D01*
X14678654Y-30421997D01*
X14310434Y-30668034D01*
X14064397Y-31036254D01*
X13978000Y-31470600D01*
X13978000Y-33223200D01*
X14064397Y-33657546D01*
X14310434Y-34025766D01*
X14678654Y-34271803D01*
X15113000Y-34358200D01*
X16467514Y-34358200D01*
X16442150Y-34486094D01*
X16038852Y-35091894D01*
X15434880Y-35497930D01*
X14709203Y-35645266D01*
X13642449Y-35650093D01*
X13647440Y-35625000D01*
X13647440Y-34375000D01*
X13598157Y-34127235D01*
X13457809Y-33917191D01*
X13247765Y-33776843D01*
X13000000Y-33727560D01*
X11500000Y-33727560D01*
X11252235Y-33776843D01*
X11042191Y-33917191D01*
X11000000Y-33980334D01*
X10957809Y-33917191D01*
X10747765Y-33776843D01*
X10500000Y-33727560D01*
X9000000Y-33727560D01*
X8829976Y-33761380D01*
X8828157Y-33752235D01*
X8687809Y-33542191D01*
X8477765Y-33401843D01*
X8230000Y-33352560D01*
X5730000Y-33352560D01*
X5482235Y-33401843D01*
X5272191Y-33542191D01*
X5131843Y-33752235D01*
X5082560Y-34000000D01*
X5082560Y-35000000D01*
X5131843Y-35247765D01*
X5272191Y-35457809D01*
X5340927Y-35503737D01*
X5213580Y-35810423D01*
X5213221Y-36222171D01*
X5370458Y-36602715D01*
X5614620Y-36847303D01*
X5532060Y-36971317D01*
X5513202Y-37016989D01*
X5361826Y-37780265D01*
X5359400Y-37804971D01*
X5359400Y-38701860D01*
X4531200Y-38701860D01*
X4283435Y-38751143D01*
X4073391Y-38891491D01*
X3933043Y-39101535D01*
X3883760Y-39349300D01*
X3883760Y-40513000D01*
X2029858Y-40513000D01*
X1906795Y-40525039D01*
X1558365Y-40593869D01*
X1421702Y-40572224D01*
X900009Y-40306408D01*
X735000Y-40141399D01*
X735000Y-28788600D01*
X4346760Y-28788600D01*
X4346760Y-30088600D01*
X4396043Y-30336365D01*
X4536391Y-30546409D01*
X4746435Y-30686757D01*
X4994200Y-30736040D01*
X5142664Y-30736040D01*
X5131843Y-30752235D01*
X5082560Y-31000000D01*
X5082560Y-32000000D01*
X5131843Y-32247765D01*
X5272191Y-32457809D01*
X5482235Y-32598157D01*
X5730000Y-32647440D01*
X8230000Y-32647440D01*
X8292541Y-32635000D01*
X9626400Y-32635000D01*
X10060746Y-32548603D01*
X10428966Y-32302566D01*
X11995492Y-30736040D01*
X12437800Y-30736040D01*
X12685565Y-30686757D01*
X12895609Y-30546409D01*
X13035957Y-30336365D01*
X13085240Y-30088600D01*
X13085240Y-28788600D01*
X13035957Y-28540835D01*
X12895609Y-28330791D01*
X12685565Y-28190443D01*
X12437800Y-28141160D01*
X10937800Y-28141160D01*
X10690035Y-28190443D01*
X10479991Y-28330791D01*
X10339643Y-28540835D01*
X10337800Y-28550100D01*
X10335957Y-28540835D01*
X10195609Y-28330791D01*
X9985565Y-28190443D01*
X9737800Y-28141160D01*
X8237800Y-28141160D01*
X7990035Y-28190443D01*
X7820685Y-28303600D01*
X6911315Y-28303600D01*
X6741965Y-28190443D01*
X6494200Y-28141160D01*
X4994200Y-28141160D01*
X4746435Y-28190443D01*
X4536391Y-28330791D01*
X4396043Y-28540835D01*
X4346760Y-28788600D01*
X735000Y-28788600D01*
X735000Y-22291801D01*
X900009Y-22126792D01*
X1289067Y-21928557D01*
X1273170Y-21939179D01*
X897069Y-22502053D01*
X765000Y-23166009D01*
X765000Y-23233991D01*
X897069Y-23897947D01*
X1273170Y-24460821D01*
X1836044Y-24836922D01*
X2500000Y-24968991D01*
X3163956Y-24836922D01*
X3726830Y-24460821D01*
X4102931Y-23897947D01*
X4235000Y-23233991D01*
X4235000Y-23166009D01*
X4102931Y-22502053D01*
X3726830Y-21939179D01*
X3470344Y-21767800D01*
X10654427Y-21767800D01*
X10731080Y-21882520D01*
X10731080Y-21882520D01*
G37*
X10731080Y-21882520D02*
X11261513Y-22236943D01*
X11887200Y-22361400D01*
X12750800Y-22361400D01*
X13376487Y-22236943D01*
X13906920Y-21882520D01*
X13983573Y-21767800D01*
X14700691Y-21767800D01*
X15429014Y-21912673D01*
X16035852Y-22318148D01*
X16441327Y-22924986D01*
X16586200Y-23653309D01*
X16586200Y-30335600D01*
X15113000Y-30335600D01*
X14678654Y-30421997D01*
X14310434Y-30668034D01*
X14064397Y-31036254D01*
X13978000Y-31470600D01*
X13978000Y-33223200D01*
X14064397Y-33657546D01*
X14310434Y-34025766D01*
X14678654Y-34271803D01*
X15113000Y-34358200D01*
X16467514Y-34358200D01*
X16442150Y-34486094D01*
X16038852Y-35091894D01*
X15434880Y-35497930D01*
X14709203Y-35645266D01*
X13642449Y-35650093D01*
X13647440Y-35625000D01*
X13647440Y-34375000D01*
X13598157Y-34127235D01*
X13457809Y-33917191D01*
X13247765Y-33776843D01*
X13000000Y-33727560D01*
X11500000Y-33727560D01*
X11252235Y-33776843D01*
X11042191Y-33917191D01*
X11000000Y-33980334D01*
X10957809Y-33917191D01*
X10747765Y-33776843D01*
X10500000Y-33727560D01*
X9000000Y-33727560D01*
X8829976Y-33761380D01*
X8828157Y-33752235D01*
X8687809Y-33542191D01*
X8477765Y-33401843D01*
X8230000Y-33352560D01*
X5730000Y-33352560D01*
X5482235Y-33401843D01*
X5272191Y-33542191D01*
X5131843Y-33752235D01*
X5082560Y-34000000D01*
X5082560Y-35000000D01*
X5131843Y-35247765D01*
X5272191Y-35457809D01*
X5340927Y-35503737D01*
X5213580Y-35810423D01*
X5213221Y-36222171D01*
X5370458Y-36602715D01*
X5614620Y-36847303D01*
X5532060Y-36971317D01*
X5513202Y-37016989D01*
X5361826Y-37780265D01*
X5359400Y-37804971D01*
X5359400Y-38701860D01*
X4531200Y-38701860D01*
X4283435Y-38751143D01*
X4073391Y-38891491D01*
X3933043Y-39101535D01*
X3883760Y-39349300D01*
X3883760Y-40513000D01*
X2029858Y-40513000D01*
X1906795Y-40525039D01*
X1558365Y-40593869D01*
X1421702Y-40572224D01*
X900009Y-40306408D01*
X735000Y-40141399D01*
X735000Y-28788600D01*
X4346760Y-28788600D01*
X4346760Y-30088600D01*
X4396043Y-30336365D01*
X4536391Y-30546409D01*
X4746435Y-30686757D01*
X4994200Y-30736040D01*
X5142664Y-30736040D01*
X5131843Y-30752235D01*
X5082560Y-31000000D01*
X5082560Y-32000000D01*
X5131843Y-32247765D01*
X5272191Y-32457809D01*
X5482235Y-32598157D01*
X5730000Y-32647440D01*
X8230000Y-32647440D01*
X8292541Y-32635000D01*
X9626400Y-32635000D01*
X10060746Y-32548603D01*
X10428966Y-32302566D01*
X11995492Y-30736040D01*
X12437800Y-30736040D01*
X12685565Y-30686757D01*
X12895609Y-30546409D01*
X13035957Y-30336365D01*
X13085240Y-30088600D01*
X13085240Y-28788600D01*
X13035957Y-28540835D01*
X12895609Y-28330791D01*
X12685565Y-28190443D01*
X12437800Y-28141160D01*
X10937800Y-28141160D01*
X10690035Y-28190443D01*
X10479991Y-28330791D01*
X10339643Y-28540835D01*
X10337800Y-28550100D01*
X10335957Y-28540835D01*
X10195609Y-28330791D01*
X9985565Y-28190443D01*
X9737800Y-28141160D01*
X8237800Y-28141160D01*
X7990035Y-28190443D01*
X7820685Y-28303600D01*
X6911315Y-28303600D01*
X6741965Y-28190443D01*
X6494200Y-28141160D01*
X4994200Y-28141160D01*
X4746435Y-28190443D01*
X4536391Y-28330791D01*
X4396043Y-28540835D01*
X4346760Y-28788600D01*
X735000Y-28788600D01*
X735000Y-22291801D01*
X900009Y-22126792D01*
X1289067Y-21928557D01*
X1273170Y-21939179D01*
X897069Y-22502053D01*
X765000Y-23166009D01*
X765000Y-23233991D01*
X897069Y-23897947D01*
X1273170Y-24460821D01*
X1836044Y-24836922D01*
X2500000Y-24968991D01*
X3163956Y-24836922D01*
X3726830Y-24460821D01*
X4102931Y-23897947D01*
X4235000Y-23233991D01*
X4235000Y-23166009D01*
X4102931Y-22502053D01*
X3726830Y-21939179D01*
X3470344Y-21767800D01*
X10654427Y-21767800D01*
X10731080Y-21882520D01*
G36*
X56626634Y-1072957D02*
X58005629Y-1994371D01*
X58927043Y-3373366D01*
X59265000Y-5072390D01*
X59265000Y-14450418D01*
X58715870Y-14816337D01*
X57989019Y-14960600D01*
X43008109Y-14960600D01*
X42279786Y-14815727D01*
X41672948Y-14410252D01*
X41267473Y-13803414D01*
X41122600Y-13075091D01*
X41122600Y-2098106D01*
X41266020Y-1373299D01*
X41667650Y-768295D01*
X41716944Y-735000D01*
X54927610Y-735000D01*
X56626634Y-1072957D01*
X56626634Y-1072957D01*
G37*
X56626634Y-1072957D02*
X58005629Y-1994371D01*
X58927043Y-3373366D01*
X59265000Y-5072390D01*
X59265000Y-14450418D01*
X58715870Y-14816337D01*
X57989019Y-14960600D01*
X43008109Y-14960600D01*
X42279786Y-14815727D01*
X41672948Y-14410252D01*
X41267473Y-13803414D01*
X41122600Y-13075091D01*
X41122600Y-2098106D01*
X41266020Y-1373299D01*
X41667650Y-768295D01*
X41716944Y-735000D01*
X54927610Y-735000D01*
X56626634Y-1072957D01*
G36*
X19069752Y-876134D02*
X19335236Y-1398694D01*
X19427622Y-1987746D01*
X19408957Y-13111916D01*
X19263923Y-13837443D01*
X18860226Y-14442274D01*
X18256388Y-14847454D01*
X17531215Y-14994270D01*
X9256758Y-15028461D01*
X8666590Y-14937236D01*
X8142772Y-14672243D01*
X7726818Y-14258005D01*
X7459663Y-13735286D01*
X7366000Y-13145498D01*
X7366000Y-12585509D01*
X7501708Y-11903261D01*
X7881084Y-11335484D01*
X8448861Y-10956108D01*
X9131109Y-10820400D01*
X10122538Y-10820400D01*
X10139953Y-10819200D01*
X10683288Y-10743982D01*
X10716809Y-10734520D01*
X11219276Y-10514524D01*
X11248966Y-10496311D01*
X11672770Y-10148085D01*
X11685464Y-10136102D01*
X12999527Y-8712535D01*
X13013872Y-8693753D01*
X13406953Y-8065473D01*
X13424089Y-8021643D01*
X13561401Y-7293362D01*
X13563600Y-7269832D01*
X13563600Y-1984592D01*
X13656776Y-1396302D01*
X13922592Y-874609D01*
X14062201Y-735000D01*
X18928855Y-735000D01*
X19069752Y-876134D01*
X19069752Y-876134D01*
G37*
X19069752Y-876134D02*
X19335236Y-1398694D01*
X19427622Y-1987746D01*
X19408957Y-13111916D01*
X19263923Y-13837443D01*
X18860226Y-14442274D01*
X18256388Y-14847454D01*
X17531215Y-14994270D01*
X9256758Y-15028461D01*
X8666590Y-14937236D01*
X8142772Y-14672243D01*
X7726818Y-14258005D01*
X7459663Y-13735286D01*
X7366000Y-13145498D01*
X7366000Y-12585509D01*
X7501708Y-11903261D01*
X7881084Y-11335484D01*
X8448861Y-10956108D01*
X9131109Y-10820400D01*
X10122538Y-10820400D01*
X10139953Y-10819200D01*
X10683288Y-10743982D01*
X10716809Y-10734520D01*
X11219276Y-10514524D01*
X11248966Y-10496311D01*
X11672770Y-10148085D01*
X11685464Y-10136102D01*
X12999527Y-8712535D01*
X13013872Y-8693753D01*
X13406953Y-8065473D01*
X13424089Y-8021643D01*
X13561401Y-7293362D01*
X13563600Y-7269832D01*
X13563600Y-1984592D01*
X13656776Y-1396302D01*
X13922592Y-874609D01*
X14062201Y-735000D01*
X18928855Y-735000D01*
X19069752Y-876134D01*
M02*
